<svg id="Layer_1" enable-background="new 0 0 512 512" height="512" viewBox="0 0 512 512" width="512" xmlns="http://www.w3.org/2000/svg"><g><path d="m284.9 217.2v-54.9c0-1.6.8-3.2 2.2-4.1s3.1-1.1 4.6-.5c3.6 1.5 7.4 2.1 11.4 1.9 12.8-.8 23.4-11.4 24.1-24.2.4-7.1-2.1-13.9-7-19.1s-11.5-8-18.7-8c-3.4 0-6.7.7-9.8 1.9-1.5.6-3.2.5-4.6-.5-1.4-.9-2.2-2.4-2.2-4.1v-54.8h-162c-2.3 0-4.2 1.9-4.2 4.2v162.2h48.4c-.4-2.2-.6-4.5-.6-6.8 0-9.8 3.9-19 11.1-25.7 7.1-6.8 16.5-10.2 26.4-9.6 18 1 32.4 15.3 33.4 33.3 0 2.9-.2 5.9-.7 8.8z" fill="#03a8dd"/><path d="m452.3 98.6c3-.2 6 0 8.9.6v-44.2c0-2.3-1.9-4.2-4.2-4.2h-162.4v48.4c2.2-.4 4.5-.6 6.8-.6 9.8 0 19 3.9 25.7 11.1 6.8 7.1 10.2 16.5 9.7 26.4-1 17.7-15.6 32.4-33.3 33.4-3 .2-6 0-8.9-.6v48.3h54.9c1.6 0 3.2.8 4.1 2.2s1.1 3.1.5 4.6c-1.3 3.3-2 6.7-1.9 10.3.2 13.2 11.1 24.5 24.3 25.2 7.1.4 13.9-2.1 19.1-7s8-11.5 8-18.6c0-3.4-.6-6.7-1.9-9.8-.6-1.5-.4-3.2.5-4.6s2.4-2.2 4.1-2.2h54.9v-48.4c-2.2.4-4.5.6-6.8.6-9.8 0-19-3.9-25.7-11.1-6.8-7.1-10.2-16.5-9.7-26.4 1-18 15.3-32.4 33.3-33.4z" fill="#4d81c2"/><path d="m413.2 233.8c0 9.8-3.9 19-11.1 25.7-7.1 6.8-16.5 10.2-26.3 9.7-18.5-1-33.2-16.2-33.6-34.8 0-2.5.2-5 .6-7.4h-48.4v54.9c0 1.6-.8 3.2-2.2 4.1s-3.1 1.1-4.6.5c-3.5-1.4-7.2-2.1-11.1-1.9-12.8.6-23.5 11.1-24.4 23.9-.5 7.2 1.9 14.1 6.9 19.3 4.9 5.3 11.6 8.2 18.8 8.2 3.4 0 6.7-.6 9.8-1.9.9-.4 1.5-.6 2.1-.6 1 0 1.9.3 2.7.8 1.4.9 2.2 2.4 2.2 4.1v50.7c0 2.3 1.9 4.2 4.2 4.2h158c2.3 0 4.2-1.9 4.2-4.2v-44.1c-2.2.4-4.5.6-6.8.6-9.8 0-19-3.9-25.7-11.1-6.8-7.1-10.2-16.5-9.7-26.4 1-18 15.3-32.4 33.3-33.4 3-.2 6 0 8.9.6v-48.3h-48.4c.4 2.2.6 4.5.6 6.8z" fill="#03a8dd"/><path d="m213.1 294.8h-50.7c-1.6 0-3.2-.8-4.1-2.2s-1.1-3.1-.5-4.6c1.5-3.5 2.1-7.2 1.9-11.1-.6-12.8-11.1-23.5-23.8-24.4-7.2-.5-14.1 1.9-19.3 6.9-5.3 4.9-8.2 11.6-8.2 18.8 0 3.4.7 6.7 1.9 9.8.6 1.5.4 3.2-.5 4.6s-2.4 2.2-4.1 2.2h-50.7c-2.3 0-4.2 1.9-4.2 4.2v158c0 2.3 1.9 4.2 4.2 4.2h158c2.3 0 4.2-1.9 4.2-4.2v-44.2c-2.2.4-4.5.6-6.8.6-9.8 0-19-3.9-25.7-11.1-6.8-7.1-10.2-16.5-9.6-26.4 1-18 15.3-32.4 33.3-33.4 3-.2 6 0 8.9.6v-44.1c0-2.3-1.9-4.2-4.2-4.2z" fill="#4d81c2"/></g></svg>