<?xml version="1.0" encoding="utf-8"?>
<svg xmlns="http://www.w3.org/2000/svg" xmlns:xlink="http://www.w3.org/1999/xlink" width="600" height="400" viewBox="0 0 2400 1600">
<defs>
  <clipPath id="clip650">
    <rect x="0" y="0" width="2400" height="1600"/>
  </clipPath>
</defs>
<path clip-path="url(#clip650)" d="M0 1600 L2400 1600 L2400 0 L0 0  Z" fill="#ffffff" fill-rule="evenodd" fill-opacity="1"/>
<defs>
  <clipPath id="clip651">
    <rect x="480" y="0" width="1681" height="1600"/>
  </clipPath>
</defs>
<defs>
  <clipPath id="clip652">
    <rect x="270" y="229" width="2020" height="1140"/>
  </clipPath>
</defs>
<path clip-path="url(#clip650)" d="M270.944 1368.92 L2289.76 1368.92 L2289.76 229.664 L270.944 229.664  Z" fill="#ffffff" fill-rule="evenodd" fill-opacity="1"/>
<polyline clip-path="url(#clip650)" style="stroke:#000000; stroke-linecap:round; stroke-linejoin:round; stroke-width:4; stroke-opacity:1; fill:none" points="270.944,1368.92 2289.76,1368.92 "/>
<polyline clip-path="url(#clip650)" style="stroke:#000000; stroke-linecap:round; stroke-linejoin:round; stroke-width:4; stroke-opacity:1; fill:none" points="804.217,1368.92 804.217,1350.03 "/>
<polyline clip-path="url(#clip650)" style="stroke:#000000; stroke-linecap:round; stroke-linejoin:round; stroke-width:4; stroke-opacity:1; fill:none" points="1280.35,1368.92 1280.35,1350.03 "/>
<polyline clip-path="url(#clip650)" style="stroke:#000000; stroke-linecap:round; stroke-linejoin:round; stroke-width:4; stroke-opacity:1; fill:none" points="1756.49,1368.92 1756.49,1350.03 "/>
<path clip-path="url(#clip650)" d="M737.989 1430.81 Q738.692 1431.51 738.692 1432.5 Q738.692 1433.5 737.989 1434.2 Q737.286 1434.9 736.291 1434.9 L661.222 1434.9 Q660.227 1434.9 659.524 1434.2 Q658.821 1433.5 658.821 1432.5 Q658.821 1431.51 659.524 1430.81 Q660.227 1430.1 661.222 1430.1 L736.291 1430.1 Q737.286 1430.1 737.989 1430.81 Z" fill="#000000" fill-rule="evenodd" fill-opacity="1" /><path clip-path="url(#clip650)" d="M788.045 1412.13 Q788.045 1413.77 787.284 1414.18 Q786.522 1414.53 784.414 1414.53 L773.172 1414.53 L764.271 1449.89 Q763.568 1453 763.568 1455.63 Q763.568 1458.56 764.447 1459.85 Q765.384 1461.14 767.316 1461.14 Q771.122 1461.14 775.221 1457.68 Q779.379 1454.23 782.892 1445.8 Q783.36 1444.68 783.595 1444.45 Q783.887 1444.16 784.649 1444.16 Q786.113 1444.16 786.113 1445.33 Q786.113 1445.74 785.293 1447.61 Q784.531 1449.48 782.833 1452.24 Q781.194 1454.99 779.027 1457.57 Q776.919 1460.14 773.699 1462.02 Q770.478 1463.83 767.023 1463.83 Q762.163 1463.83 759.06 1460.73 Q756.015 1457.62 756.015 1452.76 Q756.015 1451.18 757.244 1446.15 Q758.474 1441.05 765.149 1414.53 L754.551 1414.53 Q753.087 1414.53 752.501 1414.47 Q751.974 1414.41 751.564 1414.12 Q751.213 1413.77 751.213 1413.06 Q751.213 1411.95 751.682 1411.48 Q752.15 1410.95 752.736 1410.9 Q753.38 1410.78 754.844 1410.78 L766.086 1410.78 L770.771 1391.75 Q771.239 1389.87 772.41 1388.82 Q773.64 1387.71 774.343 1387.59 Q775.045 1387.42 775.572 1387.42 Q777.153 1387.42 778.09 1388.29 Q779.027 1389.11 779.027 1390.64 Q779.027 1391.46 774.109 1410.78 L784.649 1410.78 Q785.995 1410.78 786.522 1410.84 Q787.108 1410.9 787.576 1411.19 Q788.045 1411.48 788.045 1412.13 Z" fill="#000000" fill-rule="evenodd" fill-opacity="1" /><path clip-path="url(#clip650)" d="M847.578 1469 Q847.497 1469.41 847.333 1470.15 Q847.169 1470.84 846.431 1473.06 Q845.693 1475.27 844.709 1477.52 Q843.766 1479.74 841.922 1482.85 Q840.118 1485.93 837.905 1488.71 Q837.29 1489.45 837.167 1489.9 Q837.085 1490.31 837.085 1491.66 Q837.085 1500.19 839.668 1500.19 Q839.791 1500.19 839.995 1500.19 Q840.241 1500.15 840.856 1499.94 Q841.512 1499.7 842.086 1499.33 Q842.66 1498.92 843.316 1498.1 Q843.971 1497.24 844.381 1496.09 Q844.75 1495.27 845.488 1495.27 Q846.472 1495.27 846.472 1496.09 Q846.472 1497.57 844.422 1499.82 Q842.373 1502.08 839.422 1502.08 Q836.593 1502.08 834.585 1500.23 Q832.617 1498.35 831.798 1494.98 Q822.944 1502.08 814.09 1502.08 Q807.86 1502.08 804.171 1498.02 Q800.482 1493.92 800.482 1487.85 Q800.482 1482.03 803.679 1476.5 Q806.917 1470.97 812.164 1467.52 Q817.451 1464.04 823.067 1464.04 Q825.034 1464.04 826.92 1464.57 Q828.805 1465.06 830.691 1466.33 Q832.576 1467.6 833.97 1469.53 Q835.364 1471.46 836.224 1474.49 Q837.085 1477.52 837.085 1481.34 L837.085 1486.54 Q842.496 1479.7 845.324 1469.9 Q845.734 1468.42 845.98 1468.26 Q846.144 1468.14 846.554 1468.14 Q846.964 1468.14 847.21 1468.38 Q847.497 1468.59 847.538 1468.79 L847.578 1469 M831.47 1492.81 Q831.306 1491.38 831.306 1483.43 Q831.306 1481.91 831.306 1481.09 Q831.306 1480.23 831.224 1478.59 Q831.142 1476.95 830.978 1475.92 Q830.855 1474.9 830.568 1473.42 Q830.281 1471.95 829.871 1471.01 Q829.461 1470.06 828.805 1469 Q828.191 1467.93 827.371 1467.32 Q826.592 1466.7 825.444 1466.29 Q824.338 1465.88 822.985 1465.88 Q821.304 1465.88 819.542 1466.5 Q817.82 1467.07 815.607 1468.92 Q813.393 1470.72 811.549 1473.59 Q809.622 1476.62 808.147 1482.2 Q806.712 1487.73 806.712 1491.05 Q806.712 1495.23 808.639 1497.73 Q810.565 1500.19 814.254 1500.19 Q823.067 1500.19 831.47 1492.81 Z" fill="#000000" fill-rule="evenodd" fill-opacity="1" /><path clip-path="url(#clip650)" d="M853.667 1520.93 Q853.667 1520.52 853.995 1519.62 L883.63 1440.43 Q883.63 1440.35 883.835 1439.9 Q884.04 1439.44 884.163 1439.16 Q884.286 1438.83 884.532 1438.58 Q884.818 1438.34 885.146 1438.34 Q885.966 1438.34 885.966 1439.36 Q885.966 1439.44 885.72 1440.43 L856.003 1519.7 Q855.511 1521.14 855.183 1521.55 Q854.896 1521.96 854.404 1521.96 Q853.667 1521.96 853.667 1520.93 Z" fill="#000000" fill-rule="evenodd" fill-opacity="1" /><path clip-path="url(#clip650)" d="M895.24 1501.13 Q895.24 1499.62 895.363 1499.17 Q895.527 1498.71 896.183 1498.02 L912.292 1480.06 Q921.104 1470.15 921.104 1461.5 Q921.104 1455.88 918.153 1451.86 Q915.243 1447.85 909.873 1447.85 Q906.184 1447.85 903.069 1450.1 Q899.954 1452.36 898.519 1456.37 Q898.765 1456.29 899.626 1456.29 Q901.716 1456.29 902.864 1457.6 Q904.053 1458.91 904.053 1460.68 Q904.053 1462.93 902.577 1464.04 Q901.142 1465.1 899.708 1465.1 Q899.134 1465.1 898.355 1464.98 Q897.617 1464.86 896.429 1463.71 Q895.24 1462.52 895.24 1460.43 Q895.24 1454.57 899.667 1449.9 Q904.135 1445.22 910.939 1445.22 Q918.645 1445.22 923.687 1449.81 Q928.769 1454.36 928.769 1461.5 Q928.769 1464 927.99 1466.29 Q927.253 1468.55 926.228 1470.31 Q925.244 1472.07 922.539 1474.9 Q919.834 1477.73 917.661 1479.74 Q915.489 1481.75 910.611 1486.01 L901.716 1494.66 L916.841 1494.66 Q924.219 1494.66 924.793 1494 Q925.613 1492.81 926.638 1486.54 L928.769 1486.54 L926.392 1501.13 L895.24 1501.13 Z" fill="#000000" fill-rule="evenodd" fill-opacity="1" /><path clip-path="url(#clip650)" d="M1280.35 1417.42 Q1271.33 1417.42 1266.75 1426.33 Q1262.24 1435.19 1262.24 1453.01 Q1262.24 1470.78 1266.75 1479.69 Q1271.33 1488.54 1280.35 1488.54 Q1289.44 1488.54 1293.95 1479.69 Q1298.53 1470.78 1298.53 1453.01 Q1298.53 1435.19 1293.95 1426.33 Q1289.44 1417.42 1280.35 1417.42 M1280.35 1408.16 Q1294.88 1408.16 1302.52 1419.68 Q1310.21 1431.14 1310.21 1453.01 Q1310.21 1474.83 1302.52 1486.34 Q1294.88 1497.8 1280.35 1497.8 Q1265.83 1497.8 1258.13 1486.34 Q1250.49 1474.83 1250.49 1453.01 Q1250.49 1431.14 1258.13 1419.68 Q1265.83 1408.16 1280.35 1408.16 Z" fill="#000000" fill-rule="evenodd" fill-opacity="1" /><path clip-path="url(#clip650)" d="M1694.12 1412.13 Q1694.12 1413.77 1693.36 1414.18 Q1692.6 1414.53 1690.49 1414.53 L1679.25 1414.53 L1670.35 1449.89 Q1669.65 1453 1669.65 1455.63 Q1669.65 1458.56 1670.52 1459.85 Q1671.46 1461.14 1673.39 1461.14 Q1677.2 1461.14 1681.3 1457.68 Q1685.46 1454.23 1688.97 1445.8 Q1689.44 1444.68 1689.67 1444.45 Q1689.96 1444.16 1690.73 1444.16 Q1692.19 1444.16 1692.19 1445.33 Q1692.19 1445.74 1691.37 1447.61 Q1690.61 1449.48 1688.91 1452.24 Q1687.27 1454.99 1685.1 1457.57 Q1683 1460.14 1679.78 1462.02 Q1676.56 1463.83 1673.1 1463.83 Q1668.24 1463.83 1665.14 1460.73 Q1662.09 1457.62 1662.09 1452.76 Q1662.09 1451.18 1663.32 1446.15 Q1664.55 1441.05 1671.23 1414.53 L1660.63 1414.53 Q1659.16 1414.53 1658.58 1414.47 Q1658.05 1414.41 1657.64 1414.12 Q1657.29 1413.77 1657.29 1413.06 Q1657.29 1411.95 1657.76 1411.48 Q1658.23 1410.95 1658.81 1410.9 Q1659.46 1410.78 1660.92 1410.78 L1672.16 1410.78 L1676.85 1391.75 Q1677.32 1389.87 1678.49 1388.82 Q1679.72 1387.71 1680.42 1387.59 Q1681.12 1387.42 1681.65 1387.42 Q1683.23 1387.42 1684.17 1388.29 Q1685.1 1389.11 1685.1 1390.64 Q1685.1 1391.46 1680.19 1410.78 L1690.73 1410.78 Q1692.07 1410.78 1692.6 1410.84 Q1693.19 1410.9 1693.65 1411.19 Q1694.12 1411.48 1694.12 1412.13 Z" fill="#000000" fill-rule="evenodd" fill-opacity="1" /><path clip-path="url(#clip650)" d="M1753.66 1469 Q1753.57 1469.41 1753.41 1470.15 Q1753.25 1470.84 1752.51 1473.06 Q1751.77 1475.27 1750.79 1477.52 Q1749.84 1479.74 1748 1482.85 Q1746.2 1485.93 1743.98 1488.71 Q1743.37 1489.45 1743.24 1489.9 Q1743.16 1490.31 1743.16 1491.66 Q1743.16 1500.19 1745.74 1500.19 Q1745.87 1500.19 1746.07 1500.19 Q1746.32 1500.15 1746.93 1499.94 Q1747.59 1499.7 1748.16 1499.33 Q1748.74 1498.92 1749.39 1498.1 Q1750.05 1497.24 1750.46 1496.09 Q1750.83 1495.27 1751.57 1495.27 Q1752.55 1495.27 1752.55 1496.09 Q1752.55 1497.57 1750.5 1499.82 Q1748.45 1502.08 1745.5 1502.08 Q1742.67 1502.08 1740.66 1500.23 Q1738.69 1498.35 1737.88 1494.98 Q1729.02 1502.08 1720.17 1502.08 Q1713.94 1502.08 1710.25 1498.02 Q1706.56 1493.92 1706.56 1487.85 Q1706.56 1482.03 1709.76 1476.5 Q1712.99 1470.97 1718.24 1467.52 Q1723.53 1464.04 1729.14 1464.04 Q1731.11 1464.04 1733 1464.57 Q1734.88 1465.06 1736.77 1466.33 Q1738.65 1467.6 1740.05 1469.53 Q1741.44 1471.46 1742.3 1474.49 Q1743.16 1477.52 1743.16 1481.34 L1743.16 1486.54 Q1748.57 1479.7 1751.4 1469.9 Q1751.81 1468.42 1752.06 1468.26 Q1752.22 1468.14 1752.63 1468.14 Q1753.04 1468.14 1753.29 1468.38 Q1753.57 1468.59 1753.61 1468.79 L1753.66 1469 M1737.55 1492.81 Q1737.38 1491.38 1737.38 1483.43 Q1737.38 1481.91 1737.38 1481.09 Q1737.38 1480.23 1737.3 1478.59 Q1737.22 1476.95 1737.06 1475.92 Q1736.93 1474.9 1736.65 1473.42 Q1736.36 1471.95 1735.95 1471.01 Q1735.54 1470.06 1734.88 1469 Q1734.27 1467.93 1733.45 1467.32 Q1732.67 1466.7 1731.52 1466.29 Q1730.42 1465.88 1729.06 1465.88 Q1727.38 1465.88 1725.62 1466.5 Q1723.9 1467.07 1721.68 1468.92 Q1719.47 1470.72 1717.63 1473.59 Q1715.7 1476.62 1714.22 1482.2 Q1712.79 1487.73 1712.79 1491.05 Q1712.79 1495.23 1714.72 1497.73 Q1716.64 1500.19 1720.33 1500.19 Q1729.14 1500.19 1737.55 1492.81 Z" fill="#000000" fill-rule="evenodd" fill-opacity="1" /><path clip-path="url(#clip650)" d="M1759.74 1520.93 Q1759.74 1520.52 1760.07 1519.62 L1789.71 1440.43 Q1789.71 1440.35 1789.91 1439.9 Q1790.12 1439.44 1790.24 1439.16 Q1790.36 1438.83 1790.61 1438.58 Q1790.9 1438.34 1791.22 1438.34 Q1792.04 1438.34 1792.04 1439.36 Q1792.04 1439.44 1791.8 1440.43 L1762.08 1519.7 Q1761.59 1521.14 1761.26 1521.55 Q1760.97 1521.96 1760.48 1521.96 Q1759.74 1521.96 1759.74 1520.93 Z" fill="#000000" fill-rule="evenodd" fill-opacity="1" /><path clip-path="url(#clip650)" d="M1801.32 1501.13 Q1801.32 1499.62 1801.44 1499.17 Q1801.6 1498.71 1802.26 1498.02 L1818.37 1480.06 Q1827.18 1470.15 1827.18 1461.5 Q1827.18 1455.88 1824.23 1451.86 Q1821.32 1447.85 1815.95 1447.85 Q1812.26 1447.85 1809.15 1450.1 Q1806.03 1452.36 1804.6 1456.37 Q1804.84 1456.29 1805.7 1456.29 Q1807.79 1456.29 1808.94 1457.6 Q1810.13 1458.91 1810.13 1460.68 Q1810.13 1462.93 1808.65 1464.04 Q1807.22 1465.1 1805.79 1465.1 Q1805.21 1465.1 1804.43 1464.98 Q1803.69 1464.86 1802.51 1463.71 Q1801.32 1462.52 1801.32 1460.43 Q1801.32 1454.57 1805.74 1449.9 Q1810.21 1445.22 1817.02 1445.22 Q1824.72 1445.22 1829.76 1449.81 Q1834.85 1454.36 1834.85 1461.5 Q1834.85 1464 1834.07 1466.29 Q1833.33 1468.55 1832.31 1470.31 Q1831.32 1472.07 1828.62 1474.9 Q1825.91 1477.73 1823.74 1479.74 Q1821.57 1481.75 1816.69 1486.01 L1807.79 1494.66 L1822.92 1494.66 Q1830.3 1494.66 1830.87 1494 Q1831.69 1492.81 1832.72 1486.54 L1834.85 1486.54 L1832.47 1501.13 L1801.32 1501.13 Z" fill="#000000" fill-rule="evenodd" fill-opacity="1" /><path clip-path="url(#clip650)" d="M958.029 20.736 L1045.74 20.736 L1045.74 32.5415 L1008.93 32.5415 L1008.93 124.416 L994.835 124.416 L994.835 32.5415 L958.029 32.5415 L958.029 20.736 Z" fill="#000000" fill-rule="evenodd" fill-opacity="1" /><path clip-path="url(#clip650)" d="M1049.56 46.6386 L1063.1 46.6386 L1087.4 111.916 L1111.71 46.6386 L1125.25 46.6386 L1096.08 124.416 L1078.72 124.416 L1049.56 46.6386 Z" fill="#000000" fill-rule="evenodd" fill-opacity="1" /><path clip-path="url(#clip650)" d="M1178.24 85.319 Q1162.75 85.319 1156.78 88.8606 Q1150.81 92.4023 1150.81 100.944 Q1150.81 107.749 1155.25 111.777 Q1159.76 115.735 1167.47 115.735 Q1178.1 115.735 1184.49 108.236 Q1190.94 100.666 1190.94 88.1662 L1190.94 85.319 L1178.24 85.319 M1203.72 80.0412 L1203.72 124.416 L1190.94 124.416 L1190.94 112.611 Q1186.57 119.694 1180.04 123.097 Q1173.51 126.43 1164.07 126.43 Q1152.13 126.43 1145.04 119.763 Q1138.03 113.027 1138.03 101.777 Q1138.03 88.6523 1146.78 81.9857 Q1155.6 75.319 1173.03 75.319 L1190.94 75.319 L1190.94 74.069 Q1190.94 65.2497 1185.11 60.458 Q1179.35 55.5969 1168.86 55.5969 Q1162.19 55.5969 1155.88 57.1941 Q1149.56 58.7914 1143.72 61.9858 L1143.72 50.1803 Q1150.74 47.472 1157.33 46.1525 Q1163.93 44.7636 1170.18 44.7636 Q1187.06 44.7636 1195.39 53.5136 Q1203.72 62.2636 1203.72 80.0412 M1181.29 18.5832 Q1181.29 14.2083 1178.24 11.1527 Q1175.18 8.09718 1170.74 8.09718 Q1166.22 8.09718 1163.17 11.1527 Q1160.18 14.1388 1160.18 18.5832 Q1160.18 23.0971 1163.17 26.1526 Q1166.22 29.1387 1170.74 29.1387 Q1175.18 29.1387 1178.24 26.0832 Q1181.29 23.0277 1181.29 18.5832 M1189.76 18.5832 Q1189.76 26.5693 1184.21 32.1248 Q1178.72 37.6804 1170.74 37.6804 Q1162.75 37.6804 1157.19 32.1248 Q1151.71 26.5693 1151.71 18.5832 Q1151.71 10.5972 1157.19 5.11108 Q1162.75 -0.444442 1170.74 -0.444442 Q1178.72 -0.444442 1184.21 5.11108 Q1189.76 10.5972 1189.76 18.5832 Z" fill="#000000" fill-rule="evenodd" fill-opacity="1" /><path clip-path="url(#clip650)" d="M1279.62 48.9303 L1279.62 61.0136 Q1274.21 58.2358 1268.37 56.8469 Q1262.54 55.458 1256.29 55.458 Q1246.78 55.458 1241.99 58.3747 Q1237.26 61.2913 1237.26 67.1246 Q1237.26 71.5691 1240.67 74.1385 Q1244.07 76.6385 1254.35 78.9301 L1258.72 79.9023 Q1272.33 82.819 1278.03 88.1662 Q1283.79 93.4439 1283.79 102.958 Q1283.79 113.791 1275.18 120.11 Q1266.64 126.43 1251.64 126.43 Q1245.39 126.43 1238.58 125.18 Q1231.85 123.999 1224.35 121.569 L1224.35 108.374 Q1231.43 112.055 1238.31 113.93 Q1245.18 115.735 1251.92 115.735 Q1260.94 115.735 1265.81 112.68 Q1270.67 109.555 1270.67 103.93 Q1270.67 98.7217 1267.12 95.9439 Q1263.65 93.1662 1251.78 90.5967 L1247.33 89.5551 Q1235.46 87.0551 1230.18 81.9162 Q1224.9 76.7079 1224.9 67.6802 Q1224.9 56.708 1232.68 50.7358 Q1240.46 44.7636 1254.76 44.7636 Q1261.85 44.7636 1268.1 45.8053 Q1274.35 46.847 1279.62 48.9303 Z" fill="#000000" fill-rule="evenodd" fill-opacity="1" /><path clip-path="url(#clip650)" d="M1304.14 46.6386 L1316.92 46.6386 L1316.92 124.416 L1304.14 124.416 L1304.14 46.6386 M1304.14 16.361 L1316.92 16.361 L1316.92 32.5415 L1304.14 32.5415 L1304.14 16.361 Z" fill="#000000" fill-rule="evenodd" fill-opacity="1" /><path clip-path="url(#clip650)" d="M1394.83 58.4441 L1394.83 16.361 L1407.61 16.361 L1407.61 124.416 L1394.83 124.416 L1394.83 112.749 Q1390.8 119.694 1384.62 123.097 Q1378.51 126.43 1369.9 126.43 Q1355.81 126.43 1346.92 115.18 Q1338.1 103.93 1338.1 85.5968 Q1338.1 67.2635 1346.92 56.0136 Q1355.81 44.7636 1369.9 44.7636 Q1378.51 44.7636 1384.62 48.1664 Q1390.8 51.4997 1394.83 58.4441 M1351.29 85.5968 Q1351.29 99.6939 1357.05 107.749 Q1362.89 115.735 1373.03 115.735 Q1383.17 115.735 1389 107.749 Q1394.83 99.6939 1394.83 85.5968 Q1394.83 71.4996 1389 63.5135 Q1383.17 55.458 1373.03 55.458 Q1362.89 55.458 1357.05 63.5135 Q1351.29 71.4996 1351.29 85.5968 Z" fill="#000000" fill-rule="evenodd" fill-opacity="1" /><path clip-path="url(#clip650)" d="M1433.93 46.6386 L1446.71 46.6386 L1446.71 124.416 L1433.93 124.416 L1433.93 46.6386 M1433.93 16.361 L1446.71 16.361 L1446.71 32.5415 L1433.93 32.5415 L1433.93 16.361 Z" fill="#000000" fill-rule="evenodd" fill-opacity="1" /><path clip-path="url(#clip650)" d="M1524.62 84.6245 Q1524.62 70.7357 1518.86 63.0969 Q1513.17 55.458 1502.82 55.458 Q1492.54 55.458 1486.78 63.0969 Q1481.08 70.7357 1481.08 84.6245 Q1481.08 98.4439 1486.78 106.083 Q1492.54 113.722 1502.82 113.722 Q1513.17 113.722 1518.86 106.083 Q1524.62 98.4439 1524.62 84.6245 M1537.4 114.763 Q1537.4 134.624 1528.58 144.277 Q1519.76 153.999 1501.57 153.999 Q1494.83 153.999 1488.86 152.958 Q1482.89 151.985 1477.26 149.902 L1477.26 137.471 Q1482.89 140.527 1488.37 141.985 Q1493.86 143.444 1499.55 143.444 Q1512.12 143.444 1518.37 136.846 Q1524.62 130.319 1524.62 117.055 L1524.62 110.736 Q1520.67 117.61 1514.48 121.013 Q1508.3 124.416 1499.69 124.416 Q1485.39 124.416 1476.64 113.513 Q1467.89 102.611 1467.89 84.6245 Q1467.89 66.5691 1476.64 55.6664 Q1485.39 44.7636 1499.69 44.7636 Q1508.3 44.7636 1514.48 48.1664 Q1520.67 51.5692 1524.62 58.4441 L1524.62 46.6386 L1537.4 46.6386 L1537.4 114.763 Z" fill="#000000" fill-rule="evenodd" fill-opacity="1" /><path clip-path="url(#clip650)" d="M1576.36 24.5554 L1576.36 46.6386 L1602.68 46.6386 L1602.68 56.5691 L1576.36 56.5691 L1576.36 98.7911 Q1576.36 108.305 1578.93 111.013 Q1581.57 113.722 1589.55 113.722 L1602.68 113.722 L1602.68 124.416 L1589.55 124.416 Q1574.76 124.416 1569.14 118.93 Q1563.51 113.374 1563.51 98.7911 L1563.51 56.5691 L1554.14 56.5691 L1554.14 46.6386 L1563.51 46.6386 L1563.51 24.5554 L1576.36 24.5554 Z" fill="#000000" fill-rule="evenodd" fill-opacity="1" /><path clip-path="url(#clip652)" d="M1756.49 1146.69 L1758.87 1149.05 L1761.25 1151.38 L1763.63 1153.68 L1766.01 1155.95 L1768.39 1158.2 L1770.77 1160.41 L1773.16 1162.6 L1775.54 1164.76 L1777.92 1166.9 L1780.3 1169 L1782.68 1171.08 L1785.06 1173.14 L1787.44 1175.17 L1789.82 1177.17 L1792.2 1179.14 L1794.58 1181.1 L1796.96 1183.02 L1799.34 1184.92 L1801.72 1186.8 L1804.1 1188.66 L1806.49 1190.49 L1808.87 1192.29 L1811.25 1194.08 L1813.63 1195.84 L1816.01 1197.58 L1818.39 1199.29 L1820.77 1200.98 L1823.15 1202.66 L1825.53 1204.31 L1827.91 1205.94 L1830.29 1207.54 L1832.67 1209.13 L1835.05 1210.7 L1837.43 1212.24 L1839.81 1213.77 L1842.2 1215.28 L1844.58 1216.76 L1846.96 1218.23 L1849.34 1219.68 L1851.72 1221.11 L1854.1 1222.52 L1856.48 1223.92 L1858.86 1225.29 L1861.24 1226.65 L1863.62 1227.99 L1866 1229.31 L1868.38 1230.62 L1870.76 1231.91 L1873.14 1233.18 L1875.52 1234.43 L1877.91 1235.67 L1880.29 1236.89 L1882.67 1238.1 L1885.05 1239.29 L1887.43 1240.47 L1889.81 1241.63 L1892.19 1242.77 L1894.57 1243.9 L1896.95 1245.02 L1899.33 1246.12 L1901.71 1247.21 L1904.09 1248.28 L1906.47 1249.34 L1908.85 1250.39 L1911.24 1251.42 L1913.62 1252.44 L1916 1253.44 L1918.38 1254.43 L1920.76 1255.41 L1923.14 1256.38 L1925.52 1257.33 L1927.9 1258.27 L1930.28 1259.2 L1932.66 1260.12 L1935.04 1261.03 L1937.42 1261.92 L1939.8 1262.8 L1942.18 1263.67 L1944.56 1264.53 L1946.95 1265.38 L1949.33 1266.22 L1951.71 1267.05 L1954.09 1267.86 L1956.47 1268.67 L1958.85 1269.46 L1961.23 1270.25 L1963.61 1271.02 L1965.99 1271.79 L1968.37 1272.54 L1970.75 1273.29 L1973.13 1274.02 L1975.51 1274.75 L1977.89 1275.47 L1980.27 1276.18 L1982.66 1276.88 L1985.04 1277.57 L1987.42 1278.25 L1989.8 1278.92 L1992.18 1279.58 L1994.56 1280.24 L1996.94 1280.89 L1999.32 1281.52 L2001.7 1282.16 L2004.08 1282.78 L2006.46 1283.39 L2008.84 1284 L2011.22 1284.6 L2013.6 1285.19 L2015.99 1285.78 L2018.37 1286.35 L2020.75 1286.92 L2023.13 1287.48 L2025.51 1288.04 L2027.89 1288.59 L2030.27 1289.13 L2032.65 1289.66 L2035.03 1290.19 L2037.41 1290.71 L2039.79 1291.23 L2042.17 1291.74 L2044.55 1292.24 L2046.93 1292.73 L2049.31 1293.22 L2051.7 1293.71 L2054.08 1294.18 L2056.46 1294.65 L2058.84 1295.12 L2061.22 1295.58 L2063.6 1296.03 L2065.98 1296.48 L2068.36 1296.92 L2070.74 1297.36 L2073.12 1297.79 L2075.5 1298.22 L2077.88 1298.64 L2080.26 1299.06 L2082.64 1299.47 L2085.03 1299.87 L2087.41 1300.27 L2089.79 1300.67 L2092.17 1301.06 L2094.55 1301.45 L2096.93 1301.83 L2099.31 1302.21 L2101.69 1302.58 L2104.07 1302.95 L2106.45 1303.31 L2108.83 1303.67 L2111.21 1304.02 L2113.59 1304.37 L2115.97 1304.72 L2118.35 1305.06 L2120.74 1305.4 L2123.12 1305.73 L2125.5 1306.06 L2127.88 1306.38 L2130.26 1306.71 L2132.64 1307.02 L2135.02 1307.34 L2137.4 1307.65 L2139.78 1307.95 L2142.16 1308.26 L2144.54 1308.56 L2146.92 1308.85 L2149.3 1309.14 L2151.68 1309.43 L2154.06 1309.72 L2156.45 1310 L2158.83 1310.28 L2161.21 1310.55 L2163.59 1310.82 L2165.97 1311.09 L2168.35 1311.36 L2170.73 1311.62 L2173.11 1311.88 L2175.49 1312.13 L2177.87 1312.39 L2180.25 1312.64 L2182.63 1312.88 L2185.01 1313.13 L2187.39 1313.37 L2189.78 1313.61 L2192.16 1313.84 L2194.54 1314.08 L2196.92 1314.31 L2199.3 1314.53 L2201.68 1314.76 L2204.06 1314.98 L2206.44 1315.2 L2208.82 1315.42 L2211.2 1315.63 L2213.58 1315.84 L2215.96 1316.05 L2218.34 1316.26 L2220.72 1316.47 L2223.1 1316.67 L2225.49 1316.87 L2227.87 1317.07 L2230.25 1317.26 L2232.63 1317.46 L2232.63 1336.68 L2230.25 1336.68 L2227.87 1336.68 L2225.49 1336.68 L2223.1 1336.68 L2220.72 1336.68 L2218.34 1336.68 L2215.96 1336.68 L2213.58 1336.68 L2211.2 1336.68 L2208.82 1336.68 L2206.44 1336.68 L2204.06 1336.68 L2201.68 1336.68 L2199.3 1336.68 L2196.92 1336.68 L2194.54 1336.68 L2192.16 1336.68 L2189.78 1336.68 L2187.39 1336.68 L2185.01 1336.68 L2182.63 1336.68 L2180.25 1336.68 L2177.87 1336.68 L2175.49 1336.68 L2173.11 1336.68 L2170.73 1336.68 L2168.35 1336.68 L2165.97 1336.68 L2163.59 1336.68 L2161.21 1336.68 L2158.83 1336.68 L2156.45 1336.68 L2154.06 1336.68 L2151.68 1336.68 L2149.3 1336.68 L2146.92 1336.68 L2144.54 1336.68 L2142.16 1336.68 L2139.78 1336.68 L2137.4 1336.68 L2135.02 1336.68 L2132.64 1336.68 L2130.26 1336.68 L2127.88 1336.68 L2125.5 1336.68 L2123.12 1336.68 L2120.74 1336.68 L2118.35 1336.68 L2115.97 1336.68 L2113.59 1336.68 L2111.21 1336.68 L2108.83 1336.68 L2106.45 1336.68 L2104.07 1336.68 L2101.69 1336.68 L2099.31 1336.68 L2096.93 1336.68 L2094.55 1336.68 L2092.17 1336.68 L2089.79 1336.68 L2087.41 1336.68 L2085.03 1336.68 L2082.64 1336.68 L2080.26 1336.68 L2077.88 1336.68 L2075.5 1336.68 L2073.12 1336.68 L2070.74 1336.68 L2068.36 1336.68 L2065.98 1336.68 L2063.6 1336.68 L2061.22 1336.68 L2058.84 1336.68 L2056.46 1336.68 L2054.08 1336.68 L2051.7 1336.68 L2049.31 1336.68 L2046.93 1336.68 L2044.55 1336.68 L2042.17 1336.68 L2039.79 1336.68 L2037.41 1336.68 L2035.03 1336.68 L2032.65 1336.68 L2030.27 1336.68 L2027.89 1336.68 L2025.51 1336.68 L2023.13 1336.68 L2020.75 1336.68 L2018.37 1336.68 L2015.99 1336.68 L2013.6 1336.68 L2011.22 1336.68 L2008.84 1336.68 L2006.46 1336.68 L2004.08 1336.68 L2001.7 1336.68 L1999.32 1336.68 L1996.94 1336.68 L1994.56 1336.68 L1992.18 1336.68 L1989.8 1336.68 L1987.42 1336.68 L1985.04 1336.68 L1982.66 1336.68 L1980.27 1336.68 L1977.89 1336.68 L1975.51 1336.68 L1973.13 1336.68 L1970.75 1336.68 L1968.37 1336.68 L1965.99 1336.68 L1963.61 1336.68 L1961.23 1336.68 L1958.85 1336.68 L1956.47 1336.68 L1954.09 1336.68 L1951.71 1336.68 L1949.33 1336.68 L1946.95 1336.68 L1944.56 1336.68 L1942.18 1336.68 L1939.8 1336.68 L1937.42 1336.68 L1935.04 1336.68 L1932.66 1336.68 L1930.28 1336.68 L1927.9 1336.68 L1925.52 1336.68 L1923.14 1336.68 L1920.76 1336.68 L1918.38 1336.68 L1916 1336.68 L1913.62 1336.68 L1911.24 1336.68 L1908.85 1336.68 L1906.47 1336.68 L1904.09 1336.68 L1901.71 1336.68 L1899.33 1336.68 L1896.95 1336.68 L1894.57 1336.68 L1892.19 1336.68 L1889.81 1336.68 L1887.43 1336.68 L1885.05 1336.68 L1882.67 1336.68 L1880.29 1336.68 L1877.91 1336.68 L1875.52 1336.68 L1873.14 1336.68 L1870.76 1336.68 L1868.38 1336.68 L1866 1336.68 L1863.62 1336.68 L1861.24 1336.68 L1858.86 1336.68 L1856.48 1336.68 L1854.1 1336.68 L1851.72 1336.68 L1849.34 1336.68 L1846.96 1336.68 L1844.58 1336.68 L1842.2 1336.68 L1839.81 1336.68 L1837.43 1336.68 L1835.05 1336.68 L1832.67 1336.68 L1830.29 1336.68 L1827.91 1336.68 L1825.53 1336.68 L1823.15 1336.68 L1820.77 1336.68 L1818.39 1336.68 L1816.01 1336.68 L1813.63 1336.68 L1811.25 1336.68 L1808.87 1336.68 L1806.49 1336.68 L1804.1 1336.68 L1801.72 1336.68 L1799.34 1336.68 L1796.96 1336.68 L1794.58 1336.68 L1792.2 1336.68 L1789.82 1336.68 L1787.44 1336.68 L1785.06 1336.68 L1782.68 1336.68 L1780.3 1336.68 L1777.92 1336.68 L1775.54 1336.68 L1773.16 1336.68 L1770.77 1336.68 L1768.39 1336.68 L1766.01 1336.68 L1763.63 1336.68 L1761.25 1336.68 L1758.87 1336.68 L1756.49 1336.68  Z" fill="#1f78b4" fill-rule="evenodd" fill-opacity="0.5"/>
<polyline clip-path="url(#clip652)" style="stroke:#1f78b4; stroke-linecap:round; stroke-linejoin:round; stroke-width:16; stroke-opacity:1; fill:none" points="1756.49,1146.69 1758.87,1149.05 1761.25,1151.38 1763.63,1153.68 1766.01,1155.95 1768.39,1158.2 1770.77,1160.41 1773.16,1162.6 1775.54,1164.76 1777.92,1166.9 1780.3,1169 1782.68,1171.08 1785.06,1173.14 1787.44,1175.17 1789.82,1177.17 1792.2,1179.14 1794.58,1181.1 1796.96,1183.02 1799.34,1184.92 1801.72,1186.8 1804.1,1188.66 1806.49,1190.49 1808.87,1192.29 1811.25,1194.08 1813.63,1195.84 1816.01,1197.58 1818.39,1199.29 1820.77,1200.98 1823.15,1202.66 1825.53,1204.31 1827.91,1205.94 1830.29,1207.54 1832.67,1209.13 1835.05,1210.7 1837.43,1212.24 1839.81,1213.77 1842.2,1215.28 1844.58,1216.76 1846.96,1218.23 1849.34,1219.68 1851.72,1221.11 1854.1,1222.52 1856.48,1223.92 1858.86,1225.29 1861.24,1226.65 1863.62,1227.99 1866,1229.31 1868.38,1230.62 1870.76,1231.91 1873.14,1233.18 1875.52,1234.43 1877.91,1235.67 1880.29,1236.89 1882.67,1238.1 1885.05,1239.29 1887.43,1240.47 1889.81,1241.63 1892.19,1242.77 1894.57,1243.9 1896.95,1245.02 1899.33,1246.12 1901.71,1247.21 1904.09,1248.28 1906.47,1249.34 1908.85,1250.39 1911.24,1251.42 1913.62,1252.44 1916,1253.44 1918.38,1254.43 1920.76,1255.41 1923.14,1256.38 1925.52,1257.33 1927.9,1258.27 1930.28,1259.2 1932.66,1260.12 1935.04,1261.03 1937.42,1261.92 1939.8,1262.8 1942.18,1263.67 1944.56,1264.53 1946.95,1265.38 1949.33,1266.22 1951.71,1267.05 1954.09,1267.86 1956.47,1268.67 1958.85,1269.46 1961.23,1270.25 1963.61,1271.02 1965.99,1271.79 1968.37,1272.54 1970.75,1273.29 1973.13,1274.02 1975.51,1274.75 1977.89,1275.47 1980.27,1276.18 1982.66,1276.88 1985.04,1277.57 1987.42,1278.25 1989.8,1278.92 1992.18,1279.58 1994.56,1280.24 1996.94,1280.89 1999.32,1281.52 2001.7,1282.16 2004.08,1282.78 2006.46,1283.39 2008.84,1284 2011.22,1284.6 2013.6,1285.19 2015.99,1285.78 2018.37,1286.35 2020.75,1286.92 2023.13,1287.48 2025.51,1288.04 2027.89,1288.59 2030.27,1289.13 2032.65,1289.66 2035.03,1290.19 2037.41,1290.71 2039.79,1291.23 2042.17,1291.74 2044.55,1292.24 2046.93,1292.73 2049.31,1293.22 2051.7,1293.71 2054.08,1294.18 2056.46,1294.65 2058.84,1295.12 2061.22,1295.58 2063.6,1296.03 2065.98,1296.48 2068.36,1296.92 2070.74,1297.36 2073.12,1297.79 2075.5,1298.22 2077.88,1298.64 2080.26,1299.06 2082.64,1299.47 2085.03,1299.87 2087.41,1300.27 2089.79,1300.67 2092.17,1301.06 2094.55,1301.45 2096.93,1301.83 2099.31,1302.21 2101.69,1302.58 2104.07,1302.95 2106.45,1303.31 2108.83,1303.67 2111.21,1304.02 2113.59,1304.37 2115.97,1304.72 2118.35,1305.06 2120.74,1305.4 2123.12,1305.73 2125.5,1306.06 2127.88,1306.38 2130.26,1306.71 2132.64,1307.02 2135.02,1307.34 2137.4,1307.65 2139.78,1307.95 2142.16,1308.26 2144.54,1308.56 2146.92,1308.85 2149.3,1309.14 2151.68,1309.43 2154.06,1309.72 2156.45,1310 2158.83,1310.28 2161.21,1310.55 2163.59,1310.82 2165.97,1311.09 2168.35,1311.36 2170.73,1311.62 2173.11,1311.88 2175.49,1312.13 2177.87,1312.39 2180.25,1312.64 2182.63,1312.88 2185.01,1313.13 2187.39,1313.37 2189.78,1313.61 2192.16,1313.84 2194.54,1314.08 2196.92,1314.31 2199.3,1314.53 2201.68,1314.76 2204.06,1314.98 2206.44,1315.2 2208.82,1315.42 2211.2,1315.63 2213.58,1315.84 2215.96,1316.05 2218.34,1316.26 2220.72,1316.47 2223.1,1316.67 2225.49,1316.87 2227.87,1317.07 2230.25,1317.26 2232.63,1317.46 "/>
<polyline clip-path="url(#clip652)" style="stroke:#1f78b4; stroke-linecap:round; stroke-linejoin:round; stroke-width:16; stroke-opacity:1; fill:none" points="328.081,1317.46 330.461,1317.26 332.842,1317.07 335.223,1316.87 337.603,1316.67 339.984,1316.47 342.365,1316.26 344.745,1316.05 347.126,1315.84 349.507,1315.63 351.887,1315.42 354.268,1315.2 356.649,1314.98 359.03,1314.76 361.41,1314.53 363.791,1314.31 366.172,1314.08 368.552,1313.84 370.933,1313.61 373.314,1313.37 375.694,1313.13 378.075,1312.88 380.456,1312.64 382.836,1312.39 385.217,1312.13 387.598,1311.88 389.978,1311.62 392.359,1311.36 394.74,1311.09 397.12,1310.82 399.501,1310.55 401.882,1310.28 404.263,1310 406.643,1309.72 409.024,1309.43 411.405,1309.14 413.785,1308.85 416.166,1308.56 418.547,1308.26 420.927,1307.95 423.308,1307.65 425.689,1307.34 428.069,1307.02 430.45,1306.71 432.831,1306.38 435.211,1306.06 437.592,1305.73 439.973,1305.4 442.353,1305.06 444.734,1304.72 447.115,1304.37 449.496,1304.02 451.876,1303.67 454.257,1303.31 456.638,1302.95 459.018,1302.58 461.399,1302.21 463.78,1301.83 466.16,1301.45 468.541,1301.06 470.922,1300.67 473.302,1300.27 475.683,1299.87 478.064,1299.47 480.444,1299.06 482.825,1298.64 485.206,1298.22 487.586,1297.79 489.967,1297.36 492.348,1296.92 494.728,1296.48 497.109,1296.03 499.49,1295.58 501.871,1295.12 504.251,1294.65 506.632,1294.18 509.013,1293.71 511.393,1293.22 513.774,1292.73 516.155,1292.24 518.535,1291.74 520.916,1291.23 523.297,1290.71 525.677,1290.19 528.058,1289.66 530.439,1289.13 532.819,1288.59 535.2,1288.04 537.581,1287.48 539.961,1286.92 542.342,1286.35 544.723,1285.78 547.104,1285.19 549.484,1284.6 551.865,1284 554.246,1283.39 556.626,1282.78 559.007,1282.16 561.388,1281.52 563.768,1280.89 566.149,1280.24 568.53,1279.58 570.91,1278.92 573.291,1278.25 575.672,1277.57 578.052,1276.88 580.433,1276.18 582.814,1275.47 585.194,1274.75 587.575,1274.02 589.956,1273.29 592.337,1272.54 594.717,1271.79 597.098,1271.02 599.479,1270.25 601.859,1269.46 604.24,1268.67 606.621,1267.86 609.001,1267.05 611.382,1266.22 613.763,1265.38 616.143,1264.53 618.524,1263.67 620.905,1262.8 623.285,1261.92 625.666,1261.03 628.047,1260.12 630.427,1259.2 632.808,1258.27 635.189,1257.33 637.569,1256.38 639.95,1255.41 642.331,1254.43 644.712,1253.44 647.092,1252.44 649.473,1251.42 651.854,1250.39 654.234,1249.34 656.615,1248.28 658.996,1247.21 661.376,1246.12 663.757,1245.02 666.138,1243.9 668.518,1242.77 670.899,1241.63 673.28,1240.47 675.66,1239.29 678.041,1238.1 680.422,1236.89 682.802,1235.67 685.183,1234.43 687.564,1233.18 689.945,1231.91 692.325,1230.62 694.706,1229.31 697.087,1227.99 699.467,1226.65 701.848,1225.29 704.229,1223.92 706.609,1222.52 708.99,1221.11 711.371,1219.68 713.751,1218.23 716.132,1216.76 718.513,1215.28 720.893,1213.77 723.274,1212.24 725.655,1210.7 728.035,1209.13 730.416,1207.54 732.797,1205.94 735.178,1204.31 737.558,1202.66 739.939,1200.98 742.32,1199.29 744.7,1197.58 747.081,1195.84 749.462,1194.08 751.842,1192.29 754.223,1190.49 756.604,1188.66 758.984,1186.8 761.365,1184.92 763.746,1183.02 766.126,1181.1 768.507,1179.14 770.888,1177.17 773.268,1175.17 775.649,1173.14 778.03,1171.08 780.411,1169 782.791,1166.9 785.172,1164.76 787.553,1162.6 789.933,1160.41 792.314,1158.2 794.695,1155.95 797.075,1153.68 799.456,1151.38 801.837,1149.05 804.217,1146.69 806.598,1144.3 808.979,1141.88 811.359,1139.43 813.74,1136.95 816.121,1134.43 818.501,1131.89 820.882,1129.32 823.263,1126.71 825.643,1124.07 828.024,1121.4 830.405,1118.7 832.786,1115.96 835.166,1113.19 837.547,1110.38 839.928,1107.55 842.308,1104.67 844.689,1101.77 847.07,1098.82 849.45,1095.85 851.831,1092.83 854.212,1089.78 856.592,1086.7 858.973,1083.58 861.354,1080.42 863.734,1077.22 866.115,1073.99 868.496,1070.72 870.876,1067.41 873.257,1064.06 875.638,1060.68 878.019,1057.25 880.399,1053.79 882.78,1050.28 885.161,1046.74 887.541,1043.16 889.922,1039.54 892.303,1035.88 894.683,1032.17 897.064,1028.43 899.445,1024.64 901.825,1020.82 904.206,1016.95 906.587,1013.04 908.967,1009.09 911.348,1005.1 913.729,1001.06 916.109,996.986 918.49,992.866 920.871,988.704 923.252,984.5 925.632,980.252 928.013,975.961 930.394,971.628 932.774,967.251 935.155,962.831 937.536,958.368 939.916,953.862 942.297,949.312 944.678,944.719 947.058,940.083 949.439,935.403 951.82,930.68 954.2,925.914 956.581,921.104 958.962,916.252 961.342,911.356 963.723,906.418 966.104,901.437 968.484,896.413 970.865,891.347 973.246,886.238 975.627,881.088 978.007,875.896 980.388,870.662 982.769,865.387 985.149,860.071 987.53,854.715 989.911,849.318 992.291,843.882 994.672,838.406 997.053,832.89 999.433,827.337 1001.81,821.745 1004.19,816.115 1006.58,810.449 1008.96,804.745 1011.34,799.006 1013.72,793.232 1016.1,787.423 1018.48,781.579 1020.86,775.703 1023.24,769.794 1025.62,763.853 1028,757.881 1030.38,751.878 1032.76,745.847 1035.14,739.787 1037.52,733.699 1039.9,727.585 1042.29,721.445 1044.67,715.28 1047.05,709.092 1049.43,702.882 1051.81,696.65 1054.19,690.398 1056.57,684.127 1058.95,677.838 1061.33,671.532 1063.71,665.212 1066.09,658.877 1068.47,652.53 1070.85,646.171 1073.23,639.803 1075.62,633.426 1078,627.043 1080.38,620.654 1082.76,614.262 1085.14,607.867 1087.52,601.472 1089.9,595.077 1092.28,588.686 1094.66,582.299 1097.04,575.918 1099.42,569.545 1101.8,563.182 1104.18,556.831 1106.56,550.493 1108.94,544.17 1111.33,537.865 1113.71,531.579 1116.09,525.314 1118.47,519.072 1120.85,512.855 1123.23,506.666 1125.61,500.506 1127.99,494.377 1130.37,488.281 1132.75,482.222 1135.13,476.199 1137.51,470.217 1139.89,464.276 1142.27,458.38 1144.66,452.529 1147.04,446.728 1149.42,440.977 1151.8,435.278 1154.18,429.635 1156.56,424.049 1158.94,418.523 1161.32,413.058 1163.7,407.658 1166.08,402.323 1168.46,397.057 1170.84,391.861 1173.22,386.738 1175.6,381.69 1177.98,376.719 1180.37,371.827 1182.75,367.016 1185.13,362.289 1187.51,357.648 1189.89,353.094 1192.27,348.63 1194.65,344.258 1197.03,339.979 1199.41,335.796 1201.79,331.711 1204.17,327.726 1206.55,323.842 1208.93,320.061 1211.31,316.385 1213.69,312.817 1216.08,309.357 1218.46,306.007 1220.84,302.769 1223.22,299.645 1225.6,296.636 1227.98,293.743 1230.36,290.969 1232.74,288.314 1235.12,285.779 1237.5,283.367 1239.88,281.078 1242.26,278.913 1244.64,276.874 1247.02,274.961 1249.41,273.176 1251.79,271.52 1254.17,269.993 1256.55,268.596 1258.93,267.329 1261.31,266.195 1263.69,265.192 1266.07,264.322 1268.45,263.585 1270.83,262.981 1273.21,262.512 1275.59,262.176 1277.97,261.975 1280.35,261.907 1282.73,261.975 1285.12,262.176 1287.5,262.512 1289.88,262.981 1292.26,263.585 1294.64,264.322 1297.02,265.192 1299.4,266.195 1301.78,267.329 1304.16,268.596 1306.54,269.993 1308.92,271.52 1311.3,273.176 1313.68,274.961 1316.06,276.874 1318.44,278.913 1320.83,281.078 1323.21,283.367 1325.59,285.779 1327.97,288.314 1330.35,290.969 1332.73,293.743 1335.11,296.636 1337.49,299.645 1339.87,302.769 1342.25,306.007 1344.63,309.357 1347.01,312.817 1349.39,316.385 1351.77,320.061 1354.16,323.842 1356.54,327.726 1358.92,331.711 1361.3,335.796 1363.68,339.979 1366.06,344.258 1368.44,348.63 1370.82,353.094 1373.2,357.648 1375.58,362.289 1377.96,367.016 1380.34,371.827 1382.72,376.719 1385.1,381.69 1387.48,386.738 1389.87,391.861 1392.25,397.057 1394.63,402.323 1397.01,407.658 1399.39,413.058 1401.77,418.523 1404.15,424.049 1406.53,429.635 1408.91,435.278 1411.29,440.977 1413.67,446.728 1416.05,452.529 1418.43,458.38 1420.81,464.276 1423.2,470.217 1425.58,476.199 1427.96,482.222 1430.34,488.281 1432.72,494.377 1435.1,500.506 1437.48,506.666 1439.86,512.855 1442.24,519.072 1444.62,525.314 1447,531.579 1449.38,537.865 1451.76,544.17 1454.14,550.493 1456.52,556.831 1458.91,563.182 1461.29,569.545 1463.67,575.918 1466.05,582.299 1468.43,588.686 1470.81,595.077 1473.19,601.472 1475.57,607.867 1477.95,614.262 1480.33,620.654 1482.71,627.043 1485.09,633.426 1487.47,639.803 1489.85,646.171 1492.23,652.53 1494.62,658.877 1497,665.212 1499.38,671.532 1501.76,677.838 1504.14,684.127 1506.52,690.398 1508.9,696.65 1511.28,702.882 1513.66,709.092 1516.04,715.28 1518.42,721.445 1520.8,727.585 1523.18,733.699 1525.56,739.787 1527.95,745.847 1530.33,751.878 1532.71,757.881 1535.09,763.853 1537.47,769.794 1539.85,775.703 1542.23,781.579 1544.61,787.423 1546.99,793.232 1549.37,799.006 1551.75,804.745 1554.13,810.449 1556.51,816.115 1558.89,821.745 1561.27,827.337 1563.66,832.89 1566.04,838.406 1568.42,843.882 1570.8,849.318 1573.18,854.715 1575.56,860.071 1577.94,865.387 1580.32,870.662 1582.7,875.896 1585.08,881.088 1587.46,886.238 1589.84,891.347 1592.22,896.413 1594.6,901.437 1596.98,906.418 1599.37,911.356 1601.75,916.252 1604.13,921.104 1606.51,925.914 1608.89,930.68 1611.27,935.403 1613.65,940.083 1616.03,944.719 1618.41,949.312 1620.79,953.862 1623.17,958.368 1625.55,962.831 1627.93,967.251 1630.31,971.628 1632.7,975.961 1635.08,980.252 1637.46,984.5 1639.84,988.704 1642.22,992.866 1644.6,996.986 1646.98,1001.06 1649.36,1005.1 1651.74,1009.09 1654.12,1013.04 1656.5,1016.95 1658.88,1020.82 1661.26,1024.64 1663.64,1028.43 1666.02,1032.17 1668.41,1035.88 1670.79,1039.54 1673.17,1043.16 1675.55,1046.74 1677.93,1050.28 1680.31,1053.79 1682.69,1057.25 1685.07,1060.68 1687.45,1064.06 1689.83,1067.41 1692.21,1070.72 1694.59,1073.99 1696.97,1077.22 1699.35,1080.42 1701.73,1083.58 1704.12,1086.7 1706.5,1089.78 1708.88,1092.83 1711.26,1095.85 1713.64,1098.82 1716.02,1101.77 1718.4,1104.67 1720.78,1107.55 1723.16,1110.38 1725.54,1113.19 1727.92,1115.96 1730.3,1118.7 1732.68,1121.4 1735.06,1124.07 1737.45,1126.71 1739.83,1129.32 1742.21,1131.89 1744.59,1134.43 1746.97,1136.95 1749.35,1139.43 1751.73,1141.88 1754.11,1144.3 1756.49,1146.69 1758.87,1149.05 1761.25,1151.38 1763.63,1153.68 1766.01,1155.95 1768.39,1158.2 1770.77,1160.41 1773.16,1162.6 1775.54,1164.76 1777.92,1166.9 1780.3,1169 1782.68,1171.08 1785.06,1173.14 1787.44,1175.17 1789.82,1177.17 1792.2,1179.14 1794.58,1181.1 1796.96,1183.02 1799.34,1184.92 1801.72,1186.8 1804.1,1188.66 1806.49,1190.49 1808.87,1192.29 1811.25,1194.08 1813.63,1195.84 1816.01,1197.58 1818.39,1199.29 1820.77,1200.98 1823.15,1202.66 1825.53,1204.31 1827.91,1205.94 1830.29,1207.54 1832.67,1209.13 1835.05,1210.7 1837.43,1212.24 1839.81,1213.77 1842.2,1215.28 1844.58,1216.76 1846.96,1218.23 1849.34,1219.68 1851.72,1221.11 1854.1,1222.52 1856.48,1223.92 1858.86,1225.29 1861.24,1226.65 1863.62,1227.99 1866,1229.31 1868.38,1230.62 1870.76,1231.91 1873.14,1233.18 1875.52,1234.43 1877.91,1235.67 1880.29,1236.89 1882.67,1238.1 1885.05,1239.29 1887.43,1240.47 1889.81,1241.63 1892.19,1242.77 1894.57,1243.9 1896.95,1245.02 1899.33,1246.12 1901.71,1247.21 1904.09,1248.28 1906.47,1249.34 1908.85,1250.39 1911.24,1251.42 1913.62,1252.44 1916,1253.44 1918.38,1254.43 1920.76,1255.41 1923.14,1256.38 1925.52,1257.33 1927.9,1258.27 1930.28,1259.2 1932.66,1260.12 1935.04,1261.03 1937.42,1261.92 1939.8,1262.8 1942.18,1263.67 1944.56,1264.53 1946.95,1265.38 1949.33,1266.22 1951.71,1267.05 1954.09,1267.86 1956.47,1268.67 1958.85,1269.46 1961.23,1270.25 1963.61,1271.02 1965.99,1271.79 1968.37,1272.54 1970.75,1273.29 1973.13,1274.02 1975.51,1274.75 1977.89,1275.47 1980.27,1276.18 1982.66,1276.88 1985.04,1277.57 1987.42,1278.25 1989.8,1278.92 1992.18,1279.58 1994.56,1280.24 1996.94,1280.89 1999.32,1281.52 2001.7,1282.16 2004.08,1282.78 2006.46,1283.39 2008.84,1284 2011.22,1284.6 2013.6,1285.19 2015.99,1285.78 2018.37,1286.35 2020.75,1286.92 2023.13,1287.48 2025.51,1288.04 2027.89,1288.59 2030.27,1289.13 2032.65,1289.66 2035.03,1290.19 2037.41,1290.71 2039.79,1291.23 2042.17,1291.74 2044.55,1292.24 2046.93,1292.73 2049.31,1293.22 2051.7,1293.71 2054.08,1294.18 2056.46,1294.65 2058.84,1295.12 2061.22,1295.58 2063.6,1296.03 2065.98,1296.48 2068.36,1296.92 2070.74,1297.36 2073.12,1297.79 2075.5,1298.22 2077.88,1298.64 2080.26,1299.06 2082.64,1299.47 2085.03,1299.87 2087.41,1300.27 2089.79,1300.67 2092.17,1301.06 2094.55,1301.45 2096.93,1301.83 2099.31,1302.21 2101.69,1302.58 2104.07,1302.95 2106.45,1303.31 2108.83,1303.67 2111.21,1304.02 2113.59,1304.37 2115.97,1304.72 2118.35,1305.06 2120.74,1305.4 2123.12,1305.73 2125.5,1306.06 2127.88,1306.38 2130.26,1306.71 2132.64,1307.02 2135.02,1307.34 2137.4,1307.65 2139.78,1307.95 2142.16,1308.26 2144.54,1308.56 2146.92,1308.85 2149.3,1309.14 2151.68,1309.43 2154.06,1309.72 2156.45,1310 2158.83,1310.28 2161.21,1310.55 2163.59,1310.82 2165.97,1311.09 2168.35,1311.36 2170.73,1311.62 2173.11,1311.88 2175.49,1312.13 2177.87,1312.39 2180.25,1312.64 2182.63,1312.88 2185.01,1313.13 2187.39,1313.37 2189.78,1313.61 2192.16,1313.84 2194.54,1314.08 2196.92,1314.31 2199.3,1314.53 2201.68,1314.76 2204.06,1314.98 2206.44,1315.2 2208.82,1315.42 2211.2,1315.63 2213.58,1315.84 2215.96,1316.05 2218.34,1316.26 2220.72,1316.47 2223.1,1316.67 2225.49,1316.87 2227.87,1317.07 2230.25,1317.26 2232.63,1317.46 "/>
<path clip-path="url(#clip652)" d="M328.081 1317.46 L330.461 1317.26 L332.842 1317.07 L335.223 1316.87 L337.603 1316.67 L339.984 1316.47 L342.365 1316.26 L344.745 1316.05 L347.126 1315.84 L349.507 1315.63 L351.887 1315.42 L354.268 1315.2 L356.649 1314.98 L359.03 1314.76 L361.41 1314.53 L363.791 1314.31 L366.172 1314.08 L368.552 1313.84 L370.933 1313.61 L373.314 1313.37 L375.694 1313.13 L378.075 1312.88 L380.456 1312.64 L382.836 1312.39 L385.217 1312.13 L387.598 1311.88 L389.978 1311.62 L392.359 1311.36 L394.74 1311.09 L397.12 1310.82 L399.501 1310.55 L401.882 1310.28 L404.263 1310 L406.643 1309.72 L409.024 1309.43 L411.405 1309.14 L413.785 1308.85 L416.166 1308.56 L418.547 1308.26 L420.927 1307.95 L423.308 1307.65 L425.689 1307.34 L428.069 1307.02 L430.45 1306.71 L432.831 1306.38 L435.211 1306.06 L437.592 1305.73 L439.973 1305.4 L442.353 1305.06 L444.734 1304.72 L447.115 1304.37 L449.496 1304.02 L451.876 1303.67 L454.257 1303.31 L456.638 1302.95 L459.018 1302.58 L461.399 1302.21 L463.78 1301.83 L466.16 1301.45 L468.541 1301.06 L470.922 1300.67 L473.302 1300.27 L475.683 1299.87 L478.064 1299.47 L480.444 1299.06 L482.825 1298.64 L485.206 1298.22 L487.586 1297.79 L489.967 1297.36 L492.348 1296.92 L494.728 1296.48 L497.109 1296.03 L499.49 1295.58 L501.871 1295.12 L504.251 1294.65 L506.632 1294.18 L509.013 1293.71 L511.393 1293.22 L513.774 1292.73 L516.155 1292.24 L518.535 1291.74 L520.916 1291.23 L523.297 1290.71 L525.677 1290.19 L528.058 1289.66 L530.439 1289.13 L532.819 1288.59 L535.2 1288.04 L537.581 1287.48 L539.961 1286.92 L542.342 1286.35 L544.723 1285.78 L547.104 1285.19 L549.484 1284.6 L551.865 1284 L554.246 1283.39 L556.626 1282.78 L559.007 1282.16 L561.388 1281.52 L563.768 1280.89 L566.149 1280.24 L568.53 1279.58 L570.91 1278.92 L573.291 1278.25 L575.672 1277.57 L578.052 1276.88 L580.433 1276.18 L582.814 1275.47 L585.194 1274.75 L587.575 1274.02 L589.956 1273.29 L592.337 1272.54 L594.717 1271.79 L597.098 1271.02 L599.479 1270.25 L601.859 1269.46 L604.24 1268.67 L606.621 1267.86 L609.001 1267.05 L611.382 1266.22 L613.763 1265.38 L616.143 1264.53 L618.524 1263.67 L620.905 1262.8 L623.285 1261.92 L625.666 1261.03 L628.047 1260.12 L630.427 1259.2 L632.808 1258.27 L635.189 1257.33 L637.569 1256.38 L639.95 1255.41 L642.331 1254.43 L644.712 1253.44 L647.092 1252.44 L649.473 1251.42 L651.854 1250.39 L654.234 1249.34 L656.615 1248.28 L658.996 1247.21 L661.376 1246.12 L663.757 1245.02 L666.138 1243.9 L668.518 1242.77 L670.899 1241.63 L673.28 1240.47 L675.66 1239.29 L678.041 1238.1 L680.422 1236.89 L682.802 1235.67 L685.183 1234.43 L687.564 1233.18 L689.945 1231.91 L692.325 1230.62 L694.706 1229.31 L697.087 1227.99 L699.467 1226.65 L701.848 1225.29 L704.229 1223.92 L706.609 1222.52 L708.99 1221.11 L711.371 1219.68 L713.751 1218.23 L716.132 1216.76 L718.513 1215.28 L720.893 1213.77 L723.274 1212.24 L725.655 1210.7 L728.035 1209.13 L730.416 1207.54 L732.797 1205.94 L735.178 1204.31 L737.558 1202.66 L739.939 1200.98 L742.32 1199.29 L744.7 1197.58 L747.081 1195.84 L749.462 1194.08 L751.842 1192.29 L754.223 1190.49 L756.604 1188.66 L758.984 1186.8 L761.365 1184.92 L763.746 1183.02 L766.126 1181.1 L768.507 1179.14 L770.888 1177.17 L773.268 1175.17 L775.649 1173.14 L778.03 1171.08 L780.411 1169 L782.791 1166.9 L785.172 1164.76 L787.553 1162.6 L789.933 1160.41 L792.314 1158.2 L794.695 1155.95 L797.075 1153.68 L799.456 1151.38 L801.837 1149.05 L804.217 1146.69 L804.217 1336.68 L801.837 1336.68 L799.456 1336.68 L797.075 1336.68 L794.695 1336.68 L792.314 1336.68 L789.933 1336.68 L787.553 1336.68 L785.172 1336.68 L782.791 1336.68 L780.411 1336.68 L778.03 1336.68 L775.649 1336.68 L773.268 1336.68 L770.888 1336.68 L768.507 1336.68 L766.126 1336.68 L763.746 1336.68 L761.365 1336.68 L758.984 1336.68 L756.604 1336.68 L754.223 1336.68 L751.842 1336.68 L749.462 1336.68 L747.081 1336.68 L744.7 1336.68 L742.32 1336.68 L739.939 1336.68 L737.558 1336.68 L735.178 1336.68 L732.797 1336.68 L730.416 1336.68 L728.035 1336.68 L725.655 1336.68 L723.274 1336.68 L720.893 1336.68 L718.513 1336.68 L716.132 1336.68 L713.751 1336.68 L711.371 1336.68 L708.99 1336.68 L706.609 1336.68 L704.229 1336.68 L701.848 1336.68 L699.467 1336.68 L697.087 1336.68 L694.706 1336.68 L692.325 1336.68 L689.945 1336.68 L687.564 1336.68 L685.183 1336.68 L682.802 1336.68 L680.422 1336.68 L678.041 1336.68 L675.66 1336.68 L673.28 1336.68 L670.899 1336.68 L668.518 1336.68 L666.138 1336.68 L663.757 1336.68 L661.376 1336.68 L658.996 1336.68 L656.615 1336.68 L654.234 1336.68 L651.854 1336.68 L649.473 1336.68 L647.092 1336.68 L644.712 1336.68 L642.331 1336.68 L639.95 1336.68 L637.569 1336.68 L635.189 1336.68 L632.808 1336.68 L630.427 1336.68 L628.047 1336.68 L625.666 1336.68 L623.285 1336.68 L620.905 1336.68 L618.524 1336.68 L616.143 1336.68 L613.763 1336.68 L611.382 1336.68 L609.001 1336.68 L606.621 1336.68 L604.24 1336.68 L601.859 1336.68 L599.479 1336.68 L597.098 1336.68 L594.717 1336.68 L592.337 1336.68 L589.956 1336.68 L587.575 1336.68 L585.194 1336.68 L582.814 1336.68 L580.433 1336.68 L578.052 1336.68 L575.672 1336.68 L573.291 1336.68 L570.91 1336.68 L568.53 1336.68 L566.149 1336.68 L563.768 1336.68 L561.388 1336.68 L559.007 1336.68 L556.626 1336.68 L554.246 1336.68 L551.865 1336.68 L549.484 1336.68 L547.104 1336.68 L544.723 1336.68 L542.342 1336.68 L539.961 1336.68 L537.581 1336.68 L535.2 1336.68 L532.819 1336.68 L530.439 1336.68 L528.058 1336.68 L525.677 1336.68 L523.297 1336.68 L520.916 1336.68 L518.535 1336.68 L516.155 1336.68 L513.774 1336.68 L511.393 1336.68 L509.013 1336.68 L506.632 1336.68 L504.251 1336.68 L501.871 1336.68 L499.49 1336.68 L497.109 1336.68 L494.728 1336.68 L492.348 1336.68 L489.967 1336.68 L487.586 1336.68 L485.206 1336.68 L482.825 1336.68 L480.444 1336.68 L478.064 1336.68 L475.683 1336.68 L473.302 1336.68 L470.922 1336.68 L468.541 1336.68 L466.16 1336.68 L463.78 1336.68 L461.399 1336.68 L459.018 1336.68 L456.638 1336.68 L454.257 1336.68 L451.876 1336.68 L449.496 1336.68 L447.115 1336.68 L444.734 1336.68 L442.353 1336.68 L439.973 1336.68 L437.592 1336.68 L435.211 1336.68 L432.831 1336.68 L430.45 1336.68 L428.069 1336.68 L425.689 1336.68 L423.308 1336.68 L420.927 1336.68 L418.547 1336.68 L416.166 1336.68 L413.785 1336.68 L411.405 1336.68 L409.024 1336.68 L406.643 1336.68 L404.263 1336.68 L401.882 1336.68 L399.501 1336.68 L397.12 1336.68 L394.74 1336.68 L392.359 1336.68 L389.978 1336.68 L387.598 1336.68 L385.217 1336.68 L382.836 1336.68 L380.456 1336.68 L378.075 1336.68 L375.694 1336.68 L373.314 1336.68 L370.933 1336.68 L368.552 1336.68 L366.172 1336.68 L363.791 1336.68 L361.41 1336.68 L359.03 1336.68 L356.649 1336.68 L354.268 1336.68 L351.887 1336.68 L349.507 1336.68 L347.126 1336.68 L344.745 1336.68 L342.365 1336.68 L339.984 1336.68 L337.603 1336.68 L335.223 1336.68 L332.842 1336.68 L330.461 1336.68 L328.081 1336.68  Z" fill="#1f78b4" fill-rule="evenodd" fill-opacity="0.5"/>
<polyline clip-path="url(#clip652)" style="stroke:#1f78b4; stroke-linecap:round; stroke-linejoin:round; stroke-width:16; stroke-opacity:1; fill:none" points="328.081,1317.46 330.461,1317.26 332.842,1317.07 335.223,1316.87 337.603,1316.67 339.984,1316.47 342.365,1316.26 344.745,1316.05 347.126,1315.84 349.507,1315.63 351.887,1315.42 354.268,1315.2 356.649,1314.98 359.03,1314.76 361.41,1314.53 363.791,1314.31 366.172,1314.08 368.552,1313.84 370.933,1313.61 373.314,1313.37 375.694,1313.13 378.075,1312.88 380.456,1312.64 382.836,1312.39 385.217,1312.13 387.598,1311.88 389.978,1311.62 392.359,1311.36 394.74,1311.09 397.12,1310.82 399.501,1310.55 401.882,1310.28 404.263,1310 406.643,1309.72 409.024,1309.43 411.405,1309.14 413.785,1308.85 416.166,1308.56 418.547,1308.26 420.927,1307.95 423.308,1307.65 425.689,1307.34 428.069,1307.02 430.45,1306.71 432.831,1306.38 435.211,1306.06 437.592,1305.73 439.973,1305.4 442.353,1305.06 444.734,1304.72 447.115,1304.37 449.496,1304.02 451.876,1303.67 454.257,1303.31 456.638,1302.95 459.018,1302.58 461.399,1302.21 463.78,1301.83 466.16,1301.45 468.541,1301.06 470.922,1300.67 473.302,1300.27 475.683,1299.87 478.064,1299.47 480.444,1299.06 482.825,1298.64 485.206,1298.22 487.586,1297.79 489.967,1297.36 492.348,1296.92 494.728,1296.48 497.109,1296.03 499.49,1295.58 501.871,1295.12 504.251,1294.65 506.632,1294.18 509.013,1293.71 511.393,1293.22 513.774,1292.73 516.155,1292.24 518.535,1291.74 520.916,1291.23 523.297,1290.71 525.677,1290.19 528.058,1289.66 530.439,1289.13 532.819,1288.59 535.2,1288.04 537.581,1287.48 539.961,1286.92 542.342,1286.35 544.723,1285.78 547.104,1285.19 549.484,1284.6 551.865,1284 554.246,1283.39 556.626,1282.78 559.007,1282.16 561.388,1281.52 563.768,1280.89 566.149,1280.24 568.53,1279.58 570.91,1278.92 573.291,1278.25 575.672,1277.57 578.052,1276.88 580.433,1276.18 582.814,1275.47 585.194,1274.75 587.575,1274.02 589.956,1273.29 592.337,1272.54 594.717,1271.79 597.098,1271.02 599.479,1270.25 601.859,1269.46 604.24,1268.67 606.621,1267.86 609.001,1267.05 611.382,1266.22 613.763,1265.38 616.143,1264.53 618.524,1263.67 620.905,1262.8 623.285,1261.92 625.666,1261.03 628.047,1260.12 630.427,1259.2 632.808,1258.27 635.189,1257.33 637.569,1256.38 639.95,1255.41 642.331,1254.43 644.712,1253.44 647.092,1252.44 649.473,1251.42 651.854,1250.39 654.234,1249.34 656.615,1248.28 658.996,1247.21 661.376,1246.12 663.757,1245.02 666.138,1243.9 668.518,1242.77 670.899,1241.63 673.28,1240.47 675.66,1239.29 678.041,1238.1 680.422,1236.89 682.802,1235.67 685.183,1234.43 687.564,1233.18 689.945,1231.91 692.325,1230.62 694.706,1229.31 697.087,1227.99 699.467,1226.65 701.848,1225.29 704.229,1223.92 706.609,1222.52 708.99,1221.11 711.371,1219.68 713.751,1218.23 716.132,1216.76 718.513,1215.28 720.893,1213.77 723.274,1212.24 725.655,1210.7 728.035,1209.13 730.416,1207.54 732.797,1205.94 735.178,1204.31 737.558,1202.66 739.939,1200.98 742.32,1199.29 744.7,1197.58 747.081,1195.84 749.462,1194.08 751.842,1192.29 754.223,1190.49 756.604,1188.66 758.984,1186.8 761.365,1184.92 763.746,1183.02 766.126,1181.1 768.507,1179.14 770.888,1177.17 773.268,1175.17 775.649,1173.14 778.03,1171.08 780.411,1169 782.791,1166.9 785.172,1164.76 787.553,1162.6 789.933,1160.41 792.314,1158.2 794.695,1155.95 797.075,1153.68 799.456,1151.38 801.837,1149.05 804.217,1146.69 "/>
<polyline clip-path="url(#clip652)" style="stroke:#1f78b4; stroke-linecap:round; stroke-linejoin:round; stroke-width:16; stroke-opacity:1; fill:none" points="328.081,1317.46 330.461,1317.26 332.842,1317.07 335.223,1316.87 337.603,1316.67 339.984,1316.47 342.365,1316.26 344.745,1316.05 347.126,1315.84 349.507,1315.63 351.887,1315.42 354.268,1315.2 356.649,1314.98 359.03,1314.76 361.41,1314.53 363.791,1314.31 366.172,1314.08 368.552,1313.84 370.933,1313.61 373.314,1313.37 375.694,1313.13 378.075,1312.88 380.456,1312.64 382.836,1312.39 385.217,1312.13 387.598,1311.88 389.978,1311.62 392.359,1311.36 394.74,1311.09 397.12,1310.82 399.501,1310.55 401.882,1310.28 404.263,1310 406.643,1309.72 409.024,1309.43 411.405,1309.14 413.785,1308.85 416.166,1308.56 418.547,1308.26 420.927,1307.95 423.308,1307.65 425.689,1307.34 428.069,1307.02 430.45,1306.71 432.831,1306.38 435.211,1306.06 437.592,1305.73 439.973,1305.4 442.353,1305.06 444.734,1304.72 447.115,1304.37 449.496,1304.02 451.876,1303.67 454.257,1303.31 456.638,1302.95 459.018,1302.58 461.399,1302.21 463.78,1301.83 466.16,1301.45 468.541,1301.06 470.922,1300.67 473.302,1300.27 475.683,1299.87 478.064,1299.47 480.444,1299.06 482.825,1298.64 485.206,1298.22 487.586,1297.79 489.967,1297.36 492.348,1296.92 494.728,1296.48 497.109,1296.03 499.49,1295.58 501.871,1295.12 504.251,1294.65 506.632,1294.18 509.013,1293.71 511.393,1293.22 513.774,1292.73 516.155,1292.24 518.535,1291.74 520.916,1291.23 523.297,1290.71 525.677,1290.19 528.058,1289.66 530.439,1289.13 532.819,1288.59 535.2,1288.04 537.581,1287.48 539.961,1286.92 542.342,1286.35 544.723,1285.78 547.104,1285.19 549.484,1284.6 551.865,1284 554.246,1283.39 556.626,1282.78 559.007,1282.16 561.388,1281.52 563.768,1280.89 566.149,1280.24 568.53,1279.58 570.91,1278.92 573.291,1278.25 575.672,1277.57 578.052,1276.88 580.433,1276.18 582.814,1275.47 585.194,1274.75 587.575,1274.02 589.956,1273.29 592.337,1272.54 594.717,1271.79 597.098,1271.02 599.479,1270.25 601.859,1269.46 604.24,1268.67 606.621,1267.86 609.001,1267.05 611.382,1266.22 613.763,1265.38 616.143,1264.53 618.524,1263.67 620.905,1262.8 623.285,1261.92 625.666,1261.03 628.047,1260.12 630.427,1259.2 632.808,1258.27 635.189,1257.33 637.569,1256.38 639.95,1255.41 642.331,1254.43 644.712,1253.44 647.092,1252.44 649.473,1251.42 651.854,1250.39 654.234,1249.34 656.615,1248.28 658.996,1247.21 661.376,1246.12 663.757,1245.02 666.138,1243.9 668.518,1242.77 670.899,1241.63 673.28,1240.47 675.66,1239.29 678.041,1238.1 680.422,1236.89 682.802,1235.67 685.183,1234.43 687.564,1233.18 689.945,1231.91 692.325,1230.62 694.706,1229.31 697.087,1227.99 699.467,1226.65 701.848,1225.29 704.229,1223.92 706.609,1222.52 708.99,1221.11 711.371,1219.68 713.751,1218.23 716.132,1216.76 718.513,1215.28 720.893,1213.77 723.274,1212.24 725.655,1210.7 728.035,1209.13 730.416,1207.54 732.797,1205.94 735.178,1204.31 737.558,1202.66 739.939,1200.98 742.32,1199.29 744.7,1197.58 747.081,1195.84 749.462,1194.08 751.842,1192.29 754.223,1190.49 756.604,1188.66 758.984,1186.8 761.365,1184.92 763.746,1183.02 766.126,1181.1 768.507,1179.14 770.888,1177.17 773.268,1175.17 775.649,1173.14 778.03,1171.08 780.411,1169 782.791,1166.9 785.172,1164.76 787.553,1162.6 789.933,1160.41 792.314,1158.2 794.695,1155.95 797.075,1153.68 799.456,1151.38 801.837,1149.05 804.217,1146.69 806.598,1144.3 808.979,1141.88 811.359,1139.43 813.74,1136.95 816.121,1134.43 818.501,1131.89 820.882,1129.32 823.263,1126.71 825.643,1124.07 828.024,1121.4 830.405,1118.7 832.786,1115.96 835.166,1113.19 837.547,1110.38 839.928,1107.55 842.308,1104.67 844.689,1101.77 847.07,1098.82 849.45,1095.85 851.831,1092.83 854.212,1089.78 856.592,1086.7 858.973,1083.58 861.354,1080.42 863.734,1077.22 866.115,1073.99 868.496,1070.72 870.876,1067.41 873.257,1064.06 875.638,1060.68 878.019,1057.25 880.399,1053.79 882.78,1050.28 885.161,1046.74 887.541,1043.16 889.922,1039.54 892.303,1035.88 894.683,1032.17 897.064,1028.43 899.445,1024.64 901.825,1020.82 904.206,1016.95 906.587,1013.04 908.967,1009.09 911.348,1005.1 913.729,1001.06 916.109,996.986 918.49,992.866 920.871,988.704 923.252,984.5 925.632,980.252 928.013,975.961 930.394,971.628 932.774,967.251 935.155,962.831 937.536,958.368 939.916,953.862 942.297,949.312 944.678,944.719 947.058,940.083 949.439,935.403 951.82,930.68 954.2,925.914 956.581,921.104 958.962,916.252 961.342,911.356 963.723,906.418 966.104,901.437 968.484,896.413 970.865,891.347 973.246,886.238 975.627,881.088 978.007,875.896 980.388,870.662 982.769,865.387 985.149,860.071 987.53,854.715 989.911,849.318 992.291,843.882 994.672,838.406 997.053,832.89 999.433,827.337 1001.81,821.745 1004.19,816.115 1006.58,810.449 1008.96,804.745 1011.34,799.006 1013.72,793.232 1016.1,787.423 1018.48,781.579 1020.86,775.703 1023.24,769.794 1025.62,763.853 1028,757.881 1030.38,751.878 1032.76,745.847 1035.14,739.787 1037.52,733.699 1039.9,727.585 1042.29,721.445 1044.67,715.28 1047.05,709.092 1049.43,702.882 1051.81,696.65 1054.19,690.398 1056.57,684.127 1058.95,677.838 1061.33,671.532 1063.71,665.212 1066.09,658.877 1068.47,652.53 1070.85,646.171 1073.23,639.803 1075.62,633.426 1078,627.043 1080.38,620.654 1082.76,614.262 1085.14,607.867 1087.52,601.472 1089.9,595.077 1092.28,588.686 1094.66,582.299 1097.04,575.918 1099.42,569.545 1101.8,563.182 1104.18,556.831 1106.56,550.493 1108.94,544.17 1111.33,537.865 1113.71,531.579 1116.09,525.314 1118.47,519.072 1120.85,512.855 1123.23,506.666 1125.61,500.506 1127.99,494.377 1130.37,488.281 1132.75,482.222 1135.13,476.199 1137.51,470.217 1139.89,464.276 1142.27,458.38 1144.66,452.529 1147.04,446.728 1149.42,440.977 1151.8,435.278 1154.18,429.635 1156.56,424.049 1158.94,418.523 1161.32,413.058 1163.7,407.658 1166.08,402.323 1168.46,397.057 1170.84,391.861 1173.22,386.738 1175.6,381.69 1177.98,376.719 1180.37,371.827 1182.75,367.016 1185.13,362.289 1187.51,357.648 1189.89,353.094 1192.27,348.63 1194.65,344.258 1197.03,339.979 1199.41,335.796 1201.79,331.711 1204.17,327.726 1206.55,323.842 1208.93,320.061 1211.31,316.385 1213.69,312.817 1216.08,309.357 1218.46,306.007 1220.84,302.769 1223.22,299.645 1225.6,296.636 1227.98,293.743 1230.36,290.969 1232.74,288.314 1235.12,285.779 1237.5,283.367 1239.88,281.078 1242.26,278.913 1244.64,276.874 1247.02,274.961 1249.41,273.176 1251.79,271.52 1254.17,269.993 1256.55,268.596 1258.93,267.329 1261.31,266.195 1263.69,265.192 1266.07,264.322 1268.45,263.585 1270.83,262.981 1273.21,262.512 1275.59,262.176 1277.97,261.975 1280.35,261.907 1282.73,261.975 1285.12,262.176 1287.5,262.512 1289.88,262.981 1292.26,263.585 1294.64,264.322 1297.02,265.192 1299.4,266.195 1301.78,267.329 1304.16,268.596 1306.54,269.993 1308.92,271.52 1311.3,273.176 1313.68,274.961 1316.06,276.874 1318.44,278.913 1320.83,281.078 1323.21,283.367 1325.59,285.779 1327.97,288.314 1330.35,290.969 1332.73,293.743 1335.11,296.636 1337.49,299.645 1339.87,302.769 1342.25,306.007 1344.63,309.357 1347.01,312.817 1349.39,316.385 1351.77,320.061 1354.16,323.842 1356.54,327.726 1358.92,331.711 1361.3,335.796 1363.68,339.979 1366.06,344.258 1368.44,348.63 1370.82,353.094 1373.2,357.648 1375.58,362.289 1377.96,367.016 1380.34,371.827 1382.72,376.719 1385.1,381.69 1387.48,386.738 1389.87,391.861 1392.25,397.057 1394.63,402.323 1397.01,407.658 1399.39,413.058 1401.77,418.523 1404.15,424.049 1406.53,429.635 1408.91,435.278 1411.29,440.977 1413.67,446.728 1416.05,452.529 1418.43,458.38 1420.81,464.276 1423.2,470.217 1425.58,476.199 1427.96,482.222 1430.34,488.281 1432.72,494.377 1435.1,500.506 1437.48,506.666 1439.86,512.855 1442.24,519.072 1444.62,525.314 1447,531.579 1449.38,537.865 1451.76,544.17 1454.14,550.493 1456.52,556.831 1458.91,563.182 1461.29,569.545 1463.67,575.918 1466.05,582.299 1468.43,588.686 1470.81,595.077 1473.19,601.472 1475.57,607.867 1477.95,614.262 1480.33,620.654 1482.71,627.043 1485.09,633.426 1487.47,639.803 1489.85,646.171 1492.23,652.53 1494.62,658.877 1497,665.212 1499.38,671.532 1501.76,677.838 1504.14,684.127 1506.52,690.398 1508.9,696.65 1511.28,702.882 1513.66,709.092 1516.04,715.28 1518.42,721.445 1520.8,727.585 1523.18,733.699 1525.56,739.787 1527.95,745.847 1530.33,751.878 1532.71,757.881 1535.09,763.853 1537.47,769.794 1539.85,775.703 1542.23,781.579 1544.61,787.423 1546.99,793.232 1549.37,799.006 1551.75,804.745 1554.13,810.449 1556.51,816.115 1558.89,821.745 1561.27,827.337 1563.66,832.89 1566.04,838.406 1568.42,843.882 1570.8,849.318 1573.18,854.715 1575.56,860.071 1577.94,865.387 1580.32,870.662 1582.7,875.896 1585.08,881.088 1587.46,886.238 1589.84,891.347 1592.22,896.413 1594.6,901.437 1596.98,906.418 1599.37,911.356 1601.75,916.252 1604.13,921.104 1606.51,925.914 1608.89,930.68 1611.27,935.403 1613.65,940.083 1616.03,944.719 1618.41,949.312 1620.79,953.862 1623.17,958.368 1625.55,962.831 1627.93,967.251 1630.31,971.628 1632.7,975.961 1635.08,980.252 1637.46,984.5 1639.84,988.704 1642.22,992.866 1644.6,996.986 1646.98,1001.06 1649.36,1005.1 1651.74,1009.09 1654.12,1013.04 1656.5,1016.95 1658.88,1020.82 1661.26,1024.64 1663.64,1028.43 1666.02,1032.17 1668.41,1035.88 1670.79,1039.54 1673.17,1043.16 1675.55,1046.74 1677.93,1050.28 1680.31,1053.79 1682.69,1057.25 1685.07,1060.68 1687.45,1064.06 1689.83,1067.41 1692.21,1070.72 1694.59,1073.99 1696.97,1077.22 1699.35,1080.42 1701.73,1083.58 1704.12,1086.7 1706.5,1089.78 1708.88,1092.83 1711.26,1095.85 1713.64,1098.82 1716.02,1101.77 1718.4,1104.67 1720.78,1107.55 1723.16,1110.38 1725.54,1113.19 1727.92,1115.96 1730.3,1118.7 1732.68,1121.4 1735.06,1124.07 1737.45,1126.71 1739.83,1129.32 1742.21,1131.89 1744.59,1134.43 1746.97,1136.95 1749.35,1139.43 1751.73,1141.88 1754.11,1144.3 1756.49,1146.69 1758.87,1149.05 1761.25,1151.38 1763.63,1153.68 1766.01,1155.95 1768.39,1158.2 1770.77,1160.41 1773.16,1162.6 1775.54,1164.76 1777.92,1166.9 1780.3,1169 1782.68,1171.08 1785.06,1173.14 1787.44,1175.17 1789.82,1177.17 1792.2,1179.14 1794.58,1181.1 1796.96,1183.02 1799.34,1184.92 1801.72,1186.8 1804.1,1188.66 1806.49,1190.49 1808.87,1192.29 1811.25,1194.08 1813.63,1195.84 1816.01,1197.58 1818.39,1199.29 1820.77,1200.98 1823.15,1202.66 1825.53,1204.31 1827.91,1205.94 1830.29,1207.54 1832.67,1209.13 1835.05,1210.7 1837.43,1212.24 1839.81,1213.77 1842.2,1215.28 1844.58,1216.76 1846.96,1218.23 1849.34,1219.68 1851.72,1221.11 1854.1,1222.52 1856.48,1223.92 1858.86,1225.29 1861.24,1226.65 1863.62,1227.99 1866,1229.31 1868.38,1230.62 1870.76,1231.91 1873.14,1233.18 1875.52,1234.43 1877.91,1235.67 1880.29,1236.89 1882.67,1238.1 1885.05,1239.29 1887.43,1240.47 1889.81,1241.63 1892.19,1242.77 1894.57,1243.9 1896.95,1245.02 1899.33,1246.12 1901.71,1247.21 1904.09,1248.28 1906.47,1249.34 1908.85,1250.39 1911.24,1251.42 1913.62,1252.44 1916,1253.44 1918.38,1254.43 1920.76,1255.41 1923.14,1256.38 1925.52,1257.33 1927.9,1258.27 1930.28,1259.2 1932.66,1260.12 1935.04,1261.03 1937.42,1261.92 1939.8,1262.8 1942.18,1263.67 1944.56,1264.53 1946.95,1265.38 1949.33,1266.22 1951.71,1267.05 1954.09,1267.86 1956.47,1268.67 1958.85,1269.46 1961.23,1270.25 1963.61,1271.02 1965.99,1271.79 1968.37,1272.54 1970.75,1273.29 1973.13,1274.02 1975.51,1274.75 1977.89,1275.47 1980.27,1276.18 1982.66,1276.88 1985.04,1277.57 1987.42,1278.25 1989.8,1278.92 1992.18,1279.58 1994.56,1280.24 1996.94,1280.89 1999.32,1281.52 2001.7,1282.16 2004.08,1282.78 2006.46,1283.39 2008.84,1284 2011.22,1284.6 2013.6,1285.19 2015.99,1285.78 2018.37,1286.35 2020.75,1286.92 2023.13,1287.48 2025.51,1288.04 2027.89,1288.59 2030.27,1289.13 2032.65,1289.66 2035.03,1290.19 2037.41,1290.71 2039.79,1291.23 2042.17,1291.74 2044.55,1292.24 2046.93,1292.73 2049.31,1293.22 2051.7,1293.71 2054.08,1294.18 2056.46,1294.65 2058.84,1295.12 2061.22,1295.58 2063.6,1296.03 2065.98,1296.48 2068.36,1296.92 2070.74,1297.36 2073.12,1297.79 2075.5,1298.22 2077.88,1298.64 2080.26,1299.06 2082.64,1299.47 2085.03,1299.87 2087.41,1300.27 2089.79,1300.67 2092.17,1301.06 2094.55,1301.45 2096.93,1301.83 2099.31,1302.21 2101.69,1302.58 2104.07,1302.95 2106.45,1303.31 2108.83,1303.67 2111.21,1304.02 2113.59,1304.37 2115.97,1304.72 2118.35,1305.06 2120.74,1305.4 2123.12,1305.73 2125.5,1306.06 2127.88,1306.38 2130.26,1306.71 2132.64,1307.02 2135.02,1307.34 2137.4,1307.65 2139.78,1307.95 2142.16,1308.26 2144.54,1308.56 2146.92,1308.85 2149.3,1309.14 2151.68,1309.43 2154.06,1309.72 2156.45,1310 2158.83,1310.28 2161.21,1310.55 2163.59,1310.82 2165.97,1311.09 2168.35,1311.36 2170.73,1311.62 2173.11,1311.88 2175.49,1312.13 2177.87,1312.39 2180.25,1312.64 2182.63,1312.88 2185.01,1313.13 2187.39,1313.37 2189.78,1313.61 2192.16,1313.84 2194.54,1314.08 2196.92,1314.31 2199.3,1314.53 2201.68,1314.76 2204.06,1314.98 2206.44,1315.2 2208.82,1315.42 2211.2,1315.63 2213.58,1315.84 2215.96,1316.05 2218.34,1316.26 2220.72,1316.47 2223.1,1316.67 2225.49,1316.87 2227.87,1317.07 2230.25,1317.26 2232.63,1317.46 "/>
<polyline clip-path="url(#clip652)" style="stroke:#000000; stroke-linecap:round; stroke-linejoin:round; stroke-width:8; stroke-opacity:1; fill:none" points="542.342,1179.05 685.183,1293.69 "/>
<polyline clip-path="url(#clip652)" style="stroke:#000000; stroke-linecap:round; stroke-linejoin:round; stroke-width:8; stroke-opacity:1; fill:none" points="668.374,1257.12 685.183,1293.69 645.841,1285.2 "/>
<polyline clip-path="url(#clip652)" style="stroke:#000000; stroke-linecap:round; stroke-linejoin:round; stroke-width:8; stroke-opacity:1; fill:none" points="685.183,1293.69 542.342,1179.05 "/>
<polyline clip-path="url(#clip652)" style="stroke:#000000; stroke-linecap:round; stroke-linejoin:round; stroke-width:8; stroke-opacity:1; fill:none" points="2018.37,1179.05 1875.52,1293.69 "/>
<polyline clip-path="url(#clip652)" style="stroke:#000000; stroke-linecap:round; stroke-linejoin:round; stroke-width:8; stroke-opacity:1; fill:none" points="1914.87,1285.2 1875.52,1293.69 1892.33,1257.12 "/>
<polyline clip-path="url(#clip652)" style="stroke:#000000; stroke-linecap:round; stroke-linejoin:round; stroke-width:8; stroke-opacity:1; fill:none" points="1875.52,1293.69 2018.37,1179.05 "/>
<path clip-path="url(#clip650)" d="M448.056 1057.66 Q447.904 1058.42 447.599 1059.79 Q447.295 1061.08 445.925 1065.19 Q444.554 1069.3 442.727 1073.49 Q440.977 1077.6 437.551 1083.39 Q434.202 1089.1 430.091 1094.27 Q428.949 1095.64 428.721 1096.48 Q428.568 1097.24 428.568 1099.75 Q428.568 1115.59 433.364 1115.59 Q433.593 1115.59 433.973 1115.59 Q434.43 1115.51 435.572 1115.13 Q436.79 1114.67 437.855 1113.99 Q438.921 1113.23 440.139 1111.7 Q441.357 1110.11 442.118 1107.97 Q442.803 1106.45 444.174 1106.45 Q446.001 1106.45 446.001 1107.97 Q446.001 1110.71 442.194 1114.9 Q438.388 1119.09 432.907 1119.09 Q427.655 1119.09 423.925 1115.66 Q420.271 1112.16 418.749 1105.92 Q402.306 1119.09 385.864 1119.09 Q374.293 1119.09 367.442 1111.55 Q360.591 1103.94 360.591 1092.67 Q360.591 1081.86 366.528 1071.59 Q372.542 1061.31 382.286 1054.92 Q392.106 1048.45 402.534 1048.45 Q406.188 1048.45 409.69 1049.44 Q413.192 1050.35 416.693 1052.71 Q420.195 1055.07 422.783 1058.65 Q425.371 1062.22 426.97 1067.86 Q428.568 1073.49 428.568 1080.57 L428.568 1090.24 Q438.617 1077.52 443.869 1059.33 Q444.63 1056.59 445.087 1056.29 Q445.392 1056.06 446.153 1056.06 Q446.914 1056.06 447.371 1056.52 Q447.904 1056.9 447.98 1057.28 L448.056 1057.66 M418.14 1101.88 Q417.835 1099.22 417.835 1084.45 Q417.835 1081.64 417.835 1080.11 Q417.835 1078.51 417.683 1075.47 Q417.531 1072.42 417.226 1070.52 Q416.998 1068.62 416.465 1065.88 Q415.932 1063.14 415.171 1061.39 Q414.41 1059.64 413.192 1057.66 Q412.05 1055.68 410.527 1054.54 Q409.081 1053.39 406.95 1052.63 Q404.894 1051.87 402.382 1051.87 Q399.261 1051.87 395.988 1053.01 Q392.791 1054.08 388.68 1057.5 Q384.569 1060.85 381.144 1066.18 Q377.566 1071.82 374.826 1082.17 Q372.161 1092.45 372.161 1098.61 Q372.161 1106.38 375.739 1111.02 Q379.317 1115.59 386.168 1115.59 Q402.534 1115.59 418.14 1101.88 Z" fill="#000000" fill-rule="evenodd" fill-opacity="1" /><path clip-path="url(#clip650)" d="M459.356 1154.1 Q459.356 1153.34 459.965 1151.67 L515.002 1004.6 Q515.002 1004.45 515.383 1003.61 Q515.764 1002.77 515.992 1002.24 Q516.22 1001.63 516.677 1001.17 Q517.21 1000.72 517.819 1000.72 Q519.341 1000.72 519.341 1002.62 Q519.341 1002.77 518.885 1004.6 L463.695 1151.82 Q462.782 1154.49 462.173 1155.25 Q461.64 1156.01 460.727 1156.01 Q459.356 1156.01 459.356 1154.1 Z" fill="#000000" fill-rule="evenodd" fill-opacity="1" /><path clip-path="url(#clip650)" d="M536.56 1117.34 Q536.56 1114.52 536.788 1113.68 Q537.092 1112.85 538.31 1111.55 L568.227 1078.21 Q584.593 1059.79 584.593 1043.73 Q584.593 1033.3 579.112 1025.84 Q573.708 1018.38 563.735 1018.38 Q556.884 1018.38 551.099 1022.56 Q545.314 1026.75 542.649 1034.21 Q543.106 1034.06 544.705 1034.06 Q548.587 1034.06 550.718 1036.49 Q552.926 1038.93 552.926 1042.2 Q552.926 1046.39 550.186 1048.45 Q547.521 1050.43 544.857 1050.43 Q543.791 1050.43 542.345 1050.2 Q540.975 1049.97 538.767 1047.84 Q536.56 1045.63 536.56 1041.75 Q536.56 1030.86 544.781 1022.18 Q553.078 1013.51 565.715 1013.51 Q580.026 1013.51 589.389 1022.03 Q598.828 1030.48 598.828 1043.73 Q598.828 1048.37 597.382 1052.63 Q596.012 1056.82 594.108 1060.09 Q592.282 1063.37 587.257 1068.62 Q582.233 1073.87 578.199 1077.6 Q574.164 1081.33 565.106 1089.25 L548.587 1105.31 L576.676 1105.31 Q590.378 1105.31 591.444 1104.09 Q592.967 1101.88 594.87 1090.24 L598.828 1090.24 L594.413 1117.34 L536.56 1117.34 Z" fill="#000000" fill-rule="evenodd" fill-opacity="1" /><path clip-path="url(#clip650)" d="M2043.11 1057.66 Q2042.96 1058.42 2042.66 1059.79 Q2042.35 1061.08 2040.98 1065.19 Q2039.61 1069.3 2037.79 1073.49 Q2036.03 1077.6 2032.61 1083.39 Q2029.26 1089.1 2025.15 1094.27 Q2024.01 1095.64 2023.78 1096.48 Q2023.63 1097.24 2023.63 1099.75 Q2023.63 1115.59 2028.42 1115.59 Q2028.65 1115.59 2029.03 1115.59 Q2029.49 1115.51 2030.63 1115.13 Q2031.85 1114.67 2032.91 1113.99 Q2033.98 1113.23 2035.2 1111.7 Q2036.42 1110.11 2037.18 1107.97 Q2037.86 1106.45 2039.23 1106.45 Q2041.06 1106.45 2041.06 1107.97 Q2041.06 1110.71 2037.25 1114.9 Q2033.45 1119.09 2027.97 1119.09 Q2022.71 1119.09 2018.98 1115.66 Q2015.33 1112.16 2013.81 1105.92 Q1997.36 1119.09 1980.92 1119.09 Q1969.35 1119.09 1962.5 1111.55 Q1955.65 1103.94 1955.65 1092.67 Q1955.65 1081.86 1961.59 1071.59 Q1967.6 1061.31 1977.34 1054.92 Q1987.16 1048.45 1997.59 1048.45 Q2001.25 1048.45 2004.75 1049.44 Q2008.25 1050.35 2011.75 1052.71 Q2015.25 1055.07 2017.84 1058.65 Q2020.43 1062.22 2022.03 1067.86 Q2023.63 1073.49 2023.63 1080.57 L2023.63 1090.24 Q2033.67 1077.52 2038.93 1059.33 Q2039.69 1056.59 2040.15 1056.29 Q2040.45 1056.06 2041.21 1056.06 Q2041.97 1056.06 2042.43 1056.52 Q2042.96 1056.9 2043.04 1057.28 L2043.11 1057.66 M2013.2 1101.88 Q2012.89 1099.22 2012.89 1084.45 Q2012.89 1081.64 2012.89 1080.11 Q2012.89 1078.51 2012.74 1075.47 Q2012.59 1072.42 2012.28 1070.52 Q2012.06 1068.62 2011.52 1065.88 Q2010.99 1063.14 2010.23 1061.39 Q2009.47 1059.64 2008.25 1057.66 Q2007.11 1055.68 2005.59 1054.54 Q2004.14 1053.39 2002.01 1052.63 Q1999.95 1051.87 1997.44 1051.87 Q1994.32 1051.87 1991.05 1053.01 Q1987.85 1054.08 1983.74 1057.5 Q1979.63 1060.85 1976.2 1066.18 Q1972.62 1071.82 1969.88 1082.17 Q1967.22 1092.45 1967.22 1098.61 Q1967.22 1106.38 1970.8 1111.02 Q1974.37 1115.59 1981.23 1115.59 Q1997.59 1115.59 2013.2 1101.88 Z" fill="#000000" fill-rule="evenodd" fill-opacity="1" /><path clip-path="url(#clip650)" d="M2054.41 1154.1 Q2054.41 1153.34 2055.02 1151.67 L2110.06 1004.6 Q2110.06 1004.45 2110.44 1003.61 Q2110.82 1002.77 2111.05 1002.24 Q2111.28 1001.63 2111.73 1001.17 Q2112.27 1000.72 2112.88 1000.72 Q2114.4 1000.72 2114.4 1002.62 Q2114.4 1002.77 2113.94 1004.6 L2058.75 1151.82 Q2057.84 1154.49 2057.23 1155.25 Q2056.7 1156.01 2055.78 1156.01 Q2054.41 1156.01 2054.41 1154.1 Z" fill="#000000" fill-rule="evenodd" fill-opacity="1" /><path clip-path="url(#clip650)" d="M2131.62 1117.34 Q2131.62 1114.52 2131.85 1113.68 Q2132.15 1112.85 2133.37 1111.55 L2163.28 1078.21 Q2179.65 1059.79 2179.65 1043.73 Q2179.65 1033.3 2174.17 1025.84 Q2168.77 1018.38 2158.79 1018.38 Q2151.94 1018.38 2146.16 1022.56 Q2140.37 1026.75 2137.71 1034.21 Q2138.16 1034.06 2139.76 1034.06 Q2143.64 1034.06 2145.78 1036.49 Q2147.98 1038.93 2147.98 1042.2 Q2147.98 1046.39 2145.24 1048.45 Q2142.58 1050.43 2139.91 1050.43 Q2138.85 1050.43 2137.4 1050.2 Q2136.03 1049.97 2133.82 1047.84 Q2131.62 1045.63 2131.62 1041.75 Q2131.62 1030.86 2139.84 1022.18 Q2148.14 1013.51 2160.77 1013.51 Q2175.08 1013.51 2184.45 1022.03 Q2193.89 1030.48 2193.89 1043.73 Q2193.89 1048.37 2192.44 1052.63 Q2191.07 1056.82 2189.17 1060.09 Q2187.34 1063.37 2182.32 1068.62 Q2177.29 1073.87 2173.26 1077.6 Q2169.22 1081.33 2160.16 1089.25 L2143.64 1105.31 L2171.73 1105.31 Q2185.44 1105.31 2186.5 1104.09 Q2188.02 1101.88 2189.93 1090.24 L2193.89 1090.24 L2189.47 1117.34 L2131.62 1117.34 Z" fill="#000000" fill-rule="evenodd" fill-opacity="1" /></svg>
