<?xml version="1.0" encoding="utf-8"?>
<svg xmlns="http://www.w3.org/2000/svg" xmlns:xlink="http://www.w3.org/1999/xlink" width="600" height="400" viewBox="0 0 2400 1600">
<defs>
  <clipPath id="clip730">
    <rect x="0" y="0" width="2400" height="1600"/>
  </clipPath>
</defs>
<path clip-path="url(#clip730)" d="
M0 1600 L2400 1600 L2400 0 L0 0  Z
  " fill="#ffffff" fill-rule="evenodd" fill-opacity="1"/>
<defs>
  <clipPath id="clip731">
    <rect x="480" y="0" width="1681" height="1600"/>
  </clipPath>
</defs>
<path clip-path="url(#clip730)" d="
M208.803 1425.97 L2352.76 1425.97 L2352.76 166.672 L208.803 166.672  Z
  " fill="#ffffff" fill-rule="evenodd" fill-opacity="1"/>
<defs>
  <clipPath id="clip732">
    <rect x="208" y="166" width="2145" height="1260"/>
  </clipPath>
</defs>
<polyline clip-path="url(#clip730)" style="stroke:#000000; stroke-linecap:round; stroke-linejoin:round; stroke-width:4; stroke-opacity:1; fill:none" points="
  208.803,1425.97 2352.76,1425.97 
  "/>
<polyline clip-path="url(#clip730)" style="stroke:#000000; stroke-linecap:round; stroke-linejoin:round; stroke-width:4; stroke-opacity:1; fill:none" points="
  1280.78,1425.97 1280.78,1407.07 
  "/>
<path clip-path="url(#clip730)" d="M1280.78 1477.39 Q1270.85 1477.39 1265.82 1487.2 Q1260.85 1496.94 1260.85 1516.54 Q1260.85 1536.09 1265.82 1545.89 Q1270.85 1555.63 1280.78 1555.63 Q1290.77 1555.63 1295.74 1545.89 Q1300.77 1536.09 1300.77 1516.54 Q1300.77 1496.94 1295.74 1487.2 Q1290.77 1477.39 1280.78 1477.39 M1280.78 1467.21 Q1296.76 1467.21 1305.16 1479.88 Q1313.63 1492.48 1313.63 1516.54 Q1313.63 1540.54 1305.16 1553.21 Q1296.76 1565.81 1280.78 1565.81 Q1264.8 1565.81 1256.34 1553.21 Q1247.93 1540.54 1247.93 1516.54 Q1247.93 1492.48 1256.34 1479.88 Q1264.8 1467.21 1280.78 1467.21 Z" fill="#000000" fill-rule="evenodd" fill-opacity="1" /><path clip-path="url(#clip730)" d="M1012.48 24.1388 L1012.48 37.8192 Q1004.5 33.9998 997.413 32.1248 Q990.33 30.2498 983.732 30.2498 Q972.274 30.2498 966.024 34.6943 Q959.844 39.1387 959.844 47.3331 Q959.844 54.208 963.941 57.7497 Q968.107 61.2219 979.635 63.3747 L988.107 65.1108 Q1003.8 68.0969 1011.23 75.6663 Q1018.73 83.1662 1018.73 95.805 Q1018.73 110.874 1008.59 118.652 Q998.524 126.43 979.01 126.43 Q971.649 126.43 963.316 124.763 Q955.052 123.097 946.163 119.833 L946.163 105.388 Q954.705 110.18 962.899 112.611 Q971.094 115.041 979.01 115.041 Q991.024 115.041 997.552 110.319 Q1004.08 105.597 1004.08 96.8467 Q1004.08 89.2079 999.357 84.9023 Q994.705 80.5968 984.01 78.444 L975.468 76.7774 Q959.774 73.6524 952.76 66.9858 Q945.746 60.3191 945.746 48.4442 Q945.746 34.6943 955.399 26.7776 Q965.121 18.861 982.135 18.861 Q989.427 18.861 996.996 20.1804 Q1004.57 21.4999 1012.48 24.1388 Z" fill="#000000" fill-rule="evenodd" fill-opacity="1" /><path clip-path="url(#clip730)" d="M1072.41 131.638 Q1067 145.527 1061.86 149.763 Q1056.72 153.999 1048.11 153.999 L1037.9 153.999 L1037.9 143.305 L1045.4 143.305 Q1050.68 143.305 1053.59 140.805 Q1056.51 138.305 1060.05 128.999 L1062.34 123.166 L1030.88 46.6386 L1044.43 46.6386 L1068.73 107.472 L1093.04 46.6386 L1106.58 46.6386 L1072.41 131.638 Z" fill="#000000" fill-rule="evenodd" fill-opacity="1" /><path clip-path="url(#clip730)" d="M1184.77 61.5691 Q1189.56 52.958 1196.23 48.8608 Q1202.9 44.7636 1211.93 44.7636 Q1224.08 44.7636 1230.68 53.3053 Q1237.27 61.7774 1237.27 77.4718 L1237.27 124.416 L1224.43 124.416 L1224.43 77.8885 Q1224.43 66.708 1220.47 61.2913 Q1216.51 55.8747 1208.38 55.8747 Q1198.45 55.8747 1192.69 62.4719 Q1186.93 69.0691 1186.93 80.4579 L1186.93 124.416 L1174.08 124.416 L1174.08 77.8885 Q1174.08 66.6385 1170.12 61.2913 Q1166.16 55.8747 1157.9 55.8747 Q1148.11 55.8747 1142.34 62.5413 Q1136.58 69.1385 1136.58 80.4579 L1136.58 124.416 L1123.73 124.416 L1123.73 46.6386 L1136.58 46.6386 L1136.58 58.7219 Q1140.95 51.5692 1147.06 48.1664 Q1153.18 44.7636 1161.58 44.7636 Q1170.05 44.7636 1175.95 49.0692 Q1181.93 53.3747 1184.77 61.5691 Z" fill="#000000" fill-rule="evenodd" fill-opacity="1" /><path clip-path="url(#clip730)" d="M1323.31 61.5691 Q1328.11 52.958 1334.77 48.8608 Q1341.44 44.7636 1350.47 44.7636 Q1362.62 44.7636 1369.22 53.3053 Q1375.81 61.7774 1375.81 77.4718 L1375.81 124.416 L1362.97 124.416 L1362.97 77.8885 Q1362.97 66.708 1359.01 61.2913 Q1355.05 55.8747 1346.92 55.8747 Q1336.99 55.8747 1331.23 62.4719 Q1325.47 69.0691 1325.47 80.4579 L1325.47 124.416 L1312.62 124.416 L1312.62 77.8885 Q1312.62 66.6385 1308.66 61.2913 Q1304.7 55.8747 1296.44 55.8747 Q1286.65 55.8747 1280.88 62.5413 Q1275.12 69.1385 1275.12 80.4579 L1275.12 124.416 L1262.27 124.416 L1262.27 46.6386 L1275.12 46.6386 L1275.12 58.7219 Q1279.49 51.5692 1285.61 48.1664 Q1291.72 44.7636 1300.12 44.7636 Q1308.59 44.7636 1314.49 49.0692 Q1320.47 53.3747 1323.31 61.5691 Z" fill="#000000" fill-rule="evenodd" fill-opacity="1" /><path clip-path="url(#clip730)" d="M1467.83 82.3329 L1467.83 88.5829 L1409.08 88.5829 Q1409.91 101.777 1416.99 108.722 Q1424.15 115.597 1436.85 115.597 Q1444.22 115.597 1451.09 113.791 Q1458.04 111.986 1464.84 108.374 L1464.84 120.458 Q1457.97 123.374 1450.74 124.902 Q1443.52 126.43 1436.09 126.43 Q1417.48 126.43 1406.58 115.597 Q1395.74 104.763 1395.74 86.2912 Q1395.74 67.1941 1406.02 56.0136 Q1416.37 44.7636 1433.87 44.7636 Q1449.56 44.7636 1458.66 54.9025 Q1467.83 64.9719 1467.83 82.3329 M1455.05 78.5829 Q1454.91 68.0969 1449.15 61.8469 Q1443.45 55.5969 1434.01 55.5969 Q1423.31 55.5969 1416.86 61.6386 Q1410.47 67.6802 1409.49 78.6524 L1455.05 78.5829 Z" fill="#000000" fill-rule="evenodd" fill-opacity="1" /><path clip-path="url(#clip730)" d="M1501.44 24.5554 L1501.44 46.6386 L1527.76 46.6386 L1527.76 56.5691 L1501.44 56.5691 L1501.44 98.7911 Q1501.44 108.305 1504.01 111.013 Q1506.65 113.722 1514.63 113.722 L1527.76 113.722 L1527.76 124.416 L1514.63 124.416 Q1499.84 124.416 1494.22 118.93 Q1488.59 113.374 1488.59 98.7911 L1488.59 56.5691 L1479.22 56.5691 L1479.22 46.6386 L1488.59 46.6386 L1488.59 24.5554 L1501.44 24.5554 Z" fill="#000000" fill-rule="evenodd" fill-opacity="1" /><path clip-path="url(#clip730)" d="M1589.63 58.583 Q1587.48 57.333 1584.91 56.7775 Q1582.41 56.1525 1579.35 56.1525 Q1568.52 56.1525 1562.69 63.2358 Q1556.92 70.2496 1556.92 83.444 L1556.92 124.416 L1544.08 124.416 L1544.08 46.6386 L1556.92 46.6386 L1556.92 58.7219 Q1560.95 51.6386 1567.41 48.2359 Q1573.87 44.7636 1583.1 44.7636 Q1584.42 44.7636 1586.02 44.972 Q1587.62 45.1109 1589.56 45.4581 L1589.63 58.583 Z" fill="#000000" fill-rule="evenodd" fill-opacity="1" /><path clip-path="url(#clip730)" d="M1603.03 46.6386 L1615.81 46.6386 L1615.81 124.416 L1603.03 124.416 L1603.03 46.6386 M1603.03 16.361 L1615.81 16.361 L1615.81 32.5415 L1603.03 32.5415 L1603.03 16.361 Z" fill="#000000" fill-rule="evenodd" fill-opacity="1" /><path clip-path="url(#clip732)" d="
M269.481 1389.93 L272.009 1389.91 L274.537 1389.9 L277.065 1389.88 L279.594 1389.86 L282.122 1389.84 L284.65 1389.82 L287.178 1389.8 L289.707 1389.78 L292.235 1389.76 
  L294.763 1389.74 L297.291 1389.71 L299.82 1389.69 L302.348 1389.66 L304.876 1389.64 L307.404 1389.61 L309.933 1389.58 L312.461 1389.55 L314.989 1389.52 L317.517 1389.49 
  L320.046 1389.46 L322.574 1389.42 L325.102 1389.39 L327.63 1389.35 L330.159 1389.32 L332.687 1389.28 L335.215 1389.24 L337.743 1389.2 L340.272 1389.15 L342.8 1389.11 
  L345.328 1389.06 L347.856 1389.01 L350.385 1388.97 L352.913 1388.91 L355.441 1388.86 L357.969 1388.81 L360.498 1388.75 L363.026 1388.69 L365.554 1388.63 L368.082 1388.57 
  L370.611 1388.51 L373.139 1388.44 L375.667 1388.37 L378.195 1388.3 L380.724 1388.22 L383.252 1388.15 L385.78 1388.07 L388.308 1387.99 L390.837 1387.9 L393.365 1387.82 
  L395.893 1387.73 L398.421 1387.64 L400.95 1387.54 L403.478 1387.44 L406.006 1387.34 L408.534 1387.24 L411.063 1387.13 L413.591 1387.02 L416.119 1386.9 L418.647 1386.78 
  L421.176 1386.66 L423.704 1386.53 L426.232 1386.4 L428.76 1386.27 L431.289 1386.13 L433.817 1385.98 L436.345 1385.84 L438.873 1385.68 L441.402 1385.53 L443.93 1385.36 
  L446.458 1385.2 L448.986 1385.03 L451.514 1384.85 L454.043 1384.67 L456.571 1384.48 L459.099 1384.29 L461.627 1384.09 L464.156 1383.88 L466.684 1383.67 L469.212 1383.45 
  L471.74 1383.23 L474.269 1383 L476.797 1382.76 L479.325 1382.52 L481.853 1382.26 L484.382 1382.01 L486.91 1381.74 L489.438 1381.47 L491.966 1381.19 L494.495 1380.9 
  L497.023 1380.6 L499.551 1380.29 L502.079 1379.98 L504.608 1379.66 L507.136 1379.32 L509.664 1378.98 L512.192 1378.63 L514.721 1378.27 L517.249 1377.9 L519.777 1377.52 
  L522.305 1377.13 L524.834 1376.73 L527.362 1376.32 L529.89 1375.89 L532.418 1375.46 L534.947 1375.01 L537.475 1374.56 L540.003 1374.09 L542.531 1373.6 L545.06 1373.11 
  L547.588 1372.6 L550.116 1372.08 L552.644 1371.55 L555.173 1371 L557.701 1370.44 L560.229 1369.86 L562.757 1369.27 L565.286 1368.66 L567.814 1368.04 L570.342 1367.41 
  L572.87 1366.76 L575.399 1366.09 L577.927 1365.4 L580.455 1364.7 L582.983 1363.98 L585.512 1363.25 L588.04 1362.49 L590.568 1361.72 L593.096 1360.93 L595.625 1360.12 
  L598.153 1359.29 L600.681 1358.45 L603.209 1357.58 L605.738 1356.69 L608.266 1355.78 L610.794 1354.85 L613.322 1353.9 L615.851 1352.93 L618.379 1351.94 L620.907 1350.92 
  L623.435 1349.88 L625.963 1348.82 L628.492 1347.73 L631.02 1346.62 L633.548 1345.48 L636.076 1344.32 L638.605 1343.13 L641.133 1341.92 L643.661 1340.69 L646.189 1339.42 
  L648.718 1338.13 L651.246 1336.81 L653.774 1335.46 L656.302 1334.09 L658.831 1332.69 L661.359 1331.25 L663.887 1329.79 L666.415 1328.3 L668.944 1326.78 L671.472 1325.22 
  L674 1323.64 L676.528 1322.02 L679.057 1320.37 L681.585 1318.69 L684.113 1316.98 L686.641 1315.23 L689.17 1313.45 L691.698 1311.63 L694.226 1309.78 L696.754 1307.89 
  L699.283 1305.97 L701.811 1304.01 L704.339 1302.02 L706.867 1299.99 L709.396 1297.92 L711.924 1295.81 L714.452 1293.66 L716.98 1291.48 L719.509 1289.25 L722.037 1286.99 
  L724.565 1284.69 L727.093 1282.34 L729.622 1279.96 L732.15 1277.53 L734.678 1275.06 L737.206 1272.55 L739.735 1270 L742.263 1267.4 L744.791 1264.76 L747.319 1262.08 
  L749.848 1259.35 L752.376 1256.58 L754.904 1253.76 L757.432 1250.89 L759.961 1247.98 L762.489 1245.03 L765.017 1242.03 L767.545 1238.98 L770.074 1235.88 L772.602 1232.74 
  L775.13 1229.55 L777.658 1226.31 L780.187 1223.02 L782.715 1219.68 L785.243 1216.3 L787.771 1212.86 L790.3 1209.37 L792.828 1205.84 L795.356 1202.25 L797.884 1198.62 
  L800.413 1194.93 L802.941 1191.19 L805.469 1187.4 L807.997 1183.56 L810.525 1179.67 L813.054 1175.72 L815.582 1171.73 L818.11 1167.68 L820.638 1163.58 L823.167 1159.43 
  L825.695 1155.22 L828.223 1150.96 L830.751 1146.65 L833.28 1142.29 L835.808 1137.87 L838.336 1133.4 L840.864 1128.88 L843.393 1124.3 L845.921 1119.67 L848.449 1114.99 
  L850.977 1110.26 L853.506 1105.47 L856.034 1100.63 L858.562 1095.74 L861.09 1090.79 L863.619 1085.79 L866.147 1080.74 L868.675 1075.64 L871.203 1070.48 L873.732 1065.27 
  L876.26 1060.01 L876.26 1390.33 L873.732 1390.33 L871.203 1390.33 L868.675 1390.33 L866.147 1390.33 L863.619 1390.33 L861.09 1390.33 L858.562 1390.33 L856.034 1390.33 
  L853.506 1390.33 L850.977 1390.33 L848.449 1390.33 L845.921 1390.33 L843.393 1390.33 L840.864 1390.33 L838.336 1390.33 L835.808 1390.33 L833.28 1390.33 L830.751 1390.33 
  L828.223 1390.33 L825.695 1390.33 L823.167 1390.33 L820.638 1390.33 L818.11 1390.33 L815.582 1390.33 L813.054 1390.33 L810.525 1390.33 L807.997 1390.33 L805.469 1390.33 
  L802.941 1390.33 L800.413 1390.33 L797.884 1390.33 L795.356 1390.33 L792.828 1390.33 L790.3 1390.33 L787.771 1390.33 L785.243 1390.33 L782.715 1390.33 L780.187 1390.33 
  L777.658 1390.33 L775.13 1390.33 L772.602 1390.33 L770.074 1390.33 L767.545 1390.33 L765.017 1390.33 L762.489 1390.33 L759.961 1390.33 L757.432 1390.33 L754.904 1390.33 
  L752.376 1390.33 L749.848 1390.33 L747.319 1390.33 L744.791 1390.33 L742.263 1390.33 L739.735 1390.33 L737.206 1390.33 L734.678 1390.33 L732.15 1390.33 L729.622 1390.33 
  L727.093 1390.33 L724.565 1390.33 L722.037 1390.33 L719.509 1390.33 L716.98 1390.33 L714.452 1390.33 L711.924 1390.33 L709.396 1390.33 L706.867 1390.33 L704.339 1390.33 
  L701.811 1390.33 L699.283 1390.33 L696.754 1390.33 L694.226 1390.33 L691.698 1390.33 L689.17 1390.33 L686.641 1390.33 L684.113 1390.33 L681.585 1390.33 L679.057 1390.33 
  L676.528 1390.33 L674 1390.33 L671.472 1390.33 L668.944 1390.33 L666.415 1390.33 L663.887 1390.33 L661.359 1390.33 L658.831 1390.33 L656.302 1390.33 L653.774 1390.33 
  L651.246 1390.33 L648.718 1390.33 L646.189 1390.33 L643.661 1390.33 L641.133 1390.33 L638.605 1390.33 L636.076 1390.33 L633.548 1390.33 L631.02 1390.33 L628.492 1390.33 
  L625.963 1390.33 L623.435 1390.33 L620.907 1390.33 L618.379 1390.33 L615.851 1390.33 L613.322 1390.33 L610.794 1390.33 L608.266 1390.33 L605.738 1390.33 L603.209 1390.33 
  L600.681 1390.33 L598.153 1390.33 L595.625 1390.33 L593.096 1390.33 L590.568 1390.33 L588.04 1390.33 L585.512 1390.33 L582.983 1390.33 L580.455 1390.33 L577.927 1390.33 
  L575.399 1390.33 L572.87 1390.33 L570.342 1390.33 L567.814 1390.33 L565.286 1390.33 L562.757 1390.33 L560.229 1390.33 L557.701 1390.33 L555.173 1390.33 L552.644 1390.33 
  L550.116 1390.33 L547.588 1390.33 L545.06 1390.33 L542.531 1390.33 L540.003 1390.33 L537.475 1390.33 L534.947 1390.33 L532.418 1390.33 L529.89 1390.33 L527.362 1390.33 
  L524.834 1390.33 L522.305 1390.33 L519.777 1390.33 L517.249 1390.33 L514.721 1390.33 L512.192 1390.33 L509.664 1390.33 L507.136 1390.33 L504.608 1390.33 L502.079 1390.33 
  L499.551 1390.33 L497.023 1390.33 L494.495 1390.33 L491.966 1390.33 L489.438 1390.33 L486.91 1390.33 L484.382 1390.33 L481.853 1390.33 L479.325 1390.33 L476.797 1390.33 
  L474.269 1390.33 L471.74 1390.33 L469.212 1390.33 L466.684 1390.33 L464.156 1390.33 L461.627 1390.33 L459.099 1390.33 L456.571 1390.33 L454.043 1390.33 L451.514 1390.33 
  L448.986 1390.33 L446.458 1390.33 L443.93 1390.33 L441.402 1390.33 L438.873 1390.33 L436.345 1390.33 L433.817 1390.33 L431.289 1390.33 L428.76 1390.33 L426.232 1390.33 
  L423.704 1390.33 L421.176 1390.33 L418.647 1390.33 L416.119 1390.33 L413.591 1390.33 L411.063 1390.33 L408.534 1390.33 L406.006 1390.33 L403.478 1390.33 L400.95 1390.33 
  L398.421 1390.33 L395.893 1390.33 L393.365 1390.33 L390.837 1390.33 L388.308 1390.33 L385.78 1390.33 L383.252 1390.33 L380.724 1390.33 L378.195 1390.33 L375.667 1390.33 
  L373.139 1390.33 L370.611 1390.33 L368.082 1390.33 L365.554 1390.33 L363.026 1390.33 L360.498 1390.33 L357.969 1390.33 L355.441 1390.33 L352.913 1390.33 L350.385 1390.33 
  L347.856 1390.33 L345.328 1390.33 L342.8 1390.33 L340.272 1390.33 L337.743 1390.33 L335.215 1390.33 L332.687 1390.33 L330.159 1390.33 L327.63 1390.33 L325.102 1390.33 
  L322.574 1390.33 L320.046 1390.33 L317.517 1390.33 L314.989 1390.33 L312.461 1390.33 L309.933 1390.33 L307.404 1390.33 L304.876 1390.33 L302.348 1390.33 L299.82 1390.33 
  L297.291 1390.33 L294.763 1390.33 L292.235 1390.33 L289.707 1390.33 L287.178 1390.33 L284.65 1390.33 L282.122 1390.33 L279.594 1390.33 L277.065 1390.33 L274.537 1390.33 
  L272.009 1390.33 L269.481 1390.33  Z
  " fill="#339f2c" fill-rule="evenodd" fill-opacity="0.5"/>
<polyline clip-path="url(#clip732)" style="stroke:#339f2c; stroke-linecap:round; stroke-linejoin:round; stroke-width:16; stroke-opacity:1; fill:none" points="
  269.481,1389.93 272.009,1389.91 274.537,1389.9 277.065,1389.88 279.594,1389.86 282.122,1389.84 284.65,1389.82 287.178,1389.8 289.707,1389.78 292.235,1389.76 
  294.763,1389.74 297.291,1389.71 299.82,1389.69 302.348,1389.66 304.876,1389.64 307.404,1389.61 309.933,1389.58 312.461,1389.55 314.989,1389.52 317.517,1389.49 
  320.046,1389.46 322.574,1389.42 325.102,1389.39 327.63,1389.35 330.159,1389.32 332.687,1389.28 335.215,1389.24 337.743,1389.2 340.272,1389.15 342.8,1389.11 
  345.328,1389.06 347.856,1389.01 350.385,1388.97 352.913,1388.91 355.441,1388.86 357.969,1388.81 360.498,1388.75 363.026,1388.69 365.554,1388.63 368.082,1388.57 
  370.611,1388.51 373.139,1388.44 375.667,1388.37 378.195,1388.3 380.724,1388.22 383.252,1388.15 385.78,1388.07 388.308,1387.99 390.837,1387.9 393.365,1387.82 
  395.893,1387.73 398.421,1387.64 400.95,1387.54 403.478,1387.44 406.006,1387.34 408.534,1387.24 411.063,1387.13 413.591,1387.02 416.119,1386.9 418.647,1386.78 
  421.176,1386.66 423.704,1386.53 426.232,1386.4 428.76,1386.27 431.289,1386.13 433.817,1385.98 436.345,1385.84 438.873,1385.68 441.402,1385.53 443.93,1385.36 
  446.458,1385.2 448.986,1385.03 451.514,1384.85 454.043,1384.67 456.571,1384.48 459.099,1384.29 461.627,1384.09 464.156,1383.88 466.684,1383.67 469.212,1383.45 
  471.74,1383.23 474.269,1383 476.797,1382.76 479.325,1382.52 481.853,1382.26 484.382,1382.01 486.91,1381.74 489.438,1381.47 491.966,1381.19 494.495,1380.9 
  497.023,1380.6 499.551,1380.29 502.079,1379.98 504.608,1379.66 507.136,1379.32 509.664,1378.98 512.192,1378.63 514.721,1378.27 517.249,1377.9 519.777,1377.52 
  522.305,1377.13 524.834,1376.73 527.362,1376.32 529.89,1375.89 532.418,1375.46 534.947,1375.01 537.475,1374.56 540.003,1374.09 542.531,1373.6 545.06,1373.11 
  547.588,1372.6 550.116,1372.08 552.644,1371.55 555.173,1371 557.701,1370.44 560.229,1369.86 562.757,1369.27 565.286,1368.66 567.814,1368.04 570.342,1367.41 
  572.87,1366.76 575.399,1366.09 577.927,1365.4 580.455,1364.7 582.983,1363.98 585.512,1363.25 588.04,1362.49 590.568,1361.72 593.096,1360.93 595.625,1360.12 
  598.153,1359.29 600.681,1358.45 603.209,1357.58 605.738,1356.69 608.266,1355.78 610.794,1354.85 613.322,1353.9 615.851,1352.93 618.379,1351.94 620.907,1350.92 
  623.435,1349.88 625.963,1348.82 628.492,1347.73 631.02,1346.62 633.548,1345.48 636.076,1344.32 638.605,1343.13 641.133,1341.92 643.661,1340.69 646.189,1339.42 
  648.718,1338.13 651.246,1336.81 653.774,1335.46 656.302,1334.09 658.831,1332.69 661.359,1331.25 663.887,1329.79 666.415,1328.3 668.944,1326.78 671.472,1325.22 
  674,1323.64 676.528,1322.02 679.057,1320.37 681.585,1318.69 684.113,1316.98 686.641,1315.23 689.17,1313.45 691.698,1311.63 694.226,1309.78 696.754,1307.89 
  699.283,1305.97 701.811,1304.01 704.339,1302.02 706.867,1299.99 709.396,1297.92 711.924,1295.81 714.452,1293.66 716.98,1291.48 719.509,1289.25 722.037,1286.99 
  724.565,1284.69 727.093,1282.34 729.622,1279.96 732.15,1277.53 734.678,1275.06 737.206,1272.55 739.735,1270 742.263,1267.4 744.791,1264.76 747.319,1262.08 
  749.848,1259.35 752.376,1256.58 754.904,1253.76 757.432,1250.89 759.961,1247.98 762.489,1245.03 765.017,1242.03 767.545,1238.98 770.074,1235.88 772.602,1232.74 
  775.13,1229.55 777.658,1226.31 780.187,1223.02 782.715,1219.68 785.243,1216.3 787.771,1212.86 790.3,1209.37 792.828,1205.84 795.356,1202.25 797.884,1198.62 
  800.413,1194.93 802.941,1191.19 805.469,1187.4 807.997,1183.56 810.525,1179.67 813.054,1175.72 815.582,1171.73 818.11,1167.68 820.638,1163.58 823.167,1159.43 
  825.695,1155.22 828.223,1150.96 830.751,1146.65 833.28,1142.29 835.808,1137.87 838.336,1133.4 840.864,1128.88 843.393,1124.3 845.921,1119.67 848.449,1114.99 
  850.977,1110.26 853.506,1105.47 856.034,1100.63 858.562,1095.74 861.09,1090.79 863.619,1085.79 866.147,1080.74 868.675,1075.64 871.203,1070.48 873.732,1065.27 
  876.26,1060.01 
  "/>
<path clip-path="url(#clip732)" d="
M1685.3 1060.01 L1687.83 1065.27 L1690.36 1070.48 L1692.88 1075.64 L1695.41 1080.74 L1697.94 1085.79 L1700.47 1090.79 L1703 1095.74 L1705.52 1100.63 L1708.05 1105.47 
  L1710.58 1110.26 L1713.11 1114.99 L1715.64 1119.67 L1718.17 1124.3 L1720.69 1128.88 L1723.22 1133.4 L1725.75 1137.87 L1728.28 1142.29 L1730.81 1146.65 L1733.34 1150.96 
  L1735.86 1155.22 L1738.39 1159.43 L1740.92 1163.58 L1743.45 1167.68 L1745.98 1171.73 L1748.5 1175.72 L1751.03 1179.67 L1753.56 1183.56 L1756.09 1187.4 L1758.62 1191.19 
  L1761.15 1194.93 L1763.67 1198.62 L1766.2 1202.25 L1768.73 1205.84 L1771.26 1209.37 L1773.79 1212.86 L1776.32 1216.3 L1778.84 1219.68 L1781.37 1223.02 L1783.9 1226.31 
  L1786.43 1229.55 L1788.96 1232.74 L1791.49 1235.88 L1794.01 1238.98 L1796.54 1242.03 L1799.07 1245.03 L1801.6 1247.98 L1804.13 1250.89 L1806.65 1253.76 L1809.18 1256.58 
  L1811.71 1259.35 L1814.24 1262.08 L1816.77 1264.76 L1819.3 1267.4 L1821.82 1270 L1824.35 1272.55 L1826.88 1275.06 L1829.41 1277.53 L1831.94 1279.96 L1834.47 1282.34 
  L1836.99 1284.69 L1839.52 1286.99 L1842.05 1289.25 L1844.58 1291.48 L1847.11 1293.66 L1849.63 1295.81 L1852.16 1297.92 L1854.69 1299.99 L1857.22 1302.02 L1859.75 1304.01 
  L1862.28 1305.97 L1864.8 1307.89 L1867.33 1309.78 L1869.86 1311.63 L1872.39 1313.45 L1874.92 1315.23 L1877.45 1316.98 L1879.97 1318.69 L1882.5 1320.37 L1885.03 1322.02 
  L1887.56 1323.64 L1890.09 1325.22 L1892.62 1326.78 L1895.14 1328.3 L1897.67 1329.79 L1900.2 1331.25 L1902.73 1332.69 L1905.26 1334.09 L1907.78 1335.46 L1910.31 1336.81 
  L1912.84 1338.13 L1915.37 1339.42 L1917.9 1340.69 L1920.43 1341.92 L1922.95 1343.13 L1925.48 1344.32 L1928.01 1345.48 L1930.54 1346.62 L1933.07 1347.73 L1935.6 1348.82 
  L1938.12 1349.88 L1940.65 1350.92 L1943.18 1351.94 L1945.71 1352.93 L1948.24 1353.9 L1950.76 1354.85 L1953.29 1355.78 L1955.82 1356.69 L1958.35 1357.58 L1960.88 1358.45 
  L1963.41 1359.29 L1965.93 1360.12 L1968.46 1360.93 L1970.99 1361.72 L1973.52 1362.49 L1976.05 1363.25 L1978.58 1363.98 L1981.1 1364.7 L1983.63 1365.4 L1986.16 1366.09 
  L1988.69 1366.76 L1991.22 1367.41 L1993.74 1368.04 L1996.27 1368.66 L1998.8 1369.27 L2001.33 1369.86 L2003.86 1370.44 L2006.39 1371 L2008.91 1371.55 L2011.44 1372.08 
  L2013.97 1372.6 L2016.5 1373.11 L2019.03 1373.6 L2021.56 1374.09 L2024.08 1374.56 L2026.61 1375.01 L2029.14 1375.46 L2031.67 1375.89 L2034.2 1376.32 L2036.73 1376.73 
  L2039.25 1377.13 L2041.78 1377.52 L2044.31 1377.9 L2046.84 1378.27 L2049.37 1378.63 L2051.89 1378.98 L2054.42 1379.32 L2056.95 1379.66 L2059.48 1379.98 L2062.01 1380.29 
  L2064.54 1380.6 L2067.06 1380.9 L2069.59 1381.19 L2072.12 1381.47 L2074.65 1381.74 L2077.18 1382.01 L2079.71 1382.26 L2082.23 1382.52 L2084.76 1382.76 L2087.29 1383 
  L2089.82 1383.23 L2092.35 1383.45 L2094.87 1383.67 L2097.4 1383.88 L2099.93 1384.09 L2102.46 1384.29 L2104.99 1384.48 L2107.52 1384.67 L2110.04 1384.85 L2112.57 1385.03 
  L2115.1 1385.2 L2117.63 1385.36 L2120.16 1385.53 L2122.69 1385.68 L2125.21 1385.84 L2127.74 1385.98 L2130.27 1386.13 L2132.8 1386.27 L2135.33 1386.4 L2137.85 1386.53 
  L2140.38 1386.66 L2142.91 1386.78 L2145.44 1386.9 L2147.97 1387.02 L2150.5 1387.13 L2153.02 1387.24 L2155.55 1387.34 L2158.08 1387.44 L2160.61 1387.54 L2163.14 1387.64 
  L2165.67 1387.73 L2168.19 1387.82 L2170.72 1387.9 L2173.25 1387.99 L2175.78 1388.07 L2178.31 1388.15 L2180.84 1388.22 L2183.36 1388.3 L2185.89 1388.37 L2188.42 1388.44 
  L2190.95 1388.51 L2193.48 1388.57 L2196 1388.63 L2198.53 1388.69 L2201.06 1388.75 L2203.59 1388.81 L2206.12 1388.86 L2208.65 1388.91 L2211.17 1388.97 L2213.7 1389.01 
  L2216.23 1389.06 L2218.76 1389.11 L2221.29 1389.15 L2223.82 1389.2 L2226.34 1389.24 L2228.87 1389.28 L2231.4 1389.32 L2233.93 1389.35 L2236.46 1389.39 L2238.98 1389.42 
  L2241.51 1389.46 L2244.04 1389.49 L2246.57 1389.52 L2249.1 1389.55 L2251.63 1389.58 L2254.15 1389.61 L2256.68 1389.64 L2259.21 1389.66 L2261.74 1389.69 L2264.27 1389.71 
  L2266.8 1389.74 L2269.32 1389.76 L2271.85 1389.78 L2274.38 1389.8 L2276.91 1389.82 L2279.44 1389.84 L2281.97 1389.86 L2284.49 1389.88 L2287.02 1389.9 L2289.55 1389.91 
  L2292.08 1389.93 L2292.08 1390.33 L2289.55 1390.33 L2287.02 1390.33 L2284.49 1390.33 L2281.97 1390.33 L2279.44 1390.33 L2276.91 1390.33 L2274.38 1390.33 L2271.85 1390.33 
  L2269.32 1390.33 L2266.8 1390.33 L2264.27 1390.33 L2261.74 1390.33 L2259.21 1390.33 L2256.68 1390.33 L2254.15 1390.33 L2251.63 1390.33 L2249.1 1390.33 L2246.57 1390.33 
  L2244.04 1390.33 L2241.51 1390.33 L2238.98 1390.33 L2236.46 1390.33 L2233.93 1390.33 L2231.4 1390.33 L2228.87 1390.33 L2226.34 1390.33 L2223.82 1390.33 L2221.29 1390.33 
  L2218.76 1390.33 L2216.23 1390.33 L2213.7 1390.33 L2211.17 1390.33 L2208.65 1390.33 L2206.12 1390.33 L2203.59 1390.33 L2201.06 1390.33 L2198.53 1390.33 L2196 1390.33 
  L2193.48 1390.33 L2190.95 1390.33 L2188.42 1390.33 L2185.89 1390.33 L2183.36 1390.33 L2180.84 1390.33 L2178.31 1390.33 L2175.78 1390.33 L2173.25 1390.33 L2170.72 1390.33 
  L2168.19 1390.33 L2165.67 1390.33 L2163.14 1390.33 L2160.61 1390.33 L2158.08 1390.33 L2155.55 1390.33 L2153.02 1390.33 L2150.5 1390.33 L2147.97 1390.33 L2145.44 1390.33 
  L2142.91 1390.33 L2140.38 1390.33 L2137.85 1390.33 L2135.33 1390.33 L2132.8 1390.33 L2130.27 1390.33 L2127.74 1390.33 L2125.21 1390.33 L2122.69 1390.33 L2120.16 1390.33 
  L2117.63 1390.33 L2115.1 1390.33 L2112.57 1390.33 L2110.04 1390.33 L2107.52 1390.33 L2104.99 1390.33 L2102.46 1390.33 L2099.93 1390.33 L2097.4 1390.33 L2094.87 1390.33 
  L2092.35 1390.33 L2089.82 1390.33 L2087.29 1390.33 L2084.76 1390.33 L2082.23 1390.33 L2079.71 1390.33 L2077.18 1390.33 L2074.65 1390.33 L2072.12 1390.33 L2069.59 1390.33 
  L2067.06 1390.33 L2064.54 1390.33 L2062.01 1390.33 L2059.48 1390.33 L2056.95 1390.33 L2054.42 1390.33 L2051.89 1390.33 L2049.37 1390.33 L2046.84 1390.33 L2044.31 1390.33 
  L2041.78 1390.33 L2039.25 1390.33 L2036.73 1390.33 L2034.2 1390.33 L2031.67 1390.33 L2029.14 1390.33 L2026.61 1390.33 L2024.08 1390.33 L2021.56 1390.33 L2019.03 1390.33 
  L2016.5 1390.33 L2013.97 1390.33 L2011.44 1390.33 L2008.91 1390.33 L2006.39 1390.33 L2003.86 1390.33 L2001.33 1390.33 L1998.8 1390.33 L1996.27 1390.33 L1993.74 1390.33 
  L1991.22 1390.33 L1988.69 1390.33 L1986.16 1390.33 L1983.63 1390.33 L1981.1 1390.33 L1978.58 1390.33 L1976.05 1390.33 L1973.52 1390.33 L1970.99 1390.33 L1968.46 1390.33 
  L1965.93 1390.33 L1963.41 1390.33 L1960.88 1390.33 L1958.35 1390.33 L1955.82 1390.33 L1953.29 1390.33 L1950.76 1390.33 L1948.24 1390.33 L1945.71 1390.33 L1943.18 1390.33 
  L1940.65 1390.33 L1938.12 1390.33 L1935.6 1390.33 L1933.07 1390.33 L1930.54 1390.33 L1928.01 1390.33 L1925.48 1390.33 L1922.95 1390.33 L1920.43 1390.33 L1917.9 1390.33 
  L1915.37 1390.33 L1912.84 1390.33 L1910.31 1390.33 L1907.78 1390.33 L1905.26 1390.33 L1902.73 1390.33 L1900.2 1390.33 L1897.67 1390.33 L1895.14 1390.33 L1892.62 1390.33 
  L1890.09 1390.33 L1887.56 1390.33 L1885.03 1390.33 L1882.5 1390.33 L1879.97 1390.33 L1877.45 1390.33 L1874.92 1390.33 L1872.39 1390.33 L1869.86 1390.33 L1867.33 1390.33 
  L1864.8 1390.33 L1862.28 1390.33 L1859.75 1390.33 L1857.22 1390.33 L1854.69 1390.33 L1852.16 1390.33 L1849.63 1390.33 L1847.11 1390.33 L1844.58 1390.33 L1842.05 1390.33 
  L1839.52 1390.33 L1836.99 1390.33 L1834.47 1390.33 L1831.94 1390.33 L1829.41 1390.33 L1826.88 1390.33 L1824.35 1390.33 L1821.82 1390.33 L1819.3 1390.33 L1816.77 1390.33 
  L1814.24 1390.33 L1811.71 1390.33 L1809.18 1390.33 L1806.65 1390.33 L1804.13 1390.33 L1801.6 1390.33 L1799.07 1390.33 L1796.54 1390.33 L1794.01 1390.33 L1791.49 1390.33 
  L1788.96 1390.33 L1786.43 1390.33 L1783.9 1390.33 L1781.37 1390.33 L1778.84 1390.33 L1776.32 1390.33 L1773.79 1390.33 L1771.26 1390.33 L1768.73 1390.33 L1766.2 1390.33 
  L1763.67 1390.33 L1761.15 1390.33 L1758.62 1390.33 L1756.09 1390.33 L1753.56 1390.33 L1751.03 1390.33 L1748.5 1390.33 L1745.98 1390.33 L1743.45 1390.33 L1740.92 1390.33 
  L1738.39 1390.33 L1735.86 1390.33 L1733.34 1390.33 L1730.81 1390.33 L1728.28 1390.33 L1725.75 1390.33 L1723.22 1390.33 L1720.69 1390.33 L1718.17 1390.33 L1715.64 1390.33 
  L1713.11 1390.33 L1710.58 1390.33 L1708.05 1390.33 L1705.52 1390.33 L1703 1390.33 L1700.47 1390.33 L1697.94 1390.33 L1695.41 1390.33 L1692.88 1390.33 L1690.36 1390.33 
  L1687.83 1390.33 L1685.3 1390.33  Z
  " fill="#339f2c" fill-rule="evenodd" fill-opacity="0.5"/>
<polyline clip-path="url(#clip732)" style="stroke:#339f2c; stroke-linecap:round; stroke-linejoin:round; stroke-width:16; stroke-opacity:1; fill:none" points="
  1685.3,1060.01 1687.83,1065.27 1690.36,1070.48 1692.88,1075.64 1695.41,1080.74 1697.94,1085.79 1700.47,1090.79 1703,1095.74 1705.52,1100.63 1708.05,1105.47 
  1710.58,1110.26 1713.11,1114.99 1715.64,1119.67 1718.17,1124.3 1720.69,1128.88 1723.22,1133.4 1725.75,1137.87 1728.28,1142.29 1730.81,1146.65 1733.34,1150.96 
  1735.86,1155.22 1738.39,1159.43 1740.92,1163.58 1743.45,1167.68 1745.98,1171.73 1748.5,1175.72 1751.03,1179.67 1753.56,1183.56 1756.09,1187.4 1758.62,1191.19 
  1761.15,1194.93 1763.67,1198.62 1766.2,1202.25 1768.73,1205.84 1771.26,1209.37 1773.79,1212.86 1776.32,1216.3 1778.84,1219.68 1781.37,1223.02 1783.9,1226.31 
  1786.43,1229.55 1788.96,1232.74 1791.49,1235.88 1794.01,1238.98 1796.54,1242.03 1799.07,1245.03 1801.6,1247.98 1804.13,1250.89 1806.65,1253.76 1809.18,1256.58 
  1811.71,1259.35 1814.24,1262.08 1816.77,1264.76 1819.3,1267.4 1821.82,1270 1824.35,1272.55 1826.88,1275.06 1829.41,1277.53 1831.94,1279.96 1834.47,1282.34 
  1836.99,1284.69 1839.52,1286.99 1842.05,1289.25 1844.58,1291.48 1847.11,1293.66 1849.63,1295.81 1852.16,1297.92 1854.69,1299.99 1857.22,1302.02 1859.75,1304.01 
  1862.28,1305.97 1864.8,1307.89 1867.33,1309.78 1869.86,1311.63 1872.39,1313.45 1874.92,1315.23 1877.45,1316.98 1879.97,1318.69 1882.5,1320.37 1885.03,1322.02 
  1887.56,1323.64 1890.09,1325.22 1892.62,1326.78 1895.14,1328.3 1897.67,1329.79 1900.2,1331.25 1902.73,1332.69 1905.26,1334.09 1907.78,1335.46 1910.31,1336.81 
  1912.84,1338.13 1915.37,1339.42 1917.9,1340.69 1920.43,1341.92 1922.95,1343.13 1925.48,1344.32 1928.01,1345.48 1930.54,1346.62 1933.07,1347.73 1935.6,1348.82 
  1938.12,1349.88 1940.65,1350.92 1943.18,1351.94 1945.71,1352.93 1948.24,1353.9 1950.76,1354.85 1953.29,1355.78 1955.82,1356.69 1958.35,1357.58 1960.88,1358.45 
  1963.41,1359.29 1965.93,1360.12 1968.46,1360.93 1970.99,1361.72 1973.52,1362.49 1976.05,1363.25 1978.58,1363.98 1981.1,1364.7 1983.63,1365.4 1986.16,1366.09 
  1988.69,1366.76 1991.22,1367.41 1993.74,1368.04 1996.27,1368.66 1998.8,1369.27 2001.33,1369.86 2003.86,1370.44 2006.39,1371 2008.91,1371.55 2011.44,1372.08 
  2013.97,1372.6 2016.5,1373.11 2019.03,1373.6 2021.56,1374.09 2024.08,1374.56 2026.61,1375.01 2029.14,1375.46 2031.67,1375.89 2034.2,1376.32 2036.73,1376.73 
  2039.25,1377.13 2041.78,1377.52 2044.31,1377.9 2046.84,1378.27 2049.37,1378.63 2051.89,1378.98 2054.42,1379.32 2056.95,1379.66 2059.48,1379.98 2062.01,1380.29 
  2064.54,1380.6 2067.06,1380.9 2069.59,1381.19 2072.12,1381.47 2074.65,1381.74 2077.18,1382.01 2079.71,1382.26 2082.23,1382.52 2084.76,1382.76 2087.29,1383 
  2089.82,1383.23 2092.35,1383.45 2094.87,1383.67 2097.4,1383.88 2099.93,1384.09 2102.46,1384.29 2104.99,1384.48 2107.52,1384.67 2110.04,1384.85 2112.57,1385.03 
  2115.1,1385.2 2117.63,1385.36 2120.16,1385.53 2122.69,1385.68 2125.21,1385.84 2127.74,1385.98 2130.27,1386.13 2132.8,1386.27 2135.33,1386.4 2137.85,1386.53 
  2140.38,1386.66 2142.91,1386.78 2145.44,1386.9 2147.97,1387.02 2150.5,1387.13 2153.02,1387.24 2155.55,1387.34 2158.08,1387.44 2160.61,1387.54 2163.14,1387.64 
  2165.67,1387.73 2168.19,1387.82 2170.72,1387.9 2173.25,1387.99 2175.78,1388.07 2178.31,1388.15 2180.84,1388.22 2183.36,1388.3 2185.89,1388.37 2188.42,1388.44 
  2190.95,1388.51 2193.48,1388.57 2196,1388.63 2198.53,1388.69 2201.06,1388.75 2203.59,1388.81 2206.12,1388.86 2208.65,1388.91 2211.17,1388.97 2213.7,1389.01 
  2216.23,1389.06 2218.76,1389.11 2221.29,1389.15 2223.82,1389.2 2226.34,1389.24 2228.87,1389.28 2231.4,1389.32 2233.93,1389.35 2236.46,1389.39 2238.98,1389.42 
  2241.51,1389.46 2244.04,1389.49 2246.57,1389.52 2249.1,1389.55 2251.63,1389.58 2254.15,1389.61 2256.68,1389.64 2259.21,1389.66 2261.74,1389.69 2264.27,1389.71 
  2266.8,1389.74 2269.32,1389.76 2271.85,1389.78 2274.38,1389.8 2276.91,1389.82 2279.44,1389.84 2281.97,1389.86 2284.49,1389.88 2287.02,1389.9 2289.55,1389.91 
  2292.08,1389.93 
  "/>
<polyline clip-path="url(#clip732)" style="stroke:#339f2c; stroke-linecap:round; stroke-linejoin:round; stroke-width:16; stroke-opacity:1; fill:none" points="
  269.481,1389.93 272.009,1389.91 274.537,1389.9 277.065,1389.88 279.594,1389.86 282.122,1389.84 284.65,1389.82 287.178,1389.8 289.707,1389.78 292.235,1389.76 
  294.763,1389.74 297.291,1389.71 299.82,1389.69 302.348,1389.66 304.876,1389.64 307.404,1389.61 309.933,1389.58 312.461,1389.55 314.989,1389.52 317.517,1389.49 
  320.046,1389.46 322.574,1389.42 325.102,1389.39 327.63,1389.35 330.159,1389.32 332.687,1389.28 335.215,1389.24 337.743,1389.2 340.272,1389.15 342.8,1389.11 
  345.328,1389.06 347.856,1389.01 350.385,1388.97 352.913,1388.91 355.441,1388.86 357.969,1388.81 360.498,1388.75 363.026,1388.69 365.554,1388.63 368.082,1388.57 
  370.611,1388.51 373.139,1388.44 375.667,1388.37 378.195,1388.3 380.724,1388.22 383.252,1388.15 385.78,1388.07 388.308,1387.99 390.837,1387.9 393.365,1387.82 
  395.893,1387.73 398.421,1387.64 400.95,1387.54 403.478,1387.44 406.006,1387.34 408.534,1387.24 411.063,1387.13 413.591,1387.02 416.119,1386.9 418.647,1386.78 
  421.176,1386.66 423.704,1386.53 426.232,1386.4 428.76,1386.27 431.289,1386.13 433.817,1385.98 436.345,1385.84 438.873,1385.68 441.402,1385.53 443.93,1385.36 
  446.458,1385.2 448.986,1385.03 451.514,1384.85 454.043,1384.67 456.571,1384.48 459.099,1384.29 461.627,1384.09 464.156,1383.88 466.684,1383.67 469.212,1383.45 
  471.74,1383.23 474.269,1383 476.797,1382.76 479.325,1382.52 481.853,1382.26 484.382,1382.01 486.91,1381.74 489.438,1381.47 491.966,1381.19 494.495,1380.9 
  497.023,1380.6 499.551,1380.29 502.079,1379.98 504.608,1379.66 507.136,1379.32 509.664,1378.98 512.192,1378.63 514.721,1378.27 517.249,1377.9 519.777,1377.52 
  522.305,1377.13 524.834,1376.73 527.362,1376.32 529.89,1375.89 532.418,1375.46 534.947,1375.01 537.475,1374.56 540.003,1374.09 542.531,1373.6 545.06,1373.11 
  547.588,1372.6 550.116,1372.08 552.644,1371.55 555.173,1371 557.701,1370.44 560.229,1369.86 562.757,1369.27 565.286,1368.66 567.814,1368.04 570.342,1367.41 
  572.87,1366.76 575.399,1366.09 577.927,1365.4 580.455,1364.7 582.983,1363.98 585.512,1363.25 588.04,1362.49 590.568,1361.72 593.096,1360.93 595.625,1360.12 
  598.153,1359.29 600.681,1358.45 603.209,1357.58 605.738,1356.69 608.266,1355.78 610.794,1354.85 613.322,1353.9 615.851,1352.93 618.379,1351.94 620.907,1350.92 
  623.435,1349.88 625.963,1348.82 628.492,1347.73 631.02,1346.62 633.548,1345.48 636.076,1344.32 638.605,1343.13 641.133,1341.92 643.661,1340.69 646.189,1339.42 
  648.718,1338.13 651.246,1336.81 653.774,1335.46 656.302,1334.09 658.831,1332.69 661.359,1331.25 663.887,1329.79 666.415,1328.3 668.944,1326.78 671.472,1325.22 
  674,1323.64 676.528,1322.02 679.057,1320.37 681.585,1318.69 684.113,1316.98 686.641,1315.23 689.17,1313.45 691.698,1311.63 694.226,1309.78 696.754,1307.89 
  699.283,1305.97 701.811,1304.01 704.339,1302.02 706.867,1299.99 709.396,1297.92 711.924,1295.81 714.452,1293.66 716.98,1291.48 719.509,1289.25 722.037,1286.99 
  724.565,1284.69 727.093,1282.34 729.622,1279.96 732.15,1277.53 734.678,1275.06 737.206,1272.55 739.735,1270 742.263,1267.4 744.791,1264.76 747.319,1262.08 
  749.848,1259.35 752.376,1256.58 754.904,1253.76 757.432,1250.89 759.961,1247.98 762.489,1245.03 765.017,1242.03 767.545,1238.98 770.074,1235.88 772.602,1232.74 
  775.13,1229.55 777.658,1226.31 780.187,1223.02 782.715,1219.68 785.243,1216.3 787.771,1212.86 790.3,1209.37 792.828,1205.84 795.356,1202.25 797.884,1198.62 
  800.413,1194.93 802.941,1191.19 805.469,1187.4 807.997,1183.56 810.525,1179.67 813.054,1175.72 815.582,1171.73 818.11,1167.68 820.638,1163.58 823.167,1159.43 
  825.695,1155.22 828.223,1150.96 830.751,1146.65 833.28,1142.29 835.808,1137.87 838.336,1133.4 840.864,1128.88 843.393,1124.3 845.921,1119.67 848.449,1114.99 
  850.977,1110.26 853.506,1105.47 856.034,1100.63 858.562,1095.74 861.09,1090.79 863.619,1085.79 866.147,1080.74 868.675,1075.64 871.203,1070.48 873.732,1065.27 
  876.26,1060.01 878.788,1054.7 881.316,1049.34 883.845,1043.93 886.373,1038.47 888.901,1032.95 891.429,1027.39 893.958,1021.77 896.486,1016.11 899.014,1010.4 
  901.542,1004.64 904.071,998.826 906.599,992.969 909.127,987.064 911.655,981.113 914.184,975.116 916.712,969.072 919.24,962.984 921.768,956.85 924.297,950.673 
  926.825,944.452 929.353,938.189 931.881,931.883 934.41,925.536 936.938,919.148 939.466,912.72 941.994,906.253 944.523,899.747 947.051,893.204 949.579,886.623 
  952.107,880.007 954.636,873.355 957.164,866.669 959.692,859.95 962.22,853.198 964.749,846.415 967.277,839.601 969.805,832.757 972.333,825.885 974.862,818.985 
  977.39,812.059 979.918,805.107 982.446,798.131 984.975,791.131 987.503,784.11 990.031,777.067 992.559,770.005 995.087,762.924 997.616,755.826 1000.14,748.712 
  1002.67,741.583 1005.2,734.44 1007.73,727.285 1010.26,720.119 1012.79,712.943 1015.31,705.759 1017.84,698.567 1020.37,691.371 1022.9,684.169 1025.43,676.965 
  1027.95,669.76 1030.48,662.555 1033.01,655.351 1035.54,648.15 1038.07,640.953 1040.6,633.762 1043.12,626.579 1045.65,619.404 1048.18,612.24 1050.71,605.088 
  1053.24,597.949 1055.77,590.825 1058.29,583.718 1060.82,576.63 1063.35,569.561 1065.88,562.513 1068.41,555.488 1070.93,548.488 1073.46,541.514 1075.99,534.568 
  1078.52,527.652 1081.05,520.766 1083.58,513.913 1086.1,507.094 1088.63,500.312 1091.16,493.567 1093.69,486.861 1096.22,480.196 1098.75,473.574 1101.27,466.995 
  1103.8,460.463 1106.33,453.978 1108.86,447.542 1111.39,441.156 1113.92,434.823 1116.44,428.544 1118.97,422.321 1121.5,416.154 1124.03,410.047 1126.56,403.999 
  1129.08,398.014 1131.61,392.092 1134.14,386.235 1136.67,380.445 1139.2,374.723 1141.73,369.071 1144.25,363.49 1146.78,357.982 1149.31,352.548 1151.84,347.189 
  1154.37,341.908 1156.9,336.705 1159.42,331.583 1161.95,326.542 1164.48,321.584 1167.01,316.71 1169.54,311.922 1172.06,307.22 1174.59,302.607 1177.12,298.084 
  1179.65,293.651 1182.18,289.311 1184.71,285.064 1187.23,280.911 1189.76,276.855 1192.29,272.895 1194.82,269.033 1197.35,265.27 1199.88,261.608 1202.4,258.047 
  1204.93,254.588 1207.46,251.233 1209.99,247.982 1212.52,244.836 1215.04,241.796 1217.57,238.864 1220.1,236.039 1222.63,233.324 1225.16,230.717 1227.69,228.222 
  1230.21,225.837 1232.74,223.564 1235.27,221.403 1237.8,219.356 1240.33,217.422 1242.86,215.603 1245.38,213.898 1247.91,212.309 1250.44,210.836 1252.97,209.478 
  1255.5,208.238 1258.03,207.114 1260.55,206.108 1263.08,205.22 1265.61,204.449 1268.14,203.797 1270.67,203.263 1273.19,202.847 1275.72,202.55 1278.25,202.372 
  1280.78,202.313 1283.31,202.372 1285.84,202.55 1288.36,202.847 1290.89,203.263 1293.42,203.797 1295.95,204.449 1298.48,205.22 1301.01,206.108 1303.53,207.114 
  1306.06,208.238 1308.59,209.478 1311.12,210.836 1313.65,212.309 1316.17,213.898 1318.7,215.603 1321.23,217.422 1323.76,219.356 1326.29,221.403 1328.82,223.564 
  1331.34,225.837 1333.87,228.222 1336.4,230.717 1338.93,233.324 1341.46,236.039 1343.99,238.864 1346.51,241.796 1349.04,244.836 1351.57,247.982 1354.1,251.233 
  1356.63,254.588 1359.16,258.047 1361.68,261.608 1364.21,265.27 1366.74,269.033 1369.27,272.895 1371.8,276.855 1374.32,280.911 1376.85,285.064 1379.38,289.311 
  1381.91,293.651 1384.44,298.084 1386.97,302.607 1389.49,307.22 1392.02,311.922 1394.55,316.71 1397.08,321.584 1399.61,326.542 1402.14,331.583 1404.66,336.705 
  1407.19,341.908 1409.72,347.189 1412.25,352.548 1414.78,357.982 1417.3,363.49 1419.83,369.071 1422.36,374.723 1424.89,380.445 1427.42,386.235 1429.95,392.092 
  1432.47,398.014 1435,403.999 1437.53,410.047 1440.06,416.154 1442.59,422.321 1445.12,428.544 1447.64,434.823 1450.17,441.156 1452.7,447.542 1455.23,453.978 
  1457.76,460.463 1460.28,466.995 1462.81,473.574 1465.34,480.196 1467.87,486.861 1470.4,493.567 1472.93,500.312 1475.45,507.094 1477.98,513.913 1480.51,520.766 
  1483.04,527.652 1485.57,534.568 1488.1,541.514 1490.62,548.488 1493.15,555.488 1495.68,562.513 1498.21,569.561 1500.74,576.63 1503.27,583.718 1505.79,590.825 
  1508.32,597.949 1510.85,605.088 1513.38,612.24 1515.91,619.404 1518.43,626.579 1520.96,633.762 1523.49,640.953 1526.02,648.15 1528.55,655.351 1531.08,662.555 
  1533.6,669.76 1536.13,676.965 1538.66,684.169 1541.19,691.371 1543.72,698.567 1546.25,705.759 1548.77,712.943 1551.3,720.119 1553.83,727.285 1556.36,734.44 
  1558.89,741.583 1561.41,748.712 1563.94,755.826 1566.47,762.924 1569,770.005 1571.53,777.067 1574.06,784.11 1576.58,791.131 1579.11,798.131 1581.64,805.107 
  1584.17,812.059 1586.7,818.985 1589.23,825.885 1591.75,832.757 1594.28,839.601 1596.81,846.415 1599.34,853.198 1601.87,859.95 1604.39,866.669 1606.92,873.355 
  1609.45,880.007 1611.98,886.623 1614.51,893.204 1617.04,899.747 1619.56,906.253 1622.09,912.72 1624.62,919.148 1627.15,925.536 1629.68,931.883 1632.21,938.189 
  1634.73,944.452 1637.26,950.673 1639.79,956.85 1642.32,962.984 1644.85,969.072 1647.38,975.116 1649.9,981.113 1652.43,987.064 1654.96,992.969 1657.49,998.826 
  1660.02,1004.64 1662.54,1010.4 1665.07,1016.11 1667.6,1021.77 1670.13,1027.39 1672.66,1032.95 1675.19,1038.47 1677.71,1043.93 1680.24,1049.34 1682.77,1054.7 
  1685.3,1060.01 1687.83,1065.27 1690.36,1070.48 1692.88,1075.64 1695.41,1080.74 1697.94,1085.79 1700.47,1090.79 1703,1095.74 1705.52,1100.63 1708.05,1105.47 
  1710.58,1110.26 1713.11,1114.99 1715.64,1119.67 1718.17,1124.3 1720.69,1128.88 1723.22,1133.4 1725.75,1137.87 1728.28,1142.29 1730.81,1146.65 1733.34,1150.96 
  1735.86,1155.22 1738.39,1159.43 1740.92,1163.58 1743.45,1167.68 1745.98,1171.73 1748.5,1175.72 1751.03,1179.67 1753.56,1183.56 1756.09,1187.4 1758.62,1191.19 
  1761.15,1194.93 1763.67,1198.62 1766.2,1202.25 1768.73,1205.84 1771.26,1209.37 1773.79,1212.86 1776.32,1216.3 1778.84,1219.68 1781.37,1223.02 1783.9,1226.31 
  1786.43,1229.55 1788.96,1232.74 1791.49,1235.88 1794.01,1238.98 1796.54,1242.03 1799.07,1245.03 1801.6,1247.98 1804.13,1250.89 1806.65,1253.76 1809.18,1256.58 
  1811.71,1259.35 1814.24,1262.08 1816.77,1264.76 1819.3,1267.4 1821.82,1270 1824.35,1272.55 1826.88,1275.06 1829.41,1277.53 1831.94,1279.96 1834.47,1282.34 
  1836.99,1284.69 1839.52,1286.99 1842.05,1289.25 1844.58,1291.48 1847.11,1293.66 1849.63,1295.81 1852.16,1297.92 1854.69,1299.99 1857.22,1302.02 1859.75,1304.01 
  1862.28,1305.97 1864.8,1307.89 1867.33,1309.78 1869.86,1311.63 1872.39,1313.45 1874.92,1315.23 1877.45,1316.98 1879.97,1318.69 1882.5,1320.37 1885.03,1322.02 
  1887.56,1323.64 1890.09,1325.22 1892.62,1326.78 1895.14,1328.3 1897.67,1329.79 1900.2,1331.25 1902.73,1332.69 1905.26,1334.09 1907.78,1335.46 1910.31,1336.81 
  1912.84,1338.13 1915.37,1339.42 1917.9,1340.69 1920.43,1341.92 1922.95,1343.13 1925.48,1344.32 1928.01,1345.48 1930.54,1346.62 1933.07,1347.73 1935.6,1348.82 
  1938.12,1349.88 1940.65,1350.92 1943.18,1351.94 1945.71,1352.93 1948.24,1353.9 1950.76,1354.85 1953.29,1355.78 1955.82,1356.69 1958.35,1357.58 1960.88,1358.45 
  1963.41,1359.29 1965.93,1360.12 1968.46,1360.93 1970.99,1361.72 1973.52,1362.49 1976.05,1363.25 1978.58,1363.98 1981.1,1364.7 1983.63,1365.4 1986.16,1366.09 
  1988.69,1366.76 1991.22,1367.41 1993.74,1368.04 1996.27,1368.66 1998.8,1369.27 2001.33,1369.86 2003.86,1370.44 2006.39,1371 2008.91,1371.55 2011.44,1372.08 
  2013.97,1372.6 2016.5,1373.11 2019.03,1373.6 2021.56,1374.09 2024.08,1374.56 2026.61,1375.01 2029.14,1375.46 2031.67,1375.89 2034.2,1376.32 2036.73,1376.73 
  2039.25,1377.13 2041.78,1377.52 2044.31,1377.9 2046.84,1378.27 2049.37,1378.63 2051.89,1378.98 2054.42,1379.32 2056.95,1379.66 2059.48,1379.98 2062.01,1380.29 
  2064.54,1380.6 2067.06,1380.9 2069.59,1381.19 2072.12,1381.47 2074.65,1381.74 2077.18,1382.01 2079.71,1382.26 2082.23,1382.52 2084.76,1382.76 2087.29,1383 
  2089.82,1383.23 2092.35,1383.45 2094.87,1383.67 2097.4,1383.88 2099.93,1384.09 2102.46,1384.29 2104.99,1384.48 2107.52,1384.67 2110.04,1384.85 2112.57,1385.03 
  2115.1,1385.2 2117.63,1385.36 2120.16,1385.53 2122.69,1385.68 2125.21,1385.84 2127.74,1385.98 2130.27,1386.13 2132.8,1386.27 2135.33,1386.4 2137.85,1386.53 
  2140.38,1386.66 2142.91,1386.78 2145.44,1386.9 2147.97,1387.02 2150.5,1387.13 2153.02,1387.24 2155.55,1387.34 2158.08,1387.44 2160.61,1387.54 2163.14,1387.64 
  2165.67,1387.73 2168.19,1387.82 2170.72,1387.9 2173.25,1387.99 2175.78,1388.07 2178.31,1388.15 2180.84,1388.22 2183.36,1388.3 2185.89,1388.37 2188.42,1388.44 
  2190.95,1388.51 2193.48,1388.57 2196,1388.63 2198.53,1388.69 2201.06,1388.75 2203.59,1388.81 2206.12,1388.86 2208.65,1388.91 2211.17,1388.97 2213.7,1389.01 
  2216.23,1389.06 2218.76,1389.11 2221.29,1389.15 2223.82,1389.2 2226.34,1389.24 2228.87,1389.28 2231.4,1389.32 2233.93,1389.35 2236.46,1389.39 2238.98,1389.42 
  2241.51,1389.46 2244.04,1389.49 2246.57,1389.52 2249.1,1389.55 2251.63,1389.58 2254.15,1389.61 2256.68,1389.64 2259.21,1389.66 2261.74,1389.69 2264.27,1389.71 
  2266.8,1389.74 2269.32,1389.76 2271.85,1389.78 2274.38,1389.8 2276.91,1389.82 2279.44,1389.84 2281.97,1389.86 2284.49,1389.88 2287.02,1389.9 2289.55,1389.91 
  2292.08,1389.93 
  "/>
<path clip-path="url(#clip730)" d="M801.119 1492.5 Q802.383 1493.76 802.383 1495.55 Q802.383 1497.35 801.119 1498.61 Q799.854 1499.88 798.062 1499.88 L662.938 1499.88 Q661.146 1499.88 659.881 1498.61 Q658.616 1497.35 658.616 1495.55 Q658.616 1493.76 659.881 1492.5 Q661.146 1491.23 662.938 1491.23 L798.062 1491.23 Q799.854 1491.23 801.119 1492.5 Z" fill="#000000" fill-rule="evenodd" fill-opacity="1" /><path clip-path="url(#clip730)" d="M916.403 1456.24 Q916.403 1456.98 914.611 1460.14 Q912.924 1463.2 906.706 1470.89 Q900.487 1478.58 891.212 1487.54 Q887.733 1491.02 882.463 1495.87 Q877.193 1500.72 873.61 1503.88 L870.026 1507.04 Q856.324 1518.64 844.308 1531.6 Q845.151 1531.28 846.627 1531.18 Q848.103 1530.97 849.157 1530.97 L850.211 1530.97 Q855.692 1530.97 865.283 1534.66 Q873.715 1537.4 878.037 1537.4 Q882.253 1537.4 886.89 1535.92 Q891.528 1534.45 896.587 1530.13 Q901.646 1525.8 903.965 1519.27 Q904.387 1518.22 904.598 1517.9 Q904.808 1517.48 905.441 1517.06 Q906.073 1516.53 906.916 1516.53 Q908.076 1516.53 908.814 1517.16 Q909.551 1517.79 909.551 1518.64 Q909.551 1520.53 908.076 1524.33 Q906.706 1528.12 903.649 1532.87 Q900.698 1537.61 896.798 1541.93 Q893.003 1546.15 887.312 1549.1 Q881.62 1551.94 875.612 1551.94 Q871.291 1551.94 868.129 1549.84 Q864.967 1547.83 861.805 1543.93 Q857.483 1538.98 855.165 1537.4 Q852.846 1535.71 849.262 1535.71 Q839.671 1535.71 830.922 1549.1 Q829.974 1550.99 829.341 1551.42 Q828.814 1551.94 827.549 1551.94 Q824.914 1551.84 824.914 1549.73 Q824.914 1548.89 827.233 1545.2 Q829.657 1541.4 835.033 1534.76 Q840.514 1528.12 847.154 1521.48 L866.548 1503.35 Q888.05 1485.22 896.587 1475 Q893.003 1475 891.422 1474.9 Q889.947 1474.79 886.996 1474.16 Q884.044 1473.42 879.934 1471.84 Q870.342 1468.57 866.337 1468.57 Q865.283 1468.57 864.124 1468.68 Q862.964 1468.78 860.329 1469.31 Q857.8 1469.84 855.692 1470.89 Q853.584 1471.84 851.37 1473.95 Q849.157 1475.95 847.997 1478.69 Q847.681 1479.53 847.47 1479.95 Q847.259 1480.38 846.627 1480.8 Q846.1 1481.11 845.257 1481.11 Q843.992 1481.11 843.254 1480.38 Q842.622 1479.64 842.622 1478.69 Q842.622 1476.79 844.519 1472.89 Q846.416 1468.99 849.578 1464.78 Q852.74 1460.46 857.905 1457.29 Q863.07 1454.13 868.761 1454.13 Q872.134 1454.13 874.98 1455.61 Q877.931 1457.08 879.407 1458.66 Q880.988 1460.14 883.623 1463.41 Q885.836 1465.94 886.89 1466.99 Q887.944 1468.04 890.052 1469.2 Q892.266 1470.26 894.69 1470.26 Q898.695 1470.26 902.384 1467.2 Q906.073 1464.04 910.816 1456.45 Q912.081 1454.13 914.084 1454.13 Q916.403 1454.13 916.403 1456.24 Z" fill="#000000" fill-rule="evenodd" fill-opacity="1" /><path clip-path="url(#clip730)" d="M1725.44 1456.24 Q1725.44 1456.98 1723.65 1460.14 Q1721.96 1463.2 1715.74 1470.89 Q1709.53 1478.58 1700.25 1487.54 Q1696.77 1491.02 1691.5 1495.87 Q1686.23 1500.72 1682.65 1503.88 L1679.06 1507.04 Q1665.36 1518.64 1653.35 1531.6 Q1654.19 1531.28 1655.67 1531.18 Q1657.14 1530.97 1658.2 1530.97 L1659.25 1530.97 Q1664.73 1530.97 1674.32 1534.66 Q1682.75 1537.4 1687.08 1537.4 Q1691.29 1537.4 1695.93 1535.92 Q1700.57 1534.45 1705.63 1530.13 Q1710.69 1525.8 1713 1519.27 Q1713.43 1518.22 1713.64 1517.9 Q1713.85 1517.48 1714.48 1517.06 Q1715.11 1516.53 1715.96 1516.53 Q1717.11 1516.53 1717.85 1517.16 Q1718.59 1517.79 1718.59 1518.64 Q1718.59 1520.53 1717.11 1524.33 Q1715.74 1528.12 1712.69 1532.87 Q1709.74 1537.61 1705.84 1541.93 Q1702.04 1546.15 1696.35 1549.1 Q1690.66 1551.94 1684.65 1551.94 Q1680.33 1551.94 1677.17 1549.84 Q1674.01 1547.83 1670.84 1543.93 Q1666.52 1538.98 1664.2 1537.4 Q1661.88 1535.71 1658.3 1535.71 Q1648.71 1535.71 1639.96 1549.1 Q1639.01 1550.99 1638.38 1551.42 Q1637.85 1551.94 1636.59 1551.94 Q1633.95 1551.84 1633.95 1549.73 Q1633.95 1548.89 1636.27 1545.2 Q1638.7 1541.4 1644.07 1534.76 Q1649.55 1528.12 1656.19 1521.48 L1675.59 1503.35 Q1697.09 1485.22 1705.63 1475 Q1702.04 1475 1700.46 1474.9 Q1698.99 1474.79 1696.03 1474.16 Q1693.08 1473.42 1688.97 1471.84 Q1679.38 1468.57 1675.38 1468.57 Q1674.32 1468.57 1673.16 1468.68 Q1672 1468.78 1669.37 1469.31 Q1666.84 1469.84 1664.73 1470.89 Q1662.62 1471.84 1660.41 1473.95 Q1658.2 1475.95 1657.04 1478.69 Q1656.72 1479.53 1656.51 1479.95 Q1656.3 1480.38 1655.67 1480.8 Q1655.14 1481.11 1654.3 1481.11 Q1653.03 1481.11 1652.29 1480.38 Q1651.66 1479.64 1651.66 1478.69 Q1651.66 1476.79 1653.56 1472.89 Q1655.46 1468.99 1658.62 1464.78 Q1661.78 1460.46 1666.94 1457.29 Q1672.11 1454.13 1677.8 1454.13 Q1681.17 1454.13 1684.02 1455.61 Q1686.97 1457.08 1688.45 1458.66 Q1690.03 1460.14 1692.66 1463.41 Q1694.88 1465.94 1695.93 1466.99 Q1696.98 1468.04 1699.09 1469.2 Q1701.3 1470.26 1703.73 1470.26 Q1707.73 1470.26 1711.42 1467.2 Q1715.11 1464.04 1719.86 1456.45 Q1721.12 1454.13 1723.12 1454.13 Q1725.44 1454.13 1725.44 1456.24 Z" fill="#000000" fill-rule="evenodd" fill-opacity="1" /></svg>
