<svg class="plot-42561ac689eb6" fill="currentColor" font-family="system-ui, sans-serif" font-size="10" text-anchor="middle" width="640" height="60" viewBox="0 0 640 60" xmlns="http://www.w3.org/2000/svg" xmlns:xlink="http://www.w3.org/1999/xlink"><style>
        .plot-42561ac689eb6 {
          display: block;
          background: white;
          height: auto;
          height: intrinsic;
          max-width: 100%;
        }
        .plot-42561ac689eb6 text,
        .plot-42561ac689eb6 tspan {
          white-space: pre;
        }
      </style><g aria-label="x-axis tick" fill="none" stroke="currentColor"><path transform="translate(20,30)" d="M0,0L0,6"/><path transform="translate(44,30)" d="M0,0L0,6"/><path transform="translate(68,30)" d="M0,0L0,6"/><path transform="translate(92,30)" d="M0,0L0,6"/><path transform="translate(116,30)" d="M0,0L0,6"/><path transform="translate(140,30)" d="M0,0L0,6"/><path transform="translate(163.99999999999997,30)" d="M0,0L0,6"/><path transform="translate(188.00000000000003,30)" d="M0,0L0,6"/><path transform="translate(212,30)" d="M0,0L0,6"/><path transform="translate(236,30)" d="M0,0L0,6"/><path transform="translate(260,30)" d="M0,0L0,6"/><path transform="translate(284,30)" d="M0,0L0,6"/><path transform="translate(307.99999999999994,30)" d="M0,0L0,6"/><path transform="translate(332.00000000000006,30)" d="M0,0L0,6"/><path transform="translate(356.00000000000006,30)" d="M0,0L0,6"/><path transform="translate(380,30)" d="M0,0L0,6"/><path transform="translate(404,30)" d="M0,0L0,6"/><path transform="translate(428,30)" d="M0,0L0,6"/><path transform="translate(452,30)" d="M0,0L0,6"/><path transform="translate(476,30)" d="M0,0L0,6"/><path transform="translate(500,30)" d="M0,0L0,6"/><path transform="translate(524,30)" d="M0,0L0,6"/><path transform="translate(548,30)" d="M0,0L0,6"/><path transform="translate(572,30)" d="M0,0L0,6"/><path transform="translate(595.9999999999999,30)" d="M0,0L0,6"/></g><g aria-label="x-axis tick label" font-variant="tabular-nums" transform="translate(0,9)"><text y="0.71em" transform="translate(20,30)">0</text><text y="0.71em" transform="translate(44,30)">1</text><text y="0.71em" transform="translate(68,30)">2</text><text y="0.71em" transform="translate(92,30)">3</text><text y="0.71em" transform="translate(116,30)">4</text><text y="0.71em" transform="translate(140,30)">5</text><text y="0.71em" transform="translate(163.99999999999997,30)">6</text><text y="0.71em" transform="translate(188.00000000000003,30)">7</text><text y="0.71em" transform="translate(212,30)">8</text><text y="0.71em" transform="translate(236,30)">9</text><text y="0.71em" transform="translate(260,30)">10</text><text y="0.71em" transform="translate(284,30)">11</text><text y="0.71em" transform="translate(307.99999999999994,30)">12</text><text y="0.71em" transform="translate(332.00000000000006,30)">13</text><text y="0.71em" transform="translate(356.00000000000006,30)">14</text><text y="0.71em" transform="translate(380,30)">15</text><text y="0.71em" transform="translate(404,30)">16</text><text y="0.71em" transform="translate(428,30)">17</text><text y="0.71em" transform="translate(452,30)">18</text><text y="0.71em" transform="translate(476,30)">19</text><text y="0.71em" transform="translate(500,30)">20</text><text y="0.71em" transform="translate(524,30)">21</text><text y="0.71em" transform="translate(548,30)">22</text><text y="0.71em" transform="translate(572,30)">23</text><text y="0.71em" transform="translate(595.9999999999999,30)">24</text></g><g aria-label="x-axis label" text-anchor="end" transform="translate(17,27)"><text transform="translate(620,30)">tid på dygnet</text></g><g aria-label="tick" stroke="currentColor"><line x1="60.92983486875896" x2="60.92983486875896" y1="0.5" y2="30"/><line x1="68.03159375675024" x2="68.03159375675024" y1="0.5" y2="30"/><line x1="68.4041662011296" x2="68.4041662011296" y1="0.5" y2="30"/><line x1="75.52622117474672" x2="75.52622117474672" y1="0.5" y2="30"/><line x1="81.9594935961068" x2="81.9594935961068" y1="0.5" y2="30"/><line x1="89.06674818508328" x2="89.06674818508328" y1="0.5" y2="30"/><line x1="90.70114130154248" x2="90.70114130154248" y1="0.5" y2="30"/><line x1="121.31639249064033" x2="121.31639249064033" y1="0.5" y2="30"/><line x1="170.03370649367577" x2="170.03370649367577" y1="0.5" y2="30"/><line x1="214.97219614312067" x2="214.97219614312067" y1="0.5" y2="30"/><line x1="220.98172163963315" x2="220.98172163963315" y1="0.5" y2="30"/><line x1="228.88656617701062" x2="228.88656617701062" y1="0.5" y2="30"/><line x1="346.7774778995672" x2="346.7774778995672" y1="0.5" y2="30"/><line x1="348.1247317735112" x2="348.1247317735112" y1="0.5" y2="30"/><line x1="357.2779394742104" x2="357.2779394742104" y1="0.5" y2="30"/><line x1="378.6767404302944" x2="378.6767404302944" y1="0.5" y2="30"/><line x1="420.9364416133616" x2="420.9364416133616" y1="0.5" y2="30"/><line x1="431.5953357815744" x2="431.5953357815744" y1="0.5" y2="30"/><line x1="432.13882146217037" x2="432.13882146217037" y1="0.5" y2="30"/><line x1="432.246720405296" x2="432.246720405296" y1="0.5" y2="30"/><line x1="432.97498837672157" x2="432.97498837672157" y1="0.5" y2="30"/><line x1="437.0985209066432" x2="437.0985209066432" y1="0.5" y2="30"/><line x1="442.7790288589904" x2="442.7790288589904" y1="0.5" y2="30"/><line x1="445.83615639060804" x2="445.83615639060804" y1="0.5" y2="30"/><line x1="450.8259691409768" x2="450.8259691409768" y1="0.5" y2="30"/><line x1="451.11173997074474" x2="451.11173997074474" y1="0.5" y2="30"/><line x1="463.95519843138794" x2="463.95519843138794" y1="0.5" y2="30"/><line x1="498.609625129028" x2="498.609625129028" y1="0.5" y2="30"/><line x1="532.1150062587103" x2="532.1150062587103" y1="0.5" y2="30"/></g></svg>