<?xml version="1.0" encoding="utf-8"?>
<svg xmlns="http://www.w3.org/2000/svg" xmlns:xlink="http://www.w3.org/1999/xlink" width="600" height="400" viewBox="0 0 2400 1600">
<defs>
  <clipPath id="clip090">
    <rect x="0" y="0" width="2400" height="1600"/>
  </clipPath>
</defs>
<path clip-path="url(#clip090)" d="
M0 1600 L2400 1600 L2400 0 L0 0  Z
  " fill="#ffffff" fill-rule="evenodd" fill-opacity="1"/>
<defs>
  <clipPath id="clip091">
    <rect x="480" y="0" width="1681" height="1600"/>
  </clipPath>
</defs>
<path clip-path="url(#clip090)" d="
M207.952 1460.53 L2352.76 1460.53 L2352.76 166.672 L207.952 166.672  Z
  " fill="#ffffff" fill-rule="evenodd" fill-opacity="1"/>
<defs>
  <clipPath id="clip092">
    <rect x="207" y="166" width="2146" height="1295"/>
  </clipPath>
</defs>
<polyline clip-path="url(#clip090)" style="stroke:#000000; stroke-linecap:round; stroke-linejoin:round; stroke-width:4; stroke-opacity:1; fill:none" points="
  207.952,1460.53 2352.76,1460.53 
  "/>
<polyline clip-path="url(#clip090)" style="stroke:#000000; stroke-linecap:round; stroke-linejoin:round; stroke-width:4; stroke-opacity:1; fill:none" points="
  1280.35,1460.53 1280.35,1441.63 
  "/>
<path clip-path="url(#clip090)" d="M1280.35 1500.24 Q1274.03 1500.24 1270.83 1506.47 Q1267.67 1512.67 1267.67 1525.15 Q1267.67 1537.58 1270.83 1543.82 Q1274.03 1550.02 1280.35 1550.02 Q1286.71 1550.02 1289.87 1543.82 Q1293.07 1537.58 1293.07 1525.15 Q1293.07 1512.67 1289.87 1506.47 Q1286.71 1500.24 1280.35 1500.24 M1280.35 1493.75 Q1290.52 1493.75 1295.87 1501.82 Q1301.26 1509.84 1301.26 1525.15 Q1301.26 1540.42 1295.87 1548.48 Q1290.52 1556.5 1280.35 1556.5 Q1270.19 1556.5 1264.8 1548.48 Q1259.45 1540.42 1259.45 1525.15 Q1259.45 1509.84 1264.8 1501.82 Q1270.19 1493.75 1280.35 1493.75 Z" fill="#000000" fill-rule="evenodd" fill-opacity="1" /><path clip-path="url(#clip090)" d="M979.661 20.736 L1067.37 20.736 L1067.37 32.5415 L1030.56 32.5415 L1030.56 124.416 L1016.47 124.416 L1016.47 32.5415 L979.661 32.5415 L979.661 20.736 Z" fill="#000000" fill-rule="evenodd" fill-opacity="1" /><path clip-path="url(#clip090)" d="M1049.38 46.6386 L1062.16 46.6386 L1078.13 107.333 L1094.04 46.6386 L1109.1 46.6386 L1125.08 107.333 L1140.98 46.6386 L1153.76 46.6386 L1133.41 124.416 L1118.34 124.416 L1101.6 60.6663 L1084.8 124.416 L1069.73 124.416 L1049.38 46.6386 Z" fill="#000000" fill-rule="evenodd" fill-opacity="1" /><path clip-path="url(#clip090)" d="M1203.27 55.5969 Q1192.99 55.5969 1187.02 63.6524 Q1181.05 71.6385 1181.05 85.5968 Q1181.05 99.555 1186.95 107.611 Q1192.92 115.597 1203.27 115.597 Q1213.48 115.597 1219.45 107.541 Q1225.42 99.4856 1225.42 85.5968 Q1225.42 71.7774 1219.45 63.7219 Q1213.48 55.5969 1203.27 55.5969 M1203.27 44.7636 Q1219.94 44.7636 1229.45 55.5969 Q1238.97 66.4302 1238.97 85.5968 Q1238.97 104.694 1229.45 115.597 Q1219.94 126.43 1203.27 126.43 Q1186.54 126.43 1177.02 115.597 Q1167.58 104.694 1167.58 85.5968 Q1167.58 66.4302 1177.02 55.5969 Q1186.54 44.7636 1203.27 44.7636 Z" fill="#000000" fill-rule="evenodd" fill-opacity="1" /><path clip-path="url(#clip090)" d="M1317.99 24.5554 L1317.99 46.6386 L1344.31 46.6386 L1344.31 56.5691 L1317.99 56.5691 L1317.99 98.7911 Q1317.99 108.305 1320.56 111.013 Q1323.2 113.722 1331.19 113.722 L1344.31 113.722 L1344.31 124.416 L1331.19 124.416 Q1316.4 124.416 1310.77 118.93 Q1305.15 113.374 1305.15 98.7911 L1305.15 56.5691 L1295.77 56.5691 L1295.77 46.6386 L1305.15 46.6386 L1305.15 24.5554 L1317.99 24.5554 Z" fill="#000000" fill-rule="evenodd" fill-opacity="1" /><path clip-path="url(#clip090)" d="M1396.46 85.319 Q1380.98 85.319 1375.01 88.8606 Q1369.03 92.4023 1369.03 100.944 Q1369.03 107.749 1373.48 111.777 Q1377.99 115.735 1385.7 115.735 Q1396.33 115.735 1402.71 108.236 Q1409.17 100.666 1409.17 88.1662 L1409.17 85.319 L1396.46 85.319 M1421.95 80.0412 L1421.95 124.416 L1409.17 124.416 L1409.17 112.611 Q1404.8 119.694 1398.27 123.097 Q1391.74 126.43 1382.3 126.43 Q1370.35 126.43 1363.27 119.763 Q1356.26 113.027 1356.26 101.777 Q1356.26 88.6523 1365.01 81.9857 Q1373.83 75.319 1391.26 75.319 L1409.17 75.319 L1409.17 74.069 Q1409.17 65.2497 1403.34 60.458 Q1397.58 55.5969 1387.09 55.5969 Q1380.42 55.5969 1374.1 57.1941 Q1367.78 58.7914 1361.95 61.9858 L1361.95 50.1803 Q1368.96 47.472 1375.56 46.1525 Q1382.16 44.7636 1388.41 44.7636 Q1405.28 44.7636 1413.62 53.5136 Q1421.95 62.2636 1421.95 80.0412 Z" fill="#000000" fill-rule="evenodd" fill-opacity="1" /><path clip-path="url(#clip090)" d="M1448.27 46.6386 L1461.05 46.6386 L1461.05 124.416 L1448.27 124.416 L1448.27 46.6386 M1448.27 16.361 L1461.05 16.361 L1461.05 32.5415 L1448.27 32.5415 L1448.27 16.361 Z" fill="#000000" fill-rule="evenodd" fill-opacity="1" /><path clip-path="url(#clip090)" d="M1487.78 16.361 L1500.56 16.361 L1500.56 124.416 L1487.78 124.416 L1487.78 16.361 Z" fill="#000000" fill-rule="evenodd" fill-opacity="1" /><path clip-path="url(#clip090)" d="M1576.88 48.9303 L1576.88 61.0136 Q1571.46 58.2358 1565.63 56.8469 Q1559.8 55.458 1553.55 55.458 Q1544.03 55.458 1539.24 58.3747 Q1534.52 61.2913 1534.52 67.1246 Q1534.52 71.5691 1537.92 74.1385 Q1541.32 76.6385 1551.6 78.9301 L1555.98 79.9023 Q1569.59 82.819 1575.28 88.1662 Q1581.05 93.4439 1581.05 102.958 Q1581.05 113.791 1572.44 120.11 Q1563.89 126.43 1548.89 126.43 Q1542.64 126.43 1535.84 125.18 Q1529.1 123.999 1521.6 121.569 L1521.6 108.374 Q1528.69 112.055 1535.56 113.93 Q1542.44 115.735 1549.17 115.735 Q1558.2 115.735 1563.06 112.68 Q1567.92 109.555 1567.92 103.93 Q1567.92 98.7217 1564.38 95.9439 Q1560.91 93.1662 1549.03 90.5967 L1544.59 89.5551 Q1532.71 87.0551 1527.44 81.9162 Q1522.16 76.7079 1522.16 67.6802 Q1522.16 56.708 1529.94 50.7358 Q1537.71 44.7636 1552.02 44.7636 Q1559.1 44.7636 1565.35 45.8053 Q1571.6 46.847 1576.88 48.9303 Z" fill="#000000" fill-rule="evenodd" fill-opacity="1" /><path clip-path="url(#clip092)" d="
M1786.2 1208.13 L1788.73 1210.81 L1791.26 1213.46 L1793.79 1216.07 L1796.32 1218.66 L1798.85 1221.2 L1801.38 1223.72 L1803.91 1226.21 L1806.44 1228.66 L1808.97 1231.08 
  L1811.5 1233.48 L1814.03 1235.84 L1816.55 1238.17 L1819.08 1240.48 L1821.61 1242.75 L1824.14 1244.99 L1826.67 1247.21 L1829.2 1249.4 L1831.73 1251.56 L1834.26 1253.69 
  L1836.79 1255.8 L1839.32 1257.88 L1841.85 1259.93 L1844.38 1261.95 L1846.91 1263.95 L1849.44 1265.93 L1851.96 1267.88 L1854.49 1269.8 L1857.02 1271.7 L1859.55 1273.57 
  L1862.08 1275.42 L1864.61 1277.25 L1867.14 1279.05 L1869.67 1280.83 L1872.2 1282.59 L1874.73 1284.32 L1877.26 1286.03 L1879.79 1287.72 L1882.32 1289.39 L1884.84 1291.03 
  L1887.37 1292.66 L1889.9 1294.26 L1892.43 1295.84 L1894.96 1297.41 L1897.49 1298.95 L1900.02 1300.47 L1902.55 1301.97 L1905.08 1303.45 L1907.61 1304.92 L1910.14 1306.36 
  L1912.67 1307.79 L1915.2 1309.19 L1917.72 1310.58 L1920.25 1311.95 L1922.78 1313.3 L1925.31 1314.64 L1927.84 1315.96 L1930.37 1317.26 L1932.9 1318.54 L1935.43 1319.81 
  L1937.96 1321.06 L1940.49 1322.3 L1943.02 1323.51 L1945.55 1324.72 L1948.08 1325.9 L1950.61 1327.07 L1953.13 1328.23 L1955.66 1329.37 L1958.19 1330.5 L1960.72 1331.61 
  L1963.25 1332.71 L1965.78 1333.79 L1968.31 1334.86 L1970.84 1335.92 L1973.37 1336.96 L1975.9 1337.99 L1978.43 1339 L1980.96 1340.01 L1983.49 1340.99 L1986.01 1341.97 
  L1988.54 1342.93 L1991.07 1343.89 L1993.6 1344.82 L1996.13 1345.75 L1998.66 1346.67 L2001.19 1347.57 L2003.72 1348.46 L2006.25 1349.34 L2008.78 1350.21 L2011.31 1351.07 
  L2013.84 1351.91 L2016.37 1352.75 L2018.89 1353.58 L2021.42 1354.39 L2023.95 1355.19 L2026.48 1355.99 L2029.01 1356.77 L2031.54 1357.55 L2034.07 1358.31 L2036.6 1359.06 
  L2039.13 1359.81 L2041.66 1360.54 L2044.19 1361.27 L2046.72 1361.98 L2049.25 1362.69 L2051.78 1363.39 L2054.3 1364.08 L2056.83 1364.76 L2059.36 1365.43 L2061.89 1366.1 
  L2064.42 1366.75 L2066.95 1367.4 L2069.48 1368.04 L2072.01 1368.67 L2074.54 1369.29 L2077.07 1369.9 L2079.6 1370.51 L2082.13 1371.11 L2084.66 1371.7 L2087.18 1372.29 
  L2089.71 1372.86 L2092.24 1373.43 L2094.77 1374 L2097.3 1374.55 L2099.83 1375.1 L2102.36 1375.64 L2104.89 1376.18 L2107.42 1376.71 L2109.95 1377.23 L2112.48 1377.74 
  L2115.01 1378.25 L2117.54 1378.76 L2120.06 1379.25 L2122.59 1379.74 L2125.12 1380.23 L2127.65 1380.71 L2130.18 1381.18 L2132.71 1381.65 L2135.24 1382.11 L2137.77 1382.56 
  L2140.3 1383.01 L2142.83 1383.46 L2145.36 1383.89 L2147.89 1384.33 L2150.42 1384.75 L2152.95 1385.18 L2155.47 1385.6 L2158 1386.01 L2160.53 1386.42 L2163.06 1386.82 
  L2165.59 1387.22 L2168.12 1387.61 L2170.65 1388 L2173.18 1388.38 L2175.71 1388.76 L2178.24 1389.13 L2180.77 1389.5 L2183.3 1389.87 L2185.83 1390.23 L2188.35 1390.58 
  L2190.88 1390.94 L2193.41 1391.28 L2195.94 1391.63 L2198.47 1391.97 L2201 1392.3 L2203.53 1392.63 L2206.06 1392.96 L2208.59 1393.29 L2211.12 1393.6 L2213.65 1393.92 
  L2216.18 1394.23 L2218.71 1394.54 L2221.23 1394.85 L2223.76 1395.15 L2226.29 1395.45 L2228.82 1395.74 L2231.35 1396.03 L2233.88 1396.32 L2236.41 1396.6 L2238.94 1396.88 
  L2241.47 1397.16 L2244 1397.43 L2246.53 1397.7 L2249.06 1397.97 L2251.59 1398.24 L2254.12 1398.5 L2256.64 1398.76 L2259.17 1399.01 L2261.7 1399.26 L2264.23 1399.51 
  L2266.76 1399.76 L2269.29 1400 L2271.82 1400.24 L2274.35 1400.48 L2276.88 1400.72 L2279.41 1400.95 L2281.94 1401.18 L2284.47 1401.41 L2287 1401.63 L2289.52 1401.85 
  L2292.05 1402.07 L2292.05 1423.91 L2289.52 1423.91 L2287 1423.91 L2284.47 1423.91 L2281.94 1423.91 L2279.41 1423.91 L2276.88 1423.91 L2274.35 1423.91 L2271.82 1423.91 
  L2269.29 1423.91 L2266.76 1423.91 L2264.23 1423.91 L2261.7 1423.91 L2259.17 1423.91 L2256.64 1423.91 L2254.12 1423.91 L2251.59 1423.91 L2249.06 1423.91 L2246.53 1423.91 
  L2244 1423.91 L2241.47 1423.91 L2238.94 1423.91 L2236.41 1423.91 L2233.88 1423.91 L2231.35 1423.91 L2228.82 1423.91 L2226.29 1423.91 L2223.76 1423.91 L2221.23 1423.91 
  L2218.71 1423.91 L2216.18 1423.91 L2213.65 1423.91 L2211.12 1423.91 L2208.59 1423.91 L2206.06 1423.91 L2203.53 1423.91 L2201 1423.91 L2198.47 1423.91 L2195.94 1423.91 
  L2193.41 1423.91 L2190.88 1423.91 L2188.35 1423.91 L2185.83 1423.91 L2183.3 1423.91 L2180.77 1423.91 L2178.24 1423.91 L2175.71 1423.91 L2173.18 1423.91 L2170.65 1423.91 
  L2168.12 1423.91 L2165.59 1423.91 L2163.06 1423.91 L2160.53 1423.91 L2158 1423.91 L2155.47 1423.91 L2152.95 1423.91 L2150.42 1423.91 L2147.89 1423.91 L2145.36 1423.91 
  L2142.83 1423.91 L2140.3 1423.91 L2137.77 1423.91 L2135.24 1423.91 L2132.71 1423.91 L2130.18 1423.91 L2127.65 1423.91 L2125.12 1423.91 L2122.59 1423.91 L2120.06 1423.91 
  L2117.54 1423.91 L2115.01 1423.91 L2112.48 1423.91 L2109.95 1423.91 L2107.42 1423.91 L2104.89 1423.91 L2102.36 1423.91 L2099.83 1423.91 L2097.3 1423.91 L2094.77 1423.91 
  L2092.24 1423.91 L2089.71 1423.91 L2087.18 1423.91 L2084.66 1423.91 L2082.13 1423.91 L2079.6 1423.91 L2077.07 1423.91 L2074.54 1423.91 L2072.01 1423.91 L2069.48 1423.91 
  L2066.95 1423.91 L2064.42 1423.91 L2061.89 1423.91 L2059.36 1423.91 L2056.83 1423.91 L2054.3 1423.91 L2051.78 1423.91 L2049.25 1423.91 L2046.72 1423.91 L2044.19 1423.91 
  L2041.66 1423.91 L2039.13 1423.91 L2036.6 1423.91 L2034.07 1423.91 L2031.54 1423.91 L2029.01 1423.91 L2026.48 1423.91 L2023.95 1423.91 L2021.42 1423.91 L2018.89 1423.91 
  L2016.37 1423.91 L2013.84 1423.91 L2011.31 1423.91 L2008.78 1423.91 L2006.25 1423.91 L2003.72 1423.91 L2001.19 1423.91 L1998.66 1423.91 L1996.13 1423.91 L1993.6 1423.91 
  L1991.07 1423.91 L1988.54 1423.91 L1986.01 1423.91 L1983.49 1423.91 L1980.96 1423.91 L1978.43 1423.91 L1975.9 1423.91 L1973.37 1423.91 L1970.84 1423.91 L1968.31 1423.91 
  L1965.78 1423.91 L1963.25 1423.91 L1960.72 1423.91 L1958.19 1423.91 L1955.66 1423.91 L1953.13 1423.91 L1950.61 1423.91 L1948.08 1423.91 L1945.55 1423.91 L1943.02 1423.91 
  L1940.49 1423.91 L1937.96 1423.91 L1935.43 1423.91 L1932.9 1423.91 L1930.37 1423.91 L1927.84 1423.91 L1925.31 1423.91 L1922.78 1423.91 L1920.25 1423.91 L1917.72 1423.91 
  L1915.2 1423.91 L1912.67 1423.91 L1910.14 1423.91 L1907.61 1423.91 L1905.08 1423.91 L1902.55 1423.91 L1900.02 1423.91 L1897.49 1423.91 L1894.96 1423.91 L1892.43 1423.91 
  L1889.9 1423.91 L1887.37 1423.91 L1884.84 1423.91 L1882.32 1423.91 L1879.79 1423.91 L1877.26 1423.91 L1874.73 1423.91 L1872.2 1423.91 L1869.67 1423.91 L1867.14 1423.91 
  L1864.61 1423.91 L1862.08 1423.91 L1859.55 1423.91 L1857.02 1423.91 L1854.49 1423.91 L1851.96 1423.91 L1849.44 1423.91 L1846.91 1423.91 L1844.38 1423.91 L1841.85 1423.91 
  L1839.32 1423.91 L1836.79 1423.91 L1834.26 1423.91 L1831.73 1423.91 L1829.2 1423.91 L1826.67 1423.91 L1824.14 1423.91 L1821.61 1423.91 L1819.08 1423.91 L1816.55 1423.91 
  L1814.03 1423.91 L1811.5 1423.91 L1808.97 1423.91 L1806.44 1423.91 L1803.91 1423.91 L1801.38 1423.91 L1798.85 1423.91 L1796.32 1423.91 L1793.79 1423.91 L1791.26 1423.91 
  L1788.73 1423.91 L1786.2 1423.91  Z
  " fill="#1f78b4" fill-rule="evenodd" fill-opacity="0.5"/>
<polyline clip-path="url(#clip092)" style="stroke:#1f78b4; stroke-linecap:round; stroke-linejoin:round; stroke-width:16; stroke-opacity:1; fill:none" points="
  1786.2,1208.13 1788.73,1210.81 1791.26,1213.46 1793.79,1216.07 1796.32,1218.66 1798.85,1221.2 1801.38,1223.72 1803.91,1226.21 1806.44,1228.66 1808.97,1231.08 
  1811.5,1233.48 1814.03,1235.84 1816.55,1238.17 1819.08,1240.48 1821.61,1242.75 1824.14,1244.99 1826.67,1247.21 1829.2,1249.4 1831.73,1251.56 1834.26,1253.69 
  1836.79,1255.8 1839.32,1257.88 1841.85,1259.93 1844.38,1261.95 1846.91,1263.95 1849.44,1265.93 1851.96,1267.88 1854.49,1269.8 1857.02,1271.7 1859.55,1273.57 
  1862.08,1275.42 1864.61,1277.25 1867.14,1279.05 1869.67,1280.83 1872.2,1282.59 1874.73,1284.32 1877.26,1286.03 1879.79,1287.72 1882.32,1289.39 1884.84,1291.03 
  1887.37,1292.66 1889.9,1294.26 1892.43,1295.84 1894.96,1297.41 1897.49,1298.95 1900.02,1300.47 1902.55,1301.97 1905.08,1303.45 1907.61,1304.92 1910.14,1306.36 
  1912.67,1307.79 1915.2,1309.19 1917.72,1310.58 1920.25,1311.95 1922.78,1313.3 1925.31,1314.64 1927.84,1315.96 1930.37,1317.26 1932.9,1318.54 1935.43,1319.81 
  1937.96,1321.06 1940.49,1322.3 1943.02,1323.51 1945.55,1324.72 1948.08,1325.9 1950.61,1327.07 1953.13,1328.23 1955.66,1329.37 1958.19,1330.5 1960.72,1331.61 
  1963.25,1332.71 1965.78,1333.79 1968.31,1334.86 1970.84,1335.92 1973.37,1336.96 1975.9,1337.99 1978.43,1339 1980.96,1340.01 1983.49,1340.99 1986.01,1341.97 
  1988.54,1342.93 1991.07,1343.89 1993.6,1344.82 1996.13,1345.75 1998.66,1346.67 2001.19,1347.57 2003.72,1348.46 2006.25,1349.34 2008.78,1350.21 2011.31,1351.07 
  2013.84,1351.91 2016.37,1352.75 2018.89,1353.58 2021.42,1354.39 2023.95,1355.19 2026.48,1355.99 2029.01,1356.77 2031.54,1357.55 2034.07,1358.31 2036.6,1359.06 
  2039.13,1359.81 2041.66,1360.54 2044.19,1361.27 2046.72,1361.98 2049.25,1362.69 2051.78,1363.39 2054.3,1364.08 2056.83,1364.76 2059.36,1365.43 2061.89,1366.1 
  2064.42,1366.75 2066.95,1367.4 2069.48,1368.04 2072.01,1368.67 2074.54,1369.29 2077.07,1369.9 2079.6,1370.51 2082.13,1371.11 2084.66,1371.7 2087.18,1372.29 
  2089.71,1372.86 2092.24,1373.43 2094.77,1374 2097.3,1374.55 2099.83,1375.1 2102.36,1375.64 2104.89,1376.18 2107.42,1376.71 2109.95,1377.23 2112.48,1377.74 
  2115.01,1378.25 2117.54,1378.76 2120.06,1379.25 2122.59,1379.74 2125.12,1380.23 2127.65,1380.71 2130.18,1381.18 2132.71,1381.65 2135.24,1382.11 2137.77,1382.56 
  2140.3,1383.01 2142.83,1383.46 2145.36,1383.89 2147.89,1384.33 2150.42,1384.75 2152.95,1385.18 2155.47,1385.6 2158,1386.01 2160.53,1386.42 2163.06,1386.82 
  2165.59,1387.22 2168.12,1387.61 2170.65,1388 2173.18,1388.38 2175.71,1388.76 2178.24,1389.13 2180.77,1389.5 2183.3,1389.87 2185.83,1390.23 2188.35,1390.58 
  2190.88,1390.94 2193.41,1391.28 2195.94,1391.63 2198.47,1391.97 2201,1392.3 2203.53,1392.63 2206.06,1392.96 2208.59,1393.29 2211.12,1393.6 2213.65,1393.92 
  2216.18,1394.23 2218.71,1394.54 2221.23,1394.85 2223.76,1395.15 2226.29,1395.45 2228.82,1395.74 2231.35,1396.03 2233.88,1396.32 2236.41,1396.6 2238.94,1396.88 
  2241.47,1397.16 2244,1397.43 2246.53,1397.7 2249.06,1397.97 2251.59,1398.24 2254.12,1398.5 2256.64,1398.76 2259.17,1399.01 2261.7,1399.26 2264.23,1399.51 
  2266.76,1399.76 2269.29,1400 2271.82,1400.24 2274.35,1400.48 2276.88,1400.72 2279.41,1400.95 2281.94,1401.18 2284.47,1401.41 2287,1401.63 2289.52,1401.85 
  2292.05,1402.07 
  "/>
<polyline clip-path="url(#clip092)" style="stroke:#1f78b4; stroke-linecap:round; stroke-linejoin:round; stroke-width:16; stroke-opacity:1; fill:none" points="
  268.654,1402.07 271.183,1401.85 273.713,1401.63 276.242,1401.41 278.771,1401.18 281.3,1400.95 283.83,1400.72 286.359,1400.48 288.888,1400.24 291.417,1400 
  293.947,1399.76 296.476,1399.51 299.005,1399.26 301.534,1399.01 304.064,1398.76 306.593,1398.5 309.122,1398.24 311.651,1397.97 314.181,1397.7 316.71,1397.43 
  319.239,1397.16 321.768,1396.88 324.298,1396.6 326.827,1396.32 329.356,1396.03 331.885,1395.74 334.415,1395.45 336.944,1395.15 339.473,1394.85 342.002,1394.54 
  344.532,1394.23 347.061,1393.92 349.59,1393.6 352.119,1393.29 354.649,1392.96 357.178,1392.63 359.707,1392.3 362.236,1391.97 364.766,1391.63 367.295,1391.28 
  369.824,1390.94 372.353,1390.58 374.883,1390.23 377.412,1389.87 379.941,1389.5 382.47,1389.13 385,1388.76 387.529,1388.38 390.058,1388 392.587,1387.61 
  395.117,1387.22 397.646,1386.82 400.175,1386.42 402.704,1386.01 405.234,1385.6 407.763,1385.18 410.292,1384.75 412.821,1384.33 415.351,1383.89 417.88,1383.46 
  420.409,1383.01 422.938,1382.56 425.468,1382.11 427.997,1381.65 430.526,1381.18 433.055,1380.71 435.585,1380.23 438.114,1379.74 440.643,1379.25 443.172,1378.76 
  445.702,1378.25 448.231,1377.74 450.76,1377.23 453.289,1376.71 455.819,1376.18 458.348,1375.64 460.877,1375.1 463.406,1374.55 465.936,1374 468.465,1373.43 
  470.994,1372.86 473.523,1372.29 476.053,1371.7 478.582,1371.11 481.111,1370.51 483.64,1369.9 486.17,1369.29 488.699,1368.67 491.228,1368.04 493.757,1367.4 
  496.287,1366.75 498.816,1366.1 501.345,1365.43 503.874,1364.76 506.404,1364.08 508.933,1363.39 511.462,1362.69 513.991,1361.98 516.521,1361.27 519.05,1360.54 
  521.579,1359.81 524.108,1359.06 526.638,1358.31 529.167,1357.55 531.696,1356.77 534.225,1355.99 536.755,1355.19 539.284,1354.39 541.813,1353.58 544.342,1352.75 
  546.872,1351.91 549.401,1351.07 551.93,1350.21 554.459,1349.34 556.989,1348.46 559.518,1347.57 562.047,1346.67 564.576,1345.75 567.106,1344.82 569.635,1343.89 
  572.164,1342.93 574.693,1341.97 577.223,1340.99 579.752,1340.01 582.281,1339 584.81,1337.99 587.34,1336.96 589.869,1335.92 592.398,1334.86 594.927,1333.79 
  597.457,1332.71 599.986,1331.61 602.515,1330.5 605.044,1329.37 607.574,1328.23 610.103,1327.07 612.632,1325.9 615.161,1324.72 617.691,1323.51 620.22,1322.3 
  622.749,1321.06 625.278,1319.81 627.808,1318.54 630.337,1317.26 632.866,1315.96 635.395,1314.64 637.925,1313.3 640.454,1311.95 642.983,1310.58 645.512,1309.19 
  648.042,1307.79 650.571,1306.36 653.1,1304.92 655.629,1303.45 658.159,1301.97 660.688,1300.47 663.217,1298.95 665.746,1297.41 668.276,1295.84 670.805,1294.26 
  673.334,1292.66 675.863,1291.03 678.393,1289.39 680.922,1287.72 683.451,1286.03 685.98,1284.32 688.51,1282.59 691.039,1280.83 693.568,1279.05 696.097,1277.25 
  698.627,1275.42 701.156,1273.57 703.685,1271.7 706.214,1269.8 708.744,1267.88 711.273,1265.93 713.802,1263.95 716.331,1261.95 718.861,1259.93 721.39,1257.88 
  723.919,1255.8 726.448,1253.69 728.978,1251.56 731.507,1249.4 734.036,1247.21 736.565,1244.99 739.095,1242.75 741.624,1240.48 744.153,1238.17 746.682,1235.84 
  749.212,1233.48 751.741,1231.08 754.27,1228.66 756.799,1226.21 759.329,1223.72 761.858,1221.2 764.387,1218.66 766.916,1216.07 769.446,1213.46 771.975,1210.81 
  774.504,1208.13 777.033,1205.42 779.563,1202.67 782.092,1199.89 784.621,1197.07 787.15,1194.22 789.68,1191.33 792.209,1188.41 794.738,1185.45 797.267,1182.45 
  799.797,1179.42 802.326,1176.34 804.855,1173.24 807.384,1170.09 809.914,1166.9 812.443,1163.68 814.972,1160.42 817.501,1157.12 820.031,1153.77 822.56,1150.39 
  825.089,1146.97 827.618,1143.51 830.148,1140 832.677,1136.46 835.206,1132.87 837.735,1129.24 840.265,1125.57 842.794,1121.85 845.323,1118.1 847.852,1114.29 
  850.382,1110.45 852.911,1106.56 855.44,1102.63 857.969,1098.65 860.499,1094.63 863.028,1090.56 865.557,1086.44 868.086,1082.28 870.616,1078.08 873.145,1073.83 
  875.674,1069.53 878.203,1065.18 880.733,1060.79 883.262,1056.35 885.791,1051.86 888.32,1047.33 890.85,1042.75 893.379,1038.12 895.908,1033.44 898.437,1028.71 
  900.967,1023.94 903.496,1019.11 906.025,1014.24 908.554,1009.32 911.084,1004.35 913.613,999.328 916.142,994.26 918.671,989.142 921.201,983.975 923.73,978.758 
  926.259,973.493 928.788,968.178 931.318,962.814 933.847,957.401 936.376,951.939 938.905,946.428 941.435,940.868 943.964,935.26 946.493,929.603 949.022,923.897 
  951.552,918.144 954.081,912.342 956.61,906.493 959.139,900.596 961.669,894.652 964.198,888.661 966.727,882.624 969.256,876.541 971.786,870.412 974.315,864.238 
  976.844,858.018 979.373,851.755 981.903,845.447 984.432,839.097 986.961,832.703 989.49,826.268 992.02,819.791 994.549,813.273 997.078,806.715 999.607,800.117 
  1002.14,793.481 1004.67,786.807 1007.2,780.096 1009.72,773.349 1012.25,766.566 1014.78,759.75 1017.31,752.9 1019.84,746.017 1022.37,739.103 1024.9,732.159 
  1027.43,725.186 1029.96,718.185 1032.49,711.158 1035.02,704.104 1037.55,697.027 1040.08,689.926 1042.6,682.804 1045.13,675.662 1047.66,668.501 1050.19,661.322 
  1052.72,654.128 1055.25,646.92 1057.78,639.698 1060.31,632.466 1062.84,625.224 1065.37,617.974 1067.9,610.719 1070.43,603.459 1072.96,596.196 1075.48,588.933 
  1078.01,581.671 1080.54,574.412 1083.07,567.158 1085.6,559.912 1088.13,552.674 1090.66,545.448 1093.19,538.234 1095.72,531.036 1098.25,523.856 1100.78,516.695 
  1103.31,509.556 1105.84,502.441 1108.37,495.352 1110.89,488.292 1113.42,481.262 1115.95,474.266 1118.48,467.306 1121.01,460.383 1123.54,453.501 1126.07,446.661 
  1128.6,439.867 1131.13,433.12 1133.66,426.424 1136.19,419.78 1138.72,413.191 1141.25,406.659 1143.77,400.188 1146.3,393.779 1148.83,387.435 1151.36,381.159 
  1153.89,374.952 1156.42,368.819 1158.95,362.76 1161.48,356.779 1164.01,350.879 1166.54,345.06 1169.07,339.327 1171.6,333.681 1174.13,328.126 1176.65,322.663 
  1179.18,317.294 1181.71,312.023 1184.24,306.851 1186.77,301.781 1189.3,296.816 1191.83,291.957 1194.36,287.206 1196.89,282.567 1199.42,278.04 1201.95,273.629 
  1204.48,269.336 1207.01,265.161 1209.54,261.108 1212.06,257.179 1214.59,253.374 1217.12,249.697 1219.65,246.149 1222.18,242.732 1224.71,239.446 1227.24,236.295 
  1229.77,233.28 1232.3,230.402 1234.83,227.662 1237.36,225.062 1239.89,222.604 1242.42,220.288 1244.94,218.116 1247.47,216.089 1250,214.207 1252.53,212.473 
  1255.06,210.886 1257.59,209.448 1260.12,208.16 1262.65,207.021 1265.18,206.033 1267.71,205.196 1270.24,204.51 1272.77,203.977 1275.3,203.596 1277.82,203.367 
  1280.35,203.291 1282.88,203.367 1285.41,203.596 1287.94,203.977 1290.47,204.51 1293,205.196 1295.53,206.033 1298.06,207.021 1300.59,208.16 1303.12,209.448 
  1305.65,210.886 1308.18,212.473 1310.71,214.207 1313.23,216.089 1315.76,218.116 1318.29,220.288 1320.82,222.604 1323.35,225.062 1325.88,227.662 1328.41,230.402 
  1330.94,233.28 1333.47,236.295 1336,239.446 1338.53,242.732 1341.06,246.149 1343.59,249.697 1346.11,253.374 1348.64,257.179 1351.17,261.108 1353.7,265.161 
  1356.23,269.336 1358.76,273.629 1361.29,278.04 1363.82,282.567 1366.35,287.206 1368.88,291.957 1371.41,296.816 1373.94,301.781 1376.47,306.851 1378.99,312.023 
  1381.52,317.294 1384.05,322.663 1386.58,328.126 1389.11,333.681 1391.64,339.327 1394.17,345.06 1396.7,350.879 1399.23,356.779 1401.76,362.76 1404.29,368.819 
  1406.82,374.952 1409.35,381.159 1411.88,387.435 1414.4,393.779 1416.93,400.188 1419.46,406.659 1421.99,413.191 1424.52,419.78 1427.05,426.424 1429.58,433.12 
  1432.11,439.867 1434.64,446.661 1437.17,453.501 1439.7,460.383 1442.23,467.306 1444.76,474.266 1447.28,481.262 1449.81,488.292 1452.34,495.352 1454.87,502.441 
  1457.4,509.556 1459.93,516.695 1462.46,523.856 1464.99,531.036 1467.52,538.234 1470.05,545.448 1472.58,552.674 1475.11,559.912 1477.64,567.158 1480.16,574.412 
  1482.69,581.671 1485.22,588.933 1487.75,596.196 1490.28,603.459 1492.81,610.719 1495.34,617.974 1497.87,625.224 1500.4,632.466 1502.93,639.698 1505.46,646.92 
  1507.99,654.128 1510.52,661.322 1513.04,668.501 1515.57,675.662 1518.1,682.804 1520.63,689.926 1523.16,697.027 1525.69,704.104 1528.22,711.158 1530.75,718.185 
  1533.28,725.186 1535.81,732.159 1538.34,739.103 1540.87,746.017 1543.4,752.9 1545.93,759.75 1548.45,766.566 1550.98,773.349 1553.51,780.096 1556.04,786.807 
  1558.57,793.481 1561.1,800.117 1563.63,806.715 1566.16,813.273 1568.69,819.791 1571.22,826.268 1573.75,832.703 1576.28,839.097 1578.81,845.447 1581.33,851.755 
  1583.86,858.018 1586.39,864.238 1588.92,870.412 1591.45,876.541 1593.98,882.624 1596.51,888.661 1599.04,894.652 1601.57,900.596 1604.1,906.493 1606.63,912.342 
  1609.16,918.144 1611.69,923.897 1614.21,929.603 1616.74,935.26 1619.27,940.868 1621.8,946.428 1624.33,951.939 1626.86,957.401 1629.39,962.814 1631.92,968.178 
  1634.45,973.493 1636.98,978.758 1639.51,983.975 1642.04,989.142 1644.57,994.26 1647.1,999.328 1649.62,1004.35 1652.15,1009.32 1654.68,1014.24 1657.21,1019.11 
  1659.74,1023.94 1662.27,1028.71 1664.8,1033.44 1667.33,1038.12 1669.86,1042.75 1672.39,1047.33 1674.92,1051.86 1677.45,1056.35 1679.98,1060.79 1682.5,1065.18 
  1685.03,1069.53 1687.56,1073.83 1690.09,1078.08 1692.62,1082.28 1695.15,1086.44 1697.68,1090.56 1700.21,1094.63 1702.74,1098.65 1705.27,1102.63 1707.8,1106.56 
  1710.33,1110.45 1712.86,1114.29 1715.38,1118.1 1717.91,1121.85 1720.44,1125.57 1722.97,1129.24 1725.5,1132.87 1728.03,1136.46 1730.56,1140 1733.09,1143.51 
  1735.62,1146.97 1738.15,1150.39 1740.68,1153.77 1743.21,1157.12 1745.74,1160.42 1748.27,1163.68 1750.79,1166.9 1753.32,1170.09 1755.85,1173.24 1758.38,1176.34 
  1760.91,1179.42 1763.44,1182.45 1765.97,1185.45 1768.5,1188.41 1771.03,1191.33 1773.56,1194.22 1776.09,1197.07 1778.62,1199.89 1781.15,1202.67 1783.67,1205.42 
  1786.2,1208.13 1788.73,1210.81 1791.26,1213.46 1793.79,1216.07 1796.32,1218.66 1798.85,1221.2 1801.38,1223.72 1803.91,1226.21 1806.44,1228.66 1808.97,1231.08 
  1811.5,1233.48 1814.03,1235.84 1816.55,1238.17 1819.08,1240.48 1821.61,1242.75 1824.14,1244.99 1826.67,1247.21 1829.2,1249.4 1831.73,1251.56 1834.26,1253.69 
  1836.79,1255.8 1839.32,1257.88 1841.85,1259.93 1844.38,1261.95 1846.91,1263.95 1849.44,1265.93 1851.96,1267.88 1854.49,1269.8 1857.02,1271.7 1859.55,1273.57 
  1862.08,1275.42 1864.61,1277.25 1867.14,1279.05 1869.67,1280.83 1872.2,1282.59 1874.73,1284.32 1877.26,1286.03 1879.79,1287.72 1882.32,1289.39 1884.84,1291.03 
  1887.37,1292.66 1889.9,1294.26 1892.43,1295.84 1894.96,1297.41 1897.49,1298.95 1900.02,1300.47 1902.55,1301.97 1905.08,1303.45 1907.61,1304.92 1910.14,1306.36 
  1912.67,1307.79 1915.2,1309.19 1917.72,1310.58 1920.25,1311.95 1922.78,1313.3 1925.31,1314.64 1927.84,1315.96 1930.37,1317.26 1932.9,1318.54 1935.43,1319.81 
  1937.96,1321.06 1940.49,1322.3 1943.02,1323.51 1945.55,1324.72 1948.08,1325.9 1950.61,1327.07 1953.13,1328.23 1955.66,1329.37 1958.19,1330.5 1960.72,1331.61 
  1963.25,1332.71 1965.78,1333.79 1968.31,1334.86 1970.84,1335.92 1973.37,1336.96 1975.9,1337.99 1978.43,1339 1980.96,1340.01 1983.49,1340.99 1986.01,1341.97 
  1988.54,1342.93 1991.07,1343.89 1993.6,1344.82 1996.13,1345.75 1998.66,1346.67 2001.19,1347.57 2003.72,1348.46 2006.25,1349.34 2008.78,1350.21 2011.31,1351.07 
  2013.84,1351.91 2016.37,1352.75 2018.89,1353.58 2021.42,1354.39 2023.95,1355.19 2026.48,1355.99 2029.01,1356.77 2031.54,1357.55 2034.07,1358.31 2036.6,1359.06 
  2039.13,1359.81 2041.66,1360.54 2044.19,1361.27 2046.72,1361.98 2049.25,1362.69 2051.78,1363.39 2054.3,1364.08 2056.83,1364.76 2059.36,1365.43 2061.89,1366.1 
  2064.42,1366.75 2066.95,1367.4 2069.48,1368.04 2072.01,1368.67 2074.54,1369.29 2077.07,1369.9 2079.6,1370.51 2082.13,1371.11 2084.66,1371.7 2087.18,1372.29 
  2089.71,1372.86 2092.24,1373.43 2094.77,1374 2097.3,1374.55 2099.83,1375.1 2102.36,1375.64 2104.89,1376.18 2107.42,1376.71 2109.95,1377.23 2112.48,1377.74 
  2115.01,1378.25 2117.54,1378.76 2120.06,1379.25 2122.59,1379.74 2125.12,1380.23 2127.65,1380.71 2130.18,1381.18 2132.71,1381.65 2135.24,1382.11 2137.77,1382.56 
  2140.3,1383.01 2142.83,1383.46 2145.36,1383.89 2147.89,1384.33 2150.42,1384.75 2152.95,1385.18 2155.47,1385.6 2158,1386.01 2160.53,1386.42 2163.06,1386.82 
  2165.59,1387.22 2168.12,1387.61 2170.65,1388 2173.18,1388.38 2175.71,1388.76 2178.24,1389.13 2180.77,1389.5 2183.3,1389.87 2185.83,1390.23 2188.35,1390.58 
  2190.88,1390.94 2193.41,1391.28 2195.94,1391.63 2198.47,1391.97 2201,1392.3 2203.53,1392.63 2206.06,1392.96 2208.59,1393.29 2211.12,1393.6 2213.65,1393.92 
  2216.18,1394.23 2218.71,1394.54 2221.23,1394.85 2223.76,1395.15 2226.29,1395.45 2228.82,1395.74 2231.35,1396.03 2233.88,1396.32 2236.41,1396.6 2238.94,1396.88 
  2241.47,1397.16 2244,1397.43 2246.53,1397.7 2249.06,1397.97 2251.59,1398.24 2254.12,1398.5 2256.64,1398.76 2259.17,1399.01 2261.7,1399.26 2264.23,1399.51 
  2266.76,1399.76 2269.29,1400 2271.82,1400.24 2274.35,1400.48 2276.88,1400.72 2279.41,1400.95 2281.94,1401.18 2284.47,1401.41 2287,1401.63 2289.52,1401.85 
  2292.05,1402.07 
  "/>
<path clip-path="url(#clip092)" d="
M268.654 1402.07 L271.183 1401.85 L273.713 1401.63 L276.242 1401.41 L278.771 1401.18 L281.3 1400.95 L283.83 1400.72 L286.359 1400.48 L288.888 1400.24 L291.417 1400 
  L293.947 1399.76 L296.476 1399.51 L299.005 1399.26 L301.534 1399.01 L304.064 1398.76 L306.593 1398.5 L309.122 1398.24 L311.651 1397.97 L314.181 1397.7 L316.71 1397.43 
  L319.239 1397.16 L321.768 1396.88 L324.298 1396.6 L326.827 1396.32 L329.356 1396.03 L331.885 1395.74 L334.415 1395.45 L336.944 1395.15 L339.473 1394.85 L342.002 1394.54 
  L344.532 1394.23 L347.061 1393.92 L349.59 1393.6 L352.119 1393.29 L354.649 1392.96 L357.178 1392.63 L359.707 1392.3 L362.236 1391.97 L364.766 1391.63 L367.295 1391.28 
  L369.824 1390.94 L372.353 1390.58 L374.883 1390.23 L377.412 1389.87 L379.941 1389.5 L382.47 1389.13 L385 1388.76 L387.529 1388.38 L390.058 1388 L392.587 1387.61 
  L395.117 1387.22 L397.646 1386.82 L400.175 1386.42 L402.704 1386.01 L405.234 1385.6 L407.763 1385.18 L410.292 1384.75 L412.821 1384.33 L415.351 1383.89 L417.88 1383.46 
  L420.409 1383.01 L422.938 1382.56 L425.468 1382.11 L427.997 1381.65 L430.526 1381.18 L433.055 1380.71 L435.585 1380.23 L438.114 1379.74 L440.643 1379.25 L443.172 1378.76 
  L445.702 1378.25 L448.231 1377.74 L450.76 1377.23 L453.289 1376.71 L455.819 1376.18 L458.348 1375.64 L460.877 1375.1 L463.406 1374.55 L465.936 1374 L468.465 1373.43 
  L470.994 1372.86 L473.523 1372.29 L476.053 1371.7 L478.582 1371.11 L481.111 1370.51 L483.64 1369.9 L486.17 1369.29 L488.699 1368.67 L491.228 1368.04 L493.757 1367.4 
  L496.287 1366.75 L498.816 1366.1 L501.345 1365.43 L503.874 1364.76 L506.404 1364.08 L508.933 1363.39 L511.462 1362.69 L513.991 1361.98 L516.521 1361.27 L519.05 1360.54 
  L521.579 1359.81 L524.108 1359.06 L526.638 1358.31 L529.167 1357.55 L531.696 1356.77 L534.225 1355.99 L536.755 1355.19 L539.284 1354.39 L541.813 1353.58 L544.342 1352.75 
  L546.872 1351.91 L549.401 1351.07 L551.93 1350.21 L554.459 1349.34 L556.989 1348.46 L559.518 1347.57 L562.047 1346.67 L564.576 1345.75 L567.106 1344.82 L569.635 1343.89 
  L572.164 1342.93 L574.693 1341.97 L577.223 1340.99 L579.752 1340.01 L582.281 1339 L584.81 1337.99 L587.34 1336.96 L589.869 1335.92 L592.398 1334.86 L594.927 1333.79 
  L597.457 1332.71 L599.986 1331.61 L602.515 1330.5 L605.044 1329.37 L607.574 1328.23 L610.103 1327.07 L612.632 1325.9 L615.161 1324.72 L617.691 1323.51 L620.22 1322.3 
  L622.749 1321.06 L625.278 1319.81 L627.808 1318.54 L630.337 1317.26 L632.866 1315.96 L635.395 1314.64 L637.925 1313.3 L640.454 1311.95 L642.983 1310.58 L645.512 1309.19 
  L648.042 1307.79 L650.571 1306.36 L653.1 1304.92 L655.629 1303.45 L658.159 1301.97 L660.688 1300.47 L663.217 1298.95 L665.746 1297.41 L668.276 1295.84 L670.805 1294.26 
  L673.334 1292.66 L675.863 1291.03 L678.393 1289.39 L680.922 1287.72 L683.451 1286.03 L685.98 1284.32 L688.51 1282.59 L691.039 1280.83 L693.568 1279.05 L696.097 1277.25 
  L698.627 1275.42 L701.156 1273.57 L703.685 1271.7 L706.214 1269.8 L708.744 1267.88 L711.273 1265.93 L713.802 1263.95 L716.331 1261.95 L718.861 1259.93 L721.39 1257.88 
  L723.919 1255.8 L726.448 1253.69 L728.978 1251.56 L731.507 1249.4 L734.036 1247.21 L736.565 1244.99 L739.095 1242.75 L741.624 1240.48 L744.153 1238.17 L746.682 1235.84 
  L749.212 1233.48 L751.741 1231.08 L754.27 1228.66 L756.799 1226.21 L759.329 1223.72 L761.858 1221.2 L764.387 1218.66 L766.916 1216.07 L769.446 1213.46 L771.975 1210.81 
  L774.504 1208.13 L774.504 1423.91 L771.975 1423.91 L769.446 1423.91 L766.916 1423.91 L764.387 1423.91 L761.858 1423.91 L759.329 1423.91 L756.799 1423.91 L754.27 1423.91 
  L751.741 1423.91 L749.212 1423.91 L746.682 1423.91 L744.153 1423.91 L741.624 1423.91 L739.095 1423.91 L736.565 1423.91 L734.036 1423.91 L731.507 1423.91 L728.978 1423.91 
  L726.448 1423.91 L723.919 1423.91 L721.39 1423.91 L718.861 1423.91 L716.331 1423.91 L713.802 1423.91 L711.273 1423.91 L708.744 1423.91 L706.214 1423.91 L703.685 1423.91 
  L701.156 1423.91 L698.627 1423.91 L696.097 1423.91 L693.568 1423.91 L691.039 1423.91 L688.51 1423.91 L685.98 1423.91 L683.451 1423.91 L680.922 1423.91 L678.393 1423.91 
  L675.863 1423.91 L673.334 1423.91 L670.805 1423.91 L668.276 1423.91 L665.746 1423.91 L663.217 1423.91 L660.688 1423.91 L658.159 1423.91 L655.629 1423.91 L653.1 1423.91 
  L650.571 1423.91 L648.042 1423.91 L645.512 1423.91 L642.983 1423.91 L640.454 1423.91 L637.925 1423.91 L635.395 1423.91 L632.866 1423.91 L630.337 1423.91 L627.808 1423.91 
  L625.278 1423.91 L622.749 1423.91 L620.22 1423.91 L617.691 1423.91 L615.161 1423.91 L612.632 1423.91 L610.103 1423.91 L607.574 1423.91 L605.044 1423.91 L602.515 1423.91 
  L599.986 1423.91 L597.457 1423.91 L594.927 1423.91 L592.398 1423.91 L589.869 1423.91 L587.34 1423.91 L584.81 1423.91 L582.281 1423.91 L579.752 1423.91 L577.223 1423.91 
  L574.693 1423.91 L572.164 1423.91 L569.635 1423.91 L567.106 1423.91 L564.576 1423.91 L562.047 1423.91 L559.518 1423.91 L556.989 1423.91 L554.459 1423.91 L551.93 1423.91 
  L549.401 1423.91 L546.872 1423.91 L544.342 1423.91 L541.813 1423.91 L539.284 1423.91 L536.755 1423.91 L534.225 1423.91 L531.696 1423.91 L529.167 1423.91 L526.638 1423.91 
  L524.108 1423.91 L521.579 1423.91 L519.05 1423.91 L516.521 1423.91 L513.991 1423.91 L511.462 1423.91 L508.933 1423.91 L506.404 1423.91 L503.874 1423.91 L501.345 1423.91 
  L498.816 1423.91 L496.287 1423.91 L493.757 1423.91 L491.228 1423.91 L488.699 1423.91 L486.17 1423.91 L483.64 1423.91 L481.111 1423.91 L478.582 1423.91 L476.053 1423.91 
  L473.523 1423.91 L470.994 1423.91 L468.465 1423.91 L465.936 1423.91 L463.406 1423.91 L460.877 1423.91 L458.348 1423.91 L455.819 1423.91 L453.289 1423.91 L450.76 1423.91 
  L448.231 1423.91 L445.702 1423.91 L443.172 1423.91 L440.643 1423.91 L438.114 1423.91 L435.585 1423.91 L433.055 1423.91 L430.526 1423.91 L427.997 1423.91 L425.468 1423.91 
  L422.938 1423.91 L420.409 1423.91 L417.88 1423.91 L415.351 1423.91 L412.821 1423.91 L410.292 1423.91 L407.763 1423.91 L405.234 1423.91 L402.704 1423.91 L400.175 1423.91 
  L397.646 1423.91 L395.117 1423.91 L392.587 1423.91 L390.058 1423.91 L387.529 1423.91 L385 1423.91 L382.47 1423.91 L379.941 1423.91 L377.412 1423.91 L374.883 1423.91 
  L372.353 1423.91 L369.824 1423.91 L367.295 1423.91 L364.766 1423.91 L362.236 1423.91 L359.707 1423.91 L357.178 1423.91 L354.649 1423.91 L352.119 1423.91 L349.59 1423.91 
  L347.061 1423.91 L344.532 1423.91 L342.002 1423.91 L339.473 1423.91 L336.944 1423.91 L334.415 1423.91 L331.885 1423.91 L329.356 1423.91 L326.827 1423.91 L324.298 1423.91 
  L321.768 1423.91 L319.239 1423.91 L316.71 1423.91 L314.181 1423.91 L311.651 1423.91 L309.122 1423.91 L306.593 1423.91 L304.064 1423.91 L301.534 1423.91 L299.005 1423.91 
  L296.476 1423.91 L293.947 1423.91 L291.417 1423.91 L288.888 1423.91 L286.359 1423.91 L283.83 1423.91 L281.3 1423.91 L278.771 1423.91 L276.242 1423.91 L273.713 1423.91 
  L271.183 1423.91 L268.654 1423.91  Z
  " fill="#1f78b4" fill-rule="evenodd" fill-opacity="0.5"/>
<polyline clip-path="url(#clip092)" style="stroke:#1f78b4; stroke-linecap:round; stroke-linejoin:round; stroke-width:16; stroke-opacity:1; fill:none" points="
  268.654,1402.07 271.183,1401.85 273.713,1401.63 276.242,1401.41 278.771,1401.18 281.3,1400.95 283.83,1400.72 286.359,1400.48 288.888,1400.24 291.417,1400 
  293.947,1399.76 296.476,1399.51 299.005,1399.26 301.534,1399.01 304.064,1398.76 306.593,1398.5 309.122,1398.24 311.651,1397.97 314.181,1397.7 316.71,1397.43 
  319.239,1397.16 321.768,1396.88 324.298,1396.6 326.827,1396.32 329.356,1396.03 331.885,1395.74 334.415,1395.45 336.944,1395.15 339.473,1394.85 342.002,1394.54 
  344.532,1394.23 347.061,1393.92 349.59,1393.6 352.119,1393.29 354.649,1392.96 357.178,1392.63 359.707,1392.3 362.236,1391.97 364.766,1391.63 367.295,1391.28 
  369.824,1390.94 372.353,1390.58 374.883,1390.23 377.412,1389.87 379.941,1389.5 382.47,1389.13 385,1388.76 387.529,1388.38 390.058,1388 392.587,1387.61 
  395.117,1387.22 397.646,1386.82 400.175,1386.42 402.704,1386.01 405.234,1385.6 407.763,1385.18 410.292,1384.75 412.821,1384.33 415.351,1383.89 417.88,1383.46 
  420.409,1383.01 422.938,1382.56 425.468,1382.11 427.997,1381.65 430.526,1381.18 433.055,1380.71 435.585,1380.23 438.114,1379.74 440.643,1379.25 443.172,1378.76 
  445.702,1378.25 448.231,1377.74 450.76,1377.23 453.289,1376.71 455.819,1376.18 458.348,1375.64 460.877,1375.1 463.406,1374.55 465.936,1374 468.465,1373.43 
  470.994,1372.86 473.523,1372.29 476.053,1371.7 478.582,1371.11 481.111,1370.51 483.64,1369.9 486.17,1369.29 488.699,1368.67 491.228,1368.04 493.757,1367.4 
  496.287,1366.75 498.816,1366.1 501.345,1365.43 503.874,1364.76 506.404,1364.08 508.933,1363.39 511.462,1362.69 513.991,1361.98 516.521,1361.27 519.05,1360.54 
  521.579,1359.81 524.108,1359.06 526.638,1358.31 529.167,1357.55 531.696,1356.77 534.225,1355.99 536.755,1355.19 539.284,1354.39 541.813,1353.58 544.342,1352.75 
  546.872,1351.91 549.401,1351.07 551.93,1350.21 554.459,1349.34 556.989,1348.46 559.518,1347.57 562.047,1346.67 564.576,1345.75 567.106,1344.82 569.635,1343.89 
  572.164,1342.93 574.693,1341.97 577.223,1340.99 579.752,1340.01 582.281,1339 584.81,1337.99 587.34,1336.96 589.869,1335.92 592.398,1334.86 594.927,1333.79 
  597.457,1332.71 599.986,1331.61 602.515,1330.5 605.044,1329.37 607.574,1328.23 610.103,1327.07 612.632,1325.9 615.161,1324.72 617.691,1323.51 620.22,1322.3 
  622.749,1321.06 625.278,1319.81 627.808,1318.54 630.337,1317.26 632.866,1315.96 635.395,1314.64 637.925,1313.3 640.454,1311.95 642.983,1310.58 645.512,1309.19 
  648.042,1307.79 650.571,1306.36 653.1,1304.92 655.629,1303.45 658.159,1301.97 660.688,1300.47 663.217,1298.95 665.746,1297.41 668.276,1295.84 670.805,1294.26 
  673.334,1292.66 675.863,1291.03 678.393,1289.39 680.922,1287.72 683.451,1286.03 685.98,1284.32 688.51,1282.59 691.039,1280.83 693.568,1279.05 696.097,1277.25 
  698.627,1275.42 701.156,1273.57 703.685,1271.7 706.214,1269.8 708.744,1267.88 711.273,1265.93 713.802,1263.95 716.331,1261.95 718.861,1259.93 721.39,1257.88 
  723.919,1255.8 726.448,1253.69 728.978,1251.56 731.507,1249.4 734.036,1247.21 736.565,1244.99 739.095,1242.75 741.624,1240.48 744.153,1238.17 746.682,1235.84 
  749.212,1233.48 751.741,1231.08 754.27,1228.66 756.799,1226.21 759.329,1223.72 761.858,1221.2 764.387,1218.66 766.916,1216.07 769.446,1213.46 771.975,1210.81 
  774.504,1208.13 
  "/>
<polyline clip-path="url(#clip092)" style="stroke:#1f78b4; stroke-linecap:round; stroke-linejoin:round; stroke-width:16; stroke-opacity:1; fill:none" points="
  268.654,1402.07 271.183,1401.85 273.713,1401.63 276.242,1401.41 278.771,1401.18 281.3,1400.95 283.83,1400.72 286.359,1400.48 288.888,1400.24 291.417,1400 
  293.947,1399.76 296.476,1399.51 299.005,1399.26 301.534,1399.01 304.064,1398.76 306.593,1398.5 309.122,1398.24 311.651,1397.97 314.181,1397.7 316.71,1397.43 
  319.239,1397.16 321.768,1396.88 324.298,1396.6 326.827,1396.32 329.356,1396.03 331.885,1395.74 334.415,1395.45 336.944,1395.15 339.473,1394.85 342.002,1394.54 
  344.532,1394.23 347.061,1393.92 349.59,1393.6 352.119,1393.29 354.649,1392.96 357.178,1392.63 359.707,1392.3 362.236,1391.97 364.766,1391.63 367.295,1391.28 
  369.824,1390.94 372.353,1390.58 374.883,1390.23 377.412,1389.87 379.941,1389.5 382.47,1389.13 385,1388.76 387.529,1388.38 390.058,1388 392.587,1387.61 
  395.117,1387.22 397.646,1386.82 400.175,1386.42 402.704,1386.01 405.234,1385.6 407.763,1385.18 410.292,1384.75 412.821,1384.33 415.351,1383.89 417.88,1383.46 
  420.409,1383.01 422.938,1382.56 425.468,1382.11 427.997,1381.65 430.526,1381.18 433.055,1380.71 435.585,1380.23 438.114,1379.74 440.643,1379.25 443.172,1378.76 
  445.702,1378.25 448.231,1377.74 450.76,1377.23 453.289,1376.71 455.819,1376.18 458.348,1375.64 460.877,1375.1 463.406,1374.55 465.936,1374 468.465,1373.43 
  470.994,1372.86 473.523,1372.29 476.053,1371.7 478.582,1371.11 481.111,1370.51 483.64,1369.9 486.17,1369.29 488.699,1368.67 491.228,1368.04 493.757,1367.4 
  496.287,1366.75 498.816,1366.1 501.345,1365.43 503.874,1364.76 506.404,1364.08 508.933,1363.39 511.462,1362.69 513.991,1361.98 516.521,1361.27 519.05,1360.54 
  521.579,1359.81 524.108,1359.06 526.638,1358.31 529.167,1357.55 531.696,1356.77 534.225,1355.99 536.755,1355.19 539.284,1354.39 541.813,1353.58 544.342,1352.75 
  546.872,1351.91 549.401,1351.07 551.93,1350.21 554.459,1349.34 556.989,1348.46 559.518,1347.57 562.047,1346.67 564.576,1345.75 567.106,1344.82 569.635,1343.89 
  572.164,1342.93 574.693,1341.97 577.223,1340.99 579.752,1340.01 582.281,1339 584.81,1337.99 587.34,1336.96 589.869,1335.92 592.398,1334.86 594.927,1333.79 
  597.457,1332.71 599.986,1331.61 602.515,1330.5 605.044,1329.37 607.574,1328.23 610.103,1327.07 612.632,1325.9 615.161,1324.72 617.691,1323.51 620.22,1322.3 
  622.749,1321.06 625.278,1319.81 627.808,1318.54 630.337,1317.26 632.866,1315.96 635.395,1314.64 637.925,1313.3 640.454,1311.95 642.983,1310.58 645.512,1309.19 
  648.042,1307.79 650.571,1306.36 653.1,1304.92 655.629,1303.45 658.159,1301.97 660.688,1300.47 663.217,1298.95 665.746,1297.41 668.276,1295.84 670.805,1294.26 
  673.334,1292.66 675.863,1291.03 678.393,1289.39 680.922,1287.72 683.451,1286.03 685.98,1284.32 688.51,1282.59 691.039,1280.83 693.568,1279.05 696.097,1277.25 
  698.627,1275.42 701.156,1273.57 703.685,1271.7 706.214,1269.8 708.744,1267.88 711.273,1265.93 713.802,1263.95 716.331,1261.95 718.861,1259.93 721.39,1257.88 
  723.919,1255.8 726.448,1253.69 728.978,1251.56 731.507,1249.4 734.036,1247.21 736.565,1244.99 739.095,1242.75 741.624,1240.48 744.153,1238.17 746.682,1235.84 
  749.212,1233.48 751.741,1231.08 754.27,1228.66 756.799,1226.21 759.329,1223.72 761.858,1221.2 764.387,1218.66 766.916,1216.07 769.446,1213.46 771.975,1210.81 
  774.504,1208.13 777.033,1205.42 779.563,1202.67 782.092,1199.89 784.621,1197.07 787.15,1194.22 789.68,1191.33 792.209,1188.41 794.738,1185.45 797.267,1182.45 
  799.797,1179.42 802.326,1176.34 804.855,1173.24 807.384,1170.09 809.914,1166.9 812.443,1163.68 814.972,1160.42 817.501,1157.12 820.031,1153.77 822.56,1150.39 
  825.089,1146.97 827.618,1143.51 830.148,1140 832.677,1136.46 835.206,1132.87 837.735,1129.24 840.265,1125.57 842.794,1121.85 845.323,1118.1 847.852,1114.29 
  850.382,1110.45 852.911,1106.56 855.44,1102.63 857.969,1098.65 860.499,1094.63 863.028,1090.56 865.557,1086.44 868.086,1082.28 870.616,1078.08 873.145,1073.83 
  875.674,1069.53 878.203,1065.18 880.733,1060.79 883.262,1056.35 885.791,1051.86 888.32,1047.33 890.85,1042.75 893.379,1038.12 895.908,1033.44 898.437,1028.71 
  900.967,1023.94 903.496,1019.11 906.025,1014.24 908.554,1009.32 911.084,1004.35 913.613,999.328 916.142,994.26 918.671,989.142 921.201,983.975 923.73,978.758 
  926.259,973.493 928.788,968.178 931.318,962.814 933.847,957.401 936.376,951.939 938.905,946.428 941.435,940.868 943.964,935.26 946.493,929.603 949.022,923.897 
  951.552,918.144 954.081,912.342 956.61,906.493 959.139,900.596 961.669,894.652 964.198,888.661 966.727,882.624 969.256,876.541 971.786,870.412 974.315,864.238 
  976.844,858.018 979.373,851.755 981.903,845.447 984.432,839.097 986.961,832.703 989.49,826.268 992.02,819.791 994.549,813.273 997.078,806.715 999.607,800.117 
  1002.14,793.481 1004.67,786.807 1007.2,780.096 1009.72,773.349 1012.25,766.566 1014.78,759.75 1017.31,752.9 1019.84,746.017 1022.37,739.103 1024.9,732.159 
  1027.43,725.186 1029.96,718.185 1032.49,711.158 1035.02,704.104 1037.55,697.027 1040.08,689.926 1042.6,682.804 1045.13,675.662 1047.66,668.501 1050.19,661.322 
  1052.72,654.128 1055.25,646.92 1057.78,639.698 1060.31,632.466 1062.84,625.224 1065.37,617.974 1067.9,610.719 1070.43,603.459 1072.96,596.196 1075.48,588.933 
  1078.01,581.671 1080.54,574.412 1083.07,567.158 1085.6,559.912 1088.13,552.674 1090.66,545.448 1093.19,538.234 1095.72,531.036 1098.25,523.856 1100.78,516.695 
  1103.31,509.556 1105.84,502.441 1108.37,495.352 1110.89,488.292 1113.42,481.262 1115.95,474.266 1118.48,467.306 1121.01,460.383 1123.54,453.501 1126.07,446.661 
  1128.6,439.867 1131.13,433.12 1133.66,426.424 1136.19,419.78 1138.72,413.191 1141.25,406.659 1143.77,400.188 1146.3,393.779 1148.83,387.435 1151.36,381.159 
  1153.89,374.952 1156.42,368.819 1158.95,362.76 1161.48,356.779 1164.01,350.879 1166.54,345.06 1169.07,339.327 1171.6,333.681 1174.13,328.126 1176.65,322.663 
  1179.18,317.294 1181.71,312.023 1184.24,306.851 1186.77,301.781 1189.3,296.816 1191.83,291.957 1194.36,287.206 1196.89,282.567 1199.42,278.04 1201.95,273.629 
  1204.48,269.336 1207.01,265.161 1209.54,261.108 1212.06,257.179 1214.59,253.374 1217.12,249.697 1219.65,246.149 1222.18,242.732 1224.71,239.446 1227.24,236.295 
  1229.77,233.28 1232.3,230.402 1234.83,227.662 1237.36,225.062 1239.89,222.604 1242.42,220.288 1244.94,218.116 1247.47,216.089 1250,214.207 1252.53,212.473 
  1255.06,210.886 1257.59,209.448 1260.12,208.16 1262.65,207.021 1265.18,206.033 1267.71,205.196 1270.24,204.51 1272.77,203.977 1275.3,203.596 1277.82,203.367 
  1280.35,203.291 1282.88,203.367 1285.41,203.596 1287.94,203.977 1290.47,204.51 1293,205.196 1295.53,206.033 1298.06,207.021 1300.59,208.16 1303.12,209.448 
  1305.65,210.886 1308.18,212.473 1310.71,214.207 1313.23,216.089 1315.76,218.116 1318.29,220.288 1320.82,222.604 1323.35,225.062 1325.88,227.662 1328.41,230.402 
  1330.94,233.28 1333.47,236.295 1336,239.446 1338.53,242.732 1341.06,246.149 1343.59,249.697 1346.11,253.374 1348.64,257.179 1351.17,261.108 1353.7,265.161 
  1356.23,269.336 1358.76,273.629 1361.29,278.04 1363.82,282.567 1366.35,287.206 1368.88,291.957 1371.41,296.816 1373.94,301.781 1376.47,306.851 1378.99,312.023 
  1381.52,317.294 1384.05,322.663 1386.58,328.126 1389.11,333.681 1391.64,339.327 1394.17,345.06 1396.7,350.879 1399.23,356.779 1401.76,362.76 1404.29,368.819 
  1406.82,374.952 1409.35,381.159 1411.88,387.435 1414.4,393.779 1416.93,400.188 1419.46,406.659 1421.99,413.191 1424.52,419.78 1427.05,426.424 1429.58,433.12 
  1432.11,439.867 1434.64,446.661 1437.17,453.501 1439.7,460.383 1442.23,467.306 1444.76,474.266 1447.28,481.262 1449.81,488.292 1452.34,495.352 1454.87,502.441 
  1457.4,509.556 1459.93,516.695 1462.46,523.856 1464.99,531.036 1467.52,538.234 1470.05,545.448 1472.58,552.674 1475.11,559.912 1477.64,567.158 1480.16,574.412 
  1482.69,581.671 1485.22,588.933 1487.75,596.196 1490.28,603.459 1492.81,610.719 1495.34,617.974 1497.87,625.224 1500.4,632.466 1502.93,639.698 1505.46,646.92 
  1507.99,654.128 1510.52,661.322 1513.04,668.501 1515.57,675.662 1518.1,682.804 1520.63,689.926 1523.16,697.027 1525.69,704.104 1528.22,711.158 1530.75,718.185 
  1533.28,725.186 1535.81,732.159 1538.34,739.103 1540.87,746.017 1543.4,752.9 1545.93,759.75 1548.45,766.566 1550.98,773.349 1553.51,780.096 1556.04,786.807 
  1558.57,793.481 1561.1,800.117 1563.63,806.715 1566.16,813.273 1568.69,819.791 1571.22,826.268 1573.75,832.703 1576.28,839.097 1578.81,845.447 1581.33,851.755 
  1583.86,858.018 1586.39,864.238 1588.92,870.412 1591.45,876.541 1593.98,882.624 1596.51,888.661 1599.04,894.652 1601.57,900.596 1604.1,906.493 1606.63,912.342 
  1609.16,918.144 1611.69,923.897 1614.21,929.603 1616.74,935.26 1619.27,940.868 1621.8,946.428 1624.33,951.939 1626.86,957.401 1629.39,962.814 1631.92,968.178 
  1634.45,973.493 1636.98,978.758 1639.51,983.975 1642.04,989.142 1644.57,994.26 1647.1,999.328 1649.62,1004.35 1652.15,1009.32 1654.68,1014.24 1657.21,1019.11 
  1659.74,1023.94 1662.27,1028.71 1664.8,1033.44 1667.33,1038.12 1669.86,1042.75 1672.39,1047.33 1674.92,1051.86 1677.45,1056.35 1679.98,1060.79 1682.5,1065.18 
  1685.03,1069.53 1687.56,1073.83 1690.09,1078.08 1692.62,1082.28 1695.15,1086.44 1697.68,1090.56 1700.21,1094.63 1702.74,1098.65 1705.27,1102.63 1707.8,1106.56 
  1710.33,1110.45 1712.86,1114.29 1715.38,1118.1 1717.91,1121.85 1720.44,1125.57 1722.97,1129.24 1725.5,1132.87 1728.03,1136.46 1730.56,1140 1733.09,1143.51 
  1735.62,1146.97 1738.15,1150.39 1740.68,1153.77 1743.21,1157.12 1745.74,1160.42 1748.27,1163.68 1750.79,1166.9 1753.32,1170.09 1755.85,1173.24 1758.38,1176.34 
  1760.91,1179.42 1763.44,1182.45 1765.97,1185.45 1768.5,1188.41 1771.03,1191.33 1773.56,1194.22 1776.09,1197.07 1778.62,1199.89 1781.15,1202.67 1783.67,1205.42 
  1786.2,1208.13 1788.73,1210.81 1791.26,1213.46 1793.79,1216.07 1796.32,1218.66 1798.85,1221.2 1801.38,1223.72 1803.91,1226.21 1806.44,1228.66 1808.97,1231.08 
  1811.5,1233.48 1814.03,1235.84 1816.55,1238.17 1819.08,1240.48 1821.61,1242.75 1824.14,1244.99 1826.67,1247.21 1829.2,1249.4 1831.73,1251.56 1834.26,1253.69 
  1836.79,1255.8 1839.32,1257.88 1841.85,1259.93 1844.38,1261.95 1846.91,1263.95 1849.44,1265.93 1851.96,1267.88 1854.49,1269.8 1857.02,1271.7 1859.55,1273.57 
  1862.08,1275.42 1864.61,1277.25 1867.14,1279.05 1869.67,1280.83 1872.2,1282.59 1874.73,1284.32 1877.26,1286.03 1879.79,1287.72 1882.32,1289.39 1884.84,1291.03 
  1887.37,1292.66 1889.9,1294.26 1892.43,1295.84 1894.96,1297.41 1897.49,1298.95 1900.02,1300.47 1902.55,1301.97 1905.08,1303.45 1907.61,1304.92 1910.14,1306.36 
  1912.67,1307.79 1915.2,1309.19 1917.72,1310.58 1920.25,1311.95 1922.78,1313.3 1925.31,1314.64 1927.84,1315.96 1930.37,1317.26 1932.9,1318.54 1935.43,1319.81 
  1937.96,1321.06 1940.49,1322.3 1943.02,1323.51 1945.55,1324.72 1948.08,1325.9 1950.61,1327.07 1953.13,1328.23 1955.66,1329.37 1958.19,1330.5 1960.72,1331.61 
  1963.25,1332.71 1965.78,1333.79 1968.31,1334.86 1970.84,1335.92 1973.37,1336.96 1975.9,1337.99 1978.43,1339 1980.96,1340.01 1983.49,1340.99 1986.01,1341.97 
  1988.54,1342.93 1991.07,1343.89 1993.6,1344.82 1996.13,1345.75 1998.66,1346.67 2001.19,1347.57 2003.72,1348.46 2006.25,1349.34 2008.78,1350.21 2011.31,1351.07 
  2013.84,1351.91 2016.37,1352.75 2018.89,1353.58 2021.42,1354.39 2023.95,1355.19 2026.48,1355.99 2029.01,1356.77 2031.54,1357.55 2034.07,1358.31 2036.6,1359.06 
  2039.13,1359.81 2041.66,1360.54 2044.19,1361.27 2046.72,1361.98 2049.25,1362.69 2051.78,1363.39 2054.3,1364.08 2056.83,1364.76 2059.36,1365.43 2061.89,1366.1 
  2064.42,1366.75 2066.95,1367.4 2069.48,1368.04 2072.01,1368.67 2074.54,1369.29 2077.07,1369.9 2079.6,1370.51 2082.13,1371.11 2084.66,1371.7 2087.18,1372.29 
  2089.71,1372.86 2092.24,1373.43 2094.77,1374 2097.3,1374.55 2099.83,1375.1 2102.36,1375.64 2104.89,1376.18 2107.42,1376.71 2109.95,1377.23 2112.48,1377.74 
  2115.01,1378.25 2117.54,1378.76 2120.06,1379.25 2122.59,1379.74 2125.12,1380.23 2127.65,1380.71 2130.18,1381.18 2132.71,1381.65 2135.24,1382.11 2137.77,1382.56 
  2140.3,1383.01 2142.83,1383.46 2145.36,1383.89 2147.89,1384.33 2150.42,1384.75 2152.95,1385.18 2155.47,1385.6 2158,1386.01 2160.53,1386.42 2163.06,1386.82 
  2165.59,1387.22 2168.12,1387.61 2170.65,1388 2173.18,1388.38 2175.71,1388.76 2178.24,1389.13 2180.77,1389.5 2183.3,1389.87 2185.83,1390.23 2188.35,1390.58 
  2190.88,1390.94 2193.41,1391.28 2195.94,1391.63 2198.47,1391.97 2201,1392.3 2203.53,1392.63 2206.06,1392.96 2208.59,1393.29 2211.12,1393.6 2213.65,1393.92 
  2216.18,1394.23 2218.71,1394.54 2221.23,1394.85 2223.76,1395.15 2226.29,1395.45 2228.82,1395.74 2231.35,1396.03 2233.88,1396.32 2236.41,1396.6 2238.94,1396.88 
  2241.47,1397.16 2244,1397.43 2246.53,1397.7 2249.06,1397.97 2251.59,1398.24 2254.12,1398.5 2256.64,1398.76 2259.17,1399.01 2261.7,1399.26 2264.23,1399.51 
  2266.76,1399.76 2269.29,1400 2271.82,1400.24 2274.35,1400.48 2276.88,1400.72 2279.41,1400.95 2281.94,1401.18 2284.47,1401.41 2287,1401.63 2289.52,1401.85 
  2292.05,1402.07 
  "/>
<polyline clip-path="url(#clip092)" style="stroke:#000000; stroke-linecap:round; stroke-linejoin:round; stroke-width:8; stroke-opacity:1; fill:none" points="
  496.287,1244.89 648.042,1375.08 
  "/>
<polyline clip-path="url(#clip092)" style="stroke:#000000; stroke-linecap:round; stroke-linejoin:round; stroke-width:8; stroke-opacity:1; fill:none" points="
  632.44,1337.98 648.042,1375.08 608.999,1365.3 
  "/>
<polyline clip-path="url(#clip092)" style="stroke:#000000; stroke-linecap:round; stroke-linejoin:round; stroke-width:8; stroke-opacity:1; fill:none" points="
  648.042,1375.08 496.287,1244.89 
  "/>
<polyline clip-path="url(#clip092)" style="stroke:#000000; stroke-linecap:round; stroke-linejoin:round; stroke-width:8; stroke-opacity:1; fill:none" points="
  2039.13,1244.89 1912.67,1375.08 
  "/>
<polyline clip-path="url(#clip092)" style="stroke:#000000; stroke-linecap:round; stroke-linejoin:round; stroke-width:8; stroke-opacity:1; fill:none" points="
  1950.66,1361.8 1912.67,1375.08 1924.84,1336.72 
  "/>
<polyline clip-path="url(#clip092)" style="stroke:#000000; stroke-linecap:round; stroke-linejoin:round; stroke-width:8; stroke-opacity:1; fill:none" points="
  1912.67,1375.08 2039.13,1244.89 
  "/>
<path clip-path="url(#clip090)" d="M728.44 1524.67 Q729.143 1525.38 729.143 1526.37 Q729.143 1527.37 728.44 1528.07 Q727.738 1528.77 726.742 1528.77 L651.673 1528.77 Q650.678 1528.77 649.975 1528.07 Q649.273 1527.37 649.273 1526.37 Q649.273 1525.38 649.975 1524.67 Q650.678 1523.97 651.673 1523.97 L726.742 1523.97 Q727.738 1523.97 728.44 1524.67 Z" fill="#000000" fill-rule="evenodd" fill-opacity="1" /><path clip-path="url(#clip090)" d="M778.496 1505.99 Q778.496 1507.63 777.735 1508.04 Q776.974 1508.4 774.866 1508.4 L763.623 1508.4 L754.722 1543.76 Q754.02 1546.87 754.02 1549.5 Q754.02 1552.43 754.898 1553.72 Q755.835 1555.01 757.767 1555.01 Q761.573 1555.01 765.672 1551.55 Q769.83 1548.1 773.343 1539.66 Q773.812 1538.55 774.046 1538.32 Q774.339 1538.02 775.1 1538.02 Q776.564 1538.02 776.564 1539.2 Q776.564 1539.61 775.744 1541.48 Q774.983 1543.35 773.285 1546.11 Q771.645 1548.86 769.479 1551.43 Q767.371 1554.01 764.15 1555.88 Q760.929 1557.7 757.475 1557.7 Q752.614 1557.7 749.511 1554.6 Q746.466 1551.49 746.466 1546.63 Q746.466 1545.05 747.696 1540.02 Q748.925 1534.92 755.601 1508.4 L745.002 1508.4 Q743.538 1508.4 742.953 1508.34 Q742.426 1508.28 742.016 1507.99 Q741.664 1507.63 741.664 1506.93 Q741.664 1505.82 742.133 1505.35 Q742.601 1504.82 743.187 1504.76 Q743.831 1504.65 745.295 1504.65 L756.538 1504.65 L761.222 1485.62 Q761.691 1483.74 762.862 1482.69 Q764.091 1481.58 764.794 1481.46 Q765.497 1481.28 766.024 1481.28 Q767.605 1481.28 768.542 1482.16 Q769.479 1482.98 769.479 1484.5 Q769.479 1485.32 764.56 1504.65 L775.1 1504.65 Q776.447 1504.65 776.974 1504.71 Q777.559 1504.76 778.028 1505.06 Q778.496 1505.35 778.496 1505.99 Z" fill="#000000" fill-rule="evenodd" fill-opacity="1" /><path clip-path="url(#clip090)" d="M838.03 1547.59 Q837.948 1548 837.784 1548.74 Q837.62 1549.43 836.882 1551.65 Q836.144 1553.86 835.161 1556.11 Q834.218 1558.33 832.373 1561.44 Q830.57 1564.52 828.356 1567.3 Q827.741 1568.04 827.619 1568.49 Q827.537 1568.9 827.537 1570.26 Q827.537 1578.78 830.119 1578.78 Q830.242 1578.78 830.447 1578.78 Q830.693 1578.74 831.308 1578.54 Q831.963 1578.29 832.537 1577.92 Q833.111 1577.51 833.767 1576.69 Q834.423 1575.83 834.833 1574.68 Q835.202 1573.86 835.939 1573.86 Q836.923 1573.86 836.923 1574.68 Q836.923 1576.16 834.874 1578.41 Q832.824 1580.67 829.873 1580.67 Q827.045 1580.67 825.036 1578.82 Q823.069 1576.94 822.249 1573.58 Q813.395 1580.67 804.542 1580.67 Q798.311 1580.67 794.622 1576.61 Q790.933 1572.51 790.933 1566.44 Q790.933 1560.62 794.13 1555.09 Q797.368 1549.56 802.615 1546.11 Q807.903 1542.63 813.518 1542.63 Q815.486 1542.63 817.371 1543.16 Q819.257 1543.65 821.142 1544.92 Q823.028 1546.2 824.421 1548.12 Q825.815 1550.05 826.676 1553.08 Q827.537 1556.11 827.537 1559.93 L827.537 1565.13 Q832.947 1558.29 835.775 1548.49 Q836.185 1547.01 836.431 1546.85 Q836.595 1546.73 837.005 1546.73 Q837.415 1546.73 837.661 1546.97 Q837.948 1547.18 837.989 1547.38 L838.03 1547.59 M821.921 1571.4 Q821.757 1569.97 821.757 1562.02 Q821.757 1560.5 821.757 1559.68 Q821.757 1558.82 821.675 1557.18 Q821.593 1555.54 821.429 1554.52 Q821.306 1553.49 821.019 1552.02 Q820.732 1550.54 820.322 1549.6 Q819.913 1548.65 819.257 1547.59 Q818.642 1546.52 817.822 1545.91 Q817.043 1545.29 815.896 1544.88 Q814.789 1544.47 813.436 1544.47 Q811.756 1544.47 809.993 1545.09 Q808.272 1545.66 806.058 1547.51 Q803.845 1549.31 802 1552.18 Q800.074 1555.21 798.598 1560.79 Q797.163 1566.32 797.163 1569.64 Q797.163 1573.82 799.09 1576.32 Q801.016 1578.78 804.706 1578.78 Q813.518 1578.78 821.921 1571.4 Z" fill="#000000" fill-rule="evenodd" fill-opacity="1" /><path clip-path="url(#clip090)" d="M419.612 1183.09 Q419.518 1183.56 419.331 1184.4 Q419.143 1185.2 418.3 1187.73 Q417.457 1190.26 416.333 1192.84 Q415.255 1195.37 413.147 1198.93 Q411.086 1202.44 408.556 1205.62 Q407.854 1206.47 407.713 1206.98 Q407.619 1207.45 407.619 1209 Q407.619 1218.74 410.571 1218.74 Q410.711 1218.74 410.945 1218.74 Q411.226 1218.69 411.929 1218.46 Q412.679 1218.18 413.334 1217.76 Q413.99 1217.29 414.74 1216.35 Q415.489 1215.37 415.958 1214.06 Q416.379 1213.12 417.223 1213.12 Q418.347 1213.12 418.347 1214.06 Q418.347 1215.74 416.005 1218.32 Q413.662 1220.9 410.29 1220.9 Q407.057 1220.9 404.762 1218.79 Q402.513 1216.63 401.576 1212.79 Q391.458 1220.9 381.339 1220.9 Q374.219 1220.9 370.003 1216.26 Q365.787 1211.57 365.787 1204.64 Q365.787 1197.99 369.441 1191.66 Q373.142 1185.34 379.138 1181.41 Q385.181 1177.42 391.598 1177.42 Q393.847 1177.42 396.002 1178.03 Q398.157 1178.59 400.312 1180.05 Q402.466 1181.5 404.059 1183.7 Q405.652 1185.9 406.636 1189.37 Q407.619 1192.84 407.619 1197.19 L407.619 1203.14 Q413.803 1195.32 417.035 1184.12 Q417.504 1182.44 417.785 1182.25 Q417.972 1182.11 418.441 1182.11 Q418.909 1182.11 419.19 1182.39 Q419.518 1182.62 419.565 1182.86 L419.612 1183.09 M401.202 1210.31 Q401.014 1208.67 401.014 1199.58 Q401.014 1197.85 401.014 1196.91 Q401.014 1195.93 400.921 1194.05 Q400.827 1192.18 400.639 1191.01 Q400.499 1189.84 400.171 1188.15 Q399.843 1186.46 399.375 1185.39 Q398.906 1184.31 398.157 1183.09 Q397.454 1181.87 396.517 1181.17 Q395.627 1180.47 394.315 1180 Q393.051 1179.53 391.505 1179.53 Q389.584 1179.53 387.57 1180.23 Q385.602 1180.89 383.073 1183 Q380.543 1185.06 378.435 1188.34 Q376.233 1191.81 374.547 1198.18 Q372.907 1204.5 372.907 1208.29 Q372.907 1213.07 375.109 1215.93 Q377.311 1218.74 381.527 1218.74 Q391.598 1218.74 401.202 1210.31 Z" fill="#000000" fill-rule="evenodd" fill-opacity="1" /><path clip-path="url(#clip090)" d="M426.563 1242.44 Q426.563 1241.98 426.938 1240.95 L460.807 1150.44 Q460.807 1150.35 461.041 1149.83 Q461.276 1149.32 461.416 1148.99 Q461.557 1148.61 461.838 1148.33 Q462.166 1148.05 462.54 1148.05 Q463.477 1148.05 463.477 1149.22 Q463.477 1149.32 463.196 1150.44 L429.234 1241.04 Q428.671 1242.68 428.297 1243.15 Q427.969 1243.62 427.407 1243.62 Q426.563 1243.62 426.563 1242.44 Z" fill="#000000" fill-rule="evenodd" fill-opacity="1" /><path clip-path="url(#clip090)" d="M474.071 1219.82 Q474.071 1218.09 474.212 1217.57 Q474.399 1217.05 475.149 1216.26 L493.559 1195.74 Q503.63 1184.4 503.63 1174.52 Q503.63 1168.1 500.258 1163.51 Q496.932 1158.92 490.795 1158.92 Q486.579 1158.92 483.019 1161.5 Q479.458 1164.07 477.819 1168.66 Q478.1 1168.57 479.084 1168.57 Q481.473 1168.57 482.784 1170.07 Q484.143 1171.57 484.143 1173.58 Q484.143 1176.16 482.457 1177.42 Q480.817 1178.64 479.177 1178.64 Q478.522 1178.64 477.631 1178.5 Q476.788 1178.36 475.43 1177.05 Q474.071 1175.69 474.071 1173.3 Q474.071 1166.6 479.131 1161.26 Q484.237 1155.92 492.013 1155.92 Q500.82 1155.92 506.582 1161.17 Q512.39 1166.37 512.39 1174.52 Q512.39 1177.38 511.5 1180 Q510.657 1182.58 509.486 1184.59 Q508.362 1186.61 505.27 1189.84 Q502.178 1193.07 499.695 1195.37 Q497.213 1197.66 491.638 1202.53 L481.473 1212.42 L498.759 1212.42 Q507.191 1212.42 507.846 1211.67 Q508.783 1210.31 509.954 1203.14 L512.39 1203.14 L509.673 1219.82 L474.071 1219.82 Z" fill="#000000" fill-rule="evenodd" fill-opacity="1" /><path clip-path="url(#clip090)" d="M1790.2 1505.99 Q1790.2 1507.63 1789.43 1508.04 Q1788.67 1508.4 1786.57 1508.4 L1775.32 1508.4 L1766.42 1543.76 Q1765.72 1546.87 1765.72 1549.5 Q1765.72 1552.43 1766.6 1553.72 Q1767.53 1555.01 1769.47 1555.01 Q1773.27 1555.01 1777.37 1551.55 Q1781.53 1548.1 1785.04 1539.66 Q1785.51 1538.55 1785.75 1538.32 Q1786.04 1538.02 1786.8 1538.02 Q1788.26 1538.02 1788.26 1539.2 Q1788.26 1539.61 1787.44 1541.48 Q1786.68 1543.35 1784.98 1546.11 Q1783.34 1548.86 1781.18 1551.43 Q1779.07 1554.01 1775.85 1555.88 Q1772.63 1557.7 1769.17 1557.7 Q1764.31 1557.7 1761.21 1554.6 Q1758.17 1551.49 1758.17 1546.63 Q1758.17 1545.05 1759.4 1540.02 Q1760.63 1534.92 1767.3 1508.4 L1756.7 1508.4 Q1755.24 1508.4 1754.65 1508.34 Q1754.13 1508.28 1753.72 1507.99 Q1753.36 1507.63 1753.36 1506.93 Q1753.36 1505.82 1753.83 1505.35 Q1754.3 1504.82 1754.89 1504.76 Q1755.53 1504.65 1756.99 1504.65 L1768.24 1504.65 L1772.92 1485.62 Q1773.39 1483.74 1774.56 1482.69 Q1775.79 1481.58 1776.49 1481.46 Q1777.2 1481.28 1777.72 1481.28 Q1779.3 1481.28 1780.24 1482.16 Q1781.18 1482.98 1781.18 1484.5 Q1781.18 1485.32 1776.26 1504.65 L1786.8 1504.65 Q1788.15 1504.65 1788.67 1504.71 Q1789.26 1504.76 1789.73 1505.06 Q1790.2 1505.35 1790.2 1505.99 Z" fill="#000000" fill-rule="evenodd" fill-opacity="1" /><path clip-path="url(#clip090)" d="M1849.73 1547.59 Q1849.65 1548 1849.48 1548.74 Q1849.32 1549.43 1848.58 1551.65 Q1847.84 1553.86 1846.86 1556.11 Q1845.92 1558.33 1844.07 1561.44 Q1842.27 1564.52 1840.06 1567.3 Q1839.44 1568.04 1839.32 1568.49 Q1839.24 1568.9 1839.24 1570.26 Q1839.24 1578.78 1841.82 1578.78 Q1841.94 1578.78 1842.15 1578.78 Q1842.39 1578.74 1843.01 1578.54 Q1843.66 1578.29 1844.24 1577.92 Q1844.81 1577.51 1845.47 1576.69 Q1846.12 1575.83 1846.53 1574.68 Q1846.9 1573.86 1847.64 1573.86 Q1848.62 1573.86 1848.62 1574.68 Q1848.62 1576.16 1846.57 1578.41 Q1844.52 1580.67 1841.57 1580.67 Q1838.74 1580.67 1836.74 1578.82 Q1834.77 1576.94 1833.95 1573.58 Q1825.1 1580.67 1816.24 1580.67 Q1810.01 1580.67 1806.32 1576.61 Q1802.63 1572.51 1802.63 1566.44 Q1802.63 1560.62 1805.83 1555.09 Q1809.07 1549.56 1814.31 1546.11 Q1819.6 1542.63 1825.22 1542.63 Q1827.19 1542.63 1829.07 1543.16 Q1830.96 1543.65 1832.84 1544.92 Q1834.73 1546.2 1836.12 1548.12 Q1837.51 1550.05 1838.38 1553.08 Q1839.24 1556.11 1839.24 1559.93 L1839.24 1565.13 Q1844.65 1558.29 1847.48 1548.49 Q1847.89 1547.01 1848.13 1546.85 Q1848.3 1546.73 1848.7 1546.73 Q1849.11 1546.73 1849.36 1546.97 Q1849.65 1547.18 1849.69 1547.38 L1849.73 1547.59 M1833.62 1571.4 Q1833.46 1569.97 1833.46 1562.02 Q1833.46 1560.5 1833.46 1559.68 Q1833.46 1558.82 1833.37 1557.18 Q1833.29 1555.54 1833.13 1554.52 Q1833.01 1553.49 1832.72 1552.02 Q1832.43 1550.54 1832.02 1549.6 Q1831.61 1548.65 1830.96 1547.59 Q1830.34 1546.52 1829.52 1545.91 Q1828.74 1545.29 1827.6 1544.88 Q1826.49 1544.47 1825.14 1544.47 Q1823.46 1544.47 1821.69 1545.09 Q1819.97 1545.66 1817.76 1547.51 Q1815.54 1549.31 1813.7 1552.18 Q1811.77 1555.21 1810.3 1560.79 Q1808.86 1566.32 1808.86 1569.64 Q1808.86 1573.82 1810.79 1576.32 Q1812.72 1578.78 1816.41 1578.78 Q1825.22 1578.78 1833.62 1571.4 Z" fill="#000000" fill-rule="evenodd" fill-opacity="1" /><path clip-path="url(#clip090)" d="M2063.62 1183.09 Q2063.53 1183.56 2063.34 1184.4 Q2063.16 1185.2 2062.31 1187.73 Q2061.47 1190.26 2060.34 1192.84 Q2059.27 1195.37 2057.16 1198.93 Q2055.1 1202.44 2052.57 1205.62 Q2051.87 1206.47 2051.73 1206.98 Q2051.63 1207.45 2051.63 1209 Q2051.63 1218.74 2054.58 1218.74 Q2054.72 1218.74 2054.96 1218.74 Q2055.24 1218.69 2055.94 1218.46 Q2056.69 1218.18 2057.35 1217.76 Q2058 1217.29 2058.75 1216.35 Q2059.5 1215.37 2059.97 1214.06 Q2060.39 1213.12 2061.23 1213.12 Q2062.36 1213.12 2062.36 1214.06 Q2062.36 1215.74 2060.02 1218.32 Q2057.67 1220.9 2054.3 1220.9 Q2051.07 1220.9 2048.77 1218.79 Q2046.53 1216.63 2045.59 1212.79 Q2035.47 1220.9 2025.35 1220.9 Q2018.23 1220.9 2014.02 1216.26 Q2009.8 1211.57 2009.8 1204.64 Q2009.8 1197.99 2013.45 1191.66 Q2017.15 1185.34 2023.15 1181.41 Q2029.19 1177.42 2035.61 1177.42 Q2037.86 1177.42 2040.01 1178.03 Q2042.17 1178.59 2044.32 1180.05 Q2046.48 1181.5 2048.07 1183.7 Q2049.66 1185.9 2050.65 1189.37 Q2051.63 1192.84 2051.63 1197.19 L2051.63 1203.14 Q2057.82 1195.32 2061.05 1184.12 Q2061.52 1182.44 2061.8 1182.25 Q2061.98 1182.11 2062.45 1182.11 Q2062.92 1182.11 2063.2 1182.39 Q2063.53 1182.62 2063.58 1182.86 L2063.62 1183.09 M2045.21 1210.31 Q2045.03 1208.67 2045.03 1199.58 Q2045.03 1197.85 2045.03 1196.91 Q2045.03 1195.93 2044.93 1194.05 Q2044.84 1192.18 2044.65 1191.01 Q2044.51 1189.84 2044.18 1188.15 Q2043.86 1186.46 2043.39 1185.39 Q2042.92 1184.31 2042.17 1183.09 Q2041.47 1181.87 2040.53 1181.17 Q2039.64 1180.47 2038.33 1180 Q2037.06 1179.53 2035.52 1179.53 Q2033.6 1179.53 2031.58 1180.23 Q2029.61 1180.89 2027.08 1183 Q2024.56 1185.06 2022.45 1188.34 Q2020.25 1191.81 2018.56 1198.18 Q2016.92 1204.5 2016.92 1208.29 Q2016.92 1213.07 2019.12 1215.93 Q2021.32 1218.74 2025.54 1218.74 Q2035.61 1218.74 2045.21 1210.31 Z" fill="#000000" fill-rule="evenodd" fill-opacity="1" /><path clip-path="url(#clip090)" d="M2070.58 1242.44 Q2070.58 1241.98 2070.95 1240.95 L2104.82 1150.44 Q2104.82 1150.35 2105.05 1149.83 Q2105.29 1149.32 2105.43 1148.99 Q2105.57 1148.61 2105.85 1148.33 Q2106.18 1148.05 2106.55 1148.05 Q2107.49 1148.05 2107.49 1149.22 Q2107.49 1149.32 2107.21 1150.44 L2073.25 1241.04 Q2072.68 1242.68 2072.31 1243.15 Q2071.98 1243.62 2071.42 1243.62 Q2070.58 1243.62 2070.58 1242.44 Z" fill="#000000" fill-rule="evenodd" fill-opacity="1" /><path clip-path="url(#clip090)" d="M2118.08 1219.82 Q2118.08 1218.09 2118.22 1217.57 Q2118.41 1217.05 2119.16 1216.26 L2137.57 1195.74 Q2147.64 1184.4 2147.64 1174.52 Q2147.64 1168.1 2144.27 1163.51 Q2140.94 1158.92 2134.81 1158.92 Q2130.59 1158.92 2127.03 1161.5 Q2123.47 1164.07 2121.83 1168.66 Q2122.11 1168.57 2123.1 1168.57 Q2125.49 1168.57 2126.8 1170.07 Q2128.16 1171.57 2128.16 1173.58 Q2128.16 1176.16 2126.47 1177.42 Q2124.83 1178.64 2123.19 1178.64 Q2122.53 1178.64 2121.64 1178.5 Q2120.8 1178.36 2119.44 1177.05 Q2118.08 1175.69 2118.08 1173.3 Q2118.08 1166.6 2123.14 1161.26 Q2128.25 1155.92 2136.03 1155.92 Q2144.83 1155.92 2150.59 1161.17 Q2156.4 1166.37 2156.4 1174.52 Q2156.4 1177.38 2155.51 1180 Q2154.67 1182.58 2153.5 1184.59 Q2152.37 1186.61 2149.28 1189.84 Q2146.19 1193.07 2143.71 1195.37 Q2141.22 1197.66 2135.65 1202.53 L2125.49 1212.42 L2142.77 1212.42 Q2151.2 1212.42 2151.86 1211.67 Q2152.8 1210.31 2153.97 1203.14 L2156.4 1203.14 L2153.69 1219.82 L2118.08 1219.82 Z" fill="#000000" fill-rule="evenodd" fill-opacity="1" /></svg>
