<?xml version="1.0" encoding="UTF-8"?>
<svg xmlns="http://www.w3.org/2000/svg" viewBox="0 0 64 64" width="512" height="512"><g id="_21-Grocery" data-name="21-Grocery"><path d="M12,3h3a3,3,0,0,1,3,3V23a0,0,0,0,1,0,0H6a0,0,0,0,1,0,0V9A6,6,0,0,1,12,3Z" fill="#ffcc80"/><path d="M18,6V23H15V6a2.996,2.996,0,0,0-3-3h3A2.996,2.996,0,0,1,18,6Z" fill="#ffb74d"/><path d="M22.9771,23c.0072-.0095.0158-.0179.0229-.0275.0071.01.0157.018.0229.0275h7.9545A4.9734,4.9734,0,0,0,27.99,15.1c.0007-.034.01-.0656.01-.1a5,5,0,0,0-10,0c0,.0342.0094.0658.01.1A4.9734,4.9734,0,0,0,15.0226,23Z" fill="#81c784"/><path d="M20,22.97c.01.01.02.02.02.03h-.04C19.98,22.99,19.99,22.98,20,22.97Z" fill="#66bb6a"/><path d="M32,20a4.98,4.98,0,0,1-1.02,3h-3a4.9762,4.9762,0,0,0-2.99-7.9c0-.03.01-.07.01-.1a5.013,5.013,0,0,0-3.5-4.78A5.3351,5.3351,0,0,1,23,10a5.0018,5.0018,0,0,1,5,5c0,.03-.01.07-.01.1A4.9993,4.9993,0,0,1,32,20Z" fill="#66bb6a"/><path d="M23.02,23h-.04c0-.01.01-.02.02-.03C23.01,22.98,23.02,22.99,23.02,23Z" fill="#66bb6a"/><path d="M40,12H31V9a2,2,0,0,1,2-2h5a2,2,0,0,1,2,2Z" fill="#eee"/><path d="M40,9v3H37V9a2.0059,2.0059,0,0,0-2-2h3A2.0059,2.0059,0,0,1,40,9Z" fill="#e0e0e0"/><path d="M29,23c0-5,3-6,3-9V12h7v2c0,3,3,4,3,9Z" fill="#ef5350"/><path d="M44,23V53a2,2,0,0,1-2,2H6a2,2,0,0,1-2-2V23Z" fill="#ffb74d"/><path d="M44,23V53a2.0059,2.0059,0,0,1-2,2H37a2.0059,2.0059,0,0,0,2-2V23Z" fill="#ffa726"/><path d="M16,23V53a2,2,0,0,1-2,2H6a2,2,0,0,1-2-2V23Z" fill="#ffa726"/><path d="M16,23V53a2.0059,2.0059,0,0,1-2,2H10V23Z" fill="#ff9800"/><path d="M10,49l5.4142,5.4142A1.9941,1.9941,0,0,1,14,55H6a1.9938,1.9938,0,0,1-1.4142-.5858Z" fill="#ffb74d"/><polygon points="54 43 54 61 44 61 44 43 38 43 49 31 60 43 54 43" fill="#64b5f6"/><rect x="50" y="43" width="4" height="18" fill="#42a5f5"/><polygon points="60 43 49 31 47 33.18 56 43 60 43" fill="#42a5f5"/><path d="M42,23H39c0-5-3-6-3-9H32V12h7v2C39,17,42,18,42,23Z" fill="#e53935"/><path d="M40,54H16.8157A2.9635,2.9635,0,0,0,17,53V24H43v6a1,1,0,0,0,2,0V23a1,1,0,0,0-1-1H42.9567a10.8637,10.8637,0,0,0-1.8893-5.24A5.16,5.16,0,0,1,40,14V13a1,1,0,0,0,1-1V9a3.0033,3.0033,0,0,0-3-3H33a3.0033,3.0033,0,0,0-3,3v3a1,1,0,0,0,1,1v1a3.3652,3.3652,0,0,1-.2828,1.3206,5.95,5.95,0,0,0-1.7543-.9886,5.9948,5.9948,0,0,0-9.958-3.8024L19,6a4.0042,4.0042,0,0,0-4-4H12A7.0081,7.0081,0,0,0,5,9V22H4a1,1,0,0,0-1,1V53a3.0033,3.0033,0,0,0,3,3H40a1,1,0,0,0,0-2ZM10,50.4141,13.5859,54H6.4141Zm5,2.1718-4-4V24h4ZM32,9a1.0009,1.0009,0,0,1,1-1h5a1.0009,1.0009,0,0,1,1,1v2H32Zm6,4v1a6.9456,6.9456,0,0,0,1.3643,3.8086A8.9943,8.9943,0,0,1,40.9492,22H30.0508a8.9943,8.9943,0,0,1,1.5849-4.1914A6.9456,6.9456,0,0,0,33,14V13ZM23,11a4.0046,4.0046,0,0,1,4,3.9531c-.0044.041-.0088.0908-.0093.1182a1,1,0,0,0,.8023,1.0088,3.9433,3.9433,0,0,1,1.9344,1.0176A10.4463,10.4463,0,0,0,28.0433,22H24V19.4141l1.707-1.7071a1,1,0,0,0-1.414-1.414L23,17.5859,21.707,16.293a1,1,0,0,0-1.414,1.414L22,19.4141V22H15.5659A3.9083,3.9083,0,0,1,15,20a4.009,4.009,0,0,1,3.2075-3.92c.0156-.0031.0277-.0131.043-.017.0115-.0027.0233.0016.0347-.0016a.9822.9822,0,0,0,.1441-.0688,1.0032,1.0032,0,0,0,.1288-.0616.9777.9777,0,0,0,.15-.1332.6019.6019,0,0,0,.2005-.2873.9819.9819,0,0,0,.0506-.1.9938.9938,0,0,0,.0508-.34l0-.2015A4,4,0,0,1,23,11ZM7,18h4a1,1,0,0,0,0-2H7V12h4a1,1,0,0,0,0-2H7V9a5.0059,5.0059,0,0,1,5-5h3a2.0023,2.0023,0,0,1,2,2v8.3463A6.0182,6.0182,0,0,0,13,20a5.8518,5.8518,0,0,0,.36,2H7Zm2,6V48.5859l-4,4V24ZM60.7373,42.3242l-11-12a1.0306,1.0306,0,0,0-1.4746,0l-11,12A1,1,0,0,0,38,44h5V61a1,1,0,0,0,1,1H54a1,1,0,0,0,1-1V44h5a1,1,0,0,0,.7373-1.6758ZM54,42a1,1,0,0,0-1,1V60H45V43a1,1,0,0,0-1-1H40.2734L49,32.48,57.7266,42ZM27,35.5A2.5026,2.5026,0,0,0,29.5,38h1a4.4881,4.4881,0,0,1,.5,8.95V49a1,1,0,0,1-2,0V47H26a1,1,0,0,1,0-2h4.5a2.5,2.5,0,0,0,0-5h-1a4.4881,4.4881,0,0,1-.5-8.9495V29a1,1,0,0,1,2,0v2h3a1,1,0,0,1,0,2H29.5A2.5026,2.5026,0,0,0,27,35.5Z"/></g></svg>
