<?xml version="1.0" encoding="utf-8"?>
<svg xmlns="http://www.w3.org/2000/svg" xmlns:xlink="http://www.w3.org/1999/xlink" width="600" height="400" viewBox="0 0 2400 1600">
<defs>
  <clipPath id="clip170">
    <rect x="0" y="0" width="2400" height="1600"/>
  </clipPath>
</defs>
<path clip-path="url(#clip170)" d="
M0 1600 L2400 1600 L2400 0 L0 0  Z
  " fill="#000000" fill-rule="evenodd" fill-opacity="0"/>
<defs>
  <clipPath id="clip171">
    <rect x="480" y="0" width="1681" height="1600"/>
  </clipPath>
</defs>
<path clip-path="url(#clip170)" d="
M207.952 1443.25 L2352.76 1443.25 L2352.76 47.2441 L207.952 47.2441  Z
  " fill="#000000" fill-rule="evenodd" fill-opacity="0"/>
<defs>
  <clipPath id="clip172">
    <rect x="207" y="47" width="2146" height="1397"/>
  </clipPath>
</defs>
<circle clip-path="url(#clip172)" cx="268.654" cy="1403.74" r="36" fill="#a6cee2" fill-rule="evenodd" fill-opacity="1" stroke="none"/>
<circle clip-path="url(#clip172)" cx="369.824" cy="1298.44" r="36" fill="#a6cee2" fill-rule="evenodd" fill-opacity="1" stroke="none"/>
<circle clip-path="url(#clip172)" cx="470.994" cy="1260.8" r="36" fill="#a6cee2" fill-rule="evenodd" fill-opacity="1" stroke="none"/>
<circle clip-path="url(#clip172)" cx="572.164" cy="1159.81" r="36" fill="#a6cee2" fill-rule="evenodd" fill-opacity="1" stroke="none"/>
<circle clip-path="url(#clip172)" cx="673.334" cy="1277.61" r="36" fill="#a6cee2" fill-rule="evenodd" fill-opacity="1" stroke="none"/>
<circle clip-path="url(#clip172)" cx="774.504" cy="1034.79" r="36" fill="#a6cee2" fill-rule="evenodd" fill-opacity="1" stroke="none"/>
<circle clip-path="url(#clip172)" cx="875.674" cy="919.212" r="36" fill="#a6cee2" fill-rule="evenodd" fill-opacity="1" stroke="none"/>
<circle clip-path="url(#clip172)" cx="976.844" cy="1003.58" r="36" fill="#a6cee2" fill-rule="evenodd" fill-opacity="1" stroke="none"/>
<circle clip-path="url(#clip172)" cx="1078.01" cy="690.058" r="36" fill="#a6cee2" fill-rule="evenodd" fill-opacity="1" stroke="none"/>
<circle clip-path="url(#clip172)" cx="1179.18" cy="982.095" r="36" fill="#a6cee2" fill-rule="evenodd" fill-opacity="1" stroke="none"/>
<circle clip-path="url(#clip172)" cx="1280.35" cy="958.492" r="36" fill="#a6cee2" fill-rule="evenodd" fill-opacity="1" stroke="none"/>
<circle clip-path="url(#clip172)" cx="1381.52" cy="860.805" r="36" fill="#a6cee2" fill-rule="evenodd" fill-opacity="1" stroke="none"/>
<circle clip-path="url(#clip172)" cx="1482.69" cy="985.714" r="36" fill="#a6cee2" fill-rule="evenodd" fill-opacity="1" stroke="none"/>
<circle clip-path="url(#clip172)" cx="1583.86" cy="695.099" r="36" fill="#a6cee2" fill-rule="evenodd" fill-opacity="1" stroke="none"/>
<circle clip-path="url(#clip172)" cx="1685.03" cy="774.617" r="36" fill="#a6cee2" fill-rule="evenodd" fill-opacity="1" stroke="none"/>
<circle clip-path="url(#clip172)" cx="1786.2" cy="682.641" r="36" fill="#a6cee2" fill-rule="evenodd" fill-opacity="1" stroke="none"/>
<circle clip-path="url(#clip172)" cx="1887.37" cy="307.505" r="36" fill="#a6cee2" fill-rule="evenodd" fill-opacity="1" stroke="none"/>
<circle clip-path="url(#clip172)" cx="1988.54" cy="352.041" r="36" fill="#a6cee2" fill-rule="evenodd" fill-opacity="1" stroke="none"/>
<circle clip-path="url(#clip172)" cx="2089.71" cy="419.089" r="36" fill="#a6cee2" fill-rule="evenodd" fill-opacity="1" stroke="none"/>
<circle clip-path="url(#clip172)" cx="2190.88" cy="288.382" r="36" fill="#a6cee2" fill-rule="evenodd" fill-opacity="1" stroke="none"/>
<circle clip-path="url(#clip172)" cx="2292.05" cy="86.7536" r="36" fill="#a6cee2" fill-rule="evenodd" fill-opacity="1" stroke="none"/>
</svg>
