<?xml version="1.0" encoding="UTF-8"?>
<svg xmlns="http://www.w3.org/2000/svg" xmlns:xlink="http://www.w3.org/1999/xlink" width="890pt" height="698pt" viewBox="0 0 890 698" version="1.1">
<g id="surface34">
<rect x="0" y="0" width="890" height="698" style="fill:rgb(100%,100%,100%);fill-opacity:1;stroke:none;"/>
<path style=" stroke:none;fill-rule:nonzero;fill:rgb(29.803922%,36.470588%,43.921569%);fill-opacity:1;" d="M 148.554688 177.957031 L 148.554688 520.183594 L 444.929688 691.296875 L 741.304688 520.183594 L 741.304688 177.957031 L 444.929688 6.84375 Z M 148.554688 177.957031 "/>
<path style="fill-rule:nonzero;fill:rgb(20%,20%,20%);fill-opacity:0.8;stroke-width:0.708661;stroke-linecap:round;stroke-linejoin:round;stroke:rgb(20%,20%,20%);stroke-opacity:0.8;stroke-miterlimit:10;" d="M 679.039062 280.625 C 679.039062 283.230469 675.128906 283.230469 675.128906 280.625 C 675.128906 278.019531 679.039062 278.019531 679.039062 280.625 "/>
<path style="fill-rule:nonzero;fill:rgb(20%,20%,20%);fill-opacity:0.8;stroke-width:0.708661;stroke-linecap:round;stroke-linejoin:round;stroke:rgb(20%,20%,20%);stroke-opacity:0.8;stroke-miterlimit:10;" d="M 623.945312 280.625 C 623.945312 283.230469 620.035156 283.230469 620.035156 280.625 C 620.035156 278.019531 623.945312 278.019531 623.945312 280.625 "/>
<path style="fill-rule:nonzero;fill:rgb(20%,20%,20%);fill-opacity:0.8;stroke-width:0.708661;stroke-linecap:round;stroke-linejoin:round;stroke:rgb(20%,20%,20%);stroke-opacity:0.8;stroke-miterlimit:10;" d="M 639.304688 280.625 C 639.304688 283.230469 635.394531 283.230469 635.394531 280.625 C 635.394531 278.019531 639.304688 278.019531 639.304688 280.625 "/>
<path style="fill-rule:nonzero;fill:rgb(20%,20%,20%);fill-opacity:0.8;stroke-width:0.708661;stroke-linecap:round;stroke-linejoin:round;stroke:rgb(20%,20%,20%);stroke-opacity:0.8;stroke-miterlimit:10;" d="M 243.476562 280.625 C 243.476562 283.230469 239.570312 283.230469 239.570312 280.625 C 239.570312 278.019531 243.476562 278.019531 243.476562 280.625 "/>
<path style="fill:none;stroke-width:1.066978;stroke-linecap:butt;stroke-linejoin:round;stroke:rgb(20%,20%,20%);stroke-opacity:1;stroke-miterlimit:10;" d="M 493.304688 280.625 L 603.417969 280.625 "/>
<path style="fill:none;stroke-width:1.066978;stroke-linecap:butt;stroke-linejoin:round;stroke:rgb(20%,20%,20%);stroke-opacity:1;stroke-miterlimit:10;" d="M 408.535156 280.625 L 327.984375 280.625 "/>
<path style="fill-rule:nonzero;fill:rgb(27.45098%,50.980392%,70.588235%);fill-opacity:0.8;stroke-width:1.066978;stroke-linecap:butt;stroke-linejoin:miter;stroke:rgb(20%,20%,20%);stroke-opacity:1;stroke-miterlimit:10;" d="M 493.304688 310.570312 L 408.535156 310.570312 L 408.535156 250.679688 L 493.304688 250.679688 Z M 493.304688 310.570312 "/>
<path style="fill:none;stroke-width:2.133957;stroke-linecap:butt;stroke-linejoin:miter;stroke:rgb(20%,20%,20%);stroke-opacity:1;stroke-miterlimit:10;" d="M 453.988281 310.570312 L 453.988281 250.679688 "/>
<path style="fill:none;stroke-width:4.267913;stroke-linecap:butt;stroke-linejoin:round;stroke:rgb(68.235294%,72.156863%,76.862745%);stroke-opacity:1;stroke-miterlimit:10;" d="M 148.554688 177.957031 L 148.554688 520.183594 L 444.929688 691.296875 L 741.304688 520.183594 L 741.304688 177.957031 L 444.929688 6.84375 Z M 148.554688 177.957031 "/>
<path style=" stroke:none;fill-rule:nonzero;fill:rgb(100%,100%,100%);fill-opacity:0.0196078;" d="M 193.882812 568.839844 L 193.882812 585.570312 L 179.398438 593.933594 L 164.910156 585.570312 L 164.910156 568.839844 L 179.398438 560.476562 Z M 193.882812 568.839844 "/>
<path style=" stroke:none;fill-rule:nonzero;fill:rgb(100%,100%,100%);fill-opacity:0.0196078;" d="M 222.859375 568.839844 L 222.859375 585.570312 L 208.371094 593.933594 L 193.882812 585.570312 L 193.882812 568.839844 L 208.371094 560.476562 Z M 222.859375 568.839844 "/>
<path style=" stroke:none;fill-rule:nonzero;fill:rgb(100%,100%,100%);fill-opacity:0.0196078;" d="M 251.832031 568.839844 L 251.832031 585.570312 L 237.347656 593.933594 L 222.859375 585.570312 L 222.859375 568.839844 L 237.347656 560.476562 Z M 251.832031 568.839844 "/>
<path style=" stroke:none;fill-rule:nonzero;fill:rgb(100%,100%,100%);fill-opacity:0.0196078;" d="M 121.449219 543.75 L 121.449219 560.476562 L 106.960938 568.839844 L 92.472656 560.476562 L 92.472656 543.75 L 106.960938 535.386719 Z M 121.449219 543.75 "/>
<path style=" stroke:none;fill-rule:nonzero;fill:rgb(100%,100%,100%);fill-opacity:0.0196078;" d="M 150.421875 543.75 L 150.421875 560.476562 L 135.9375 568.839844 L 121.449219 560.476562 L 121.449219 543.75 L 135.9375 535.386719 Z M 150.421875 543.75 "/>
<path style=" stroke:none;fill-rule:nonzero;fill:rgb(100%,100%,100%);fill-opacity:0.0196078;" d="M 179.398438 543.75 L 179.398438 560.476562 L 164.910156 568.839844 L 150.421875 560.476562 L 150.421875 543.75 L 164.910156 535.386719 Z M 179.398438 543.75 "/>
<path style=" stroke:none;fill-rule:nonzero;fill:rgb(100%,100%,100%);fill-opacity:0.0392157;" d="M 208.371094 543.75 L 208.371094 560.476562 L 193.882812 568.839844 L 179.398438 560.476562 L 179.398438 543.75 L 193.882812 535.386719 Z M 208.371094 543.75 "/>
<path style=" stroke:none;fill-rule:nonzero;fill:rgb(100%,100%,100%);fill-opacity:0.0392157;" d="M 237.347656 543.75 L 237.347656 560.476562 L 222.859375 568.839844 L 208.371094 560.476562 L 208.371094 543.75 L 222.859375 535.386719 Z M 237.347656 543.75 "/>
<path style=" stroke:none;fill-rule:nonzero;fill:rgb(100%,100%,100%);fill-opacity:0.0196078;" d="M 266.320312 543.75 L 266.320312 560.476562 L 251.832031 568.839844 L 237.347656 560.476562 L 237.347656 543.75 L 251.832031 535.386719 Z M 266.320312 543.75 "/>
<path style=" stroke:none;fill-rule:nonzero;fill:rgb(100%,100%,100%);fill-opacity:0.0196078;" d="M 295.296875 543.75 L 295.296875 560.476562 L 280.808594 568.839844 L 266.320312 560.476562 L 266.320312 543.75 L 280.808594 535.386719 Z M 295.296875 543.75 "/>
<path style=" stroke:none;fill-rule:nonzero;fill:rgb(100%,100%,100%);fill-opacity:0.0196078;" d="M 324.269531 543.75 L 324.269531 560.476562 L 309.78125 568.839844 L 295.296875 560.476562 L 295.296875 543.75 L 309.78125 535.386719 Z M 324.269531 543.75 "/>
<path style=" stroke:none;fill-rule:nonzero;fill:rgb(100%,100%,100%);fill-opacity:0.0196078;" d="M 77.988281 518.65625 L 77.988281 535.386719 L 63.5 543.75 L 49.011719 535.386719 L 49.011719 518.65625 L 63.5 510.292969 Z M 77.988281 518.65625 "/>
<path style=" stroke:none;fill-rule:nonzero;fill:rgb(100%,100%,100%);fill-opacity:0.0196078;" d="M 106.960938 518.65625 L 106.960938 535.386719 L 92.472656 543.75 L 77.988281 535.386719 L 77.988281 518.65625 L 92.472656 510.292969 Z M 106.960938 518.65625 "/>
<path style=" stroke:none;fill-rule:nonzero;fill:rgb(100%,100%,100%);fill-opacity:0.0392157;" d="M 135.9375 518.65625 L 135.9375 535.386719 L 121.449219 543.75 L 106.960938 535.386719 L 106.960938 518.65625 L 121.449219 510.292969 Z M 135.9375 518.65625 "/>
<path style=" stroke:none;fill-rule:nonzero;fill:rgb(100%,100%,100%);fill-opacity:0.0392157;" d="M 164.910156 518.65625 L 164.910156 535.386719 L 150.421875 543.75 L 135.9375 535.386719 L 135.9375 518.65625 L 150.421875 510.292969 Z M 164.910156 518.65625 "/>
<path style=" stroke:none;fill-rule:nonzero;fill:rgb(100%,100%,100%);fill-opacity:0.0588235;" d="M 193.882812 518.65625 L 193.882812 535.386719 L 179.398438 543.75 L 164.910156 535.386719 L 164.910156 518.65625 L 179.398438 510.292969 Z M 193.882812 518.65625 "/>
<path style=" stroke:none;fill-rule:nonzero;fill:rgb(100%,100%,100%);fill-opacity:0.0588235;" d="M 222.859375 518.65625 L 222.859375 535.386719 L 208.371094 543.75 L 193.882812 535.386719 L 193.882812 518.65625 L 208.371094 510.292969 Z M 222.859375 518.65625 "/>
<path style=" stroke:none;fill-rule:nonzero;fill:rgb(100%,100%,100%);fill-opacity:0.0588235;" d="M 251.832031 518.65625 L 251.832031 535.386719 L 237.347656 543.75 L 222.859375 535.386719 L 222.859375 518.65625 L 237.347656 510.292969 Z M 251.832031 518.65625 "/>
<path style=" stroke:none;fill-rule:nonzero;fill:rgb(100%,100%,100%);fill-opacity:0.0392157;" d="M 280.808594 518.65625 L 280.808594 535.386719 L 266.320312 543.75 L 251.832031 535.386719 L 251.832031 518.65625 L 266.320312 510.292969 Z M 280.808594 518.65625 "/>
<path style=" stroke:none;fill-rule:nonzero;fill:rgb(100%,100%,100%);fill-opacity:0.0392157;" d="M 309.78125 518.65625 L 309.78125 535.386719 L 295.296875 543.75 L 280.808594 535.386719 L 280.808594 518.65625 L 295.296875 510.292969 Z M 309.78125 518.65625 "/>
<path style=" stroke:none;fill-rule:nonzero;fill:rgb(100%,100%,100%);fill-opacity:0.0196078;" d="M 338.757812 518.65625 L 338.757812 535.386719 L 324.269531 543.75 L 309.78125 535.386719 L 309.78125 518.65625 L 324.269531 510.292969 Z M 338.757812 518.65625 "/>
<path style=" stroke:none;fill-rule:nonzero;fill:rgb(100%,100%,100%);fill-opacity:0.0196078;" d="M 63.5 493.5625 L 63.5 510.292969 L 49.011719 518.65625 L 34.527344 510.292969 L 34.527344 493.5625 L 49.011719 485.199219 Z M 63.5 493.5625 "/>
<path style=" stroke:none;fill-rule:nonzero;fill:rgb(100%,100%,100%);fill-opacity:0.0392157;" d="M 92.472656 493.5625 L 92.472656 510.292969 L 77.988281 518.65625 L 63.5 510.292969 L 63.5 493.5625 L 77.988281 485.199219 Z M 92.472656 493.5625 "/>
<path style=" stroke:none;fill-rule:nonzero;fill:rgb(100%,100%,100%);fill-opacity:0.0392157;" d="M 121.449219 493.5625 L 121.449219 510.292969 L 106.960938 518.65625 L 92.472656 510.292969 L 92.472656 493.5625 L 106.960938 485.199219 Z M 121.449219 493.5625 "/>
<path style=" stroke:none;fill-rule:nonzero;fill:rgb(100%,100%,100%);fill-opacity:0.0784314;" d="M 150.421875 493.5625 L 150.421875 510.292969 L 135.9375 518.65625 L 121.449219 510.292969 L 121.449219 493.5625 L 135.9375 485.199219 Z M 150.421875 493.5625 "/>
<path style=" stroke:none;fill-rule:nonzero;fill:rgb(100%,100%,100%);fill-opacity:0.101961;" d="M 179.398438 493.5625 L 179.398438 510.292969 L 164.910156 518.65625 L 150.421875 510.292969 L 150.421875 493.5625 L 164.910156 485.199219 Z M 179.398438 493.5625 "/>
<path style=" stroke:none;fill-rule:nonzero;fill:rgb(100%,100%,100%);fill-opacity:0.101961;" d="M 208.371094 493.5625 L 208.371094 510.292969 L 193.882812 518.65625 L 179.398438 510.292969 L 179.398438 493.5625 L 193.882812 485.199219 Z M 208.371094 493.5625 "/>
<path style=" stroke:none;fill-rule:nonzero;fill:rgb(100%,100%,100%);fill-opacity:0.101961;" d="M 237.347656 493.5625 L 237.347656 510.292969 L 222.859375 518.65625 L 208.371094 510.292969 L 208.371094 493.5625 L 222.859375 485.199219 Z M 237.347656 493.5625 "/>
<path style=" stroke:none;fill-rule:nonzero;fill:rgb(100%,100%,100%);fill-opacity:0.101961;" d="M 266.320312 493.5625 L 266.320312 510.292969 L 251.832031 518.65625 L 237.347656 510.292969 L 237.347656 493.5625 L 251.832031 485.199219 Z M 266.320312 493.5625 "/>
<path style=" stroke:none;fill-rule:nonzero;fill:rgb(100%,100%,100%);fill-opacity:0.0588235;" d="M 295.296875 493.5625 L 295.296875 510.292969 L 280.808594 518.65625 L 266.320312 510.292969 L 266.320312 493.5625 L 280.808594 485.199219 Z M 295.296875 493.5625 "/>
<path style=" stroke:none;fill-rule:nonzero;fill:rgb(100%,100%,100%);fill-opacity:0.0392157;" d="M 324.269531 493.5625 L 324.269531 510.292969 L 309.78125 518.65625 L 295.296875 510.292969 L 295.296875 493.5625 L 309.78125 485.199219 Z M 324.269531 493.5625 "/>
<path style=" stroke:none;fill-rule:nonzero;fill:rgb(100%,100%,100%);fill-opacity:0.0196078;" d="M 353.242188 493.5625 L 353.242188 510.292969 L 338.757812 518.65625 L 324.269531 510.292969 L 324.269531 493.5625 L 338.757812 485.199219 Z M 353.242188 493.5625 "/>
<path style=" stroke:none;fill-rule:nonzero;fill:rgb(100%,100%,100%);fill-opacity:0.0196078;" d="M 382.21875 493.5625 L 382.21875 510.292969 L 367.730469 518.65625 L 353.242188 510.292969 L 353.242188 493.5625 L 367.730469 485.199219 Z M 382.21875 493.5625 "/>
<path style=" stroke:none;fill-rule:nonzero;fill:rgb(100%,100%,100%);fill-opacity:0.0196078;" d="M 49.011719 468.472656 L 49.011719 485.199219 L 34.527344 493.5625 L 20.039062 485.199219 L 20.039062 468.472656 L 34.527344 460.105469 Z M 49.011719 468.472656 "/>
<path style=" stroke:none;fill-rule:nonzero;fill:rgb(100%,100%,100%);fill-opacity:0.0392157;" d="M 77.988281 468.472656 L 77.988281 485.199219 L 63.5 493.5625 L 49.011719 485.199219 L 49.011719 468.472656 L 63.5 460.105469 Z M 77.988281 468.472656 "/>
<path style=" stroke:none;fill-rule:nonzero;fill:rgb(100%,100%,100%);fill-opacity:0.0588235;" d="M 106.960938 468.472656 L 106.960938 485.199219 L 92.472656 493.5625 L 77.988281 485.199219 L 77.988281 468.472656 L 92.472656 460.105469 Z M 106.960938 468.472656 "/>
<path style=" stroke:none;fill-rule:nonzero;fill:rgb(100%,100%,100%);fill-opacity:0.0784314;" d="M 135.9375 468.472656 L 135.9375 485.199219 L 121.449219 493.5625 L 106.960938 485.199219 L 106.960938 468.472656 L 121.449219 460.105469 Z M 135.9375 468.472656 "/>
<path style=" stroke:none;fill-rule:nonzero;fill:rgb(100%,100%,100%);fill-opacity:0.121569;" d="M 164.910156 468.472656 L 164.910156 485.199219 L 150.421875 493.5625 L 135.9375 485.199219 L 135.9375 468.472656 L 150.421875 460.105469 Z M 164.910156 468.472656 "/>
<path style=" stroke:none;fill-rule:nonzero;fill:rgb(100%,100%,100%);fill-opacity:0.141176;" d="M 193.882812 468.472656 L 193.882812 485.199219 L 179.398438 493.5625 L 164.910156 485.199219 L 164.910156 468.472656 L 179.398438 460.105469 Z M 193.882812 468.472656 "/>
<path style=" stroke:none;fill-rule:nonzero;fill:rgb(100%,100%,100%);fill-opacity:0.160784;" d="M 222.859375 468.472656 L 222.859375 485.199219 L 208.371094 493.5625 L 193.882812 485.199219 L 193.882812 468.472656 L 208.371094 460.105469 Z M 222.859375 468.472656 "/>
<path style=" stroke:none;fill-rule:nonzero;fill:rgb(100%,100%,100%);fill-opacity:0.141176;" d="M 251.832031 468.472656 L 251.832031 485.199219 L 237.347656 493.5625 L 222.859375 485.199219 L 222.859375 468.472656 L 237.347656 460.105469 Z M 251.832031 468.472656 "/>
<path style=" stroke:none;fill-rule:nonzero;fill:rgb(100%,100%,100%);fill-opacity:0.121569;" d="M 280.808594 468.472656 L 280.808594 485.199219 L 266.320312 493.5625 L 251.832031 485.199219 L 251.832031 468.472656 L 266.320312 460.105469 Z M 280.808594 468.472656 "/>
<path style=" stroke:none;fill-rule:nonzero;fill:rgb(100%,100%,100%);fill-opacity:0.101961;" d="M 309.78125 468.472656 L 309.78125 485.199219 L 295.296875 493.5625 L 280.808594 485.199219 L 280.808594 468.472656 L 295.296875 460.105469 Z M 309.78125 468.472656 "/>
<path style=" stroke:none;fill-rule:nonzero;fill:rgb(100%,100%,100%);fill-opacity:0.0588235;" d="M 338.757812 468.472656 L 338.757812 485.199219 L 324.269531 493.5625 L 309.78125 485.199219 L 309.78125 468.472656 L 324.269531 460.105469 Z M 338.757812 468.472656 "/>
<path style=" stroke:none;fill-rule:nonzero;fill:rgb(100%,100%,100%);fill-opacity:0.0392157;" d="M 367.730469 468.472656 L 367.730469 485.199219 L 353.242188 493.5625 L 338.757812 485.199219 L 338.757812 468.472656 L 353.242188 460.105469 Z M 367.730469 468.472656 "/>
<path style=" stroke:none;fill-rule:nonzero;fill:rgb(100%,100%,100%);fill-opacity:0.0196078;" d="M 396.707031 468.472656 L 396.707031 485.199219 L 382.21875 493.5625 L 367.730469 485.199219 L 367.730469 468.472656 L 382.21875 460.105469 Z M 396.707031 468.472656 "/>
<path style=" stroke:none;fill-rule:nonzero;fill:rgb(100%,100%,100%);fill-opacity:0.0196078;" d="M 34.527344 443.378906 L 34.527344 460.105469 L 20.039062 468.472656 L 5.550781 460.105469 L 5.550781 443.378906 L 20.039062 435.015625 Z M 34.527344 443.378906 "/>
<path style=" stroke:none;fill-rule:nonzero;fill:rgb(100%,100%,100%);fill-opacity:0.0392157;" d="M 63.5 443.378906 L 63.5 460.105469 L 49.011719 468.472656 L 34.527344 460.105469 L 34.527344 443.378906 L 49.011719 435.015625 Z M 63.5 443.378906 "/>
<path style=" stroke:none;fill-rule:nonzero;fill:rgb(100%,100%,100%);fill-opacity:0.0588235;" d="M 92.472656 443.378906 L 92.472656 460.105469 L 77.988281 468.472656 L 63.5 460.105469 L 63.5 443.378906 L 77.988281 435.015625 Z M 92.472656 443.378906 "/>
<path style=" stroke:none;fill-rule:nonzero;fill:rgb(100%,100%,100%);fill-opacity:0.101961;" d="M 121.449219 443.378906 L 121.449219 460.105469 L 106.960938 468.472656 L 92.472656 460.105469 L 92.472656 443.378906 L 106.960938 435.015625 Z M 121.449219 443.378906 "/>
<path style=" stroke:none;fill-rule:nonzero;fill:rgb(100%,100%,100%);fill-opacity:0.141176;" d="M 150.421875 443.378906 L 150.421875 460.105469 L 135.9375 468.472656 L 121.449219 460.105469 L 121.449219 443.378906 L 135.9375 435.015625 Z M 150.421875 443.378906 "/>
<path style=" stroke:none;fill-rule:nonzero;fill:rgb(100%,100%,100%);fill-opacity:0.180392;" d="M 179.398438 443.378906 L 179.398438 460.105469 L 164.910156 468.472656 L 150.421875 460.105469 L 150.421875 443.378906 L 164.910156 435.015625 Z M 179.398438 443.378906 "/>
<path style=" stroke:none;fill-rule:nonzero;fill:rgb(100%,100%,100%);fill-opacity:0.2;" d="M 208.371094 443.378906 L 208.371094 460.105469 L 193.882812 468.472656 L 179.398438 460.105469 L 179.398438 443.378906 L 193.882812 435.015625 Z M 208.371094 443.378906 "/>
<path style=" stroke:none;fill-rule:nonzero;fill:rgb(100%,100%,100%);fill-opacity:0.2;" d="M 237.347656 443.378906 L 237.347656 460.105469 L 222.859375 468.472656 L 208.371094 460.105469 L 208.371094 443.378906 L 222.859375 435.015625 Z M 237.347656 443.378906 "/>
<path style=" stroke:none;fill-rule:nonzero;fill:rgb(100%,100%,100%);fill-opacity:0.180392;" d="M 266.320312 443.378906 L 266.320312 460.105469 L 251.832031 468.472656 L 237.347656 460.105469 L 237.347656 443.378906 L 251.832031 435.015625 Z M 266.320312 443.378906 "/>
<path style=" stroke:none;fill-rule:nonzero;fill:rgb(100%,100%,100%);fill-opacity:0.141176;" d="M 295.296875 443.378906 L 295.296875 460.105469 L 280.808594 468.472656 L 266.320312 460.105469 L 266.320312 443.378906 L 280.808594 435.015625 Z M 295.296875 443.378906 "/>
<path style=" stroke:none;fill-rule:nonzero;fill:rgb(100%,100%,100%);fill-opacity:0.101961;" d="M 324.269531 443.378906 L 324.269531 460.105469 L 309.78125 468.472656 L 295.296875 460.105469 L 295.296875 443.378906 L 309.78125 435.015625 Z M 324.269531 443.378906 "/>
<path style=" stroke:none;fill-rule:nonzero;fill:rgb(100%,100%,100%);fill-opacity:0.0588235;" d="M 353.242188 443.378906 L 353.242188 460.105469 L 338.757812 468.472656 L 324.269531 460.105469 L 324.269531 443.378906 L 338.757812 435.015625 Z M 353.242188 443.378906 "/>
<path style=" stroke:none;fill-rule:nonzero;fill:rgb(100%,100%,100%);fill-opacity:0.0392157;" d="M 382.21875 443.378906 L 382.21875 460.105469 L 367.730469 468.472656 L 353.242188 460.105469 L 353.242188 443.378906 L 367.730469 435.015625 Z M 382.21875 443.378906 "/>
<path style=" stroke:none;fill-rule:nonzero;fill:rgb(100%,100%,100%);fill-opacity:0.0196078;" d="M 411.191406 443.378906 L 411.191406 460.105469 L 396.707031 468.472656 L 382.21875 460.105469 L 382.21875 443.378906 L 396.707031 435.015625 Z M 411.191406 443.378906 "/>
<path style=" stroke:none;fill-rule:nonzero;fill:rgb(100%,100%,100%);fill-opacity:0.0196078;" d="M 20.039062 418.285156 L 20.039062 435.015625 L 5.550781 443.378906 L -8.9375 435.015625 L -8.9375 418.285156 L 5.550781 409.921875 Z M 20.039062 418.285156 "/>
<path style=" stroke:none;fill-rule:nonzero;fill:rgb(100%,100%,100%);fill-opacity:0.0392157;" d="M 49.011719 418.285156 L 49.011719 435.015625 L 34.527344 443.378906 L 20.039062 435.015625 L 20.039062 418.285156 L 34.527344 409.921875 Z M 49.011719 418.285156 "/>
<path style=" stroke:none;fill-rule:nonzero;fill:rgb(100%,100%,100%);fill-opacity:0.0588235;" d="M 77.988281 418.285156 L 77.988281 435.015625 L 63.5 443.378906 L 49.011719 435.015625 L 49.011719 418.285156 L 63.5 409.921875 Z M 77.988281 418.285156 "/>
<path style=" stroke:none;fill-rule:nonzero;fill:rgb(100%,100%,100%);fill-opacity:0.101961;" d="M 106.960938 418.285156 L 106.960938 435.015625 L 92.472656 443.378906 L 77.988281 435.015625 L 77.988281 418.285156 L 92.472656 409.921875 Z M 106.960938 418.285156 "/>
<path style=" stroke:none;fill-rule:nonzero;fill:rgb(100%,100%,100%);fill-opacity:0.160784;" d="M 135.9375 418.285156 L 135.9375 435.015625 L 121.449219 443.378906 L 106.960938 435.015625 L 106.960938 418.285156 L 121.449219 409.921875 Z M 135.9375 418.285156 "/>
<path style=" stroke:none;fill-rule:nonzero;fill:rgb(100%,100%,100%);fill-opacity:0.2;" d="M 164.910156 418.285156 L 164.910156 435.015625 L 150.421875 443.378906 L 135.9375 435.015625 L 135.9375 418.285156 L 150.421875 409.921875 Z M 164.910156 418.285156 "/>
<path style=" stroke:none;fill-rule:nonzero;fill:rgb(100%,100%,100%);fill-opacity:0.239216;" d="M 193.882812 418.285156 L 193.882812 435.015625 L 179.398438 443.378906 L 164.910156 435.015625 L 164.910156 418.285156 L 179.398438 409.921875 Z M 193.882812 418.285156 "/>
<path style=" stroke:none;fill-rule:nonzero;fill:rgb(100%,100%,100%);fill-opacity:0.258824;" d="M 222.859375 418.285156 L 222.859375 435.015625 L 208.371094 443.378906 L 193.882812 435.015625 L 193.882812 418.285156 L 208.371094 409.921875 Z M 222.859375 418.285156 "/>
<path style=" stroke:none;fill-rule:nonzero;fill:rgb(100%,100%,100%);fill-opacity:0.239216;" d="M 251.832031 418.285156 L 251.832031 435.015625 L 237.347656 443.378906 L 222.859375 435.015625 L 222.859375 418.285156 L 237.347656 409.921875 Z M 251.832031 418.285156 "/>
<path style=" stroke:none;fill-rule:nonzero;fill:rgb(100%,100%,100%);fill-opacity:0.2;" d="M 280.808594 418.285156 L 280.808594 435.015625 L 266.320312 443.378906 L 251.832031 435.015625 L 251.832031 418.285156 L 266.320312 409.921875 Z M 280.808594 418.285156 "/>
<path style=" stroke:none;fill-rule:nonzero;fill:rgb(100%,100%,100%);fill-opacity:0.160784;" d="M 309.78125 418.285156 L 309.78125 435.015625 L 295.296875 443.378906 L 280.808594 435.015625 L 280.808594 418.285156 L 295.296875 409.921875 Z M 309.78125 418.285156 "/>
<path style=" stroke:none;fill-rule:nonzero;fill:rgb(100%,100%,100%);fill-opacity:0.101961;" d="M 338.757812 418.285156 L 338.757812 435.015625 L 324.269531 443.378906 L 309.78125 435.015625 L 309.78125 418.285156 L 324.269531 409.921875 Z M 338.757812 418.285156 "/>
<path style=" stroke:none;fill-rule:nonzero;fill:rgb(100%,100%,100%);fill-opacity:0.0588235;" d="M 367.730469 418.285156 L 367.730469 435.015625 L 353.242188 443.378906 L 338.757812 435.015625 L 338.757812 418.285156 L 353.242188 409.921875 Z M 367.730469 418.285156 "/>
<path style=" stroke:none;fill-rule:nonzero;fill:rgb(100%,100%,100%);fill-opacity:0.0196078;" d="M 396.707031 418.285156 L 396.707031 435.015625 L 382.21875 443.378906 L 367.730469 435.015625 L 367.730469 418.285156 L 382.21875 409.921875 Z M 396.707031 418.285156 "/>
<path style=" stroke:none;fill-rule:nonzero;fill:rgb(100%,100%,100%);fill-opacity:0.0196078;" d="M 425.679688 418.285156 L 425.679688 435.015625 L 411.191406 443.378906 L 396.707031 435.015625 L 396.707031 418.285156 L 411.191406 409.921875 Z M 425.679688 418.285156 "/>
<path style=" stroke:none;fill-rule:nonzero;fill:rgb(100%,100%,100%);fill-opacity:0.0196078;" d="M 34.527344 393.195312 L 34.527344 409.921875 L 20.039062 418.285156 L 5.550781 409.921875 L 5.550781 393.195312 L 20.039062 384.828125 Z M 34.527344 393.195312 "/>
<path style=" stroke:none;fill-rule:nonzero;fill:rgb(100%,100%,100%);fill-opacity:0.0588235;" d="M 63.5 393.195312 L 63.5 409.921875 L 49.011719 418.285156 L 34.527344 409.921875 L 34.527344 393.195312 L 49.011719 384.828125 Z M 63.5 393.195312 "/>
<path style=" stroke:none;fill-rule:nonzero;fill:rgb(100%,100%,100%);fill-opacity:0.101961;" d="M 92.472656 393.195312 L 92.472656 409.921875 L 77.988281 418.285156 L 63.5 409.921875 L 63.5 393.195312 L 77.988281 384.828125 Z M 92.472656 393.195312 "/>
<path style=" stroke:none;fill-rule:nonzero;fill:rgb(100%,100%,100%);fill-opacity:0.160784;" d="M 121.449219 393.195312 L 121.449219 409.921875 L 106.960938 418.285156 L 92.472656 409.921875 L 92.472656 393.195312 L 106.960938 384.828125 Z M 121.449219 393.195312 "/>
<path style=" stroke:none;fill-rule:nonzero;fill:rgb(100%,100%,100%);fill-opacity:0.219608;" d="M 150.421875 393.195312 L 150.421875 409.921875 L 135.9375 418.285156 L 121.449219 409.921875 L 121.449219 393.195312 L 135.9375 384.828125 Z M 150.421875 393.195312 "/>
<path style=" stroke:none;fill-rule:nonzero;fill:rgb(100%,100%,100%);fill-opacity:0.258824;" d="M 179.398438 393.195312 L 179.398438 409.921875 L 164.910156 418.285156 L 150.421875 409.921875 L 150.421875 393.195312 L 164.910156 384.828125 Z M 179.398438 393.195312 "/>
<path style=" stroke:none;fill-rule:nonzero;fill:rgb(100%,100%,100%);fill-opacity:0.278431;" d="M 208.371094 393.195312 L 208.371094 409.921875 L 193.882812 418.285156 L 179.398438 409.921875 L 179.398438 393.195312 L 193.882812 384.828125 Z M 208.371094 393.195312 "/>
<path style=" stroke:none;fill-rule:nonzero;fill:rgb(100%,100%,100%);fill-opacity:0.301961;" d="M 237.347656 393.195312 L 237.347656 409.921875 L 222.859375 418.285156 L 208.371094 409.921875 L 208.371094 393.195312 L 222.859375 384.828125 Z M 237.347656 393.195312 "/>
<path style=" stroke:none;fill-rule:nonzero;fill:rgb(100%,100%,100%);fill-opacity:0.258824;" d="M 266.320312 393.195312 L 266.320312 409.921875 L 251.832031 418.285156 L 237.347656 409.921875 L 237.347656 393.195312 L 251.832031 384.828125 Z M 266.320312 393.195312 "/>
<path style=" stroke:none;fill-rule:nonzero;fill:rgb(100%,100%,100%);fill-opacity:0.219608;" d="M 295.296875 393.195312 L 295.296875 409.921875 L 280.808594 418.285156 L 266.320312 409.921875 L 266.320312 393.195312 L 280.808594 384.828125 Z M 295.296875 393.195312 "/>
<path style=" stroke:none;fill-rule:nonzero;fill:rgb(100%,100%,100%);fill-opacity:0.160784;" d="M 324.269531 393.195312 L 324.269531 409.921875 L 309.78125 418.285156 L 295.296875 409.921875 L 295.296875 393.195312 L 309.78125 384.828125 Z M 324.269531 393.195312 "/>
<path style=" stroke:none;fill-rule:nonzero;fill:rgb(100%,100%,100%);fill-opacity:0.101961;" d="M 353.242188 393.195312 L 353.242188 409.921875 L 338.757812 418.285156 L 324.269531 409.921875 L 324.269531 393.195312 L 338.757812 384.828125 Z M 353.242188 393.195312 "/>
<path style=" stroke:none;fill-rule:nonzero;fill:rgb(100%,100%,100%);fill-opacity:0.0588235;" d="M 382.21875 393.195312 L 382.21875 409.921875 L 367.730469 418.285156 L 353.242188 409.921875 L 353.242188 393.195312 L 367.730469 384.828125 Z M 382.21875 393.195312 "/>
<path style=" stroke:none;fill-rule:nonzero;fill:rgb(100%,100%,100%);fill-opacity:0.0196078;" d="M 411.191406 393.195312 L 411.191406 409.921875 L 396.707031 418.285156 L 382.21875 409.921875 L 382.21875 393.195312 L 396.707031 384.828125 Z M 411.191406 393.195312 "/>
<path style=" stroke:none;fill-rule:nonzero;fill:rgb(100%,100%,100%);fill-opacity:0.0196078;" d="M 20.039062 368.101562 L 20.039062 384.828125 L 5.550781 393.195312 L -8.9375 384.828125 L -8.9375 368.101562 L 5.550781 359.738281 Z M 20.039062 368.101562 "/>
<path style=" stroke:none;fill-rule:nonzero;fill:rgb(100%,100%,100%);fill-opacity:0.0392157;" d="M 49.011719 368.101562 L 49.011719 384.828125 L 34.527344 393.195312 L 20.039062 384.828125 L 20.039062 368.101562 L 34.527344 359.738281 Z M 49.011719 368.101562 "/>
<path style=" stroke:none;fill-rule:nonzero;fill:rgb(100%,100%,100%);fill-opacity:0.0784314;" d="M 77.988281 368.101562 L 77.988281 384.828125 L 63.5 393.195312 L 49.011719 384.828125 L 49.011719 368.101562 L 63.5 359.738281 Z M 77.988281 368.101562 "/>
<path style=" stroke:none;fill-rule:nonzero;fill:rgb(100%,100%,100%);fill-opacity:0.141176;" d="M 106.960938 368.101562 L 106.960938 384.828125 L 92.472656 393.195312 L 77.988281 384.828125 L 77.988281 368.101562 L 92.472656 359.738281 Z M 106.960938 368.101562 "/>
<path style=" stroke:none;fill-rule:nonzero;fill:rgb(100%,100%,100%);fill-opacity:0.2;" d="M 135.9375 368.101562 L 135.9375 384.828125 L 121.449219 393.195312 L 106.960938 384.828125 L 106.960938 368.101562 L 121.449219 359.738281 Z M 135.9375 368.101562 "/>
<path style=" stroke:none;fill-rule:nonzero;fill:rgb(100%,100%,100%);fill-opacity:0.239216;" d="M 164.910156 368.101562 L 164.910156 384.828125 L 150.421875 393.195312 L 135.9375 384.828125 L 135.9375 368.101562 L 150.421875 359.738281 Z M 164.910156 368.101562 "/>
<path style=" stroke:none;fill-rule:nonzero;fill:rgb(100%,100%,100%);fill-opacity:0.301961;" d="M 193.882812 368.101562 L 193.882812 384.828125 L 179.398438 393.195312 L 164.910156 384.828125 L 164.910156 368.101562 L 179.398438 359.738281 Z M 193.882812 368.101562 "/>
<path style=" stroke:none;fill-rule:nonzero;fill:rgb(100%,100%,100%);fill-opacity:0.301961;" d="M 222.859375 368.101562 L 222.859375 384.828125 L 208.371094 393.195312 L 193.882812 384.828125 L 193.882812 368.101562 L 208.371094 359.738281 Z M 222.859375 368.101562 "/>
<path style=" stroke:none;fill-rule:nonzero;fill:rgb(100%,100%,100%);fill-opacity:0.301961;" d="M 251.832031 368.101562 L 251.832031 384.828125 L 237.347656 393.195312 L 222.859375 384.828125 L 222.859375 368.101562 L 237.347656 359.738281 Z M 251.832031 368.101562 "/>
<path style=" stroke:none;fill-rule:nonzero;fill:rgb(100%,100%,100%);fill-opacity:0.239216;" d="M 280.808594 368.101562 L 280.808594 384.828125 L 266.320312 393.195312 L 251.832031 384.828125 L 251.832031 368.101562 L 266.320312 359.738281 Z M 280.808594 368.101562 "/>
<path style=" stroke:none;fill-rule:nonzero;fill:rgb(100%,100%,100%);fill-opacity:0.2;" d="M 309.78125 368.101562 L 309.78125 384.828125 L 295.296875 393.195312 L 280.808594 384.828125 L 280.808594 368.101562 L 295.296875 359.738281 Z M 309.78125 368.101562 "/>
<path style=" stroke:none;fill-rule:nonzero;fill:rgb(100%,100%,100%);fill-opacity:0.141176;" d="M 338.757812 368.101562 L 338.757812 384.828125 L 324.269531 393.195312 L 309.78125 384.828125 L 309.78125 368.101562 L 324.269531 359.738281 Z M 338.757812 368.101562 "/>
<path style=" stroke:none;fill-rule:nonzero;fill:rgb(100%,100%,100%);fill-opacity:0.0784314;" d="M 367.730469 368.101562 L 367.730469 384.828125 L 353.242188 393.195312 L 338.757812 384.828125 L 338.757812 368.101562 L 353.242188 359.738281 Z M 367.730469 368.101562 "/>
<path style=" stroke:none;fill-rule:nonzero;fill:rgb(100%,100%,100%);fill-opacity:0.0392157;" d="M 396.707031 368.101562 L 396.707031 384.828125 L 382.21875 393.195312 L 367.730469 384.828125 L 367.730469 368.101562 L 382.21875 359.738281 Z M 396.707031 368.101562 "/>
<path style=" stroke:none;fill-rule:nonzero;fill:rgb(100%,100%,100%);fill-opacity:0.0196078;" d="M 425.679688 368.101562 L 425.679688 384.828125 L 411.191406 393.195312 L 396.707031 384.828125 L 396.707031 368.101562 L 411.191406 359.738281 Z M 425.679688 368.101562 "/>
<path style=" stroke:none;fill-rule:nonzero;fill:rgb(100%,100%,100%);fill-opacity:0.0196078;" d="M 34.527344 343.007812 L 34.527344 359.738281 L 20.039062 368.101562 L 5.550781 359.738281 L 5.550781 343.007812 L 20.039062 334.644531 Z M 34.527344 343.007812 "/>
<path style=" stroke:none;fill-rule:nonzero;fill:rgb(100%,100%,100%);fill-opacity:0.0588235;" d="M 63.5 343.007812 L 63.5 359.738281 L 49.011719 368.101562 L 34.527344 359.738281 L 34.527344 343.007812 L 49.011719 334.644531 Z M 63.5 343.007812 "/>
<path style=" stroke:none;fill-rule:nonzero;fill:rgb(100%,100%,100%);fill-opacity:0.101961;" d="M 92.472656 343.007812 L 92.472656 359.738281 L 77.988281 368.101562 L 63.5 359.738281 L 63.5 343.007812 L 77.988281 334.644531 Z M 92.472656 343.007812 "/>
<path style=" stroke:none;fill-rule:nonzero;fill:rgb(100%,100%,100%);fill-opacity:0.160784;" d="M 121.449219 343.007812 L 121.449219 359.738281 L 106.960938 368.101562 L 92.472656 359.738281 L 92.472656 343.007812 L 106.960938 334.644531 Z M 121.449219 343.007812 "/>
<path style=" stroke:none;fill-rule:nonzero;fill:rgb(100%,100%,100%);fill-opacity:0.219608;" d="M 150.421875 343.007812 L 150.421875 359.738281 L 135.9375 368.101562 L 121.449219 359.738281 L 121.449219 343.007812 L 135.9375 334.644531 Z M 150.421875 343.007812 "/>
<path style=" stroke:none;fill-rule:nonzero;fill:rgb(100%,100%,100%);fill-opacity:0.258824;" d="M 179.398438 343.007812 L 179.398438 359.738281 L 164.910156 368.101562 L 150.421875 359.738281 L 150.421875 343.007812 L 164.910156 334.644531 Z M 179.398438 343.007812 "/>
<path style=" stroke:none;fill-rule:nonzero;fill:rgb(100%,100%,100%);fill-opacity:0.301961;" d="M 208.371094 343.007812 L 208.371094 359.738281 L 193.882812 368.101562 L 179.398438 359.738281 L 179.398438 343.007812 L 193.882812 334.644531 Z M 208.371094 343.007812 "/>
<path style=" stroke:none;fill-rule:nonzero;fill:rgb(100%,100%,100%);fill-opacity:0.301961;" d="M 237.347656 343.007812 L 237.347656 359.738281 L 222.859375 368.101562 L 208.371094 359.738281 L 208.371094 343.007812 L 222.859375 334.644531 Z M 237.347656 343.007812 "/>
<path style=" stroke:none;fill-rule:nonzero;fill:rgb(100%,100%,100%);fill-opacity:0.258824;" d="M 266.320312 343.007812 L 266.320312 359.738281 L 251.832031 368.101562 L 237.347656 359.738281 L 237.347656 343.007812 L 251.832031 334.644531 Z M 266.320312 343.007812 "/>
<path style=" stroke:none;fill-rule:nonzero;fill:rgb(100%,100%,100%);fill-opacity:0.219608;" d="M 295.296875 343.007812 L 295.296875 359.738281 L 280.808594 368.101562 L 266.320312 359.738281 L 266.320312 343.007812 L 280.808594 334.644531 Z M 295.296875 343.007812 "/>
<path style=" stroke:none;fill-rule:nonzero;fill:rgb(100%,100%,100%);fill-opacity:0.160784;" d="M 324.269531 343.007812 L 324.269531 359.738281 L 309.78125 368.101562 L 295.296875 359.738281 L 295.296875 343.007812 L 309.78125 334.644531 Z M 324.269531 343.007812 "/>
<path style=" stroke:none;fill-rule:nonzero;fill:rgb(100%,100%,100%);fill-opacity:0.101961;" d="M 353.242188 343.007812 L 353.242188 359.738281 L 338.757812 368.101562 L 324.269531 359.738281 L 324.269531 343.007812 L 338.757812 334.644531 Z M 353.242188 343.007812 "/>
<path style=" stroke:none;fill-rule:nonzero;fill:rgb(100%,100%,100%);fill-opacity:0.0588235;" d="M 382.21875 343.007812 L 382.21875 359.738281 L 367.730469 368.101562 L 353.242188 359.738281 L 353.242188 343.007812 L 367.730469 334.644531 Z M 382.21875 343.007812 "/>
<path style=" stroke:none;fill-rule:nonzero;fill:rgb(100%,100%,100%);fill-opacity:0.0196078;" d="M 411.191406 343.007812 L 411.191406 359.738281 L 396.707031 368.101562 L 382.21875 359.738281 L 382.21875 343.007812 L 396.707031 334.644531 Z M 411.191406 343.007812 "/>
<path style=" stroke:none;fill-rule:nonzero;fill:rgb(100%,100%,100%);fill-opacity:0.0196078;" d="M 20.039062 317.917969 L 20.039062 334.644531 L 5.550781 343.007812 L -8.9375 334.644531 L -8.9375 317.917969 L 5.550781 309.550781 Z M 20.039062 317.917969 "/>
<path style=" stroke:none;fill-rule:nonzero;fill:rgb(100%,100%,100%);fill-opacity:0.0392157;" d="M 49.011719 317.917969 L 49.011719 334.644531 L 34.527344 343.007812 L 20.039062 334.644531 L 20.039062 317.917969 L 34.527344 309.550781 Z M 49.011719 317.917969 "/>
<path style=" stroke:none;fill-rule:nonzero;fill:rgb(100%,100%,100%);fill-opacity:0.0588235;" d="M 77.988281 317.917969 L 77.988281 334.644531 L 63.5 343.007812 L 49.011719 334.644531 L 49.011719 317.917969 L 63.5 309.550781 Z M 77.988281 317.917969 "/>
<path style=" stroke:none;fill-rule:nonzero;fill:rgb(100%,100%,100%);fill-opacity:0.121569;" d="M 106.960938 317.917969 L 106.960938 334.644531 L 92.472656 343.007812 L 77.988281 334.644531 L 77.988281 317.917969 L 92.472656 309.550781 Z M 106.960938 317.917969 "/>
<path style=" stroke:none;fill-rule:nonzero;fill:rgb(100%,100%,100%);fill-opacity:0.180392;" d="M 135.9375 317.917969 L 135.9375 334.644531 L 121.449219 343.007812 L 106.960938 334.644531 L 106.960938 317.917969 L 121.449219 309.550781 Z M 135.9375 317.917969 "/>
<path style=" stroke:none;fill-rule:nonzero;fill:rgb(100%,100%,100%);fill-opacity:0.219608;" d="M 164.910156 317.917969 L 164.910156 334.644531 L 150.421875 343.007812 L 135.9375 334.644531 L 135.9375 317.917969 L 150.421875 309.550781 Z M 164.910156 317.917969 "/>
<path style=" stroke:none;fill-rule:nonzero;fill:rgb(100%,100%,100%);fill-opacity:0.258824;" d="M 193.882812 317.917969 L 193.882812 334.644531 L 179.398438 343.007812 L 164.910156 334.644531 L 164.910156 317.917969 L 179.398438 309.550781 Z M 193.882812 317.917969 "/>
<path style=" stroke:none;fill-rule:nonzero;fill:rgb(100%,100%,100%);fill-opacity:0.258824;" d="M 222.859375 317.917969 L 222.859375 334.644531 L 208.371094 343.007812 L 193.882812 334.644531 L 193.882812 317.917969 L 208.371094 309.550781 Z M 222.859375 317.917969 "/>
<path style=" stroke:none;fill-rule:nonzero;fill:rgb(100%,100%,100%);fill-opacity:0.258824;" d="M 251.832031 317.917969 L 251.832031 334.644531 L 237.347656 343.007812 L 222.859375 334.644531 L 222.859375 317.917969 L 237.347656 309.550781 Z M 251.832031 317.917969 "/>
<path style=" stroke:none;fill-rule:nonzero;fill:rgb(100%,100%,100%);fill-opacity:0.219608;" d="M 280.808594 317.917969 L 280.808594 334.644531 L 266.320312 343.007812 L 251.832031 334.644531 L 251.832031 317.917969 L 266.320312 309.550781 Z M 280.808594 317.917969 "/>
<path style=" stroke:none;fill-rule:nonzero;fill:rgb(100%,100%,100%);fill-opacity:0.160784;" d="M 309.78125 317.917969 L 309.78125 334.644531 L 295.296875 343.007812 L 280.808594 334.644531 L 280.808594 317.917969 L 295.296875 309.550781 Z M 309.78125 317.917969 "/>
<path style=" stroke:none;fill-rule:nonzero;fill:rgb(100%,100%,100%);fill-opacity:0.121569;" d="M 338.757812 317.917969 L 338.757812 334.644531 L 324.269531 343.007812 L 309.78125 334.644531 L 309.78125 317.917969 L 324.269531 309.550781 Z M 338.757812 317.917969 "/>
<path style=" stroke:none;fill-rule:nonzero;fill:rgb(100%,100%,100%);fill-opacity:0.0588235;" d="M 367.730469 317.917969 L 367.730469 334.644531 L 353.242188 343.007812 L 338.757812 334.644531 L 338.757812 317.917969 L 353.242188 309.550781 Z M 367.730469 317.917969 "/>
<path style=" stroke:none;fill-rule:nonzero;fill:rgb(100%,100%,100%);fill-opacity:0.0392157;" d="M 396.707031 317.917969 L 396.707031 334.644531 L 382.21875 343.007812 L 367.730469 334.644531 L 367.730469 317.917969 L 382.21875 309.550781 Z M 396.707031 317.917969 "/>
<path style=" stroke:none;fill-rule:nonzero;fill:rgb(100%,100%,100%);fill-opacity:0.0196078;" d="M 425.679688 317.917969 L 425.679688 334.644531 L 411.191406 343.007812 L 396.707031 334.644531 L 396.707031 317.917969 L 411.191406 309.550781 Z M 425.679688 317.917969 "/>
<path style=" stroke:none;fill-rule:nonzero;fill:rgb(100%,100%,100%);fill-opacity:0.0196078;" d="M 34.527344 292.824219 L 34.527344 309.550781 L 20.039062 317.917969 L 5.550781 309.550781 L 5.550781 292.824219 L 20.039062 284.460938 Z M 34.527344 292.824219 "/>
<path style=" stroke:none;fill-rule:nonzero;fill:rgb(100%,100%,100%);fill-opacity:0.0392157;" d="M 63.5 292.824219 L 63.5 309.550781 L 49.011719 317.917969 L 34.527344 309.550781 L 34.527344 292.824219 L 49.011719 284.460938 Z M 63.5 292.824219 "/>
<path style=" stroke:none;fill-rule:nonzero;fill:rgb(100%,100%,100%);fill-opacity:0.0784314;" d="M 92.472656 292.824219 L 92.472656 309.550781 L 77.988281 317.917969 L 63.5 309.550781 L 63.5 292.824219 L 77.988281 284.460938 Z M 92.472656 292.824219 "/>
<path style=" stroke:none;fill-rule:nonzero;fill:rgb(100%,100%,100%);fill-opacity:0.121569;" d="M 121.449219 292.824219 L 121.449219 309.550781 L 106.960938 317.917969 L 92.472656 309.550781 L 92.472656 292.824219 L 106.960938 284.460938 Z M 121.449219 292.824219 "/>
<path style=" stroke:none;fill-rule:nonzero;fill:rgb(100%,100%,100%);fill-opacity:0.160784;" d="M 150.421875 292.824219 L 150.421875 309.550781 L 135.9375 317.917969 L 121.449219 309.550781 L 121.449219 292.824219 L 135.9375 284.460938 Z M 150.421875 292.824219 "/>
<path style=" stroke:none;fill-rule:nonzero;fill:rgb(100%,100%,100%);fill-opacity:0.2;" d="M 179.398438 292.824219 L 179.398438 309.550781 L 164.910156 317.917969 L 150.421875 309.550781 L 150.421875 292.824219 L 164.910156 284.460938 Z M 179.398438 292.824219 "/>
<path style=" stroke:none;fill-rule:nonzero;fill:rgb(100%,100%,100%);fill-opacity:0.219608;" d="M 208.371094 292.824219 L 208.371094 309.550781 L 193.882812 317.917969 L 179.398438 309.550781 L 179.398438 292.824219 L 193.882812 284.460938 Z M 208.371094 292.824219 "/>
<path style=" stroke:none;fill-rule:nonzero;fill:rgb(100%,100%,100%);fill-opacity:0.219608;" d="M 237.347656 292.824219 L 237.347656 309.550781 L 222.859375 317.917969 L 208.371094 309.550781 L 208.371094 292.824219 L 222.859375 284.460938 Z M 237.347656 292.824219 "/>
<path style=" stroke:none;fill-rule:nonzero;fill:rgb(100%,100%,100%);fill-opacity:0.2;" d="M 266.320312 292.824219 L 266.320312 309.550781 L 251.832031 317.917969 L 237.347656 309.550781 L 237.347656 292.824219 L 251.832031 284.460938 Z M 266.320312 292.824219 "/>
<path style=" stroke:none;fill-rule:nonzero;fill:rgb(100%,100%,100%);fill-opacity:0.160784;" d="M 295.296875 292.824219 L 295.296875 309.550781 L 280.808594 317.917969 L 266.320312 309.550781 L 266.320312 292.824219 L 280.808594 284.460938 Z M 295.296875 292.824219 "/>
<path style=" stroke:none;fill-rule:nonzero;fill:rgb(100%,100%,100%);fill-opacity:0.121569;" d="M 324.269531 292.824219 L 324.269531 309.550781 L 309.78125 317.917969 L 295.296875 309.550781 L 295.296875 292.824219 L 309.78125 284.460938 Z M 324.269531 292.824219 "/>
<path style=" stroke:none;fill-rule:nonzero;fill:rgb(100%,100%,100%);fill-opacity:0.0784314;" d="M 353.242188 292.824219 L 353.242188 309.550781 L 338.757812 317.917969 L 324.269531 309.550781 L 324.269531 292.824219 L 338.757812 284.460938 Z M 353.242188 292.824219 "/>
<path style=" stroke:none;fill-rule:nonzero;fill:rgb(100%,100%,100%);fill-opacity:0.0392157;" d="M 382.21875 292.824219 L 382.21875 309.550781 L 367.730469 317.917969 L 353.242188 309.550781 L 353.242188 292.824219 L 367.730469 284.460938 Z M 382.21875 292.824219 "/>
<path style=" stroke:none;fill-rule:nonzero;fill:rgb(100%,100%,100%);fill-opacity:0.0196078;" d="M 411.191406 292.824219 L 411.191406 309.550781 L 396.707031 317.917969 L 382.21875 309.550781 L 382.21875 292.824219 L 396.707031 284.460938 Z M 411.191406 292.824219 "/>
<path style=" stroke:none;fill-rule:nonzero;fill:rgb(100%,100%,100%);fill-opacity:0.0196078;" d="M 49.011719 267.730469 L 49.011719 284.460938 L 34.527344 292.824219 L 20.039062 284.460938 L 20.039062 267.730469 L 34.527344 259.367188 Z M 49.011719 267.730469 "/>
<path style=" stroke:none;fill-rule:nonzero;fill:rgb(100%,100%,100%);fill-opacity:0.0392157;" d="M 77.988281 267.730469 L 77.988281 284.460938 L 63.5 292.824219 L 49.011719 284.460938 L 49.011719 267.730469 L 63.5 259.367188 Z M 77.988281 267.730469 "/>
<path style=" stroke:none;fill-rule:nonzero;fill:rgb(100%,100%,100%);fill-opacity:0.0588235;" d="M 106.960938 267.730469 L 106.960938 284.460938 L 92.472656 292.824219 L 77.988281 284.460938 L 77.988281 267.730469 L 92.472656 259.367188 Z M 106.960938 267.730469 "/>
<path style=" stroke:none;fill-rule:nonzero;fill:rgb(100%,100%,100%);fill-opacity:0.121569;" d="M 135.9375 267.730469 L 135.9375 284.460938 L 121.449219 292.824219 L 106.960938 284.460938 L 106.960938 267.730469 L 121.449219 259.367188 Z M 135.9375 267.730469 "/>
<path style=" stroke:none;fill-rule:nonzero;fill:rgb(100%,100%,100%);fill-opacity:0.141176;" d="M 164.910156 267.730469 L 164.910156 284.460938 L 150.421875 292.824219 L 135.9375 284.460938 L 135.9375 267.730469 L 150.421875 259.367188 Z M 164.910156 267.730469 "/>
<path style=" stroke:none;fill-rule:nonzero;fill:rgb(100%,100%,100%);fill-opacity:0.160784;" d="M 193.882812 267.730469 L 193.882812 284.460938 L 179.398438 292.824219 L 164.910156 284.460938 L 164.910156 267.730469 L 179.398438 259.367188 Z M 193.882812 267.730469 "/>
<path style=" stroke:none;fill-rule:nonzero;fill:rgb(100%,100%,100%);fill-opacity:0.180392;" d="M 222.859375 267.730469 L 222.859375 284.460938 L 208.371094 292.824219 L 193.882812 284.460938 L 193.882812 267.730469 L 208.371094 259.367188 Z M 222.859375 267.730469 "/>
<path style=" stroke:none;fill-rule:nonzero;fill:rgb(100%,100%,100%);fill-opacity:0.160784;" d="M 251.832031 267.730469 L 251.832031 284.460938 L 237.347656 292.824219 L 222.859375 284.460938 L 222.859375 267.730469 L 237.347656 259.367188 Z M 251.832031 267.730469 "/>
<path style=" stroke:none;fill-rule:nonzero;fill:rgb(100%,100%,100%);fill-opacity:0.141176;" d="M 280.808594 267.730469 L 280.808594 284.460938 L 266.320312 292.824219 L 251.832031 284.460938 L 251.832031 267.730469 L 266.320312 259.367188 Z M 280.808594 267.730469 "/>
<path style=" stroke:none;fill-rule:nonzero;fill:rgb(100%,100%,100%);fill-opacity:0.101961;" d="M 309.78125 267.730469 L 309.78125 284.460938 L 295.296875 292.824219 L 280.808594 284.460938 L 280.808594 267.730469 L 295.296875 259.367188 Z M 309.78125 267.730469 "/>
<path style=" stroke:none;fill-rule:nonzero;fill:rgb(100%,100%,100%);fill-opacity:0.0588235;" d="M 338.757812 267.730469 L 338.757812 284.460938 L 324.269531 292.824219 L 309.78125 284.460938 L 309.78125 267.730469 L 324.269531 259.367188 Z M 338.757812 267.730469 "/>
<path style=" stroke:none;fill-rule:nonzero;fill:rgb(100%,100%,100%);fill-opacity:0.0392157;" d="M 367.730469 267.730469 L 367.730469 284.460938 L 353.242188 292.824219 L 338.757812 284.460938 L 338.757812 267.730469 L 353.242188 259.367188 Z M 367.730469 267.730469 "/>
<path style=" stroke:none;fill-rule:nonzero;fill:rgb(100%,100%,100%);fill-opacity:0.0196078;" d="M 396.707031 267.730469 L 396.707031 284.460938 L 382.21875 292.824219 L 367.730469 284.460938 L 367.730469 267.730469 L 382.21875 259.367188 Z M 396.707031 267.730469 "/>
<path style=" stroke:none;fill-rule:nonzero;fill:rgb(100%,100%,100%);fill-opacity:0.0196078;" d="M 63.5 242.640625 L 63.5 259.367188 L 49.011719 267.730469 L 34.527344 259.367188 L 34.527344 242.640625 L 49.011719 234.273438 Z M 63.5 242.640625 "/>
<path style=" stroke:none;fill-rule:nonzero;fill:rgb(100%,100%,100%);fill-opacity:0.0392157;" d="M 92.472656 242.640625 L 92.472656 259.367188 L 77.988281 267.730469 L 63.5 259.367188 L 63.5 242.640625 L 77.988281 234.273438 Z M 92.472656 242.640625 "/>
<path style=" stroke:none;fill-rule:nonzero;fill:rgb(100%,100%,100%);fill-opacity:0.0588235;" d="M 121.449219 242.640625 L 121.449219 259.367188 L 106.960938 267.730469 L 92.472656 259.367188 L 92.472656 242.640625 L 106.960938 234.273438 Z M 121.449219 242.640625 "/>
<path style=" stroke:none;fill-rule:nonzero;fill:rgb(100%,100%,100%);fill-opacity:0.0784314;" d="M 150.421875 242.640625 L 150.421875 259.367188 L 135.9375 267.730469 L 121.449219 259.367188 L 121.449219 242.640625 L 135.9375 234.273438 Z M 150.421875 242.640625 "/>
<path style=" stroke:none;fill-rule:nonzero;fill:rgb(100%,100%,100%);fill-opacity:0.101961;" d="M 179.398438 242.640625 L 179.398438 259.367188 L 164.910156 267.730469 L 150.421875 259.367188 L 150.421875 242.640625 L 164.910156 234.273438 Z M 179.398438 242.640625 "/>
<path style=" stroke:none;fill-rule:nonzero;fill:rgb(100%,100%,100%);fill-opacity:0.121569;" d="M 208.371094 242.640625 L 208.371094 259.367188 L 193.882812 267.730469 L 179.398438 259.367188 L 179.398438 242.640625 L 193.882812 234.273438 Z M 208.371094 242.640625 "/>
<path style=" stroke:none;fill-rule:nonzero;fill:rgb(100%,100%,100%);fill-opacity:0.121569;" d="M 237.347656 242.640625 L 237.347656 259.367188 L 222.859375 267.730469 L 208.371094 259.367188 L 208.371094 242.640625 L 222.859375 234.273438 Z M 237.347656 242.640625 "/>
<path style=" stroke:none;fill-rule:nonzero;fill:rgb(100%,100%,100%);fill-opacity:0.101961;" d="M 266.320312 242.640625 L 266.320312 259.367188 L 251.832031 267.730469 L 237.347656 259.367188 L 237.347656 242.640625 L 251.832031 234.273438 Z M 266.320312 242.640625 "/>
<path style=" stroke:none;fill-rule:nonzero;fill:rgb(100%,100%,100%);fill-opacity:0.0784314;" d="M 295.296875 242.640625 L 295.296875 259.367188 L 280.808594 267.730469 L 266.320312 259.367188 L 266.320312 242.640625 L 280.808594 234.273438 Z M 295.296875 242.640625 "/>
<path style=" stroke:none;fill-rule:nonzero;fill:rgb(100%,100%,100%);fill-opacity:0.0588235;" d="M 324.269531 242.640625 L 324.269531 259.367188 L 309.78125 267.730469 L 295.296875 259.367188 L 295.296875 242.640625 L 309.78125 234.273438 Z M 324.269531 242.640625 "/>
<path style=" stroke:none;fill-rule:nonzero;fill:rgb(100%,100%,100%);fill-opacity:0.0392157;" d="M 353.242188 242.640625 L 353.242188 259.367188 L 338.757812 267.730469 L 324.269531 259.367188 L 324.269531 242.640625 L 338.757812 234.273438 Z M 353.242188 242.640625 "/>
<path style=" stroke:none;fill-rule:nonzero;fill:rgb(100%,100%,100%);fill-opacity:0.0196078;" d="M 382.21875 242.640625 L 382.21875 259.367188 L 367.730469 267.730469 L 353.242188 259.367188 L 353.242188 242.640625 L 367.730469 234.273438 Z M 382.21875 242.640625 "/>
<path style=" stroke:none;fill-rule:nonzero;fill:rgb(100%,100%,100%);fill-opacity:0.0196078;" d="M 77.988281 217.546875 L 77.988281 234.273438 L 63.5 242.640625 L 49.011719 234.273438 L 49.011719 217.546875 L 63.5 209.183594 Z M 77.988281 217.546875 "/>
<path style=" stroke:none;fill-rule:nonzero;fill:rgb(100%,100%,100%);fill-opacity:0.0196078;" d="M 106.960938 217.546875 L 106.960938 234.273438 L 92.472656 242.640625 L 77.988281 234.273438 L 77.988281 217.546875 L 92.472656 209.183594 Z M 106.960938 217.546875 "/>
<path style=" stroke:none;fill-rule:nonzero;fill:rgb(100%,100%,100%);fill-opacity:0.0392157;" d="M 135.9375 217.546875 L 135.9375 234.273438 L 121.449219 242.640625 L 106.960938 234.273438 L 106.960938 217.546875 L 121.449219 209.183594 Z M 135.9375 217.546875 "/>
<path style=" stroke:none;fill-rule:nonzero;fill:rgb(100%,100%,100%);fill-opacity:0.0588235;" d="M 164.910156 217.546875 L 164.910156 234.273438 L 150.421875 242.640625 L 135.9375 234.273438 L 135.9375 217.546875 L 150.421875 209.183594 Z M 164.910156 217.546875 "/>
<path style=" stroke:none;fill-rule:nonzero;fill:rgb(100%,100%,100%);fill-opacity:0.0784314;" d="M 193.882812 217.546875 L 193.882812 234.273438 L 179.398438 242.640625 L 164.910156 234.273438 L 164.910156 217.546875 L 179.398438 209.183594 Z M 193.882812 217.546875 "/>
<path style=" stroke:none;fill-rule:nonzero;fill:rgb(100%,100%,100%);fill-opacity:0.0784314;" d="M 222.859375 217.546875 L 222.859375 234.273438 L 208.371094 242.640625 L 193.882812 234.273438 L 193.882812 217.546875 L 208.371094 209.183594 Z M 222.859375 217.546875 "/>
<path style=" stroke:none;fill-rule:nonzero;fill:rgb(100%,100%,100%);fill-opacity:0.0784314;" d="M 251.832031 217.546875 L 251.832031 234.273438 L 237.347656 242.640625 L 222.859375 234.273438 L 222.859375 217.546875 L 237.347656 209.183594 Z M 251.832031 217.546875 "/>
<path style=" stroke:none;fill-rule:nonzero;fill:rgb(100%,100%,100%);fill-opacity:0.0588235;" d="M 280.808594 217.546875 L 280.808594 234.273438 L 266.320312 242.640625 L 251.832031 234.273438 L 251.832031 217.546875 L 266.320312 209.183594 Z M 280.808594 217.546875 "/>
<path style=" stroke:none;fill-rule:nonzero;fill:rgb(100%,100%,100%);fill-opacity:0.0392157;" d="M 309.78125 217.546875 L 309.78125 234.273438 L 295.296875 242.640625 L 280.808594 234.273438 L 280.808594 217.546875 L 295.296875 209.183594 Z M 309.78125 217.546875 "/>
<path style=" stroke:none;fill-rule:nonzero;fill:rgb(100%,100%,100%);fill-opacity:0.0196078;" d="M 338.757812 217.546875 L 338.757812 234.273438 L 324.269531 242.640625 L 309.78125 234.273438 L 309.78125 217.546875 L 324.269531 209.183594 Z M 338.757812 217.546875 "/>
<path style=" stroke:none;fill-rule:nonzero;fill:rgb(100%,100%,100%);fill-opacity:0.0196078;" d="M 367.730469 217.546875 L 367.730469 234.273438 L 353.242188 242.640625 L 338.757812 234.273438 L 338.757812 217.546875 L 353.242188 209.183594 Z M 367.730469 217.546875 "/>
<path style=" stroke:none;fill-rule:nonzero;fill:rgb(100%,100%,100%);fill-opacity:0.0196078;" d="M 121.449219 192.453125 L 121.449219 209.183594 L 106.960938 217.546875 L 92.472656 209.183594 L 92.472656 192.453125 L 106.960938 184.089844 Z M 121.449219 192.453125 "/>
<path style=" stroke:none;fill-rule:nonzero;fill:rgb(100%,100%,100%);fill-opacity:0.0196078;" d="M 150.421875 192.453125 L 150.421875 209.183594 L 135.9375 217.546875 L 121.449219 209.183594 L 121.449219 192.453125 L 135.9375 184.089844 Z M 150.421875 192.453125 "/>
<path style=" stroke:none;fill-rule:nonzero;fill:rgb(100%,100%,100%);fill-opacity:0.0392157;" d="M 179.398438 192.453125 L 179.398438 209.183594 L 164.910156 217.546875 L 150.421875 209.183594 L 150.421875 192.453125 L 164.910156 184.089844 Z M 179.398438 192.453125 "/>
<path style=" stroke:none;fill-rule:nonzero;fill:rgb(100%,100%,100%);fill-opacity:0.0392157;" d="M 208.371094 192.453125 L 208.371094 209.183594 L 193.882812 217.546875 L 179.398438 209.183594 L 179.398438 192.453125 L 193.882812 184.089844 Z M 208.371094 192.453125 "/>
<path style=" stroke:none;fill-rule:nonzero;fill:rgb(100%,100%,100%);fill-opacity:0.0392157;" d="M 237.347656 192.453125 L 237.347656 209.183594 L 222.859375 217.546875 L 208.371094 209.183594 L 208.371094 192.453125 L 222.859375 184.089844 Z M 237.347656 192.453125 "/>
<path style=" stroke:none;fill-rule:nonzero;fill:rgb(100%,100%,100%);fill-opacity:0.0392157;" d="M 266.320312 192.453125 L 266.320312 209.183594 L 251.832031 217.546875 L 237.347656 209.183594 L 237.347656 192.453125 L 251.832031 184.089844 Z M 266.320312 192.453125 "/>
<path style=" stroke:none;fill-rule:nonzero;fill:rgb(100%,100%,100%);fill-opacity:0.0392157;" d="M 295.296875 192.453125 L 295.296875 209.183594 L 280.808594 217.546875 L 266.320312 209.183594 L 266.320312 192.453125 L 280.808594 184.089844 Z M 295.296875 192.453125 "/>
<path style=" stroke:none;fill-rule:nonzero;fill:rgb(100%,100%,100%);fill-opacity:0.0196078;" d="M 324.269531 192.453125 L 324.269531 209.183594 L 309.78125 217.546875 L 295.296875 209.183594 L 295.296875 192.453125 L 309.78125 184.089844 Z M 324.269531 192.453125 "/>
<path style=" stroke:none;fill-rule:nonzero;fill:rgb(100%,100%,100%);fill-opacity:0.0196078;" d="M 164.910156 167.359375 L 164.910156 184.089844 L 150.421875 192.453125 L 135.9375 184.089844 L 135.9375 167.359375 L 150.421875 158.996094 Z M 164.910156 167.359375 "/>
<path style=" stroke:none;fill-rule:nonzero;fill:rgb(100%,100%,100%);fill-opacity:0.0196078;" d="M 193.882812 167.359375 L 193.882812 184.089844 L 179.398438 192.453125 L 164.910156 184.089844 L 164.910156 167.359375 L 179.398438 158.996094 Z M 193.882812 167.359375 "/>
<path style=" stroke:none;fill-rule:nonzero;fill:rgb(100%,100%,100%);fill-opacity:0.0196078;" d="M 222.859375 167.359375 L 222.859375 184.089844 L 208.371094 192.453125 L 193.882812 184.089844 L 193.882812 167.359375 L 208.371094 158.996094 Z M 222.859375 167.359375 "/>
<path style=" stroke:none;fill-rule:nonzero;fill:rgb(100%,100%,100%);fill-opacity:0.0196078;" d="M 251.832031 167.359375 L 251.832031 184.089844 L 237.347656 192.453125 L 222.859375 184.089844 L 222.859375 167.359375 L 237.347656 158.996094 Z M 251.832031 167.359375 "/>
<path style=" stroke:none;fill-rule:nonzero;fill:rgb(100%,100%,100%);fill-opacity:0.0196078;" d="M 280.808594 167.359375 L 280.808594 184.089844 L 266.320312 192.453125 L 251.832031 184.089844 L 251.832031 167.359375 L 266.320312 158.996094 Z M 280.808594 167.359375 "/>
<path style=" stroke:none;fill-rule:nonzero;fill:rgb(100%,100%,100%);fill-opacity:0.0196078;" d="M 309.78125 167.359375 L 309.78125 184.089844 L 295.296875 192.453125 L 280.808594 184.089844 L 280.808594 167.359375 L 295.296875 158.996094 Z M 309.78125 167.359375 "/>
</g>
</svg>
