<?xml version="1.0" encoding="utf-8"?>
<svg xmlns="http://www.w3.org/2000/svg" xmlns:xlink="http://www.w3.org/1999/xlink" width="600" height="400" viewBox="0 0 2400 1600">
<defs>
  <clipPath id="clip880">
    <rect x="0" y="0" width="2400" height="1600"/>
  </clipPath>
</defs>
<path clip-path="url(#clip880)" d="
M0 1600 L2400 1600 L2400 0 L0 0  Z
  " fill="#000000" fill-rule="evenodd" fill-opacity="0"/>
<defs>
  <clipPath id="clip881">
    <rect x="480" y="0" width="1681" height="1600"/>
  </clipPath>
</defs>
<path clip-path="url(#clip880)" d="
M208.803 1552.76 L2352.76 1552.76 L2352.76 47.2441 L208.803 47.2441  Z
  " fill="#000000" fill-rule="evenodd" fill-opacity="0"/>
<defs>
  <clipPath id="clip882">
    <rect x="208" y="47" width="2145" height="1507"/>
  </clipPath>
</defs>
<path clip-path="url(#clip882)" d="
M269.481 1509.67 L272.009 1509.65 L274.537 1509.63 L277.065 1509.61 L279.594 1509.59 L282.122 1509.57 L284.65 1509.54 L287.178 1509.52 L289.707 1509.49 L292.235 1509.47 
  L294.763 1509.44 L297.291 1509.41 L299.82 1509.38 L302.348 1509.35 L304.876 1509.32 L307.404 1509.29 L309.933 1509.25 L312.461 1509.22 L314.989 1509.18 L317.517 1509.15 
  L320.046 1509.11 L322.574 1509.07 L325.102 1509.03 L327.63 1508.98 L330.159 1508.94 L332.687 1508.89 L335.215 1508.84 L337.743 1508.79 L340.272 1508.74 L342.8 1508.69 
  L345.328 1508.63 L347.856 1508.58 L350.385 1508.52 L352.913 1508.46 L355.441 1508.39 L357.969 1508.33 L360.498 1508.26 L363.026 1508.19 L365.554 1508.12 L368.082 1508.05 
  L370.611 1507.97 L373.139 1507.89 L375.667 1507.81 L378.195 1507.72 L380.724 1507.63 L383.252 1507.54 L385.78 1507.45 L388.308 1507.35 L390.837 1507.25 L393.365 1507.15 
  L395.893 1507.04 L398.421 1506.93 L400.95 1506.82 L403.478 1506.7 L406.006 1506.58 L408.534 1506.45 L411.063 1506.32 L413.591 1506.19 L416.119 1506.05 L418.647 1505.91 
  L421.176 1505.76 L423.704 1505.61 L426.232 1505.45 L428.76 1505.29 L431.289 1505.13 L433.817 1504.95 L436.345 1504.78 L438.873 1504.6 L441.402 1504.41 L443.93 1504.21 
  L446.458 1504.01 L448.986 1503.81 L451.514 1503.6 L454.043 1503.38 L456.571 1503.15 L459.099 1502.92 L461.627 1502.69 L464.156 1502.44 L466.684 1502.19 L469.212 1501.93 
  L471.74 1501.66 L474.269 1501.38 L476.797 1501.1 L479.325 1500.81 L481.853 1500.51 L484.382 1500.2 L486.91 1499.88 L489.438 1499.55 L491.966 1499.22 L494.495 1498.87 
  L497.023 1498.52 L499.551 1498.15 L502.079 1497.78 L504.608 1497.39 L507.136 1496.99 L509.664 1496.58 L512.192 1496.16 L514.721 1495.73 L517.249 1495.29 L519.777 1494.84 
  L522.305 1494.37 L524.834 1493.89 L527.362 1493.4 L529.89 1492.89 L532.418 1492.37 L534.947 1491.84 L537.475 1491.29 L540.003 1490.73 L542.531 1490.15 L545.06 1489.56 
  L547.588 1488.96 L550.116 1488.33 L552.644 1487.69 L555.173 1487.04 L557.701 1486.37 L560.229 1485.68 L562.757 1484.97 L565.286 1484.25 L567.814 1483.51 L570.342 1482.75 
  L572.87 1481.97 L575.399 1481.17 L577.927 1480.35 L580.455 1479.51 L582.983 1478.65 L585.512 1477.77 L588.04 1476.87 L590.568 1475.95 L593.096 1475 L595.625 1474.04 
  L598.153 1473.05 L600.681 1472.03 L603.209 1471 L605.738 1469.93 L608.266 1468.85 L610.794 1467.74 L613.322 1466.6 L615.851 1465.44 L618.379 1464.25 L620.907 1463.03 
  L623.435 1461.79 L625.963 1460.52 L628.492 1459.22 L631.02 1457.89 L633.548 1456.53 L636.076 1455.15 L638.605 1453.73 L641.133 1452.28 L643.661 1450.8 L646.189 1449.29 
  L648.718 1447.74 L651.246 1446.17 L653.774 1444.56 L656.302 1442.91 L658.831 1441.24 L661.359 1439.52 L663.887 1437.78 L666.415 1435.99 L668.944 1434.17 L671.472 1432.31 
  L674 1430.42 L676.528 1428.49 L679.057 1426.52 L681.585 1424.51 L684.113 1422.46 L686.641 1420.37 L689.17 1418.24 L691.698 1416.06 L694.226 1413.85 L696.754 1411.6 
  L699.283 1409.3 L701.811 1406.96 L704.339 1404.57 L706.867 1402.14 L709.396 1399.67 L711.924 1397.15 L714.452 1394.58 L716.98 1391.97 L719.509 1389.31 L722.037 1386.61 
  L724.565 1383.85 L727.093 1381.05 L729.622 1378.2 L732.15 1375.3 L734.678 1372.34 L737.206 1369.34 L739.735 1366.29 L742.263 1363.19 L744.791 1360.03 L747.319 1356.82 
  L749.848 1353.56 L752.376 1350.24 L754.904 1346.87 L757.432 1343.45 L759.961 1339.97 L762.489 1336.44 L765.017 1332.85 L767.545 1329.21 L770.074 1325.5 L772.602 1321.75 
  L775.13 1317.93 L777.658 1314.06 L780.187 1310.13 L782.715 1306.14 L785.243 1302.09 L787.771 1297.98 L790.3 1293.81 L792.828 1289.59 L795.356 1285.3 L797.884 1280.95 
  L800.413 1276.54 L802.941 1272.08 L805.469 1267.55 L807.997 1262.95 L810.525 1258.3 L813.054 1253.59 L815.582 1248.81 L818.11 1243.97 L820.638 1239.07 L823.167 1234.1 
  L825.695 1229.07 L828.223 1223.98 L830.751 1218.83 L833.28 1213.61 L835.808 1208.33 L838.336 1202.99 L840.864 1197.58 L843.393 1192.11 L845.921 1186.58 L848.449 1180.98 
  L850.977 1175.32 L853.506 1169.59 L856.034 1163.81 L858.562 1157.96 L861.09 1152.04 L863.619 1146.07 L866.147 1140.03 L868.675 1133.93 L871.203 1127.77 L873.732 1121.54 
  L876.26 1115.25 L878.788 1108.9 L881.316 1102.49 L883.845 1096.02 L886.373 1089.49 L888.901 1082.9 L891.429 1076.24 L893.958 1069.53 L896.486 1062.76 L899.014 1055.93 
  L901.542 1049.05 L904.071 1042.1 L906.599 1035.1 L909.127 1028.04 L911.655 1020.92 L914.184 1013.75 L916.712 1006.53 L919.24 999.249 L921.768 991.917 L924.297 984.532 
  L926.825 977.095 L929.353 969.607 L931.881 962.068 L934.41 954.48 L936.938 946.843 L939.466 939.158 L941.994 931.427 L944.523 923.649 L947.051 915.826 L949.579 907.959 
  L952.107 900.049 L954.636 892.097 L957.164 884.104 L959.692 876.071 L962.22 867.999 L964.749 859.889 L967.277 851.743 L969.805 843.561 L972.333 835.345 L974.862 827.096 
  L977.39 818.816 L979.918 810.505 L982.446 802.165 L984.975 793.797 L987.503 785.403 L990.031 776.983 L992.559 768.54 L995.087 760.075 L997.616 751.589 L1000.14 743.084 
  L1002.67 734.561 L1005.2 726.021 L1007.73 717.467 L1010.26 708.9 L1012.79 700.321 L1015.31 691.732 L1017.84 683.135 L1020.37 674.531 L1022.9 665.922 L1025.43 657.309 
  L1027.95 648.695 L1030.48 640.081 L1033.01 631.468 L1035.54 622.859 L1038.07 614.256 L1040.6 605.659 L1043.12 597.071 L1045.65 588.494 L1048.18 579.929 L1050.71 571.378 
  L1053.24 562.844 L1055.77 554.327 L1058.29 545.831 L1060.82 537.356 L1063.35 528.905 L1065.88 520.479 L1068.41 512.081 L1070.93 503.712 L1073.46 495.375 L1075.99 487.071 
  L1078.52 478.802 L1081.05 470.57 L1083.58 462.377 L1086.1 454.225 L1088.63 446.117 L1091.16 438.053 L1093.69 430.036 L1096.22 422.068 L1098.75 414.151 L1101.27 406.286 
  L1103.8 398.476 L1106.33 390.723 L1108.86 383.029 L1111.39 375.395 L1113.92 367.824 L1116.44 360.317 L1118.97 352.877 L1121.5 345.505 L1124.03 338.203 L1126.56 330.973 
  L1129.08 323.818 L1131.61 316.738 L1134.14 309.736 L1136.67 302.814 L1139.2 295.973 L1141.73 289.216 L1144.25 282.543 L1146.78 275.958 L1149.31 269.462 L1151.84 263.056 
  L1154.37 256.742 L1156.9 250.522 L1159.42 244.398 L1161.95 238.372 L1164.48 232.444 L1167.01 226.617 L1169.54 220.893 L1172.06 215.272 L1174.59 209.757 L1177.12 204.35 
  L1179.65 199.05 L1182.18 193.861 L1184.71 188.784 L1187.23 183.819 L1189.76 178.969 L1192.29 174.235 L1194.82 169.618 L1197.35 165.12 L1199.88 160.742 L1202.4 156.484 
  L1204.93 152.349 L1207.46 148.338 L1209.99 144.451 L1212.52 140.69 L1215.04 137.057 L1217.57 133.551 L1220.1 130.174 L1222.63 126.927 L1225.16 123.811 L1227.69 120.828 
  L1230.21 117.977 L1232.74 115.259 L1235.27 112.676 L1237.8 110.229 L1240.33 107.917 L1242.86 105.742 L1245.38 103.704 L1247.91 101.804 L1250.44 100.042 L1252.97 98.4198 
  L1255.5 96.9367 L1258.03 95.5935 L1260.55 94.3906 L1263.08 93.3284 L1265.61 92.4071 L1268.14 91.6272 L1270.67 90.9887 L1273.19 90.4919 L1275.72 90.1369 L1278.25 89.9239 
  L1280.78 89.8529 L1283.31 89.9239 L1285.84 90.1369 L1288.36 90.4919 L1290.89 90.9887 L1293.42 91.6272 L1295.95 92.4071 L1298.48 93.3284 L1301.01 94.3906 L1303.53 95.5935 
  L1306.06 96.9367 L1308.59 98.4198 L1311.12 100.042 L1313.65 101.804 L1316.17 103.704 L1318.7 105.742 L1321.23 107.917 L1323.76 110.229 L1326.29 112.676 L1328.82 115.259 
  L1331.34 117.977 L1333.87 120.828 L1336.4 123.811 L1338.93 126.927 L1341.46 130.174 L1343.99 133.551 L1346.51 137.057 L1349.04 140.69 L1351.57 144.451 L1354.1 148.338 
  L1356.63 152.349 L1359.16 156.484 L1361.68 160.742 L1364.21 165.12 L1366.74 169.618 L1369.27 174.235 L1371.8 178.969 L1374.32 183.819 L1376.85 188.784 L1379.38 193.861 
  L1381.91 199.05 L1384.44 204.35 L1386.97 209.757 L1389.49 215.272 L1392.02 220.893 L1394.55 226.617 L1397.08 232.444 L1399.61 238.372 L1402.14 244.398 L1404.66 250.522 
  L1407.19 256.742 L1409.72 263.056 L1412.25 269.462 L1414.78 275.958 L1417.3 282.543 L1419.83 289.216 L1422.36 295.973 L1424.89 302.814 L1427.42 309.736 L1429.95 316.738 
  L1432.47 323.818 L1435 330.973 L1437.53 338.203 L1440.06 345.505 L1442.59 352.877 L1445.12 360.317 L1447.64 367.824 L1450.17 375.395 L1452.7 383.029 L1455.23 390.723 
  L1457.76 398.476 L1460.28 406.286 L1462.81 414.151 L1465.34 422.068 L1467.87 430.036 L1470.4 438.053 L1472.93 446.117 L1475.45 454.225 L1477.98 462.377 L1480.51 470.57 
  L1483.04 478.802 L1485.57 487.071 L1488.1 495.375 L1490.62 503.712 L1493.15 512.081 L1495.68 520.479 L1498.21 528.905 L1500.74 537.356 L1503.27 545.831 L1505.79 554.327 
  L1508.32 562.844 L1510.85 571.378 L1513.38 579.929 L1515.91 588.494 L1518.43 597.071 L1520.96 605.659 L1523.49 614.256 L1526.02 622.859 L1528.55 631.468 L1531.08 640.081 
  L1533.6 648.695 L1533.6 1510.15 L1531.08 1510.15 L1528.55 1510.15 L1526.02 1510.15 L1523.49 1510.15 L1520.96 1510.15 L1518.43 1510.15 L1515.91 1510.15 L1513.38 1510.15 
  L1510.85 1510.15 L1508.32 1510.15 L1505.79 1510.15 L1503.27 1510.15 L1500.74 1510.15 L1498.21 1510.15 L1495.68 1510.15 L1493.15 1510.15 L1490.62 1510.15 L1488.1 1510.15 
  L1485.57 1510.15 L1483.04 1510.15 L1480.51 1510.15 L1477.98 1510.15 L1475.45 1510.15 L1472.93 1510.15 L1470.4 1510.15 L1467.87 1510.15 L1465.34 1510.15 L1462.81 1510.15 
  L1460.28 1510.15 L1457.76 1510.15 L1455.23 1510.15 L1452.7 1510.15 L1450.17 1510.15 L1447.64 1510.15 L1445.12 1510.15 L1442.59 1510.15 L1440.06 1510.15 L1437.53 1510.15 
  L1435 1510.15 L1432.47 1510.15 L1429.95 1510.15 L1427.42 1510.15 L1424.89 1510.15 L1422.36 1510.15 L1419.83 1510.15 L1417.3 1510.15 L1414.78 1510.15 L1412.25 1510.15 
  L1409.72 1510.15 L1407.19 1510.15 L1404.66 1510.15 L1402.14 1510.15 L1399.61 1510.15 L1397.08 1510.15 L1394.55 1510.15 L1392.02 1510.15 L1389.49 1510.15 L1386.97 1510.15 
  L1384.44 1510.15 L1381.91 1510.15 L1379.38 1510.15 L1376.85 1510.15 L1374.32 1510.15 L1371.8 1510.15 L1369.27 1510.15 L1366.74 1510.15 L1364.21 1510.15 L1361.68 1510.15 
  L1359.16 1510.15 L1356.63 1510.15 L1354.1 1510.15 L1351.57 1510.15 L1349.04 1510.15 L1346.51 1510.15 L1343.99 1510.15 L1341.46 1510.15 L1338.93 1510.15 L1336.4 1510.15 
  L1333.87 1510.15 L1331.34 1510.15 L1328.82 1510.15 L1326.29 1510.15 L1323.76 1510.15 L1321.23 1510.15 L1318.7 1510.15 L1316.17 1510.15 L1313.65 1510.15 L1311.12 1510.15 
  L1308.59 1510.15 L1306.06 1510.15 L1303.53 1510.15 L1301.01 1510.15 L1298.48 1510.15 L1295.95 1510.15 L1293.42 1510.15 L1290.89 1510.15 L1288.36 1510.15 L1285.84 1510.15 
  L1283.31 1510.15 L1280.78 1510.15 L1278.25 1510.15 L1275.72 1510.15 L1273.19 1510.15 L1270.67 1510.15 L1268.14 1510.15 L1265.61 1510.15 L1263.08 1510.15 L1260.55 1510.15 
  L1258.03 1510.15 L1255.5 1510.15 L1252.97 1510.15 L1250.44 1510.15 L1247.91 1510.15 L1245.38 1510.15 L1242.86 1510.15 L1240.33 1510.15 L1237.8 1510.15 L1235.27 1510.15 
  L1232.74 1510.15 L1230.21 1510.15 L1227.69 1510.15 L1225.16 1510.15 L1222.63 1510.15 L1220.1 1510.15 L1217.57 1510.15 L1215.04 1510.15 L1212.52 1510.15 L1209.99 1510.15 
  L1207.46 1510.15 L1204.93 1510.15 L1202.4 1510.15 L1199.88 1510.15 L1197.35 1510.15 L1194.82 1510.15 L1192.29 1510.15 L1189.76 1510.15 L1187.23 1510.15 L1184.71 1510.15 
  L1182.18 1510.15 L1179.65 1510.15 L1177.12 1510.15 L1174.59 1510.15 L1172.06 1510.15 L1169.54 1510.15 L1167.01 1510.15 L1164.48 1510.15 L1161.95 1510.15 L1159.42 1510.15 
  L1156.9 1510.15 L1154.37 1510.15 L1151.84 1510.15 L1149.31 1510.15 L1146.78 1510.15 L1144.25 1510.15 L1141.73 1510.15 L1139.2 1510.15 L1136.67 1510.15 L1134.14 1510.15 
  L1131.61 1510.15 L1129.08 1510.15 L1126.56 1510.15 L1124.03 1510.15 L1121.5 1510.15 L1118.97 1510.15 L1116.44 1510.15 L1113.92 1510.15 L1111.39 1510.15 L1108.86 1510.15 
  L1106.33 1510.15 L1103.8 1510.15 L1101.27 1510.15 L1098.75 1510.15 L1096.22 1510.15 L1093.69 1510.15 L1091.16 1510.15 L1088.63 1510.15 L1086.1 1510.15 L1083.58 1510.15 
  L1081.05 1510.15 L1078.52 1510.15 L1075.99 1510.15 L1073.46 1510.15 L1070.93 1510.15 L1068.41 1510.15 L1065.88 1510.15 L1063.35 1510.15 L1060.82 1510.15 L1058.29 1510.15 
  L1055.77 1510.15 L1053.24 1510.15 L1050.71 1510.15 L1048.18 1510.15 L1045.65 1510.15 L1043.12 1510.15 L1040.6 1510.15 L1038.07 1510.15 L1035.54 1510.15 L1033.01 1510.15 
  L1030.48 1510.15 L1027.95 1510.15 L1025.43 1510.15 L1022.9 1510.15 L1020.37 1510.15 L1017.84 1510.15 L1015.31 1510.15 L1012.79 1510.15 L1010.26 1510.15 L1007.73 1510.15 
  L1005.2 1510.15 L1002.67 1510.15 L1000.14 1510.15 L997.616 1510.15 L995.087 1510.15 L992.559 1510.15 L990.031 1510.15 L987.503 1510.15 L984.975 1510.15 L982.446 1510.15 
  L979.918 1510.15 L977.39 1510.15 L974.862 1510.15 L972.333 1510.15 L969.805 1510.15 L967.277 1510.15 L964.749 1510.15 L962.22 1510.15 L959.692 1510.15 L957.164 1510.15 
  L954.636 1510.15 L952.107 1510.15 L949.579 1510.15 L947.051 1510.15 L944.523 1510.15 L941.994 1510.15 L939.466 1510.15 L936.938 1510.15 L934.41 1510.15 L931.881 1510.15 
  L929.353 1510.15 L926.825 1510.15 L924.297 1510.15 L921.768 1510.15 L919.24 1510.15 L916.712 1510.15 L914.184 1510.15 L911.655 1510.15 L909.127 1510.15 L906.599 1510.15 
  L904.071 1510.15 L901.542 1510.15 L899.014 1510.15 L896.486 1510.15 L893.958 1510.15 L891.429 1510.15 L888.901 1510.15 L886.373 1510.15 L883.845 1510.15 L881.316 1510.15 
  L878.788 1510.15 L876.26 1510.15 L873.732 1510.15 L871.203 1510.15 L868.675 1510.15 L866.147 1510.15 L863.619 1510.15 L861.09 1510.15 L858.562 1510.15 L856.034 1510.15 
  L853.506 1510.15 L850.977 1510.15 L848.449 1510.15 L845.921 1510.15 L843.393 1510.15 L840.864 1510.15 L838.336 1510.15 L835.808 1510.15 L833.28 1510.15 L830.751 1510.15 
  L828.223 1510.15 L825.695 1510.15 L823.167 1510.15 L820.638 1510.15 L818.11 1510.15 L815.582 1510.15 L813.054 1510.15 L810.525 1510.15 L807.997 1510.15 L805.469 1510.15 
  L802.941 1510.15 L800.413 1510.15 L797.884 1510.15 L795.356 1510.15 L792.828 1510.15 L790.3 1510.15 L787.771 1510.15 L785.243 1510.15 L782.715 1510.15 L780.187 1510.15 
  L777.658 1510.15 L775.13 1510.15 L772.602 1510.15 L770.074 1510.15 L767.545 1510.15 L765.017 1510.15 L762.489 1510.15 L759.961 1510.15 L757.432 1510.15 L754.904 1510.15 
  L752.376 1510.15 L749.848 1510.15 L747.319 1510.15 L744.791 1510.15 L742.263 1510.15 L739.735 1510.15 L737.206 1510.15 L734.678 1510.15 L732.15 1510.15 L729.622 1510.15 
  L727.093 1510.15 L724.565 1510.15 L722.037 1510.15 L719.509 1510.15 L716.98 1510.15 L714.452 1510.15 L711.924 1510.15 L709.396 1510.15 L706.867 1510.15 L704.339 1510.15 
  L701.811 1510.15 L699.283 1510.15 L696.754 1510.15 L694.226 1510.15 L691.698 1510.15 L689.17 1510.15 L686.641 1510.15 L684.113 1510.15 L681.585 1510.15 L679.057 1510.15 
  L676.528 1510.15 L674 1510.15 L671.472 1510.15 L668.944 1510.15 L666.415 1510.15 L663.887 1510.15 L661.359 1510.15 L658.831 1510.15 L656.302 1510.15 L653.774 1510.15 
  L651.246 1510.15 L648.718 1510.15 L646.189 1510.15 L643.661 1510.15 L641.133 1510.15 L638.605 1510.15 L636.076 1510.15 L633.548 1510.15 L631.02 1510.15 L628.492 1510.15 
  L625.963 1510.15 L623.435 1510.15 L620.907 1510.15 L618.379 1510.15 L615.851 1510.15 L613.322 1510.15 L610.794 1510.15 L608.266 1510.15 L605.738 1510.15 L603.209 1510.15 
  L600.681 1510.15 L598.153 1510.15 L595.625 1510.15 L593.096 1510.15 L590.568 1510.15 L588.04 1510.15 L585.512 1510.15 L582.983 1510.15 L580.455 1510.15 L577.927 1510.15 
  L575.399 1510.15 L572.87 1510.15 L570.342 1510.15 L567.814 1510.15 L565.286 1510.15 L562.757 1510.15 L560.229 1510.15 L557.701 1510.15 L555.173 1510.15 L552.644 1510.15 
  L550.116 1510.15 L547.588 1510.15 L545.06 1510.15 L542.531 1510.15 L540.003 1510.15 L537.475 1510.15 L534.947 1510.15 L532.418 1510.15 L529.89 1510.15 L527.362 1510.15 
  L524.834 1510.15 L522.305 1510.15 L519.777 1510.15 L517.249 1510.15 L514.721 1510.15 L512.192 1510.15 L509.664 1510.15 L507.136 1510.15 L504.608 1510.15 L502.079 1510.15 
  L499.551 1510.15 L497.023 1510.15 L494.495 1510.15 L491.966 1510.15 L489.438 1510.15 L486.91 1510.15 L484.382 1510.15 L481.853 1510.15 L479.325 1510.15 L476.797 1510.15 
  L474.269 1510.15 L471.74 1510.15 L469.212 1510.15 L466.684 1510.15 L464.156 1510.15 L461.627 1510.15 L459.099 1510.15 L456.571 1510.15 L454.043 1510.15 L451.514 1510.15 
  L448.986 1510.15 L446.458 1510.15 L443.93 1510.15 L441.402 1510.15 L438.873 1510.15 L436.345 1510.15 L433.817 1510.15 L431.289 1510.15 L428.76 1510.15 L426.232 1510.15 
  L423.704 1510.15 L421.176 1510.15 L418.647 1510.15 L416.119 1510.15 L413.591 1510.15 L411.063 1510.15 L408.534 1510.15 L406.006 1510.15 L403.478 1510.15 L400.95 1510.15 
  L398.421 1510.15 L395.893 1510.15 L393.365 1510.15 L390.837 1510.15 L388.308 1510.15 L385.78 1510.15 L383.252 1510.15 L380.724 1510.15 L378.195 1510.15 L375.667 1510.15 
  L373.139 1510.15 L370.611 1510.15 L368.082 1510.15 L365.554 1510.15 L363.026 1510.15 L360.498 1510.15 L357.969 1510.15 L355.441 1510.15 L352.913 1510.15 L350.385 1510.15 
  L347.856 1510.15 L345.328 1510.15 L342.8 1510.15 L340.272 1510.15 L337.743 1510.15 L335.215 1510.15 L332.687 1510.15 L330.159 1510.15 L327.63 1510.15 L325.102 1510.15 
  L322.574 1510.15 L320.046 1510.15 L317.517 1510.15 L314.989 1510.15 L312.461 1510.15 L309.933 1510.15 L307.404 1510.15 L304.876 1510.15 L302.348 1510.15 L299.82 1510.15 
  L297.291 1510.15 L294.763 1510.15 L292.235 1510.15 L289.707 1510.15 L287.178 1510.15 L284.65 1510.15 L282.122 1510.15 L279.594 1510.15 L277.065 1510.15 L274.537 1510.15 
  L272.009 1510.15 L269.481 1510.15  Z
  " fill="#1f78b4" fill-rule="evenodd" fill-opacity="0.5"/>
<polyline clip-path="url(#clip882)" style="stroke:#1f78b4; stroke-linecap:round; stroke-linejoin:round; stroke-width:16; stroke-opacity:1; fill:none" points="
  269.481,1509.67 272.009,1509.65 274.537,1509.63 277.065,1509.61 279.594,1509.59 282.122,1509.57 284.65,1509.54 287.178,1509.52 289.707,1509.49 292.235,1509.47 
  294.763,1509.44 297.291,1509.41 299.82,1509.38 302.348,1509.35 304.876,1509.32 307.404,1509.29 309.933,1509.25 312.461,1509.22 314.989,1509.18 317.517,1509.15 
  320.046,1509.11 322.574,1509.07 325.102,1509.03 327.63,1508.98 330.159,1508.94 332.687,1508.89 335.215,1508.84 337.743,1508.79 340.272,1508.74 342.8,1508.69 
  345.328,1508.63 347.856,1508.58 350.385,1508.52 352.913,1508.46 355.441,1508.39 357.969,1508.33 360.498,1508.26 363.026,1508.19 365.554,1508.12 368.082,1508.05 
  370.611,1507.97 373.139,1507.89 375.667,1507.81 378.195,1507.72 380.724,1507.63 383.252,1507.54 385.78,1507.45 388.308,1507.35 390.837,1507.25 393.365,1507.15 
  395.893,1507.04 398.421,1506.93 400.95,1506.82 403.478,1506.7 406.006,1506.58 408.534,1506.45 411.063,1506.32 413.591,1506.19 416.119,1506.05 418.647,1505.91 
  421.176,1505.76 423.704,1505.61 426.232,1505.45 428.76,1505.29 431.289,1505.13 433.817,1504.95 436.345,1504.78 438.873,1504.6 441.402,1504.41 443.93,1504.21 
  446.458,1504.01 448.986,1503.81 451.514,1503.6 454.043,1503.38 456.571,1503.15 459.099,1502.92 461.627,1502.69 464.156,1502.44 466.684,1502.19 469.212,1501.93 
  471.74,1501.66 474.269,1501.38 476.797,1501.1 479.325,1500.81 481.853,1500.51 484.382,1500.2 486.91,1499.88 489.438,1499.55 491.966,1499.22 494.495,1498.87 
  497.023,1498.52 499.551,1498.15 502.079,1497.78 504.608,1497.39 507.136,1496.99 509.664,1496.58 512.192,1496.16 514.721,1495.73 517.249,1495.29 519.777,1494.84 
  522.305,1494.37 524.834,1493.89 527.362,1493.4 529.89,1492.89 532.418,1492.37 534.947,1491.84 537.475,1491.29 540.003,1490.73 542.531,1490.15 545.06,1489.56 
  547.588,1488.96 550.116,1488.33 552.644,1487.69 555.173,1487.04 557.701,1486.37 560.229,1485.68 562.757,1484.97 565.286,1484.25 567.814,1483.51 570.342,1482.75 
  572.87,1481.97 575.399,1481.17 577.927,1480.35 580.455,1479.51 582.983,1478.65 585.512,1477.77 588.04,1476.87 590.568,1475.95 593.096,1475 595.625,1474.04 
  598.153,1473.05 600.681,1472.03 603.209,1471 605.738,1469.93 608.266,1468.85 610.794,1467.74 613.322,1466.6 615.851,1465.44 618.379,1464.25 620.907,1463.03 
  623.435,1461.79 625.963,1460.52 628.492,1459.22 631.02,1457.89 633.548,1456.53 636.076,1455.15 638.605,1453.73 641.133,1452.28 643.661,1450.8 646.189,1449.29 
  648.718,1447.74 651.246,1446.17 653.774,1444.56 656.302,1442.91 658.831,1441.24 661.359,1439.52 663.887,1437.78 666.415,1435.99 668.944,1434.17 671.472,1432.31 
  674,1430.42 676.528,1428.49 679.057,1426.52 681.585,1424.51 684.113,1422.46 686.641,1420.37 689.17,1418.24 691.698,1416.06 694.226,1413.85 696.754,1411.6 
  699.283,1409.3 701.811,1406.96 704.339,1404.57 706.867,1402.14 709.396,1399.67 711.924,1397.15 714.452,1394.58 716.98,1391.97 719.509,1389.31 722.037,1386.61 
  724.565,1383.85 727.093,1381.05 729.622,1378.2 732.15,1375.3 734.678,1372.34 737.206,1369.34 739.735,1366.29 742.263,1363.19 744.791,1360.03 747.319,1356.82 
  749.848,1353.56 752.376,1350.24 754.904,1346.87 757.432,1343.45 759.961,1339.97 762.489,1336.44 765.017,1332.85 767.545,1329.21 770.074,1325.5 772.602,1321.75 
  775.13,1317.93 777.658,1314.06 780.187,1310.13 782.715,1306.14 785.243,1302.09 787.771,1297.98 790.3,1293.81 792.828,1289.59 795.356,1285.3 797.884,1280.95 
  800.413,1276.54 802.941,1272.08 805.469,1267.55 807.997,1262.95 810.525,1258.3 813.054,1253.59 815.582,1248.81 818.11,1243.97 820.638,1239.07 823.167,1234.1 
  825.695,1229.07 828.223,1223.98 830.751,1218.83 833.28,1213.61 835.808,1208.33 838.336,1202.99 840.864,1197.58 843.393,1192.11 845.921,1186.58 848.449,1180.98 
  850.977,1175.32 853.506,1169.59 856.034,1163.81 858.562,1157.96 861.09,1152.04 863.619,1146.07 866.147,1140.03 868.675,1133.93 871.203,1127.77 873.732,1121.54 
  876.26,1115.25 878.788,1108.9 881.316,1102.49 883.845,1096.02 886.373,1089.49 888.901,1082.9 891.429,1076.24 893.958,1069.53 896.486,1062.76 899.014,1055.93 
  901.542,1049.05 904.071,1042.1 906.599,1035.1 909.127,1028.04 911.655,1020.92 914.184,1013.75 916.712,1006.53 919.24,999.249 921.768,991.917 924.297,984.532 
  926.825,977.095 929.353,969.607 931.881,962.068 934.41,954.48 936.938,946.843 939.466,939.158 941.994,931.427 944.523,923.649 947.051,915.826 949.579,907.959 
  952.107,900.049 954.636,892.097 957.164,884.104 959.692,876.071 962.22,867.999 964.749,859.889 967.277,851.743 969.805,843.561 972.333,835.345 974.862,827.096 
  977.39,818.816 979.918,810.505 982.446,802.165 984.975,793.797 987.503,785.403 990.031,776.983 992.559,768.54 995.087,760.075 997.616,751.589 1000.14,743.084 
  1002.67,734.561 1005.2,726.021 1007.73,717.467 1010.26,708.9 1012.79,700.321 1015.31,691.732 1017.84,683.135 1020.37,674.531 1022.9,665.922 1025.43,657.309 
  1027.95,648.695 1030.48,640.081 1033.01,631.468 1035.54,622.859 1038.07,614.256 1040.6,605.659 1043.12,597.071 1045.65,588.494 1048.18,579.929 1050.71,571.378 
  1053.24,562.844 1055.77,554.327 1058.29,545.831 1060.82,537.356 1063.35,528.905 1065.88,520.479 1068.41,512.081 1070.93,503.712 1073.46,495.375 1075.99,487.071 
  1078.52,478.802 1081.05,470.57 1083.58,462.377 1086.1,454.225 1088.63,446.117 1091.16,438.053 1093.69,430.036 1096.22,422.068 1098.75,414.151 1101.27,406.286 
  1103.8,398.476 1106.33,390.723 1108.86,383.029 1111.39,375.395 1113.92,367.824 1116.44,360.317 1118.97,352.877 1121.5,345.505 1124.03,338.203 1126.56,330.973 
  1129.08,323.818 1131.61,316.738 1134.14,309.736 1136.67,302.814 1139.2,295.973 1141.73,289.216 1144.25,282.543 1146.78,275.958 1149.31,269.462 1151.84,263.056 
  1154.37,256.742 1156.9,250.522 1159.42,244.398 1161.95,238.372 1164.48,232.444 1167.01,226.617 1169.54,220.893 1172.06,215.272 1174.59,209.757 1177.12,204.35 
  1179.65,199.05 1182.18,193.861 1184.71,188.784 1187.23,183.819 1189.76,178.969 1192.29,174.235 1194.82,169.618 1197.35,165.12 1199.88,160.742 1202.4,156.484 
  1204.93,152.349 1207.46,148.338 1209.99,144.451 1212.52,140.69 1215.04,137.057 1217.57,133.551 1220.1,130.174 1222.63,126.927 1225.16,123.811 1227.69,120.828 
  1230.21,117.977 1232.74,115.259 1235.27,112.676 1237.8,110.229 1240.33,107.917 1242.86,105.742 1245.38,103.704 1247.91,101.804 1250.44,100.042 1252.97,98.4198 
  1255.5,96.9367 1258.03,95.5935 1260.55,94.3906 1263.08,93.3284 1265.61,92.4071 1268.14,91.6272 1270.67,90.9887 1273.19,90.4919 1275.72,90.1369 1278.25,89.9239 
  1280.78,89.8529 1283.31,89.9239 1285.84,90.1369 1288.36,90.4919 1290.89,90.9887 1293.42,91.6272 1295.95,92.4071 1298.48,93.3284 1301.01,94.3906 1303.53,95.5935 
  1306.06,96.9367 1308.59,98.4198 1311.12,100.042 1313.65,101.804 1316.17,103.704 1318.7,105.742 1321.23,107.917 1323.76,110.229 1326.29,112.676 1328.82,115.259 
  1331.34,117.977 1333.87,120.828 1336.4,123.811 1338.93,126.927 1341.46,130.174 1343.99,133.551 1346.51,137.057 1349.04,140.69 1351.57,144.451 1354.1,148.338 
  1356.63,152.349 1359.16,156.484 1361.68,160.742 1364.21,165.12 1366.74,169.618 1369.27,174.235 1371.8,178.969 1374.32,183.819 1376.85,188.784 1379.38,193.861 
  1381.91,199.05 1384.44,204.35 1386.97,209.757 1389.49,215.272 1392.02,220.893 1394.55,226.617 1397.08,232.444 1399.61,238.372 1402.14,244.398 1404.66,250.522 
  1407.19,256.742 1409.72,263.056 1412.25,269.462 1414.78,275.958 1417.3,282.543 1419.83,289.216 1422.36,295.973 1424.89,302.814 1427.42,309.736 1429.95,316.738 
  1432.47,323.818 1435,330.973 1437.53,338.203 1440.06,345.505 1442.59,352.877 1445.12,360.317 1447.64,367.824 1450.17,375.395 1452.7,383.029 1455.23,390.723 
  1457.76,398.476 1460.28,406.286 1462.81,414.151 1465.34,422.068 1467.87,430.036 1470.4,438.053 1472.93,446.117 1475.45,454.225 1477.98,462.377 1480.51,470.57 
  1483.04,478.802 1485.57,487.071 1488.1,495.375 1490.62,503.712 1493.15,512.081 1495.68,520.479 1498.21,528.905 1500.74,537.356 1503.27,545.831 1505.79,554.327 
  1508.32,562.844 1510.85,571.378 1513.38,579.929 1515.91,588.494 1518.43,597.071 1520.96,605.659 1523.49,614.256 1526.02,622.859 1528.55,631.468 1531.08,640.081 
  1533.6,648.695 
  "/>
<polyline clip-path="url(#clip882)" style="stroke:#1f78b4; stroke-linecap:round; stroke-linejoin:round; stroke-width:16; stroke-opacity:1; fill:none" points="
  269.481,1509.67 272.009,1509.65 274.537,1509.63 277.065,1509.61 279.594,1509.59 282.122,1509.57 284.65,1509.54 287.178,1509.52 289.707,1509.49 292.235,1509.47 
  294.763,1509.44 297.291,1509.41 299.82,1509.38 302.348,1509.35 304.876,1509.32 307.404,1509.29 309.933,1509.25 312.461,1509.22 314.989,1509.18 317.517,1509.15 
  320.046,1509.11 322.574,1509.07 325.102,1509.03 327.63,1508.98 330.159,1508.94 332.687,1508.89 335.215,1508.84 337.743,1508.79 340.272,1508.74 342.8,1508.69 
  345.328,1508.63 347.856,1508.58 350.385,1508.52 352.913,1508.46 355.441,1508.39 357.969,1508.33 360.498,1508.26 363.026,1508.19 365.554,1508.12 368.082,1508.05 
  370.611,1507.97 373.139,1507.89 375.667,1507.81 378.195,1507.72 380.724,1507.63 383.252,1507.54 385.78,1507.45 388.308,1507.35 390.837,1507.25 393.365,1507.15 
  395.893,1507.04 398.421,1506.93 400.95,1506.82 403.478,1506.7 406.006,1506.58 408.534,1506.45 411.063,1506.32 413.591,1506.19 416.119,1506.05 418.647,1505.91 
  421.176,1505.76 423.704,1505.61 426.232,1505.45 428.76,1505.29 431.289,1505.13 433.817,1504.95 436.345,1504.78 438.873,1504.6 441.402,1504.41 443.93,1504.21 
  446.458,1504.01 448.986,1503.81 451.514,1503.6 454.043,1503.38 456.571,1503.15 459.099,1502.92 461.627,1502.69 464.156,1502.44 466.684,1502.19 469.212,1501.93 
  471.74,1501.66 474.269,1501.38 476.797,1501.1 479.325,1500.81 481.853,1500.51 484.382,1500.2 486.91,1499.88 489.438,1499.55 491.966,1499.22 494.495,1498.87 
  497.023,1498.52 499.551,1498.15 502.079,1497.78 504.608,1497.39 507.136,1496.99 509.664,1496.58 512.192,1496.16 514.721,1495.73 517.249,1495.29 519.777,1494.84 
  522.305,1494.37 524.834,1493.89 527.362,1493.4 529.89,1492.89 532.418,1492.37 534.947,1491.84 537.475,1491.29 540.003,1490.73 542.531,1490.15 545.06,1489.56 
  547.588,1488.96 550.116,1488.33 552.644,1487.69 555.173,1487.04 557.701,1486.37 560.229,1485.68 562.757,1484.97 565.286,1484.25 567.814,1483.51 570.342,1482.75 
  572.87,1481.97 575.399,1481.17 577.927,1480.35 580.455,1479.51 582.983,1478.65 585.512,1477.77 588.04,1476.87 590.568,1475.95 593.096,1475 595.625,1474.04 
  598.153,1473.05 600.681,1472.03 603.209,1471 605.738,1469.93 608.266,1468.85 610.794,1467.74 613.322,1466.6 615.851,1465.44 618.379,1464.25 620.907,1463.03 
  623.435,1461.79 625.963,1460.52 628.492,1459.22 631.02,1457.89 633.548,1456.53 636.076,1455.15 638.605,1453.73 641.133,1452.28 643.661,1450.8 646.189,1449.29 
  648.718,1447.74 651.246,1446.17 653.774,1444.56 656.302,1442.91 658.831,1441.24 661.359,1439.52 663.887,1437.78 666.415,1435.99 668.944,1434.17 671.472,1432.31 
  674,1430.42 676.528,1428.49 679.057,1426.52 681.585,1424.51 684.113,1422.46 686.641,1420.37 689.17,1418.24 691.698,1416.06 694.226,1413.85 696.754,1411.6 
  699.283,1409.3 701.811,1406.96 704.339,1404.57 706.867,1402.14 709.396,1399.67 711.924,1397.15 714.452,1394.58 716.98,1391.97 719.509,1389.31 722.037,1386.61 
  724.565,1383.85 727.093,1381.05 729.622,1378.2 732.15,1375.3 734.678,1372.34 737.206,1369.34 739.735,1366.29 742.263,1363.19 744.791,1360.03 747.319,1356.82 
  749.848,1353.56 752.376,1350.24 754.904,1346.87 757.432,1343.45 759.961,1339.97 762.489,1336.44 765.017,1332.85 767.545,1329.21 770.074,1325.5 772.602,1321.75 
  775.13,1317.93 777.658,1314.06 780.187,1310.13 782.715,1306.14 785.243,1302.09 787.771,1297.98 790.3,1293.81 792.828,1289.59 795.356,1285.3 797.884,1280.95 
  800.413,1276.54 802.941,1272.08 805.469,1267.55 807.997,1262.95 810.525,1258.3 813.054,1253.59 815.582,1248.81 818.11,1243.97 820.638,1239.07 823.167,1234.1 
  825.695,1229.07 828.223,1223.98 830.751,1218.83 833.28,1213.61 835.808,1208.33 838.336,1202.99 840.864,1197.58 843.393,1192.11 845.921,1186.58 848.449,1180.98 
  850.977,1175.32 853.506,1169.59 856.034,1163.81 858.562,1157.96 861.09,1152.04 863.619,1146.07 866.147,1140.03 868.675,1133.93 871.203,1127.77 873.732,1121.54 
  876.26,1115.25 878.788,1108.9 881.316,1102.49 883.845,1096.02 886.373,1089.49 888.901,1082.9 891.429,1076.24 893.958,1069.53 896.486,1062.76 899.014,1055.93 
  901.542,1049.05 904.071,1042.1 906.599,1035.1 909.127,1028.04 911.655,1020.92 914.184,1013.75 916.712,1006.53 919.24,999.249 921.768,991.917 924.297,984.532 
  926.825,977.095 929.353,969.607 931.881,962.068 934.41,954.48 936.938,946.843 939.466,939.158 941.994,931.427 944.523,923.649 947.051,915.826 949.579,907.959 
  952.107,900.049 954.636,892.097 957.164,884.104 959.692,876.071 962.22,867.999 964.749,859.889 967.277,851.743 969.805,843.561 972.333,835.345 974.862,827.096 
  977.39,818.816 979.918,810.505 982.446,802.165 984.975,793.797 987.503,785.403 990.031,776.983 992.559,768.54 995.087,760.075 997.616,751.589 1000.14,743.084 
  1002.67,734.561 1005.2,726.021 1007.73,717.467 1010.26,708.9 1012.79,700.321 1015.31,691.732 1017.84,683.135 1020.37,674.531 1022.9,665.922 1025.43,657.309 
  1027.95,648.695 1030.48,640.081 1033.01,631.468 1035.54,622.859 1038.07,614.256 1040.6,605.659 1043.12,597.071 1045.65,588.494 1048.18,579.929 1050.71,571.378 
  1053.24,562.844 1055.77,554.327 1058.29,545.831 1060.82,537.356 1063.35,528.905 1065.88,520.479 1068.41,512.081 1070.93,503.712 1073.46,495.375 1075.99,487.071 
  1078.52,478.802 1081.05,470.57 1083.58,462.377 1086.1,454.225 1088.63,446.117 1091.16,438.053 1093.69,430.036 1096.22,422.068 1098.75,414.151 1101.27,406.286 
  1103.8,398.476 1106.33,390.723 1108.86,383.029 1111.39,375.395 1113.92,367.824 1116.44,360.317 1118.97,352.877 1121.5,345.505 1124.03,338.203 1126.56,330.973 
  1129.08,323.818 1131.61,316.738 1134.14,309.736 1136.67,302.814 1139.2,295.973 1141.73,289.216 1144.25,282.543 1146.78,275.958 1149.31,269.462 1151.84,263.056 
  1154.37,256.742 1156.9,250.522 1159.42,244.398 1161.95,238.372 1164.48,232.444 1167.01,226.617 1169.54,220.893 1172.06,215.272 1174.59,209.757 1177.12,204.35 
  1179.65,199.05 1182.18,193.861 1184.71,188.784 1187.23,183.819 1189.76,178.969 1192.29,174.235 1194.82,169.618 1197.35,165.12 1199.88,160.742 1202.4,156.484 
  1204.93,152.349 1207.46,148.338 1209.99,144.451 1212.52,140.69 1215.04,137.057 1217.57,133.551 1220.1,130.174 1222.63,126.927 1225.16,123.811 1227.69,120.828 
  1230.21,117.977 1232.74,115.259 1235.27,112.676 1237.8,110.229 1240.33,107.917 1242.86,105.742 1245.38,103.704 1247.91,101.804 1250.44,100.042 1252.97,98.4198 
  1255.5,96.9367 1258.03,95.5935 1260.55,94.3906 1263.08,93.3284 1265.61,92.4071 1268.14,91.6272 1270.67,90.9887 1273.19,90.4919 1275.72,90.1369 1278.25,89.9239 
  1280.78,89.8529 1283.31,89.9239 1285.84,90.1369 1288.36,90.4919 1290.89,90.9887 1293.42,91.6272 1295.95,92.4071 1298.48,93.3284 1301.01,94.3906 1303.53,95.5935 
  1306.06,96.9367 1308.59,98.4198 1311.12,100.042 1313.65,101.804 1316.17,103.704 1318.7,105.742 1321.23,107.917 1323.76,110.229 1326.29,112.676 1328.82,115.259 
  1331.34,117.977 1333.87,120.828 1336.4,123.811 1338.93,126.927 1341.46,130.174 1343.99,133.551 1346.51,137.057 1349.04,140.69 1351.57,144.451 1354.1,148.338 
  1356.63,152.349 1359.16,156.484 1361.68,160.742 1364.21,165.12 1366.74,169.618 1369.27,174.235 1371.8,178.969 1374.32,183.819 1376.85,188.784 1379.38,193.861 
  1381.91,199.05 1384.44,204.35 1386.97,209.757 1389.49,215.272 1392.02,220.893 1394.55,226.617 1397.08,232.444 1399.61,238.372 1402.14,244.398 1404.66,250.522 
  1407.19,256.742 1409.72,263.056 1412.25,269.462 1414.78,275.958 1417.3,282.543 1419.83,289.216 1422.36,295.973 1424.89,302.814 1427.42,309.736 1429.95,316.738 
  1432.47,323.818 1435,330.973 1437.53,338.203 1440.06,345.505 1442.59,352.877 1445.12,360.317 1447.64,367.824 1450.17,375.395 1452.7,383.029 1455.23,390.723 
  1457.76,398.476 1460.28,406.286 1462.81,414.151 1465.34,422.068 1467.87,430.036 1470.4,438.053 1472.93,446.117 1475.45,454.225 1477.98,462.377 1480.51,470.57 
  1483.04,478.802 1485.57,487.071 1488.1,495.375 1490.62,503.712 1493.15,512.081 1495.68,520.479 1498.21,528.905 1500.74,537.356 1503.27,545.831 1505.79,554.327 
  1508.32,562.844 1510.85,571.378 1513.38,579.929 1515.91,588.494 1518.43,597.071 1520.96,605.659 1523.49,614.256 1526.02,622.859 1528.55,631.468 1531.08,640.081 
  1533.6,648.695 1536.13,657.309 1538.66,665.922 1541.19,674.531 1543.72,683.135 1546.25,691.732 1548.77,700.321 1551.3,708.9 1553.83,717.467 1556.36,726.021 
  1558.89,734.561 1561.41,743.084 1563.94,751.589 1566.47,760.075 1569,768.54 1571.53,776.983 1574.06,785.403 1576.58,793.797 1579.11,802.165 1581.64,810.505 
  1584.17,818.816 1586.7,827.096 1589.23,835.345 1591.75,843.561 1594.28,851.743 1596.81,859.889 1599.34,867.999 1601.87,876.071 1604.39,884.104 1606.92,892.097 
  1609.45,900.049 1611.98,907.959 1614.51,915.826 1617.04,923.649 1619.56,931.427 1622.09,939.158 1624.62,946.843 1627.15,954.48 1629.68,962.068 1632.21,969.607 
  1634.73,977.095 1637.26,984.532 1639.79,991.917 1642.32,999.249 1644.85,1006.53 1647.38,1013.75 1649.9,1020.92 1652.43,1028.04 1654.96,1035.1 1657.49,1042.1 
  1660.02,1049.05 1662.54,1055.93 1665.07,1062.76 1667.6,1069.53 1670.13,1076.24 1672.66,1082.9 1675.19,1089.49 1677.71,1096.02 1680.24,1102.49 1682.77,1108.9 
  1685.3,1115.25 1687.83,1121.54 1690.36,1127.77 1692.88,1133.93 1695.41,1140.03 1697.94,1146.07 1700.47,1152.04 1703,1157.96 1705.52,1163.81 1708.05,1169.59 
  1710.58,1175.32 1713.11,1180.98 1715.64,1186.58 1718.17,1192.11 1720.69,1197.58 1723.22,1202.99 1725.75,1208.33 1728.28,1213.61 1730.81,1218.83 1733.34,1223.98 
  1735.86,1229.07 1738.39,1234.1 1740.92,1239.07 1743.45,1243.97 1745.98,1248.81 1748.5,1253.59 1751.03,1258.3 1753.56,1262.95 1756.09,1267.55 1758.62,1272.08 
  1761.15,1276.54 1763.67,1280.95 1766.2,1285.3 1768.73,1289.59 1771.26,1293.81 1773.79,1297.98 1776.32,1302.09 1778.84,1306.14 1781.37,1310.13 1783.9,1314.06 
  1786.43,1317.93 1788.96,1321.75 1791.49,1325.5 1794.01,1329.21 1796.54,1332.85 1799.07,1336.44 1801.6,1339.97 1804.13,1343.45 1806.65,1346.87 1809.18,1350.24 
  1811.71,1353.56 1814.24,1356.82 1816.77,1360.03 1819.3,1363.19 1821.82,1366.29 1824.35,1369.34 1826.88,1372.34 1829.41,1375.3 1831.94,1378.2 1834.47,1381.05 
  1836.99,1383.85 1839.52,1386.61 1842.05,1389.31 1844.58,1391.97 1847.11,1394.58 1849.63,1397.15 1852.16,1399.67 1854.69,1402.14 1857.22,1404.57 1859.75,1406.96 
  1862.28,1409.3 1864.8,1411.6 1867.33,1413.85 1869.86,1416.06 1872.39,1418.24 1874.92,1420.37 1877.45,1422.46 1879.97,1424.51 1882.5,1426.52 1885.03,1428.49 
  1887.56,1430.42 1890.09,1432.31 1892.62,1434.17 1895.14,1435.99 1897.67,1437.78 1900.2,1439.52 1902.73,1441.24 1905.26,1442.91 1907.78,1444.56 1910.31,1446.17 
  1912.84,1447.74 1915.37,1449.29 1917.9,1450.8 1920.43,1452.28 1922.95,1453.73 1925.48,1455.15 1928.01,1456.53 1930.54,1457.89 1933.07,1459.22 1935.6,1460.52 
  1938.12,1461.79 1940.65,1463.03 1943.18,1464.25 1945.71,1465.44 1948.24,1466.6 1950.76,1467.74 1953.29,1468.85 1955.82,1469.93 1958.35,1471 1960.88,1472.03 
  1963.41,1473.05 1965.93,1474.04 1968.46,1475 1970.99,1475.95 1973.52,1476.87 1976.05,1477.77 1978.58,1478.65 1981.1,1479.51 1983.63,1480.35 1986.16,1481.17 
  1988.69,1481.97 1991.22,1482.75 1993.74,1483.51 1996.27,1484.25 1998.8,1484.97 2001.33,1485.68 2003.86,1486.37 2006.39,1487.04 2008.91,1487.69 2011.44,1488.33 
  2013.97,1488.96 2016.5,1489.56 2019.03,1490.15 2021.56,1490.73 2024.08,1491.29 2026.61,1491.84 2029.14,1492.37 2031.67,1492.89 2034.2,1493.4 2036.73,1493.89 
  2039.25,1494.37 2041.78,1494.84 2044.31,1495.29 2046.84,1495.73 2049.37,1496.16 2051.89,1496.58 2054.42,1496.99 2056.95,1497.39 2059.48,1497.78 2062.01,1498.15 
  2064.54,1498.52 2067.06,1498.87 2069.59,1499.22 2072.12,1499.55 2074.65,1499.88 2077.18,1500.2 2079.71,1500.51 2082.23,1500.81 2084.76,1501.1 2087.29,1501.38 
  2089.82,1501.66 2092.35,1501.93 2094.87,1502.19 2097.4,1502.44 2099.93,1502.69 2102.46,1502.92 2104.99,1503.15 2107.52,1503.38 2110.04,1503.6 2112.57,1503.81 
  2115.1,1504.01 2117.63,1504.21 2120.16,1504.41 2122.69,1504.6 2125.21,1504.78 2127.74,1504.95 2130.27,1505.13 2132.8,1505.29 2135.33,1505.45 2137.85,1505.61 
  2140.38,1505.76 2142.91,1505.91 2145.44,1506.05 2147.97,1506.19 2150.5,1506.32 2153.02,1506.45 2155.55,1506.58 2158.08,1506.7 2160.61,1506.82 2163.14,1506.93 
  2165.67,1507.04 2168.19,1507.15 2170.72,1507.25 2173.25,1507.35 2175.78,1507.45 2178.31,1507.54 2180.84,1507.63 2183.36,1507.72 2185.89,1507.81 2188.42,1507.89 
  2190.95,1507.97 2193.48,1508.05 2196,1508.12 2198.53,1508.19 2201.06,1508.26 2203.59,1508.33 2206.12,1508.39 2208.65,1508.46 2211.17,1508.52 2213.7,1508.58 
  2216.23,1508.63 2218.76,1508.69 2221.29,1508.74 2223.82,1508.79 2226.34,1508.84 2228.87,1508.89 2231.4,1508.94 2233.93,1508.98 2236.46,1509.03 2238.98,1509.07 
  2241.51,1509.11 2244.04,1509.15 2246.57,1509.18 2249.1,1509.22 2251.63,1509.25 2254.15,1509.29 2256.68,1509.32 2259.21,1509.35 2261.74,1509.38 2264.27,1509.41 
  2266.8,1509.44 2269.32,1509.47 2271.85,1509.49 2274.38,1509.52 2276.91,1509.54 2279.44,1509.57 2281.97,1509.59 2284.49,1509.61 2287.02,1509.63 2289.55,1509.65 
  2292.08,1509.67 
  "/>
</svg>
