<?xml version="1.0" encoding="utf-8"?>
<svg xmlns="http://www.w3.org/2000/svg" xmlns:xlink="http://www.w3.org/1999/xlink" width="600" height="400" viewBox="0 0 2400 1600">
<defs>
  <clipPath id="clip580">
    <rect x="0" y="0" width="2400" height="1600"/>
  </clipPath>
</defs>
<path clip-path="url(#clip580)" d="
M0 1600 L2400 1600 L2400 0 L0 0  Z
  " fill="#ffffff" fill-rule="evenodd" fill-opacity="1"/>
<defs>
  <clipPath id="clip581">
    <rect x="480" y="0" width="1681" height="1600"/>
  </clipPath>
</defs>
<defs>
  <clipPath id="clip582">
    <rect x="354" y="47" width="2000" height="1321"/>
  </clipPath>
</defs>
<path clip-path="url(#clip580)" d="
M354.243 1367.02 L2352.76 1367.02 L2352.76 47.2441 L354.243 47.2441  Z
  " fill="#ffffff" fill-rule="evenodd" fill-opacity="1"/>
<polyline clip-path="url(#clip580)" style="stroke:#000000; stroke-linecap:round; stroke-linejoin:round; stroke-width:4; stroke-opacity:1; fill:none" points="
  354.243,1367.02 2352.76,1367.02 
  "/>
<polyline clip-path="url(#clip580)" style="stroke:#000000; stroke-linecap:round; stroke-linejoin:round; stroke-width:4; stroke-opacity:1; fill:none" points="
  506.514,1367.02 506.514,1348.12 
  "/>
<polyline clip-path="url(#clip580)" style="stroke:#000000; stroke-linecap:round; stroke-linejoin:round; stroke-width:4; stroke-opacity:1; fill:none" points="
  675.911,1367.02 675.911,1348.12 
  "/>
<polyline clip-path="url(#clip580)" style="stroke:#000000; stroke-linecap:round; stroke-linejoin:round; stroke-width:4; stroke-opacity:1; fill:none" points="
  845.309,1367.02 845.309,1348.12 
  "/>
<polyline clip-path="url(#clip580)" style="stroke:#000000; stroke-linecap:round; stroke-linejoin:round; stroke-width:4; stroke-opacity:1; fill:none" points="
  1014.71,1367.02 1014.71,1348.12 
  "/>
<polyline clip-path="url(#clip580)" style="stroke:#000000; stroke-linecap:round; stroke-linejoin:round; stroke-width:4; stroke-opacity:1; fill:none" points="
  1184.1,1367.02 1184.1,1348.12 
  "/>
<polyline clip-path="url(#clip580)" style="stroke:#000000; stroke-linecap:round; stroke-linejoin:round; stroke-width:4; stroke-opacity:1; fill:none" points="
  1353.5,1367.02 1353.5,1348.12 
  "/>
<polyline clip-path="url(#clip580)" style="stroke:#000000; stroke-linecap:round; stroke-linejoin:round; stroke-width:4; stroke-opacity:1; fill:none" points="
  1522.9,1367.02 1522.9,1348.12 
  "/>
<polyline clip-path="url(#clip580)" style="stroke:#000000; stroke-linecap:round; stroke-linejoin:round; stroke-width:4; stroke-opacity:1; fill:none" points="
  1692.29,1367.02 1692.29,1348.12 
  "/>
<polyline clip-path="url(#clip580)" style="stroke:#000000; stroke-linecap:round; stroke-linejoin:round; stroke-width:4; stroke-opacity:1; fill:none" points="
  1861.69,1367.02 1861.69,1348.12 
  "/>
<polyline clip-path="url(#clip580)" style="stroke:#000000; stroke-linecap:round; stroke-linejoin:round; stroke-width:4; stroke-opacity:1; fill:none" points="
  2031.09,1367.02 2031.09,1348.12 
  "/>
<polyline clip-path="url(#clip580)" style="stroke:#000000; stroke-linecap:round; stroke-linejoin:round; stroke-width:4; stroke-opacity:1; fill:none" points="
  2200.48,1367.02 2200.48,1348.12 
  "/>
<path clip-path="url(#clip580)" d="M506.514 1406.73 Q500.195 1406.73 496.995 1412.97 Q493.835 1419.16 493.835 1431.64 Q493.835 1444.08 496.995 1450.32 Q500.195 1456.51 506.514 1456.51 Q512.874 1456.51 516.034 1450.32 Q519.234 1444.08 519.234 1431.64 Q519.234 1419.16 516.034 1412.97 Q512.874 1406.73 506.514 1406.73 M506.514 1400.25 Q516.682 1400.25 522.029 1408.31 Q527.417 1416.33 527.417 1431.64 Q527.417 1446.91 522.029 1454.97 Q516.682 1462.99 506.514 1462.99 Q496.347 1462.99 490.959 1454.97 Q485.612 1446.91 485.612 1431.64 Q485.612 1416.33 490.959 1408.31 Q496.347 1400.25 506.514 1400.25 Z" fill="#000000" fill-rule="evenodd" fill-opacity="1" /><path clip-path="url(#clip580)" d="M659.08 1454.93 L672.448 1454.93 L672.448 1408.79 L657.905 1411.71 L657.905 1404.26 L672.367 1401.34 L680.55 1401.34 L680.55 1454.93 L693.918 1454.93 L693.918 1461.82 L659.08 1461.82 L659.08 1454.93 Z" fill="#000000" fill-rule="evenodd" fill-opacity="1" /><path clip-path="url(#clip580)" d="M835.951 1454.93 L864.51 1454.93 L864.51 1461.82 L826.107 1461.82 L826.107 1454.93 Q830.766 1450.11 838.787 1442.01 Q846.848 1433.87 848.914 1431.52 Q852.843 1427.1 854.383 1424.07 Q855.962 1420.99 855.962 1418.03 Q855.962 1413.21 852.56 1410.17 Q849.197 1407.13 843.769 1407.13 Q839.921 1407.13 835.627 1408.47 Q831.373 1409.81 826.512 1412.52 L826.512 1404.26 Q831.454 1402.27 835.748 1401.26 Q840.042 1400.25 843.607 1400.25 Q853.005 1400.25 858.596 1404.95 Q864.186 1409.64 864.186 1417.5 Q864.186 1421.23 862.768 1424.59 Q861.391 1427.91 857.704 1432.45 Q856.692 1433.63 851.263 1439.26 Q845.835 1444.85 835.951 1454.93 Z" fill="#000000" fill-rule="evenodd" fill-opacity="1" /><path clip-path="url(#clip580)" d="M1022.14 1429.21 Q1028.01 1430.47 1031.29 1434.44 Q1034.62 1438.41 1034.62 1444.24 Q1034.62 1453.19 1028.46 1458.09 Q1022.3 1462.99 1010.96 1462.99 Q1007.15 1462.99 1003.1 1462.22 Q999.089 1461.5 994.795 1460 L994.795 1452.1 Q998.198 1454.08 1002.25 1455.1 Q1006.3 1456.11 1010.72 1456.11 Q1018.41 1456.11 1022.42 1453.07 Q1026.47 1450.03 1026.47 1444.24 Q1026.47 1438.89 1022.71 1435.89 Q1018.98 1432.86 1012.3 1432.86 L1005.25 1432.86 L1005.25 1426.13 L1012.62 1426.13 Q1018.66 1426.13 1021.86 1423.74 Q1025.06 1421.31 1025.06 1416.77 Q1025.06 1412.12 1021.73 1409.64 Q1018.45 1407.13 1012.3 1407.13 Q1008.93 1407.13 1005.08 1407.86 Q1001.24 1408.59 996.618 1410.13 L996.618 1402.84 Q1001.28 1401.54 1005.33 1400.89 Q1009.42 1400.25 1013.02 1400.25 Q1022.34 1400.25 1027.77 1404.5 Q1033.2 1408.71 1033.2 1415.92 Q1033.2 1420.95 1030.32 1424.43 Q1027.45 1427.87 1022.14 1429.21 Z" fill="#000000" fill-rule="evenodd" fill-opacity="1" /><path clip-path="url(#clip580)" d="M1189.37 1408.47 L1168.71 1440.76 L1189.37 1440.76 L1189.37 1408.47 M1187.22 1401.34 L1197.51 1401.34 L1197.51 1440.76 L1206.14 1440.76 L1206.14 1447.56 L1197.51 1447.56 L1197.51 1461.82 L1189.37 1461.82 L1189.37 1447.56 L1162.07 1447.56 L1162.07 1439.66 L1187.22 1401.34 Z" fill="#000000" fill-rule="evenodd" fill-opacity="1" /><path clip-path="url(#clip580)" d="M1336.49 1401.34 L1368.61 1401.34 L1368.61 1408.23 L1343.98 1408.23 L1343.98 1423.05 Q1345.76 1422.45 1347.54 1422.16 Q1349.33 1421.84 1351.11 1421.84 Q1361.24 1421.84 1367.15 1427.39 Q1373.07 1432.94 1373.07 1442.42 Q1373.07 1452.18 1366.99 1457.61 Q1360.91 1462.99 1349.85 1462.99 Q1346.05 1462.99 1342.08 1462.35 Q1338.15 1461.7 1333.93 1460.4 L1333.93 1452.18 Q1337.58 1454.16 1341.47 1455.14 Q1345.36 1456.11 1349.69 1456.11 Q1356.7 1456.11 1360.79 1452.42 Q1364.88 1448.74 1364.88 1442.42 Q1364.88 1436.1 1360.79 1432.41 Q1356.7 1428.72 1349.69 1428.72 Q1346.41 1428.72 1343.13 1429.45 Q1339.89 1430.18 1336.49 1431.72 L1336.49 1401.34 Z" fill="#000000" fill-rule="evenodd" fill-opacity="1" /><path clip-path="url(#clip580)" d="M1523.61 1428.32 Q1518.1 1428.32 1514.86 1432.09 Q1511.66 1435.85 1511.66 1442.42 Q1511.66 1448.94 1514.86 1452.75 Q1518.1 1456.51 1523.61 1456.51 Q1529.11 1456.51 1532.32 1452.75 Q1535.56 1448.94 1535.56 1442.42 Q1535.56 1435.85 1532.32 1432.09 Q1529.11 1428.32 1523.61 1428.32 M1539.85 1402.68 L1539.85 1410.13 Q1536.77 1408.67 1533.61 1407.9 Q1530.49 1407.13 1527.41 1407.13 Q1519.31 1407.13 1515.02 1412.6 Q1510.76 1418.07 1510.16 1429.13 Q1512.55 1425.6 1516.15 1423.74 Q1519.76 1421.84 1524.09 1421.84 Q1533.21 1421.84 1538.47 1427.39 Q1543.78 1432.9 1543.78 1442.42 Q1543.78 1451.73 1538.27 1457.36 Q1532.76 1462.99 1523.61 1462.99 Q1513.11 1462.99 1507.56 1454.97 Q1502.01 1446.91 1502.01 1431.64 Q1502.01 1417.3 1508.82 1408.79 Q1515.63 1400.25 1527.09 1400.25 Q1530.17 1400.25 1533.29 1400.85 Q1536.45 1401.46 1539.85 1402.68 Z" fill="#000000" fill-rule="evenodd" fill-opacity="1" /><path clip-path="url(#clip580)" d="M1672.85 1401.34 L1711.74 1401.34 L1711.74 1404.82 L1689.78 1461.82 L1681.23 1461.82 L1701.89 1408.23 L1672.85 1408.23 L1672.85 1401.34 Z" fill="#000000" fill-rule="evenodd" fill-opacity="1" /><path clip-path="url(#clip580)" d="M1861.69 1433.1 Q1855.86 1433.1 1852.5 1436.22 Q1849.17 1439.34 1849.17 1444.81 Q1849.17 1450.27 1852.5 1453.39 Q1855.86 1456.51 1861.69 1456.51 Q1867.52 1456.51 1870.89 1453.39 Q1874.25 1450.23 1874.25 1444.81 Q1874.25 1439.34 1870.89 1436.22 Q1867.56 1433.1 1861.69 1433.1 M1853.51 1429.62 Q1848.24 1428.32 1845.28 1424.71 Q1842.37 1421.11 1842.37 1415.92 Q1842.37 1408.67 1847.51 1404.46 Q1852.7 1400.25 1861.69 1400.25 Q1870.72 1400.25 1875.87 1404.46 Q1881.01 1408.67 1881.01 1415.92 Q1881.01 1421.11 1878.06 1424.71 Q1875.14 1428.32 1869.91 1429.62 Q1875.83 1430.99 1879.11 1435 Q1882.43 1439.01 1882.43 1444.81 Q1882.43 1453.6 1877.04 1458.3 Q1871.7 1462.99 1861.69 1462.99 Q1851.69 1462.99 1846.3 1458.3 Q1840.95 1453.6 1840.95 1444.81 Q1840.95 1439.01 1844.27 1435 Q1847.59 1430.99 1853.51 1429.62 M1850.51 1416.69 Q1850.51 1421.39 1853.43 1424.02 Q1856.38 1426.66 1861.69 1426.66 Q1866.96 1426.66 1869.91 1424.02 Q1872.91 1421.39 1872.91 1416.69 Q1872.91 1411.99 1869.91 1409.36 Q1866.96 1406.73 1861.69 1406.73 Q1856.38 1406.73 1853.43 1409.36 Q1850.51 1411.99 1850.51 1416.69 Z" fill="#000000" fill-rule="evenodd" fill-opacity="1" /><path clip-path="url(#clip580)" d="M2014.11 1460.56 L2014.11 1453.11 Q2017.19 1454.57 2020.35 1455.34 Q2023.51 1456.11 2026.55 1456.11 Q2034.65 1456.11 2038.91 1450.68 Q2043.2 1445.21 2043.81 1434.11 Q2041.46 1437.6 2037.85 1439.46 Q2034.25 1441.32 2029.87 1441.32 Q2020.8 1441.32 2015.49 1435.85 Q2010.23 1430.34 2010.23 1420.82 Q2010.23 1411.51 2015.73 1405.88 Q2021.24 1400.25 2030.4 1400.25 Q2040.89 1400.25 2046.4 1408.31 Q2051.95 1416.33 2051.95 1431.64 Q2051.95 1445.94 2045.14 1454.49 Q2038.38 1462.99 2026.92 1462.99 Q2023.84 1462.99 2020.68 1462.39 Q2017.52 1461.78 2014.11 1460.56 M2030.4 1434.92 Q2035.91 1434.92 2039.11 1431.15 Q2042.35 1427.39 2042.35 1420.82 Q2042.35 1414.3 2039.11 1410.54 Q2035.91 1406.73 2030.4 1406.73 Q2024.89 1406.73 2021.65 1410.54 Q2018.45 1414.3 2018.45 1420.82 Q2018.45 1427.39 2021.65 1431.15 Q2024.89 1434.92 2030.4 1434.92 Z" fill="#000000" fill-rule="evenodd" fill-opacity="1" /><path clip-path="url(#clip580)" d="M2156.19 1454.93 L2169.56 1454.93 L2169.56 1408.79 L2155.01 1411.71 L2155.01 1404.26 L2169.48 1401.34 L2177.66 1401.34 L2177.66 1454.93 L2191.03 1454.93 L2191.03 1461.82 L2156.19 1461.82 L2156.19 1454.93 Z" fill="#000000" fill-rule="evenodd" fill-opacity="1" /><path clip-path="url(#clip580)" d="M2225.05 1406.73 Q2218.73 1406.73 2215.53 1412.97 Q2212.37 1419.16 2212.37 1431.64 Q2212.37 1444.08 2215.53 1450.32 Q2218.73 1456.51 2225.05 1456.51 Q2231.41 1456.51 2234.57 1450.32 Q2237.77 1444.08 2237.77 1431.64 Q2237.77 1419.16 2234.57 1412.97 Q2231.41 1406.73 2225.05 1406.73 M2225.05 1400.25 Q2235.22 1400.25 2240.57 1408.31 Q2245.96 1416.33 2245.96 1431.64 Q2245.96 1446.91 2240.57 1454.97 Q2235.22 1462.99 2225.05 1462.99 Q2214.89 1462.99 2209.5 1454.97 Q2204.15 1446.91 2204.15 1431.64 Q2204.15 1416.33 2209.5 1408.31 Q2214.89 1400.25 2225.05 1400.25 Z" fill="#000000" fill-rule="evenodd" fill-opacity="1" /><path clip-path="url(#clip580)" d="M1376.7 1522.83 Q1376.7 1525.78 1374.85 1527.47 Q1373.01 1529.1 1370.9 1529.1 Q1368.9 1529.1 1367.84 1527.94 Q1366.79 1526.78 1366.79 1525.31 Q1366.79 1523.31 1368.26 1521.57 Q1369.74 1519.83 1371.95 1519.46 Q1369.79 1518.09 1366.58 1518.09 Q1364.47 1518.09 1362.62 1519.2 Q1360.83 1520.3 1359.73 1521.73 Q1358.67 1523.15 1357.72 1525.2 Q1356.83 1527.21 1356.46 1528.42 Q1356.14 1529.58 1355.88 1530.84 L1352.19 1545.6 Q1350.4 1552.61 1350.4 1555.08 Q1350.4 1558.14 1351.87 1560.2 Q1353.35 1562.2 1356.3 1562.2 Q1357.46 1562.2 1358.78 1561.88 Q1360.09 1561.51 1361.78 1560.57 Q1363.52 1559.56 1365.05 1558.09 Q1366.63 1556.56 1368.16 1553.98 Q1369.69 1551.4 1370.69 1548.08 Q1371 1546.92 1372.06 1546.92 Q1373.38 1546.92 1373.38 1547.97 Q1373.38 1548.87 1372.64 1550.76 Q1371.95 1552.61 1370.42 1555.03 Q1368.95 1557.4 1367 1559.56 Q1365.05 1561.67 1362.15 1563.15 Q1359.25 1564.62 1356.09 1564.62 Q1351.56 1564.62 1348.55 1562.2 Q1345.55 1559.78 1344.44 1556.4 Q1344.18 1556.88 1343.81 1557.51 Q1343.44 1558.14 1342.33 1559.56 Q1341.28 1560.93 1340.07 1561.99 Q1338.86 1562.99 1336.96 1563.78 Q1335.11 1564.62 1333.11 1564.62 Q1330.58 1564.62 1328.32 1563.89 Q1326.1 1563.15 1324.52 1561.46 Q1322.94 1559.78 1322.94 1557.46 Q1322.94 1554.87 1324.68 1553.08 Q1326.47 1551.24 1328.9 1551.24 Q1330.42 1551.24 1331.64 1552.13 Q1332.9 1553.03 1332.9 1554.98 Q1332.9 1557.14 1331.43 1558.77 Q1329.95 1560.41 1327.84 1560.83 Q1330 1562.2 1333.22 1562.2 Q1336.7 1562.2 1339.44 1559.14 Q1342.18 1556.09 1343.49 1550.97 Q1346.76 1538.69 1348.03 1533.21 Q1349.29 1527.68 1349.29 1525.31 Q1349.29 1523.1 1348.71 1521.57 Q1348.13 1520.04 1347.13 1519.35 Q1346.18 1518.62 1345.29 1518.35 Q1344.44 1518.09 1343.49 1518.09 Q1341.91 1518.09 1340.12 1518.72 Q1338.38 1519.35 1336.27 1520.83 Q1334.22 1522.25 1332.27 1525.2 Q1330.32 1528.15 1329 1532.21 Q1328.74 1533.42 1327.58 1533.42 Q1326.31 1533.37 1326.31 1532.32 Q1326.31 1531.42 1327 1529.58 Q1327.74 1527.68 1329.21 1525.31 Q1330.74 1522.94 1332.69 1520.83 Q1334.69 1518.67 1337.59 1517.19 Q1340.54 1515.72 1343.7 1515.72 Q1345.13 1515.72 1346.5 1516.03 Q1347.92 1516.3 1349.61 1517.09 Q1351.35 1517.88 1352.87 1519.62 Q1354.4 1521.36 1355.35 1523.89 Q1355.98 1522.67 1356.83 1521.51 Q1357.72 1520.36 1359.09 1518.93 Q1360.52 1517.46 1362.47 1516.61 Q1364.47 1515.72 1366.68 1515.72 Q1368.84 1515.72 1370.95 1516.3 Q1373.06 1516.82 1374.85 1518.56 Q1376.7 1520.25 1376.7 1522.83 Z" fill="#000000" fill-rule="evenodd" fill-opacity="1" /><polyline clip-path="url(#clip580)" style="stroke:#000000; stroke-linecap:round; stroke-linejoin:round; stroke-width:4; stroke-opacity:1; fill:none" points="
  354.243,1367.02 354.243,47.2441 
  "/>
<polyline clip-path="url(#clip580)" style="stroke:#000000; stroke-linecap:round; stroke-linejoin:round; stroke-width:4; stroke-opacity:1; fill:none" points="
  354.243,1329.67 373.141,1329.67 
  "/>
<polyline clip-path="url(#clip580)" style="stroke:#000000; stroke-linecap:round; stroke-linejoin:round; stroke-width:4; stroke-opacity:1; fill:none" points="
  354.243,1096.36 373.141,1096.36 
  "/>
<polyline clip-path="url(#clip580)" style="stroke:#000000; stroke-linecap:round; stroke-linejoin:round; stroke-width:4; stroke-opacity:1; fill:none" points="
  354.243,863.048 373.141,863.048 
  "/>
<polyline clip-path="url(#clip580)" style="stroke:#000000; stroke-linecap:round; stroke-linejoin:round; stroke-width:4; stroke-opacity:1; fill:none" points="
  354.243,629.738 373.141,629.738 
  "/>
<polyline clip-path="url(#clip580)" style="stroke:#000000; stroke-linecap:round; stroke-linejoin:round; stroke-width:4; stroke-opacity:1; fill:none" points="
  354.243,396.428 373.141,396.428 
  "/>
<polyline clip-path="url(#clip580)" style="stroke:#000000; stroke-linecap:round; stroke-linejoin:round; stroke-width:4; stroke-opacity:1; fill:none" points="
  354.243,163.119 373.141,163.119 
  "/>
<path clip-path="url(#clip580)" d="M165.403 1304.82 Q159.083 1304.82 155.883 1311.05 Q152.723 1317.25 152.723 1329.73 Q152.723 1342.16 155.883 1348.4 Q159.083 1354.6 165.403 1354.6 Q171.763 1354.6 174.922 1348.4 Q178.123 1342.16 178.123 1329.73 Q178.123 1317.25 174.922 1311.05 Q171.763 1304.82 165.403 1304.82 M165.403 1298.33 Q175.571 1298.33 180.918 1306.4 Q186.305 1314.42 186.305 1329.73 Q186.305 1345 180.918 1353.06 Q175.571 1361.08 165.403 1361.08 Q155.235 1361.08 149.847 1353.06 Q144.5 1345 144.5 1329.73 Q144.5 1314.42 149.847 1306.4 Q155.235 1298.33 165.403 1298.33 Z" fill="#000000" fill-rule="evenodd" fill-opacity="1" /><path clip-path="url(#clip580)" d="M200.686 1349.62 L209.234 1349.62 L209.234 1359.91 L200.686 1359.91 L200.686 1349.62 Z" fill="#000000" fill-rule="evenodd" fill-opacity="1" /><path clip-path="url(#clip580)" d="M244.557 1304.82 Q238.238 1304.82 235.038 1311.05 Q231.878 1317.25 231.878 1329.73 Q231.878 1342.16 235.038 1348.4 Q238.238 1354.6 244.557 1354.6 Q250.917 1354.6 254.077 1348.4 Q257.277 1342.16 257.277 1329.73 Q257.277 1317.25 254.077 1311.05 Q250.917 1304.82 244.557 1304.82 M244.557 1298.33 Q254.725 1298.33 260.072 1306.4 Q265.46 1314.42 265.46 1329.73 Q265.46 1345 260.072 1353.06 Q254.725 1361.08 244.557 1361.08 Q234.39 1361.08 229.002 1353.06 Q223.655 1345 223.655 1329.73 Q223.655 1314.42 229.002 1306.4 Q234.39 1298.33 244.557 1298.33 Z" fill="#000000" fill-rule="evenodd" fill-opacity="1" /><path clip-path="url(#clip580)" d="M297.341 1304.82 Q291.021 1304.82 287.821 1311.05 Q284.661 1317.25 284.661 1329.73 Q284.661 1342.16 287.821 1348.4 Q291.021 1354.6 297.341 1354.6 Q303.701 1354.6 306.86 1348.4 Q310.061 1342.16 310.061 1329.73 Q310.061 1317.25 306.86 1311.05 Q303.701 1304.82 297.341 1304.82 M297.341 1298.33 Q307.509 1298.33 312.856 1306.4 Q318.243 1314.42 318.243 1329.73 Q318.243 1345 312.856 1353.06 Q307.509 1361.08 297.341 1361.08 Q287.173 1361.08 281.785 1353.06 Q276.438 1345 276.438 1329.73 Q276.438 1314.42 281.785 1306.4 Q287.173 1298.33 297.341 1298.33 Z" fill="#000000" fill-rule="evenodd" fill-opacity="1" /><path clip-path="url(#clip580)" d="M167.145 1071.51 Q160.825 1071.51 157.625 1077.74 Q154.465 1083.94 154.465 1096.42 Q154.465 1108.85 157.625 1115.09 Q160.825 1121.29 167.145 1121.29 Q173.505 1121.29 176.664 1115.09 Q179.865 1108.85 179.865 1096.42 Q179.865 1083.94 176.664 1077.74 Q173.505 1071.51 167.145 1071.51 M167.145 1065.02 Q177.312 1065.02 182.66 1073.09 Q188.047 1081.11 188.047 1096.42 Q188.047 1111.69 182.66 1119.75 Q177.312 1127.77 167.145 1127.77 Q156.977 1127.77 151.589 1119.75 Q146.242 1111.69 146.242 1096.42 Q146.242 1081.11 151.589 1073.09 Q156.977 1065.02 167.145 1065.02 Z" fill="#000000" fill-rule="evenodd" fill-opacity="1" /><path clip-path="url(#clip580)" d="M202.428 1116.31 L210.975 1116.31 L210.975 1126.6 L202.428 1126.6 L202.428 1116.31 Z" fill="#000000" fill-rule="evenodd" fill-opacity="1" /><path clip-path="url(#clip580)" d="M246.299 1071.51 Q239.98 1071.51 236.78 1077.74 Q233.62 1083.94 233.62 1096.42 Q233.62 1108.85 236.78 1115.09 Q239.98 1121.29 246.299 1121.29 Q252.659 1121.29 255.819 1115.09 Q259.019 1108.85 259.019 1096.42 Q259.019 1083.94 255.819 1077.74 Q252.659 1071.51 246.299 1071.51 M246.299 1065.02 Q256.467 1065.02 261.814 1073.09 Q267.202 1081.11 267.202 1096.42 Q267.202 1111.69 261.814 1119.75 Q256.467 1127.77 246.299 1127.77 Q236.132 1127.77 230.744 1119.75 Q225.397 1111.69 225.397 1096.42 Q225.397 1081.11 230.744 1073.09 Q236.132 1065.02 246.299 1065.02 Z" fill="#000000" fill-rule="evenodd" fill-opacity="1" /><path clip-path="url(#clip580)" d="M281.664 1066.12 L313.787 1066.12 L313.787 1073 L289.158 1073 L289.158 1087.83 Q290.94 1087.22 292.723 1086.94 Q294.505 1086.62 296.288 1086.62 Q306.415 1086.62 312.329 1092.17 Q318.243 1097.71 318.243 1107.19 Q318.243 1116.96 312.167 1122.38 Q306.091 1127.77 295.032 1127.77 Q291.224 1127.77 287.254 1127.12 Q283.325 1126.48 279.112 1125.18 L279.112 1116.96 Q282.758 1118.94 286.646 1119.91 Q290.535 1120.89 294.87 1120.89 Q301.878 1120.89 305.969 1117.2 Q310.061 1113.51 310.061 1107.19 Q310.061 1100.87 305.969 1097.19 Q301.878 1093.5 294.87 1093.5 Q291.588 1093.5 288.307 1094.23 Q285.067 1094.96 281.664 1096.5 L281.664 1066.12 Z" fill="#000000" fill-rule="evenodd" fill-opacity="1" /><path clip-path="url(#clip580)" d="M165.403 838.196 Q159.083 838.196 155.883 844.434 Q152.723 850.632 152.723 863.109 Q152.723 875.545 155.883 881.784 Q159.083 887.981 165.403 887.981 Q171.763 887.981 174.922 881.784 Q178.123 875.545 178.123 863.109 Q178.123 850.632 174.922 844.434 Q171.763 838.196 165.403 838.196 M165.403 831.714 Q175.571 831.714 180.918 839.776 Q186.305 847.796 186.305 863.109 Q186.305 878.381 180.918 886.442 Q175.571 894.463 165.403 894.463 Q155.235 894.463 149.847 886.442 Q144.5 878.381 144.5 863.109 Q144.5 847.796 149.847 839.776 Q155.235 831.714 165.403 831.714 Z" fill="#000000" fill-rule="evenodd" fill-opacity="1" /><path clip-path="url(#clip580)" d="M200.686 882.999 L209.234 882.999 L209.234 893.288 L200.686 893.288 L200.686 882.999 Z" fill="#000000" fill-rule="evenodd" fill-opacity="1" /><path clip-path="url(#clip580)" d="M228.475 886.402 L241.843 886.402 L241.843 840.262 L227.301 843.178 L227.301 835.725 L241.762 832.808 L249.945 832.808 L249.945 886.402 L263.313 886.402 L263.313 893.288 L228.475 893.288 L228.475 886.402 Z" fill="#000000" fill-rule="evenodd" fill-opacity="1" /><path clip-path="url(#clip580)" d="M297.341 838.196 Q291.021 838.196 287.821 844.434 Q284.661 850.632 284.661 863.109 Q284.661 875.545 287.821 881.784 Q291.021 887.981 297.341 887.981 Q303.701 887.981 306.86 881.784 Q310.061 875.545 310.061 863.109 Q310.061 850.632 306.86 844.434 Q303.701 838.196 297.341 838.196 M297.341 831.714 Q307.509 831.714 312.856 839.776 Q318.243 847.796 318.243 863.109 Q318.243 878.381 312.856 886.442 Q307.509 894.463 297.341 894.463 Q287.173 894.463 281.785 886.442 Q276.438 878.381 276.438 863.109 Q276.438 847.796 281.785 839.776 Q287.173 831.714 297.341 831.714 Z" fill="#000000" fill-rule="evenodd" fill-opacity="1" /><path clip-path="url(#clip580)" d="M167.145 604.886 Q160.825 604.886 157.625 611.124 Q154.465 617.322 154.465 629.799 Q154.465 642.235 157.625 648.474 Q160.825 654.672 167.145 654.672 Q173.505 654.672 176.664 648.474 Q179.865 642.235 179.865 629.799 Q179.865 617.322 176.664 611.124 Q173.505 604.886 167.145 604.886 M167.145 598.405 Q177.312 598.405 182.66 606.466 Q188.047 614.487 188.047 629.799 Q188.047 645.071 182.66 653.132 Q177.312 661.153 167.145 661.153 Q156.977 661.153 151.589 653.132 Q146.242 645.071 146.242 629.799 Q146.242 614.487 151.589 606.466 Q156.977 598.405 167.145 598.405 Z" fill="#000000" fill-rule="evenodd" fill-opacity="1" /><path clip-path="url(#clip580)" d="M202.428 649.689 L210.975 649.689 L210.975 659.978 L202.428 659.978 L202.428 649.689 Z" fill="#000000" fill-rule="evenodd" fill-opacity="1" /><path clip-path="url(#clip580)" d="M230.217 653.092 L243.585 653.092 L243.585 606.952 L229.043 609.869 L229.043 602.415 L243.504 599.498 L251.687 599.498 L251.687 653.092 L265.055 653.092 L265.055 659.978 L230.217 659.978 L230.217 653.092 Z" fill="#000000" fill-rule="evenodd" fill-opacity="1" /><path clip-path="url(#clip580)" d="M281.664 599.498 L313.787 599.498 L313.787 606.385 L289.158 606.385 L289.158 621.211 Q290.94 620.603 292.723 620.32 Q294.505 619.996 296.288 619.996 Q306.415 619.996 312.329 625.546 Q318.243 631.095 318.243 640.574 Q318.243 650.337 312.167 655.765 Q306.091 661.153 295.032 661.153 Q291.224 661.153 287.254 660.505 Q283.325 659.857 279.112 658.56 L279.112 650.337 Q282.758 652.322 286.646 653.294 Q290.535 654.267 294.87 654.267 Q301.878 654.267 305.969 650.58 Q310.061 646.894 310.061 640.574 Q310.061 634.255 305.969 630.569 Q301.878 626.882 294.87 626.882 Q291.588 626.882 288.307 627.612 Q285.067 628.341 281.664 629.88 L281.664 599.498 Z" fill="#000000" fill-rule="evenodd" fill-opacity="1" /><path clip-path="url(#clip580)" d="M165.403 371.576 Q159.083 371.576 155.883 377.815 Q152.723 384.012 152.723 396.489 Q152.723 408.926 155.883 415.164 Q159.083 421.362 165.403 421.362 Q171.763 421.362 174.922 415.164 Q178.123 408.926 178.123 396.489 Q178.123 384.012 174.922 377.815 Q171.763 371.576 165.403 371.576 M165.403 365.095 Q175.571 365.095 180.918 373.156 Q186.305 381.177 186.305 396.489 Q186.305 411.761 180.918 419.822 Q175.571 427.843 165.403 427.843 Q155.235 427.843 149.847 419.822 Q144.5 411.761 144.5 396.489 Q144.5 381.177 149.847 373.156 Q155.235 365.095 165.403 365.095 Z" fill="#000000" fill-rule="evenodd" fill-opacity="1" /><path clip-path="url(#clip580)" d="M200.686 416.379 L209.234 416.379 L209.234 426.668 L200.686 426.668 L200.686 416.379 Z" fill="#000000" fill-rule="evenodd" fill-opacity="1" /><path clip-path="url(#clip580)" d="M234.106 419.782 L262.665 419.782 L262.665 426.668 L224.262 426.668 L224.262 419.782 Q228.921 414.961 236.942 406.86 Q245.003 398.717 247.069 396.368 Q250.998 391.952 252.538 388.914 Q254.118 385.835 254.118 382.878 Q254.118 378.058 250.715 375.019 Q247.353 371.981 241.924 371.981 Q238.076 371.981 233.782 373.318 Q229.529 374.655 224.668 377.369 L224.668 369.105 Q229.61 367.12 233.904 366.107 Q238.198 365.095 241.762 365.095 Q251.16 365.095 256.751 369.794 Q262.341 374.493 262.341 382.352 Q262.341 386.078 260.923 389.441 Q259.546 392.762 255.86 397.299 Q254.847 398.474 249.419 404.105 Q243.99 409.695 234.106 419.782 Z" fill="#000000" fill-rule="evenodd" fill-opacity="1" /><path clip-path="url(#clip580)" d="M297.341 371.576 Q291.021 371.576 287.821 377.815 Q284.661 384.012 284.661 396.489 Q284.661 408.926 287.821 415.164 Q291.021 421.362 297.341 421.362 Q303.701 421.362 306.86 415.164 Q310.061 408.926 310.061 396.489 Q310.061 384.012 306.86 377.815 Q303.701 371.576 297.341 371.576 M297.341 365.095 Q307.509 365.095 312.856 373.156 Q318.243 381.177 318.243 396.489 Q318.243 411.761 312.856 419.822 Q307.509 427.843 297.341 427.843 Q287.173 427.843 281.785 419.822 Q276.438 411.761 276.438 396.489 Q276.438 381.177 281.785 373.156 Q287.173 365.095 297.341 365.095 Z" fill="#000000" fill-rule="evenodd" fill-opacity="1" /><path clip-path="url(#clip580)" d="M167.145 138.266 Q160.825 138.266 157.625 144.505 Q154.465 150.703 154.465 163.179 Q154.465 175.616 157.625 181.854 Q160.825 188.052 167.145 188.052 Q173.505 188.052 176.664 181.854 Q179.865 175.616 179.865 163.179 Q179.865 150.703 176.664 144.505 Q173.505 138.266 167.145 138.266 M167.145 131.785 Q177.312 131.785 182.66 139.846 Q188.047 147.867 188.047 163.179 Q188.047 178.451 182.66 186.513 Q177.312 194.533 167.145 194.533 Q156.977 194.533 151.589 186.513 Q146.242 178.451 146.242 163.179 Q146.242 147.867 151.589 139.846 Q156.977 131.785 167.145 131.785 Z" fill="#000000" fill-rule="evenodd" fill-opacity="1" /><path clip-path="url(#clip580)" d="M202.428 183.069 L210.975 183.069 L210.975 193.359 L202.428 193.359 L202.428 183.069 Z" fill="#000000" fill-rule="evenodd" fill-opacity="1" /><path clip-path="url(#clip580)" d="M235.848 186.472 L264.407 186.472 L264.407 193.359 L226.004 193.359 L226.004 186.472 Q230.663 181.652 238.684 173.55 Q246.745 165.407 248.811 163.058 Q252.74 158.642 254.28 155.604 Q255.86 152.526 255.86 149.568 Q255.86 144.748 252.457 141.71 Q249.095 138.671 243.666 138.671 Q239.818 138.671 235.524 140.008 Q231.271 141.345 226.409 144.059 L226.409 135.795 Q231.352 133.81 235.646 132.798 Q239.939 131.785 243.504 131.785 Q252.902 131.785 258.493 136.484 Q264.083 141.183 264.083 149.042 Q264.083 152.769 262.665 156.131 Q261.288 159.453 257.601 163.99 Q256.589 165.164 251.16 170.795 Q245.732 176.385 235.848 186.472 Z" fill="#000000" fill-rule="evenodd" fill-opacity="1" /><path clip-path="url(#clip580)" d="M281.664 132.879 L313.787 132.879 L313.787 139.765 L289.158 139.765 L289.158 154.592 Q290.94 153.984 292.723 153.7 Q294.505 153.376 296.288 153.376 Q306.415 153.376 312.329 158.926 Q318.243 164.476 318.243 173.955 Q318.243 183.718 312.167 189.146 Q306.091 194.533 295.032 194.533 Q291.224 194.533 287.254 193.885 Q283.325 193.237 279.112 191.941 L279.112 183.718 Q282.758 185.702 286.646 186.675 Q290.535 187.647 294.87 187.647 Q301.878 187.647 305.969 183.961 Q310.061 180.274 310.061 173.955 Q310.061 167.635 305.969 163.949 Q301.878 160.263 294.87 160.263 Q291.588 160.263 288.307 160.992 Q285.067 161.721 281.664 163.26 L281.664 132.879 Z" fill="#000000" fill-rule="evenodd" fill-opacity="1" /><path clip-path="url(#clip580)" d="M31.1272 859.466 Q37.0296 859.466 42.4578 863.84 Q47.8859 868.161 51.2061 875.223 Q54.4735 882.232 54.4735 889.769 L54.4735 908.108 L81.4562 914.801 Q81.6143 914.854 82.2994 915.012 Q82.9318 915.17 83.3007 915.17 Q84.6182 915.17 84.9344 913.537 Q85.2506 911.85 85.2506 908.108 Q85.2506 905.684 85.6722 905.315 Q85.9357 905.105 86.41 905.105 Q87.1478 905.105 87.6748 905.315 Q88.1491 905.526 88.3072 905.948 Q88.4653 906.317 88.518 906.58 Q88.5707 906.844 88.5707 907.265 Q88.5707 908.372 88.4653 910.743 Q88.3599 913.062 88.3599 914.274 L88.2545 921.178 L88.5707 934.88 Q88.5707 936.514 87.2532 936.514 Q86.2519 936.514 85.8303 936.092 Q85.356 935.671 85.3033 935.196 Q85.2506 934.722 85.2506 933.51 Q85.2506 930.875 85.0925 929.294 Q84.9344 927.713 84.7236 926.712 Q84.4601 925.658 83.7223 925.131 Q82.9845 924.551 82.3521 924.287 Q81.667 924.024 80.1386 923.655 L22.1681 909.215 Q20.429 908.794 20.1655 908.794 Q19.2696 908.794 18.9534 909.321 Q18.5845 909.795 18.4264 911.165 Q18.2156 913.8 18.2156 915.803 Q18.2156 917.12 18.1629 917.647 Q18.1102 918.122 17.8466 918.543 Q17.5304 918.912 16.898 918.912 Q15.8967 918.912 15.4751 918.49 Q15.0008 918.016 14.9481 917.489 Q14.8427 916.962 14.8427 915.697 L14.8427 880.704 Q14.8427 870.638 19.6385 865.052 Q24.4342 859.466 31.1272 859.466 M28.5449 869.479 Q18.2156 869.479 18.2156 884.182 L18.2156 894.512 Q18.2156 897.937 18.848 898.78 Q19.4277 899.624 22.3262 900.361 L51.6804 907.687 L51.6804 892.456 Q51.6804 882.232 45.936 875.856 Q43.301 872.957 37.8201 871.218 Q32.3393 869.479 28.5449 869.479 Z" fill="#000000" fill-rule="evenodd" fill-opacity="1" /><path clip-path="url(#clip580)" d="M61.5881 847.629 Q43.3537 847.629 28.6503 840.83 Q22.4843 837.932 17.3196 833.874 Q12.155 829.816 9.88887 827.128 Q7.62275 824.441 7.62275 823.703 Q7.62275 822.649 8.67676 822.596 Q9.20377 822.596 10.5213 824.019 Q28.2286 841.41 61.5881 841.357 Q95.0529 841.357 112.075 824.441 Q113.92 822.596 114.499 822.596 Q115.553 822.596 115.553 823.703 Q115.553 824.441 113.393 827.023 Q111.232 829.605 106.278 833.61 Q101.324 837.616 95.2637 840.514 Q80.5602 847.629 61.5881 847.629 Z" fill="#000000" fill-rule="evenodd" fill-opacity="1" /><path clip-path="url(#clip580)" d="M16.0548 725.869 Q17.0034 725.869 17.5304 726.238 Q18.0048 726.554 18.1102 726.923 Q18.1629 727.292 18.2156 728.241 Q18.5845 735.777 23.6964 741.943 Q25.0139 743.471 29.1246 747.318 Q33.2352 751.113 38.716 756.172 Q44.1969 761.179 47.1481 764.077 L80.4548 750.164 Q81.7724 749.585 82.3521 749.374 Q82.8791 749.11 83.5642 748.583 Q84.2493 748.004 84.4601 747.582 Q84.6709 747.108 84.9344 746.106 Q85.1452 745.052 85.1979 743.998 Q85.1979 742.892 85.2506 740.889 Q85.2506 740.257 85.3033 739.993 Q85.3033 739.677 85.6195 739.308 Q85.883 738.939 86.5154 738.939 Q87.464 738.939 87.991 739.361 Q88.4653 739.73 88.518 740.099 Q88.5707 740.415 88.5707 740.994 Q88.5707 742.365 88.4126 747.002 Q88.2545 751.64 88.2545 752.957 L88.5707 766.554 Q88.5707 768.188 87.2532 768.188 Q86.5681 768.188 86.1992 768.082 Q85.7776 767.924 85.6195 767.555 Q85.4087 767.187 85.356 766.923 Q85.3033 766.66 85.2506 766.027 Q85.0398 764.077 84.4601 762.602 Q83.8277 761.073 83.1953 760.441 Q82.5629 759.756 82.0886 759.756 L80.5602 760.283 L54.7897 771.192 L65.3825 780.941 L77.0293 791.956 Q80.1386 794.854 81.8778 794.854 Q84.7763 794.854 85.2506 790.533 Q85.356 789.215 86.41 789.215 Q87.4113 789.215 87.9383 789.637 Q88.4126 790.006 88.518 790.375 Q88.5707 790.691 88.5707 791.165 Q88.5707 793.115 88.4126 797.226 Q88.2545 801.284 88.2545 803.286 Q88.2545 804.973 88.4126 808.398 Q88.5707 811.824 88.5707 813.405 Q88.5707 814.037 88.2545 814.406 Q87.9383 814.775 87.6221 814.775 L87.3586 814.828 Q86.6208 814.828 86.1992 814.722 Q85.7776 814.564 85.5668 814.143 Q85.356 813.668 85.356 813.458 Q85.3033 813.247 85.2506 812.456 Q84.9871 807.977 83.248 804.182 Q81.5089 800.335 77.4509 796.593 Q77.1874 796.277 76.8712 795.908 Q76.555 795.487 76.2915 795.171 L51.7858 772.404 L21.6411 785.157 Q20.2709 785.737 19.6912 786.264 Q19.0588 786.791 18.6372 788.425 Q18.2156 790.059 18.2156 793.221 Q18.2156 794.117 18.1629 794.538 Q18.1102 794.96 17.8466 795.329 Q17.5831 795.698 17.0034 795.698 Q16.0021 795.698 15.5278 795.329 Q15.0008 794.907 14.9481 794.591 Q14.8427 794.222 14.8427 793.748 Q14.8427 792.43 15.0008 787.74 Q15.1589 783.049 15.1589 781.679 Q15.1589 779.413 15.0008 774.881 Q14.8427 770.296 14.8427 768.082 Q14.8427 766.449 16.1602 766.449 Q17.0034 766.449 17.4777 766.818 Q17.952 767.187 18.0575 767.555 Q18.1629 767.924 18.2156 768.609 Q18.4264 770.665 19.1115 772.246 Q19.7439 773.774 20.3763 774.407 Q20.956 774.986 21.3249 774.986 L22.7478 774.459 L44.1969 765.395 L25.4355 747.898 Q23.1167 745.843 21.5357 745.843 Q18.6899 745.843 18.2156 750.164 Q18.0048 751.482 17.0034 751.482 Q16.0021 751.482 15.5278 751.06 Q15.0008 750.639 14.9481 750.322 Q14.8427 749.954 14.8427 749.426 Q14.8427 747.477 15.0008 743.471 Q15.1589 739.413 15.1589 737.411 Q15.1589 735.724 15.0008 732.299 Q14.8427 728.873 14.8427 727.292 Q14.8427 726.66 15.1589 726.291 Q15.4224 725.922 15.7386 725.922 L16.0548 725.869 Z" fill="#000000" fill-rule="evenodd" fill-opacity="1" /><path clip-path="url(#clip580)" d="M72.1809 696.418 Q70.8634 696.313 70.8634 694.258 L70.8634 628.119 Q70.8634 625.009 72.0755 624.956 Q73.393 624.956 73.3403 627.908 L73.3403 693.52 Q73.393 696.418 72.1809 696.418 M51.1007 696.418 Q49.7832 696.418 49.8359 694.152 L49.8359 628.224 Q49.8359 625.009 51.1007 624.956 Q52.3128 624.956 52.3128 627.697 L52.3128 694.258 Q52.3128 696.418 51.1007 696.418 Z" fill="#000000" fill-rule="evenodd" fill-opacity="1" /><path clip-path="url(#clip580)" d="M47.9913 529.578 Q50.9426 529.578 52.629 531.423 Q54.2627 533.267 54.2627 535.375 Q54.2627 537.378 53.1033 538.432 Q51.9439 539.486 50.4683 539.486 Q48.4656 539.486 46.7265 538.01 Q44.9874 536.535 44.6185 534.321 Q43.2483 536.482 43.2483 539.697 Q43.2483 541.805 44.355 543.649 Q45.4617 545.441 46.8846 546.548 Q48.3075 547.602 50.3629 548.55 Q52.3655 549.446 53.5776 549.815 Q54.737 550.131 56.0018 550.395 L70.758 554.084 Q77.7671 555.876 80.244 555.876 Q83.3007 555.876 85.356 554.4 Q87.3586 552.924 87.3586 549.973 Q87.3586 548.814 87.0424 547.496 Q86.6735 546.179 85.7249 544.492 Q84.7236 542.753 83.248 541.225 Q81.7197 539.644 79.1373 538.116 Q76.555 536.587 73.2349 535.586 Q72.0755 535.27 72.0755 534.216 Q72.0755 532.898 73.1295 532.898 Q74.0254 532.898 75.9226 533.636 Q77.7671 534.321 80.1913 535.849 Q82.5629 537.325 84.7236 539.275 Q86.8316 541.225 88.3072 544.123 Q89.7828 547.022 89.7828 550.184 Q89.7828 554.716 87.3586 557.72 Q84.9344 560.724 81.5616 561.831 Q82.0359 562.094 82.6683 562.463 Q83.3007 562.832 84.7236 563.939 Q86.0938 564.993 87.1478 566.205 Q88.1491 567.417 88.9396 569.314 Q89.7828 571.159 89.7828 573.161 Q89.7828 575.691 89.045 577.957 Q88.3072 580.171 86.6208 581.752 Q84.9344 583.333 82.6156 583.333 Q80.0332 583.333 78.2414 581.593 Q76.3969 579.802 76.3969 577.377 Q76.3969 575.849 77.2928 574.637 Q78.1887 573.372 80.1386 573.372 Q82.2994 573.372 83.9331 574.848 Q85.5668 576.323 85.9884 578.431 Q87.3586 576.271 87.3586 573.056 Q87.3586 569.578 84.302 566.837 Q81.2454 564.097 76.1334 562.779 Q63.8542 559.512 58.3733 558.247 Q52.8398 556.982 50.4683 556.982 Q48.2548 556.982 46.7265 557.562 Q45.1982 558.142 44.5131 559.143 Q43.7753 560.092 43.5118 560.988 Q43.2483 561.831 43.2483 562.779 Q43.2483 564.36 43.8807 566.152 Q44.5131 567.891 45.9887 569.999 Q47.4116 572.055 50.3629 574.005 Q53.3141 575.954 57.372 577.272 Q58.5841 577.536 58.5841 578.695 Q58.5314 579.96 57.4774 579.96 Q56.5815 579.96 54.737 579.275 Q52.8398 578.537 50.4683 577.061 Q48.0967 575.533 45.9887 573.583 Q43.828 571.58 42.3524 568.682 Q40.8768 565.731 40.8768 562.569 Q40.8768 561.146 41.193 559.775 Q41.4565 558.353 42.247 556.666 Q43.0375 554.927 44.7766 553.399 Q46.5157 551.87 49.0453 550.922 Q47.8332 550.289 46.6738 549.446 Q45.5144 548.55 44.0915 547.18 Q42.6159 545.757 41.7727 543.807 Q40.8768 541.805 40.8768 539.591 Q40.8768 537.43 41.4565 535.322 Q41.9835 533.214 43.7226 531.423 Q45.409 529.578 47.9913 529.578 Z" fill="#000000" fill-rule="evenodd" fill-opacity="1" /><path clip-path="url(#clip580)" d="M114.499 519.191 Q113.972 519.191 112.655 517.821 Q94.9475 500.43 61.5881 500.43 Q28.1232 500.43 11.2064 517.136 Q9.25647 519.191 8.67676 519.191 Q7.62275 519.191 7.62275 518.137 Q7.62275 517.399 9.78347 514.817 Q11.9442 512.182 16.898 508.229 Q21.8519 504.224 27.9124 501.273 Q42.6159 494.158 61.5881 494.158 Q79.8224 494.158 94.5259 500.957 Q100.692 503.855 105.856 507.913 Q111.021 511.971 113.287 514.659 Q115.553 517.346 115.553 518.137 Q115.553 519.191 114.499 519.191 Z" fill="#000000" fill-rule="evenodd" fill-opacity="1" /><path clip-path="url(#clip582)" d="
M464.165 1329.64 L464.165 1329.67 L548.864 1329.67 L548.864 1329.64 L464.165 1329.64 L464.165 1329.64  Z
  " fill="#b1df89" fill-rule="evenodd" fill-opacity="1"/>
<polyline clip-path="url(#clip582)" style="stroke:#000000; stroke-linecap:round; stroke-linejoin:round; stroke-width:0; stroke-opacity:1; fill:none" points="
  464.165,1329.64 464.165,1329.67 548.864,1329.67 548.864,1329.64 464.165,1329.64 
  "/>
<path clip-path="url(#clip582)" d="
M633.562 1329.02 L633.562 1329.67 L718.261 1329.67 L718.261 1329.02 L633.562 1329.02 L633.562 1329.02  Z
  " fill="#b1df89" fill-rule="evenodd" fill-opacity="1"/>
<polyline clip-path="url(#clip582)" style="stroke:#000000; stroke-linecap:round; stroke-linejoin:round; stroke-width:0; stroke-opacity:1; fill:none" points="
  633.562,1329.02 633.562,1329.67 718.261,1329.67 718.261,1329.02 633.562,1329.02 
  "/>
<path clip-path="url(#clip582)" d="
M802.959 1322.92 L802.959 1329.67 L887.658 1329.67 L887.658 1322.92 L802.959 1322.92 L802.959 1322.92  Z
  " fill="#b1df89" fill-rule="evenodd" fill-opacity="1"/>
<polyline clip-path="url(#clip582)" style="stroke:#000000; stroke-linecap:round; stroke-linejoin:round; stroke-width:0; stroke-opacity:1; fill:none" points="
  802.959,1322.92 802.959,1329.67 887.658,1329.67 887.658,1322.92 802.959,1322.92 
  "/>
<path clip-path="url(#clip582)" d="
M972.356 1287.66 L972.356 1329.67 L1057.05 1329.67 L1057.05 1287.66 L972.356 1287.66 L972.356 1287.66  Z
  " fill="#b1df89" fill-rule="evenodd" fill-opacity="1"/>
<polyline clip-path="url(#clip582)" style="stroke:#000000; stroke-linecap:round; stroke-linejoin:round; stroke-width:0; stroke-opacity:1; fill:none" points="
  972.356,1287.66 972.356,1329.67 1057.05,1329.67 1057.05,1287.66 972.356,1287.66 
  "/>
<path clip-path="url(#clip582)" d="
M1141.75 1158.15 L1141.75 1329.67 L1226.45 1329.67 L1226.45 1158.15 L1141.75 1158.15 L1141.75 1158.15  Z
  " fill="#b1df89" fill-rule="evenodd" fill-opacity="1"/>
<polyline clip-path="url(#clip582)" style="stroke:#000000; stroke-linecap:round; stroke-linejoin:round; stroke-width:0; stroke-opacity:1; fill:none" points="
  1141.75,1158.15 1141.75,1329.67 1226.45,1329.67 1226.45,1158.15 1141.75,1158.15 
  "/>
<path clip-path="url(#clip582)" d="
M1311.15 849.426 L1311.15 1329.67 L1395.85 1329.67 L1395.85 849.426 L1311.15 849.426 L1311.15 849.426  Z
  " fill="#b1df89" fill-rule="evenodd" fill-opacity="1"/>
<polyline clip-path="url(#clip582)" style="stroke:#000000; stroke-linecap:round; stroke-linejoin:round; stroke-width:0; stroke-opacity:1; fill:none" points="
  1311.15,849.426 1311.15,1329.67 1395.85,1329.67 1395.85,849.426 1311.15,849.426 
  "/>
<path clip-path="url(#clip582)" d="
M1480.55 395.864 L1480.55 1329.67 L1565.25 1329.67 L1565.25 395.864 L1480.55 395.864 L1480.55 395.864  Z
  " fill="#b1df89" fill-rule="evenodd" fill-opacity="1"/>
<polyline clip-path="url(#clip582)" style="stroke:#000000; stroke-linecap:round; stroke-linejoin:round; stroke-width:0; stroke-opacity:1; fill:none" points="
  1480.55,395.864 1480.55,1329.67 1565.25,1329.67 1565.25,395.864 1480.55,395.864 
  "/>
<path clip-path="url(#clip582)" d="
M1649.94 84.5962 L1649.94 1329.67 L1734.64 1329.67 L1734.64 84.5962 L1649.94 84.5962 L1649.94 84.5962  Z
  " fill="#b1df89" fill-rule="evenodd" fill-opacity="1"/>
<polyline clip-path="url(#clip582)" style="stroke:#000000; stroke-linecap:round; stroke-linejoin:round; stroke-width:0; stroke-opacity:1; fill:none" points="
  1649.94,84.5962 1649.94,1329.67 1734.64,1329.67 1734.64,84.5962 1649.94,84.5962 
  "/>
<path clip-path="url(#clip582)" d="
M1819.34 240.23 L1819.34 1329.67 L1904.04 1329.67 L1904.04 240.23 L1819.34 240.23 L1819.34 240.23  Z
  " fill="#b1df89" fill-rule="evenodd" fill-opacity="1"/>
<polyline clip-path="url(#clip582)" style="stroke:#000000; stroke-linecap:round; stroke-linejoin:round; stroke-width:0; stroke-opacity:1; fill:none" points="
  1819.34,240.23 1819.34,1329.67 1904.04,1329.67 1904.04,240.23 1819.34,240.23 
  "/>
<path clip-path="url(#clip582)" d="
M1988.74 764.774 L1988.74 1329.67 L2073.44 1329.67 L2073.44 764.774 L1988.74 764.774 L1988.74 764.774  Z
  " fill="#b1df89" fill-rule="evenodd" fill-opacity="1"/>
<polyline clip-path="url(#clip582)" style="stroke:#000000; stroke-linecap:round; stroke-linejoin:round; stroke-width:0; stroke-opacity:1; fill:none" points="
  1988.74,764.774 1988.74,1329.67 2073.44,1329.67 2073.44,764.774 1988.74,764.774 
  "/>
<path clip-path="url(#clip582)" d="
M2158.14 1197.86 L2158.14 1329.67 L2242.83 1329.67 L2242.83 1197.86 L2158.14 1197.86 L2158.14 1197.86  Z
  " fill="#b1df89" fill-rule="evenodd" fill-opacity="1"/>
<polyline clip-path="url(#clip582)" style="stroke:#000000; stroke-linecap:round; stroke-linejoin:round; stroke-width:0; stroke-opacity:1; fill:none" points="
  2158.14,1197.86 2158.14,1329.67 2242.83,1329.67 2242.83,1197.86 2158.14,1197.86 
  "/>
<circle clip-path="url(#clip582)" style="fill:#b1df89; stroke:none; fill-opacity:0" cx="506.514" cy="1329.64" r="2"/>
<circle clip-path="url(#clip582)" style="fill:#b1df89; stroke:none; fill-opacity:0" cx="675.911" cy="1329.02" r="2"/>
<circle clip-path="url(#clip582)" style="fill:#b1df89; stroke:none; fill-opacity:0" cx="845.309" cy="1322.92" r="2"/>
<circle clip-path="url(#clip582)" style="fill:#b1df89; stroke:none; fill-opacity:0" cx="1014.71" cy="1287.66" r="2"/>
<circle clip-path="url(#clip582)" style="fill:#b1df89; stroke:none; fill-opacity:0" cx="1184.1" cy="1158.15" r="2"/>
<circle clip-path="url(#clip582)" style="fill:#b1df89; stroke:none; fill-opacity:0" cx="1353.5" cy="849.426" r="2"/>
<circle clip-path="url(#clip582)" style="fill:#b1df89; stroke:none; fill-opacity:0" cx="1522.9" cy="395.864" r="2"/>
<circle clip-path="url(#clip582)" style="fill:#b1df89; stroke:none; fill-opacity:0" cx="1692.29" cy="84.5962" r="2"/>
<circle clip-path="url(#clip582)" style="fill:#b1df89; stroke:none; fill-opacity:0" cx="1861.69" cy="240.23" r="2"/>
<circle clip-path="url(#clip582)" style="fill:#b1df89; stroke:none; fill-opacity:0" cx="2031.09" cy="764.774" r="2"/>
<circle clip-path="url(#clip582)" style="fill:#b1df89; stroke:none; fill-opacity:0" cx="2200.48" cy="1197.86" r="2"/>
</svg>
