<?xml version="1.0" encoding="utf-8"?>
<svg xmlns="http://www.w3.org/2000/svg" xmlns:xlink="http://www.w3.org/1999/xlink" width="600" height="400" viewBox="0 0 2400 1600">
<defs>
  <clipPath id="clip850">
    <rect x="0" y="0" width="2400" height="1600"/>
  </clipPath>
</defs>
<path clip-path="url(#clip850)" d="
M0 1600 L2400 1600 L2400 0 L0 0  Z
  " fill="#ffffff" fill-rule="evenodd" fill-opacity="1"/>
<defs>
  <clipPath id="clip851">
    <rect x="480" y="0" width="1681" height="1600"/>
  </clipPath>
</defs>
<defs>
  <clipPath id="clip852">
    <rect x="354" y="47" width="2000" height="1303"/>
  </clipPath>
</defs>
<path clip-path="url(#clip850)" d="
M354.243 1349.74 L2352.76 1349.74 L2352.76 47.2441 L354.243 47.2441  Z
  " fill="#ffffff" fill-rule="evenodd" fill-opacity="1"/>
<polyline clip-path="url(#clip850)" style="stroke:#000000; stroke-linecap:round; stroke-linejoin:round; stroke-width:4; stroke-opacity:1; fill:none" points="
  354.243,1349.74 2352.76,1349.74 
  "/>
<polyline clip-path="url(#clip850)" style="stroke:#000000; stroke-linecap:round; stroke-linejoin:round; stroke-width:4; stroke-opacity:1; fill:none" points="
  410.805,1349.74 410.805,1330.84 
  "/>
<polyline clip-path="url(#clip850)" style="stroke:#000000; stroke-linecap:round; stroke-linejoin:round; stroke-width:4; stroke-opacity:1; fill:none" points="
  803.595,1349.74 803.595,1330.84 
  "/>
<polyline clip-path="url(#clip850)" style="stroke:#000000; stroke-linecap:round; stroke-linejoin:round; stroke-width:4; stroke-opacity:1; fill:none" points="
  1196.38,1349.74 1196.38,1330.84 
  "/>
<polyline clip-path="url(#clip850)" style="stroke:#000000; stroke-linecap:round; stroke-linejoin:round; stroke-width:4; stroke-opacity:1; fill:none" points="
  1589.17,1349.74 1589.17,1330.84 
  "/>
<polyline clip-path="url(#clip850)" style="stroke:#000000; stroke-linecap:round; stroke-linejoin:round; stroke-width:4; stroke-opacity:1; fill:none" points="
  1981.96,1349.74 1981.96,1330.84 
  "/>
<path clip-path="url(#clip850)" d="M359.92 1395.31 Q351.795 1395.31 347.68 1403.33 Q343.618 1411.3 343.618 1427.34 Q343.618 1443.33 347.68 1451.35 Q351.795 1459.32 359.92 1459.32 Q368.097 1459.32 372.159 1451.35 Q376.274 1443.33 376.274 1427.34 Q376.274 1411.3 372.159 1403.33 Q368.097 1395.31 359.92 1395.31 M359.92 1386.97 Q372.993 1386.97 379.868 1397.34 Q386.795 1407.65 386.795 1427.34 Q386.795 1446.97 379.868 1457.34 Q372.993 1467.65 359.92 1467.65 Q346.847 1467.65 339.92 1457.34 Q333.045 1446.97 333.045 1427.34 Q333.045 1407.65 339.92 1397.34 Q346.847 1386.97 359.92 1386.97 Z" fill="#000000" fill-rule="evenodd" fill-opacity="1" /><path clip-path="url(#clip850)" d="M405.284 1452.91 L416.274 1452.91 L416.274 1466.14 L405.284 1466.14 L405.284 1452.91 Z" fill="#000000" fill-rule="evenodd" fill-opacity="1" /><path clip-path="url(#clip850)" d="M461.69 1395.31 Q453.565 1395.31 449.451 1403.33 Q445.388 1411.3 445.388 1427.34 Q445.388 1443.33 449.451 1451.35 Q453.565 1459.32 461.69 1459.32 Q469.867 1459.32 473.93 1451.35 Q478.044 1443.33 478.044 1427.34 Q478.044 1411.3 473.93 1403.33 Q469.867 1395.31 461.69 1395.31 M461.69 1386.97 Q474.763 1386.97 481.638 1397.34 Q488.565 1407.65 488.565 1427.34 Q488.565 1446.97 481.638 1457.34 Q474.763 1467.65 461.69 1467.65 Q448.617 1467.65 441.69 1457.34 Q434.815 1446.97 434.815 1427.34 Q434.815 1407.65 441.69 1397.34 Q448.617 1386.97 461.69 1386.97 Z" fill="#000000" fill-rule="evenodd" fill-opacity="1" /><path clip-path="url(#clip850)" d="M740.001 1457.29 L776.72 1457.29 L776.72 1466.14 L727.345 1466.14 L727.345 1457.29 Q733.334 1451.09 743.647 1440.67 Q754.011 1430.2 756.668 1427.18 Q761.72 1421.5 763.699 1417.6 Q765.73 1413.64 765.73 1409.84 Q765.73 1403.64 761.355 1399.73 Q757.032 1395.83 750.053 1395.83 Q745.105 1395.83 739.584 1397.55 Q734.116 1399.27 727.866 1402.75 L727.866 1392.13 Q734.22 1389.58 739.741 1388.28 Q745.261 1386.97 749.845 1386.97 Q761.928 1386.97 769.116 1393.02 Q776.303 1399.06 776.303 1409.16 Q776.303 1413.95 774.48 1418.28 Q772.709 1422.55 767.97 1428.38 Q766.668 1429.89 759.688 1437.13 Q752.709 1444.32 740.001 1457.29 Z" fill="#000000" fill-rule="evenodd" fill-opacity="1" /><path clip-path="url(#clip850)" d="M798.803 1452.91 L809.792 1452.91 L809.792 1466.14 L798.803 1466.14 L798.803 1452.91 Z" fill="#000000" fill-rule="evenodd" fill-opacity="1" /><path clip-path="url(#clip850)" d="M832.813 1388.38 L874.115 1388.38 L874.115 1397.23 L842.448 1397.23 L842.448 1416.3 Q844.74 1415.52 847.032 1415.15 Q849.323 1414.73 851.615 1414.73 Q864.636 1414.73 872.24 1421.87 Q879.844 1429 879.844 1441.19 Q879.844 1453.74 872.032 1460.72 Q864.219 1467.65 850.001 1467.65 Q845.105 1467.65 840.001 1466.82 Q834.949 1465.98 829.532 1464.32 L829.532 1453.74 Q834.219 1456.3 839.219 1457.55 Q844.219 1458.8 849.792 1458.8 Q858.803 1458.8 864.063 1454.06 Q869.323 1449.32 869.323 1441.19 Q869.323 1433.07 864.063 1428.33 Q858.803 1423.59 849.792 1423.59 Q845.573 1423.59 841.355 1424.53 Q837.188 1425.46 832.813 1427.44 L832.813 1388.38 Z" fill="#000000" fill-rule="evenodd" fill-opacity="1" /><path clip-path="url(#clip850)" d="M1122.5 1388.38 L1163.81 1388.38 L1163.81 1397.23 L1132.14 1397.23 L1132.14 1416.3 Q1134.43 1415.52 1136.72 1415.15 Q1139.01 1414.73 1141.31 1414.73 Q1154.33 1414.73 1161.93 1421.87 Q1169.54 1429 1169.54 1441.19 Q1169.54 1453.74 1161.72 1460.72 Q1153.91 1467.65 1139.69 1467.65 Q1134.8 1467.65 1129.69 1466.82 Q1124.64 1465.98 1119.22 1464.32 L1119.22 1453.74 Q1123.91 1456.3 1128.91 1457.55 Q1133.91 1458.8 1139.48 1458.8 Q1148.49 1458.8 1153.75 1454.06 Q1159.01 1449.32 1159.01 1441.19 Q1159.01 1433.07 1153.75 1428.33 Q1148.49 1423.59 1139.48 1423.59 Q1135.26 1423.59 1131.05 1424.53 Q1126.88 1425.46 1122.5 1427.44 L1122.5 1388.38 Z" fill="#000000" fill-rule="evenodd" fill-opacity="1" /><path clip-path="url(#clip850)" d="M1190.26 1452.91 L1201.25 1452.91 L1201.25 1466.14 L1190.26 1466.14 L1190.26 1452.91 Z" fill="#000000" fill-rule="evenodd" fill-opacity="1" /><path clip-path="url(#clip850)" d="M1246.67 1395.31 Q1238.55 1395.31 1234.43 1403.33 Q1230.37 1411.3 1230.37 1427.34 Q1230.37 1443.33 1234.43 1451.35 Q1238.55 1459.32 1246.67 1459.32 Q1254.85 1459.32 1258.91 1451.35 Q1263.02 1443.33 1263.02 1427.34 Q1263.02 1411.3 1258.91 1403.33 Q1254.85 1395.31 1246.67 1395.31 M1246.67 1386.97 Q1259.74 1386.97 1266.62 1397.34 Q1273.54 1407.65 1273.54 1427.34 Q1273.54 1446.97 1266.62 1457.34 Q1259.74 1467.65 1246.67 1467.65 Q1233.6 1467.65 1226.67 1457.34 Q1219.8 1446.97 1219.8 1427.34 Q1219.8 1407.65 1226.67 1397.34 Q1233.6 1386.97 1246.67 1386.97 Z" fill="#000000" fill-rule="evenodd" fill-opacity="1" /><path clip-path="url(#clip850)" d="M1513.39 1388.38 L1563.39 1388.38 L1563.39 1392.86 L1535.16 1466.14 L1524.17 1466.14 L1550.74 1397.23 L1513.39 1397.23 L1513.39 1388.38 Z" fill="#000000" fill-rule="evenodd" fill-opacity="1" /><path clip-path="url(#clip850)" d="M1583.91 1452.91 L1594.9 1452.91 L1594.9 1466.14 L1583.91 1466.14 L1583.91 1452.91 Z" fill="#000000" fill-rule="evenodd" fill-opacity="1" /><path clip-path="url(#clip850)" d="M1617.92 1388.38 L1659.23 1388.38 L1659.23 1397.23 L1627.56 1397.23 L1627.56 1416.3 Q1629.85 1415.52 1632.14 1415.15 Q1634.43 1414.73 1636.73 1414.73 Q1649.75 1414.73 1657.35 1421.87 Q1664.95 1429 1664.95 1441.19 Q1664.95 1453.74 1657.14 1460.72 Q1649.33 1467.65 1635.11 1467.65 Q1630.21 1467.65 1625.11 1466.82 Q1620.06 1465.98 1614.64 1464.32 L1614.64 1453.74 Q1619.33 1456.3 1624.33 1457.55 Q1629.33 1458.8 1634.9 1458.8 Q1643.91 1458.8 1649.17 1454.06 Q1654.43 1449.32 1654.43 1441.19 Q1654.43 1433.07 1649.17 1428.33 Q1643.91 1423.59 1634.9 1423.59 Q1630.68 1423.59 1626.46 1424.53 Q1622.3 1425.46 1617.92 1427.44 L1617.92 1388.38 Z" fill="#000000" fill-rule="evenodd" fill-opacity="1" /><path clip-path="url(#clip850)" d="M1874.12 1457.29 L1891.31 1457.29 L1891.31 1397.96 L1872.61 1401.71 L1872.61 1392.13 L1891.21 1388.38 L1901.73 1388.38 L1901.73 1457.29 L1918.92 1457.29 L1918.92 1466.14 L1874.12 1466.14 L1874.12 1457.29 Z" fill="#000000" fill-rule="evenodd" fill-opacity="1" /><path clip-path="url(#clip850)" d="M1962.67 1395.31 Q1954.54 1395.31 1950.43 1403.33 Q1946.36 1411.3 1946.36 1427.34 Q1946.36 1443.33 1950.43 1451.35 Q1954.54 1459.32 1962.67 1459.32 Q1970.84 1459.32 1974.91 1451.35 Q1979.02 1443.33 1979.02 1427.34 Q1979.02 1411.3 1974.91 1403.33 Q1970.84 1395.31 1962.67 1395.31 M1962.67 1386.97 Q1975.74 1386.97 1982.61 1397.34 Q1989.54 1407.65 1989.54 1427.34 Q1989.54 1446.97 1982.61 1457.34 Q1975.74 1467.65 1962.67 1467.65 Q1949.59 1467.65 1942.67 1457.34 Q1935.79 1446.97 1935.79 1427.34 Q1935.79 1407.65 1942.67 1397.34 Q1949.59 1386.97 1962.67 1386.97 Z" fill="#000000" fill-rule="evenodd" fill-opacity="1" /><path clip-path="url(#clip850)" d="M2008.03 1452.91 L2019.02 1452.91 L2019.02 1466.14 L2008.03 1466.14 L2008.03 1452.91 Z" fill="#000000" fill-rule="evenodd" fill-opacity="1" /><path clip-path="url(#clip850)" d="M2064.44 1395.31 Q2056.31 1395.31 2052.2 1403.33 Q2048.13 1411.3 2048.13 1427.34 Q2048.13 1443.33 2052.2 1451.35 Q2056.31 1459.32 2064.44 1459.32 Q2072.61 1459.32 2076.68 1451.35 Q2080.79 1443.33 2080.79 1427.34 Q2080.79 1411.3 2076.68 1403.33 Q2072.61 1395.31 2064.44 1395.31 M2064.44 1386.97 Q2077.51 1386.97 2084.38 1397.34 Q2091.31 1407.65 2091.31 1427.34 Q2091.31 1446.97 2084.38 1457.34 Q2077.51 1467.65 2064.44 1467.65 Q2051.36 1467.65 2044.44 1457.34 Q2037.56 1446.97 2037.56 1427.34 Q2037.56 1407.65 2044.44 1397.34 Q2051.36 1386.97 2064.44 1386.97 Z" fill="#000000" fill-rule="evenodd" fill-opacity="1" /><path clip-path="url(#clip850)" d="M1376.7 1531.47 Q1376.7 1534.42 1374.85 1536.11 Q1373.01 1537.74 1370.9 1537.74 Q1368.9 1537.74 1367.84 1536.58 Q1366.79 1535.42 1366.79 1533.95 Q1366.79 1531.95 1368.26 1530.21 Q1369.74 1528.47 1371.95 1528.1 Q1369.79 1526.73 1366.58 1526.73 Q1364.47 1526.73 1362.62 1527.84 Q1360.83 1528.94 1359.73 1530.37 Q1358.67 1531.79 1357.72 1533.84 Q1356.83 1535.85 1356.46 1537.06 Q1356.14 1538.22 1355.88 1539.48 L1352.19 1554.24 Q1350.4 1561.25 1350.4 1563.72 Q1350.4 1566.78 1351.87 1568.84 Q1353.35 1570.84 1356.3 1570.84 Q1357.46 1570.84 1358.78 1570.52 Q1360.09 1570.15 1361.78 1569.21 Q1363.52 1568.2 1365.05 1566.73 Q1366.63 1565.2 1368.16 1562.62 Q1369.69 1560.04 1370.69 1556.72 Q1371 1555.56 1372.06 1555.56 Q1373.38 1555.56 1373.38 1556.61 Q1373.38 1557.51 1372.64 1559.4 Q1371.95 1561.25 1370.42 1563.67 Q1368.95 1566.04 1367 1568.2 Q1365.05 1570.31 1362.15 1571.79 Q1359.25 1573.26 1356.09 1573.26 Q1351.56 1573.26 1348.55 1570.84 Q1345.55 1568.42 1344.44 1565.04 Q1344.18 1565.52 1343.81 1566.15 Q1343.44 1566.78 1342.33 1568.2 Q1341.28 1569.57 1340.07 1570.63 Q1338.86 1571.63 1336.96 1572.42 Q1335.11 1573.26 1333.11 1573.26 Q1330.58 1573.26 1328.32 1572.53 Q1326.1 1571.79 1324.52 1570.1 Q1322.94 1568.42 1322.94 1566.1 Q1322.94 1563.51 1324.68 1561.72 Q1326.47 1559.88 1328.9 1559.88 Q1330.42 1559.88 1331.64 1560.77 Q1332.9 1561.67 1332.9 1563.62 Q1332.9 1565.78 1331.43 1567.41 Q1329.95 1569.05 1327.84 1569.47 Q1330 1570.84 1333.22 1570.84 Q1336.7 1570.84 1339.44 1567.78 Q1342.18 1564.73 1343.49 1559.61 Q1346.76 1547.33 1348.03 1541.85 Q1349.29 1536.32 1349.29 1533.95 Q1349.29 1531.74 1348.71 1530.21 Q1348.13 1528.68 1347.13 1527.99 Q1346.18 1527.26 1345.29 1526.99 Q1344.44 1526.73 1343.49 1526.73 Q1341.91 1526.73 1340.12 1527.36 Q1338.38 1527.99 1336.27 1529.47 Q1334.22 1530.89 1332.27 1533.84 Q1330.32 1536.79 1329 1540.85 Q1328.74 1542.06 1327.58 1542.06 Q1326.31 1542.01 1326.31 1540.96 Q1326.31 1540.06 1327 1538.22 Q1327.74 1536.32 1329.21 1533.95 Q1330.74 1531.58 1332.69 1529.47 Q1334.69 1527.31 1337.59 1525.83 Q1340.54 1524.36 1343.7 1524.36 Q1345.13 1524.36 1346.5 1524.67 Q1347.92 1524.94 1349.61 1525.73 Q1351.35 1526.52 1352.87 1528.26 Q1354.4 1530 1355.35 1532.53 Q1355.98 1531.31 1356.83 1530.15 Q1357.72 1529 1359.09 1527.57 Q1360.52 1526.1 1362.47 1525.25 Q1364.47 1524.36 1366.68 1524.36 Q1368.84 1524.36 1370.95 1524.94 Q1373.06 1525.46 1374.85 1527.2 Q1376.7 1528.89 1376.7 1531.47 Z" fill="#000000" fill-rule="evenodd" fill-opacity="1" /><polyline clip-path="url(#clip850)" style="stroke:#000000; stroke-linecap:round; stroke-linejoin:round; stroke-width:4; stroke-opacity:1; fill:none" points="
  354.243,1349.74 354.243,47.2441 
  "/>
<polyline clip-path="url(#clip850)" style="stroke:#000000; stroke-linecap:round; stroke-linejoin:round; stroke-width:4; stroke-opacity:1; fill:none" points="
  354.243,1312.88 373.141,1312.88 
  "/>
<polyline clip-path="url(#clip850)" style="stroke:#000000; stroke-linecap:round; stroke-linejoin:round; stroke-width:4; stroke-opacity:1; fill:none" points="
  354.243,1058.97 373.141,1058.97 
  "/>
<polyline clip-path="url(#clip850)" style="stroke:#000000; stroke-linecap:round; stroke-linejoin:round; stroke-width:4; stroke-opacity:1; fill:none" points="
  354.243,805.059 373.141,805.059 
  "/>
<polyline clip-path="url(#clip850)" style="stroke:#000000; stroke-linecap:round; stroke-linejoin:round; stroke-width:4; stroke-opacity:1; fill:none" points="
  354.243,551.151 373.141,551.151 
  "/>
<polyline clip-path="url(#clip850)" style="stroke:#000000; stroke-linecap:round; stroke-linejoin:round; stroke-width:4; stroke-opacity:1; fill:none" points="
  354.243,297.242 373.141,297.242 
  "/>
<path clip-path="url(#clip850)" d="M165.403 1288.02 Q159.083 1288.02 155.883 1294.26 Q152.723 1300.46 152.723 1312.94 Q152.723 1325.37 155.883 1331.61 Q159.083 1337.81 165.403 1337.81 Q171.763 1337.81 174.922 1331.61 Q178.123 1325.37 178.123 1312.94 Q178.123 1300.46 174.922 1294.26 Q171.763 1288.02 165.403 1288.02 M165.403 1281.54 Q175.571 1281.54 180.918 1289.6 Q186.305 1297.63 186.305 1312.94 Q186.305 1328.21 180.918 1336.27 Q175.571 1344.29 165.403 1344.29 Q155.235 1344.29 149.847 1336.27 Q144.5 1328.21 144.5 1312.94 Q144.5 1297.63 149.847 1289.6 Q155.235 1281.54 165.403 1281.54 Z" fill="#000000" fill-rule="evenodd" fill-opacity="1" /><path clip-path="url(#clip850)" d="M200.686 1332.83 L209.234 1332.83 L209.234 1343.12 L200.686 1343.12 L200.686 1332.83 Z" fill="#000000" fill-rule="evenodd" fill-opacity="1" /><path clip-path="url(#clip850)" d="M244.557 1288.02 Q238.238 1288.02 235.038 1294.26 Q231.878 1300.46 231.878 1312.94 Q231.878 1325.37 235.038 1331.61 Q238.238 1337.81 244.557 1337.81 Q250.917 1337.81 254.077 1331.61 Q257.277 1325.37 257.277 1312.94 Q257.277 1300.46 254.077 1294.26 Q250.917 1288.02 244.557 1288.02 M244.557 1281.54 Q254.725 1281.54 260.072 1289.6 Q265.46 1297.63 265.46 1312.94 Q265.46 1328.21 260.072 1336.27 Q254.725 1344.29 244.557 1344.29 Q234.39 1344.29 229.002 1336.27 Q223.655 1328.21 223.655 1312.94 Q223.655 1297.63 229.002 1289.6 Q234.39 1281.54 244.557 1281.54 Z" fill="#000000" fill-rule="evenodd" fill-opacity="1" /><path clip-path="url(#clip850)" d="M297.341 1288.02 Q291.021 1288.02 287.821 1294.26 Q284.661 1300.46 284.661 1312.94 Q284.661 1325.37 287.821 1331.61 Q291.021 1337.81 297.341 1337.81 Q303.701 1337.81 306.86 1331.61 Q310.061 1325.37 310.061 1312.94 Q310.061 1300.46 306.86 1294.26 Q303.701 1288.02 297.341 1288.02 M297.341 1281.54 Q307.509 1281.54 312.856 1289.6 Q318.243 1297.63 318.243 1312.94 Q318.243 1328.21 312.856 1336.27 Q307.509 1344.29 297.341 1344.29 Q287.173 1344.29 281.785 1336.27 Q276.438 1328.21 276.438 1312.94 Q276.438 1297.63 281.785 1289.6 Q287.173 1281.54 297.341 1281.54 Z" fill="#000000" fill-rule="evenodd" fill-opacity="1" /><path clip-path="url(#clip850)" d="M167.145 1034.12 Q160.825 1034.12 157.625 1040.35 Q154.465 1046.55 154.465 1059.03 Q154.465 1071.47 157.625 1077.7 Q160.825 1083.9 167.145 1083.9 Q173.505 1083.9 176.664 1077.7 Q179.865 1071.47 179.865 1059.03 Q179.865 1046.55 176.664 1040.35 Q173.505 1034.12 167.145 1034.12 M167.145 1027.63 Q177.312 1027.63 182.66 1035.7 Q188.047 1043.72 188.047 1059.03 Q188.047 1074.3 182.66 1082.36 Q177.312 1090.38 167.145 1090.38 Q156.977 1090.38 151.589 1082.36 Q146.242 1074.3 146.242 1059.03 Q146.242 1043.72 151.589 1035.7 Q156.977 1027.63 167.145 1027.63 Z" fill="#000000" fill-rule="evenodd" fill-opacity="1" /><path clip-path="url(#clip850)" d="M202.428 1078.92 L210.975 1078.92 L210.975 1089.21 L202.428 1089.21 L202.428 1078.92 Z" fill="#000000" fill-rule="evenodd" fill-opacity="1" /><path clip-path="url(#clip850)" d="M246.299 1034.12 Q239.98 1034.12 236.78 1040.35 Q233.62 1046.55 233.62 1059.03 Q233.62 1071.47 236.78 1077.7 Q239.98 1083.9 246.299 1083.9 Q252.659 1083.9 255.819 1077.7 Q259.019 1071.47 259.019 1059.03 Q259.019 1046.55 255.819 1040.35 Q252.659 1034.12 246.299 1034.12 M246.299 1027.63 Q256.467 1027.63 261.814 1035.7 Q267.202 1043.72 267.202 1059.03 Q267.202 1074.3 261.814 1082.36 Q256.467 1090.38 246.299 1090.38 Q236.132 1090.38 230.744 1082.36 Q225.397 1074.3 225.397 1059.03 Q225.397 1043.72 230.744 1035.7 Q236.132 1027.63 246.299 1027.63 Z" fill="#000000" fill-rule="evenodd" fill-opacity="1" /><path clip-path="url(#clip850)" d="M281.664 1028.73 L313.787 1028.73 L313.787 1035.61 L289.158 1035.61 L289.158 1050.44 Q290.94 1049.83 292.723 1049.55 Q294.505 1049.23 296.288 1049.23 Q306.415 1049.23 312.329 1054.78 Q318.243 1060.33 318.243 1069.8 Q318.243 1079.57 312.167 1085 Q306.091 1090.38 295.032 1090.38 Q291.224 1090.38 287.254 1089.73 Q283.325 1089.09 279.112 1087.79 L279.112 1079.57 Q282.758 1081.55 286.646 1082.52 Q290.535 1083.5 294.87 1083.5 Q301.878 1083.5 305.969 1079.81 Q310.061 1076.12 310.061 1069.8 Q310.061 1063.48 305.969 1059.8 Q301.878 1056.11 294.87 1056.11 Q291.588 1056.11 288.307 1056.84 Q285.067 1057.57 281.664 1059.11 L281.664 1028.73 Z" fill="#000000" fill-rule="evenodd" fill-opacity="1" /><path clip-path="url(#clip850)" d="M165.403 780.207 Q159.083 780.207 155.883 786.445 Q152.723 792.643 152.723 805.12 Q152.723 817.556 155.883 823.795 Q159.083 829.993 165.403 829.993 Q171.763 829.993 174.922 823.795 Q178.123 817.556 178.123 805.12 Q178.123 792.643 174.922 786.445 Q171.763 780.207 165.403 780.207 M165.403 773.726 Q175.571 773.726 180.918 781.787 Q186.305 789.808 186.305 805.12 Q186.305 820.392 180.918 828.453 Q175.571 836.474 165.403 836.474 Q155.235 836.474 149.847 828.453 Q144.5 820.392 144.5 805.12 Q144.5 789.808 149.847 781.787 Q155.235 773.726 165.403 773.726 Z" fill="#000000" fill-rule="evenodd" fill-opacity="1" /><path clip-path="url(#clip850)" d="M200.686 825.01 L209.234 825.01 L209.234 835.299 L200.686 835.299 L200.686 825.01 Z" fill="#000000" fill-rule="evenodd" fill-opacity="1" /><path clip-path="url(#clip850)" d="M228.475 828.413 L241.843 828.413 L241.843 782.273 L227.301 785.19 L227.301 777.736 L241.762 774.819 L249.945 774.819 L249.945 828.413 L263.313 828.413 L263.313 835.299 L228.475 835.299 L228.475 828.413 Z" fill="#000000" fill-rule="evenodd" fill-opacity="1" /><path clip-path="url(#clip850)" d="M297.341 780.207 Q291.021 780.207 287.821 786.445 Q284.661 792.643 284.661 805.12 Q284.661 817.556 287.821 823.795 Q291.021 829.993 297.341 829.993 Q303.701 829.993 306.86 823.795 Q310.061 817.556 310.061 805.12 Q310.061 792.643 306.86 786.445 Q303.701 780.207 297.341 780.207 M297.341 773.726 Q307.509 773.726 312.856 781.787 Q318.243 789.808 318.243 805.12 Q318.243 820.392 312.856 828.453 Q307.509 836.474 297.341 836.474 Q287.173 836.474 281.785 828.453 Q276.438 820.392 276.438 805.12 Q276.438 789.808 281.785 781.787 Q287.173 773.726 297.341 773.726 Z" fill="#000000" fill-rule="evenodd" fill-opacity="1" /><path clip-path="url(#clip850)" d="M167.145 526.298 Q160.825 526.298 157.625 532.537 Q154.465 538.735 154.465 551.211 Q154.465 563.648 157.625 569.886 Q160.825 576.084 167.145 576.084 Q173.505 576.084 176.664 569.886 Q179.865 563.648 179.865 551.211 Q179.865 538.735 176.664 532.537 Q173.505 526.298 167.145 526.298 M167.145 519.817 Q177.312 519.817 182.66 527.878 Q188.047 535.899 188.047 551.211 Q188.047 566.483 182.66 574.545 Q177.312 582.565 167.145 582.565 Q156.977 582.565 151.589 574.545 Q146.242 566.483 146.242 551.211 Q146.242 535.899 151.589 527.878 Q156.977 519.817 167.145 519.817 Z" fill="#000000" fill-rule="evenodd" fill-opacity="1" /><path clip-path="url(#clip850)" d="M202.428 571.101 L210.975 571.101 L210.975 581.391 L202.428 581.391 L202.428 571.101 Z" fill="#000000" fill-rule="evenodd" fill-opacity="1" /><path clip-path="url(#clip850)" d="M230.217 574.504 L243.585 574.504 L243.585 528.364 L229.043 531.281 L229.043 523.827 L243.504 520.911 L251.687 520.911 L251.687 574.504 L265.055 574.504 L265.055 581.391 L230.217 581.391 L230.217 574.504 Z" fill="#000000" fill-rule="evenodd" fill-opacity="1" /><path clip-path="url(#clip850)" d="M281.664 520.911 L313.787 520.911 L313.787 527.797 L289.158 527.797 L289.158 542.623 Q290.94 542.016 292.723 541.732 Q294.505 541.408 296.288 541.408 Q306.415 541.408 312.329 546.958 Q318.243 552.508 318.243 561.987 Q318.243 571.749 312.167 577.178 Q306.091 582.565 295.032 582.565 Q291.224 582.565 287.254 581.917 Q283.325 581.269 279.112 579.973 L279.112 571.749 Q282.758 573.734 286.646 574.707 Q290.535 575.679 294.87 575.679 Q301.878 575.679 305.969 571.992 Q310.061 568.306 310.061 561.987 Q310.061 555.667 305.969 551.981 Q301.878 548.295 294.87 548.295 Q291.588 548.295 288.307 549.024 Q285.067 549.753 281.664 551.292 L281.664 520.911 Z" fill="#000000" fill-rule="evenodd" fill-opacity="1" /><path clip-path="url(#clip850)" d="M165.403 272.39 Q159.083 272.39 155.883 278.628 Q152.723 284.826 152.723 297.303 Q152.723 309.739 155.883 315.977 Q159.083 322.175 165.403 322.175 Q171.763 322.175 174.922 315.977 Q178.123 309.739 178.123 297.303 Q178.123 284.826 174.922 278.628 Q171.763 272.39 165.403 272.39 M165.403 265.908 Q175.571 265.908 180.918 273.969 Q186.305 281.99 186.305 297.303 Q186.305 312.575 180.918 320.636 Q175.571 328.657 165.403 328.657 Q155.235 328.657 149.847 320.636 Q144.5 312.575 144.5 297.303 Q144.5 281.99 149.847 273.969 Q155.235 265.908 165.403 265.908 Z" fill="#000000" fill-rule="evenodd" fill-opacity="1" /><path clip-path="url(#clip850)" d="M200.686 317.193 L209.234 317.193 L209.234 327.482 L200.686 327.482 L200.686 317.193 Z" fill="#000000" fill-rule="evenodd" fill-opacity="1" /><path clip-path="url(#clip850)" d="M234.106 320.595 L262.665 320.595 L262.665 327.482 L224.262 327.482 L224.262 320.595 Q228.921 315.775 236.942 307.673 Q245.003 299.531 247.069 297.181 Q250.998 292.766 252.538 289.727 Q254.118 286.649 254.118 283.692 Q254.118 278.871 250.715 275.833 Q247.353 272.795 241.924 272.795 Q238.076 272.795 233.782 274.131 Q229.529 275.468 224.668 278.182 L224.668 269.918 Q229.61 267.934 233.904 266.921 Q238.198 265.908 241.762 265.908 Q251.16 265.908 256.751 270.607 Q262.341 275.306 262.341 283.165 Q262.341 286.892 260.923 290.254 Q259.546 293.576 255.86 298.113 Q254.847 299.288 249.419 304.918 Q243.99 310.509 234.106 320.595 Z" fill="#000000" fill-rule="evenodd" fill-opacity="1" /><path clip-path="url(#clip850)" d="M297.341 272.39 Q291.021 272.39 287.821 278.628 Q284.661 284.826 284.661 297.303 Q284.661 309.739 287.821 315.977 Q291.021 322.175 297.341 322.175 Q303.701 322.175 306.86 315.977 Q310.061 309.739 310.061 297.303 Q310.061 284.826 306.86 278.628 Q303.701 272.39 297.341 272.39 M297.341 265.908 Q307.509 265.908 312.856 273.969 Q318.243 281.99 318.243 297.303 Q318.243 312.575 312.856 320.636 Q307.509 328.657 297.341 328.657 Q287.173 328.657 281.785 320.636 Q276.438 312.575 276.438 297.303 Q276.438 281.99 281.785 273.969 Q287.173 265.908 297.341 265.908 Z" fill="#000000" fill-rule="evenodd" fill-opacity="1" /><path clip-path="url(#clip850)" d="M19.902 748.259 Q22.8005 748.259 24.5923 750.104 Q26.3841 751.896 26.3841 754.162 Q26.3841 755.795 25.3828 757.007 Q24.3815 758.167 22.6424 758.167 Q20.8506 758.167 18.9534 756.797 Q17.0561 755.426 16.7926 752.317 Q14.8427 754.372 14.8427 757.64 Q14.8427 759.274 15.8967 760.644 Q16.898 761.961 18.5318 762.699 Q20.2182 763.49 29.757 765.281 Q32.8663 765.861 35.8702 766.388 Q38.8741 766.915 42.0362 767.548 L42.0362 758.588 Q42.0362 757.429 42.0889 756.955 Q42.1416 756.48 42.4051 756.112 Q42.6686 755.69 43.2483 755.69 Q44.7239 755.69 45.0928 756.375 Q45.409 757.007 45.409 758.905 L45.409 768.18 L79.6116 774.662 Q80.6129 774.82 83.775 775.505 Q86.8843 776.138 91.9963 777.666 Q97.1609 779.194 100.218 780.723 Q101.957 781.566 103.59 782.673 Q105.277 783.727 106.963 785.255 Q108.65 786.783 109.651 788.786 Q110.705 790.789 110.705 792.897 Q110.705 796.48 108.702 799.273 Q106.7 802.066 103.274 802.066 Q100.376 802.066 98.5838 800.275 Q96.792 798.43 96.792 796.164 Q96.792 794.53 97.7933 793.371 Q98.7946 792.159 100.534 792.159 Q101.272 792.159 102.115 792.422 Q102.958 792.686 103.907 793.265 Q104.908 793.845 105.593 795.11 Q106.278 796.375 106.383 798.114 Q108.333 796.059 108.333 792.897 Q108.333 791.895 107.912 790.999 Q107.543 790.103 106.594 789.366 Q105.646 788.575 104.697 787.995 Q103.801 787.416 102.062 786.836 Q100.376 786.256 99.1108 785.887 Q97.846 785.518 95.5799 785.044 Q93.3138 784.517 91.9436 784.254 Q90.626 783.99 88.0437 783.516 L45.409 775.453 L45.409 782.567 Q45.409 783.832 45.3563 784.359 Q45.3036 784.833 45.0401 785.202 Q44.7239 785.571 44.0915 785.571 Q43.0902 785.571 42.6686 785.15 Q42.1943 784.675 42.1416 784.148 Q42.0362 783.621 42.0362 782.356 L42.0362 774.873 Q28.703 772.343 25.1193 771.342 Q21.3249 770.183 18.6899 768.391 Q16.0021 766.599 14.7373 764.596 Q13.4725 762.594 12.9982 760.96 Q12.4712 759.274 12.4712 757.64 Q12.4712 753.951 14.4738 751.105 Q16.4237 748.259 19.902 748.259 Z" fill="#000000" fill-rule="evenodd" fill-opacity="1" /><path clip-path="url(#clip850)" d="M61.5881 733.733 Q43.3537 733.733 28.6503 726.935 Q22.4843 724.036 17.3196 719.978 Q12.155 715.92 9.88887 713.233 Q7.62275 710.545 7.62275 709.807 Q7.62275 708.753 8.67676 708.7 Q9.20377 708.7 10.5213 710.123 Q28.2286 727.514 61.5881 727.462 Q95.0529 727.462 112.075 710.545 Q113.92 708.7 114.499 708.7 Q115.553 708.7 115.553 709.807 Q115.553 710.545 113.393 713.127 Q111.232 715.71 106.278 719.715 Q101.324 723.72 95.2637 726.619 Q80.5602 733.733 61.5881 733.733 Z" fill="#000000" fill-rule="evenodd" fill-opacity="1" /><path clip-path="url(#clip850)" d="M47.9913 646.746 Q50.9426 646.746 52.629 648.59 Q54.2627 650.435 54.2627 652.543 Q54.2627 654.545 53.1033 655.599 Q51.9439 656.653 50.4683 656.653 Q48.4656 656.653 46.7265 655.178 Q44.9874 653.702 44.6185 651.489 Q43.2483 653.649 43.2483 656.864 Q43.2483 658.972 44.355 660.817 Q45.4617 662.608 46.8846 663.715 Q48.3075 664.769 50.3629 665.718 Q52.3655 666.614 53.5776 666.983 Q54.737 667.299 56.0018 667.562 L70.758 671.251 Q77.7671 673.043 80.244 673.043 Q83.3007 673.043 85.356 671.568 Q87.3586 670.092 87.3586 667.141 Q87.3586 665.981 87.0424 664.664 Q86.6735 663.346 85.7249 661.66 Q84.7236 659.921 83.248 658.392 Q81.7197 656.811 79.1373 655.283 Q76.555 653.755 73.2349 652.754 Q72.0755 652.437 72.0755 651.383 Q72.0755 650.066 73.1295 650.066 Q74.0254 650.066 75.9226 650.804 Q77.7671 651.489 80.1913 653.017 Q82.5629 654.493 84.7236 656.443 Q86.8316 658.392 88.3072 661.291 Q89.7828 664.19 89.7828 667.352 Q89.7828 671.884 87.3586 674.888 Q84.9344 677.892 81.5616 678.998 Q82.0359 679.262 82.6683 679.631 Q83.3007 680 84.7236 681.106 Q86.0938 682.16 87.1478 683.372 Q88.1491 684.585 88.9396 686.482 Q89.7828 688.326 89.7828 690.329 Q89.7828 692.859 89.045 695.125 Q88.3072 697.338 86.6208 698.919 Q84.9344 700.5 82.6156 700.5 Q80.0332 700.5 78.2414 698.761 Q76.3969 696.969 76.3969 694.545 Q76.3969 693.017 77.2928 691.805 Q78.1887 690.54 80.1386 690.54 Q82.2994 690.54 83.9331 692.015 Q85.5668 693.491 85.9884 695.599 Q87.3586 693.438 87.3586 690.224 Q87.3586 686.745 84.302 684.005 Q81.2454 681.264 76.1334 679.947 Q63.8542 676.68 58.3733 675.415 Q52.8398 674.15 50.4683 674.15 Q48.2548 674.15 46.7265 674.73 Q45.1982 675.309 44.5131 676.311 Q43.7753 677.259 43.5118 678.155 Q43.2483 678.998 43.2483 679.947 Q43.2483 681.528 43.8807 683.32 Q44.5131 685.059 45.9887 687.167 Q47.4116 689.222 50.3629 691.172 Q53.3141 693.122 57.372 694.44 Q58.5841 694.703 58.5841 695.863 Q58.5314 697.127 57.4774 697.127 Q56.5815 697.127 54.737 696.442 Q52.8398 695.704 50.4683 694.229 Q48.0967 692.7 45.9887 690.751 Q43.828 688.748 42.3524 685.849 Q40.8768 682.898 40.8768 679.736 Q40.8768 678.313 41.193 676.943 Q41.4565 675.52 42.247 673.834 Q43.0375 672.095 44.7766 670.566 Q46.5157 669.038 49.0453 668.089 Q47.8332 667.457 46.6738 666.614 Q45.5144 665.718 44.0915 664.348 Q42.6159 662.925 41.7727 660.975 Q40.8768 658.972 40.8768 656.759 Q40.8768 654.598 41.4565 652.49 Q41.9835 650.382 43.7226 648.59 Q45.409 646.746 47.9913 646.746 Z" fill="#000000" fill-rule="evenodd" fill-opacity="1" /><path clip-path="url(#clip850)" d="M114.499 636.359 Q113.972 636.359 112.655 634.988 Q94.9475 617.597 61.5881 617.597 Q28.1232 617.597 11.2064 634.303 Q9.25647 636.359 8.67676 636.359 Q7.62275 636.359 7.62275 635.305 Q7.62275 634.567 9.78347 631.984 Q11.9442 629.349 16.898 625.397 Q21.8519 621.392 27.9124 618.44 Q42.6159 611.326 61.5881 611.326 Q79.8224 611.326 94.5259 618.124 Q100.692 621.023 105.856 625.081 Q111.021 629.139 113.287 631.826 Q115.553 634.514 115.553 635.305 Q115.553 636.359 114.499 636.359 Z" fill="#000000" fill-rule="evenodd" fill-opacity="1" /><path clip-path="url(#clip852)" d="
M410.805 1312.88 L412.376 1111.3 L413.947 1029.22 L415.519 967.205 L417.09 915.72 L418.661 871.057 L420.232 831.301 L421.803 795.31 L423.374 762.334 L424.946 731.851 
  L426.517 703.476 L428.088 676.92 L429.659 651.954 L431.23 628.398 L432.801 606.102 L434.372 584.944 L435.944 564.821 L437.515 545.644 L439.086 527.338 L440.657 509.838 
  L442.228 493.086 L443.799 477.03 L445.371 461.628 L446.942 446.837 L448.513 432.623 L450.084 418.952 L451.655 405.796 L453.226 393.127 L454.798 380.921 L456.369 369.155 
  L457.94 357.809 L459.511 346.864 L461.082 336.302 L462.653 326.106 L464.224 316.263 L465.796 306.756 L467.367 297.573 L468.938 288.702 L470.509 280.131 L472.08 271.848 
  L473.651 263.845 L475.223 256.11 L476.794 248.635 L478.365 241.41 L479.936 234.429 L481.507 227.682 L483.078 221.163 L484.65 214.864 L486.221 208.779 L487.792 202.901 
  L489.363 197.224 L490.934 191.742 L492.505 186.45 L494.076 181.343 L495.648 176.414 L497.219 171.66 L498.79 167.076 L500.361 162.656 L501.932 158.397 L503.503 154.295 
  L505.075 150.345 L506.646 146.543 L508.217 142.886 L509.788 139.371 L511.359 135.993 L512.93 132.75 L514.502 129.638 L516.073 126.653 L517.644 123.794 L519.215 121.057 
  L520.786 118.439 L522.357 115.937 L523.928 113.549 L525.5 111.272 L527.071 109.104 L528.642 107.042 L530.213 105.084 L531.784 103.227 L533.355 101.47 L534.927 99.8094 
  L536.498 98.2443 L538.069 96.7721 L539.64 95.391 L541.211 94.099 L542.782 92.8941 L544.354 91.7746 L545.925 90.7386 L547.496 89.7845 L549.067 88.9105 L550.638 88.1149 
  L552.209 87.3962 L553.78 86.7527 L555.352 86.183 L556.923 85.6856 L558.494 85.2589 L560.065 84.9015 L561.636 84.6121 L563.207 84.3893 L564.779 84.2317 L566.35 84.1381 
  L567.921 84.1072 L569.492 84.1377 L571.063 84.2284 L572.634 84.3782 L574.206 84.5859 L575.777 84.8503 L577.348 85.1703 L578.919 85.5448 L580.49 85.9729 L582.061 86.4533 
  L583.632 86.9852 L585.204 87.5674 L586.775 88.1991 L588.346 88.8793 L589.917 89.6069 L591.488 90.3812 L593.059 91.2012 L594.631 92.066 L596.202 92.9747 L597.773 93.9266 
  L599.344 94.9207 L600.915 95.9562 L602.486 97.0324 L604.057 98.1485 L605.629 99.3036 L607.2 100.497 L608.771 101.728 L610.342 102.996 L611.913 104.3 L613.484 105.64 
  L615.056 107.014 L616.627 108.422 L618.198 109.864 L619.769 111.338 L621.34 112.845 L622.911 114.383 L624.483 115.952 L626.054 117.551 L627.625 119.18 L629.196 120.838 
  L630.767 122.524 L632.338 124.239 L633.909 125.98 L635.481 127.749 L637.052 129.544 L638.623 131.365 L640.194 133.211 L641.765 135.081 L643.336 136.976 L644.908 138.895 
  L646.479 140.837 L648.05 142.801 L649.621 144.788 L651.192 146.797 L652.763 148.828 L654.335 150.879 L655.906 152.951 L657.477 155.043 L659.048 157.154 L660.619 159.285 
  L662.19 161.435 L663.761 163.603 L665.333 165.789 L666.904 167.993 L668.475 170.214 L670.046 172.452 L671.617 174.706 L673.188 176.977 L674.76 179.263 L676.331 181.565 
  L677.902 183.882 L679.473 186.214 L681.044 188.56 L682.615 190.92 L684.187 193.294 L685.758 195.682 L687.329 198.082 L688.9 200.495 L690.471 202.921 L692.042 205.359 
  L693.613 207.809 L695.185 210.27 L696.756 212.743 L698.327 215.227 L699.898 217.722 L701.469 220.227 L703.04 222.742 L704.612 225.267 L706.183 227.802 L707.754 230.346 
  L709.325 232.899 L710.896 235.461 L712.467 238.032 L714.039 240.612 L715.61 243.199 L717.181 245.795 L718.752 248.398 L720.323 251.008 L721.894 253.626 L723.465 256.251 
  L725.037 258.883 L726.608 261.521 L728.179 264.165 L729.75 266.816 L731.321 269.473 L732.892 272.135 L734.464 274.804 L736.035 277.477 L737.606 280.156 L739.177 282.839 
  L740.748 285.527 L742.319 288.22 L743.891 290.918 L745.462 293.619 L747.033 296.325 L748.604 299.035 L750.175 301.748 L751.746 304.465 L753.317 307.185 L754.889 309.908 
  L756.46 312.635 L758.031 315.364 L759.602 318.096 L761.173 320.831 L762.744 323.568 L764.316 326.307 L765.887 329.049 L767.458 331.792 L769.029 334.538 L770.6 337.285 
  L772.171 340.033 L773.743 342.783 L775.314 345.535 L776.885 348.287 L778.456 351.041 L780.027 353.795 L781.598 356.55 L783.169 359.306 L784.741 362.062 L786.312 364.819 
  L787.883 367.576 L789.454 370.333 L791.025 373.091 L792.596 375.848 L794.168 378.605 L795.739 381.361 L797.31 384.118 L798.881 386.874 L800.452 389.629 L802.023 392.383 
  L803.595 395.137 L805.166 397.89 L806.737 400.641 L808.308 403.392 L809.879 406.141 L811.45 408.889 L813.021 411.636 L814.593 414.381 L816.164 417.125 L817.735 419.867 
  L819.306 422.607 L820.877 425.346 L822.448 428.082 L824.02 430.816 L825.591 433.549 L827.162 436.279 L828.733 439.007 L830.304 441.732 L831.875 444.455 L833.447 447.176 
  L835.018 449.894 L836.589 452.61 L838.16 455.322 L839.731 458.032 L841.302 460.74 L842.873 463.444 L844.445 466.145 L846.016 468.843 L847.587 471.538 L849.158 474.23 
  L850.729 476.919 L852.3 479.604 L853.872 482.286 L855.443 484.965 L857.014 487.64 L858.585 490.311 L860.156 492.979 L861.727 495.643 L863.299 498.304 L864.87 500.961 
  L866.441 503.614 L868.012 506.263 L869.583 508.908 L871.154 511.549 L872.725 514.186 L874.297 516.819 L875.868 519.448 L877.439 522.073 L879.01 524.694 L880.581 527.31 
  L882.152 529.922 L883.724 532.53 L885.295 535.133 L886.866 537.732 L888.437 540.326 L890.008 542.916 L891.579 545.501 L893.15 548.082 L894.722 550.658 L896.293 553.23 
  L897.864 555.796 L899.435 558.358 L901.006 560.915 L902.577 563.468 L904.149 566.015 L905.72 568.558 L907.291 571.095 L908.862 573.628 L910.433 576.156 L912.004 578.679 
  L913.576 581.196 L915.147 583.709 L916.718 586.216 L918.289 588.719 L919.86 591.216 L921.431 593.708 L923.002 596.195 L924.574 598.676 L926.145 601.153 L927.716 603.624 
  L929.287 606.089 L930.858 608.55 L932.429 611.005 L934.001 613.454 L935.572 615.899 L937.143 618.337 L938.714 620.771 L940.285 623.199 L941.856 625.621 L943.428 628.038 
  L944.999 630.449 L946.57 632.855 L948.141 635.255 L949.712 637.65 L951.283 640.039 L952.854 642.422 L954.426 644.8 L955.997 647.172 L957.568 649.539 L959.139 651.899 
  L960.71 654.255 L962.281 656.604 L963.853 658.948 L965.424 661.285 L966.995 663.618 L968.566 665.944 L970.137 668.265 L971.708 670.579 L973.28 672.888 L974.851 675.192 
  L976.422 677.489 L977.993 679.78 L979.564 682.066 L981.135 684.346 L982.706 686.62 L984.278 688.888 L985.849 691.15 L987.42 693.407 L988.991 695.657 L990.562 697.902 
  L992.133 700.14 L993.705 702.373 L995.276 704.6 L996.847 706.821 L998.418 709.035 L999.989 711.244 L1001.56 713.447 L1003.13 715.644 L1004.7 717.836 L1006.27 720.021 
  L1007.85 722.2 L1009.42 724.373 L1010.99 726.54 L1012.56 728.702 L1014.13 730.857 L1015.7 733.006 L1017.27 735.149 L1018.84 737.287 L1020.41 739.418 L1021.99 741.543 
  L1023.56 743.663 L1025.13 745.776 L1026.7 747.883 L1028.27 749.984 L1029.84 752.08 L1031.41 754.169 L1032.98 756.252 L1034.55 758.33 L1036.13 760.401 L1037.7 762.466 
  L1039.27 764.526 L1040.84 766.579 L1042.41 768.626 L1043.98 770.668 L1045.55 772.703 L1047.12 774.732 L1048.7 776.756 L1050.27 778.773 L1051.84 780.784 L1053.41 782.79 
  L1054.98 784.789 L1056.55 786.783 L1058.12 788.77 L1059.69 790.752 L1061.26 792.727 L1062.84 794.697 L1064.41 796.66 L1065.98 798.618 L1067.55 800.57 L1069.12 802.515 
  L1070.69 804.455 L1072.26 806.389 L1073.83 808.317 L1075.4 810.239 L1076.98 812.155 L1078.55 814.065 L1080.12 815.97 L1081.69 817.868 L1083.26 819.76 L1084.83 821.647 
  L1086.4 823.528 L1087.97 825.402 L1089.55 827.271 L1091.12 829.134 L1092.69 830.992 L1094.26 832.843 L1095.83 834.688 L1097.4 836.528 L1098.97 838.362 L1100.54 840.19 
  L1102.11 842.012 L1103.69 843.828 L1105.26 845.639 L1106.83 847.444 L1108.4 849.243 L1109.97 851.036 L1111.54 852.823 L1113.11 854.605 L1114.68 856.381 L1116.25 858.151 
  L1117.83 859.915 L1119.4 861.674 L1120.97 863.427 L1122.54 865.174 L1124.11 866.915 L1125.68 868.651 L1127.25 870.381 L1128.82 872.106 L1130.4 873.825 L1131.97 875.538 
  L1133.54 877.245 L1135.11 878.947 L1136.68 880.643 L1138.25 882.334 L1139.82 884.019 L1141.39 885.698 L1142.96 887.372 L1144.54 889.04 L1146.11 890.703 L1147.68 892.36 
  L1149.25 894.011 L1150.82 895.657 L1152.39 897.298 L1153.96 898.933 L1155.53 900.562 L1157.1 902.186 L1158.68 903.804 L1160.25 905.417 L1161.82 907.025 L1163.39 908.627 
  L1164.96 910.223 L1166.53 911.814 L1168.1 913.4 L1169.67 914.98 L1171.25 916.555 L1172.82 918.125 L1174.39 919.689 L1175.96 921.248 L1177.53 922.801 L1179.1 924.349 
  L1180.67 925.892 L1182.24 927.429 L1183.81 928.961 L1185.39 930.488 L1186.96 932.009 L1188.53 933.526 L1190.1 935.037 L1191.67 936.542 L1193.24 938.043 L1194.81 939.538 
  L1196.38 941.028 L1197.96 942.513 L1199.53 943.992 L1201.1 945.467 L1202.67 946.936 L1204.24 948.4 L1205.81 949.859 L1207.38 951.313 L1208.95 952.761 L1210.52 954.205 
  L1212.1 955.644 L1213.67 957.077 L1215.24 958.505 L1216.81 959.929 L1218.38 961.347 L1219.95 962.76 L1221.52 964.168 L1223.09 965.571 L1224.66 966.969 L1226.24 968.363 
  L1227.81 969.751 L1229.38 971.134 L1230.95 972.512 L1232.52 973.886 L1234.09 975.254 L1235.66 976.617 L1237.23 977.976 L1238.81 979.33 L1240.38 980.679 L1241.95 982.023 
  L1243.52 983.362 L1245.09 984.696 L1246.66 986.025 L1248.23 987.35 L1249.8 988.67 L1251.37 989.985 L1252.95 991.295 L1254.52 992.601 L1256.09 993.902 L1257.66 995.198 
  L1259.23 996.489 L1260.8 997.776 L1262.37 999.058 L1263.94 1000.33 L1265.51 1001.61 L1267.09 1002.88 L1268.66 1004.14 L1270.23 1005.4 L1271.8 1006.65 L1273.37 1007.9 
  L1274.94 1009.15 L1276.51 1010.39 L1278.08 1011.62 L1279.66 1012.85 L1281.23 1014.08 L1282.8 1015.3 L1284.37 1016.52 L1285.94 1017.73 L1287.51 1018.94 L1289.08 1020.14 
  L1290.65 1021.34 L1292.22 1022.54 L1293.8 1023.73 L1295.37 1024.92 L1296.94 1026.1 L1298.51 1027.28 L1300.08 1028.45 L1301.65 1029.62 L1303.22 1030.78 L1304.79 1031.94 
  L1306.36 1033.1 L1307.94 1034.25 L1309.51 1035.4 L1311.08 1036.54 L1312.65 1037.68 L1314.22 1038.81 L1315.79 1039.94 L1317.36 1041.07 L1318.93 1042.19 L1320.51 1043.3 
  L1322.08 1044.42 L1323.65 1045.53 L1325.22 1046.63 L1326.79 1047.73 L1328.36 1048.83 L1329.93 1049.92 L1331.5 1051.01 L1333.07 1052.09 L1334.65 1053.17 L1336.22 1054.25 
  L1337.79 1055.32 L1339.36 1056.39 L1340.93 1057.45 L1342.5 1058.51 L1344.07 1059.56 L1345.64 1060.62 L1347.22 1061.66 L1348.79 1062.71 L1350.36 1063.75 L1351.93 1064.78 
  L1353.5 1065.81 L1355.07 1066.84 L1356.64 1067.86 L1358.21 1068.88 L1359.78 1069.9 L1361.36 1070.91 L1362.93 1071.92 L1364.5 1072.92 L1366.07 1073.92 L1367.64 1074.92 
  L1369.21 1075.91 L1370.78 1076.9 L1372.35 1077.89 L1373.92 1078.87 L1375.5 1079.84 L1377.07 1080.82 L1378.64 1081.79 L1380.21 1082.75 L1381.78 1083.72 L1383.35 1084.67 
  L1384.92 1085.63 L1386.49 1086.58 L1388.07 1087.53 L1389.64 1088.47 L1391.21 1089.41 L1392.78 1090.35 L1394.35 1091.28 L1395.92 1092.21 L1397.49 1093.13 L1399.06 1094.06 
  L1400.63 1094.98 L1402.21 1095.89 L1403.78 1096.8 L1405.35 1097.71 L1406.92 1098.61 L1408.49 1099.51 L1410.06 1100.41 L1411.63 1101.3 L1413.2 1102.19 L1414.77 1103.08 
  L1416.35 1103.96 L1417.92 1104.84 L1419.49 1105.72 L1421.06 1106.59 L1422.63 1107.46 L1424.2 1108.33 L1425.77 1109.19 L1427.34 1110.05 L1428.92 1110.9 L1430.49 1111.76 
  L1432.06 1112.61 L1433.63 1113.45 L1435.2 1114.29 L1436.77 1115.13 L1438.34 1115.97 L1439.91 1116.8 L1441.48 1117.63 L1443.06 1118.46 L1444.63 1119.28 L1446.2 1120.1 
  L1447.77 1120.91 L1449.34 1121.73 L1450.91 1122.54 L1452.48 1123.34 L1454.05 1124.15 L1455.62 1124.95 L1457.2 1125.74 L1458.77 1126.54 L1460.34 1127.33 L1461.91 1128.11 
  L1463.48 1128.9 L1465.05 1129.68 L1466.62 1130.46 L1468.19 1131.23 L1469.77 1132 L1471.34 1132.77 L1472.91 1133.54 L1474.48 1134.3 L1476.05 1135.06 L1477.62 1135.82 
  L1479.19 1136.57 L1480.76 1137.32 L1482.33 1138.07 L1483.91 1138.81 L1485.48 1139.55 L1487.05 1140.29 L1488.62 1141.03 L1490.19 1141.76 L1491.76 1142.49 L1493.33 1143.22 
  L1494.9 1143.94 L1496.48 1144.66 L1498.05 1145.38 L1499.62 1146.09 L1501.19 1146.81 L1502.76 1147.51 L1504.33 1148.22 L1505.9 1148.92 L1507.47 1149.63 L1509.04 1150.32 
  L1510.62 1151.02 L1512.19 1151.71 L1513.76 1152.4 L1515.33 1153.09 L1516.9 1153.77 L1518.47 1154.45 L1520.04 1155.13 L1521.61 1155.81 L1523.18 1156.48 L1524.76 1157.15 
  L1526.33 1157.82 L1527.9 1158.48 L1529.47 1159.14 L1531.04 1159.8 L1532.61 1160.46 L1534.18 1161.11 L1535.75 1161.76 L1537.33 1162.41 L1538.9 1163.06 L1540.47 1163.7 
  L1542.04 1164.34 L1543.61 1164.98 L1545.18 1165.62 L1546.75 1166.25 L1548.32 1166.88 L1549.89 1167.51 L1551.47 1168.13 L1553.04 1168.76 L1554.61 1169.38 L1556.18 1169.99 
  L1557.75 1170.61 L1559.32 1171.22 L1560.89 1171.83 L1562.46 1172.44 L1564.03 1173.05 L1565.61 1173.65 L1567.18 1174.25 L1568.75 1174.85 L1570.32 1175.44 L1571.89 1176.03 
  L1573.46 1176.62 L1575.03 1177.21 L1576.6 1177.8 L1578.18 1178.38 L1579.75 1178.96 L1581.32 1179.54 L1582.89 1180.12 L1584.46 1180.69 L1586.03 1181.26 L1587.6 1181.83 
  L1589.17 1182.4 L1590.74 1182.96 L1592.32 1183.52 L1593.89 1184.08 L1595.46 1184.64 L1597.03 1185.19 L1598.6 1185.75 L1600.17 1186.3 L1601.74 1186.85 L1603.31 1187.39 
  L1604.88 1187.94 L1606.46 1188.48 L1608.03 1189.02 L1609.6 1189.55 L1611.17 1190.09 L1612.74 1190.62 L1614.31 1191.15 L1615.88 1191.68 L1617.45 1192.2 L1619.03 1192.73 
  L1620.6 1193.25 L1622.17 1193.77 L1623.74 1194.29 L1625.31 1194.8 L1626.88 1195.31 L1628.45 1195.83 L1630.02 1196.33 L1631.59 1196.84 L1633.17 1197.34 L1634.74 1197.85 
  L1636.31 1198.35 L1637.88 1198.85 L1639.45 1199.34 L1641.02 1199.84 L1642.59 1200.33 L1644.16 1200.82 L1645.73 1201.31 L1647.31 1201.79 L1648.88 1202.28 L1650.45 1202.76 
  L1652.02 1203.24 L1653.59 1203.71 L1655.16 1204.19 L1656.73 1204.66 L1658.3 1205.14 L1659.88 1205.61 L1661.45 1206.07 L1663.02 1206.54 L1664.59 1207 L1666.16 1207.47 
  L1667.73 1207.93 L1669.3 1208.38 L1670.87 1208.84 L1672.44 1209.3 L1674.02 1209.75 L1675.59 1210.2 L1677.16 1210.65 L1678.73 1211.09 L1680.3 1211.54 L1681.87 1211.98 
  L1683.44 1212.42 L1685.01 1212.86 L1686.59 1213.3 L1688.16 1213.74 L1689.73 1214.17 L1691.3 1214.6 L1692.87 1215.03 L1694.44 1215.46 L1696.01 1215.89 L1697.58 1216.31 
  L1699.15 1216.73 L1700.73 1217.16 L1702.3 1217.57 L1703.87 1217.99 L1705.44 1218.41 L1707.01 1218.82 L1708.58 1219.23 L1710.15 1219.65 L1711.72 1220.05 L1713.29 1220.46 
  L1714.87 1220.87 L1716.44 1221.27 L1718.01 1221.67 L1719.58 1222.07 L1721.15 1222.47 L1722.72 1222.87 L1724.29 1223.26 L1725.86 1223.66 L1727.44 1224.05 L1729.01 1224.44 
  L1730.58 1224.83 L1732.15 1225.22 L1733.72 1225.6 L1735.29 1225.98 L1736.86 1226.37 L1738.43 1226.75 L1740 1227.13 L1741.58 1227.5 L1743.15 1227.88 L1744.72 1228.25 
  L1746.29 1228.63 L1747.86 1229 L1749.43 1229.37 L1751 1229.73 L1752.57 1230.1 L1754.14 1230.46 L1755.72 1230.83 L1757.29 1231.19 L1758.86 1231.55 L1760.43 1231.91 
  L1762 1232.26 L1763.57 1232.62 L1765.14 1232.97 L1766.71 1233.33 L1768.29 1233.68 L1769.86 1234.03 L1771.43 1234.37 L1773 1234.72 L1774.57 1235.07 L1776.14 1235.41 
  L1777.71 1235.75 L1779.28 1236.09 L1780.85 1236.43 L1782.43 1236.77 L1784 1237.11 L1785.57 1237.44 L1787.14 1237.77 L1788.71 1238.11 L1790.28 1238.44 L1791.85 1238.76 
  L1793.42 1239.09 L1794.99 1239.42 L1796.57 1239.74 L1798.14 1240.07 L1799.71 1240.39 L1801.28 1240.71 L1802.85 1241.03 L1804.42 1241.35 L1805.99 1241.66 L1807.56 1241.98 
  L1809.14 1242.29 L1810.71 1242.61 L1812.28 1242.92 L1813.85 1243.23 L1815.42 1243.54 L1816.99 1243.84 L1818.56 1244.15 L1820.13 1244.45 L1821.7 1244.76 L1823.28 1245.06 
  L1824.85 1245.36 L1826.42 1245.66 L1827.99 1245.96 L1829.56 1246.25 L1831.13 1246.55 L1832.7 1246.84 L1834.27 1247.14 L1835.85 1247.43 L1837.42 1247.72 L1838.99 1248.01 
  L1840.56 1248.3 L1842.13 1248.58 L1843.7 1248.87 L1845.27 1249.15 L1846.84 1249.44 L1848.41 1249.72 L1849.99 1250 L1851.56 1250.28 L1853.13 1250.56 L1854.7 1250.83 
  L1856.27 1251.11 L1857.84 1251.38 L1859.41 1251.66 L1860.98 1251.93 L1862.55 1252.2 L1864.13 1252.47 L1865.7 1252.74 L1867.27 1253.01 L1868.84 1253.27 L1870.41 1253.54 
  L1871.98 1253.8 L1873.55 1254.07 L1875.12 1254.33 L1876.7 1254.59 L1878.27 1254.85 L1879.84 1255.11 L1881.41 1255.36 L1882.98 1255.62 L1884.55 1255.88 L1886.12 1256.13 
  L1887.69 1256.38 L1889.26 1256.64 L1890.84 1256.89 L1892.41 1257.14 L1893.98 1257.38 L1895.55 1257.63 L1897.12 1257.88 L1898.69 1258.12 L1900.26 1258.37 L1901.83 1258.61 
  L1903.4 1258.85 L1904.98 1259.09 L1906.55 1259.33 L1908.12 1259.57 L1909.69 1259.81 L1911.26 1260.05 L1912.83 1260.28 L1914.4 1260.52 L1915.97 1260.75 L1917.55 1260.99 
  L1919.12 1261.22 L1920.69 1261.45 L1922.26 1261.68 L1923.83 1261.91 L1925.4 1262.14 L1926.97 1262.36 L1928.54 1262.59 L1930.11 1262.81 L1931.69 1263.04 L1933.26 1263.26 
  L1934.83 1263.48 L1936.4 1263.7 L1937.97 1263.92 L1939.54 1264.14 L1941.11 1264.36 L1942.68 1264.58 L1944.25 1264.79 L1945.83 1265.01 L1947.4 1265.22 L1948.97 1265.44 
  L1950.54 1265.65 L1952.11 1265.86 L1953.68 1266.07 L1955.25 1266.28 L1956.82 1266.49 L1958.4 1266.7 L1959.97 1266.91 L1961.54 1267.11 L1963.11 1267.32 L1964.68 1267.52 
  L1966.25 1267.72 L1967.82 1267.93 L1969.39 1268.13 L1970.96 1268.33 L1972.54 1268.53 L1974.11 1268.73 L1975.68 1268.93 L1977.25 1269.12 L1978.82 1269.32 L1980.39 1269.52 
  L1981.96 1269.71 L1983.53 1269.9 L1985.11 1270.1 L1986.68 1270.29 L1988.25 1270.48 L1989.82 1270.67 L1991.39 1270.86 L1992.96 1271.05 L1994.53 1271.24 L1996.1 1271.42 
  L1997.67 1271.61 L1999.25 1271.8 L2000.82 1271.98 L2002.39 1272.16 L2003.96 1272.35 L2005.53 1272.53 L2007.1 1272.71 L2008.67 1272.89 L2010.24 1273.07 L2011.81 1273.25 
  L2013.39 1273.43 L2014.96 1273.61 L2016.53 1273.78 L2018.1 1273.96 L2019.67 1274.13 L2021.24 1274.31 L2022.81 1274.48 L2024.38 1274.66 L2025.96 1274.83 L2027.53 1275 
  L2029.1 1275.17 L2030.67 1275.34 L2032.24 1275.51 L2033.81 1275.68 L2035.38 1275.84 L2036.95 1276.01 L2038.52 1276.18 L2040.1 1276.34 L2041.67 1276.51 L2043.24 1276.67 
  L2044.81 1276.84 L2046.38 1277 L2047.95 1277.16 L2049.52 1277.32 L2051.09 1277.48 L2052.66 1277.64 L2054.24 1277.8 L2055.81 1277.96 L2057.38 1278.12 L2058.95 1278.27 
  L2060.52 1278.43 L2062.09 1278.58 L2063.66 1278.74 L2065.23 1278.89 L2066.81 1279.05 L2068.38 1279.2 L2069.95 1279.35 L2071.52 1279.5 L2073.09 1279.65 L2074.66 1279.8 
  L2076.23 1279.95 L2077.8 1280.1 L2079.37 1280.25 L2080.95 1280.4 L2082.52 1280.54 L2084.09 1280.69 L2085.66 1280.84 L2087.23 1280.98 L2088.8 1281.12 L2090.37 1281.27 
  L2091.94 1281.41 L2093.51 1281.55 L2095.09 1281.7 L2096.66 1281.84 L2098.23 1281.98 L2099.8 1282.12 L2101.37 1282.26 L2102.94 1282.39 L2104.51 1282.53 L2106.08 1282.67 
  L2107.66 1282.81 L2109.23 1282.94 L2110.8 1283.08 L2112.37 1283.21 L2113.94 1283.35 L2115.51 1283.48 L2117.08 1283.61 L2118.65 1283.75 L2120.22 1283.88 L2121.8 1284.01 
  L2123.37 1284.14 L2124.94 1284.27 L2126.51 1284.4 L2128.08 1284.53 L2129.65 1284.66 L2131.22 1284.79 L2132.79 1284.91 L2134.36 1285.04 L2135.94 1285.17 L2137.51 1285.29 
  L2139.08 1285.42 L2140.65 1285.54 L2142.22 1285.67 L2143.79 1285.79 L2145.36 1285.91 L2146.93 1286.03 L2148.51 1286.16 L2150.08 1286.28 L2151.65 1286.4 L2153.22 1286.52 
  L2154.79 1286.64 L2156.36 1286.76 L2157.93 1286.88 L2159.5 1286.99 L2161.07 1287.11 L2162.65 1287.23 L2164.22 1287.34 L2165.79 1287.46 L2167.36 1287.58 L2168.93 1287.69 
  L2170.5 1287.81 L2172.07 1287.92 L2173.64 1288.03 L2175.22 1288.15 L2176.79 1288.26 L2178.36 1288.37 L2179.93 1288.48 L2181.5 1288.59 L2183.07 1288.7 L2184.64 1288.81 
  L2186.21 1288.92 L2187.78 1289.03 L2189.36 1289.14 L2190.93 1289.25 L2192.5 1289.35 L2194.07 1289.46 L2195.64 1289.57 L2197.21 1289.67 L2198.78 1289.78 L2200.35 1289.88 
  L2201.92 1289.99 L2203.5 1290.09 L2205.07 1290.2 L2206.64 1290.3 L2208.21 1290.4 L2209.78 1290.51 L2211.35 1290.61 L2212.92 1290.71 L2214.49 1290.81 L2216.07 1290.91 
  L2217.64 1291.01 L2219.21 1291.11 L2220.78 1291.21 L2222.35 1291.31 L2223.92 1291.41 L2225.49 1291.5 L2227.06 1291.6 L2228.63 1291.7 L2230.21 1291.79 L2231.78 1291.89 
  L2233.35 1291.99 L2234.92 1292.08 L2236.49 1292.18 L2238.06 1292.27 L2239.63 1292.37 L2241.2 1292.46 L2242.77 1292.55 L2244.35 1292.64 L2245.92 1292.74 L2247.49 1292.83 
  L2249.06 1292.92 L2250.63 1293.01 L2252.2 1293.1 L2253.77 1293.19 L2255.34 1293.28 L2256.92 1293.37 L2258.49 1293.46 L2260.06 1293.55 L2261.63 1293.64 L2263.2 1293.72 
  L2264.77 1293.81 L2266.34 1293.9 L2267.91 1293.99 L2269.48 1294.07 L2271.06 1294.16 L2272.63 1294.24 L2274.2 1294.33 L2275.77 1294.41 L2277.34 1294.5 L2278.91 1294.58 
  L2280.48 1294.67 L2282.05 1294.75 L2283.62 1294.83 L2285.2 1294.91 L2286.77 1295 L2288.34 1295.08 L2289.91 1295.16 L2291.48 1295.24 L2293.05 1295.32 L2294.62 1295.4 
  L2296.19 1295.48 L2296.19 1312.88 L2294.62 1312.88 L2293.05 1312.88 L2291.48 1312.88 L2289.91 1312.88 L2288.34 1312.88 L2286.77 1312.88 L2285.2 1312.88 L2283.62 1312.88 
  L2282.05 1312.88 L2280.48 1312.88 L2278.91 1312.88 L2277.34 1312.88 L2275.77 1312.88 L2274.2 1312.88 L2272.63 1312.88 L2271.06 1312.88 L2269.48 1312.88 L2267.91 1312.88 
  L2266.34 1312.88 L2264.77 1312.88 L2263.2 1312.88 L2261.63 1312.88 L2260.06 1312.88 L2258.49 1312.88 L2256.92 1312.88 L2255.34 1312.88 L2253.77 1312.88 L2252.2 1312.88 
  L2250.63 1312.88 L2249.06 1312.88 L2247.49 1312.88 L2245.92 1312.88 L2244.35 1312.88 L2242.77 1312.88 L2241.2 1312.88 L2239.63 1312.88 L2238.06 1312.88 L2236.49 1312.88 
  L2234.92 1312.88 L2233.35 1312.88 L2231.78 1312.88 L2230.21 1312.88 L2228.63 1312.88 L2227.06 1312.88 L2225.49 1312.88 L2223.92 1312.88 L2222.35 1312.88 L2220.78 1312.88 
  L2219.21 1312.88 L2217.64 1312.88 L2216.07 1312.88 L2214.49 1312.88 L2212.92 1312.88 L2211.35 1312.88 L2209.78 1312.88 L2208.21 1312.88 L2206.64 1312.88 L2205.07 1312.88 
  L2203.5 1312.88 L2201.92 1312.88 L2200.35 1312.88 L2198.78 1312.88 L2197.21 1312.88 L2195.64 1312.88 L2194.07 1312.88 L2192.5 1312.88 L2190.93 1312.88 L2189.36 1312.88 
  L2187.78 1312.88 L2186.21 1312.88 L2184.64 1312.88 L2183.07 1312.88 L2181.5 1312.88 L2179.93 1312.88 L2178.36 1312.88 L2176.79 1312.88 L2175.22 1312.88 L2173.64 1312.88 
  L2172.07 1312.88 L2170.5 1312.88 L2168.93 1312.88 L2167.36 1312.88 L2165.79 1312.88 L2164.22 1312.88 L2162.65 1312.88 L2161.07 1312.88 L2159.5 1312.88 L2157.93 1312.88 
  L2156.36 1312.88 L2154.79 1312.88 L2153.22 1312.88 L2151.65 1312.88 L2150.08 1312.88 L2148.51 1312.88 L2146.93 1312.88 L2145.36 1312.88 L2143.79 1312.88 L2142.22 1312.88 
  L2140.65 1312.88 L2139.08 1312.88 L2137.51 1312.88 L2135.94 1312.88 L2134.36 1312.88 L2132.79 1312.88 L2131.22 1312.88 L2129.65 1312.88 L2128.08 1312.88 L2126.51 1312.88 
  L2124.94 1312.88 L2123.37 1312.88 L2121.8 1312.88 L2120.22 1312.88 L2118.65 1312.88 L2117.08 1312.88 L2115.51 1312.88 L2113.94 1312.88 L2112.37 1312.88 L2110.8 1312.88 
  L2109.23 1312.88 L2107.66 1312.88 L2106.08 1312.88 L2104.51 1312.88 L2102.94 1312.88 L2101.37 1312.88 L2099.8 1312.88 L2098.23 1312.88 L2096.66 1312.88 L2095.09 1312.88 
  L2093.51 1312.88 L2091.94 1312.88 L2090.37 1312.88 L2088.8 1312.88 L2087.23 1312.88 L2085.66 1312.88 L2084.09 1312.88 L2082.52 1312.88 L2080.95 1312.88 L2079.37 1312.88 
  L2077.8 1312.88 L2076.23 1312.88 L2074.66 1312.88 L2073.09 1312.88 L2071.52 1312.88 L2069.95 1312.88 L2068.38 1312.88 L2066.81 1312.88 L2065.23 1312.88 L2063.66 1312.88 
  L2062.09 1312.88 L2060.52 1312.88 L2058.95 1312.88 L2057.38 1312.88 L2055.81 1312.88 L2054.24 1312.88 L2052.66 1312.88 L2051.09 1312.88 L2049.52 1312.88 L2047.95 1312.88 
  L2046.38 1312.88 L2044.81 1312.88 L2043.24 1312.88 L2041.67 1312.88 L2040.1 1312.88 L2038.52 1312.88 L2036.95 1312.88 L2035.38 1312.88 L2033.81 1312.88 L2032.24 1312.88 
  L2030.67 1312.88 L2029.1 1312.88 L2027.53 1312.88 L2025.96 1312.88 L2024.38 1312.88 L2022.81 1312.88 L2021.24 1312.88 L2019.67 1312.88 L2018.1 1312.88 L2016.53 1312.88 
  L2014.96 1312.88 L2013.39 1312.88 L2011.81 1312.88 L2010.24 1312.88 L2008.67 1312.88 L2007.1 1312.88 L2005.53 1312.88 L2003.96 1312.88 L2002.39 1312.88 L2000.82 1312.88 
  L1999.25 1312.88 L1997.67 1312.88 L1996.1 1312.88 L1994.53 1312.88 L1992.96 1312.88 L1991.39 1312.88 L1989.82 1312.88 L1988.25 1312.88 L1986.68 1312.88 L1985.11 1312.88 
  L1983.53 1312.88 L1981.96 1312.88 L1980.39 1312.88 L1978.82 1312.88 L1977.25 1312.88 L1975.68 1312.88 L1974.11 1312.88 L1972.54 1312.88 L1970.96 1312.88 L1969.39 1312.88 
  L1967.82 1312.88 L1966.25 1312.88 L1964.68 1312.88 L1963.11 1312.88 L1961.54 1312.88 L1959.97 1312.88 L1958.4 1312.88 L1956.82 1312.88 L1955.25 1312.88 L1953.68 1312.88 
  L1952.11 1312.88 L1950.54 1312.88 L1948.97 1312.88 L1947.4 1312.88 L1945.83 1312.88 L1944.25 1312.88 L1942.68 1312.88 L1941.11 1312.88 L1939.54 1312.88 L1937.97 1312.88 
  L1936.4 1312.88 L1934.83 1312.88 L1933.26 1312.88 L1931.69 1312.88 L1930.11 1312.88 L1928.54 1312.88 L1926.97 1312.88 L1925.4 1312.88 L1923.83 1312.88 L1922.26 1312.88 
  L1920.69 1312.88 L1919.12 1312.88 L1917.55 1312.88 L1915.97 1312.88 L1914.4 1312.88 L1912.83 1312.88 L1911.26 1312.88 L1909.69 1312.88 L1908.12 1312.88 L1906.55 1312.88 
  L1904.98 1312.88 L1903.4 1312.88 L1901.83 1312.88 L1900.26 1312.88 L1898.69 1312.88 L1897.12 1312.88 L1895.55 1312.88 L1893.98 1312.88 L1892.41 1312.88 L1890.84 1312.88 
  L1889.26 1312.88 L1887.69 1312.88 L1886.12 1312.88 L1884.55 1312.88 L1882.98 1312.88 L1881.41 1312.88 L1879.84 1312.88 L1878.27 1312.88 L1876.7 1312.88 L1875.12 1312.88 
  L1873.55 1312.88 L1871.98 1312.88 L1870.41 1312.88 L1868.84 1312.88 L1867.27 1312.88 L1865.7 1312.88 L1864.13 1312.88 L1862.55 1312.88 L1860.98 1312.88 L1859.41 1312.88 
  L1857.84 1312.88 L1856.27 1312.88 L1854.7 1312.88 L1853.13 1312.88 L1851.56 1312.88 L1849.99 1312.88 L1848.41 1312.88 L1846.84 1312.88 L1845.27 1312.88 L1843.7 1312.88 
  L1842.13 1312.88 L1840.56 1312.88 L1838.99 1312.88 L1837.42 1312.88 L1835.85 1312.88 L1834.27 1312.88 L1832.7 1312.88 L1831.13 1312.88 L1829.56 1312.88 L1827.99 1312.88 
  L1826.42 1312.88 L1824.85 1312.88 L1823.28 1312.88 L1821.7 1312.88 L1820.13 1312.88 L1818.56 1312.88 L1816.99 1312.88 L1815.42 1312.88 L1813.85 1312.88 L1812.28 1312.88 
  L1810.71 1312.88 L1809.14 1312.88 L1807.56 1312.88 L1805.99 1312.88 L1804.42 1312.88 L1802.85 1312.88 L1801.28 1312.88 L1799.71 1312.88 L1798.14 1312.88 L1796.57 1312.88 
  L1794.99 1312.88 L1793.42 1312.88 L1791.85 1312.88 L1790.28 1312.88 L1788.71 1312.88 L1787.14 1312.88 L1785.57 1312.88 L1784 1312.88 L1782.43 1312.88 L1780.85 1312.88 
  L1779.28 1312.88 L1777.71 1312.88 L1776.14 1312.88 L1774.57 1312.88 L1773 1312.88 L1771.43 1312.88 L1769.86 1312.88 L1768.29 1312.88 L1766.71 1312.88 L1765.14 1312.88 
  L1763.57 1312.88 L1762 1312.88 L1760.43 1312.88 L1758.86 1312.88 L1757.29 1312.88 L1755.72 1312.88 L1754.14 1312.88 L1752.57 1312.88 L1751 1312.88 L1749.43 1312.88 
  L1747.86 1312.88 L1746.29 1312.88 L1744.72 1312.88 L1743.15 1312.88 L1741.58 1312.88 L1740 1312.88 L1738.43 1312.88 L1736.86 1312.88 L1735.29 1312.88 L1733.72 1312.88 
  L1732.15 1312.88 L1730.58 1312.88 L1729.01 1312.88 L1727.44 1312.88 L1725.86 1312.88 L1724.29 1312.88 L1722.72 1312.88 L1721.15 1312.88 L1719.58 1312.88 L1718.01 1312.88 
  L1716.44 1312.88 L1714.87 1312.88 L1713.29 1312.88 L1711.72 1312.88 L1710.15 1312.88 L1708.58 1312.88 L1707.01 1312.88 L1705.44 1312.88 L1703.87 1312.88 L1702.3 1312.88 
  L1700.73 1312.88 L1699.15 1312.88 L1697.58 1312.88 L1696.01 1312.88 L1694.44 1312.88 L1692.87 1312.88 L1691.3 1312.88 L1689.73 1312.88 L1688.16 1312.88 L1686.59 1312.88 
  L1685.01 1312.88 L1683.44 1312.88 L1681.87 1312.88 L1680.3 1312.88 L1678.73 1312.88 L1677.16 1312.88 L1675.59 1312.88 L1674.02 1312.88 L1672.44 1312.88 L1670.87 1312.88 
  L1669.3 1312.88 L1667.73 1312.88 L1666.16 1312.88 L1664.59 1312.88 L1663.02 1312.88 L1661.45 1312.88 L1659.88 1312.88 L1658.3 1312.88 L1656.73 1312.88 L1655.16 1312.88 
  L1653.59 1312.88 L1652.02 1312.88 L1650.45 1312.88 L1648.88 1312.88 L1647.31 1312.88 L1645.73 1312.88 L1644.16 1312.88 L1642.59 1312.88 L1641.02 1312.88 L1639.45 1312.88 
  L1637.88 1312.88 L1636.31 1312.88 L1634.74 1312.88 L1633.17 1312.88 L1631.59 1312.88 L1630.02 1312.88 L1628.45 1312.88 L1626.88 1312.88 L1625.31 1312.88 L1623.74 1312.88 
  L1622.17 1312.88 L1620.6 1312.88 L1619.03 1312.88 L1617.45 1312.88 L1615.88 1312.88 L1614.31 1312.88 L1612.74 1312.88 L1611.17 1312.88 L1609.6 1312.88 L1608.03 1312.88 
  L1606.46 1312.88 L1604.88 1312.88 L1603.31 1312.88 L1601.74 1312.88 L1600.17 1312.88 L1598.6 1312.88 L1597.03 1312.88 L1595.46 1312.88 L1593.89 1312.88 L1592.32 1312.88 
  L1590.74 1312.88 L1589.17 1312.88 L1587.6 1312.88 L1586.03 1312.88 L1584.46 1312.88 L1582.89 1312.88 L1581.32 1312.88 L1579.75 1312.88 L1578.18 1312.88 L1576.6 1312.88 
  L1575.03 1312.88 L1573.46 1312.88 L1571.89 1312.88 L1570.32 1312.88 L1568.75 1312.88 L1567.18 1312.88 L1565.61 1312.88 L1564.03 1312.88 L1562.46 1312.88 L1560.89 1312.88 
  L1559.32 1312.88 L1557.75 1312.88 L1556.18 1312.88 L1554.61 1312.88 L1553.04 1312.88 L1551.47 1312.88 L1549.89 1312.88 L1548.32 1312.88 L1546.75 1312.88 L1545.18 1312.88 
  L1543.61 1312.88 L1542.04 1312.88 L1540.47 1312.88 L1538.9 1312.88 L1537.33 1312.88 L1535.75 1312.88 L1534.18 1312.88 L1532.61 1312.88 L1531.04 1312.88 L1529.47 1312.88 
  L1527.9 1312.88 L1526.33 1312.88 L1524.76 1312.88 L1523.18 1312.88 L1521.61 1312.88 L1520.04 1312.88 L1518.47 1312.88 L1516.9 1312.88 L1515.33 1312.88 L1513.76 1312.88 
  L1512.19 1312.88 L1510.62 1312.88 L1509.04 1312.88 L1507.47 1312.88 L1505.9 1312.88 L1504.33 1312.88 L1502.76 1312.88 L1501.19 1312.88 L1499.62 1312.88 L1498.05 1312.88 
  L1496.48 1312.88 L1494.9 1312.88 L1493.33 1312.88 L1491.76 1312.88 L1490.19 1312.88 L1488.62 1312.88 L1487.05 1312.88 L1485.48 1312.88 L1483.91 1312.88 L1482.33 1312.88 
  L1480.76 1312.88 L1479.19 1312.88 L1477.62 1312.88 L1476.05 1312.88 L1474.48 1312.88 L1472.91 1312.88 L1471.34 1312.88 L1469.77 1312.88 L1468.19 1312.88 L1466.62 1312.88 
  L1465.05 1312.88 L1463.48 1312.88 L1461.91 1312.88 L1460.34 1312.88 L1458.77 1312.88 L1457.2 1312.88 L1455.62 1312.88 L1454.05 1312.88 L1452.48 1312.88 L1450.91 1312.88 
  L1449.34 1312.88 L1447.77 1312.88 L1446.2 1312.88 L1444.63 1312.88 L1443.06 1312.88 L1441.48 1312.88 L1439.91 1312.88 L1438.34 1312.88 L1436.77 1312.88 L1435.2 1312.88 
  L1433.63 1312.88 L1432.06 1312.88 L1430.49 1312.88 L1428.92 1312.88 L1427.34 1312.88 L1425.77 1312.88 L1424.2 1312.88 L1422.63 1312.88 L1421.06 1312.88 L1419.49 1312.88 
  L1417.92 1312.88 L1416.35 1312.88 L1414.77 1312.88 L1413.2 1312.88 L1411.63 1312.88 L1410.06 1312.88 L1408.49 1312.88 L1406.92 1312.88 L1405.35 1312.88 L1403.78 1312.88 
  L1402.21 1312.88 L1400.63 1312.88 L1399.06 1312.88 L1397.49 1312.88 L1395.92 1312.88 L1394.35 1312.88 L1392.78 1312.88 L1391.21 1312.88 L1389.64 1312.88 L1388.07 1312.88 
  L1386.49 1312.88 L1384.92 1312.88 L1383.35 1312.88 L1381.78 1312.88 L1380.21 1312.88 L1378.64 1312.88 L1377.07 1312.88 L1375.5 1312.88 L1373.92 1312.88 L1372.35 1312.88 
  L1370.78 1312.88 L1369.21 1312.88 L1367.64 1312.88 L1366.07 1312.88 L1364.5 1312.88 L1362.93 1312.88 L1361.36 1312.88 L1359.78 1312.88 L1358.21 1312.88 L1356.64 1312.88 
  L1355.07 1312.88 L1353.5 1312.88 L1351.93 1312.88 L1350.36 1312.88 L1348.79 1312.88 L1347.22 1312.88 L1345.64 1312.88 L1344.07 1312.88 L1342.5 1312.88 L1340.93 1312.88 
  L1339.36 1312.88 L1337.79 1312.88 L1336.22 1312.88 L1334.65 1312.88 L1333.07 1312.88 L1331.5 1312.88 L1329.93 1312.88 L1328.36 1312.88 L1326.79 1312.88 L1325.22 1312.88 
  L1323.65 1312.88 L1322.08 1312.88 L1320.51 1312.88 L1318.93 1312.88 L1317.36 1312.88 L1315.79 1312.88 L1314.22 1312.88 L1312.65 1312.88 L1311.08 1312.88 L1309.51 1312.88 
  L1307.94 1312.88 L1306.36 1312.88 L1304.79 1312.88 L1303.22 1312.88 L1301.65 1312.88 L1300.08 1312.88 L1298.51 1312.88 L1296.94 1312.88 L1295.37 1312.88 L1293.8 1312.88 
  L1292.22 1312.88 L1290.65 1312.88 L1289.08 1312.88 L1287.51 1312.88 L1285.94 1312.88 L1284.37 1312.88 L1282.8 1312.88 L1281.23 1312.88 L1279.66 1312.88 L1278.08 1312.88 
  L1276.51 1312.88 L1274.94 1312.88 L1273.37 1312.88 L1271.8 1312.88 L1270.23 1312.88 L1268.66 1312.88 L1267.09 1312.88 L1265.51 1312.88 L1263.94 1312.88 L1262.37 1312.88 
  L1260.8 1312.88 L1259.23 1312.88 L1257.66 1312.88 L1256.09 1312.88 L1254.52 1312.88 L1252.95 1312.88 L1251.37 1312.88 L1249.8 1312.88 L1248.23 1312.88 L1246.66 1312.88 
  L1245.09 1312.88 L1243.52 1312.88 L1241.95 1312.88 L1240.38 1312.88 L1238.81 1312.88 L1237.23 1312.88 L1235.66 1312.88 L1234.09 1312.88 L1232.52 1312.88 L1230.95 1312.88 
  L1229.38 1312.88 L1227.81 1312.88 L1226.24 1312.88 L1224.66 1312.88 L1223.09 1312.88 L1221.52 1312.88 L1219.95 1312.88 L1218.38 1312.88 L1216.81 1312.88 L1215.24 1312.88 
  L1213.67 1312.88 L1212.1 1312.88 L1210.52 1312.88 L1208.95 1312.88 L1207.38 1312.88 L1205.81 1312.88 L1204.24 1312.88 L1202.67 1312.88 L1201.1 1312.88 L1199.53 1312.88 
  L1197.96 1312.88 L1196.38 1312.88 L1194.81 1312.88 L1193.24 1312.88 L1191.67 1312.88 L1190.1 1312.88 L1188.53 1312.88 L1186.96 1312.88 L1185.39 1312.88 L1183.81 1312.88 
  L1182.24 1312.88 L1180.67 1312.88 L1179.1 1312.88 L1177.53 1312.88 L1175.96 1312.88 L1174.39 1312.88 L1172.82 1312.88 L1171.25 1312.88 L1169.67 1312.88 L1168.1 1312.88 
  L1166.53 1312.88 L1164.96 1312.88 L1163.39 1312.88 L1161.82 1312.88 L1160.25 1312.88 L1158.68 1312.88 L1157.1 1312.88 L1155.53 1312.88 L1153.96 1312.88 L1152.39 1312.88 
  L1150.82 1312.88 L1149.25 1312.88 L1147.68 1312.88 L1146.11 1312.88 L1144.54 1312.88 L1142.96 1312.88 L1141.39 1312.88 L1139.82 1312.88 L1138.25 1312.88 L1136.68 1312.88 
  L1135.11 1312.88 L1133.54 1312.88 L1131.97 1312.88 L1130.4 1312.88 L1128.82 1312.88 L1127.25 1312.88 L1125.68 1312.88 L1124.11 1312.88 L1122.54 1312.88 L1120.97 1312.88 
  L1119.4 1312.88 L1117.83 1312.88 L1116.25 1312.88 L1114.68 1312.88 L1113.11 1312.88 L1111.54 1312.88 L1109.97 1312.88 L1108.4 1312.88 L1106.83 1312.88 L1105.26 1312.88 
  L1103.69 1312.88 L1102.11 1312.88 L1100.54 1312.88 L1098.97 1312.88 L1097.4 1312.88 L1095.83 1312.88 L1094.26 1312.88 L1092.69 1312.88 L1091.12 1312.88 L1089.55 1312.88 
  L1087.97 1312.88 L1086.4 1312.88 L1084.83 1312.88 L1083.26 1312.88 L1081.69 1312.88 L1080.12 1312.88 L1078.55 1312.88 L1076.98 1312.88 L1075.4 1312.88 L1073.83 1312.88 
  L1072.26 1312.88 L1070.69 1312.88 L1069.12 1312.88 L1067.55 1312.88 L1065.98 1312.88 L1064.41 1312.88 L1062.84 1312.88 L1061.26 1312.88 L1059.69 1312.88 L1058.12 1312.88 
  L1056.55 1312.88 L1054.98 1312.88 L1053.41 1312.88 L1051.84 1312.88 L1050.27 1312.88 L1048.7 1312.88 L1047.12 1312.88 L1045.55 1312.88 L1043.98 1312.88 L1042.41 1312.88 
  L1040.84 1312.88 L1039.27 1312.88 L1037.7 1312.88 L1036.13 1312.88 L1034.55 1312.88 L1032.98 1312.88 L1031.41 1312.88 L1029.84 1312.88 L1028.27 1312.88 L1026.7 1312.88 
  L1025.13 1312.88 L1023.56 1312.88 L1021.99 1312.88 L1020.41 1312.88 L1018.84 1312.88 L1017.27 1312.88 L1015.7 1312.88 L1014.13 1312.88 L1012.56 1312.88 L1010.99 1312.88 
  L1009.42 1312.88 L1007.85 1312.88 L1006.27 1312.88 L1004.7 1312.88 L1003.13 1312.88 L1001.56 1312.88 L999.989 1312.88 L998.418 1312.88 L996.847 1312.88 L995.276 1312.88 
  L993.705 1312.88 L992.133 1312.88 L990.562 1312.88 L988.991 1312.88 L987.42 1312.88 L985.849 1312.88 L984.278 1312.88 L982.706 1312.88 L981.135 1312.88 L979.564 1312.88 
  L977.993 1312.88 L976.422 1312.88 L974.851 1312.88 L973.28 1312.88 L971.708 1312.88 L970.137 1312.88 L968.566 1312.88 L966.995 1312.88 L965.424 1312.88 L963.853 1312.88 
  L962.281 1312.88 L960.71 1312.88 L959.139 1312.88 L957.568 1312.88 L955.997 1312.88 L954.426 1312.88 L952.854 1312.88 L951.283 1312.88 L949.712 1312.88 L948.141 1312.88 
  L946.57 1312.88 L944.999 1312.88 L943.428 1312.88 L941.856 1312.88 L940.285 1312.88 L938.714 1312.88 L937.143 1312.88 L935.572 1312.88 L934.001 1312.88 L932.429 1312.88 
  L930.858 1312.88 L929.287 1312.88 L927.716 1312.88 L926.145 1312.88 L924.574 1312.88 L923.002 1312.88 L921.431 1312.88 L919.86 1312.88 L918.289 1312.88 L916.718 1312.88 
  L915.147 1312.88 L913.576 1312.88 L912.004 1312.88 L910.433 1312.88 L908.862 1312.88 L907.291 1312.88 L905.72 1312.88 L904.149 1312.88 L902.577 1312.88 L901.006 1312.88 
  L899.435 1312.88 L897.864 1312.88 L896.293 1312.88 L894.722 1312.88 L893.15 1312.88 L891.579 1312.88 L890.008 1312.88 L888.437 1312.88 L886.866 1312.88 L885.295 1312.88 
  L883.724 1312.88 L882.152 1312.88 L880.581 1312.88 L879.01 1312.88 L877.439 1312.88 L875.868 1312.88 L874.297 1312.88 L872.725 1312.88 L871.154 1312.88 L869.583 1312.88 
  L868.012 1312.88 L866.441 1312.88 L864.87 1312.88 L863.299 1312.88 L861.727 1312.88 L860.156 1312.88 L858.585 1312.88 L857.014 1312.88 L855.443 1312.88 L853.872 1312.88 
  L852.3 1312.88 L850.729 1312.88 L849.158 1312.88 L847.587 1312.88 L846.016 1312.88 L844.445 1312.88 L842.873 1312.88 L841.302 1312.88 L839.731 1312.88 L838.16 1312.88 
  L836.589 1312.88 L835.018 1312.88 L833.447 1312.88 L831.875 1312.88 L830.304 1312.88 L828.733 1312.88 L827.162 1312.88 L825.591 1312.88 L824.02 1312.88 L822.448 1312.88 
  L820.877 1312.88 L819.306 1312.88 L817.735 1312.88 L816.164 1312.88 L814.593 1312.88 L813.021 1312.88 L811.45 1312.88 L809.879 1312.88 L808.308 1312.88 L806.737 1312.88 
  L805.166 1312.88 L803.595 1312.88 L802.023 1312.88 L800.452 1312.88 L798.881 1312.88 L797.31 1312.88 L795.739 1312.88 L794.168 1312.88 L792.596 1312.88 L791.025 1312.88 
  L789.454 1312.88 L787.883 1312.88 L786.312 1312.88 L784.741 1312.88 L783.169 1312.88 L781.598 1312.88 L780.027 1312.88 L778.456 1312.88 L776.885 1312.88 L775.314 1312.88 
  L773.743 1312.88 L772.171 1312.88 L770.6 1312.88 L769.029 1312.88 L767.458 1312.88 L765.887 1312.88 L764.316 1312.88 L762.744 1312.88 L761.173 1312.88 L759.602 1312.88 
  L758.031 1312.88 L756.46 1312.88 L754.889 1312.88 L753.317 1312.88 L751.746 1312.88 L750.175 1312.88 L748.604 1312.88 L747.033 1312.88 L745.462 1312.88 L743.891 1312.88 
  L742.319 1312.88 L740.748 1312.88 L739.177 1312.88 L737.606 1312.88 L736.035 1312.88 L734.464 1312.88 L732.892 1312.88 L731.321 1312.88 L729.75 1312.88 L728.179 1312.88 
  L726.608 1312.88 L725.037 1312.88 L723.465 1312.88 L721.894 1312.88 L720.323 1312.88 L718.752 1312.88 L717.181 1312.88 L715.61 1312.88 L714.039 1312.88 L712.467 1312.88 
  L710.896 1312.88 L709.325 1312.88 L707.754 1312.88 L706.183 1312.88 L704.612 1312.88 L703.04 1312.88 L701.469 1312.88 L699.898 1312.88 L698.327 1312.88 L696.756 1312.88 
  L695.185 1312.88 L693.613 1312.88 L692.042 1312.88 L690.471 1312.88 L688.9 1312.88 L687.329 1312.88 L685.758 1312.88 L684.187 1312.88 L682.615 1312.88 L681.044 1312.88 
  L679.473 1312.88 L677.902 1312.88 L676.331 1312.88 L674.76 1312.88 L673.188 1312.88 L671.617 1312.88 L670.046 1312.88 L668.475 1312.88 L666.904 1312.88 L665.333 1312.88 
  L663.761 1312.88 L662.19 1312.88 L660.619 1312.88 L659.048 1312.88 L657.477 1312.88 L655.906 1312.88 L654.335 1312.88 L652.763 1312.88 L651.192 1312.88 L649.621 1312.88 
  L648.05 1312.88 L646.479 1312.88 L644.908 1312.88 L643.336 1312.88 L641.765 1312.88 L640.194 1312.88 L638.623 1312.88 L637.052 1312.88 L635.481 1312.88 L633.909 1312.88 
  L632.338 1312.88 L630.767 1312.88 L629.196 1312.88 L627.625 1312.88 L626.054 1312.88 L624.483 1312.88 L622.911 1312.88 L621.34 1312.88 L619.769 1312.88 L618.198 1312.88 
  L616.627 1312.88 L615.056 1312.88 L613.484 1312.88 L611.913 1312.88 L610.342 1312.88 L608.771 1312.88 L607.2 1312.88 L605.629 1312.88 L604.057 1312.88 L602.486 1312.88 
  L600.915 1312.88 L599.344 1312.88 L597.773 1312.88 L596.202 1312.88 L594.631 1312.88 L593.059 1312.88 L591.488 1312.88 L589.917 1312.88 L588.346 1312.88 L586.775 1312.88 
  L585.204 1312.88 L583.632 1312.88 L582.061 1312.88 L580.49 1312.88 L578.919 1312.88 L577.348 1312.88 L575.777 1312.88 L574.206 1312.88 L572.634 1312.88 L571.063 1312.88 
  L569.492 1312.88 L567.921 1312.88 L566.35 1312.88 L564.779 1312.88 L563.207 1312.88 L561.636 1312.88 L560.065 1312.88 L558.494 1312.88 L556.923 1312.88 L555.352 1312.88 
  L553.78 1312.88 L552.209 1312.88 L550.638 1312.88 L549.067 1312.88 L547.496 1312.88 L545.925 1312.88 L544.354 1312.88 L542.782 1312.88 L541.211 1312.88 L539.64 1312.88 
  L538.069 1312.88 L536.498 1312.88 L534.927 1312.88 L533.355 1312.88 L531.784 1312.88 L530.213 1312.88 L528.642 1312.88 L527.071 1312.88 L525.5 1312.88 L523.928 1312.88 
  L522.357 1312.88 L520.786 1312.88 L519.215 1312.88 L517.644 1312.88 L516.073 1312.88 L514.502 1312.88 L512.93 1312.88 L511.359 1312.88 L509.788 1312.88 L508.217 1312.88 
  L506.646 1312.88 L505.075 1312.88 L503.503 1312.88 L501.932 1312.88 L500.361 1312.88 L498.79 1312.88 L497.219 1312.88 L495.648 1312.88 L494.076 1312.88 L492.505 1312.88 
  L490.934 1312.88 L489.363 1312.88 L487.792 1312.88 L486.221 1312.88 L484.65 1312.88 L483.078 1312.88 L481.507 1312.88 L479.936 1312.88 L478.365 1312.88 L476.794 1312.88 
  L475.223 1312.88 L473.651 1312.88 L472.08 1312.88 L470.509 1312.88 L468.938 1312.88 L467.367 1312.88 L465.796 1312.88 L464.224 1312.88 L462.653 1312.88 L461.082 1312.88 
  L459.511 1312.88 L457.94 1312.88 L456.369 1312.88 L454.798 1312.88 L453.226 1312.88 L451.655 1312.88 L450.084 1312.88 L448.513 1312.88 L446.942 1312.88 L445.371 1312.88 
  L443.799 1312.88 L442.228 1312.88 L440.657 1312.88 L439.086 1312.88 L437.515 1312.88 L435.944 1312.88 L434.372 1312.88 L432.801 1312.88 L431.23 1312.88 L429.659 1312.88 
  L428.088 1312.88 L426.517 1312.88 L424.946 1312.88 L423.374 1312.88 L421.803 1312.88 L420.232 1312.88 L418.661 1312.88 L417.09 1312.88 L415.519 1312.88 L413.947 1312.88 
  L412.376 1312.88 L410.805 1312.88  Z
  " fill="#6a3c9a" fill-rule="evenodd" fill-opacity="0.3"/>
<polyline clip-path="url(#clip852)" style="stroke:#6a3c9a; stroke-linecap:round; stroke-linejoin:round; stroke-width:8; stroke-opacity:1; fill:none" points="
  410.805,1312.88 412.376,1111.3 413.947,1029.22 415.519,967.205 417.09,915.72 418.661,871.057 420.232,831.301 421.803,795.31 423.374,762.334 424.946,731.851 
  426.517,703.476 428.088,676.92 429.659,651.954 431.23,628.398 432.801,606.102 434.372,584.944 435.944,564.821 437.515,545.644 439.086,527.338 440.657,509.838 
  442.228,493.086 443.799,477.03 445.371,461.628 446.942,446.837 448.513,432.623 450.084,418.952 451.655,405.796 453.226,393.127 454.798,380.921 456.369,369.155 
  457.94,357.809 459.511,346.864 461.082,336.302 462.653,326.106 464.224,316.263 465.796,306.756 467.367,297.573 468.938,288.702 470.509,280.131 472.08,271.848 
  473.651,263.845 475.223,256.11 476.794,248.635 478.365,241.41 479.936,234.429 481.507,227.682 483.078,221.163 484.65,214.864 486.221,208.779 487.792,202.901 
  489.363,197.224 490.934,191.742 492.505,186.45 494.076,181.343 495.648,176.414 497.219,171.66 498.79,167.076 500.361,162.656 501.932,158.397 503.503,154.295 
  505.075,150.345 506.646,146.543 508.217,142.886 509.788,139.371 511.359,135.993 512.93,132.75 514.502,129.638 516.073,126.653 517.644,123.794 519.215,121.057 
  520.786,118.439 522.357,115.937 523.928,113.549 525.5,111.272 527.071,109.104 528.642,107.042 530.213,105.084 531.784,103.227 533.355,101.47 534.927,99.8094 
  536.498,98.2443 538.069,96.7721 539.64,95.391 541.211,94.099 542.782,92.8941 544.354,91.7746 545.925,90.7386 547.496,89.7845 549.067,88.9105 550.638,88.1149 
  552.209,87.3962 553.78,86.7527 555.352,86.183 556.923,85.6856 558.494,85.2589 560.065,84.9015 561.636,84.6121 563.207,84.3893 564.779,84.2317 566.35,84.1381 
  567.921,84.1072 569.492,84.1377 571.063,84.2284 572.634,84.3782 574.206,84.5859 575.777,84.8503 577.348,85.1703 578.919,85.5448 580.49,85.9729 582.061,86.4533 
  583.632,86.9852 585.204,87.5674 586.775,88.1991 588.346,88.8793 589.917,89.6069 591.488,90.3812 593.059,91.2012 594.631,92.066 596.202,92.9747 597.773,93.9266 
  599.344,94.9207 600.915,95.9562 602.486,97.0324 604.057,98.1485 605.629,99.3036 607.2,100.497 608.771,101.728 610.342,102.996 611.913,104.3 613.484,105.64 
  615.056,107.014 616.627,108.422 618.198,109.864 619.769,111.338 621.34,112.845 622.911,114.383 624.483,115.952 626.054,117.551 627.625,119.18 629.196,120.838 
  630.767,122.524 632.338,124.239 633.909,125.98 635.481,127.749 637.052,129.544 638.623,131.365 640.194,133.211 641.765,135.081 643.336,136.976 644.908,138.895 
  646.479,140.837 648.05,142.801 649.621,144.788 651.192,146.797 652.763,148.828 654.335,150.879 655.906,152.951 657.477,155.043 659.048,157.154 660.619,159.285 
  662.19,161.435 663.761,163.603 665.333,165.789 666.904,167.993 668.475,170.214 670.046,172.452 671.617,174.706 673.188,176.977 674.76,179.263 676.331,181.565 
  677.902,183.882 679.473,186.214 681.044,188.56 682.615,190.92 684.187,193.294 685.758,195.682 687.329,198.082 688.9,200.495 690.471,202.921 692.042,205.359 
  693.613,207.809 695.185,210.27 696.756,212.743 698.327,215.227 699.898,217.722 701.469,220.227 703.04,222.742 704.612,225.267 706.183,227.802 707.754,230.346 
  709.325,232.899 710.896,235.461 712.467,238.032 714.039,240.612 715.61,243.199 717.181,245.795 718.752,248.398 720.323,251.008 721.894,253.626 723.465,256.251 
  725.037,258.883 726.608,261.521 728.179,264.165 729.75,266.816 731.321,269.473 732.892,272.135 734.464,274.804 736.035,277.477 737.606,280.156 739.177,282.839 
  740.748,285.527 742.319,288.22 743.891,290.918 745.462,293.619 747.033,296.325 748.604,299.035 750.175,301.748 751.746,304.465 753.317,307.185 754.889,309.908 
  756.46,312.635 758.031,315.364 759.602,318.096 761.173,320.831 762.744,323.568 764.316,326.307 765.887,329.049 767.458,331.792 769.029,334.538 770.6,337.285 
  772.171,340.033 773.743,342.783 775.314,345.535 776.885,348.287 778.456,351.041 780.027,353.795 781.598,356.55 783.169,359.306 784.741,362.062 786.312,364.819 
  787.883,367.576 789.454,370.333 791.025,373.091 792.596,375.848 794.168,378.605 795.739,381.361 797.31,384.118 798.881,386.874 800.452,389.629 802.023,392.383 
  803.595,395.137 805.166,397.89 806.737,400.641 808.308,403.392 809.879,406.141 811.45,408.889 813.021,411.636 814.593,414.381 816.164,417.125 817.735,419.867 
  819.306,422.607 820.877,425.346 822.448,428.082 824.02,430.816 825.591,433.549 827.162,436.279 828.733,439.007 830.304,441.732 831.875,444.455 833.447,447.176 
  835.018,449.894 836.589,452.61 838.16,455.322 839.731,458.032 841.302,460.74 842.873,463.444 844.445,466.145 846.016,468.843 847.587,471.538 849.158,474.23 
  850.729,476.919 852.3,479.604 853.872,482.286 855.443,484.965 857.014,487.64 858.585,490.311 860.156,492.979 861.727,495.643 863.299,498.304 864.87,500.961 
  866.441,503.614 868.012,506.263 869.583,508.908 871.154,511.549 872.725,514.186 874.297,516.819 875.868,519.448 877.439,522.073 879.01,524.694 880.581,527.31 
  882.152,529.922 883.724,532.53 885.295,535.133 886.866,537.732 888.437,540.326 890.008,542.916 891.579,545.501 893.15,548.082 894.722,550.658 896.293,553.23 
  897.864,555.796 899.435,558.358 901.006,560.915 902.577,563.468 904.149,566.015 905.72,568.558 907.291,571.095 908.862,573.628 910.433,576.156 912.004,578.679 
  913.576,581.196 915.147,583.709 916.718,586.216 918.289,588.719 919.86,591.216 921.431,593.708 923.002,596.195 924.574,598.676 926.145,601.153 927.716,603.624 
  929.287,606.089 930.858,608.55 932.429,611.005 934.001,613.454 935.572,615.899 937.143,618.337 938.714,620.771 940.285,623.199 941.856,625.621 943.428,628.038 
  944.999,630.449 946.57,632.855 948.141,635.255 949.712,637.65 951.283,640.039 952.854,642.422 954.426,644.8 955.997,647.172 957.568,649.539 959.139,651.899 
  960.71,654.255 962.281,656.604 963.853,658.948 965.424,661.285 966.995,663.618 968.566,665.944 970.137,668.265 971.708,670.579 973.28,672.888 974.851,675.192 
  976.422,677.489 977.993,679.78 979.564,682.066 981.135,684.346 982.706,686.62 984.278,688.888 985.849,691.15 987.42,693.407 988.991,695.657 990.562,697.902 
  992.133,700.14 993.705,702.373 995.276,704.6 996.847,706.821 998.418,709.035 999.989,711.244 1001.56,713.447 1003.13,715.644 1004.7,717.836 1006.27,720.021 
  1007.85,722.2 1009.42,724.373 1010.99,726.54 1012.56,728.702 1014.13,730.857 1015.7,733.006 1017.27,735.149 1018.84,737.287 1020.41,739.418 1021.99,741.543 
  1023.56,743.663 1025.13,745.776 1026.7,747.883 1028.27,749.984 1029.84,752.08 1031.41,754.169 1032.98,756.252 1034.55,758.33 1036.13,760.401 1037.7,762.466 
  1039.27,764.526 1040.84,766.579 1042.41,768.626 1043.98,770.668 1045.55,772.703 1047.12,774.732 1048.7,776.756 1050.27,778.773 1051.84,780.784 1053.41,782.79 
  1054.98,784.789 1056.55,786.783 1058.12,788.77 1059.69,790.752 1061.26,792.727 1062.84,794.697 1064.41,796.66 1065.98,798.618 1067.55,800.57 1069.12,802.515 
  1070.69,804.455 1072.26,806.389 1073.83,808.317 1075.4,810.239 1076.98,812.155 1078.55,814.065 1080.12,815.97 1081.69,817.868 1083.26,819.76 1084.83,821.647 
  1086.4,823.528 1087.97,825.402 1089.55,827.271 1091.12,829.134 1092.69,830.992 1094.26,832.843 1095.83,834.688 1097.4,836.528 1098.97,838.362 1100.54,840.19 
  1102.11,842.012 1103.69,843.828 1105.26,845.639 1106.83,847.444 1108.4,849.243 1109.97,851.036 1111.54,852.823 1113.11,854.605 1114.68,856.381 1116.25,858.151 
  1117.83,859.915 1119.4,861.674 1120.97,863.427 1122.54,865.174 1124.11,866.915 1125.68,868.651 1127.25,870.381 1128.82,872.106 1130.4,873.825 1131.97,875.538 
  1133.54,877.245 1135.11,878.947 1136.68,880.643 1138.25,882.334 1139.82,884.019 1141.39,885.698 1142.96,887.372 1144.54,889.04 1146.11,890.703 1147.68,892.36 
  1149.25,894.011 1150.82,895.657 1152.39,897.298 1153.96,898.933 1155.53,900.562 1157.1,902.186 1158.68,903.804 1160.25,905.417 1161.82,907.025 1163.39,908.627 
  1164.96,910.223 1166.53,911.814 1168.1,913.4 1169.67,914.98 1171.25,916.555 1172.82,918.125 1174.39,919.689 1175.96,921.248 1177.53,922.801 1179.1,924.349 
  1180.67,925.892 1182.24,927.429 1183.81,928.961 1185.39,930.488 1186.96,932.009 1188.53,933.526 1190.1,935.037 1191.67,936.542 1193.24,938.043 1194.81,939.538 
  1196.38,941.028 1197.96,942.513 1199.53,943.992 1201.1,945.467 1202.67,946.936 1204.24,948.4 1205.81,949.859 1207.38,951.313 1208.95,952.761 1210.52,954.205 
  1212.1,955.644 1213.67,957.077 1215.24,958.505 1216.81,959.929 1218.38,961.347 1219.95,962.76 1221.52,964.168 1223.09,965.571 1224.66,966.969 1226.24,968.363 
  1227.81,969.751 1229.38,971.134 1230.95,972.512 1232.52,973.886 1234.09,975.254 1235.66,976.617 1237.23,977.976 1238.81,979.33 1240.38,980.679 1241.95,982.023 
  1243.52,983.362 1245.09,984.696 1246.66,986.025 1248.23,987.35 1249.8,988.67 1251.37,989.985 1252.95,991.295 1254.52,992.601 1256.09,993.902 1257.66,995.198 
  1259.23,996.489 1260.8,997.776 1262.37,999.058 1263.94,1000.33 1265.51,1001.61 1267.09,1002.88 1268.66,1004.14 1270.23,1005.4 1271.8,1006.65 1273.37,1007.9 
  1274.94,1009.15 1276.51,1010.39 1278.08,1011.62 1279.66,1012.85 1281.23,1014.08 1282.8,1015.3 1284.37,1016.52 1285.94,1017.73 1287.51,1018.94 1289.08,1020.14 
  1290.65,1021.34 1292.22,1022.54 1293.8,1023.73 1295.37,1024.92 1296.94,1026.1 1298.51,1027.28 1300.08,1028.45 1301.65,1029.62 1303.22,1030.78 1304.79,1031.94 
  1306.36,1033.1 1307.94,1034.25 1309.51,1035.4 1311.08,1036.54 1312.65,1037.68 1314.22,1038.81 1315.79,1039.94 1317.36,1041.07 1318.93,1042.19 1320.51,1043.3 
  1322.08,1044.42 1323.65,1045.53 1325.22,1046.63 1326.79,1047.73 1328.36,1048.83 1329.93,1049.92 1331.5,1051.01 1333.07,1052.09 1334.65,1053.17 1336.22,1054.25 
  1337.79,1055.32 1339.36,1056.39 1340.93,1057.45 1342.5,1058.51 1344.07,1059.56 1345.64,1060.62 1347.22,1061.66 1348.79,1062.71 1350.36,1063.75 1351.93,1064.78 
  1353.5,1065.81 1355.07,1066.84 1356.64,1067.86 1358.21,1068.88 1359.78,1069.9 1361.36,1070.91 1362.93,1071.92 1364.5,1072.92 1366.07,1073.92 1367.64,1074.92 
  1369.21,1075.91 1370.78,1076.9 1372.35,1077.89 1373.92,1078.87 1375.5,1079.84 1377.07,1080.82 1378.64,1081.79 1380.21,1082.75 1381.78,1083.72 1383.35,1084.67 
  1384.92,1085.63 1386.49,1086.58 1388.07,1087.53 1389.64,1088.47 1391.21,1089.41 1392.78,1090.35 1394.35,1091.28 1395.92,1092.21 1397.49,1093.13 1399.06,1094.06 
  1400.63,1094.98 1402.21,1095.89 1403.78,1096.8 1405.35,1097.71 1406.92,1098.61 1408.49,1099.51 1410.06,1100.41 1411.63,1101.3 1413.2,1102.19 1414.77,1103.08 
  1416.35,1103.96 1417.92,1104.84 1419.49,1105.72 1421.06,1106.59 1422.63,1107.46 1424.2,1108.33 1425.77,1109.19 1427.34,1110.05 1428.92,1110.9 1430.49,1111.76 
  1432.06,1112.61 1433.63,1113.45 1435.2,1114.29 1436.77,1115.13 1438.34,1115.97 1439.91,1116.8 1441.48,1117.63 1443.06,1118.46 1444.63,1119.28 1446.2,1120.1 
  1447.77,1120.91 1449.34,1121.73 1450.91,1122.54 1452.48,1123.34 1454.05,1124.15 1455.62,1124.95 1457.2,1125.74 1458.77,1126.54 1460.34,1127.33 1461.91,1128.11 
  1463.48,1128.9 1465.05,1129.68 1466.62,1130.46 1468.19,1131.23 1469.77,1132 1471.34,1132.77 1472.91,1133.54 1474.48,1134.3 1476.05,1135.06 1477.62,1135.82 
  1479.19,1136.57 1480.76,1137.32 1482.33,1138.07 1483.91,1138.81 1485.48,1139.55 1487.05,1140.29 1488.62,1141.03 1490.19,1141.76 1491.76,1142.49 1493.33,1143.22 
  1494.9,1143.94 1496.48,1144.66 1498.05,1145.38 1499.62,1146.09 1501.19,1146.81 1502.76,1147.51 1504.33,1148.22 1505.9,1148.92 1507.47,1149.63 1509.04,1150.32 
  1510.62,1151.02 1512.19,1151.71 1513.76,1152.4 1515.33,1153.09 1516.9,1153.77 1518.47,1154.45 1520.04,1155.13 1521.61,1155.81 1523.18,1156.48 1524.76,1157.15 
  1526.33,1157.82 1527.9,1158.48 1529.47,1159.14 1531.04,1159.8 1532.61,1160.46 1534.18,1161.11 1535.75,1161.76 1537.33,1162.41 1538.9,1163.06 1540.47,1163.7 
  1542.04,1164.34 1543.61,1164.98 1545.18,1165.62 1546.75,1166.25 1548.32,1166.88 1549.89,1167.51 1551.47,1168.13 1553.04,1168.76 1554.61,1169.38 1556.18,1169.99 
  1557.75,1170.61 1559.32,1171.22 1560.89,1171.83 1562.46,1172.44 1564.03,1173.05 1565.61,1173.65 1567.18,1174.25 1568.75,1174.85 1570.32,1175.44 1571.89,1176.03 
  1573.46,1176.62 1575.03,1177.21 1576.6,1177.8 1578.18,1178.38 1579.75,1178.96 1581.32,1179.54 1582.89,1180.12 1584.46,1180.69 1586.03,1181.26 1587.6,1181.83 
  1589.17,1182.4 1590.74,1182.96 1592.32,1183.52 1593.89,1184.08 1595.46,1184.64 1597.03,1185.19 1598.6,1185.75 1600.17,1186.3 1601.74,1186.85 1603.31,1187.39 
  1604.88,1187.94 1606.46,1188.48 1608.03,1189.02 1609.6,1189.55 1611.17,1190.09 1612.74,1190.62 1614.31,1191.15 1615.88,1191.68 1617.45,1192.2 1619.03,1192.73 
  1620.6,1193.25 1622.17,1193.77 1623.74,1194.29 1625.31,1194.8 1626.88,1195.31 1628.45,1195.83 1630.02,1196.33 1631.59,1196.84 1633.17,1197.34 1634.74,1197.85 
  1636.31,1198.35 1637.88,1198.85 1639.45,1199.34 1641.02,1199.84 1642.59,1200.33 1644.16,1200.82 1645.73,1201.31 1647.31,1201.79 1648.88,1202.28 1650.45,1202.76 
  1652.02,1203.24 1653.59,1203.71 1655.16,1204.19 1656.73,1204.66 1658.3,1205.14 1659.88,1205.61 1661.45,1206.07 1663.02,1206.54 1664.59,1207 1666.16,1207.47 
  1667.73,1207.93 1669.3,1208.38 1670.87,1208.84 1672.44,1209.3 1674.02,1209.75 1675.59,1210.2 1677.16,1210.65 1678.73,1211.09 1680.3,1211.54 1681.87,1211.98 
  1683.44,1212.42 1685.01,1212.86 1686.59,1213.3 1688.16,1213.74 1689.73,1214.17 1691.3,1214.6 1692.87,1215.03 1694.44,1215.46 1696.01,1215.89 1697.58,1216.31 
  1699.15,1216.73 1700.73,1217.16 1702.3,1217.57 1703.87,1217.99 1705.44,1218.41 1707.01,1218.82 1708.58,1219.23 1710.15,1219.65 1711.72,1220.05 1713.29,1220.46 
  1714.87,1220.87 1716.44,1221.27 1718.01,1221.67 1719.58,1222.07 1721.15,1222.47 1722.72,1222.87 1724.29,1223.26 1725.86,1223.66 1727.44,1224.05 1729.01,1224.44 
  1730.58,1224.83 1732.15,1225.22 1733.72,1225.6 1735.29,1225.98 1736.86,1226.37 1738.43,1226.75 1740,1227.13 1741.58,1227.5 1743.15,1227.88 1744.72,1228.25 
  1746.29,1228.63 1747.86,1229 1749.43,1229.37 1751,1229.73 1752.57,1230.1 1754.14,1230.46 1755.72,1230.83 1757.29,1231.19 1758.86,1231.55 1760.43,1231.91 
  1762,1232.26 1763.57,1232.62 1765.14,1232.97 1766.71,1233.33 1768.29,1233.68 1769.86,1234.03 1771.43,1234.37 1773,1234.72 1774.57,1235.07 1776.14,1235.41 
  1777.71,1235.75 1779.28,1236.09 1780.85,1236.43 1782.43,1236.77 1784,1237.11 1785.57,1237.44 1787.14,1237.77 1788.71,1238.11 1790.28,1238.44 1791.85,1238.76 
  1793.42,1239.09 1794.99,1239.42 1796.57,1239.74 1798.14,1240.07 1799.71,1240.39 1801.28,1240.71 1802.85,1241.03 1804.42,1241.35 1805.99,1241.66 1807.56,1241.98 
  1809.14,1242.29 1810.71,1242.61 1812.28,1242.92 1813.85,1243.23 1815.42,1243.54 1816.99,1243.84 1818.56,1244.15 1820.13,1244.45 1821.7,1244.76 1823.28,1245.06 
  1824.85,1245.36 1826.42,1245.66 1827.99,1245.96 1829.56,1246.25 1831.13,1246.55 1832.7,1246.84 1834.27,1247.14 1835.85,1247.43 1837.42,1247.72 1838.99,1248.01 
  1840.56,1248.3 1842.13,1248.58 1843.7,1248.87 1845.27,1249.15 1846.84,1249.44 1848.41,1249.72 1849.99,1250 1851.56,1250.28 1853.13,1250.56 1854.7,1250.83 
  1856.27,1251.11 1857.84,1251.38 1859.41,1251.66 1860.98,1251.93 1862.55,1252.2 1864.13,1252.47 1865.7,1252.74 1867.27,1253.01 1868.84,1253.27 1870.41,1253.54 
  1871.98,1253.8 1873.55,1254.07 1875.12,1254.33 1876.7,1254.59 1878.27,1254.85 1879.84,1255.11 1881.41,1255.36 1882.98,1255.62 1884.55,1255.88 1886.12,1256.13 
  1887.69,1256.38 1889.26,1256.64 1890.84,1256.89 1892.41,1257.14 1893.98,1257.38 1895.55,1257.63 1897.12,1257.88 1898.69,1258.12 1900.26,1258.37 1901.83,1258.61 
  1903.4,1258.85 1904.98,1259.09 1906.55,1259.33 1908.12,1259.57 1909.69,1259.81 1911.26,1260.05 1912.83,1260.28 1914.4,1260.52 1915.97,1260.75 1917.55,1260.99 
  1919.12,1261.22 1920.69,1261.45 1922.26,1261.68 1923.83,1261.91 1925.4,1262.14 1926.97,1262.36 1928.54,1262.59 1930.11,1262.81 1931.69,1263.04 1933.26,1263.26 
  1934.83,1263.48 1936.4,1263.7 1937.97,1263.92 1939.54,1264.14 1941.11,1264.36 1942.68,1264.58 1944.25,1264.79 1945.83,1265.01 1947.4,1265.22 1948.97,1265.44 
  1950.54,1265.65 1952.11,1265.86 1953.68,1266.07 1955.25,1266.28 1956.82,1266.49 1958.4,1266.7 1959.97,1266.91 1961.54,1267.11 1963.11,1267.32 1964.68,1267.52 
  1966.25,1267.72 1967.82,1267.93 1969.39,1268.13 1970.96,1268.33 1972.54,1268.53 1974.11,1268.73 1975.68,1268.93 1977.25,1269.12 1978.82,1269.32 1980.39,1269.52 
  1981.96,1269.71 1983.53,1269.9 1985.11,1270.1 1986.68,1270.29 1988.25,1270.48 1989.82,1270.67 1991.39,1270.86 1992.96,1271.05 1994.53,1271.24 1996.1,1271.42 
  1997.67,1271.61 1999.25,1271.8 2000.82,1271.98 2002.39,1272.16 2003.96,1272.35 2005.53,1272.53 2007.1,1272.71 2008.67,1272.89 2010.24,1273.07 2011.81,1273.25 
  2013.39,1273.43 2014.96,1273.61 2016.53,1273.78 2018.1,1273.96 2019.67,1274.13 2021.24,1274.31 2022.81,1274.48 2024.38,1274.66 2025.96,1274.83 2027.53,1275 
  2029.1,1275.17 2030.67,1275.34 2032.24,1275.51 2033.81,1275.68 2035.38,1275.84 2036.95,1276.01 2038.52,1276.18 2040.1,1276.34 2041.67,1276.51 2043.24,1276.67 
  2044.81,1276.84 2046.38,1277 2047.95,1277.16 2049.52,1277.32 2051.09,1277.48 2052.66,1277.64 2054.24,1277.8 2055.81,1277.96 2057.38,1278.12 2058.95,1278.27 
  2060.52,1278.43 2062.09,1278.58 2063.66,1278.74 2065.23,1278.89 2066.81,1279.05 2068.38,1279.2 2069.95,1279.35 2071.52,1279.5 2073.09,1279.65 2074.66,1279.8 
  2076.23,1279.95 2077.8,1280.1 2079.37,1280.25 2080.95,1280.4 2082.52,1280.54 2084.09,1280.69 2085.66,1280.84 2087.23,1280.98 2088.8,1281.12 2090.37,1281.27 
  2091.94,1281.41 2093.51,1281.55 2095.09,1281.7 2096.66,1281.84 2098.23,1281.98 2099.8,1282.12 2101.37,1282.26 2102.94,1282.39 2104.51,1282.53 2106.08,1282.67 
  2107.66,1282.81 2109.23,1282.94 2110.8,1283.08 2112.37,1283.21 2113.94,1283.35 2115.51,1283.48 2117.08,1283.61 2118.65,1283.75 2120.22,1283.88 2121.8,1284.01 
  2123.37,1284.14 2124.94,1284.27 2126.51,1284.4 2128.08,1284.53 2129.65,1284.66 2131.22,1284.79 2132.79,1284.91 2134.36,1285.04 2135.94,1285.17 2137.51,1285.29 
  2139.08,1285.42 2140.65,1285.54 2142.22,1285.67 2143.79,1285.79 2145.36,1285.91 2146.93,1286.03 2148.51,1286.16 2150.08,1286.28 2151.65,1286.4 2153.22,1286.52 
  2154.79,1286.64 2156.36,1286.76 2157.93,1286.88 2159.5,1286.99 2161.07,1287.11 2162.65,1287.23 2164.22,1287.34 2165.79,1287.46 2167.36,1287.58 2168.93,1287.69 
  2170.5,1287.81 2172.07,1287.92 2173.64,1288.03 2175.22,1288.15 2176.79,1288.26 2178.36,1288.37 2179.93,1288.48 2181.5,1288.59 2183.07,1288.7 2184.64,1288.81 
  2186.21,1288.92 2187.78,1289.03 2189.36,1289.14 2190.93,1289.25 2192.5,1289.35 2194.07,1289.46 2195.64,1289.57 2197.21,1289.67 2198.78,1289.78 2200.35,1289.88 
  2201.92,1289.99 2203.5,1290.09 2205.07,1290.2 2206.64,1290.3 2208.21,1290.4 2209.78,1290.51 2211.35,1290.61 2212.92,1290.71 2214.49,1290.81 2216.07,1290.91 
  2217.64,1291.01 2219.21,1291.11 2220.78,1291.21 2222.35,1291.31 2223.92,1291.41 2225.49,1291.5 2227.06,1291.6 2228.63,1291.7 2230.21,1291.79 2231.78,1291.89 
  2233.35,1291.99 2234.92,1292.08 2236.49,1292.18 2238.06,1292.27 2239.63,1292.37 2241.2,1292.46 2242.77,1292.55 2244.35,1292.64 2245.92,1292.74 2247.49,1292.83 
  2249.06,1292.92 2250.63,1293.01 2252.2,1293.1 2253.77,1293.19 2255.34,1293.28 2256.92,1293.37 2258.49,1293.46 2260.06,1293.55 2261.63,1293.64 2263.2,1293.72 
  2264.77,1293.81 2266.34,1293.9 2267.91,1293.99 2269.48,1294.07 2271.06,1294.16 2272.63,1294.24 2274.2,1294.33 2275.77,1294.41 2277.34,1294.5 2278.91,1294.58 
  2280.48,1294.67 2282.05,1294.75 2283.62,1294.83 2285.2,1294.91 2286.77,1295 2288.34,1295.08 2289.91,1295.16 2291.48,1295.24 2293.05,1295.32 2294.62,1295.4 
  2296.19,1295.48 
  "/>
</svg>
