<?xml version="1.0" encoding="utf-8"?>
<svg xmlns="http://www.w3.org/2000/svg" xmlns:xlink="http://www.w3.org/1999/xlink" width="600" height="400" viewBox="0 0 2400 1600">
<defs>
  <clipPath id="clip350">
    <rect x="0" y="0" width="2400" height="1600"/>
  </clipPath>
</defs>
<path clip-path="url(#clip350)" d="M0 1600 L2400 1600 L2400 0 L0 0  Z" fill="#ffffff" fill-rule="evenodd" fill-opacity="1"/>
<defs>
  <clipPath id="clip351">
    <rect x="480" y="0" width="1681" height="1600"/>
  </clipPath>
</defs>
<defs>
  <clipPath id="clip352">
    <rect x="336" y="47" width="2017" height="1355"/>
  </clipPath>
</defs>
<path clip-path="url(#clip350)" d="M336.963 1401.58 L2352.76 1401.58 L2352.76 47.2441 L336.963 47.2441  Z" fill="#ffffff" fill-rule="evenodd" fill-opacity="1"/>
<polyline clip-path="url(#clip350)" style="stroke:#000000; stroke-linecap:round; stroke-linejoin:round; stroke-width:4; stroke-opacity:1; fill:none" points="336.963,1401.58 2352.76,1401.58 "/>
<polyline clip-path="url(#clip350)" style="stroke:#000000; stroke-linecap:round; stroke-linejoin:round; stroke-width:4; stroke-opacity:1; fill:none" points="394.014,1401.58 394.014,1382.68 "/>
<polyline clip-path="url(#clip350)" style="stroke:#000000; stroke-linecap:round; stroke-linejoin:round; stroke-width:4; stroke-opacity:1; fill:none" points="790.2,1401.58 790.2,1382.68 "/>
<polyline clip-path="url(#clip350)" style="stroke:#000000; stroke-linecap:round; stroke-linejoin:round; stroke-width:4; stroke-opacity:1; fill:none" points="1186.39,1401.58 1186.39,1382.68 "/>
<polyline clip-path="url(#clip350)" style="stroke:#000000; stroke-linecap:round; stroke-linejoin:round; stroke-width:4; stroke-opacity:1; fill:none" points="1582.57,1401.58 1582.57,1382.68 "/>
<polyline clip-path="url(#clip350)" style="stroke:#000000; stroke-linecap:round; stroke-linejoin:round; stroke-width:4; stroke-opacity:1; fill:none" points="1978.76,1401.58 1978.76,1382.68 "/>
<path clip-path="url(#clip350)" d="M365.745 1435.43 Q361.231 1435.43 358.945 1439.88 Q356.688 1444.31 356.688 1453.22 Q356.688 1462.11 358.945 1466.56 Q361.231 1470.99 365.745 1470.99 Q370.287 1470.99 372.544 1466.56 Q374.83 1462.11 374.83 1453.22 Q374.83 1444.31 372.544 1439.88 Q370.287 1435.43 365.745 1435.43 M365.745 1430.8 Q373.007 1430.8 376.827 1436.56 Q380.675 1442.29 380.675 1453.22 Q380.675 1464.13 376.827 1469.89 Q373.007 1475.62 365.745 1475.62 Q358.482 1475.62 354.634 1469.89 Q350.814 1464.13 350.814 1453.22 Q350.814 1442.29 354.634 1436.56 Q358.482 1430.8 365.745 1430.8 Z" fill="#000000" fill-rule="evenodd" fill-opacity="1" /><path clip-path="url(#clip350)" d="M390.947 1467.43 L397.052 1467.43 L397.052 1474.78 L390.947 1474.78 L390.947 1467.43 Z" fill="#000000" fill-rule="evenodd" fill-opacity="1" /><path clip-path="url(#clip350)" d="M422.284 1435.43 Q417.77 1435.43 415.484 1439.88 Q413.227 1444.31 413.227 1453.22 Q413.227 1462.11 415.484 1466.56 Q417.77 1470.99 422.284 1470.99 Q426.826 1470.99 429.083 1466.56 Q431.369 1462.11 431.369 1453.22 Q431.369 1444.31 429.083 1439.88 Q426.826 1435.43 422.284 1435.43 M422.284 1430.8 Q429.546 1430.8 433.366 1436.56 Q437.214 1442.29 437.214 1453.22 Q437.214 1464.13 433.366 1469.89 Q429.546 1475.62 422.284 1475.62 Q415.021 1475.62 411.173 1469.89 Q407.353 1464.13 407.353 1453.22 Q407.353 1442.29 411.173 1436.56 Q415.021 1430.8 422.284 1430.8 Z" fill="#000000" fill-rule="evenodd" fill-opacity="1" /><path clip-path="url(#clip350)" d="M754.87 1469.86 L775.269 1469.86 L775.269 1474.78 L747.839 1474.78 L747.839 1469.86 Q751.166 1466.42 756.896 1460.63 Q762.654 1454.81 764.129 1453.14 Q766.936 1449.98 768.036 1447.81 Q769.164 1445.61 769.164 1443.5 Q769.164 1440.06 766.733 1437.89 Q764.332 1435.72 760.455 1435.72 Q757.706 1435.72 754.639 1436.67 Q751.6 1437.63 748.128 1439.57 L748.128 1433.66 Q751.658 1432.25 754.725 1431.52 Q757.793 1430.8 760.339 1430.8 Q767.052 1430.8 771.045 1434.16 Q775.038 1437.51 775.038 1443.12 Q775.038 1445.79 774.025 1448.19 Q773.041 1450.56 770.408 1453.8 Q769.685 1454.64 765.808 1458.66 Q761.93 1462.66 754.87 1469.86 Z" fill="#000000" fill-rule="evenodd" fill-opacity="1" /><path clip-path="url(#clip350)" d="M787.538 1467.43 L793.643 1467.43 L793.643 1474.78 L787.538 1474.78 L787.538 1467.43 Z" fill="#000000" fill-rule="evenodd" fill-opacity="1" /><path clip-path="url(#clip350)" d="M806.432 1431.58 L829.378 1431.58 L829.378 1436.5 L811.785 1436.5 L811.785 1447.09 Q813.058 1446.65 814.332 1446.45 Q815.605 1446.22 816.878 1446.22 Q824.112 1446.22 828.336 1450.19 Q832.561 1454.15 832.561 1460.92 Q832.561 1467.89 828.22 1471.77 Q823.88 1475.62 815.981 1475.62 Q813.261 1475.62 810.425 1475.16 Q807.619 1474.69 804.609 1473.77 L804.609 1467.89 Q807.214 1469.31 809.991 1470.01 Q812.769 1470.7 815.865 1470.7 Q820.871 1470.7 823.793 1468.07 Q826.716 1465.43 826.716 1460.92 Q826.716 1456.41 823.793 1453.77 Q820.871 1451.14 815.865 1451.14 Q813.521 1451.14 811.178 1451.66 Q808.863 1452.18 806.432 1453.28 L806.432 1431.58 Z" fill="#000000" fill-rule="evenodd" fill-opacity="1" /><path clip-path="url(#clip350)" d="M1145.34 1431.58 L1168.29 1431.58 L1168.29 1436.5 L1150.69 1436.5 L1150.69 1447.09 Q1151.97 1446.65 1153.24 1446.45 Q1154.51 1446.22 1155.79 1446.22 Q1163.02 1446.22 1167.24 1450.19 Q1171.47 1454.15 1171.47 1460.92 Q1171.47 1467.89 1167.13 1471.77 Q1162.79 1475.62 1154.89 1475.62 Q1152.17 1475.62 1149.33 1475.16 Q1146.53 1474.69 1143.52 1473.77 L1143.52 1467.89 Q1146.12 1469.31 1148.9 1470.01 Q1151.68 1470.7 1154.77 1470.7 Q1159.78 1470.7 1162.7 1468.07 Q1165.62 1465.43 1165.62 1460.92 Q1165.62 1456.41 1162.7 1453.77 Q1159.78 1451.14 1154.77 1451.14 Q1152.43 1451.14 1150.09 1451.66 Q1147.77 1452.18 1145.34 1453.28 L1145.34 1431.58 Z" fill="#000000" fill-rule="evenodd" fill-opacity="1" /><path clip-path="url(#clip350)" d="M1182.99 1467.43 L1189.09 1467.43 L1189.09 1474.78 L1182.99 1474.78 L1182.99 1467.43 Z" fill="#000000" fill-rule="evenodd" fill-opacity="1" /><path clip-path="url(#clip350)" d="M1214.32 1435.43 Q1209.81 1435.43 1207.52 1439.88 Q1205.27 1444.31 1205.27 1453.22 Q1205.27 1462.11 1207.52 1466.56 Q1209.81 1470.99 1214.32 1470.99 Q1218.86 1470.99 1221.12 1466.56 Q1223.41 1462.11 1223.41 1453.22 Q1223.41 1444.31 1221.12 1439.88 Q1218.86 1435.43 1214.32 1435.43 M1214.32 1430.8 Q1221.58 1430.8 1225.4 1436.56 Q1229.25 1442.29 1229.25 1453.22 Q1229.25 1464.13 1225.4 1469.89 Q1221.58 1475.62 1214.32 1475.62 Q1207.06 1475.62 1203.21 1469.89 Q1199.39 1464.13 1199.39 1453.22 Q1199.39 1442.29 1203.21 1436.56 Q1207.06 1430.8 1214.32 1430.8 Z" fill="#000000" fill-rule="evenodd" fill-opacity="1" /><path clip-path="url(#clip350)" d="M1540.47 1431.58 L1568.25 1431.58 L1568.25 1434.07 L1552.57 1474.78 L1546.46 1474.78 L1561.22 1436.5 L1540.47 1436.5 L1540.47 1431.58 Z" fill="#000000" fill-rule="evenodd" fill-opacity="1" /><path clip-path="url(#clip350)" d="M1579.65 1467.43 L1585.75 1467.43 L1585.75 1474.78 L1579.65 1474.78 L1579.65 1467.43 Z" fill="#000000" fill-rule="evenodd" fill-opacity="1" /><path clip-path="url(#clip350)" d="M1598.54 1431.58 L1621.49 1431.58 L1621.49 1436.5 L1603.9 1436.5 L1603.9 1447.09 Q1605.17 1446.65 1606.44 1446.45 Q1607.72 1446.22 1608.99 1446.22 Q1616.22 1446.22 1620.45 1450.19 Q1624.67 1454.15 1624.67 1460.92 Q1624.67 1467.89 1620.33 1471.77 Q1615.99 1475.62 1608.09 1475.62 Q1605.37 1475.62 1602.54 1475.16 Q1599.73 1474.69 1596.72 1473.77 L1596.72 1467.89 Q1599.32 1469.31 1602.1 1470.01 Q1604.88 1470.7 1607.98 1470.7 Q1612.98 1470.7 1615.9 1468.07 Q1618.83 1465.43 1618.83 1460.92 Q1618.83 1456.41 1615.9 1453.77 Q1612.98 1451.14 1607.98 1451.14 Q1605.63 1451.14 1603.29 1451.66 Q1600.97 1452.18 1598.54 1453.28 L1598.54 1431.58 Z" fill="#000000" fill-rule="evenodd" fill-opacity="1" /><path clip-path="url(#clip350)" d="M1918.85 1469.86 L1928.4 1469.86 L1928.4 1436.9 L1918.01 1438.99 L1918.01 1433.66 L1928.34 1431.58 L1934.18 1431.58 L1934.18 1469.86 L1943.73 1469.86 L1943.73 1474.78 L1918.85 1474.78 L1918.85 1469.86 Z" fill="#000000" fill-rule="evenodd" fill-opacity="1" /><path clip-path="url(#clip350)" d="M1968.04 1435.43 Q1963.52 1435.43 1961.24 1439.88 Q1958.98 1444.31 1958.98 1453.22 Q1958.98 1462.11 1961.24 1466.56 Q1963.52 1470.99 1968.04 1470.99 Q1972.58 1470.99 1974.84 1466.56 Q1977.12 1462.11 1977.12 1453.22 Q1977.12 1444.31 1974.84 1439.88 Q1972.58 1435.43 1968.04 1435.43 M1968.04 1430.8 Q1975.3 1430.8 1979.12 1436.56 Q1982.97 1442.29 1982.97 1453.22 Q1982.97 1464.13 1979.12 1469.89 Q1975.3 1475.62 1968.04 1475.62 Q1960.77 1475.62 1956.93 1469.89 Q1953.11 1464.13 1953.11 1453.22 Q1953.11 1442.29 1956.93 1436.56 Q1960.77 1430.8 1968.04 1430.8 Z" fill="#000000" fill-rule="evenodd" fill-opacity="1" /><path clip-path="url(#clip350)" d="M1993.24 1467.43 L1999.34 1467.43 L1999.34 1474.78 L1993.24 1474.78 L1993.24 1467.43 Z" fill="#000000" fill-rule="evenodd" fill-opacity="1" /><path clip-path="url(#clip350)" d="M2024.58 1435.43 Q2020.06 1435.43 2017.78 1439.88 Q2015.52 1444.31 2015.52 1453.22 Q2015.52 1462.11 2017.78 1466.56 Q2020.06 1470.99 2024.58 1470.99 Q2029.12 1470.99 2031.38 1466.56 Q2033.66 1462.11 2033.66 1453.22 Q2033.66 1444.31 2031.38 1439.88 Q2029.12 1435.43 2024.58 1435.43 M2024.58 1430.8 Q2031.84 1430.8 2035.66 1436.56 Q2039.51 1442.29 2039.51 1453.22 Q2039.51 1464.13 2035.66 1469.89 Q2031.84 1475.62 2024.58 1475.62 Q2017.31 1475.62 2013.46 1469.89 Q2009.64 1464.13 2009.64 1453.22 Q2009.64 1442.29 2013.46 1436.56 Q2017.31 1430.8 2024.58 1430.8 Z" fill="#000000" fill-rule="evenodd" fill-opacity="1" /><path clip-path="url(#clip350)" d="M1362.9 1525 Q1362.9 1527.3 1361.47 1528.61 Q1360.03 1529.88 1358.39 1529.88 Q1356.83 1529.88 1356.01 1528.98 Q1355.19 1528.08 1355.19 1526.93 Q1355.19 1525.37 1356.34 1524.02 Q1357.49 1522.67 1359.21 1522.38 Q1357.53 1521.32 1355.03 1521.32 Q1353.39 1521.32 1351.96 1522.18 Q1350.56 1523.04 1349.7 1524.14 Q1348.88 1525.25 1348.14 1526.85 Q1347.45 1528.41 1347.16 1529.35 Q1346.91 1530.25 1346.71 1531.23 L1343.84 1542.71 Q1342.45 1548.16 1342.45 1550.09 Q1342.45 1552.47 1343.59 1554.07 Q1344.74 1555.62 1347.04 1555.62 Q1347.94 1555.62 1348.96 1555.38 Q1349.99 1555.09 1351.3 1554.35 Q1352.65 1553.57 1353.84 1552.43 Q1355.07 1551.24 1356.26 1549.23 Q1357.45 1547.22 1358.23 1544.64 Q1358.47 1543.74 1359.29 1543.74 Q1360.32 1543.74 1360.32 1544.56 Q1360.32 1545.25 1359.74 1546.73 Q1359.21 1548.16 1358.02 1550.05 Q1356.87 1551.89 1355.36 1553.57 Q1353.84 1555.21 1351.59 1556.36 Q1349.33 1557.51 1346.87 1557.51 Q1343.35 1557.51 1341.01 1555.62 Q1338.68 1553.74 1337.81 1551.11 Q1337.61 1551.48 1337.32 1551.98 Q1337.04 1552.47 1336.17 1553.57 Q1335.35 1554.64 1334.41 1555.46 Q1333.47 1556.24 1331.99 1556.85 Q1330.56 1557.51 1329 1557.51 Q1327.03 1557.51 1325.27 1556.94 Q1323.55 1556.36 1322.32 1555.05 Q1321.09 1553.74 1321.09 1551.93 Q1321.09 1549.93 1322.44 1548.53 Q1323.84 1547.1 1325.72 1547.1 Q1326.91 1547.1 1327.85 1547.79 Q1328.84 1548.49 1328.84 1550.01 Q1328.84 1551.69 1327.69 1552.96 Q1326.54 1554.23 1324.9 1554.56 Q1326.58 1555.62 1329.08 1555.62 Q1331.79 1555.62 1333.92 1553.25 Q1336.05 1550.87 1337.08 1546.89 Q1339.62 1537.34 1340.6 1533.08 Q1341.59 1528.78 1341.59 1526.93 Q1341.59 1525.21 1341.13 1524.02 Q1340.68 1522.83 1339.9 1522.3 Q1339.17 1521.73 1338.47 1521.52 Q1337.81 1521.32 1337.08 1521.32 Q1335.85 1521.32 1334.45 1521.81 Q1333.1 1522.3 1331.46 1523.45 Q1329.86 1524.55 1328.35 1526.85 Q1326.83 1529.14 1325.8 1532.3 Q1325.6 1533.24 1324.7 1533.24 Q1323.71 1533.2 1323.71 1532.38 Q1323.71 1531.69 1324.25 1530.25 Q1324.82 1528.78 1325.97 1526.93 Q1327.16 1525.09 1328.67 1523.45 Q1330.23 1521.77 1332.49 1520.62 Q1334.78 1519.47 1337.24 1519.47 Q1338.35 1519.47 1339.41 1519.72 Q1340.52 1519.92 1341.83 1520.54 Q1343.18 1521.15 1344.37 1522.5 Q1345.56 1523.86 1346.3 1525.82 Q1346.79 1524.88 1347.45 1523.98 Q1348.14 1523.08 1349.21 1521.97 Q1350.32 1520.82 1351.83 1520.17 Q1353.39 1519.47 1355.11 1519.47 Q1356.79 1519.47 1358.43 1519.92 Q1360.07 1520.33 1361.47 1521.68 Q1362.9 1523 1362.9 1525 Z" fill="#000000" fill-rule="evenodd" fill-opacity="1" /><polyline clip-path="url(#clip350)" style="stroke:#000000; stroke-linecap:round; stroke-linejoin:round; stroke-width:4; stroke-opacity:1; fill:none" points="336.963,1401.58 336.963,47.2441 "/>
<polyline clip-path="url(#clip350)" style="stroke:#000000; stroke-linecap:round; stroke-linejoin:round; stroke-width:4; stroke-opacity:1; fill:none" points="336.963,1363.25 355.861,1363.25 "/>
<polyline clip-path="url(#clip350)" style="stroke:#000000; stroke-linecap:round; stroke-linejoin:round; stroke-width:4; stroke-opacity:1; fill:none" points="336.963,1099.24 355.861,1099.24 "/>
<polyline clip-path="url(#clip350)" style="stroke:#000000; stroke-linecap:round; stroke-linejoin:round; stroke-width:4; stroke-opacity:1; fill:none" points="336.963,835.221 355.861,835.221 "/>
<polyline clip-path="url(#clip350)" style="stroke:#000000; stroke-linecap:round; stroke-linejoin:round; stroke-width:4; stroke-opacity:1; fill:none" points="336.963,571.206 355.861,571.206 "/>
<polyline clip-path="url(#clip350)" style="stroke:#000000; stroke-linecap:round; stroke-linejoin:round; stroke-width:4; stroke-opacity:1; fill:none" points="336.963,307.192 355.861,307.192 "/>
<path clip-path="url(#clip350)" d="M148.123 1338.4 Q141.803 1338.4 138.603 1344.64 Q135.443 1350.83 135.443 1363.31 Q135.443 1375.75 138.603 1381.99 Q141.803 1388.18 148.123 1388.18 Q154.483 1388.18 157.642 1381.99 Q160.843 1375.75 160.843 1363.31 Q160.843 1350.83 157.642 1344.64 Q154.483 1338.4 148.123 1338.4 M148.123 1331.92 Q158.291 1331.92 163.638 1339.98 Q169.025 1348 169.025 1363.31 Q169.025 1378.58 163.638 1386.64 Q158.291 1394.66 148.123 1394.66 Q137.955 1394.66 132.567 1386.64 Q127.22 1378.58 127.22 1363.31 Q127.22 1348 132.567 1339.98 Q137.955 1331.92 148.123 1331.92 Z" fill="#000000" fill-rule="evenodd" fill-opacity="1" /><path clip-path="url(#clip350)" d="M183.406 1383.2 L191.954 1383.2 L191.954 1393.49 L183.406 1393.49 L183.406 1383.2 Z" fill="#000000" fill-rule="evenodd" fill-opacity="1" /><path clip-path="url(#clip350)" d="M227.277 1338.4 Q220.958 1338.4 217.758 1344.64 Q214.598 1350.83 214.598 1363.31 Q214.598 1375.75 217.758 1381.99 Q220.958 1388.18 227.277 1388.18 Q233.637 1388.18 236.797 1381.99 Q239.997 1375.75 239.997 1363.31 Q239.997 1350.83 236.797 1344.64 Q233.637 1338.4 227.277 1338.4 M227.277 1331.92 Q237.445 1331.92 242.792 1339.98 Q248.18 1348 248.18 1363.31 Q248.18 1378.58 242.792 1386.64 Q237.445 1394.66 227.277 1394.66 Q217.11 1394.66 211.722 1386.64 Q206.375 1378.58 206.375 1363.31 Q206.375 1348 211.722 1339.98 Q217.11 1331.92 227.277 1331.92 Z" fill="#000000" fill-rule="evenodd" fill-opacity="1" /><path clip-path="url(#clip350)" d="M280.061 1338.4 Q273.741 1338.4 270.541 1344.64 Q267.381 1350.83 267.381 1363.31 Q267.381 1375.75 270.541 1381.99 Q273.741 1388.18 280.061 1388.18 Q286.421 1388.18 289.58 1381.99 Q292.781 1375.75 292.781 1363.31 Q292.781 1350.83 289.58 1344.64 Q286.421 1338.4 280.061 1338.4 M280.061 1331.92 Q290.229 1331.92 295.576 1339.98 Q300.963 1348 300.963 1363.31 Q300.963 1378.58 295.576 1386.64 Q290.229 1394.66 280.061 1394.66 Q269.893 1394.66 264.505 1386.64 Q259.158 1378.58 259.158 1363.31 Q259.158 1348 264.505 1339.98 Q269.893 1331.92 280.061 1331.92 Z" fill="#000000" fill-rule="evenodd" fill-opacity="1" /><path clip-path="url(#clip350)" d="M149.865 1074.38 Q143.545 1074.38 140.345 1080.62 Q137.185 1086.82 137.185 1099.3 Q137.185 1111.73 140.345 1117.97 Q143.545 1124.17 149.865 1124.17 Q156.225 1124.17 159.384 1117.97 Q162.585 1111.73 162.585 1099.3 Q162.585 1086.82 159.384 1080.62 Q156.225 1074.38 149.865 1074.38 M149.865 1067.9 Q160.032 1067.9 165.38 1075.96 Q170.767 1083.98 170.767 1099.3 Q170.767 1114.57 165.38 1122.63 Q160.032 1130.65 149.865 1130.65 Q139.697 1130.65 134.309 1122.63 Q128.962 1114.57 128.962 1099.3 Q128.962 1083.98 134.309 1075.96 Q139.697 1067.9 149.865 1067.9 Z" fill="#000000" fill-rule="evenodd" fill-opacity="1" /><path clip-path="url(#clip350)" d="M185.148 1119.19 L193.695 1119.19 L193.695 1129.48 L185.148 1129.48 L185.148 1119.19 Z" fill="#000000" fill-rule="evenodd" fill-opacity="1" /><path clip-path="url(#clip350)" d="M229.019 1074.38 Q222.7 1074.38 219.5 1080.62 Q216.34 1086.82 216.34 1099.3 Q216.34 1111.73 219.5 1117.97 Q222.7 1124.17 229.019 1124.17 Q235.379 1124.17 238.539 1117.97 Q241.739 1111.73 241.739 1099.3 Q241.739 1086.82 238.539 1080.62 Q235.379 1074.38 229.019 1074.38 M229.019 1067.9 Q239.187 1067.9 244.534 1075.96 Q249.922 1083.98 249.922 1099.3 Q249.922 1114.57 244.534 1122.63 Q239.187 1130.65 229.019 1130.65 Q218.852 1130.65 213.464 1122.63 Q208.117 1114.57 208.117 1099.3 Q208.117 1083.98 213.464 1075.96 Q218.852 1067.9 229.019 1067.9 Z" fill="#000000" fill-rule="evenodd" fill-opacity="1" /><path clip-path="url(#clip350)" d="M264.384 1069 L296.507 1069 L296.507 1075.88 L271.878 1075.88 L271.878 1090.71 Q273.66 1090.1 275.443 1089.82 Q277.225 1089.49 279.008 1089.49 Q289.135 1089.49 295.049 1095.04 Q300.963 1100.59 300.963 1110.07 Q300.963 1119.83 294.887 1125.26 Q288.811 1130.65 277.752 1130.65 Q273.944 1130.65 269.974 1130 Q266.045 1129.35 261.832 1128.06 L261.832 1119.83 Q265.478 1121.82 269.366 1122.79 Q273.255 1123.76 277.59 1123.76 Q284.598 1123.76 288.689 1120.08 Q292.781 1116.39 292.781 1110.07 Q292.781 1103.75 288.689 1100.07 Q284.598 1096.38 277.59 1096.38 Q274.308 1096.38 271.027 1097.11 Q267.787 1097.84 264.384 1099.38 L264.384 1069 Z" fill="#000000" fill-rule="evenodd" fill-opacity="1" /><path clip-path="url(#clip350)" d="M148.123 810.368 Q141.803 810.368 138.603 816.607 Q135.443 822.805 135.443 835.281 Q135.443 847.718 138.603 853.956 Q141.803 860.154 148.123 860.154 Q154.483 860.154 157.642 853.956 Q160.843 847.718 160.843 835.281 Q160.843 822.805 157.642 816.607 Q154.483 810.368 148.123 810.368 M148.123 803.887 Q158.291 803.887 163.638 811.948 Q169.025 819.969 169.025 835.281 Q169.025 850.553 163.638 858.615 Q158.291 866.635 148.123 866.635 Q137.955 866.635 132.567 858.615 Q127.22 850.553 127.22 835.281 Q127.22 819.969 132.567 811.948 Q137.955 803.887 148.123 803.887 Z" fill="#000000" fill-rule="evenodd" fill-opacity="1" /><path clip-path="url(#clip350)" d="M183.406 855.171 L191.954 855.171 L191.954 865.461 L183.406 865.461 L183.406 855.171 Z" fill="#000000" fill-rule="evenodd" fill-opacity="1" /><path clip-path="url(#clip350)" d="M211.195 858.574 L224.563 858.574 L224.563 812.434 L210.021 815.351 L210.021 807.897 L224.482 804.981 L232.665 804.981 L232.665 858.574 L246.033 858.574 L246.033 865.461 L211.195 865.461 L211.195 858.574 Z" fill="#000000" fill-rule="evenodd" fill-opacity="1" /><path clip-path="url(#clip350)" d="M280.061 810.368 Q273.741 810.368 270.541 816.607 Q267.381 822.805 267.381 835.281 Q267.381 847.718 270.541 853.956 Q273.741 860.154 280.061 860.154 Q286.421 860.154 289.58 853.956 Q292.781 847.718 292.781 835.281 Q292.781 822.805 289.58 816.607 Q286.421 810.368 280.061 810.368 M280.061 803.887 Q290.229 803.887 295.576 811.948 Q300.963 819.969 300.963 835.281 Q300.963 850.553 295.576 858.615 Q290.229 866.635 280.061 866.635 Q269.893 866.635 264.505 858.615 Q259.158 850.553 259.158 835.281 Q259.158 819.969 264.505 811.948 Q269.893 803.887 280.061 803.887 Z" fill="#000000" fill-rule="evenodd" fill-opacity="1" /><path clip-path="url(#clip350)" d="M149.865 546.354 Q143.545 546.354 140.345 552.592 Q137.185 558.79 137.185 571.267 Q137.185 583.703 140.345 589.942 Q143.545 596.14 149.865 596.14 Q156.225 596.14 159.384 589.942 Q162.585 583.703 162.585 571.267 Q162.585 558.79 159.384 552.592 Q156.225 546.354 149.865 546.354 M149.865 539.873 Q160.032 539.873 165.38 547.934 Q170.767 555.955 170.767 571.267 Q170.767 586.539 165.38 594.6 Q160.032 602.621 149.865 602.621 Q139.697 602.621 134.309 594.6 Q128.962 586.539 128.962 571.267 Q128.962 555.955 134.309 547.934 Q139.697 539.873 149.865 539.873 Z" fill="#000000" fill-rule="evenodd" fill-opacity="1" /><path clip-path="url(#clip350)" d="M185.148 591.157 L193.695 591.157 L193.695 601.446 L185.148 601.446 L185.148 591.157 Z" fill="#000000" fill-rule="evenodd" fill-opacity="1" /><path clip-path="url(#clip350)" d="M212.937 594.56 L226.305 594.56 L226.305 548.42 L211.763 551.337 L211.763 543.883 L226.224 540.966 L234.407 540.966 L234.407 594.56 L247.775 594.56 L247.775 601.446 L212.937 601.446 L212.937 594.56 Z" fill="#000000" fill-rule="evenodd" fill-opacity="1" /><path clip-path="url(#clip350)" d="M264.384 540.966 L296.507 540.966 L296.507 547.853 L271.878 547.853 L271.878 562.679 Q273.66 562.072 275.443 561.788 Q277.225 561.464 279.008 561.464 Q289.135 561.464 295.049 567.014 Q300.963 572.563 300.963 582.042 Q300.963 591.805 294.887 597.233 Q288.811 602.621 277.752 602.621 Q273.944 602.621 269.974 601.973 Q266.045 601.325 261.832 600.028 L261.832 591.805 Q265.478 593.79 269.366 594.762 Q273.255 595.735 277.59 595.735 Q284.598 595.735 288.689 592.048 Q292.781 588.362 292.781 582.042 Q292.781 575.723 288.689 572.037 Q284.598 568.35 277.59 568.35 Q274.308 568.35 271.027 569.08 Q267.787 569.809 264.384 571.348 L264.384 540.966 Z" fill="#000000" fill-rule="evenodd" fill-opacity="1" /><path clip-path="url(#clip350)" d="M148.123 282.34 Q141.803 282.34 138.603 288.578 Q135.443 294.776 135.443 307.253 Q135.443 319.689 138.603 325.927 Q141.803 332.125 148.123 332.125 Q154.483 332.125 157.642 325.927 Q160.843 319.689 160.843 307.253 Q160.843 294.776 157.642 288.578 Q154.483 282.34 148.123 282.34 M148.123 275.858 Q158.291 275.858 163.638 283.919 Q169.025 291.94 169.025 307.253 Q169.025 322.525 163.638 330.586 Q158.291 338.607 148.123 338.607 Q137.955 338.607 132.567 330.586 Q127.22 322.525 127.22 307.253 Q127.22 291.94 132.567 283.919 Q137.955 275.858 148.123 275.858 Z" fill="#000000" fill-rule="evenodd" fill-opacity="1" /><path clip-path="url(#clip350)" d="M183.406 327.143 L191.954 327.143 L191.954 337.432 L183.406 337.432 L183.406 327.143 Z" fill="#000000" fill-rule="evenodd" fill-opacity="1" /><path clip-path="url(#clip350)" d="M216.826 330.545 L245.385 330.545 L245.385 337.432 L206.982 337.432 L206.982 330.545 Q211.641 325.725 219.662 317.623 Q227.723 309.481 229.789 307.131 Q233.718 302.716 235.258 299.677 Q236.838 296.599 236.838 293.642 Q236.838 288.821 233.435 285.783 Q230.073 282.745 224.644 282.745 Q220.796 282.745 216.502 284.081 Q212.249 285.418 207.388 288.132 L207.388 279.869 Q212.33 277.884 216.624 276.871 Q220.918 275.858 224.482 275.858 Q233.88 275.858 239.471 280.557 Q245.061 285.256 245.061 293.115 Q245.061 296.842 243.643 300.204 Q242.266 303.526 238.58 308.063 Q237.567 309.238 232.139 314.868 Q226.71 320.459 216.826 330.545 Z" fill="#000000" fill-rule="evenodd" fill-opacity="1" /><path clip-path="url(#clip350)" d="M280.061 282.34 Q273.741 282.34 270.541 288.578 Q267.381 294.776 267.381 307.253 Q267.381 319.689 270.541 325.927 Q273.741 332.125 280.061 332.125 Q286.421 332.125 289.58 325.927 Q292.781 319.689 292.781 307.253 Q292.781 294.776 289.58 288.578 Q286.421 282.34 280.061 282.34 M280.061 275.858 Q290.229 275.858 295.576 283.919 Q300.963 291.94 300.963 307.253 Q300.963 322.525 295.576 330.586 Q290.229 338.607 280.061 338.607 Q269.893 338.607 264.505 330.586 Q259.158 322.525 259.158 307.253 Q259.158 291.94 264.505 283.919 Q269.893 275.858 280.061 275.858 Z" fill="#000000" fill-rule="evenodd" fill-opacity="1" /><path clip-path="url(#clip350)" d="M22.3122 763.123 Q24.5666 763.123 25.9602 764.558 Q27.3539 765.951 27.3539 767.714 Q27.3539 768.984 26.5751 769.927 Q25.7963 770.829 24.4436 770.829 Q23.05 770.829 21.5744 769.763 Q20.0988 768.698 19.8938 766.279 Q18.3772 767.878 18.3772 770.419 Q18.3772 771.69 19.197 772.755 Q19.9758 773.78 21.2465 774.354 Q22.5581 774.969 29.9772 776.363 Q32.3956 776.813 34.7319 777.223 Q37.0683 777.633 39.5277 778.125 L39.5277 771.157 Q39.5277 770.255 39.5687 769.886 Q39.6097 769.517 39.8146 769.23 Q40.0196 768.902 40.4704 768.902 Q41.6181 768.902 41.9051 769.435 Q42.151 769.927 42.151 771.403 L42.151 778.617 L68.753 783.659 Q69.5318 783.782 71.9912 784.314 Q74.4096 784.806 78.3855 785.995 Q82.4025 787.184 84.7799 788.372 Q86.1325 789.028 87.4032 789.889 Q88.7148 790.709 90.0265 791.897 Q91.3381 793.086 92.1169 794.644 Q92.9367 796.201 92.9367 797.841 Q92.9367 800.628 91.3791 802.801 Q89.8215 804.973 87.1572 804.973 Q84.9028 804.973 83.5092 803.579 Q82.1155 802.145 82.1155 800.382 Q82.1155 799.112 82.8943 798.21 Q83.6731 797.267 85.0258 797.267 Q85.5996 797.267 86.2555 797.472 Q86.9113 797.677 87.6491 798.128 Q88.4279 798.579 88.9608 799.562 Q89.4936 800.546 89.5756 801.899 Q91.0922 800.3 91.0922 797.841 Q91.0922 797.062 90.7643 796.365 Q90.4774 795.668 89.7396 795.095 Q89.0017 794.48 88.2639 794.029 Q87.5671 793.578 86.2145 793.127 Q84.9028 792.676 83.9191 792.389 Q82.9353 792.102 81.1728 791.734 Q79.4103 791.324 78.3445 791.119 Q77.3198 790.914 75.3113 790.545 L42.151 784.273 L42.151 789.807 Q42.151 790.791 42.11 791.201 Q42.069 791.57 41.8641 791.856 Q41.6181 792.143 41.1263 792.143 Q40.3475 792.143 40.0196 791.815 Q39.6507 791.447 39.6097 791.037 Q39.5277 790.627 39.5277 789.643 L39.5277 783.823 Q29.1574 781.855 26.3701 781.076 Q23.4189 780.175 21.3694 778.781 Q19.279 777.387 18.2952 775.83 Q17.3115 774.272 16.9426 773.001 Q16.5327 771.69 16.5327 770.419 Q16.5327 767.55 18.0903 765.336 Q19.6069 763.123 22.3122 763.123 Z" fill="#000000" fill-rule="evenodd" fill-opacity="1" /><path clip-path="url(#clip350)" d="M54.7347 751.823 Q40.5524 751.823 29.1164 746.536 Q24.3207 744.281 20.3037 741.125 Q16.2868 737.969 14.5242 735.878 Q12.7617 733.788 12.7617 733.214 Q12.7617 732.394 13.5815 732.353 Q13.9914 732.353 15.0161 733.46 Q28.7885 746.987 54.7347 746.946 Q80.7629 746.946 94.0024 733.788 Q95.4371 732.353 95.8879 732.353 Q96.7077 732.353 96.7077 733.214 Q96.7077 733.788 95.0272 735.796 Q93.3466 737.805 89.4936 740.92 Q85.6406 744.035 80.9269 746.29 Q69.4908 751.823 54.7347 751.823 Z" fill="#000000" fill-rule="evenodd" fill-opacity="1" /><path clip-path="url(#clip350)" d="M44.1595 684.165 Q46.4549 684.165 47.7665 685.6 Q49.0372 687.034 49.0372 688.674 Q49.0372 690.231 48.1354 691.051 Q47.2337 691.871 46.086 691.871 Q44.5284 691.871 43.1757 690.723 Q41.8231 689.576 41.5362 687.854 Q40.4704 689.535 40.4704 692.035 Q40.4704 693.674 41.3312 695.109 Q42.192 696.503 43.2987 697.364 Q44.4054 698.183 46.004 698.921 Q47.5616 699.618 48.5043 699.905 Q49.4061 700.151 50.3898 700.356 L61.8668 703.225 Q67.3184 704.619 69.2449 704.619 Q71.6223 704.619 73.2209 703.471 Q74.7785 702.323 74.7785 700.028 Q74.7785 699.126 74.5325 698.101 Q74.2456 697.077 73.5078 695.765 Q72.729 694.412 71.5813 693.224 Q70.3926 691.994 68.3841 690.805 Q66.3757 689.617 63.7933 688.838 Q62.8916 688.592 62.8916 687.772 Q62.8916 686.747 63.7114 686.747 Q64.4082 686.747 65.8838 687.321 Q67.3184 687.854 69.2039 689.043 Q71.0484 690.19 72.729 691.707 Q74.3686 693.224 75.5163 695.478 Q76.664 697.732 76.664 700.192 Q76.664 703.717 74.7785 706.053 Q72.893 708.39 70.2696 709.25 Q70.6385 709.455 71.1304 709.742 Q71.6223 710.029 72.729 710.89 Q73.7947 711.71 74.6145 712.653 Q75.3933 713.595 76.0081 715.071 Q76.664 716.506 76.664 718.063 Q76.664 720.031 76.0901 721.793 Q75.5163 723.515 74.2046 724.744 Q72.893 725.974 71.0894 725.974 Q69.081 725.974 67.6873 724.621 Q66.2527 723.228 66.2527 721.342 Q66.2527 720.154 66.9495 719.211 Q67.6463 718.227 69.1629 718.227 Q70.8435 718.227 72.1142 719.375 Q73.3848 720.522 73.7127 722.162 Q74.7785 720.481 74.7785 717.981 Q74.7785 715.276 72.4011 713.144 Q70.0237 711.013 66.0478 709.988 Q56.4972 707.447 52.2344 706.463 Q47.9305 705.479 46.086 705.479 Q44.3644 705.479 43.1757 705.93 Q41.987 706.381 41.4542 707.16 Q40.8803 707.898 40.6754 708.595 Q40.4704 709.25 40.4704 709.988 Q40.4704 711.218 40.9623 712.612 Q41.4542 713.964 42.6019 715.604 Q43.7086 717.202 46.004 718.719 Q48.2994 720.236 51.4556 721.26 Q52.3983 721.465 52.3983 722.367 Q52.3573 723.351 51.5375 723.351 Q50.8407 723.351 49.4061 722.818 Q47.9305 722.244 46.086 721.096 Q44.2415 719.908 42.6019 718.391 Q40.9213 716.833 39.7736 714.579 Q38.6259 712.284 38.6259 709.824 Q38.6259 708.718 38.8719 707.652 Q39.0768 706.545 39.6916 705.233 Q40.3065 703.881 41.6591 702.692 Q43.0118 701.503 44.9793 700.766 Q44.0365 700.274 43.1347 699.618 Q42.233 698.921 41.1263 697.855 Q39.9786 696.749 39.3227 695.232 Q38.6259 693.674 38.6259 691.953 Q38.6259 690.272 39.0768 688.633 Q39.4867 686.993 40.8393 685.6 Q42.151 684.165 44.1595 684.165 Z" fill="#000000" fill-rule="evenodd" fill-opacity="1" /><path clip-path="url(#clip350)" d="M95.8879 676.084 Q95.4781 676.084 94.4533 675.018 Q80.6809 661.492 54.7347 661.492 Q28.7065 661.492 15.549 674.486 Q14.0324 676.084 13.5815 676.084 Q12.7617 676.084 12.7617 675.264 Q12.7617 674.69 14.4422 672.682 Q16.1228 670.633 19.9758 667.558 Q23.8288 664.443 28.5426 662.148 Q39.9786 656.614 54.7347 656.614 Q68.917 656.614 80.353 661.902 Q85.1488 664.156 89.1657 667.312 Q93.1827 670.469 94.9452 672.559 Q96.7077 674.649 96.7077 675.264 Q96.7077 676.084 95.8879 676.084 Z" fill="#000000" fill-rule="evenodd" fill-opacity="1" /><path clip-path="url(#clip352)" d="M394.014 1363.25 L395.599 1153.65 L397.184 1068.31 L398.768 1003.82 L400.353 950.286 L401.938 903.845 L403.523 862.507 L405.107 825.083 L406.692 790.795 L408.277 759.098 L409.862 729.594 L411.446 701.981 L413.031 676.022 L414.616 651.528 L416.201 628.345 L417.785 606.345 L419.37 585.421 L420.955 565.481 L422.54 546.446 L424.124 528.249 L425.709 510.83 L427.294 494.136 L428.879 478.12 L430.463 462.741 L432.048 447.961 L433.633 433.746 L435.217 420.066 L436.802 406.893 L438.387 394.201 L439.972 381.967 L441.556 370.17 L443.141 358.789 L444.726 347.806 L446.311 337.205 L447.895 326.97 L449.48 317.085 L451.065 307.536 L452.65 298.312 L454.234 289.4 L455.819 280.788 L457.404 272.465 L458.989 264.423 L460.573 256.65 L462.158 249.138 L463.743 241.879 L465.328 234.864 L466.912 228.085 L468.497 221.535 L470.082 215.208 L471.667 209.096 L473.251 203.193 L474.836 197.493 L476.421 191.991 L478.006 186.68 L479.59 181.555 L481.175 176.612 L482.76 171.845 L484.344 167.249 L485.929 162.821 L487.514 158.555 L489.099 154.448 L490.683 150.495 L492.268 146.693 L493.853 143.038 L495.438 139.526 L497.022 136.153 L498.607 132.917 L500.192 129.814 L501.777 126.841 L503.361 123.995 L504.946 121.272 L506.531 118.671 L508.116 116.188 L509.7 113.82 L511.285 111.566 L512.87 109.422 L514.455 107.386 L516.039 105.455 L517.624 103.628 L519.209 101.902 L520.794 100.274 L522.378 98.7434 L523.963 97.3073 L525.548 95.9638 L527.133 94.711 L528.717 93.5469 L530.302 92.4697 L531.887 91.4776 L533.472 90.5688 L535.056 89.7416 L536.641 88.9943 L538.226 88.3252 L539.81 87.7328 L541.395 87.2156 L542.98 86.7719 L544.565 86.4003 L546.149 86.0994 L547.734 85.8677 L549.319 85.7038 L550.904 85.6065 L552.488 85.5744 L554.073 85.6061 L555.658 85.7004 L557.243 85.8562 L558.827 86.0721 L560.412 86.347 L561.997 86.6798 L563.582 87.0692 L565.166 87.5143 L566.751 88.0139 L568.336 88.5669 L569.921 89.1723 L571.505 89.8291 L573.09 90.5364 L574.675 91.293 L576.26 92.0981 L577.844 92.9507 L579.429 93.8499 L581.014 94.7948 L582.599 95.7846 L584.183 96.8182 L585.768 97.895 L587.353 99.014 L588.937 100.175 L590.522 101.376 L592.107 102.617 L593.692 103.897 L595.276 105.215 L596.861 106.571 L598.446 107.964 L600.031 109.393 L601.615 110.857 L603.2 112.356 L604.785 113.889 L606.37 115.456 L607.954 117.055 L609.539 118.686 L611.124 120.349 L612.709 122.043 L614.293 123.767 L615.878 125.52 L617.463 127.303 L619.048 129.114 L620.632 130.953 L622.217 132.82 L623.802 134.713 L625.387 136.632 L626.971 138.577 L628.556 140.547 L630.141 142.543 L631.726 144.562 L633.31 146.605 L634.895 148.671 L636.48 150.76 L638.065 152.871 L639.649 155.004 L641.234 157.158 L642.819 159.333 L644.403 161.529 L645.988 163.744 L647.573 165.98 L649.158 168.234 L650.742 170.507 L652.327 172.799 L653.912 175.108 L655.497 177.435 L657.081 179.779 L658.666 182.14 L660.251 184.518 L661.836 186.911 L663.42 189.32 L665.005 191.745 L666.59 194.185 L668.175 196.639 L669.759 199.107 L671.344 201.589 L672.929 204.086 L674.514 206.595 L676.098 209.117 L677.683 211.652 L679.268 214.2 L680.853 216.759 L682.437 219.33 L684.022 221.913 L685.607 224.507 L687.192 227.111 L688.776 229.727 L690.361 232.352 L691.946 234.988 L693.531 237.633 L695.115 240.288 L696.7 242.953 L698.285 245.626 L699.869 248.308 L701.454 250.998 L703.039 253.697 L704.624 256.404 L706.208 259.118 L707.793 261.84 L709.378 264.57 L710.963 267.306 L712.547 270.049 L714.132 272.799 L715.717 275.555 L717.302 278.318 L718.886 281.086 L720.471 283.861 L722.056 286.64 L723.641 289.426 L725.225 292.216 L726.81 295.011 L728.395 297.811 L729.98 300.616 L731.564 303.425 L733.149 306.239 L734.734 309.056 L736.319 311.877 L737.903 314.702 L739.488 317.531 L741.073 320.362 L742.658 323.197 L744.242 326.035 L745.827 328.876 L747.412 331.72 L748.996 334.566 L750.581 337.414 L752.166 340.265 L753.751 343.117 L755.335 345.972 L756.92 348.828 L758.505 351.686 L760.09 354.546 L761.674 357.407 L763.259 360.269 L764.844 363.132 L766.429 365.996 L768.013 368.861 L769.598 371.726 L771.183 374.592 L772.768 377.459 L774.352 380.326 L775.937 383.192 L777.522 386.059 L779.107 388.926 L780.691 391.793 L782.276 394.659 L783.861 397.526 L785.446 400.391 L787.03 403.256 L788.615 406.12 L790.2 408.983 L791.785 411.846 L793.369 414.707 L794.954 417.567 L796.539 420.426 L798.124 423.283 L799.708 426.139 L801.293 428.994 L802.878 431.846 L804.462 434.698 L806.047 437.547 L807.632 440.394 L809.217 443.239 L810.801 446.083 L812.386 448.924 L813.971 451.763 L815.556 454.599 L817.14 457.433 L818.725 460.265 L820.31 463.094 L821.895 465.92 L823.479 468.743 L825.064 471.564 L826.649 474.382 L828.234 477.197 L829.818 480.009 L831.403 482.817 L832.988 485.623 L834.573 488.425 L836.157 491.224 L837.742 494.02 L839.327 496.812 L840.912 499.601 L842.496 502.386 L844.081 505.168 L845.666 507.946 L847.251 510.72 L848.835 513.49 L850.42 516.256 L852.005 519.019 L853.589 521.777 L855.174 524.532 L856.759 527.282 L858.344 530.029 L859.928 532.771 L861.513 535.509 L863.098 538.242 L864.683 540.972 L866.267 543.697 L867.852 546.417 L869.437 549.133 L871.022 551.844 L872.606 554.551 L874.191 557.254 L875.776 559.951 L877.361 562.644 L878.945 565.332 L880.53 568.016 L882.115 570.694 L883.7 573.368 L885.284 576.037 L886.869 578.701 L888.454 581.36 L890.039 584.014 L891.623 586.662 L893.208 589.306 L894.793 591.945 L896.378 594.578 L897.962 597.207 L899.547 599.83 L901.132 602.448 L902.717 605.06 L904.301 607.668 L905.886 610.27 L907.471 612.866 L909.055 615.457 L910.64 618.043 L912.225 620.624 L913.81 623.199 L915.394 625.768 L916.979 628.332 L918.564 630.89 L920.149 633.443 L921.733 635.99 L923.318 638.531 L924.903 641.067 L926.488 643.597 L928.072 646.122 L929.657 648.641 L931.242 651.154 L932.827 653.661 L934.411 656.163 L935.996 658.658 L937.581 661.148 L939.166 663.632 L940.75 666.111 L942.335 668.583 L943.92 671.05 L945.505 673.51 L947.089 675.965 L948.674 678.414 L950.259 680.857 L951.844 683.294 L953.428 685.725 L955.013 688.15 L956.598 690.569 L958.183 692.982 L959.767 695.388 L961.352 697.789 L962.937 700.184 L964.521 702.573 L966.106 704.956 L967.691 707.332 L969.276 709.703 L970.86 712.067 L972.445 714.426 L974.03 716.778 L975.615 719.124 L977.199 721.464 L978.784 723.798 L980.369 726.126 L981.954 728.447 L983.538 730.763 L985.123 733.072 L986.708 735.375 L988.293 737.672 L989.877 739.963 L991.462 742.247 L993.047 744.525 L994.632 746.798 L996.216 749.063 L997.801 751.323 L999.386 753.577 L1000.97 755.824 L1002.56 758.065 L1004.14 760.3 L1005.72 762.528 L1007.31 764.751 L1008.89 766.967 L1010.48 769.177 L1012.06 771.38 L1013.65 773.578 L1015.23 775.769 L1016.82 777.954 L1018.4 780.133 L1019.99 782.305 L1021.57 784.471 L1023.16 786.631 L1024.74 788.785 L1026.33 790.933 L1027.91 793.074 L1029.5 795.209 L1031.08 797.338 L1032.67 799.46 L1034.25 801.577 L1035.83 803.687 L1037.42 805.791 L1039 807.888 L1040.59 809.98 L1042.17 812.065 L1043.76 814.144 L1045.34 816.217 L1046.93 818.283 L1048.51 820.344 L1050.1 822.398 L1051.68 824.446 L1053.27 826.487 L1054.85 828.523 L1056.44 830.552 L1058.02 832.576 L1059.61 834.593 L1061.19 836.603 L1062.78 838.608 L1064.36 840.607 L1065.94 842.599 L1067.53 844.585 L1069.11 846.565 L1070.7 848.539 L1072.28 850.507 L1073.87 852.469 L1075.45 854.424 L1077.04 856.374 L1078.62 858.317 L1080.21 860.254 L1081.79 862.185 L1083.38 864.11 L1084.96 866.029 L1086.55 867.942 L1088.13 869.849 L1089.72 871.75 L1091.3 873.644 L1092.89 875.533 L1094.47 877.415 L1096.06 879.292 L1097.64 881.163 L1099.22 883.027 L1100.81 884.886 L1102.39 886.738 L1103.98 888.585 L1105.56 890.425 L1107.15 892.26 L1108.73 894.089 L1110.32 895.911 L1111.9 897.728 L1113.49 899.539 L1115.07 901.344 L1116.66 903.143 L1118.24 904.936 L1119.83 906.723 L1121.41 908.504 L1123 910.28 L1124.58 912.049 L1126.17 913.813 L1127.75 915.571 L1129.33 917.323 L1130.92 919.069 L1132.5 920.809 L1134.09 922.544 L1135.67 924.273 L1137.26 925.996 L1138.84 927.713 L1140.43 929.424 L1142.01 931.13 L1143.6 932.83 L1145.18 934.524 L1146.77 936.213 L1148.35 937.896 L1149.94 939.573 L1151.52 941.244 L1153.11 942.91 L1154.69 944.57 L1156.28 946.225 L1157.86 947.873 L1159.44 949.517 L1161.03 951.154 L1162.61 952.786 L1164.2 954.413 L1165.78 956.033 L1167.37 957.649 L1168.95 959.258 L1170.54 960.862 L1172.12 962.461 L1173.71 964.054 L1175.29 965.641 L1176.88 967.223 L1178.46 968.8 L1180.05 970.371 L1181.63 971.937 L1183.22 973.497 L1184.8 975.052 L1186.39 976.601 L1187.97 978.145 L1189.55 979.683 L1191.14 981.216 L1192.72 982.744 L1194.31 984.266 L1195.89 985.784 L1197.48 987.295 L1199.06 988.802 L1200.65 990.303 L1202.23 991.798 L1203.82 993.289 L1205.4 994.774 L1206.99 996.254 L1208.57 997.728 L1210.16 999.198 L1211.74 1000.66 L1213.33 1002.12 L1214.91 1003.57 L1216.5 1005.02 L1218.08 1006.47 L1219.67 1007.91 L1221.25 1009.34 L1222.83 1010.77 L1224.42 1012.19 L1226 1013.61 L1227.59 1015.02 L1229.17 1016.43 L1230.76 1017.83 L1232.34 1019.23 L1233.93 1020.62 L1235.51 1022.01 L1237.1 1023.39 L1238.68 1024.77 L1240.27 1026.14 L1241.85 1027.51 L1243.44 1028.87 L1245.02 1030.23 L1246.61 1031.58 L1248.19 1032.93 L1249.78 1034.27 L1251.36 1035.61 L1252.94 1036.94 L1254.53 1038.27 L1256.11 1039.59 L1257.7 1040.91 L1259.28 1042.22 L1260.87 1043.53 L1262.45 1044.84 L1264.04 1046.14 L1265.62 1047.43 L1267.21 1048.72 L1268.79 1050 L1270.38 1051.28 L1271.96 1052.56 L1273.55 1053.83 L1275.13 1055.1 L1276.72 1056.36 L1278.3 1057.61 L1279.89 1058.87 L1281.47 1060.11 L1283.05 1061.36 L1284.64 1062.59 L1286.22 1063.83 L1287.81 1065.06 L1289.39 1066.28 L1290.98 1067.5 L1292.56 1068.72 L1294.15 1069.93 L1295.73 1071.13 L1297.32 1072.33 L1298.9 1073.53 L1300.49 1074.72 L1302.07 1075.91 L1303.66 1077.1 L1305.24 1078.28 L1306.83 1079.45 L1308.41 1080.62 L1310 1081.79 L1311.58 1082.95 L1313.16 1084.11 L1314.75 1085.26 L1316.33 1086.41 L1317.92 1087.55 L1319.5 1088.69 L1321.09 1089.83 L1322.67 1090.96 L1324.26 1092.09 L1325.84 1093.21 L1327.43 1094.33 L1329.01 1095.44 L1330.6 1096.55 L1332.18 1097.66 L1333.77 1098.76 L1335.35 1099.86 L1336.94 1100.95 L1338.52 1102.04 L1340.11 1103.12 L1341.69 1104.2 L1343.27 1105.28 L1344.86 1106.35 L1346.44 1107.42 L1348.03 1108.48 L1349.61 1109.54 L1351.2 1110.6 L1352.78 1111.65 L1354.37 1112.7 L1355.95 1113.75 L1357.54 1114.79 L1359.12 1115.82 L1360.71 1116.85 L1362.29 1117.88 L1363.88 1118.91 L1365.46 1119.93 L1367.05 1120.94 L1368.63 1121.95 L1370.22 1122.96 L1371.8 1123.97 L1373.39 1124.97 L1374.97 1125.96 L1376.55 1126.96 L1378.14 1127.95 L1379.72 1128.93 L1381.31 1129.91 L1382.89 1130.89 L1384.48 1131.86 L1386.06 1132.83 L1387.65 1133.8 L1389.23 1134.76 L1390.82 1135.72 L1392.4 1136.68 L1393.99 1137.63 L1395.57 1138.57 L1397.16 1139.52 L1398.74 1140.46 L1400.33 1141.39 L1401.91 1142.33 L1403.5 1143.26 L1405.08 1144.18 L1406.66 1145.1 L1408.25 1146.02 L1409.83 1146.94 L1411.42 1147.85 L1413 1148.75 L1414.59 1149.66 L1416.17 1150.56 L1417.76 1151.46 L1419.34 1152.35 L1420.93 1153.24 L1422.51 1154.13 L1424.1 1155.01 L1425.68 1155.89 L1427.27 1156.76 L1428.85 1157.64 L1430.44 1158.5 L1432.02 1159.37 L1433.61 1160.23 L1435.19 1161.09 L1436.77 1161.95 L1438.36 1162.8 L1439.94 1163.65 L1441.53 1164.49 L1443.11 1165.33 L1444.7 1166.17 L1446.28 1167.01 L1447.87 1167.84 L1449.45 1168.67 L1451.04 1169.49 L1452.62 1170.31 L1454.21 1171.13 L1455.79 1171.95 L1457.38 1172.76 L1458.96 1173.57 L1460.55 1174.37 L1462.13 1175.18 L1463.72 1175.98 L1465.3 1176.77 L1466.88 1177.57 L1468.47 1178.35 L1470.05 1179.14 L1471.64 1179.92 L1473.22 1180.71 L1474.81 1181.48 L1476.39 1182.26 L1477.98 1183.03 L1479.56 1183.8 L1481.15 1184.56 L1482.73 1185.32 L1484.32 1186.08 L1485.9 1186.84 L1487.49 1187.59 L1489.07 1188.34 L1490.66 1189.08 L1492.24 1189.83 L1493.83 1190.57 L1495.41 1191.31 L1496.99 1192.04 L1498.58 1192.77 L1500.16 1193.5 L1501.75 1194.23 L1503.33 1194.95 L1504.92 1195.67 L1506.5 1196.39 L1508.09 1197.1 L1509.67 1197.81 L1511.26 1198.52 L1512.84 1199.22 L1514.43 1199.93 L1516.01 1200.63 L1517.6 1201.32 L1519.18 1202.02 L1520.77 1202.71 L1522.35 1203.4 L1523.94 1204.08 L1525.52 1204.77 L1527.11 1205.45 L1528.69 1206.12 L1530.27 1206.8 L1531.86 1207.47 L1533.44 1208.14 L1535.03 1208.8 L1536.61 1209.47 L1538.2 1210.13 L1539.78 1210.79 L1541.37 1211.44 L1542.95 1212.1 L1544.54 1212.75 L1546.12 1213.39 L1547.71 1214.04 L1549.29 1214.68 L1550.88 1215.32 L1552.46 1215.96 L1554.05 1216.59 L1555.63 1217.22 L1557.22 1217.85 L1558.8 1218.48 L1560.38 1219.1 L1561.97 1219.73 L1563.55 1220.34 L1565.14 1220.96 L1566.72 1221.57 L1568.31 1222.19 L1569.89 1222.79 L1571.48 1223.4 L1573.06 1224 L1574.65 1224.61 L1576.23 1225.21 L1577.82 1225.8 L1579.4 1226.4 L1580.99 1226.99 L1582.57 1227.58 L1584.16 1228.16 L1585.74 1228.75 L1587.33 1229.33 L1588.91 1229.91 L1590.49 1230.49 L1592.08 1231.06 L1593.66 1231.63 L1595.25 1232.2 L1596.83 1232.77 L1598.42 1233.34 L1600 1233.9 L1601.59 1234.46 L1603.17 1235.02 L1604.76 1235.57 L1606.34 1236.13 L1607.93 1236.68 L1609.51 1237.23 L1611.1 1237.77 L1612.68 1238.32 L1614.27 1238.86 L1615.85 1239.4 L1617.44 1239.94 L1619.02 1240.47 L1620.6 1241.01 L1622.19 1241.54 L1623.77 1242.07 L1625.36 1242.59 L1626.94 1243.12 L1628.53 1243.64 L1630.11 1244.16 L1631.7 1244.68 L1633.28 1245.2 L1634.87 1245.71 L1636.45 1246.22 L1638.04 1246.73 L1639.62 1247.24 L1641.21 1247.74 L1642.79 1248.25 L1644.38 1248.75 L1645.96 1249.25 L1647.55 1249.74 L1649.13 1250.24 L1650.71 1250.73 L1652.3 1251.22 L1653.88 1251.71 L1655.47 1252.2 L1657.05 1252.68 L1658.64 1253.16 L1660.22 1253.64 L1661.81 1254.12 L1663.39 1254.6 L1664.98 1255.07 L1666.56 1255.55 L1668.15 1256.02 L1669.73 1256.48 L1671.32 1256.95 L1672.9 1257.42 L1674.49 1257.88 L1676.07 1258.34 L1677.66 1258.8 L1679.24 1259.25 L1680.83 1259.71 L1682.41 1260.16 L1683.99 1260.61 L1685.58 1261.06 L1687.16 1261.51 L1688.75 1261.96 L1690.33 1262.4 L1691.92 1262.84 L1693.5 1263.28 L1695.09 1263.72 L1696.67 1264.15 L1698.26 1264.59 L1699.84 1265.02 L1701.43 1265.45 L1703.01 1265.88 L1704.6 1266.31 L1706.18 1266.73 L1707.77 1267.16 L1709.35 1267.58 L1710.94 1268 L1712.52 1268.42 L1714.1 1268.83 L1715.69 1269.25 L1717.27 1269.66 L1718.86 1270.07 L1720.44 1270.48 L1722.03 1270.89 L1723.61 1271.29 L1725.2 1271.7 L1726.78 1272.1 L1728.37 1272.5 L1729.95 1272.9 L1731.54 1273.3 L1733.12 1273.69 L1734.71 1274.09 L1736.29 1274.48 L1737.88 1274.87 L1739.46 1275.26 L1741.05 1275.65 L1742.63 1276.03 L1744.21 1276.41 L1745.8 1276.8 L1747.38 1277.18 L1748.97 1277.56 L1750.55 1277.93 L1752.14 1278.31 L1753.72 1278.69 L1755.31 1279.06 L1756.89 1279.43 L1758.48 1279.8 L1760.06 1280.17 L1761.65 1280.53 L1763.23 1280.9 L1764.82 1281.26 L1766.4 1281.62 L1767.99 1281.98 L1769.57 1282.34 L1771.16 1282.7 L1772.74 1283.05 L1774.32 1283.41 L1775.91 1283.76 L1777.49 1284.11 L1779.08 1284.46 L1780.66 1284.81 L1782.25 1285.16 L1783.83 1285.5 L1785.42 1285.85 L1787 1286.19 L1788.59 1286.53 L1790.17 1286.87 L1791.76 1287.21 L1793.34 1287.54 L1794.93 1287.88 L1796.51 1288.21 L1798.1 1288.54 L1799.68 1288.87 L1801.27 1289.2 L1802.85 1289.53 L1804.43 1289.86 L1806.02 1290.18 L1807.6 1290.51 L1809.19 1290.83 L1810.77 1291.15 L1812.36 1291.47 L1813.94 1291.79 L1815.53 1292.1 L1817.11 1292.42 L1818.7 1292.73 L1820.28 1293.05 L1821.87 1293.36 L1823.45 1293.67 L1825.04 1293.98 L1826.62 1294.28 L1828.21 1294.59 L1829.79 1294.89 L1831.38 1295.2 L1832.96 1295.5 L1834.55 1295.8 L1836.13 1296.1 L1837.71 1296.4 L1839.3 1296.69 L1840.88 1296.99 L1842.47 1297.28 L1844.05 1297.58 L1845.64 1297.87 L1847.22 1298.16 L1848.81 1298.45 L1850.39 1298.74 L1851.98 1299.02 L1853.56 1299.31 L1855.15 1299.59 L1856.73 1299.88 L1858.32 1300.16 L1859.9 1300.44 L1861.49 1300.72 L1863.07 1301 L1864.66 1301.27 L1866.24 1301.55 L1867.82 1301.83 L1869.41 1302.1 L1870.99 1302.37 L1872.58 1302.64 L1874.16 1302.91 L1875.75 1303.18 L1877.33 1303.45 L1878.92 1303.72 L1880.5 1303.98 L1882.09 1304.24 L1883.67 1304.51 L1885.26 1304.77 L1886.84 1305.03 L1888.43 1305.29 L1890.01 1305.55 L1891.6 1305.81 L1893.18 1306.06 L1894.77 1306.32 L1896.35 1306.57 L1897.93 1306.82 L1899.52 1307.08 L1901.1 1307.33 L1902.69 1307.58 L1904.27 1307.83 L1905.86 1308.07 L1907.44 1308.32 L1909.03 1308.56 L1910.61 1308.81 L1912.2 1309.05 L1913.78 1309.29 L1915.37 1309.54 L1916.95 1309.78 L1918.54 1310.01 L1920.12 1310.25 L1921.71 1310.49 L1923.29 1310.73 L1924.88 1310.96 L1926.46 1311.19 L1928.04 1311.43 L1929.63 1311.66 L1931.21 1311.89 L1932.8 1312.12 L1934.38 1312.35 L1935.97 1312.58 L1937.55 1312.8 L1939.14 1313.03 L1940.72 1313.25 L1942.31 1313.48 L1943.89 1313.7 L1945.48 1313.92 L1947.06 1314.14 L1948.65 1314.36 L1950.23 1314.58 L1951.82 1314.8 L1953.4 1315.02 L1954.99 1315.23 L1956.57 1315.45 L1958.16 1315.66 L1959.74 1315.88 L1961.32 1316.09 L1962.91 1316.3 L1964.49 1316.51 L1966.08 1316.72 L1967.66 1316.93 L1969.25 1317.14 L1970.83 1317.34 L1972.42 1317.55 L1974 1317.76 L1975.59 1317.96 L1977.17 1318.16 L1978.76 1318.37 L1980.34 1318.57 L1981.93 1318.77 L1983.51 1318.97 L1985.1 1319.17 L1986.68 1319.36 L1988.27 1319.56 L1989.85 1319.76 L1991.43 1319.95 L1993.02 1320.15 L1994.6 1320.34 L1996.19 1320.53 L1997.77 1320.73 L1999.36 1320.92 L2000.94 1321.11 L2002.53 1321.3 L2004.11 1321.49 L2005.7 1321.67 L2007.28 1321.86 L2008.87 1322.05 L2010.45 1322.23 L2012.04 1322.42 L2013.62 1322.6 L2015.21 1322.78 L2016.79 1322.97 L2018.38 1323.15 L2019.96 1323.33 L2021.54 1323.51 L2023.13 1323.69 L2024.71 1323.86 L2026.3 1324.04 L2027.88 1324.22 L2029.47 1324.39 L2031.05 1324.57 L2032.64 1324.74 L2034.22 1324.92 L2035.81 1325.09 L2037.39 1325.26 L2038.98 1325.43 L2040.56 1325.6 L2042.15 1325.77 L2043.73 1325.94 L2045.32 1326.11 L2046.9 1326.28 L2048.49 1326.45 L2050.07 1326.61 L2051.65 1326.78 L2053.24 1326.94 L2054.82 1327.1 L2056.41 1327.27 L2057.99 1327.43 L2059.58 1327.59 L2061.16 1327.75 L2062.75 1327.91 L2064.33 1328.07 L2065.92 1328.23 L2067.5 1328.39 L2069.09 1328.55 L2070.67 1328.7 L2072.26 1328.86 L2073.84 1329.02 L2075.43 1329.17 L2077.01 1329.32 L2078.6 1329.48 L2080.18 1329.63 L2081.76 1329.78 L2083.35 1329.93 L2084.93 1330.08 L2086.52 1330.23 L2088.1 1330.38 L2089.69 1330.53 L2091.27 1330.68 L2092.86 1330.83 L2094.44 1330.97 L2096.03 1331.12 L2097.61 1331.27 L2099.2 1331.41 L2100.78 1331.55 L2102.37 1331.7 L2103.95 1331.84 L2105.54 1331.98 L2107.12 1332.12 L2108.71 1332.26 L2110.29 1332.41 L2111.88 1332.54 L2113.46 1332.68 L2115.04 1332.82 L2116.63 1332.96 L2118.21 1333.1 L2119.8 1333.23 L2121.38 1333.37 L2122.97 1333.51 L2124.55 1333.64 L2126.14 1333.77 L2127.72 1333.91 L2129.31 1334.04 L2130.89 1334.17 L2132.48 1334.31 L2134.06 1334.44 L2135.65 1334.57 L2137.23 1334.7 L2138.82 1334.83 L2140.4 1334.96 L2141.99 1335.08 L2143.57 1335.21 L2145.15 1335.34 L2146.74 1335.47 L2148.32 1335.59 L2149.91 1335.72 L2151.49 1335.84 L2153.08 1335.97 L2154.66 1336.09 L2156.25 1336.21 L2157.83 1336.34 L2159.42 1336.46 L2161 1336.58 L2162.59 1336.7 L2164.17 1336.82 L2165.76 1336.94 L2167.34 1337.06 L2168.93 1337.18 L2170.51 1337.3 L2172.1 1337.42 L2173.68 1337.53 L2175.26 1337.65 L2176.85 1337.77 L2178.43 1337.88 L2180.02 1338 L2181.6 1338.11 L2183.19 1338.23 L2184.77 1338.34 L2186.36 1338.45 L2187.94 1338.57 L2189.53 1338.68 L2191.11 1338.79 L2192.7 1338.9 L2194.28 1339.01 L2195.87 1339.12 L2197.45 1339.23 L2199.04 1339.34 L2200.62 1339.45 L2202.21 1339.56 L2203.79 1339.67 L2205.37 1339.78 L2206.96 1339.88 L2208.54 1339.99 L2210.13 1340.09 L2211.71 1340.2 L2213.3 1340.3 L2214.88 1340.41 L2216.47 1340.51 L2218.05 1340.62 L2219.64 1340.72 L2221.22 1340.82 L2222.81 1340.92 L2224.39 1341.03 L2225.98 1341.13 L2227.56 1341.23 L2229.15 1341.33 L2230.73 1341.43 L2232.32 1341.53 L2233.9 1341.63 L2235.48 1341.73 L2237.07 1341.82 L2238.65 1341.92 L2240.24 1342.02 L2241.82 1342.12 L2243.41 1342.21 L2244.99 1342.31 L2246.58 1342.4 L2248.16 1342.5 L2249.75 1342.59 L2251.33 1342.69 L2252.92 1342.78 L2254.5 1342.87 L2256.09 1342.97 L2257.67 1343.06 L2259.26 1343.15 L2260.84 1343.24 L2262.43 1343.34 L2264.01 1343.43 L2265.6 1343.52 L2267.18 1343.61 L2268.76 1343.7 L2270.35 1343.79 L2271.93 1343.88 L2273.52 1343.96 L2275.1 1344.05 L2276.69 1344.14 L2278.27 1344.23 L2279.86 1344.31 L2281.44 1344.4 L2283.03 1344.49 L2284.61 1344.57 L2286.2 1344.66 L2287.78 1344.74 L2289.37 1344.83 L2290.95 1344.91 L2292.54 1344.99 L2294.12 1345.08 L2295.71 1345.16 L2295.71 1363.25 L2294.12 1363.25 L2292.54 1363.25 L2290.95 1363.25 L2289.37 1363.25 L2287.78 1363.25 L2286.2 1363.25 L2284.61 1363.25 L2283.03 1363.25 L2281.44 1363.25 L2279.86 1363.25 L2278.27 1363.25 L2276.69 1363.25 L2275.1 1363.25 L2273.52 1363.25 L2271.93 1363.25 L2270.35 1363.25 L2268.76 1363.25 L2267.18 1363.25 L2265.6 1363.25 L2264.01 1363.25 L2262.43 1363.25 L2260.84 1363.25 L2259.26 1363.25 L2257.67 1363.25 L2256.09 1363.25 L2254.5 1363.25 L2252.92 1363.25 L2251.33 1363.25 L2249.75 1363.25 L2248.16 1363.25 L2246.58 1363.25 L2244.99 1363.25 L2243.41 1363.25 L2241.82 1363.25 L2240.24 1363.25 L2238.65 1363.25 L2237.07 1363.25 L2235.48 1363.25 L2233.9 1363.25 L2232.32 1363.25 L2230.73 1363.25 L2229.15 1363.25 L2227.56 1363.25 L2225.98 1363.25 L2224.39 1363.25 L2222.81 1363.25 L2221.22 1363.25 L2219.64 1363.25 L2218.05 1363.25 L2216.47 1363.25 L2214.88 1363.25 L2213.3 1363.25 L2211.71 1363.25 L2210.13 1363.25 L2208.54 1363.25 L2206.96 1363.25 L2205.37 1363.25 L2203.79 1363.25 L2202.21 1363.25 L2200.62 1363.25 L2199.04 1363.25 L2197.45 1363.25 L2195.87 1363.25 L2194.28 1363.25 L2192.7 1363.25 L2191.11 1363.25 L2189.53 1363.25 L2187.94 1363.25 L2186.36 1363.25 L2184.77 1363.25 L2183.19 1363.25 L2181.6 1363.25 L2180.02 1363.25 L2178.43 1363.25 L2176.85 1363.25 L2175.26 1363.25 L2173.68 1363.25 L2172.1 1363.25 L2170.51 1363.25 L2168.93 1363.25 L2167.34 1363.25 L2165.76 1363.25 L2164.17 1363.25 L2162.59 1363.25 L2161 1363.25 L2159.42 1363.25 L2157.83 1363.25 L2156.25 1363.25 L2154.66 1363.25 L2153.08 1363.25 L2151.49 1363.25 L2149.91 1363.25 L2148.32 1363.25 L2146.74 1363.25 L2145.15 1363.25 L2143.57 1363.25 L2141.99 1363.25 L2140.4 1363.25 L2138.82 1363.25 L2137.23 1363.25 L2135.65 1363.25 L2134.06 1363.25 L2132.48 1363.25 L2130.89 1363.25 L2129.31 1363.25 L2127.72 1363.25 L2126.14 1363.25 L2124.55 1363.25 L2122.97 1363.25 L2121.38 1363.25 L2119.8 1363.25 L2118.21 1363.25 L2116.63 1363.25 L2115.04 1363.25 L2113.46 1363.25 L2111.88 1363.25 L2110.29 1363.25 L2108.71 1363.25 L2107.12 1363.25 L2105.54 1363.25 L2103.95 1363.25 L2102.37 1363.25 L2100.78 1363.25 L2099.2 1363.25 L2097.61 1363.25 L2096.03 1363.25 L2094.44 1363.25 L2092.86 1363.25 L2091.27 1363.25 L2089.69 1363.25 L2088.1 1363.25 L2086.52 1363.25 L2084.93 1363.25 L2083.35 1363.25 L2081.76 1363.25 L2080.18 1363.25 L2078.6 1363.25 L2077.01 1363.25 L2075.43 1363.25 L2073.84 1363.25 L2072.26 1363.25 L2070.67 1363.25 L2069.09 1363.25 L2067.5 1363.25 L2065.92 1363.25 L2064.33 1363.25 L2062.75 1363.25 L2061.16 1363.25 L2059.58 1363.25 L2057.99 1363.25 L2056.41 1363.25 L2054.82 1363.25 L2053.24 1363.25 L2051.65 1363.25 L2050.07 1363.25 L2048.49 1363.25 L2046.9 1363.25 L2045.32 1363.25 L2043.73 1363.25 L2042.15 1363.25 L2040.56 1363.25 L2038.98 1363.25 L2037.39 1363.25 L2035.81 1363.25 L2034.22 1363.25 L2032.64 1363.25 L2031.05 1363.25 L2029.47 1363.25 L2027.88 1363.25 L2026.3 1363.25 L2024.71 1363.25 L2023.13 1363.25 L2021.54 1363.25 L2019.96 1363.25 L2018.38 1363.25 L2016.79 1363.25 L2015.21 1363.25 L2013.62 1363.25 L2012.04 1363.25 L2010.45 1363.25 L2008.87 1363.25 L2007.28 1363.25 L2005.7 1363.25 L2004.11 1363.25 L2002.53 1363.25 L2000.94 1363.25 L1999.36 1363.25 L1997.77 1363.25 L1996.19 1363.25 L1994.6 1363.25 L1993.02 1363.25 L1991.43 1363.25 L1989.85 1363.25 L1988.27 1363.25 L1986.68 1363.25 L1985.1 1363.25 L1983.51 1363.25 L1981.93 1363.25 L1980.34 1363.25 L1978.76 1363.25 L1977.17 1363.25 L1975.59 1363.25 L1974 1363.25 L1972.42 1363.25 L1970.83 1363.25 L1969.25 1363.25 L1967.66 1363.25 L1966.08 1363.25 L1964.49 1363.25 L1962.91 1363.25 L1961.32 1363.25 L1959.74 1363.25 L1958.16 1363.25 L1956.57 1363.25 L1954.99 1363.25 L1953.4 1363.25 L1951.82 1363.25 L1950.23 1363.25 L1948.65 1363.25 L1947.06 1363.25 L1945.48 1363.25 L1943.89 1363.25 L1942.31 1363.25 L1940.72 1363.25 L1939.14 1363.25 L1937.55 1363.25 L1935.97 1363.25 L1934.38 1363.25 L1932.8 1363.25 L1931.21 1363.25 L1929.63 1363.25 L1928.04 1363.25 L1926.46 1363.25 L1924.88 1363.25 L1923.29 1363.25 L1921.71 1363.25 L1920.12 1363.25 L1918.54 1363.25 L1916.95 1363.25 L1915.37 1363.25 L1913.78 1363.25 L1912.2 1363.25 L1910.61 1363.25 L1909.03 1363.25 L1907.44 1363.25 L1905.86 1363.25 L1904.27 1363.25 L1902.69 1363.25 L1901.1 1363.25 L1899.52 1363.25 L1897.93 1363.25 L1896.35 1363.25 L1894.77 1363.25 L1893.18 1363.25 L1891.6 1363.25 L1890.01 1363.25 L1888.43 1363.25 L1886.84 1363.25 L1885.26 1363.25 L1883.67 1363.25 L1882.09 1363.25 L1880.5 1363.25 L1878.92 1363.25 L1877.33 1363.25 L1875.75 1363.25 L1874.16 1363.25 L1872.58 1363.25 L1870.99 1363.25 L1869.41 1363.25 L1867.82 1363.25 L1866.24 1363.25 L1864.66 1363.25 L1863.07 1363.25 L1861.49 1363.25 L1859.9 1363.25 L1858.32 1363.25 L1856.73 1363.25 L1855.15 1363.25 L1853.56 1363.25 L1851.98 1363.25 L1850.39 1363.25 L1848.81 1363.25 L1847.22 1363.25 L1845.64 1363.25 L1844.05 1363.25 L1842.47 1363.25 L1840.88 1363.25 L1839.3 1363.25 L1837.71 1363.25 L1836.13 1363.25 L1834.55 1363.25 L1832.96 1363.25 L1831.38 1363.25 L1829.79 1363.25 L1828.21 1363.25 L1826.62 1363.25 L1825.04 1363.25 L1823.45 1363.25 L1821.87 1363.25 L1820.28 1363.25 L1818.7 1363.25 L1817.11 1363.25 L1815.53 1363.25 L1813.94 1363.25 L1812.36 1363.25 L1810.77 1363.25 L1809.19 1363.25 L1807.6 1363.25 L1806.02 1363.25 L1804.43 1363.25 L1802.85 1363.25 L1801.27 1363.25 L1799.68 1363.25 L1798.1 1363.25 L1796.51 1363.25 L1794.93 1363.25 L1793.34 1363.25 L1791.76 1363.25 L1790.17 1363.25 L1788.59 1363.25 L1787 1363.25 L1785.42 1363.25 L1783.83 1363.25 L1782.25 1363.25 L1780.66 1363.25 L1779.08 1363.25 L1777.49 1363.25 L1775.91 1363.25 L1774.32 1363.25 L1772.74 1363.25 L1771.16 1363.25 L1769.57 1363.25 L1767.99 1363.25 L1766.4 1363.25 L1764.82 1363.25 L1763.23 1363.25 L1761.65 1363.25 L1760.06 1363.25 L1758.48 1363.25 L1756.89 1363.25 L1755.31 1363.25 L1753.72 1363.25 L1752.14 1363.25 L1750.55 1363.25 L1748.97 1363.25 L1747.38 1363.25 L1745.8 1363.25 L1744.21 1363.25 L1742.63 1363.25 L1741.05 1363.25 L1739.46 1363.25 L1737.88 1363.25 L1736.29 1363.25 L1734.71 1363.25 L1733.12 1363.25 L1731.54 1363.25 L1729.95 1363.25 L1728.37 1363.25 L1726.78 1363.25 L1725.2 1363.25 L1723.61 1363.25 L1722.03 1363.25 L1720.44 1363.25 L1718.86 1363.25 L1717.27 1363.25 L1715.69 1363.25 L1714.1 1363.25 L1712.52 1363.25 L1710.94 1363.25 L1709.35 1363.25 L1707.77 1363.25 L1706.18 1363.25 L1704.6 1363.25 L1703.01 1363.25 L1701.43 1363.25 L1699.84 1363.25 L1698.26 1363.25 L1696.67 1363.25 L1695.09 1363.25 L1693.5 1363.25 L1691.92 1363.25 L1690.33 1363.25 L1688.75 1363.25 L1687.16 1363.25 L1685.58 1363.25 L1683.99 1363.25 L1682.41 1363.25 L1680.83 1363.25 L1679.24 1363.25 L1677.66 1363.25 L1676.07 1363.25 L1674.49 1363.25 L1672.9 1363.25 L1671.32 1363.25 L1669.73 1363.25 L1668.15 1363.25 L1666.56 1363.25 L1664.98 1363.25 L1663.39 1363.25 L1661.81 1363.25 L1660.22 1363.25 L1658.64 1363.25 L1657.05 1363.25 L1655.47 1363.25 L1653.88 1363.25 L1652.3 1363.25 L1650.71 1363.25 L1649.13 1363.25 L1647.55 1363.25 L1645.96 1363.25 L1644.38 1363.25 L1642.79 1363.25 L1641.21 1363.25 L1639.62 1363.25 L1638.04 1363.25 L1636.45 1363.25 L1634.87 1363.25 L1633.28 1363.25 L1631.7 1363.25 L1630.11 1363.25 L1628.53 1363.25 L1626.94 1363.25 L1625.36 1363.25 L1623.77 1363.25 L1622.19 1363.25 L1620.6 1363.25 L1619.02 1363.25 L1617.44 1363.25 L1615.85 1363.25 L1614.27 1363.25 L1612.68 1363.25 L1611.1 1363.25 L1609.51 1363.25 L1607.93 1363.25 L1606.34 1363.25 L1604.76 1363.25 L1603.17 1363.25 L1601.59 1363.25 L1600 1363.25 L1598.42 1363.25 L1596.83 1363.25 L1595.25 1363.25 L1593.66 1363.25 L1592.08 1363.25 L1590.49 1363.25 L1588.91 1363.25 L1587.33 1363.25 L1585.74 1363.25 L1584.16 1363.25 L1582.57 1363.25 L1580.99 1363.25 L1579.4 1363.25 L1577.82 1363.25 L1576.23 1363.25 L1574.65 1363.25 L1573.06 1363.25 L1571.48 1363.25 L1569.89 1363.25 L1568.31 1363.25 L1566.72 1363.25 L1565.14 1363.25 L1563.55 1363.25 L1561.97 1363.25 L1560.38 1363.25 L1558.8 1363.25 L1557.22 1363.25 L1555.63 1363.25 L1554.05 1363.25 L1552.46 1363.25 L1550.88 1363.25 L1549.29 1363.25 L1547.71 1363.25 L1546.12 1363.25 L1544.54 1363.25 L1542.95 1363.25 L1541.37 1363.25 L1539.78 1363.25 L1538.2 1363.25 L1536.61 1363.25 L1535.03 1363.25 L1533.44 1363.25 L1531.86 1363.25 L1530.27 1363.25 L1528.69 1363.25 L1527.11 1363.25 L1525.52 1363.25 L1523.94 1363.25 L1522.35 1363.25 L1520.77 1363.25 L1519.18 1363.25 L1517.6 1363.25 L1516.01 1363.25 L1514.43 1363.25 L1512.84 1363.25 L1511.26 1363.25 L1509.67 1363.25 L1508.09 1363.25 L1506.5 1363.25 L1504.92 1363.25 L1503.33 1363.25 L1501.75 1363.25 L1500.16 1363.25 L1498.58 1363.25 L1496.99 1363.25 L1495.41 1363.25 L1493.83 1363.25 L1492.24 1363.25 L1490.66 1363.25 L1489.07 1363.25 L1487.49 1363.25 L1485.9 1363.25 L1484.32 1363.25 L1482.73 1363.25 L1481.15 1363.25 L1479.56 1363.25 L1477.98 1363.25 L1476.39 1363.25 L1474.81 1363.25 L1473.22 1363.25 L1471.64 1363.25 L1470.05 1363.25 L1468.47 1363.25 L1466.88 1363.25 L1465.3 1363.25 L1463.72 1363.25 L1462.13 1363.25 L1460.55 1363.25 L1458.96 1363.25 L1457.38 1363.25 L1455.79 1363.25 L1454.21 1363.25 L1452.62 1363.25 L1451.04 1363.25 L1449.45 1363.25 L1447.87 1363.25 L1446.28 1363.25 L1444.7 1363.25 L1443.11 1363.25 L1441.53 1363.25 L1439.94 1363.25 L1438.36 1363.25 L1436.77 1363.25 L1435.19 1363.25 L1433.61 1363.25 L1432.02 1363.25 L1430.44 1363.25 L1428.85 1363.25 L1427.27 1363.25 L1425.68 1363.25 L1424.1 1363.25 L1422.51 1363.25 L1420.93 1363.25 L1419.34 1363.25 L1417.76 1363.25 L1416.17 1363.25 L1414.59 1363.25 L1413 1363.25 L1411.42 1363.25 L1409.83 1363.25 L1408.25 1363.25 L1406.66 1363.25 L1405.08 1363.25 L1403.5 1363.25 L1401.91 1363.25 L1400.33 1363.25 L1398.74 1363.25 L1397.16 1363.25 L1395.57 1363.25 L1393.99 1363.25 L1392.4 1363.25 L1390.82 1363.25 L1389.23 1363.25 L1387.65 1363.25 L1386.06 1363.25 L1384.48 1363.25 L1382.89 1363.25 L1381.31 1363.25 L1379.72 1363.25 L1378.14 1363.25 L1376.55 1363.25 L1374.97 1363.25 L1373.39 1363.25 L1371.8 1363.25 L1370.22 1363.25 L1368.63 1363.25 L1367.05 1363.25 L1365.46 1363.25 L1363.88 1363.25 L1362.29 1363.25 L1360.71 1363.25 L1359.12 1363.25 L1357.54 1363.25 L1355.95 1363.25 L1354.37 1363.25 L1352.78 1363.25 L1351.2 1363.25 L1349.61 1363.25 L1348.03 1363.25 L1346.44 1363.25 L1344.86 1363.25 L1343.27 1363.25 L1341.69 1363.25 L1340.11 1363.25 L1338.52 1363.25 L1336.94 1363.25 L1335.35 1363.25 L1333.77 1363.25 L1332.18 1363.25 L1330.6 1363.25 L1329.01 1363.25 L1327.43 1363.25 L1325.84 1363.25 L1324.26 1363.25 L1322.67 1363.25 L1321.09 1363.25 L1319.5 1363.25 L1317.92 1363.25 L1316.33 1363.25 L1314.75 1363.25 L1313.16 1363.25 L1311.58 1363.25 L1310 1363.25 L1308.41 1363.25 L1306.83 1363.25 L1305.24 1363.25 L1303.66 1363.25 L1302.07 1363.25 L1300.49 1363.25 L1298.9 1363.25 L1297.32 1363.25 L1295.73 1363.25 L1294.15 1363.25 L1292.56 1363.25 L1290.98 1363.25 L1289.39 1363.25 L1287.81 1363.25 L1286.22 1363.25 L1284.64 1363.25 L1283.05 1363.25 L1281.47 1363.25 L1279.89 1363.25 L1278.3 1363.25 L1276.72 1363.25 L1275.13 1363.25 L1273.55 1363.25 L1271.96 1363.25 L1270.38 1363.25 L1268.79 1363.25 L1267.21 1363.25 L1265.62 1363.25 L1264.04 1363.25 L1262.45 1363.25 L1260.87 1363.25 L1259.28 1363.25 L1257.7 1363.25 L1256.11 1363.25 L1254.53 1363.25 L1252.94 1363.25 L1251.36 1363.25 L1249.78 1363.25 L1248.19 1363.25 L1246.61 1363.25 L1245.02 1363.25 L1243.44 1363.25 L1241.85 1363.25 L1240.27 1363.25 L1238.68 1363.25 L1237.1 1363.25 L1235.51 1363.25 L1233.93 1363.25 L1232.34 1363.25 L1230.76 1363.25 L1229.17 1363.25 L1227.59 1363.25 L1226 1363.25 L1224.42 1363.25 L1222.83 1363.25 L1221.25 1363.25 L1219.67 1363.25 L1218.08 1363.25 L1216.5 1363.25 L1214.91 1363.25 L1213.33 1363.25 L1211.74 1363.25 L1210.16 1363.25 L1208.57 1363.25 L1206.99 1363.25 L1205.4 1363.25 L1203.82 1363.25 L1202.23 1363.25 L1200.65 1363.25 L1199.06 1363.25 L1197.48 1363.25 L1195.89 1363.25 L1194.31 1363.25 L1192.72 1363.25 L1191.14 1363.25 L1189.55 1363.25 L1187.97 1363.25 L1186.39 1363.25 L1184.8 1363.25 L1183.22 1363.25 L1181.63 1363.25 L1180.05 1363.25 L1178.46 1363.25 L1176.88 1363.25 L1175.29 1363.25 L1173.71 1363.25 L1172.12 1363.25 L1170.54 1363.25 L1168.95 1363.25 L1167.37 1363.25 L1165.78 1363.25 L1164.2 1363.25 L1162.61 1363.25 L1161.03 1363.25 L1159.44 1363.25 L1157.86 1363.25 L1156.28 1363.25 L1154.69 1363.25 L1153.11 1363.25 L1151.52 1363.25 L1149.94 1363.25 L1148.35 1363.25 L1146.77 1363.25 L1145.18 1363.25 L1143.6 1363.25 L1142.01 1363.25 L1140.43 1363.25 L1138.84 1363.25 L1137.26 1363.25 L1135.67 1363.25 L1134.09 1363.25 L1132.5 1363.25 L1130.92 1363.25 L1129.33 1363.25 L1127.75 1363.25 L1126.17 1363.25 L1124.58 1363.25 L1123 1363.25 L1121.41 1363.25 L1119.83 1363.25 L1118.24 1363.25 L1116.66 1363.25 L1115.07 1363.25 L1113.49 1363.25 L1111.9 1363.25 L1110.32 1363.25 L1108.73 1363.25 L1107.15 1363.25 L1105.56 1363.25 L1103.98 1363.25 L1102.39 1363.25 L1100.81 1363.25 L1099.22 1363.25 L1097.64 1363.25 L1096.06 1363.25 L1094.47 1363.25 L1092.89 1363.25 L1091.3 1363.25 L1089.72 1363.25 L1088.13 1363.25 L1086.55 1363.25 L1084.96 1363.25 L1083.38 1363.25 L1081.79 1363.25 L1080.21 1363.25 L1078.62 1363.25 L1077.04 1363.25 L1075.45 1363.25 L1073.87 1363.25 L1072.28 1363.25 L1070.7 1363.25 L1069.11 1363.25 L1067.53 1363.25 L1065.94 1363.25 L1064.36 1363.25 L1062.78 1363.25 L1061.19 1363.25 L1059.61 1363.25 L1058.02 1363.25 L1056.44 1363.25 L1054.85 1363.25 L1053.27 1363.25 L1051.68 1363.25 L1050.1 1363.25 L1048.51 1363.25 L1046.93 1363.25 L1045.34 1363.25 L1043.76 1363.25 L1042.17 1363.25 L1040.59 1363.25 L1039 1363.25 L1037.42 1363.25 L1035.83 1363.25 L1034.25 1363.25 L1032.67 1363.25 L1031.08 1363.25 L1029.5 1363.25 L1027.91 1363.25 L1026.33 1363.25 L1024.74 1363.25 L1023.16 1363.25 L1021.57 1363.25 L1019.99 1363.25 L1018.4 1363.25 L1016.82 1363.25 L1015.23 1363.25 L1013.65 1363.25 L1012.06 1363.25 L1010.48 1363.25 L1008.89 1363.25 L1007.31 1363.25 L1005.72 1363.25 L1004.14 1363.25 L1002.56 1363.25 L1000.97 1363.25 L999.386 1363.25 L997.801 1363.25 L996.216 1363.25 L994.632 1363.25 L993.047 1363.25 L991.462 1363.25 L989.877 1363.25 L988.293 1363.25 L986.708 1363.25 L985.123 1363.25 L983.538 1363.25 L981.954 1363.25 L980.369 1363.25 L978.784 1363.25 L977.199 1363.25 L975.615 1363.25 L974.03 1363.25 L972.445 1363.25 L970.86 1363.25 L969.276 1363.25 L967.691 1363.25 L966.106 1363.25 L964.521 1363.25 L962.937 1363.25 L961.352 1363.25 L959.767 1363.25 L958.183 1363.25 L956.598 1363.25 L955.013 1363.25 L953.428 1363.25 L951.844 1363.25 L950.259 1363.25 L948.674 1363.25 L947.089 1363.25 L945.505 1363.25 L943.92 1363.25 L942.335 1363.25 L940.75 1363.25 L939.166 1363.25 L937.581 1363.25 L935.996 1363.25 L934.411 1363.25 L932.827 1363.25 L931.242 1363.25 L929.657 1363.25 L928.072 1363.25 L926.488 1363.25 L924.903 1363.25 L923.318 1363.25 L921.733 1363.25 L920.149 1363.25 L918.564 1363.25 L916.979 1363.25 L915.394 1363.25 L913.81 1363.25 L912.225 1363.25 L910.64 1363.25 L909.055 1363.25 L907.471 1363.25 L905.886 1363.25 L904.301 1363.25 L902.717 1363.25 L901.132 1363.25 L899.547 1363.25 L897.962 1363.25 L896.378 1363.25 L894.793 1363.25 L893.208 1363.25 L891.623 1363.25 L890.039 1363.25 L888.454 1363.25 L886.869 1363.25 L885.284 1363.25 L883.7 1363.25 L882.115 1363.25 L880.53 1363.25 L878.945 1363.25 L877.361 1363.25 L875.776 1363.25 L874.191 1363.25 L872.606 1363.25 L871.022 1363.25 L869.437 1363.25 L867.852 1363.25 L866.267 1363.25 L864.683 1363.25 L863.098 1363.25 L861.513 1363.25 L859.928 1363.25 L858.344 1363.25 L856.759 1363.25 L855.174 1363.25 L853.589 1363.25 L852.005 1363.25 L850.42 1363.25 L848.835 1363.25 L847.251 1363.25 L845.666 1363.25 L844.081 1363.25 L842.496 1363.25 L840.912 1363.25 L839.327 1363.25 L837.742 1363.25 L836.157 1363.25 L834.573 1363.25 L832.988 1363.25 L831.403 1363.25 L829.818 1363.25 L828.234 1363.25 L826.649 1363.25 L825.064 1363.25 L823.479 1363.25 L821.895 1363.25 L820.31 1363.25 L818.725 1363.25 L817.14 1363.25 L815.556 1363.25 L813.971 1363.25 L812.386 1363.25 L810.801 1363.25 L809.217 1363.25 L807.632 1363.25 L806.047 1363.25 L804.462 1363.25 L802.878 1363.25 L801.293 1363.25 L799.708 1363.25 L798.124 1363.25 L796.539 1363.25 L794.954 1363.25 L793.369 1363.25 L791.785 1363.25 L790.2 1363.25 L788.615 1363.25 L787.03 1363.25 L785.446 1363.25 L783.861 1363.25 L782.276 1363.25 L780.691 1363.25 L779.107 1363.25 L777.522 1363.25 L775.937 1363.25 L774.352 1363.25 L772.768 1363.25 L771.183 1363.25 L769.598 1363.25 L768.013 1363.25 L766.429 1363.25 L764.844 1363.25 L763.259 1363.25 L761.674 1363.25 L760.09 1363.25 L758.505 1363.25 L756.92 1363.25 L755.335 1363.25 L753.751 1363.25 L752.166 1363.25 L750.581 1363.25 L748.996 1363.25 L747.412 1363.25 L745.827 1363.25 L744.242 1363.25 L742.658 1363.25 L741.073 1363.25 L739.488 1363.25 L737.903 1363.25 L736.319 1363.25 L734.734 1363.25 L733.149 1363.25 L731.564 1363.25 L729.98 1363.25 L728.395 1363.25 L726.81 1363.25 L725.225 1363.25 L723.641 1363.25 L722.056 1363.25 L720.471 1363.25 L718.886 1363.25 L717.302 1363.25 L715.717 1363.25 L714.132 1363.25 L712.547 1363.25 L710.963 1363.25 L709.378 1363.25 L707.793 1363.25 L706.208 1363.25 L704.624 1363.25 L703.039 1363.25 L701.454 1363.25 L699.869 1363.25 L698.285 1363.25 L696.7 1363.25 L695.115 1363.25 L693.531 1363.25 L691.946 1363.25 L690.361 1363.25 L688.776 1363.25 L687.192 1363.25 L685.607 1363.25 L684.022 1363.25 L682.437 1363.25 L680.853 1363.25 L679.268 1363.25 L677.683 1363.25 L676.098 1363.25 L674.514 1363.25 L672.929 1363.25 L671.344 1363.25 L669.759 1363.25 L668.175 1363.25 L666.59 1363.25 L665.005 1363.25 L663.42 1363.25 L661.836 1363.25 L660.251 1363.25 L658.666 1363.25 L657.081 1363.25 L655.497 1363.25 L653.912 1363.25 L652.327 1363.25 L650.742 1363.25 L649.158 1363.25 L647.573 1363.25 L645.988 1363.25 L644.403 1363.25 L642.819 1363.25 L641.234 1363.25 L639.649 1363.25 L638.065 1363.25 L636.48 1363.25 L634.895 1363.25 L633.31 1363.25 L631.726 1363.25 L630.141 1363.25 L628.556 1363.25 L626.971 1363.25 L625.387 1363.25 L623.802 1363.25 L622.217 1363.25 L620.632 1363.25 L619.048 1363.25 L617.463 1363.25 L615.878 1363.25 L614.293 1363.25 L612.709 1363.25 L611.124 1363.25 L609.539 1363.25 L607.954 1363.25 L606.37 1363.25 L604.785 1363.25 L603.2 1363.25 L601.615 1363.25 L600.031 1363.25 L598.446 1363.25 L596.861 1363.25 L595.276 1363.25 L593.692 1363.25 L592.107 1363.25 L590.522 1363.25 L588.937 1363.25 L587.353 1363.25 L585.768 1363.25 L584.183 1363.25 L582.599 1363.25 L581.014 1363.25 L579.429 1363.25 L577.844 1363.25 L576.26 1363.25 L574.675 1363.25 L573.09 1363.25 L571.505 1363.25 L569.921 1363.25 L568.336 1363.25 L566.751 1363.25 L565.166 1363.25 L563.582 1363.25 L561.997 1363.25 L560.412 1363.25 L558.827 1363.25 L557.243 1363.25 L555.658 1363.25 L554.073 1363.25 L552.488 1363.25 L550.904 1363.25 L549.319 1363.25 L547.734 1363.25 L546.149 1363.25 L544.565 1363.25 L542.98 1363.25 L541.395 1363.25 L539.81 1363.25 L538.226 1363.25 L536.641 1363.25 L535.056 1363.25 L533.472 1363.25 L531.887 1363.25 L530.302 1363.25 L528.717 1363.25 L527.133 1363.25 L525.548 1363.25 L523.963 1363.25 L522.378 1363.25 L520.794 1363.25 L519.209 1363.25 L517.624 1363.25 L516.039 1363.25 L514.455 1363.25 L512.87 1363.25 L511.285 1363.25 L509.7 1363.25 L508.116 1363.25 L506.531 1363.25 L504.946 1363.25 L503.361 1363.25 L501.777 1363.25 L500.192 1363.25 L498.607 1363.25 L497.022 1363.25 L495.438 1363.25 L493.853 1363.25 L492.268 1363.25 L490.683 1363.25 L489.099 1363.25 L487.514 1363.25 L485.929 1363.25 L484.344 1363.25 L482.76 1363.25 L481.175 1363.25 L479.59 1363.25 L478.006 1363.25 L476.421 1363.25 L474.836 1363.25 L473.251 1363.25 L471.667 1363.25 L470.082 1363.25 L468.497 1363.25 L466.912 1363.25 L465.328 1363.25 L463.743 1363.25 L462.158 1363.25 L460.573 1363.25 L458.989 1363.25 L457.404 1363.25 L455.819 1363.25 L454.234 1363.25 L452.65 1363.25 L451.065 1363.25 L449.48 1363.25 L447.895 1363.25 L446.311 1363.25 L444.726 1363.25 L443.141 1363.25 L441.556 1363.25 L439.972 1363.25 L438.387 1363.25 L436.802 1363.25 L435.217 1363.25 L433.633 1363.25 L432.048 1363.25 L430.463 1363.25 L428.879 1363.25 L427.294 1363.25 L425.709 1363.25 L424.124 1363.25 L422.54 1363.25 L420.955 1363.25 L419.37 1363.25 L417.785 1363.25 L416.201 1363.25 L414.616 1363.25 L413.031 1363.25 L411.446 1363.25 L409.862 1363.25 L408.277 1363.25 L406.692 1363.25 L405.107 1363.25 L403.523 1363.25 L401.938 1363.25 L400.353 1363.25 L398.768 1363.25 L397.184 1363.25 L395.599 1363.25 L394.014 1363.25  Z" fill="#6a3c9a" fill-rule="evenodd" fill-opacity="0.3"/>
<polyline clip-path="url(#clip352)" style="stroke:#6a3c9a; stroke-linecap:round; stroke-linejoin:round; stroke-width:8; stroke-opacity:1; fill:none" points="394.014,1363.25 395.599,1153.65 397.184,1068.31 398.768,1003.82 400.353,950.286 401.938,903.845 403.523,862.507 405.107,825.083 406.692,790.795 408.277,759.098 409.862,729.594 411.446,701.981 413.031,676.022 414.616,651.528 416.201,628.345 417.785,606.345 419.37,585.421 420.955,565.481 422.54,546.446 424.124,528.249 425.709,510.83 427.294,494.136 428.879,478.12 430.463,462.741 432.048,447.961 433.633,433.746 435.217,420.066 436.802,406.893 438.387,394.201 439.972,381.967 441.556,370.17 443.141,358.789 444.726,347.806 446.311,337.205 447.895,326.97 449.48,317.085 451.065,307.536 452.65,298.312 454.234,289.4 455.819,280.788 457.404,272.465 458.989,264.423 460.573,256.65 462.158,249.138 463.743,241.879 465.328,234.864 466.912,228.085 468.497,221.535 470.082,215.208 471.667,209.096 473.251,203.193 474.836,197.493 476.421,191.991 478.006,186.68 479.59,181.555 481.175,176.612 482.76,171.845 484.344,167.249 485.929,162.821 487.514,158.555 489.099,154.448 490.683,150.495 492.268,146.693 493.853,143.038 495.438,139.526 497.022,136.153 498.607,132.917 500.192,129.814 501.777,126.841 503.361,123.995 504.946,121.272 506.531,118.671 508.116,116.188 509.7,113.82 511.285,111.566 512.87,109.422 514.455,107.386 516.039,105.455 517.624,103.628 519.209,101.902 520.794,100.274 522.378,98.7434 523.963,97.3073 525.548,95.9638 527.133,94.711 528.717,93.5469 530.302,92.4697 531.887,91.4776 533.472,90.5688 535.056,89.7416 536.641,88.9943 538.226,88.3252 539.81,87.7328 541.395,87.2156 542.98,86.7719 544.565,86.4003 546.149,86.0994 547.734,85.8677 549.319,85.7038 550.904,85.6065 552.488,85.5744 554.073,85.6061 555.658,85.7004 557.243,85.8562 558.827,86.0721 560.412,86.347 561.997,86.6798 563.582,87.0692 565.166,87.5143 566.751,88.0139 568.336,88.5669 569.921,89.1723 571.505,89.8291 573.09,90.5364 574.675,91.293 576.26,92.0981 577.844,92.9507 579.429,93.8499 581.014,94.7948 582.599,95.7846 584.183,96.8182 585.768,97.895 587.353,99.014 588.937,100.175 590.522,101.376 592.107,102.617 593.692,103.897 595.276,105.215 596.861,106.571 598.446,107.964 600.031,109.393 601.615,110.857 603.2,112.356 604.785,113.889 606.37,115.456 607.954,117.055 609.539,118.686 611.124,120.349 612.709,122.043 614.293,123.767 615.878,125.52 617.463,127.303 619.048,129.114 620.632,130.953 622.217,132.82 623.802,134.713 625.387,136.632 626.971,138.577 628.556,140.547 630.141,142.543 631.726,144.562 633.31,146.605 634.895,148.671 636.48,150.76 638.065,152.871 639.649,155.004 641.234,157.158 642.819,159.333 644.403,161.529 645.988,163.744 647.573,165.98 649.158,168.234 650.742,170.507 652.327,172.799 653.912,175.108 655.497,177.435 657.081,179.779 658.666,182.14 660.251,184.518 661.836,186.911 663.42,189.32 665.005,191.745 666.59,194.185 668.175,196.639 669.759,199.107 671.344,201.589 672.929,204.086 674.514,206.595 676.098,209.117 677.683,211.652 679.268,214.2 680.853,216.759 682.437,219.33 684.022,221.913 685.607,224.507 687.192,227.111 688.776,229.727 690.361,232.352 691.946,234.988 693.531,237.633 695.115,240.288 696.7,242.953 698.285,245.626 699.869,248.308 701.454,250.998 703.039,253.697 704.624,256.404 706.208,259.118 707.793,261.84 709.378,264.57 710.963,267.306 712.547,270.049 714.132,272.799 715.717,275.555 717.302,278.318 718.886,281.086 720.471,283.861 722.056,286.64 723.641,289.426 725.225,292.216 726.81,295.011 728.395,297.811 729.98,300.616 731.564,303.425 733.149,306.239 734.734,309.056 736.319,311.877 737.903,314.702 739.488,317.531 741.073,320.362 742.658,323.197 744.242,326.035 745.827,328.876 747.412,331.72 748.996,334.566 750.581,337.414 752.166,340.265 753.751,343.117 755.335,345.972 756.92,348.828 758.505,351.686 760.09,354.546 761.674,357.407 763.259,360.269 764.844,363.132 766.429,365.996 768.013,368.861 769.598,371.726 771.183,374.592 772.768,377.459 774.352,380.326 775.937,383.192 777.522,386.059 779.107,388.926 780.691,391.793 782.276,394.659 783.861,397.526 785.446,400.391 787.03,403.256 788.615,406.12 790.2,408.983 791.785,411.846 793.369,414.707 794.954,417.567 796.539,420.426 798.124,423.283 799.708,426.139 801.293,428.994 802.878,431.846 804.462,434.698 806.047,437.547 807.632,440.394 809.217,443.239 810.801,446.083 812.386,448.924 813.971,451.763 815.556,454.599 817.14,457.433 818.725,460.265 820.31,463.094 821.895,465.92 823.479,468.743 825.064,471.564 826.649,474.382 828.234,477.197 829.818,480.009 831.403,482.817 832.988,485.623 834.573,488.425 836.157,491.224 837.742,494.02 839.327,496.812 840.912,499.601 842.496,502.386 844.081,505.168 845.666,507.946 847.251,510.72 848.835,513.49 850.42,516.256 852.005,519.019 853.589,521.777 855.174,524.532 856.759,527.282 858.344,530.029 859.928,532.771 861.513,535.509 863.098,538.242 864.683,540.972 866.267,543.697 867.852,546.417 869.437,549.133 871.022,551.844 872.606,554.551 874.191,557.254 875.776,559.951 877.361,562.644 878.945,565.332 880.53,568.016 882.115,570.694 883.7,573.368 885.284,576.037 886.869,578.701 888.454,581.36 890.039,584.014 891.623,586.662 893.208,589.306 894.793,591.945 896.378,594.578 897.962,597.207 899.547,599.83 901.132,602.448 902.717,605.06 904.301,607.668 905.886,610.27 907.471,612.866 909.055,615.457 910.64,618.043 912.225,620.624 913.81,623.199 915.394,625.768 916.979,628.332 918.564,630.89 920.149,633.443 921.733,635.99 923.318,638.531 924.903,641.067 926.488,643.597 928.072,646.122 929.657,648.641 931.242,651.154 932.827,653.661 934.411,656.163 935.996,658.658 937.581,661.148 939.166,663.632 940.75,666.111 942.335,668.583 943.92,671.05 945.505,673.51 947.089,675.965 948.674,678.414 950.259,680.857 951.844,683.294 953.428,685.725 955.013,688.15 956.598,690.569 958.183,692.982 959.767,695.388 961.352,697.789 962.937,700.184 964.521,702.573 966.106,704.956 967.691,707.332 969.276,709.703 970.86,712.067 972.445,714.426 974.03,716.778 975.615,719.124 977.199,721.464 978.784,723.798 980.369,726.126 981.954,728.447 983.538,730.763 985.123,733.072 986.708,735.375 988.293,737.672 989.877,739.963 991.462,742.247 993.047,744.525 994.632,746.798 996.216,749.063 997.801,751.323 999.386,753.577 1000.97,755.824 1002.56,758.065 1004.14,760.3 1005.72,762.528 1007.31,764.751 1008.89,766.967 1010.48,769.177 1012.06,771.38 1013.65,773.578 1015.23,775.769 1016.82,777.954 1018.4,780.133 1019.99,782.305 1021.57,784.471 1023.16,786.631 1024.74,788.785 1026.33,790.933 1027.91,793.074 1029.5,795.209 1031.08,797.338 1032.67,799.46 1034.25,801.577 1035.83,803.687 1037.42,805.791 1039,807.888 1040.59,809.98 1042.17,812.065 1043.76,814.144 1045.34,816.217 1046.93,818.283 1048.51,820.344 1050.1,822.398 1051.68,824.446 1053.27,826.487 1054.85,828.523 1056.44,830.552 1058.02,832.576 1059.61,834.593 1061.19,836.603 1062.78,838.608 1064.36,840.607 1065.94,842.599 1067.53,844.585 1069.11,846.565 1070.7,848.539 1072.28,850.507 1073.87,852.469 1075.45,854.424 1077.04,856.374 1078.62,858.317 1080.21,860.254 1081.79,862.185 1083.38,864.11 1084.96,866.029 1086.55,867.942 1088.13,869.849 1089.72,871.75 1091.3,873.644 1092.89,875.533 1094.47,877.415 1096.06,879.292 1097.64,881.163 1099.22,883.027 1100.81,884.886 1102.39,886.738 1103.98,888.585 1105.56,890.425 1107.15,892.26 1108.73,894.089 1110.32,895.911 1111.9,897.728 1113.49,899.539 1115.07,901.344 1116.66,903.143 1118.24,904.936 1119.83,906.723 1121.41,908.504 1123,910.28 1124.58,912.049 1126.17,913.813 1127.75,915.571 1129.33,917.323 1130.92,919.069 1132.5,920.809 1134.09,922.544 1135.67,924.273 1137.26,925.996 1138.84,927.713 1140.43,929.424 1142.01,931.13 1143.6,932.83 1145.18,934.524 1146.77,936.213 1148.35,937.896 1149.94,939.573 1151.52,941.244 1153.11,942.91 1154.69,944.57 1156.28,946.225 1157.86,947.873 1159.44,949.517 1161.03,951.154 1162.61,952.786 1164.2,954.413 1165.78,956.033 1167.37,957.649 1168.95,959.258 1170.54,960.862 1172.12,962.461 1173.71,964.054 1175.29,965.641 1176.88,967.223 1178.46,968.8 1180.05,970.371 1181.63,971.937 1183.22,973.497 1184.8,975.052 1186.39,976.601 1187.97,978.145 1189.55,979.683 1191.14,981.216 1192.72,982.744 1194.31,984.266 1195.89,985.784 1197.48,987.295 1199.06,988.802 1200.65,990.303 1202.23,991.798 1203.82,993.289 1205.4,994.774 1206.99,996.254 1208.57,997.728 1210.16,999.198 1211.74,1000.66 1213.33,1002.12 1214.91,1003.57 1216.5,1005.02 1218.08,1006.47 1219.67,1007.91 1221.25,1009.34 1222.83,1010.77 1224.42,1012.19 1226,1013.61 1227.59,1015.02 1229.17,1016.43 1230.76,1017.83 1232.34,1019.23 1233.93,1020.62 1235.51,1022.01 1237.1,1023.39 1238.68,1024.77 1240.27,1026.14 1241.85,1027.51 1243.44,1028.87 1245.02,1030.23 1246.61,1031.58 1248.19,1032.93 1249.78,1034.27 1251.36,1035.61 1252.94,1036.94 1254.53,1038.27 1256.11,1039.59 1257.7,1040.91 1259.28,1042.22 1260.87,1043.53 1262.45,1044.84 1264.04,1046.14 1265.62,1047.43 1267.21,1048.72 1268.79,1050 1270.38,1051.28 1271.96,1052.56 1273.55,1053.83 1275.13,1055.1 1276.72,1056.36 1278.3,1057.61 1279.89,1058.87 1281.47,1060.11 1283.05,1061.36 1284.64,1062.59 1286.22,1063.83 1287.81,1065.06 1289.39,1066.28 1290.98,1067.5 1292.56,1068.72 1294.15,1069.93 1295.73,1071.13 1297.32,1072.33 1298.9,1073.53 1300.49,1074.72 1302.07,1075.91 1303.66,1077.1 1305.24,1078.28 1306.83,1079.45 1308.41,1080.62 1310,1081.79 1311.58,1082.95 1313.16,1084.11 1314.75,1085.26 1316.33,1086.41 1317.92,1087.55 1319.5,1088.69 1321.09,1089.83 1322.67,1090.96 1324.26,1092.09 1325.84,1093.21 1327.43,1094.33 1329.01,1095.44 1330.6,1096.55 1332.18,1097.66 1333.77,1098.76 1335.35,1099.86 1336.94,1100.95 1338.52,1102.04 1340.11,1103.12 1341.69,1104.2 1343.27,1105.28 1344.86,1106.35 1346.44,1107.42 1348.03,1108.48 1349.61,1109.54 1351.2,1110.6 1352.78,1111.65 1354.37,1112.7 1355.95,1113.75 1357.54,1114.79 1359.12,1115.82 1360.71,1116.85 1362.29,1117.88 1363.88,1118.91 1365.46,1119.93 1367.05,1120.94 1368.63,1121.95 1370.22,1122.96 1371.8,1123.97 1373.39,1124.97 1374.97,1125.96 1376.55,1126.96 1378.14,1127.95 1379.72,1128.93 1381.31,1129.91 1382.89,1130.89 1384.48,1131.86 1386.06,1132.83 1387.65,1133.8 1389.23,1134.76 1390.82,1135.72 1392.4,1136.68 1393.99,1137.63 1395.57,1138.57 1397.16,1139.52 1398.74,1140.46 1400.33,1141.39 1401.91,1142.33 1403.5,1143.26 1405.08,1144.18 1406.66,1145.1 1408.25,1146.02 1409.83,1146.94 1411.42,1147.85 1413,1148.75 1414.59,1149.66 1416.17,1150.56 1417.76,1151.46 1419.34,1152.35 1420.93,1153.24 1422.51,1154.13 1424.1,1155.01 1425.68,1155.89 1427.27,1156.76 1428.85,1157.64 1430.44,1158.5 1432.02,1159.37 1433.61,1160.23 1435.19,1161.09 1436.77,1161.95 1438.36,1162.8 1439.94,1163.65 1441.53,1164.49 1443.11,1165.33 1444.7,1166.17 1446.28,1167.01 1447.87,1167.84 1449.45,1168.67 1451.04,1169.49 1452.62,1170.31 1454.21,1171.13 1455.79,1171.95 1457.38,1172.76 1458.96,1173.57 1460.55,1174.37 1462.13,1175.18 1463.72,1175.98 1465.3,1176.77 1466.88,1177.57 1468.47,1178.35 1470.05,1179.14 1471.64,1179.92 1473.22,1180.71 1474.81,1181.48 1476.39,1182.26 1477.98,1183.03 1479.56,1183.8 1481.15,1184.56 1482.73,1185.32 1484.32,1186.08 1485.9,1186.84 1487.49,1187.59 1489.07,1188.34 1490.66,1189.08 1492.24,1189.83 1493.83,1190.57 1495.41,1191.31 1496.99,1192.04 1498.58,1192.77 1500.16,1193.5 1501.75,1194.23 1503.33,1194.95 1504.92,1195.67 1506.5,1196.39 1508.09,1197.1 1509.67,1197.81 1511.26,1198.52 1512.84,1199.22 1514.43,1199.93 1516.01,1200.63 1517.6,1201.32 1519.18,1202.02 1520.77,1202.71 1522.35,1203.4 1523.94,1204.08 1525.52,1204.77 1527.11,1205.45 1528.69,1206.12 1530.27,1206.8 1531.86,1207.47 1533.44,1208.14 1535.03,1208.8 1536.61,1209.47 1538.2,1210.13 1539.78,1210.79 1541.37,1211.44 1542.95,1212.1 1544.54,1212.75 1546.12,1213.39 1547.71,1214.04 1549.29,1214.68 1550.88,1215.32 1552.46,1215.96 1554.05,1216.59 1555.63,1217.22 1557.22,1217.85 1558.8,1218.48 1560.38,1219.1 1561.97,1219.73 1563.55,1220.34 1565.14,1220.96 1566.72,1221.57 1568.31,1222.19 1569.89,1222.79 1571.48,1223.4 1573.06,1224 1574.65,1224.61 1576.23,1225.21 1577.82,1225.8 1579.4,1226.4 1580.99,1226.99 1582.57,1227.58 1584.16,1228.16 1585.74,1228.75 1587.33,1229.33 1588.91,1229.91 1590.49,1230.49 1592.08,1231.06 1593.66,1231.63 1595.25,1232.2 1596.83,1232.77 1598.42,1233.34 1600,1233.9 1601.59,1234.46 1603.17,1235.02 1604.76,1235.57 1606.34,1236.13 1607.93,1236.68 1609.51,1237.23 1611.1,1237.77 1612.68,1238.32 1614.27,1238.86 1615.85,1239.4 1617.44,1239.94 1619.02,1240.47 1620.6,1241.01 1622.19,1241.54 1623.77,1242.07 1625.36,1242.59 1626.94,1243.12 1628.53,1243.64 1630.11,1244.16 1631.7,1244.68 1633.28,1245.2 1634.87,1245.71 1636.45,1246.22 1638.04,1246.73 1639.62,1247.24 1641.21,1247.74 1642.79,1248.25 1644.38,1248.75 1645.96,1249.25 1647.55,1249.74 1649.13,1250.24 1650.71,1250.73 1652.3,1251.22 1653.88,1251.71 1655.47,1252.2 1657.05,1252.68 1658.64,1253.16 1660.22,1253.64 1661.81,1254.12 1663.39,1254.6 1664.98,1255.07 1666.56,1255.55 1668.15,1256.02 1669.73,1256.48 1671.32,1256.95 1672.9,1257.42 1674.49,1257.88 1676.07,1258.34 1677.66,1258.8 1679.24,1259.25 1680.83,1259.71 1682.41,1260.16 1683.99,1260.61 1685.58,1261.06 1687.16,1261.51 1688.75,1261.96 1690.33,1262.4 1691.92,1262.84 1693.5,1263.28 1695.09,1263.72 1696.67,1264.15 1698.26,1264.59 1699.84,1265.02 1701.43,1265.45 1703.01,1265.88 1704.6,1266.31 1706.18,1266.73 1707.77,1267.16 1709.35,1267.58 1710.94,1268 1712.52,1268.42 1714.1,1268.83 1715.69,1269.25 1717.27,1269.66 1718.86,1270.07 1720.44,1270.48 1722.03,1270.89 1723.61,1271.29 1725.2,1271.7 1726.78,1272.1 1728.37,1272.5 1729.95,1272.9 1731.54,1273.3 1733.12,1273.69 1734.71,1274.09 1736.29,1274.48 1737.88,1274.87 1739.46,1275.26 1741.05,1275.65 1742.63,1276.03 1744.21,1276.41 1745.8,1276.8 1747.38,1277.18 1748.97,1277.56 1750.55,1277.93 1752.14,1278.31 1753.72,1278.69 1755.31,1279.06 1756.89,1279.43 1758.48,1279.8 1760.06,1280.17 1761.65,1280.53 1763.23,1280.9 1764.82,1281.26 1766.4,1281.62 1767.99,1281.98 1769.57,1282.34 1771.16,1282.7 1772.74,1283.05 1774.32,1283.41 1775.91,1283.76 1777.49,1284.11 1779.08,1284.46 1780.66,1284.81 1782.25,1285.16 1783.83,1285.5 1785.42,1285.85 1787,1286.19 1788.59,1286.53 1790.17,1286.87 1791.76,1287.21 1793.34,1287.54 1794.93,1287.88 1796.51,1288.21 1798.1,1288.54 1799.68,1288.87 1801.27,1289.2 1802.85,1289.53 1804.43,1289.86 1806.02,1290.18 1807.6,1290.51 1809.19,1290.83 1810.77,1291.15 1812.36,1291.47 1813.94,1291.79 1815.53,1292.1 1817.11,1292.42 1818.7,1292.73 1820.28,1293.05 1821.87,1293.36 1823.45,1293.67 1825.04,1293.98 1826.62,1294.28 1828.21,1294.59 1829.79,1294.89 1831.38,1295.2 1832.96,1295.5 1834.55,1295.8 1836.13,1296.1 1837.71,1296.4 1839.3,1296.69 1840.88,1296.99 1842.47,1297.28 1844.05,1297.58 1845.64,1297.87 1847.22,1298.16 1848.81,1298.45 1850.39,1298.74 1851.98,1299.02 1853.56,1299.31 1855.15,1299.59 1856.73,1299.88 1858.32,1300.16 1859.9,1300.44 1861.49,1300.72 1863.07,1301 1864.66,1301.27 1866.24,1301.55 1867.82,1301.83 1869.41,1302.1 1870.99,1302.37 1872.58,1302.64 1874.16,1302.91 1875.75,1303.18 1877.33,1303.45 1878.92,1303.72 1880.5,1303.98 1882.09,1304.24 1883.67,1304.51 1885.26,1304.77 1886.84,1305.03 1888.43,1305.29 1890.01,1305.55 1891.6,1305.81 1893.18,1306.06 1894.77,1306.32 1896.35,1306.57 1897.93,1306.82 1899.52,1307.08 1901.1,1307.33 1902.69,1307.58 1904.27,1307.83 1905.86,1308.07 1907.44,1308.32 1909.03,1308.56 1910.61,1308.81 1912.2,1309.05 1913.78,1309.29 1915.37,1309.54 1916.95,1309.78 1918.54,1310.01 1920.12,1310.25 1921.71,1310.49 1923.29,1310.73 1924.88,1310.96 1926.46,1311.19 1928.04,1311.43 1929.63,1311.66 1931.21,1311.89 1932.8,1312.12 1934.38,1312.35 1935.97,1312.58 1937.55,1312.8 1939.14,1313.03 1940.72,1313.25 1942.31,1313.48 1943.89,1313.7 1945.48,1313.92 1947.06,1314.14 1948.65,1314.36 1950.23,1314.58 1951.82,1314.8 1953.4,1315.02 1954.99,1315.23 1956.57,1315.45 1958.16,1315.66 1959.74,1315.88 1961.32,1316.09 1962.91,1316.3 1964.49,1316.51 1966.08,1316.72 1967.66,1316.93 1969.25,1317.14 1970.83,1317.34 1972.42,1317.55 1974,1317.76 1975.59,1317.96 1977.17,1318.16 1978.76,1318.37 1980.34,1318.57 1981.93,1318.77 1983.51,1318.97 1985.1,1319.17 1986.68,1319.36 1988.27,1319.56 1989.85,1319.76 1991.43,1319.95 1993.02,1320.15 1994.6,1320.34 1996.19,1320.53 1997.77,1320.73 1999.36,1320.92 2000.94,1321.11 2002.53,1321.3 2004.11,1321.49 2005.7,1321.67 2007.28,1321.86 2008.87,1322.05 2010.45,1322.23 2012.04,1322.42 2013.62,1322.6 2015.21,1322.78 2016.79,1322.97 2018.38,1323.15 2019.96,1323.33 2021.54,1323.51 2023.13,1323.69 2024.71,1323.86 2026.3,1324.04 2027.88,1324.22 2029.47,1324.39 2031.05,1324.57 2032.64,1324.74 2034.22,1324.92 2035.81,1325.09 2037.39,1325.26 2038.98,1325.43 2040.56,1325.6 2042.15,1325.77 2043.73,1325.94 2045.32,1326.11 2046.9,1326.28 2048.49,1326.45 2050.07,1326.61 2051.65,1326.78 2053.24,1326.94 2054.82,1327.1 2056.41,1327.27 2057.99,1327.43 2059.58,1327.59 2061.16,1327.75 2062.75,1327.91 2064.33,1328.07 2065.92,1328.23 2067.5,1328.39 2069.09,1328.55 2070.67,1328.7 2072.26,1328.86 2073.84,1329.02 2075.43,1329.17 2077.01,1329.32 2078.6,1329.48 2080.18,1329.63 2081.76,1329.78 2083.35,1329.93 2084.93,1330.08 2086.52,1330.23 2088.1,1330.38 2089.69,1330.53 2091.27,1330.68 2092.86,1330.83 2094.44,1330.97 2096.03,1331.12 2097.61,1331.27 2099.2,1331.41 2100.78,1331.55 2102.37,1331.7 2103.95,1331.84 2105.54,1331.98 2107.12,1332.12 2108.71,1332.26 2110.29,1332.41 2111.88,1332.54 2113.46,1332.68 2115.04,1332.82 2116.63,1332.96 2118.21,1333.1 2119.8,1333.23 2121.38,1333.37 2122.97,1333.51 2124.55,1333.64 2126.14,1333.77 2127.72,1333.91 2129.31,1334.04 2130.89,1334.17 2132.48,1334.31 2134.06,1334.44 2135.65,1334.57 2137.23,1334.7 2138.82,1334.83 2140.4,1334.96 2141.99,1335.08 2143.57,1335.21 2145.15,1335.34 2146.74,1335.47 2148.32,1335.59 2149.91,1335.72 2151.49,1335.84 2153.08,1335.97 2154.66,1336.09 2156.25,1336.21 2157.83,1336.34 2159.42,1336.46 2161,1336.58 2162.59,1336.7 2164.17,1336.82 2165.76,1336.94 2167.34,1337.06 2168.93,1337.18 2170.51,1337.3 2172.1,1337.42 2173.68,1337.53 2175.26,1337.65 2176.85,1337.77 2178.43,1337.88 2180.02,1338 2181.6,1338.11 2183.19,1338.23 2184.77,1338.34 2186.36,1338.45 2187.94,1338.57 2189.53,1338.68 2191.11,1338.79 2192.7,1338.9 2194.28,1339.01 2195.87,1339.12 2197.45,1339.23 2199.04,1339.34 2200.62,1339.45 2202.21,1339.56 2203.79,1339.67 2205.37,1339.78 2206.96,1339.88 2208.54,1339.99 2210.13,1340.09 2211.71,1340.2 2213.3,1340.3 2214.88,1340.41 2216.47,1340.51 2218.05,1340.62 2219.64,1340.72 2221.22,1340.82 2222.81,1340.92 2224.39,1341.03 2225.98,1341.13 2227.56,1341.23 2229.15,1341.33 2230.73,1341.43 2232.32,1341.53 2233.9,1341.63 2235.48,1341.73 2237.07,1341.82 2238.65,1341.92 2240.24,1342.02 2241.82,1342.12 2243.41,1342.21 2244.99,1342.31 2246.58,1342.4 2248.16,1342.5 2249.75,1342.59 2251.33,1342.69 2252.92,1342.78 2254.5,1342.87 2256.09,1342.97 2257.67,1343.06 2259.26,1343.15 2260.84,1343.24 2262.43,1343.34 2264.01,1343.43 2265.6,1343.52 2267.18,1343.61 2268.76,1343.7 2270.35,1343.79 2271.93,1343.88 2273.52,1343.96 2275.1,1344.05 2276.69,1344.14 2278.27,1344.23 2279.86,1344.31 2281.44,1344.4 2283.03,1344.49 2284.61,1344.57 2286.2,1344.66 2287.78,1344.74 2289.37,1344.83 2290.95,1344.91 2292.54,1344.99 2294.12,1345.08 2295.71,1345.16 "/>
</svg>
