<?xml version="1.0" encoding="utf-8"?>
<svg xmlns="http://www.w3.org/2000/svg" xmlns:xlink="http://www.w3.org/1999/xlink" width="600" height="400" viewBox="0 0 2400 1600">
<defs>
  <clipPath id="clip420">
    <rect x="0" y="0" width="2400" height="1600"/>
  </clipPath>
</defs>
<path clip-path="url(#clip420)" d="
M0 1600 L2400 1600 L2400 0 L0 0  Z
  " fill="#ffffff" fill-rule="evenodd" fill-opacity="1"/>
<defs>
  <clipPath id="clip421">
    <rect x="480" y="0" width="1681" height="1600"/>
  </clipPath>
</defs>
<defs>
  <clipPath id="clip422">
    <rect x="302" y="47" width="2051" height="1303"/>
  </clipPath>
</defs>
<path clip-path="url(#clip420)" d="
M302.311 1349.74 L2352.76 1349.74 L2352.76 47.2441 L302.311 47.2441  Z
  " fill="#ffffff" fill-rule="evenodd" fill-opacity="1"/>
<polyline clip-path="url(#clip420)" style="stroke:#000000; stroke-linecap:round; stroke-linejoin:round; stroke-width:4; stroke-opacity:1; fill:none" points="
  302.311,1349.74 2352.76,1349.74 
  "/>
<polyline clip-path="url(#clip420)" style="stroke:#000000; stroke-linecap:round; stroke-linejoin:round; stroke-width:4; stroke-opacity:1; fill:none" points="
  478.748,1349.74 478.748,1330.84 
  "/>
<polyline clip-path="url(#clip420)" style="stroke:#000000; stroke-linecap:round; stroke-linejoin:round; stroke-width:4; stroke-opacity:1; fill:none" points="
  903.141,1349.74 903.141,1330.84 
  "/>
<polyline clip-path="url(#clip420)" style="stroke:#000000; stroke-linecap:round; stroke-linejoin:round; stroke-width:4; stroke-opacity:1; fill:none" points="
  1327.53,1349.74 1327.53,1330.84 
  "/>
<polyline clip-path="url(#clip420)" style="stroke:#000000; stroke-linecap:round; stroke-linejoin:round; stroke-width:4; stroke-opacity:1; fill:none" points="
  1751.93,1349.74 1751.93,1330.84 
  "/>
<polyline clip-path="url(#clip420)" style="stroke:#000000; stroke-linecap:round; stroke-linejoin:round; stroke-width:4; stroke-opacity:1; fill:none" points="
  2176.32,1349.74 2176.32,1330.84 
  "/>
<path clip-path="url(#clip420)" d="M457.107 1457.29 L474.295 1457.29 L474.295 1397.96 L455.597 1401.71 L455.597 1392.13 L474.191 1388.38 L484.711 1388.38 L484.711 1457.29 L501.899 1457.29 L501.899 1466.14 L457.107 1466.14 L457.107 1457.29 Z" fill="#000000" fill-rule="evenodd" fill-opacity="1" /><path clip-path="url(#clip420)" d="M891.109 1457.29 L927.828 1457.29 L927.828 1466.14 L878.453 1466.14 L878.453 1457.29 Q884.443 1451.09 894.755 1440.67 Q905.12 1430.2 907.776 1427.18 Q912.828 1421.5 914.807 1417.6 Q916.838 1413.64 916.838 1409.84 Q916.838 1403.64 912.463 1399.73 Q908.141 1395.83 901.161 1395.83 Q896.214 1395.83 890.693 1397.55 Q885.224 1399.27 878.974 1402.75 L878.974 1392.13 Q885.328 1389.58 890.849 1388.28 Q896.37 1386.97 900.953 1386.97 Q913.036 1386.97 920.224 1393.02 Q927.411 1399.06 927.411 1409.16 Q927.411 1413.95 925.588 1418.28 Q923.818 1422.55 919.078 1428.38 Q917.776 1429.89 910.797 1437.13 Q903.818 1444.32 891.109 1457.29 Z" fill="#000000" fill-rule="evenodd" fill-opacity="1" /><path clip-path="url(#clip420)" d="M1337.09 1424.21 Q1344.64 1425.83 1348.86 1430.93 Q1353.13 1436.04 1353.13 1443.54 Q1353.13 1455.05 1345.22 1461.35 Q1337.3 1467.65 1322.72 1467.65 Q1317.82 1467.65 1312.61 1466.66 Q1307.46 1465.72 1301.93 1463.8 L1301.93 1453.64 Q1306.31 1456.19 1311.52 1457.49 Q1316.73 1458.8 1322.4 1458.8 Q1332.3 1458.8 1337.46 1454.89 Q1342.66 1450.98 1342.66 1443.54 Q1342.66 1436.66 1337.82 1432.81 Q1333.03 1428.9 1324.43 1428.9 L1315.37 1428.9 L1315.37 1420.25 L1324.85 1420.25 Q1332.61 1420.25 1336.73 1417.18 Q1340.84 1414.06 1340.84 1408.22 Q1340.84 1402.23 1336.57 1399.06 Q1332.35 1395.83 1324.43 1395.83 Q1320.11 1395.83 1315.16 1396.77 Q1310.22 1397.7 1304.28 1399.68 L1304.28 1390.31 Q1310.27 1388.64 1315.48 1387.81 Q1320.74 1386.97 1325.37 1386.97 Q1337.35 1386.97 1344.33 1392.44 Q1351.31 1397.86 1351.31 1407.13 Q1351.31 1413.59 1347.61 1418.07 Q1343.91 1422.49 1337.09 1424.21 Z" fill="#000000" fill-rule="evenodd" fill-opacity="1" /><path clip-path="url(#clip420)" d="M1758.7 1397.55 L1732.13 1439.06 L1758.7 1439.06 L1758.7 1397.55 M1755.94 1388.38 L1769.17 1388.38 L1769.17 1439.06 L1780.26 1439.06 L1780.26 1447.81 L1769.17 1447.81 L1769.17 1466.14 L1758.7 1466.14 L1758.7 1447.81 L1723.59 1447.81 L1723.59 1437.65 L1755.94 1388.38 Z" fill="#000000" fill-rule="evenodd" fill-opacity="1" /><path clip-path="url(#clip420)" d="M2154.44 1388.38 L2195.75 1388.38 L2195.75 1397.23 L2164.08 1397.23 L2164.08 1416.3 Q2166.37 1415.52 2168.66 1415.15 Q2170.95 1414.73 2173.25 1414.73 Q2186.27 1414.73 2193.87 1421.87 Q2201.47 1429 2201.47 1441.19 Q2201.47 1453.74 2193.66 1460.72 Q2185.85 1467.65 2171.63 1467.65 Q2166.74 1467.65 2161.63 1466.82 Q2156.58 1465.98 2151.16 1464.32 L2151.16 1453.74 Q2155.85 1456.3 2160.85 1457.55 Q2165.85 1458.8 2171.42 1458.8 Q2180.43 1458.8 2185.69 1454.06 Q2190.95 1449.32 2190.95 1441.19 Q2190.95 1433.07 2185.69 1428.33 Q2180.43 1423.59 2171.42 1423.59 Q2167.2 1423.59 2162.99 1424.53 Q2158.82 1425.46 2154.44 1427.44 L2154.44 1388.38 Z" fill="#000000" fill-rule="evenodd" fill-opacity="1" /><path clip-path="url(#clip420)" d="M1350.73 1531.47 Q1350.73 1534.42 1348.88 1536.11 Q1347.04 1537.74 1344.93 1537.74 Q1342.93 1537.74 1341.88 1536.58 Q1340.82 1535.42 1340.82 1533.95 Q1340.82 1531.95 1342.3 1530.21 Q1343.77 1528.47 1345.99 1528.1 Q1343.83 1526.73 1340.61 1526.73 Q1338.5 1526.73 1336.66 1527.84 Q1334.87 1528.94 1333.76 1530.37 Q1332.71 1531.79 1331.76 1533.84 Q1330.86 1535.85 1330.49 1537.06 Q1330.18 1538.22 1329.91 1539.48 L1326.22 1554.24 Q1324.43 1561.25 1324.43 1563.72 Q1324.43 1566.78 1325.91 1568.84 Q1327.38 1570.84 1330.33 1570.84 Q1331.49 1570.84 1332.81 1570.52 Q1334.13 1570.15 1335.81 1569.21 Q1337.55 1568.2 1339.08 1566.73 Q1340.66 1565.2 1342.19 1562.62 Q1343.72 1560.04 1344.72 1556.72 Q1345.04 1555.56 1346.09 1555.56 Q1347.41 1555.56 1347.41 1556.61 Q1347.41 1557.51 1346.67 1559.4 Q1345.99 1561.25 1344.46 1563.67 Q1342.98 1566.04 1341.03 1568.2 Q1339.08 1570.31 1336.18 1571.79 Q1333.29 1573.26 1330.12 1573.26 Q1325.59 1573.26 1322.59 1570.84 Q1319.58 1568.42 1318.48 1565.04 Q1318.21 1565.52 1317.84 1566.15 Q1317.48 1566.78 1316.37 1568.2 Q1315.31 1569.57 1314.1 1570.63 Q1312.89 1571.63 1310.99 1572.42 Q1309.15 1573.26 1307.15 1573.26 Q1304.62 1573.26 1302.35 1572.53 Q1300.14 1571.79 1298.56 1570.1 Q1296.97 1568.42 1296.97 1566.1 Q1296.97 1563.51 1298.71 1561.72 Q1300.51 1559.88 1302.93 1559.88 Q1304.46 1559.88 1305.67 1560.77 Q1306.93 1561.67 1306.93 1563.62 Q1306.93 1565.78 1305.46 1567.41 Q1303.98 1569.05 1301.88 1569.47 Q1304.04 1570.84 1307.25 1570.84 Q1310.73 1570.84 1313.47 1567.78 Q1316.21 1564.73 1317.53 1559.61 Q1320.8 1547.33 1322.06 1541.85 Q1323.32 1536.32 1323.32 1533.95 Q1323.32 1531.74 1322.75 1530.21 Q1322.17 1528.68 1321.16 1527.99 Q1320.22 1527.26 1319.32 1526.99 Q1318.48 1526.73 1317.53 1526.73 Q1315.95 1526.73 1314.15 1527.36 Q1312.42 1527.99 1310.31 1529.47 Q1308.25 1530.89 1306.3 1533.84 Q1304.35 1536.79 1303.04 1540.85 Q1302.77 1542.06 1301.61 1542.06 Q1300.35 1542.01 1300.35 1540.96 Q1300.35 1540.06 1301.03 1538.22 Q1301.77 1536.32 1303.25 1533.95 Q1304.77 1531.58 1306.72 1529.47 Q1308.73 1527.31 1311.63 1525.83 Q1314.58 1524.36 1317.74 1524.36 Q1319.16 1524.36 1320.53 1524.67 Q1321.95 1524.94 1323.64 1525.73 Q1325.38 1526.52 1326.91 1528.26 Q1328.44 1530 1329.39 1532.53 Q1330.02 1531.31 1330.86 1530.15 Q1331.76 1529 1333.13 1527.57 Q1334.55 1526.1 1336.5 1525.25 Q1338.5 1524.36 1340.72 1524.36 Q1342.88 1524.36 1344.98 1524.94 Q1347.09 1525.46 1348.88 1527.2 Q1350.73 1528.89 1350.73 1531.47 Z" fill="#000000" fill-rule="evenodd" fill-opacity="1" /><polyline clip-path="url(#clip420)" style="stroke:#000000; stroke-linecap:round; stroke-linejoin:round; stroke-width:4; stroke-opacity:1; fill:none" points="
  302.311,1349.74 302.311,47.2441 
  "/>
<polyline clip-path="url(#clip420)" style="stroke:#000000; stroke-linecap:round; stroke-linejoin:round; stroke-width:4; stroke-opacity:1; fill:none" points="
  302.311,1312.88 321.208,1312.88 
  "/>
<polyline clip-path="url(#clip420)" style="stroke:#000000; stroke-linecap:round; stroke-linejoin:round; stroke-width:4; stroke-opacity:1; fill:none" points="
  302.311,1005.68 321.208,1005.68 
  "/>
<polyline clip-path="url(#clip420)" style="stroke:#000000; stroke-linecap:round; stroke-linejoin:round; stroke-width:4; stroke-opacity:1; fill:none" points="
  302.311,698.492 321.208,698.492 
  "/>
<polyline clip-path="url(#clip420)" style="stroke:#000000; stroke-linecap:round; stroke-linejoin:round; stroke-width:4; stroke-opacity:1; fill:none" points="
  302.311,391.3 321.208,391.3 
  "/>
<polyline clip-path="url(#clip420)" style="stroke:#000000; stroke-linecap:round; stroke-linejoin:round; stroke-width:4; stroke-opacity:1; fill:none" points="
  302.311,84.1072 321.208,84.1072 
  "/>
<path clip-path="url(#clip420)" d="M166.254 1288.02 Q159.934 1288.02 156.734 1294.26 Q153.574 1300.46 153.574 1312.94 Q153.574 1325.37 156.734 1331.61 Q159.934 1337.81 166.254 1337.81 Q172.613 1337.81 175.773 1331.61 Q178.973 1325.37 178.973 1312.94 Q178.973 1300.46 175.773 1294.26 Q172.613 1288.02 166.254 1288.02 M166.254 1281.54 Q176.421 1281.54 181.768 1289.6 Q187.156 1297.63 187.156 1312.94 Q187.156 1328.21 181.768 1336.27 Q176.421 1344.29 166.254 1344.29 Q156.086 1344.29 150.698 1336.27 Q145.351 1328.21 145.351 1312.94 Q145.351 1297.63 150.698 1289.6 Q156.086 1281.54 166.254 1281.54 Z" fill="#000000" fill-rule="evenodd" fill-opacity="1" /><path clip-path="url(#clip420)" d="M201.537 1332.83 L210.084 1332.83 L210.084 1343.12 L201.537 1343.12 L201.537 1332.83 Z" fill="#000000" fill-rule="evenodd" fill-opacity="1" /><path clip-path="url(#clip420)" d="M245.408 1288.02 Q239.089 1288.02 235.889 1294.26 Q232.729 1300.46 232.729 1312.94 Q232.729 1325.37 235.889 1331.61 Q239.089 1337.81 245.408 1337.81 Q251.768 1337.81 254.928 1331.61 Q258.128 1325.37 258.128 1312.94 Q258.128 1300.46 254.928 1294.26 Q251.768 1288.02 245.408 1288.02 M245.408 1281.54 Q255.576 1281.54 260.923 1289.6 Q266.311 1297.63 266.311 1312.94 Q266.311 1328.21 260.923 1336.27 Q255.576 1344.29 245.408 1344.29 Q235.24 1344.29 229.853 1336.27 Q224.506 1328.21 224.506 1312.94 Q224.506 1297.63 229.853 1289.6 Q235.24 1281.54 245.408 1281.54 Z" fill="#000000" fill-rule="evenodd" fill-opacity="1" /><path clip-path="url(#clip420)" d="M168.4 980.832 Q162.081 980.832 158.881 987.07 Q155.721 993.268 155.721 1005.75 Q155.721 1018.18 158.881 1024.42 Q162.081 1030.62 168.4 1030.62 Q174.76 1030.62 177.92 1024.42 Q181.12 1018.18 181.12 1005.75 Q181.12 993.268 177.92 987.07 Q174.76 980.832 168.4 980.832 M168.4 974.351 Q178.568 974.351 183.915 982.412 Q189.303 990.433 189.303 1005.75 Q189.303 1021.02 183.915 1029.08 Q178.568 1037.1 168.4 1037.1 Q158.233 1037.1 152.845 1029.08 Q147.498 1021.02 147.498 1005.75 Q147.498 990.433 152.845 982.412 Q158.233 974.351 168.4 974.351 Z" fill="#000000" fill-rule="evenodd" fill-opacity="1" /><path clip-path="url(#clip420)" d="M203.684 1025.64 L212.231 1025.64 L212.231 1035.92 L203.684 1035.92 L203.684 1025.64 Z" fill="#000000" fill-rule="evenodd" fill-opacity="1" /><path clip-path="url(#clip420)" d="M231.473 1029.04 L244.841 1029.04 L244.841 982.898 L230.298 985.815 L230.298 978.361 L244.76 975.444 L252.943 975.444 L252.943 1029.04 L266.311 1029.04 L266.311 1035.92 L231.473 1035.92 L231.473 1029.04 Z" fill="#000000" fill-rule="evenodd" fill-opacity="1" /><path clip-path="url(#clip420)" d="M169.049 673.64 Q162.729 673.64 159.529 679.878 Q156.369 686.076 156.369 698.553 Q156.369 710.989 159.529 717.227 Q162.729 723.425 169.049 723.425 Q175.409 723.425 178.568 717.227 Q181.768 710.989 181.768 698.553 Q181.768 686.076 178.568 679.878 Q175.409 673.64 169.049 673.64 M169.049 667.158 Q179.216 667.158 184.564 675.22 Q189.951 683.24 189.951 698.553 Q189.951 713.825 184.564 721.886 Q179.216 729.907 169.049 729.907 Q158.881 729.907 153.493 721.886 Q148.146 713.825 148.146 698.553 Q148.146 683.24 153.493 675.22 Q158.881 667.158 169.049 667.158 Z" fill="#000000" fill-rule="evenodd" fill-opacity="1" /><path clip-path="url(#clip420)" d="M204.332 718.443 L212.879 718.443 L212.879 728.732 L204.332 728.732 L204.332 718.443 Z" fill="#000000" fill-rule="evenodd" fill-opacity="1" /><path clip-path="url(#clip420)" d="M237.752 721.845 L266.311 721.845 L266.311 728.732 L227.908 728.732 L227.908 721.845 Q232.567 717.025 240.588 708.923 Q248.649 700.781 250.715 698.431 Q254.644 694.016 256.184 690.978 Q257.763 687.899 257.763 684.942 Q257.763 680.121 254.361 677.083 Q250.998 674.045 245.57 674.045 Q241.722 674.045 237.428 675.382 Q233.174 676.718 228.313 679.432 L228.313 671.169 Q233.255 669.184 237.549 668.171 Q241.843 667.158 245.408 667.158 Q254.806 667.158 260.397 671.857 Q265.987 676.556 265.987 684.415 Q265.987 688.142 264.569 691.504 Q263.192 694.826 259.505 699.363 Q258.493 700.538 253.064 706.168 Q247.636 711.759 237.752 721.845 Z" fill="#000000" fill-rule="evenodd" fill-opacity="1" /><path clip-path="url(#clip420)" d="M167.388 366.447 Q161.068 366.447 157.868 372.686 Q154.708 378.884 154.708 391.36 Q154.708 403.797 157.868 410.035 Q161.068 416.233 167.388 416.233 Q173.748 416.233 176.907 410.035 Q180.108 403.797 180.108 391.36 Q180.108 378.884 176.907 372.686 Q173.748 366.447 167.388 366.447 M167.388 359.966 Q177.556 359.966 182.903 368.027 Q188.29 376.048 188.29 391.36 Q188.29 406.632 182.903 414.694 Q177.556 422.714 167.388 422.714 Q157.22 422.714 151.832 414.694 Q146.485 406.632 146.485 391.36 Q146.485 376.048 151.832 368.027 Q157.22 359.966 167.388 359.966 Z" fill="#000000" fill-rule="evenodd" fill-opacity="1" /><path clip-path="url(#clip420)" d="M202.671 411.25 L211.219 411.25 L211.219 421.54 L202.671 421.54 L202.671 411.25 Z" fill="#000000" fill-rule="evenodd" fill-opacity="1" /><path clip-path="url(#clip420)" d="M253.834 388.93 Q259.708 390.186 262.989 394.155 Q266.311 398.125 266.311 403.959 Q266.311 412.911 260.153 417.813 Q253.996 422.714 242.654 422.714 Q238.846 422.714 234.795 421.945 Q230.784 421.216 226.49 419.717 L226.49 411.817 Q229.893 413.802 233.944 414.815 Q237.995 415.828 242.411 415.828 Q250.107 415.828 254.118 412.79 Q258.169 409.751 258.169 403.959 Q258.169 398.611 254.401 395.614 Q250.674 392.576 243.99 392.576 L236.942 392.576 L236.942 385.851 L244.314 385.851 Q250.35 385.851 253.55 383.461 Q256.751 381.031 256.751 376.494 Q256.751 371.835 253.429 369.364 Q250.148 366.852 243.99 366.852 Q240.628 366.852 236.78 367.582 Q232.931 368.311 228.313 369.85 L228.313 362.558 Q232.972 361.262 237.023 360.614 Q241.114 359.966 244.72 359.966 Q254.037 359.966 259.465 364.219 Q264.893 368.432 264.893 375.643 Q264.893 380.666 262.017 384.15 Q259.141 387.593 253.834 388.93 Z" fill="#000000" fill-rule="evenodd" fill-opacity="1" /><path clip-path="url(#clip420)" d="M165.403 59.2549 Q159.083 59.2549 155.883 65.4933 Q152.723 71.6912 152.723 84.1679 Q152.723 96.6042 155.883 102.843 Q159.083 109.04 165.403 109.04 Q171.763 109.04 174.922 102.843 Q178.123 96.6042 178.123 84.1679 Q178.123 71.6912 174.922 65.4933 Q171.763 59.2549 165.403 59.2549 M165.403 52.7734 Q175.571 52.7734 180.918 60.8347 Q186.305 68.8555 186.305 84.1679 Q186.305 99.4399 180.918 107.501 Q175.571 115.522 165.403 115.522 Q155.235 115.522 149.847 107.501 Q144.5 99.4399 144.5 84.1679 Q144.5 68.8555 149.847 60.8347 Q155.235 52.7734 165.403 52.7734 Z" fill="#000000" fill-rule="evenodd" fill-opacity="1" /><path clip-path="url(#clip420)" d="M200.686 104.058 L209.234 104.058 L209.234 114.347 L200.686 114.347 L200.686 104.058 Z" fill="#000000" fill-rule="evenodd" fill-opacity="1" /><path clip-path="url(#clip420)" d="M249.54 60.9968 L228.88 93.2825 L249.54 93.2825 L249.54 60.9968 M247.393 53.8672 L257.682 53.8672 L257.682 93.2825 L266.311 93.2825 L266.311 100.088 L257.682 100.088 L257.682 114.347 L249.54 114.347 L249.54 100.088 L222.237 100.088 L222.237 92.1887 L247.393 53.8672 Z" fill="#000000" fill-rule="evenodd" fill-opacity="1" /><path clip-path="url(#clip420)" d="M31.1272 850.826 Q37.0296 850.826 42.4578 855.2 Q47.8859 859.521 51.2061 866.583 Q54.4735 873.592 54.4735 881.129 L54.4735 899.468 L81.4562 906.161 Q81.6143 906.214 82.2994 906.372 Q82.9318 906.53 83.3007 906.53 Q84.6182 906.53 84.9344 904.897 Q85.2506 903.21 85.2506 899.468 Q85.2506 897.044 85.6722 896.675 Q85.9357 896.465 86.41 896.465 Q87.1478 896.465 87.6748 896.675 Q88.1491 896.886 88.3072 897.308 Q88.4653 897.677 88.518 897.94 Q88.5707 898.204 88.5707 898.625 Q88.5707 899.732 88.4653 902.103 Q88.3599 904.422 88.3599 905.634 L88.2545 912.538 L88.5707 926.24 Q88.5707 927.874 87.2532 927.874 Q86.2519 927.874 85.8303 927.452 Q85.356 927.031 85.3033 926.556 Q85.2506 926.082 85.2506 924.87 Q85.2506 922.235 85.0925 920.654 Q84.9344 919.073 84.7236 918.072 Q84.4601 917.018 83.7223 916.491 Q82.9845 915.911 82.3521 915.647 Q81.667 915.384 80.1386 915.015 L22.1681 900.575 Q20.429 900.154 20.1655 900.154 Q19.2696 900.154 18.9534 900.681 Q18.5845 901.155 18.4264 902.525 Q18.2156 905.16 18.2156 907.163 Q18.2156 908.48 18.1629 909.007 Q18.1102 909.482 17.8466 909.903 Q17.5304 910.272 16.898 910.272 Q15.8967 910.272 15.4751 909.85 Q15.0008 909.376 14.9481 908.849 Q14.8427 908.322 14.8427 907.057 L14.8427 872.064 Q14.8427 861.998 19.6385 856.412 Q24.4342 850.826 31.1272 850.826 M28.5449 860.839 Q18.2156 860.839 18.2156 875.542 L18.2156 885.872 Q18.2156 889.297 18.848 890.14 Q19.4277 890.984 22.3262 891.721 L51.6804 899.047 L51.6804 883.816 Q51.6804 873.592 45.936 867.216 Q43.301 864.317 37.8201 862.578 Q32.3393 860.839 28.5449 860.839 Z" fill="#000000" fill-rule="evenodd" fill-opacity="1" /><path clip-path="url(#clip420)" d="M61.5881 838.989 Q43.3537 838.989 28.6503 832.19 Q22.4843 829.292 17.3196 825.234 Q12.155 821.176 9.88887 818.488 Q7.62275 815.801 7.62275 815.063 Q7.62275 814.009 8.67676 813.956 Q9.20377 813.956 10.5213 815.379 Q28.2286 832.77 61.5881 832.717 Q95.0529 832.717 112.075 815.801 Q113.92 813.956 114.499 813.956 Q115.553 813.956 115.553 815.063 Q115.553 815.801 113.393 818.383 Q111.232 820.965 106.278 824.97 Q101.324 828.976 95.2637 831.874 Q80.5602 838.989 61.5881 838.989 Z" fill="#000000" fill-rule="evenodd" fill-opacity="1" /><path clip-path="url(#clip420)" d="M16.0548 717.229 Q17.0034 717.229 17.5304 717.598 Q18.0048 717.914 18.1102 718.283 Q18.1629 718.652 18.2156 719.601 Q18.5845 727.137 23.6964 733.303 Q25.0139 734.831 29.1246 738.678 Q33.2352 742.473 38.716 747.532 Q44.1969 752.539 47.1481 755.437 L80.4548 741.524 Q81.7724 740.945 82.3521 740.734 Q82.8791 740.47 83.5642 739.943 Q84.2493 739.364 84.4601 738.942 Q84.6709 738.468 84.9344 737.466 Q85.1452 736.412 85.1979 735.358 Q85.1979 734.252 85.2506 732.249 Q85.2506 731.617 85.3033 731.353 Q85.3033 731.037 85.6195 730.668 Q85.883 730.299 86.5154 730.299 Q87.464 730.299 87.991 730.721 Q88.4653 731.09 88.518 731.459 Q88.5707 731.775 88.5707 732.354 Q88.5707 733.725 88.4126 738.362 Q88.2545 743 88.2545 744.317 L88.5707 757.914 Q88.5707 759.548 87.2532 759.548 Q86.5681 759.548 86.1992 759.442 Q85.7776 759.284 85.6195 758.915 Q85.4087 758.547 85.356 758.283 Q85.3033 758.02 85.2506 757.387 Q85.0398 755.437 84.4601 753.962 Q83.8277 752.433 83.1953 751.801 Q82.5629 751.116 82.0886 751.116 L80.5602 751.643 L54.7897 762.552 L65.3825 772.301 L77.0293 783.316 Q80.1386 786.214 81.8778 786.214 Q84.7763 786.214 85.2506 781.893 Q85.356 780.575 86.41 780.575 Q87.4113 780.575 87.9383 780.997 Q88.4126 781.366 88.518 781.735 Q88.5707 782.051 88.5707 782.525 Q88.5707 784.475 88.4126 788.586 Q88.2545 792.644 88.2545 794.646 Q88.2545 796.333 88.4126 799.758 Q88.5707 803.184 88.5707 804.765 Q88.5707 805.397 88.2545 805.766 Q87.9383 806.135 87.6221 806.135 L87.3586 806.188 Q86.6208 806.188 86.1992 806.082 Q85.7776 805.924 85.5668 805.503 Q85.356 805.028 85.356 804.818 Q85.3033 804.607 85.2506 803.816 Q84.9871 799.337 83.248 795.542 Q81.5089 791.695 77.4509 787.953 Q77.1874 787.637 76.8712 787.268 Q76.555 786.847 76.2915 786.531 L51.7858 763.764 L21.6411 776.517 Q20.2709 777.097 19.6912 777.624 Q19.0588 778.151 18.6372 779.785 Q18.2156 781.419 18.2156 784.581 Q18.2156 785.477 18.1629 785.898 Q18.1102 786.32 17.8466 786.689 Q17.5831 787.058 17.0034 787.058 Q16.0021 787.058 15.5278 786.689 Q15.0008 786.267 14.9481 785.951 Q14.8427 785.582 14.8427 785.108 Q14.8427 783.79 15.0008 779.1 Q15.1589 774.409 15.1589 773.039 Q15.1589 770.773 15.0008 766.241 Q14.8427 761.656 14.8427 759.442 Q14.8427 757.809 16.1602 757.809 Q17.0034 757.809 17.4777 758.178 Q17.952 758.547 18.0575 758.915 Q18.1629 759.284 18.2156 759.969 Q18.4264 762.025 19.1115 763.606 Q19.7439 765.134 20.3763 765.767 Q20.956 766.346 21.3249 766.346 L22.7478 765.819 L44.1969 756.755 L25.4355 739.258 Q23.1167 737.203 21.5357 737.203 Q18.6899 737.203 18.2156 741.524 Q18.0048 742.842 17.0034 742.842 Q16.0021 742.842 15.5278 742.42 Q15.0008 741.999 14.9481 741.682 Q14.8427 741.314 14.8427 740.786 Q14.8427 738.837 15.0008 734.831 Q15.1589 730.773 15.1589 728.771 Q15.1589 727.084 15.0008 723.659 Q14.8427 720.233 14.8427 718.652 Q14.8427 718.02 15.1589 717.651 Q15.4224 717.282 15.7386 717.282 L16.0548 717.229 Z" fill="#000000" fill-rule="evenodd" fill-opacity="1" /><path clip-path="url(#clip420)" d="M72.1809 687.778 Q70.8634 687.673 70.8634 685.618 L70.8634 619.479 Q70.8634 616.369 72.0755 616.316 Q73.393 616.316 73.3403 619.268 L73.3403 684.88 Q73.393 687.778 72.1809 687.778 M51.1007 687.778 Q49.7832 687.778 49.8359 685.512 L49.8359 619.584 Q49.8359 616.369 51.1007 616.316 Q52.3128 616.316 52.3128 619.057 L52.3128 685.618 Q52.3128 687.778 51.1007 687.778 Z" fill="#000000" fill-rule="evenodd" fill-opacity="1" /><path clip-path="url(#clip420)" d="M47.9913 520.938 Q50.9426 520.938 52.629 522.783 Q54.2627 524.627 54.2627 526.735 Q54.2627 528.738 53.1033 529.792 Q51.9439 530.846 50.4683 530.846 Q48.4656 530.846 46.7265 529.37 Q44.9874 527.895 44.6185 525.681 Q43.2483 527.842 43.2483 531.057 Q43.2483 533.165 44.355 535.009 Q45.4617 536.801 46.8846 537.908 Q48.3075 538.962 50.3629 539.91 Q52.3655 540.806 53.5776 541.175 Q54.737 541.491 56.0018 541.755 L70.758 545.444 Q77.7671 547.236 80.244 547.236 Q83.3007 547.236 85.356 545.76 Q87.3586 544.284 87.3586 541.333 Q87.3586 540.174 87.0424 538.856 Q86.6735 537.539 85.7249 535.852 Q84.7236 534.113 83.248 532.585 Q81.7197 531.004 79.1373 529.476 Q76.555 527.947 73.2349 526.946 Q72.0755 526.63 72.0755 525.576 Q72.0755 524.258 73.1295 524.258 Q74.0254 524.258 75.9226 524.996 Q77.7671 525.681 80.1913 527.209 Q82.5629 528.685 84.7236 530.635 Q86.8316 532.585 88.3072 535.483 Q89.7828 538.382 89.7828 541.544 Q89.7828 546.076 87.3586 549.08 Q84.9344 552.084 81.5616 553.191 Q82.0359 553.454 82.6683 553.823 Q83.3007 554.192 84.7236 555.299 Q86.0938 556.353 87.1478 557.565 Q88.1491 558.777 88.9396 560.674 Q89.7828 562.519 89.7828 564.521 Q89.7828 567.051 89.045 569.317 Q88.3072 571.531 86.6208 573.112 Q84.9344 574.693 82.6156 574.693 Q80.0332 574.693 78.2414 572.953 Q76.3969 571.162 76.3969 568.737 Q76.3969 567.209 77.2928 565.997 Q78.1887 564.732 80.1386 564.732 Q82.2994 564.732 83.9331 566.208 Q85.5668 567.683 85.9884 569.791 Q87.3586 567.631 87.3586 564.416 Q87.3586 560.938 84.302 558.197 Q81.2454 555.457 76.1334 554.139 Q63.8542 550.872 58.3733 549.607 Q52.8398 548.342 50.4683 548.342 Q48.2548 548.342 46.7265 548.922 Q45.1982 549.502 44.5131 550.503 Q43.7753 551.452 43.5118 552.348 Q43.2483 553.191 43.2483 554.139 Q43.2483 555.72 43.8807 557.512 Q44.5131 559.251 45.9887 561.359 Q47.4116 563.415 50.3629 565.365 Q53.3141 567.314 57.372 568.632 Q58.5841 568.896 58.5841 570.055 Q58.5314 571.32 57.4774 571.32 Q56.5815 571.32 54.737 570.635 Q52.8398 569.897 50.4683 568.421 Q48.0967 566.893 45.9887 564.943 Q43.828 562.94 42.3524 560.042 Q40.8768 557.091 40.8768 553.929 Q40.8768 552.506 41.193 551.135 Q41.4565 549.713 42.247 548.026 Q43.0375 546.287 44.7766 544.759 Q46.5157 543.23 49.0453 542.282 Q47.8332 541.649 46.6738 540.806 Q45.5144 539.91 44.0915 538.54 Q42.6159 537.117 41.7727 535.167 Q40.8768 533.165 40.8768 530.951 Q40.8768 528.79 41.4565 526.682 Q41.9835 524.574 43.7226 522.783 Q45.409 520.938 47.9913 520.938 Z" fill="#000000" fill-rule="evenodd" fill-opacity="1" /><path clip-path="url(#clip420)" d="M114.499 510.551 Q113.972 510.551 112.655 509.181 Q94.9475 491.79 61.5881 491.79 Q28.1232 491.79 11.2064 508.496 Q9.25647 510.551 8.67676 510.551 Q7.62275 510.551 7.62275 509.497 Q7.62275 508.759 9.78347 506.177 Q11.9442 503.542 16.898 499.589 Q21.8519 495.584 27.9124 492.633 Q42.6159 485.518 61.5881 485.518 Q79.8224 485.518 94.5259 492.317 Q100.692 495.215 105.856 499.273 Q111.021 503.331 113.287 506.019 Q115.553 508.706 115.553 509.497 Q115.553 510.551 114.499 510.551 Z" fill="#000000" fill-rule="evenodd" fill-opacity="1" /><path clip-path="url(#clip422)" d="
M415.089 1005.68 L415.089 1312.88 L542.407 1312.88 L542.407 1005.68 L415.089 1005.68 L415.089 1005.68  Z
  " fill="#ff7e00" fill-rule="evenodd" fill-opacity="1"/>
<polyline clip-path="url(#clip422)" style="stroke:#000000; stroke-linecap:round; stroke-linejoin:round; stroke-width:0; stroke-opacity:1; fill:none" points="
  415.089,1005.68 415.089,1312.88 542.407,1312.88 542.407,1005.68 415.089,1005.68 
  "/>
<path clip-path="url(#clip422)" d="
M839.482 544.896 L839.482 1312.88 L966.8 1312.88 L966.8 544.896 L839.482 544.896 L839.482 544.896  Z
  " fill="#ff7e00" fill-rule="evenodd" fill-opacity="1"/>
<polyline clip-path="url(#clip422)" style="stroke:#000000; stroke-linecap:round; stroke-linejoin:round; stroke-width:0; stroke-opacity:1; fill:none" points="
  839.482,544.896 839.482,1312.88 966.8,1312.88 966.8,544.896 839.482,544.896 
  "/>
<path clip-path="url(#clip422)" d="
M1263.87 84.1072 L1263.87 1312.88 L1391.19 1312.88 L1391.19 84.1072 L1263.87 84.1072 L1263.87 84.1072  Z
  " fill="#ff7e00" fill-rule="evenodd" fill-opacity="1"/>
<polyline clip-path="url(#clip422)" style="stroke:#000000; stroke-linecap:round; stroke-linejoin:round; stroke-width:0; stroke-opacity:1; fill:none" points="
  1263.87,84.1072 1263.87,1312.88 1391.19,1312.88 1391.19,84.1072 1263.87,84.1072 
  "/>
<path clip-path="url(#clip422)" d="
M1688.27 698.492 L1688.27 1312.88 L1815.59 1312.88 L1815.59 698.492 L1688.27 698.492 L1688.27 698.492  Z
  " fill="#ff7e00" fill-rule="evenodd" fill-opacity="1"/>
<polyline clip-path="url(#clip422)" style="stroke:#000000; stroke-linecap:round; stroke-linejoin:round; stroke-width:0; stroke-opacity:1; fill:none" points="
  1688.27,698.492 1688.27,1312.88 1815.59,1312.88 1815.59,698.492 1688.27,698.492 
  "/>
<path clip-path="url(#clip422)" d="
M2112.66 1159.28 L2112.66 1312.88 L2239.98 1312.88 L2239.98 1159.28 L2112.66 1159.28 L2112.66 1159.28  Z
  " fill="#ff7e00" fill-rule="evenodd" fill-opacity="1"/>
<polyline clip-path="url(#clip422)" style="stroke:#000000; stroke-linecap:round; stroke-linejoin:round; stroke-width:0; stroke-opacity:1; fill:none" points="
  2112.66,1159.28 2112.66,1312.88 2239.98,1312.88 2239.98,1159.28 2112.66,1159.28 
  "/>
<circle clip-path="url(#clip422)" style="fill:#ff7e00; stroke:none; fill-opacity:0" cx="478.748" cy="1005.68" r="2"/>
<circle clip-path="url(#clip422)" style="fill:#ff7e00; stroke:none; fill-opacity:0" cx="903.141" cy="544.896" r="2"/>
<circle clip-path="url(#clip422)" style="fill:#ff7e00; stroke:none; fill-opacity:0" cx="1327.53" cy="84.1072" r="2"/>
<circle clip-path="url(#clip422)" style="fill:#ff7e00; stroke:none; fill-opacity:0" cx="1751.93" cy="698.492" r="2"/>
<circle clip-path="url(#clip422)" style="fill:#ff7e00; stroke:none; fill-opacity:0" cx="2176.32" cy="1159.28" r="2"/>
</svg>
