<?xml version="1.0" encoding="UTF-8" standalone="no"?>
<svg 
   width="410.88pt"
   height="228pt"
   viewBox="0 0 410.88 228"
   version="1.1"
   id="svg10"
   xmlns="http://www.w3.org/2000/svg"
   xmlns:svg="http://www.w3.org/2000/svg" content="%3Cmxfile%20host%3D%22app.diagrams.net%22%20modified%3D%222023-01-23T13%3A16%3A31.880Z%22%20agent%3D%225.0%20(X11%3B%20Linux%20x86_64)%20AppleWebKit%2F537.36%20(KHTML%2C%20like%20Gecko)%20Chrome%2F109.0.0.0%20Safari%2F537.36%22%20etag%3D%22oGYg5dAYkaOeuhhzX8zc%22%20version%3D%2220.8.5%22%3E%3Cdiagram%20id%3D%22iNSDWAqDzrjI0HOQl_qb%22%20name%3D%22Page-1%22%3E7VZdb5swFP01PKYCHD7yGGjXSVNfFq3r2%2BSBAW8GM%2BM0yX79rsN1gELVVWr3NAkJ%2B9xrX%2FucY4ND0vp4q2hb3cmcCcd386NDrh3fJyRYw8sgpx7xYo%2F0SKl4jtgA7PhvhqCL6J7nrJskaimF5u0UzGTTsExPMKqUPEzTCimmVVtaYkV3AHYZFWyW9pXnuurROBhlf2S8rGxlz8VITW0yTtFVNJeHUS1y45BUSan7Vn1MmTDsWV76iT48E70sTLFG%2F80AV4n08z1%2FYN3dl6r4tHr49uN%2BhfI8UrHHDeNi9ckyoOS%2ByZmZxHVIcqi4ZruWZiZ6ANEBq3QtoOdBs9NK%2FrwwBXtMJORybeQPzPj5qnEjj0xpdhxBuItbJmum1QlSbHSDFKOnfCvGYRBoHSFWjcQhVhuKpigvcw%2B8QQOpewWN3ss0wizgWfYyhQUXIpVCqvM4klMWF9mF2lEkzGL2vVgk%2FQ1Y9ok%2FZTmKZix7m2DOshe8F8tkgeVQaMNAS5sJ3eGvvTlXSSEbverOt8oWEojfHs%2F02Di0yv69Nk%2BQAjsaSI2SrRNdI4pFYM19HTvkicJm6NJpsJI1smFP9EWICl420M1ALgZ4YmTicAltMVDzPBfPeWd6QM2O8Rolb2WFzeYqmJiBkLkZQvdqwQ2EvJMZon9pht1%2FM1gzhO7UCn4QL1hh6fJ9tRGgO3wez7HRXwa5%2BQM%3D%3C%2Fdiagram%3E%3C%2Fmxfile%3E">
  <defs
     id="defs14" />
  <path
     fill-rule="nonzero"
     fill="rgb(100%, 100%, 100%)"
     fill-opacity="0.502"
     stroke-width="2"
     stroke-linecap="butt"
     stroke-linejoin="miter"
     stroke="rgb(0%, 0%, 0%)"
     stroke-opacity="0.502"
     stroke-miterlimit="4"
     d="M 1 1 L 471.00002 1 L 471.00002 301.000013 L 1 301.000013 Z M 1 1 "
     transform="matrix(0.75, 0, 0, 0.75, 0, 0)"
     id="path2" />
  <path
     fill-rule="nonzero"
     fill="rgb(85.488892%, 90.979004%, 98.81897%)"
     fill-opacity="1"
     stroke-width="2"
     stroke-linecap="butt"
     stroke-linejoin="miter"
     stroke="rgb(42.349243%, 55.688477%, 74.899292%)"
     stroke-opacity="1"
     stroke-miterlimit="4"
     d="M 238.00001 103.000004 C 238.00001 104.229171 237.958343 105.453129 237.880218 106.682296 C 237.802093 107.906254 237.68751 109.130213 237.53126 110.348963 C 237.37501 111.572921 237.177093 112.791671 236.942718 114.005213 C 236.708343 115.218755 236.43751 116.427088 236.12501 117.630213 C 235.817718 118.833338 235.463551 120.031255 235.078135 121.223963 C 234.692718 122.416672 234.265635 123.598963 233.802093 124.770839 C 233.338551 125.947922 232.838551 127.10938 232.302093 128.26563 C 231.760426 129.42188 231.18751 130.567714 230.578135 131.70313 C 229.96876 132.833339 229.322926 133.958339 228.640635 135.067714 C 227.958343 136.177089 227.239593 137.270839 226.489593 138.354172 C 225.734384 139.437506 224.947926 140.505214 224.130218 141.557298 C 223.307301 142.609381 222.453134 143.645839 221.567718 144.666673 C 220.682301 145.687506 219.765634 146.692714 218.812509 147.677089 C 217.864592 148.661465 216.880217 149.630215 215.869801 150.578131 C 214.854176 151.526048 213.812509 152.45834 212.744801 153.36459 C 211.671884 154.276048 210.572925 155.166673 209.442717 156.031257 C 208.312509 156.901048 207.161467 157.744798 205.979175 158.572923 C 204.796884 159.39584 203.58855 160.197923 202.354175 160.973965 C 201.1198 161.755215 199.864592 162.510423 198.578133 163.23959 C 197.296883 163.973965 195.9948 164.67709 194.666675 165.359382 C 193.343758 166.041674 191.9948 166.697924 190.625008 167.328132 C 189.255216 167.95834 187.869799 168.567715 186.463549 169.14584 C 185.052091 169.723965 183.630216 170.276049 182.187508 170.796882 C 180.744799 171.322924 179.286466 171.822924 177.812507 172.291674 C 176.338549 172.760424 174.848966 173.203132 173.348966 173.614591 C 171.843757 174.031257 170.328132 174.416674 168.80209 174.770841 C 167.276049 175.125007 165.73959 175.453132 164.192715 175.750007 C 162.640632 176.052091 161.088548 176.317716 159.52084 176.557299 C 157.95834 176.796882 156.385423 177.010424 154.807298 177.187507 C 153.229173 177.369799 151.64584 177.520841 150.057298 177.640632 C 148.468756 177.760424 146.880214 177.848966 145.286464 177.911466 C 143.692714 177.968757 142.093756 178.000007 140.500006 178.000007 C 138.906256 178.000007 137.307297 177.968757 135.713547 177.911466 C 134.119797 177.848966 132.531256 177.760424 130.942714 177.640632 C 129.354172 177.520841 127.770839 177.369799 126.192714 177.187507 C 124.614589 177.010424 123.041672 176.796882 121.479172 176.557299 C 119.911463 176.317716 118.35938 176.052091 116.807297 175.750007 C 115.260421 175.453132 113.723963 175.125007 112.197921 174.770841 C 110.67188 174.416674 109.156255 174.031257 107.651046 173.614591 C 106.151046 173.203132 104.661463 172.760424 103.187504 172.291674 C 101.713546 171.822924 100.255213 171.322924 98.812504 170.796882 C 97.369796 170.276049 95.947921 169.723965 94.536462 169.14584 C 93.130212 168.567715 91.744795 167.95834 90.375004 167.328132 C 89.005212 166.697924 87.656254 166.041674 86.333337 165.359382 C 85.005212 164.67709 83.703128 163.973965 82.421878 163.23959 C 81.13542 162.510423 79.880212 161.755215 78.645837 160.973965 C 77.411462 160.197923 76.203128 159.39584 75.020836 158.572923 C 73.838545 157.744798 72.687503 156.901048 71.557295 156.031257 C 70.427086 155.166673 69.328128 154.276048 68.255211 153.36459 C 67.187503 152.45834 66.145836 151.526048 65.130211 150.578131 C 64.119794 149.630215 63.135419 148.661465 62.187503 147.677089 C 61.234378 146.692714 60.317711 145.687506 59.432294 144.666673 C 58.546877 143.645839 57.692711 142.609381 56.869794 141.557298 C 56.052086 140.505214 55.265627 139.437506 54.510419 138.354172 C 53.760419 137.270839 53.041669 136.177089 52.359377 135.067714 C 51.677085 133.958339 51.031252 132.833339 50.421877 131.70313 C 49.812502 130.567714 49.239585 129.42188 48.697919 128.26563 C 48.16146 127.10938 47.66146 125.947922 47.197919 124.770839 C 46.734377 123.598963 46.307294 122.416672 45.921877 121.223963 C 45.53646 120.031255 45.182294 118.833338 44.875002 117.630213 C 44.562502 116.427088 44.291669 115.218755 44.057294 114.005213 C 43.822918 112.791671 43.625002 111.572921 43.468752 110.348963 C 43.312502 109.130213 43.197918 107.906254 43.119793 106.682296 C 43.041668 105.453129 43.000002 104.229171 43.000002 103.000004 C 43.000002 101.770838 43.041668 100.546879 43.119793 99.317712 C 43.197918 98.093754 43.312502 96.869796 43.468752 95.651046 C 43.625002 94.427087 43.822918 93.208337 44.057294 91.994795 C 44.291669 90.781254 44.562502 89.57292 44.875002 88.369795 C 45.182294 87.16667 45.53646 85.968754 45.921877 84.776045 C 46.307294 83.583337 46.734377 82.401045 47.197919 81.22917 C 47.66146 80.052087 48.16146 78.890628 48.697919 77.734378 C 49.239585 76.578128 49.812502 75.432295 50.421877 74.296878 C 51.031252 73.16667 51.677085 72.04167 52.359377 70.932295 C 53.041669 69.82292 53.760419 68.72917 54.510419 67.645836 C 55.265627 66.562503 56.052086 65.494794 56.869794 64.442711 C 57.692711 63.390628 58.546877 62.354169 59.432294 61.333336 C 60.317711 60.312503 61.234378 59.307294 62.187503 58.322919 C 63.135419 57.338544 64.119794 56.369794 65.130211 55.421877 C 66.145836 54.473961 67.187503 53.541669 68.255211 52.635419 C 69.328128 51.72396 70.427086 50.833335 71.557295 49.968752 C 72.687503 49.09896 73.838545 48.25521 75.020836 47.427085 C 76.203128 46.604169 77.411462 45.802085 78.645837 45.026044 C 79.880212 44.244794 81.13542 43.489585 82.421878 42.760418 C 83.703128 42.026043 85.005212 41.322918 86.333337 40.640627 C 87.656254 39.958335 89.005212 39.302085 90.375004 38.671877 C 91.744795 38.041668 93.130212 37.432293 94.536462 36.854168 C 95.947921 36.276043 97.369796 35.72396 98.812504 35.203126 C 100.255213 34.677085 101.713546 34.177085 103.187504 33.708335 C 104.661463 33.239585 106.151046 32.796876 107.651046 32.385418 C 109.156255 31.968751 110.67188 31.583335 112.197921 31.229168 C 113.723963 30.875001 115.260421 30.546876 116.807297 30.250001 C 118.35938 29.947918 119.911463 29.682293 121.479172 29.44271 C 123.041672 29.203126 124.614589 28.989585 126.192714 28.812501 C 127.770839 28.63021 129.354172 28.479168 130.942714 28.359376 C 132.531256 28.239585 134.119797 28.151043 135.713547 28.088543 C 137.307297 28.031251 138.906256 28.000001 140.500006 28.000001 C 142.093756 28.000001 143.692714 28.031251 145.286464 28.088543 C 146.880214 28.151043 148.468756 28.239585 150.057298 28.359376 C 151.64584 28.479168 153.229173 28.63021 154.807298 28.812501 C 156.385423 28.989585 157.95834 29.203126 159.52084 29.44271 C 161.088548 29.682293 162.640632 29.947918 164.192715 30.250001 C 165.73959 30.546876 167.276049 30.875001 168.80209 31.229168 C 170.328132 31.583335 171.843757 31.968751 173.348966 32.385418 C 174.848966 32.796876 176.338549 33.239585 177.812507 33.708335 C 179.286466 34.177085 180.744799 34.677085 182.187508 35.203126 C 183.630216 35.72396 185.052091 36.276043 186.463549 36.854168 C 187.869799 37.432293 189.255216 38.041668 190.625008 38.671877 C 191.9948 39.302085 193.343758 39.958335 194.666675 40.640627 C 195.9948 41.322918 197.296883 42.026043 198.578133 42.760418 C 199.864592 43.489585 201.1198 44.244794 202.354175 45.026044 C 203.58855 45.802085 204.796884 46.604169 205.979175 47.427085 C 207.161467 48.25521 208.312509 49.09896 209.442717 49.968752 C 210.572925 50.833335 211.671884 51.72396 212.744801 52.635419 C 213.812509 53.541669 214.854176 54.473961 215.869801 55.421877 C 216.880217 56.369794 217.864592 57.338544 218.812509 58.322919 C 219.765634 59.307294 220.682301 60.312503 221.567718 61.333336 C 222.453134 62.354169 223.307301 63.390628 224.130218 64.442711 C 224.947926 65.494794 225.734384 66.562503 226.489593 67.645836 C 227.239593 68.72917 227.958343 69.82292 228.640635 70.932295 C 229.322926 72.04167 229.96876 73.16667 230.578135 74.296878 C 231.18751 75.432295 231.760426 76.578128 232.302093 77.734378 C 232.838551 78.890628 233.338551 80.052087 233.802093 81.22917 C 234.265635 82.401045 234.692718 83.583337 235.078135 84.776045 C 235.463551 85.968754 235.817718 87.16667 236.12501 88.369795 C 236.43751 89.57292 236.708343 90.781254 236.942718 91.994795 C 237.177093 93.208337 237.37501 94.427087 237.53126 95.651046 C 237.68751 96.869796 237.802093 98.093754 237.880218 99.317712 C 237.958343 100.546879 238.00001 101.770838 238.00001 103.000004 Z M 238.00001 103.000004 "
     transform="matrix(0.75, 0, 0, 0.75, 0, 0)"
     id="path4" />
  <path
     fill-rule="nonzero"
     fill="rgb(0%, 0%, 0%)"
     fill-opacity="1"
     stroke-width="4.214149"
     stroke-linecap="butt"
     stroke-linejoin="miter"
     stroke="rgb(0%, 0%, 0%)"
     stroke-opacity="0.3529"
     stroke-miterlimit="4"
     d="M 295.949043 -0.000129756 C 284.01444 1.957402 239.979871 2.936168 163.982516 2.936168 C 93.335155 2.936168 55.062118 1.957402 49.026227 -0.000129756 L 39.972391 -0.000129756 L 39.972391 61.941776 L 91.963361 61.941776 C 126.669735 61.941776 143.954332 62.640894 143.954332 64.039132 C 306.649031 475.959795 391.014326 684.29713 397.050217 689.051136 C 401.028418 695.063556 413.374559 697.999854 433.95146 697.999854 C 453.293748 697.999854 465.639888 695.063556 470.989883 689.051136 C 473.73347 686.953781 495.956523 633.960593 537.933402 529.931749 C 580.04746 426.042729 621.6128 322.013885 663.040961 217.985041 L 723.948589 64.039132 C 723.948589 62.640894 741.370366 61.941776 775.93956 61.941776 L 828.06771 61.941776 L 828.06771 -0.000129756 L 816.956183 -0.000129756 C 802.96389 1.957402 750.012664 2.936168 657.965326 2.936168 C 558.647482 2.936168 501.032159 1.957402 484.982176 -0.000129756 L 471.950138 -0.000129756 L 471.950138 61.941776 L 516.944962 61.941776 C 546.301341 61.941776 560.979531 62.361247 560.979531 63.060366 L 516.944962 175.059161 L 262.065745 175.059161 L 239.979871 119.968617 C 225.301681 83.334804 217.619638 64.598426 216.933742 64.039132 C 216.933742 62.640894 231.611931 61.941776 260.96831 61.941776 L 305.963134 61.941776 L 305.963134 -0.000129756 Z M 390.054071 237.001067 L 491.978322 237.979833 L 439.987351 364.939766 C 406.652771 448.973818 389.368174 491.060756 387.996381 491.060756 C 320.641324 322.992651 287.032385 238.399304 287.032385 237.001067 Z M 390.054071 237.001067 "
     transform="matrix(0.0284755, 0, 0, -0.027937, 93.752391, 86.999996)"
     id="path6" />
  <path
     fill-rule="nonzero"
     fill="rgb(0%, 0%, 0%)"
     fill-opacity="1"
     stroke-width="4.196169"
     stroke-linecap="butt"
     stroke-linejoin="miter"
     stroke="rgb(0%, 0%, 0%)"
     stroke-opacity="0.3529"
     stroke-miterlimit="4"
     d="M 64.066888 492.98033 C 64.066888 552.398744 82.64892 599.933475 119.951654 635.994305 C 157.393061 672.055136 205.37353 691.997868 264.031734 695.959096 L 271.93603 695.959096 C 277.344234 696.642066 281.643062 697.051848 284.971187 697.051848 C 348.344234 697.051848 404.645016 679.704403 454.012204 645.009513 L 479.943845 669.050067 C 482.717282 670.962384 485.352048 673.284483 487.986813 676.016364 C 490.621579 678.611651 492.979001 680.93375 495.059079 682.98266 C 497.000485 685.031571 498.664548 686.6707 500.051267 688.03664 C 501.299313 689.265987 502.686032 690.358739 503.934079 691.04171 C 505.320798 691.72468 506.707517 692.271056 507.955564 692.954026 C 509.342282 693.636997 510.312985 694.319967 511.006345 695.002937 C 511.699704 695.685908 512.670407 695.959096 514.057126 695.959096 C 515.305173 695.959096 516.275876 696.368878 516.969235 697.051848 C 517.662595 697.734818 519.326657 697.734818 521.961423 697.051848 C 531.391111 697.051848 536.937986 695.002937 539.018064 691.04171 C 540.95947 686.943888 542.068845 673.967453 542.068845 651.97581 L 542.068845 576.985674 C 542.068845 563.599456 542.068845 548.710704 542.068845 532.04623 C 542.068845 515.381755 542.346189 504.727419 543.039548 499.946627 C 543.039548 481.369835 542.068845 469.622746 539.988767 464.978549 C 538.047361 460.334351 532.639157 458.012252 524.041501 458.012252 L 505.043454 458.012252 C 494.36572 458.012252 487.70947 458.96841 484.936032 461.017321 C 482.301266 463.066232 480.35986 468.666588 478.973141 477.954984 C 474.39697 511.966903 464.273923 540.651655 449.020016 564.009238 C 433.627438 587.366822 415.045407 604.031297 392.996578 614.002663 C 370.94775 623.974029 351.949703 630.667137 336.002437 633.945395 C 320.055171 637.360246 303.69189 638.999375 287.051265 638.999375 C 247.668452 638.999375 219.656733 629.301197 203.016108 610.041435 C 186.375483 590.645079 177.639155 568.653436 176.945795 544.066506 C 176.945795 526.036091 183.047358 508.961834 194.973139 492.98033 C 207.037592 476.998825 224.371577 464.978549 246.975093 457.056093 C 250.996577 455.007182 283.029781 448.040886 342.936031 436.020609 C 402.980953 424.000332 446.939938 408.974986 474.951657 390.944571 C 540.95947 347.644255 573.963377 286.313524 573.963377 206.952378 L 573.963377 199.986082 C 573.963377 175.399152 568.971189 148.626717 558.986814 119.941965 C 530.975095 47.956898 474.39697 5.066365 388.975094 -9.002823 C 383.012203 -9.685793 368.729 -9.958981 345.986812 -9.958981 C 320.609859 -9.958981 297.03564 -8.319852 274.986812 -5.041595 C 252.937983 -1.626744 235.049311 2.334484 221.043452 6.978682 C 207.037592 11.62288 194.695795 16.67686 184.018061 22.004028 C 173.340327 27.331196 165.297358 31.702206 160.027826 34.980463 C 154.619623 38.395314 151.707514 40.034443 151.014155 40.034443 L 126.053217 16.950048 C 123.279779 15.037731 120.645014 12.715632 118.010248 9.983751 C 115.375482 7.388464 113.01806 5.066365 110.937982 3.017454 C 108.996576 0.968543 107.332514 -0.670585 105.945795 -2.036526 C 104.697748 -3.265872 103.311029 -4.358625 102.062982 -5.041595 C 100.676263 -5.724565 99.289545 -6.270942 98.041498 -6.953912 C 96.654779 -7.636882 95.684076 -8.319852 94.990717 -9.002823 C 94.297357 -9.685793 93.326654 -9.958981 91.939935 -9.958981 C 90.691888 -9.958981 89.721185 -10.368763 89.027826 -11.051734 C 88.334467 -11.734704 86.670404 -11.734704 84.035638 -11.051734 C 74.605951 -11.051734 69.059076 -8.729635 66.978998 -3.948843 C 65.037591 0.695355 64.066888 13.67179 64.066888 34.980463 L 64.066888 108.058283 C 64.066888 121.307906 64.066888 136.333252 64.066888 152.997727 C 64.066888 169.662201 63.650873 180.316538 62.957513 184.960736 C 62.957513 196.981012 62.957513 205.723032 62.957513 211.0502 C 62.957513 216.377368 65.037591 220.338596 69.059076 222.933883 C 72.941888 225.665764 75.715326 227.031705 76.963373 227.031705 C 78.350091 227.031705 84.035638 227.304893 94.020013 227.987863 L 99.982904 227.987863 C 112.047357 227.987863 119.396967 227.031705 122.031732 224.982794 C 124.666498 222.933883 126.053217 216.377368 126.053217 205.040062 C 128.687982 151.631786 151.014155 112.70248 193.031733 87.978956 C 235.049311 63.392026 285.664546 50.961967 345.016109 50.961967 C 387.033688 50.961967 416.709469 61.343116 434.043454 81.968818 C 451.377438 102.731114 459.975094 127.727826 459.975094 156.958954 C 459.975094 183.048419 453.041501 204.357091 439.035641 221.021566 C 425.029782 237.686041 407.973141 249.706318 388.004391 256.945803 C 385.369625 258.311743 357.63525 264.731664 304.939937 275.932376 C 252.383296 287.269683 224.371577 293.689603 221.043452 295.055544 C 176.945795 306.939227 140.059076 330.706592 109.967279 365.947859 C 80.014154 401.325719 64.621576 443.669876 64.066888 492.98033 Z M 64.066888 492.98033 "
     transform="matrix(0.028169, 0, 0, -0.0285975, 325.499986, 26.683948)"
     id="path8" />
</svg>
