<?xml version="1.0" encoding="utf-8"?>
<svg xmlns="http://www.w3.org/2000/svg" xmlns:xlink="http://www.w3.org/1999/xlink" width="600" height="400" viewBox="0 0 2400 1600">
<defs>
  <clipPath id="clip550">
    <rect x="0" y="0" width="2400" height="1600"/>
  </clipPath>
</defs>
<path clip-path="url(#clip550)" d="M0 1600 L2400 1600 L2400 0 L0 0  Z" fill="#ffffff" fill-rule="evenodd" fill-opacity="1"/>
<defs>
  <clipPath id="clip551">
    <rect x="480" y="0" width="1681" height="1600"/>
  </clipPath>
</defs>
<defs>
  <clipPath id="clip552">
    <rect x="336" y="47" width="2017" height="1355"/>
  </clipPath>
</defs>
<path clip-path="url(#clip550)" d="M336.963 1401.58 L2352.76 1401.58 L2352.76 47.2441 L336.963 47.2441  Z" fill="#ffffff" fill-rule="evenodd" fill-opacity="1"/>
<polyline clip-path="url(#clip550)" style="stroke:#000000; stroke-linecap:round; stroke-linejoin:round; stroke-width:4; stroke-opacity:1; fill:none" points="336.963,1401.58 2352.76,1401.58 "/>
<polyline clip-path="url(#clip550)" style="stroke:#000000; stroke-linecap:round; stroke-linejoin:round; stroke-width:4; stroke-opacity:1; fill:none" points="394.014,1401.58 394.014,1382.68 "/>
<polyline clip-path="url(#clip550)" style="stroke:#000000; stroke-linecap:round; stroke-linejoin:round; stroke-width:4; stroke-opacity:1; fill:none" points="710.963,1401.58 710.963,1382.68 "/>
<polyline clip-path="url(#clip550)" style="stroke:#000000; stroke-linecap:round; stroke-linejoin:round; stroke-width:4; stroke-opacity:1; fill:none" points="1027.91,1401.58 1027.91,1382.68 "/>
<polyline clip-path="url(#clip550)" style="stroke:#000000; stroke-linecap:round; stroke-linejoin:round; stroke-width:4; stroke-opacity:1; fill:none" points="1344.86,1401.58 1344.86,1382.68 "/>
<polyline clip-path="url(#clip550)" style="stroke:#000000; stroke-linecap:round; stroke-linejoin:round; stroke-width:4; stroke-opacity:1; fill:none" points="1661.81,1401.58 1661.81,1382.68 "/>
<polyline clip-path="url(#clip550)" style="stroke:#000000; stroke-linecap:round; stroke-linejoin:round; stroke-width:4; stroke-opacity:1; fill:none" points="1978.76,1401.58 1978.76,1382.68 "/>
<polyline clip-path="url(#clip550)" style="stroke:#000000; stroke-linecap:round; stroke-linejoin:round; stroke-width:4; stroke-opacity:1; fill:none" points="2295.71,1401.58 2295.71,1382.68 "/>
<path clip-path="url(#clip550)" d="M394.014 1435.43 Q389.5 1435.43 387.214 1439.88 Q384.958 1444.31 384.958 1453.22 Q384.958 1462.11 387.214 1466.56 Q389.5 1470.99 394.014 1470.99 Q398.557 1470.99 400.814 1466.56 Q403.1 1462.11 403.1 1453.22 Q403.1 1444.31 400.814 1439.88 Q398.557 1435.43 394.014 1435.43 M394.014 1430.8 Q401.277 1430.8 405.096 1436.56 Q408.945 1442.29 408.945 1453.22 Q408.945 1464.13 405.096 1469.89 Q401.277 1475.62 394.014 1475.62 Q386.751 1475.62 382.903 1469.89 Q379.084 1464.13 379.084 1453.22 Q379.084 1442.29 382.903 1436.56 Q386.751 1430.8 394.014 1430.8 Z" fill="#000000" fill-rule="evenodd" fill-opacity="1" /><path clip-path="url(#clip550)" d="M698.94 1469.86 L708.489 1469.86 L708.489 1436.9 L698.101 1438.99 L698.101 1433.66 L708.431 1431.58 L714.276 1431.58 L714.276 1469.86 L723.824 1469.86 L723.824 1474.78 L698.94 1474.78 L698.94 1469.86 Z" fill="#000000" fill-rule="evenodd" fill-opacity="1" /><path clip-path="url(#clip550)" d="M1021.23 1469.86 L1041.63 1469.86 L1041.63 1474.78 L1014.2 1474.78 L1014.2 1469.86 Q1017.52 1466.42 1023.25 1460.63 Q1029.01 1454.81 1030.49 1453.14 Q1033.29 1449.98 1034.39 1447.81 Q1035.52 1445.61 1035.52 1443.5 Q1035.52 1440.06 1033.09 1437.89 Q1030.69 1435.72 1026.81 1435.72 Q1024.06 1435.72 1021 1436.67 Q1017.96 1437.63 1014.49 1439.57 L1014.49 1433.66 Q1018.02 1432.25 1021.08 1431.52 Q1024.15 1430.8 1026.7 1430.8 Q1033.41 1430.8 1037.4 1434.16 Q1041.39 1437.51 1041.39 1443.12 Q1041.39 1445.79 1040.38 1448.19 Q1039.4 1450.56 1036.77 1453.8 Q1036.04 1454.64 1032.16 1458.66 Q1028.29 1462.66 1021.23 1469.86 Z" fill="#000000" fill-rule="evenodd" fill-opacity="1" /><path clip-path="url(#clip550)" d="M1350.17 1451.49 Q1354.36 1452.38 1356.71 1455.22 Q1359.08 1458.06 1359.08 1462.22 Q1359.08 1468.62 1354.68 1472.12 Q1350.28 1475.62 1342.18 1475.62 Q1339.46 1475.62 1336.57 1475.07 Q1333.71 1474.55 1330.64 1473.48 L1330.64 1467.84 Q1333.07 1469.25 1335.96 1469.98 Q1338.86 1470.7 1342.01 1470.7 Q1347.51 1470.7 1350.37 1468.53 Q1353.27 1466.36 1353.27 1462.22 Q1353.27 1458.4 1350.57 1456.26 Q1347.91 1454.09 1343.14 1454.09 L1338.1 1454.09 L1338.1 1449.29 L1343.37 1449.29 Q1347.68 1449.29 1349.97 1447.58 Q1352.25 1445.84 1352.25 1442.6 Q1352.25 1439.28 1349.88 1437.51 Q1347.54 1435.72 1343.14 1435.72 Q1340.74 1435.72 1337.99 1436.24 Q1335.24 1436.76 1331.94 1437.86 L1331.94 1432.65 Q1335.27 1431.72 1338.16 1431.26 Q1341.08 1430.8 1343.66 1430.8 Q1350.31 1430.8 1354.19 1433.84 Q1358.07 1436.85 1358.07 1442 Q1358.07 1445.58 1356.01 1448.07 Q1353.96 1450.53 1350.17 1451.49 Z" fill="#000000" fill-rule="evenodd" fill-opacity="1" /><path clip-path="url(#clip550)" d="M1665.57 1436.67 L1650.81 1459.73 L1665.57 1459.73 L1665.57 1436.67 M1664.04 1431.58 L1671.39 1431.58 L1671.39 1459.73 L1677.55 1459.73 L1677.55 1464.59 L1671.39 1464.59 L1671.39 1474.78 L1665.57 1474.78 L1665.57 1464.59 L1646.07 1464.59 L1646.07 1458.95 L1664.04 1431.58 Z" fill="#000000" fill-rule="evenodd" fill-opacity="1" /><path clip-path="url(#clip550)" d="M1966.6 1431.58 L1989.55 1431.58 L1989.55 1436.5 L1971.96 1436.5 L1971.96 1447.09 Q1973.23 1446.65 1974.5 1446.45 Q1975.78 1446.22 1977.05 1446.22 Q1984.28 1446.22 1988.51 1450.19 Q1992.73 1454.15 1992.73 1460.92 Q1992.73 1467.89 1988.39 1471.77 Q1984.05 1475.62 1976.15 1475.62 Q1973.43 1475.62 1970.6 1475.16 Q1967.79 1474.69 1964.78 1473.77 L1964.78 1467.89 Q1967.39 1469.31 1970.16 1470.01 Q1972.94 1470.7 1976.04 1470.7 Q1981.04 1470.7 1983.96 1468.07 Q1986.89 1465.43 1986.89 1460.92 Q1986.89 1456.41 1983.96 1453.77 Q1981.04 1451.14 1976.04 1451.14 Q1973.69 1451.14 1971.35 1451.66 Q1969.03 1452.18 1966.6 1453.28 L1966.6 1431.58 Z" fill="#000000" fill-rule="evenodd" fill-opacity="1" /><path clip-path="url(#clip550)" d="M2296.21 1450.85 Q2292.28 1450.85 2289.96 1453.54 Q2287.68 1456.23 2287.68 1460.92 Q2287.68 1465.58 2289.96 1468.3 Q2292.28 1470.99 2296.21 1470.99 Q2300.15 1470.99 2302.43 1468.3 Q2304.75 1465.58 2304.75 1460.92 Q2304.75 1456.23 2302.43 1453.54 Q2300.15 1450.85 2296.21 1450.85 M2307.81 1432.53 L2307.81 1437.86 Q2305.62 1436.82 2303.36 1436.27 Q2301.13 1435.72 2298.93 1435.72 Q2293.14 1435.72 2290.08 1439.62 Q2287.04 1443.53 2286.61 1451.43 Q2288.31 1448.91 2290.89 1447.58 Q2293.46 1446.22 2296.56 1446.22 Q2303.07 1446.22 2306.83 1450.19 Q2310.62 1454.12 2310.62 1460.92 Q2310.62 1467.58 2306.69 1471.6 Q2302.75 1475.62 2296.21 1475.62 Q2288.72 1475.62 2284.75 1469.89 Q2280.79 1464.13 2280.79 1453.22 Q2280.79 1442.98 2285.65 1436.9 Q2290.51 1430.8 2298.7 1430.8 Q2300.9 1430.8 2303.13 1431.23 Q2305.38 1431.67 2307.81 1432.53 Z" fill="#000000" fill-rule="evenodd" fill-opacity="1" /><path clip-path="url(#clip550)" d="M1362.9 1525 Q1362.9 1527.3 1361.47 1528.61 Q1360.03 1529.88 1358.39 1529.88 Q1356.83 1529.88 1356.01 1528.98 Q1355.19 1528.08 1355.19 1526.93 Q1355.19 1525.37 1356.34 1524.02 Q1357.49 1522.67 1359.21 1522.38 Q1357.53 1521.32 1355.03 1521.32 Q1353.39 1521.32 1351.96 1522.18 Q1350.56 1523.04 1349.7 1524.14 Q1348.88 1525.25 1348.14 1526.85 Q1347.45 1528.41 1347.16 1529.35 Q1346.91 1530.25 1346.71 1531.23 L1343.84 1542.71 Q1342.45 1548.16 1342.45 1550.09 Q1342.45 1552.47 1343.59 1554.07 Q1344.74 1555.62 1347.04 1555.62 Q1347.94 1555.62 1348.96 1555.38 Q1349.99 1555.09 1351.3 1554.35 Q1352.65 1553.57 1353.84 1552.43 Q1355.07 1551.24 1356.26 1549.23 Q1357.45 1547.22 1358.23 1544.64 Q1358.47 1543.74 1359.29 1543.74 Q1360.32 1543.74 1360.32 1544.56 Q1360.32 1545.25 1359.74 1546.73 Q1359.21 1548.16 1358.02 1550.05 Q1356.87 1551.89 1355.36 1553.57 Q1353.84 1555.21 1351.59 1556.36 Q1349.33 1557.51 1346.87 1557.51 Q1343.35 1557.51 1341.01 1555.62 Q1338.68 1553.74 1337.81 1551.11 Q1337.61 1551.48 1337.32 1551.98 Q1337.04 1552.47 1336.17 1553.57 Q1335.35 1554.64 1334.41 1555.46 Q1333.47 1556.24 1331.99 1556.85 Q1330.56 1557.51 1329 1557.51 Q1327.03 1557.51 1325.27 1556.94 Q1323.55 1556.36 1322.32 1555.05 Q1321.09 1553.74 1321.09 1551.93 Q1321.09 1549.93 1322.44 1548.53 Q1323.84 1547.1 1325.72 1547.1 Q1326.91 1547.1 1327.85 1547.79 Q1328.84 1548.49 1328.84 1550.01 Q1328.84 1551.69 1327.69 1552.96 Q1326.54 1554.23 1324.9 1554.56 Q1326.58 1555.62 1329.08 1555.62 Q1331.79 1555.62 1333.92 1553.25 Q1336.05 1550.87 1337.08 1546.89 Q1339.62 1537.34 1340.6 1533.08 Q1341.59 1528.78 1341.59 1526.93 Q1341.59 1525.21 1341.13 1524.02 Q1340.68 1522.83 1339.9 1522.3 Q1339.17 1521.73 1338.47 1521.52 Q1337.81 1521.32 1337.08 1521.32 Q1335.85 1521.32 1334.45 1521.81 Q1333.1 1522.3 1331.46 1523.45 Q1329.86 1524.55 1328.35 1526.85 Q1326.83 1529.14 1325.8 1532.3 Q1325.6 1533.24 1324.7 1533.24 Q1323.71 1533.2 1323.71 1532.38 Q1323.71 1531.69 1324.25 1530.25 Q1324.82 1528.78 1325.97 1526.93 Q1327.16 1525.09 1328.67 1523.45 Q1330.23 1521.77 1332.49 1520.62 Q1334.78 1519.47 1337.24 1519.47 Q1338.35 1519.47 1339.41 1519.72 Q1340.52 1519.92 1341.83 1520.54 Q1343.18 1521.15 1344.37 1522.5 Q1345.56 1523.86 1346.3 1525.82 Q1346.79 1524.88 1347.45 1523.98 Q1348.14 1523.08 1349.21 1521.97 Q1350.32 1520.82 1351.83 1520.17 Q1353.39 1519.47 1355.11 1519.47 Q1356.79 1519.47 1358.43 1519.92 Q1360.07 1520.33 1361.47 1521.68 Q1362.9 1523 1362.9 1525 Z" fill="#000000" fill-rule="evenodd" fill-opacity="1" /><polyline clip-path="url(#clip550)" style="stroke:#000000; stroke-linecap:round; stroke-linejoin:round; stroke-width:4; stroke-opacity:1; fill:none" points="336.963,1401.58 336.963,47.2441 "/>
<polyline clip-path="url(#clip550)" style="stroke:#000000; stroke-linecap:round; stroke-linejoin:round; stroke-width:4; stroke-opacity:1; fill:none" points="336.963,1363.25 355.861,1363.25 "/>
<polyline clip-path="url(#clip550)" style="stroke:#000000; stroke-linecap:round; stroke-linejoin:round; stroke-width:4; stroke-opacity:1; fill:none" points="336.963,1043.83 355.861,1043.83 "/>
<polyline clip-path="url(#clip550)" style="stroke:#000000; stroke-linecap:round; stroke-linejoin:round; stroke-width:4; stroke-opacity:1; fill:none" points="336.963,724.412 355.861,724.412 "/>
<polyline clip-path="url(#clip550)" style="stroke:#000000; stroke-linecap:round; stroke-linejoin:round; stroke-width:4; stroke-opacity:1; fill:none" points="336.963,404.993 355.861,404.993 "/>
<polyline clip-path="url(#clip550)" style="stroke:#000000; stroke-linecap:round; stroke-linejoin:round; stroke-width:4; stroke-opacity:1; fill:none" points="336.963,85.5744 355.861,85.5744 "/>
<path clip-path="url(#clip550)" d="M148.123 1338.4 Q141.803 1338.4 138.603 1344.64 Q135.443 1350.83 135.443 1363.31 Q135.443 1375.75 138.603 1381.99 Q141.803 1388.18 148.123 1388.18 Q154.483 1388.18 157.642 1381.99 Q160.843 1375.75 160.843 1363.31 Q160.843 1350.83 157.642 1344.64 Q154.483 1338.4 148.123 1338.4 M148.123 1331.92 Q158.291 1331.92 163.638 1339.98 Q169.025 1348 169.025 1363.31 Q169.025 1378.58 163.638 1386.64 Q158.291 1394.66 148.123 1394.66 Q137.955 1394.66 132.567 1386.64 Q127.22 1378.58 127.22 1363.31 Q127.22 1348 132.567 1339.98 Q137.955 1331.92 148.123 1331.92 Z" fill="#000000" fill-rule="evenodd" fill-opacity="1" /><path clip-path="url(#clip550)" d="M183.406 1383.2 L191.954 1383.2 L191.954 1393.49 L183.406 1393.49 L183.406 1383.2 Z" fill="#000000" fill-rule="evenodd" fill-opacity="1" /><path clip-path="url(#clip550)" d="M227.277 1338.4 Q220.958 1338.4 217.758 1344.64 Q214.598 1350.83 214.598 1363.31 Q214.598 1375.75 217.758 1381.99 Q220.958 1388.18 227.277 1388.18 Q233.637 1388.18 236.797 1381.99 Q239.997 1375.75 239.997 1363.31 Q239.997 1350.83 236.797 1344.64 Q233.637 1338.4 227.277 1338.4 M227.277 1331.92 Q237.445 1331.92 242.792 1339.98 Q248.18 1348 248.18 1363.31 Q248.18 1378.58 242.792 1386.64 Q237.445 1394.66 227.277 1394.66 Q217.11 1394.66 211.722 1386.64 Q206.375 1378.58 206.375 1363.31 Q206.375 1348 211.722 1339.98 Q217.11 1331.92 227.277 1331.92 Z" fill="#000000" fill-rule="evenodd" fill-opacity="1" /><path clip-path="url(#clip550)" d="M280.061 1338.4 Q273.741 1338.4 270.541 1344.64 Q267.381 1350.83 267.381 1363.31 Q267.381 1375.75 270.541 1381.99 Q273.741 1388.18 280.061 1388.18 Q286.421 1388.18 289.58 1381.99 Q292.781 1375.75 292.781 1363.31 Q292.781 1350.83 289.58 1344.64 Q286.421 1338.4 280.061 1338.4 M280.061 1331.92 Q290.229 1331.92 295.576 1339.98 Q300.963 1348 300.963 1363.31 Q300.963 1378.58 295.576 1386.64 Q290.229 1394.66 280.061 1394.66 Q269.893 1394.66 264.505 1386.64 Q259.158 1378.58 259.158 1363.31 Q259.158 1348 264.505 1339.98 Q269.893 1331.92 280.061 1331.92 Z" fill="#000000" fill-rule="evenodd" fill-opacity="1" /><path clip-path="url(#clip550)" d="M149.865 1018.98 Q143.545 1018.98 140.345 1025.22 Q137.185 1031.41 137.185 1043.89 Q137.185 1056.33 140.345 1062.57 Q143.545 1068.76 149.865 1068.76 Q156.225 1068.76 159.384 1062.57 Q162.585 1056.33 162.585 1043.89 Q162.585 1031.41 159.384 1025.22 Q156.225 1018.98 149.865 1018.98 M149.865 1012.5 Q160.032 1012.5 165.38 1020.56 Q170.767 1028.58 170.767 1043.89 Q170.767 1059.16 165.38 1067.22 Q160.032 1075.25 149.865 1075.25 Q139.697 1075.25 134.309 1067.22 Q128.962 1059.16 128.962 1043.89 Q128.962 1028.58 134.309 1020.56 Q139.697 1012.5 149.865 1012.5 Z" fill="#000000" fill-rule="evenodd" fill-opacity="1" /><path clip-path="url(#clip550)" d="M185.148 1063.78 L193.695 1063.78 L193.695 1074.07 L185.148 1074.07 L185.148 1063.78 Z" fill="#000000" fill-rule="evenodd" fill-opacity="1" /><path clip-path="url(#clip550)" d="M218.568 1067.18 L247.127 1067.18 L247.127 1074.07 L208.724 1074.07 L208.724 1067.18 Q213.383 1062.36 221.404 1054.26 Q229.465 1046.12 231.531 1043.77 Q235.46 1039.35 237 1036.32 Q238.58 1033.24 238.58 1030.28 Q238.58 1025.46 235.177 1022.42 Q231.815 1019.38 226.386 1019.38 Q222.538 1019.38 218.244 1020.72 Q213.991 1022.06 209.129 1024.77 L209.129 1016.51 Q214.072 1014.52 218.366 1013.51 Q222.659 1012.5 226.224 1012.5 Q235.622 1012.5 241.213 1017.2 Q246.803 1021.9 246.803 1029.75 Q246.803 1033.48 245.385 1036.84 Q244.008 1040.16 240.321 1044.7 Q239.309 1045.88 233.88 1051.51 Q228.452 1057.1 218.568 1067.18 Z" fill="#000000" fill-rule="evenodd" fill-opacity="1" /><path clip-path="url(#clip550)" d="M264.384 1013.59 L296.507 1013.59 L296.507 1020.48 L271.878 1020.48 L271.878 1035.3 Q273.66 1034.7 275.443 1034.41 Q277.225 1034.09 279.008 1034.09 Q289.135 1034.09 295.049 1039.64 Q300.963 1045.19 300.963 1054.67 Q300.963 1064.43 294.887 1069.86 Q288.811 1075.25 277.752 1075.25 Q273.944 1075.25 269.974 1074.6 Q266.045 1073.95 261.832 1072.65 L261.832 1064.43 Q265.478 1066.41 269.366 1067.39 Q273.255 1068.36 277.59 1068.36 Q284.598 1068.36 288.689 1064.67 Q292.781 1060.99 292.781 1054.67 Q292.781 1048.35 288.689 1044.66 Q284.598 1040.97 277.59 1040.97 Q274.308 1040.97 271.027 1041.7 Q267.787 1042.43 264.384 1043.97 L264.384 1013.59 Z" fill="#000000" fill-rule="evenodd" fill-opacity="1" /><path clip-path="url(#clip550)" d="M148.123 699.56 Q141.803 699.56 138.603 705.798 Q135.443 711.996 135.443 724.473 Q135.443 736.909 138.603 743.147 Q141.803 749.345 148.123 749.345 Q154.483 749.345 157.642 743.147 Q160.843 736.909 160.843 724.473 Q160.843 711.996 157.642 705.798 Q154.483 699.56 148.123 699.56 M148.123 693.078 Q158.291 693.078 163.638 701.14 Q169.025 709.16 169.025 724.473 Q169.025 739.745 163.638 747.806 Q158.291 755.827 148.123 755.827 Q137.955 755.827 132.567 747.806 Q127.22 739.745 127.22 724.473 Q127.22 709.16 132.567 701.14 Q137.955 693.078 148.123 693.078 Z" fill="#000000" fill-rule="evenodd" fill-opacity="1" /><path clip-path="url(#clip550)" d="M183.406 744.363 L191.954 744.363 L191.954 754.652 L183.406 754.652 L183.406 744.363 Z" fill="#000000" fill-rule="evenodd" fill-opacity="1" /><path clip-path="url(#clip550)" d="M209.859 694.172 L241.982 694.172 L241.982 701.059 L217.353 701.059 L217.353 715.885 Q219.135 715.277 220.918 714.994 Q222.7 714.67 224.482 714.67 Q234.61 714.67 240.524 720.219 Q246.438 725.769 246.438 735.248 Q246.438 745.011 240.362 750.439 Q234.286 755.827 223.227 755.827 Q219.419 755.827 215.449 755.179 Q211.519 754.53 207.307 753.234 L207.307 745.011 Q210.952 746.996 214.841 747.968 Q218.73 748.94 223.065 748.94 Q230.073 748.94 234.164 745.254 Q238.255 741.568 238.255 735.248 Q238.255 728.929 234.164 725.242 Q230.073 721.556 223.065 721.556 Q219.783 721.556 216.502 722.285 Q213.261 723.014 209.859 724.554 L209.859 694.172 Z" fill="#000000" fill-rule="evenodd" fill-opacity="1" /><path clip-path="url(#clip550)" d="M280.061 699.56 Q273.741 699.56 270.541 705.798 Q267.381 711.996 267.381 724.473 Q267.381 736.909 270.541 743.147 Q273.741 749.345 280.061 749.345 Q286.421 749.345 289.58 743.147 Q292.781 736.909 292.781 724.473 Q292.781 711.996 289.58 705.798 Q286.421 699.56 280.061 699.56 M280.061 693.078 Q290.229 693.078 295.576 701.14 Q300.963 709.16 300.963 724.473 Q300.963 739.745 295.576 747.806 Q290.229 755.827 280.061 755.827 Q269.893 755.827 264.505 747.806 Q259.158 739.745 259.158 724.473 Q259.158 709.16 264.505 701.14 Q269.893 693.078 280.061 693.078 Z" fill="#000000" fill-rule="evenodd" fill-opacity="1" /><path clip-path="url(#clip550)" d="M149.865 380.141 Q143.545 380.141 140.345 386.379 Q137.185 392.577 137.185 405.054 Q137.185 417.49 140.345 423.729 Q143.545 429.926 149.865 429.926 Q156.225 429.926 159.384 423.729 Q162.585 417.49 162.585 405.054 Q162.585 392.577 159.384 386.379 Q156.225 380.141 149.865 380.141 M149.865 373.659 Q160.032 373.659 165.38 381.721 Q170.767 389.742 170.767 405.054 Q170.767 420.326 165.38 428.387 Q160.032 436.408 149.865 436.408 Q139.697 436.408 134.309 428.387 Q128.962 420.326 128.962 405.054 Q128.962 389.742 134.309 381.721 Q139.697 373.659 149.865 373.659 Z" fill="#000000" fill-rule="evenodd" fill-opacity="1" /><path clip-path="url(#clip550)" d="M185.148 424.944 L193.695 424.944 L193.695 435.233 L185.148 435.233 L185.148 424.944 Z" fill="#000000" fill-rule="evenodd" fill-opacity="1" /><path clip-path="url(#clip550)" d="M209.454 374.753 L248.342 374.753 L248.342 378.237 L226.386 435.233 L217.839 435.233 L238.498 381.64 L209.454 381.64 L209.454 374.753 Z" fill="#000000" fill-rule="evenodd" fill-opacity="1" /><path clip-path="url(#clip550)" d="M264.384 374.753 L296.507 374.753 L296.507 381.64 L271.878 381.64 L271.878 396.466 Q273.66 395.858 275.443 395.575 Q277.225 395.251 279.008 395.251 Q289.135 395.251 295.049 400.8 Q300.963 406.35 300.963 415.829 Q300.963 425.592 294.887 431.02 Q288.811 436.408 277.752 436.408 Q273.944 436.408 269.974 435.76 Q266.045 435.112 261.832 433.815 L261.832 425.592 Q265.478 427.577 269.366 428.549 Q273.255 429.521 277.59 429.521 Q284.598 429.521 288.689 425.835 Q292.781 422.149 292.781 415.829 Q292.781 409.51 288.689 405.824 Q284.598 402.137 277.59 402.137 Q274.308 402.137 271.027 402.866 Q267.787 403.596 264.384 405.135 L264.384 374.753 Z" fill="#000000" fill-rule="evenodd" fill-opacity="1" /><path clip-path="url(#clip550)" d="M132.041 108.928 L145.409 108.928 L145.409 62.788 L130.866 65.7047 L130.866 58.251 L145.328 55.3344 L153.511 55.3344 L153.511 108.928 L166.879 108.928 L166.879 115.814 L132.041 115.814 L132.041 108.928 Z" fill="#000000" fill-rule="evenodd" fill-opacity="1" /><path clip-path="url(#clip550)" d="M183.406 105.525 L191.954 105.525 L191.954 115.814 L183.406 115.814 L183.406 105.525 Z" fill="#000000" fill-rule="evenodd" fill-opacity="1" /><path clip-path="url(#clip550)" d="M227.277 60.7221 Q220.958 60.7221 217.758 66.9604 Q214.598 73.1583 214.598 85.6351 Q214.598 98.0714 217.758 104.31 Q220.958 110.508 227.277 110.508 Q233.637 110.508 236.797 104.31 Q239.997 98.0714 239.997 85.6351 Q239.997 73.1583 236.797 66.9604 Q233.637 60.7221 227.277 60.7221 M227.277 54.2406 Q237.445 54.2406 242.792 62.3019 Q248.18 70.3227 248.18 85.6351 Q248.18 100.907 242.792 108.968 Q237.445 116.989 227.277 116.989 Q217.11 116.989 211.722 108.968 Q206.375 100.907 206.375 85.6351 Q206.375 70.3227 211.722 62.3019 Q217.11 54.2406 227.277 54.2406 Z" fill="#000000" fill-rule="evenodd" fill-opacity="1" /><path clip-path="url(#clip550)" d="M280.061 60.7221 Q273.741 60.7221 270.541 66.9604 Q267.381 73.1583 267.381 85.6351 Q267.381 98.0714 270.541 104.31 Q273.741 110.508 280.061 110.508 Q286.421 110.508 289.58 104.31 Q292.781 98.0714 292.781 85.6351 Q292.781 73.1583 289.58 66.9604 Q286.421 60.7221 280.061 60.7221 M280.061 54.2406 Q290.229 54.2406 295.576 62.3019 Q300.963 70.3227 300.963 85.6351 Q300.963 100.907 295.576 108.968 Q290.229 116.989 280.061 116.989 Q269.893 116.989 264.505 108.968 Q259.158 100.907 259.158 85.6351 Q259.158 70.3227 264.505 62.3019 Q269.893 54.2406 280.061 54.2406 Z" fill="#000000" fill-rule="evenodd" fill-opacity="1" /><path clip-path="url(#clip550)" d="M22.3122 763.123 Q24.5666 763.123 25.9602 764.558 Q27.3539 765.951 27.3539 767.714 Q27.3539 768.984 26.5751 769.927 Q25.7963 770.829 24.4436 770.829 Q23.05 770.829 21.5744 769.763 Q20.0988 768.698 19.8938 766.279 Q18.3772 767.878 18.3772 770.419 Q18.3772 771.69 19.197 772.755 Q19.9758 773.78 21.2465 774.354 Q22.5581 774.969 29.9772 776.363 Q32.3956 776.813 34.7319 777.223 Q37.0683 777.633 39.5277 778.125 L39.5277 771.157 Q39.5277 770.255 39.5687 769.886 Q39.6097 769.517 39.8146 769.23 Q40.0196 768.902 40.4704 768.902 Q41.6181 768.902 41.9051 769.435 Q42.151 769.927 42.151 771.403 L42.151 778.617 L68.753 783.659 Q69.5318 783.782 71.9912 784.314 Q74.4096 784.806 78.3855 785.995 Q82.4025 787.184 84.7799 788.372 Q86.1325 789.028 87.4032 789.889 Q88.7148 790.709 90.0265 791.897 Q91.3381 793.086 92.1169 794.644 Q92.9367 796.201 92.9367 797.841 Q92.9367 800.628 91.3791 802.801 Q89.8215 804.973 87.1572 804.973 Q84.9028 804.973 83.5092 803.579 Q82.1155 802.145 82.1155 800.382 Q82.1155 799.112 82.8943 798.21 Q83.6731 797.267 85.0258 797.267 Q85.5996 797.267 86.2555 797.472 Q86.9113 797.677 87.6491 798.128 Q88.4279 798.579 88.9608 799.562 Q89.4936 800.546 89.5756 801.899 Q91.0922 800.3 91.0922 797.841 Q91.0922 797.062 90.7643 796.365 Q90.4774 795.668 89.7396 795.095 Q89.0017 794.48 88.2639 794.029 Q87.5671 793.578 86.2145 793.127 Q84.9028 792.676 83.9191 792.389 Q82.9353 792.102 81.1728 791.734 Q79.4103 791.324 78.3445 791.119 Q77.3198 790.914 75.3113 790.545 L42.151 784.273 L42.151 789.807 Q42.151 790.791 42.11 791.201 Q42.069 791.57 41.8641 791.856 Q41.6181 792.143 41.1263 792.143 Q40.3475 792.143 40.0196 791.815 Q39.6507 791.447 39.6097 791.037 Q39.5277 790.627 39.5277 789.643 L39.5277 783.823 Q29.1574 781.855 26.3701 781.076 Q23.4189 780.175 21.3694 778.781 Q19.279 777.387 18.2952 775.83 Q17.3115 774.272 16.9426 773.001 Q16.5327 771.69 16.5327 770.419 Q16.5327 767.55 18.0903 765.336 Q19.6069 763.123 22.3122 763.123 Z" fill="#000000" fill-rule="evenodd" fill-opacity="1" /><path clip-path="url(#clip550)" d="M54.7347 751.823 Q40.5524 751.823 29.1164 746.536 Q24.3207 744.281 20.3037 741.125 Q16.2868 737.969 14.5242 735.878 Q12.7617 733.788 12.7617 733.214 Q12.7617 732.394 13.5815 732.353 Q13.9914 732.353 15.0161 733.46 Q28.7885 746.987 54.7347 746.946 Q80.7629 746.946 94.0024 733.788 Q95.4371 732.353 95.8879 732.353 Q96.7077 732.353 96.7077 733.214 Q96.7077 733.788 95.0272 735.796 Q93.3466 737.805 89.4936 740.92 Q85.6406 744.035 80.9269 746.29 Q69.4908 751.823 54.7347 751.823 Z" fill="#000000" fill-rule="evenodd" fill-opacity="1" /><path clip-path="url(#clip550)" d="M44.1595 684.165 Q46.4549 684.165 47.7665 685.6 Q49.0372 687.034 49.0372 688.674 Q49.0372 690.231 48.1354 691.051 Q47.2337 691.871 46.086 691.871 Q44.5284 691.871 43.1757 690.723 Q41.8231 689.576 41.5362 687.854 Q40.4704 689.535 40.4704 692.035 Q40.4704 693.674 41.3312 695.109 Q42.192 696.503 43.2987 697.364 Q44.4054 698.183 46.004 698.921 Q47.5616 699.618 48.5043 699.905 Q49.4061 700.151 50.3898 700.356 L61.8668 703.225 Q67.3184 704.619 69.2449 704.619 Q71.6223 704.619 73.2209 703.471 Q74.7785 702.323 74.7785 700.028 Q74.7785 699.126 74.5325 698.101 Q74.2456 697.077 73.5078 695.765 Q72.729 694.412 71.5813 693.224 Q70.3926 691.994 68.3841 690.805 Q66.3757 689.617 63.7933 688.838 Q62.8916 688.592 62.8916 687.772 Q62.8916 686.747 63.7114 686.747 Q64.4082 686.747 65.8838 687.321 Q67.3184 687.854 69.2039 689.043 Q71.0484 690.19 72.729 691.707 Q74.3686 693.224 75.5163 695.478 Q76.664 697.732 76.664 700.192 Q76.664 703.717 74.7785 706.053 Q72.893 708.39 70.2696 709.25 Q70.6385 709.455 71.1304 709.742 Q71.6223 710.029 72.729 710.89 Q73.7947 711.71 74.6145 712.653 Q75.3933 713.595 76.0081 715.071 Q76.664 716.506 76.664 718.063 Q76.664 720.031 76.0901 721.793 Q75.5163 723.515 74.2046 724.744 Q72.893 725.974 71.0894 725.974 Q69.081 725.974 67.6873 724.621 Q66.2527 723.228 66.2527 721.342 Q66.2527 720.154 66.9495 719.211 Q67.6463 718.227 69.1629 718.227 Q70.8435 718.227 72.1142 719.375 Q73.3848 720.522 73.7127 722.162 Q74.7785 720.481 74.7785 717.981 Q74.7785 715.276 72.4011 713.144 Q70.0237 711.013 66.0478 709.988 Q56.4972 707.447 52.2344 706.463 Q47.9305 705.479 46.086 705.479 Q44.3644 705.479 43.1757 705.93 Q41.987 706.381 41.4542 707.16 Q40.8803 707.898 40.6754 708.595 Q40.4704 709.25 40.4704 709.988 Q40.4704 711.218 40.9623 712.612 Q41.4542 713.964 42.6019 715.604 Q43.7086 717.202 46.004 718.719 Q48.2994 720.236 51.4556 721.26 Q52.3983 721.465 52.3983 722.367 Q52.3573 723.351 51.5375 723.351 Q50.8407 723.351 49.4061 722.818 Q47.9305 722.244 46.086 721.096 Q44.2415 719.908 42.6019 718.391 Q40.9213 716.833 39.7736 714.579 Q38.6259 712.284 38.6259 709.824 Q38.6259 708.718 38.8719 707.652 Q39.0768 706.545 39.6916 705.233 Q40.3065 703.881 41.6591 702.692 Q43.0118 701.503 44.9793 700.766 Q44.0365 700.274 43.1347 699.618 Q42.233 698.921 41.1263 697.855 Q39.9786 696.749 39.3227 695.232 Q38.6259 693.674 38.6259 691.953 Q38.6259 690.272 39.0768 688.633 Q39.4867 686.993 40.8393 685.6 Q42.151 684.165 44.1595 684.165 Z" fill="#000000" fill-rule="evenodd" fill-opacity="1" /><path clip-path="url(#clip550)" d="M95.8879 676.084 Q95.4781 676.084 94.4533 675.018 Q80.6809 661.492 54.7347 661.492 Q28.7065 661.492 15.549 674.486 Q14.0324 676.084 13.5815 676.084 Q12.7617 676.084 12.7617 675.264 Q12.7617 674.69 14.4422 672.682 Q16.1228 670.633 19.9758 667.558 Q23.8288 664.443 28.5426 662.148 Q39.9786 656.614 54.7347 656.614 Q68.917 656.614 80.353 661.902 Q85.1488 664.156 89.1657 667.312 Q93.1827 670.469 94.9452 672.559 Q96.7077 674.649 96.7077 675.264 Q96.7077 676.084 95.8879 676.084 Z" fill="#000000" fill-rule="evenodd" fill-opacity="1" /><path clip-path="url(#clip552)" d="M485.929 407.212 L489.099 416.724 L492.268 426.143 L495.438 435.467 L498.607 444.699 L501.777 453.838 L504.946 462.887 L508.116 471.846 L511.285 480.715 L514.455 489.497 L517.624 498.191 L520.794 506.798 L523.963 515.32 L527.133 523.757 L530.302 532.11 L533.472 540.38 L536.641 548.568 L539.81 556.674 L542.98 564.7 L546.149 572.645 L549.319 580.512 L552.488 588.3 L555.658 596.011 L558.827 603.645 L561.997 611.204 L565.166 618.687 L568.336 626.095 L571.505 633.43 L574.675 640.692 L577.844 647.881 L581.014 654.999 L584.183 662.047 L587.353 669.024 L590.522 675.931 L593.692 682.77 L596.861 689.541 L600.031 696.245 L603.2 702.881 L606.37 709.452 L609.539 715.958 L612.709 722.398 L615.878 728.775 L619.048 735.088 L622.217 741.338 L625.387 747.526 L628.556 753.653 L631.726 759.719 L634.895 765.724 L638.065 771.669 L641.234 777.556 L644.403 783.383 L647.573 789.153 L650.742 794.865 L653.912 800.521 L657.081 806.12 L660.251 811.664 L663.42 817.152 L666.59 822.586 L669.759 827.966 L672.929 833.292 L676.098 838.565 L679.268 843.786 L682.437 848.954 L685.607 854.072 L688.776 859.138 L691.946 864.154 L695.115 869.12 L698.285 874.037 L701.454 878.905 L704.624 883.724 L707.793 888.495 L710.963 893.219 L714.132 897.896 L717.302 902.526 L720.471 907.111 L723.641 911.649 L726.81 916.143 L729.98 920.592 L733.149 924.996 L736.319 929.357 L739.488 933.674 L742.658 937.948 L745.827 942.18 L748.996 946.37 L752.166 950.518 L755.335 954.625 L758.505 958.691 L761.674 962.716 L764.844 966.701 L768.013 970.647 L771.183 974.554 L774.352 978.421 L777.522 982.25 L780.691 986.041 L783.861 989.795 L787.03 993.511 L790.2 997.19 L793.369 1000.83 L796.539 1004.44 L799.708 1008.01 L802.878 1011.54 L806.047 1015.04 L809.217 1018.51 L812.386 1021.94 L815.556 1025.33 L818.725 1028.7 L821.895 1032.02 L825.064 1035.32 L828.234 1038.58 L831.403 1041.81 L831.403 1363.25 L828.234 1363.25 L825.064 1363.25 L821.895 1363.25 L818.725 1363.25 L815.556 1363.25 L812.386 1363.25 L809.217 1363.25 L806.047 1363.25 L802.878 1363.25 L799.708 1363.25 L796.539 1363.25 L793.369 1363.25 L790.2 1363.25 L787.03 1363.25 L783.861 1363.25 L780.691 1363.25 L777.522 1363.25 L774.352 1363.25 L771.183 1363.25 L768.013 1363.25 L764.844 1363.25 L761.674 1363.25 L758.505 1363.25 L755.335 1363.25 L752.166 1363.25 L748.996 1363.25 L745.827 1363.25 L742.658 1363.25 L739.488 1363.25 L736.319 1363.25 L733.149 1363.25 L729.98 1363.25 L726.81 1363.25 L723.641 1363.25 L720.471 1363.25 L717.302 1363.25 L714.132 1363.25 L710.963 1363.25 L707.793 1363.25 L704.624 1363.25 L701.454 1363.25 L698.285 1363.25 L695.115 1363.25 L691.946 1363.25 L688.776 1363.25 L685.607 1363.25 L682.437 1363.25 L679.268 1363.25 L676.098 1363.25 L672.929 1363.25 L669.759 1363.25 L666.59 1363.25 L663.42 1363.25 L660.251 1363.25 L657.081 1363.25 L653.912 1363.25 L650.742 1363.25 L647.573 1363.25 L644.403 1363.25 L641.234 1363.25 L638.065 1363.25 L634.895 1363.25 L631.726 1363.25 L628.556 1363.25 L625.387 1363.25 L622.217 1363.25 L619.048 1363.25 L615.878 1363.25 L612.709 1363.25 L609.539 1363.25 L606.37 1363.25 L603.2 1363.25 L600.031 1363.25 L596.861 1363.25 L593.692 1363.25 L590.522 1363.25 L587.353 1363.25 L584.183 1363.25 L581.014 1363.25 L577.844 1363.25 L574.675 1363.25 L571.505 1363.25 L568.336 1363.25 L565.166 1363.25 L561.997 1363.25 L558.827 1363.25 L555.658 1363.25 L552.488 1363.25 L549.319 1363.25 L546.149 1363.25 L542.98 1363.25 L539.81 1363.25 L536.641 1363.25 L533.472 1363.25 L530.302 1363.25 L527.133 1363.25 L523.963 1363.25 L520.794 1363.25 L517.624 1363.25 L514.455 1363.25 L511.285 1363.25 L508.116 1363.25 L504.946 1363.25 L501.777 1363.25 L498.607 1363.25 L495.438 1363.25 L492.268 1363.25 L489.099 1363.25 L485.929 1363.25  Z" fill="#ff7e00" fill-rule="evenodd" fill-opacity="0.3"/>
<polyline clip-path="url(#clip552)" style="stroke:#000000; stroke-linecap:round; stroke-linejoin:round; stroke-width:8; stroke-opacity:0; fill:none" points="485.929,407.212 489.099,416.724 492.268,426.143 495.438,435.467 498.607,444.699 501.777,453.838 504.946,462.887 508.116,471.846 511.285,480.715 514.455,489.497 517.624,498.191 520.794,506.798 523.963,515.32 527.133,523.757 530.302,532.11 533.472,540.38 536.641,548.568 539.81,556.674 542.98,564.7 546.149,572.645 549.319,580.512 552.488,588.3 555.658,596.011 558.827,603.645 561.997,611.204 565.166,618.687 568.336,626.095 571.505,633.43 574.675,640.692 577.844,647.881 581.014,654.999 584.183,662.047 587.353,669.024 590.522,675.931 593.692,682.77 596.861,689.541 600.031,696.245 603.2,702.881 606.37,709.452 609.539,715.958 612.709,722.398 615.878,728.775 619.048,735.088 622.217,741.338 625.387,747.526 628.556,753.653 631.726,759.719 634.895,765.724 638.065,771.669 641.234,777.556 644.403,783.383 647.573,789.153 650.742,794.865 653.912,800.521 657.081,806.12 660.251,811.664 663.42,817.152 666.59,822.586 669.759,827.966 672.929,833.292 676.098,838.565 679.268,843.786 682.437,848.954 685.607,854.072 688.776,859.138 691.946,864.154 695.115,869.12 698.285,874.037 701.454,878.905 704.624,883.724 707.793,888.495 710.963,893.219 714.132,897.896 717.302,902.526 720.471,907.111 723.641,911.649 726.81,916.143 729.98,920.592 733.149,924.996 736.319,929.357 739.488,933.674 742.658,937.948 745.827,942.18 748.996,946.37 752.166,950.518 755.335,954.625 758.505,958.691 761.674,962.716 764.844,966.701 768.013,970.647 771.183,974.554 774.352,978.421 777.522,982.25 780.691,986.041 783.861,989.795 787.03,993.511 790.2,997.19 793.369,1000.83 796.539,1004.44 799.708,1008.01 802.878,1011.54 806.047,1015.04 809.217,1018.51 812.386,1021.94 815.556,1025.33 818.725,1028.7 821.895,1032.02 825.064,1035.32 828.234,1038.58 831.403,1041.81 "/>
<polyline clip-path="url(#clip552)" style="stroke:#1f78b4; stroke-linecap:round; stroke-linejoin:round; stroke-width:8; stroke-opacity:1; fill:none" points="613.706,1363.25 613.706,724.412 "/>
<polyline clip-path="url(#clip552)" style="stroke:#1f78b4; stroke-linecap:round; stroke-linejoin:round; stroke-width:8; stroke-opacity:1; fill:none" stroke-dasharray="32, 20" points="710.963,1363.25 710.963,893.219 "/>
<polyline clip-path="url(#clip552)" style="stroke:#ff7e00; stroke-linecap:round; stroke-linejoin:round; stroke-width:8; stroke-opacity:1; fill:none" points="394.014,85.5744 397.184,98.2874 400.353,110.874 403.523,123.335 406.692,135.673 409.862,147.887 413.031,159.98 416.201,171.953 419.37,183.807 422.54,195.542 425.709,207.161 428.879,218.664 432.048,230.053 435.217,241.329 438.387,252.492 441.556,263.544 444.726,274.487 447.895,285.32 451.065,296.046 454.234,306.664 457.404,317.178 460.573,327.586 463.743,337.891 466.912,348.094 470.082,358.195 473.251,368.195 476.421,378.096 479.59,387.899 482.76,397.603 485.929,407.212 489.099,416.724 492.268,426.143 495.438,435.467 498.607,444.699 501.777,453.838 504.946,462.887 508.116,471.846 511.285,480.715 514.455,489.497 517.624,498.191 520.794,506.798 523.963,515.32 527.133,523.757 530.302,532.11 533.472,540.38 536.641,548.568 539.81,556.674 542.98,564.7 546.149,572.645 549.319,580.512 552.488,588.3 555.658,596.011 558.827,603.645 561.997,611.204 565.166,618.687 568.336,626.095 571.505,633.43 574.675,640.692 577.844,647.881 581.014,654.999 584.183,662.047 587.353,669.024 590.522,675.931 593.692,682.77 596.861,689.541 600.031,696.245 603.2,702.881 606.37,709.452 609.539,715.958 612.709,722.398 615.878,728.775 619.048,735.088 622.217,741.338 625.387,747.526 628.556,753.653 631.726,759.719 634.895,765.724 638.065,771.669 641.234,777.556 644.403,783.383 647.573,789.153 650.742,794.865 653.912,800.521 657.081,806.12 660.251,811.664 663.42,817.152 666.59,822.586 669.759,827.966 672.929,833.292 676.098,838.565 679.268,843.786 682.437,848.954 685.607,854.072 688.776,859.138 691.946,864.154 695.115,869.12 698.285,874.037 701.454,878.905 704.624,883.724 707.793,888.495 710.963,893.219 714.132,897.896 717.302,902.526 720.471,907.111 723.641,911.649 726.81,916.143 729.98,920.592 733.149,924.996 736.319,929.357 739.488,933.674 742.658,937.948 745.827,942.18 748.996,946.37 752.166,950.518 755.335,954.625 758.505,958.691 761.674,962.716 764.844,966.701 768.013,970.647 771.183,974.554 774.352,978.421 777.522,982.25 780.691,986.041 783.861,989.795 787.03,993.511 790.2,997.19 793.369,1000.83 796.539,1004.44 799.708,1008.01 802.878,1011.54 806.047,1015.04 809.217,1018.51 812.386,1021.94 815.556,1025.33 818.725,1028.7 821.895,1032.02 825.064,1035.32 828.234,1038.58 831.403,1041.81 834.573,1045.01 837.742,1048.18 840.912,1051.31 844.081,1054.42 847.251,1057.49 850.42,1060.53 853.589,1063.54 856.759,1066.53 859.928,1069.48 863.098,1072.4 866.267,1075.3 869.437,1078.16 872.606,1081 875.776,1083.81 878.945,1086.59 882.115,1089.34 885.284,1092.07 888.454,1094.76 891.623,1097.44 894.793,1100.08 897.962,1102.7 901.132,1105.29 904.301,1107.86 907.471,1110.4 910.64,1112.92 913.81,1115.41 916.979,1117.87 920.149,1120.31 923.318,1122.73 926.488,1125.12 929.657,1127.49 932.827,1129.84 935.996,1132.16 939.166,1134.46 942.335,1136.74 945.505,1138.99 948.674,1141.22 951.844,1143.43 955.013,1145.62 958.183,1147.78 961.352,1149.93 964.521,1152.05 967.691,1154.15 970.86,1156.23 974.03,1158.29 977.199,1160.33 980.369,1162.35 983.538,1164.35 986.708,1166.33 989.877,1168.29 993.047,1170.23 996.216,1172.15 999.386,1174.05 1002.56,1175.93 1005.72,1177.8 1008.89,1179.64 1012.06,1181.47 1015.23,1183.28 1018.4,1185.07 1021.57,1186.84 1024.74,1188.6 1027.91,1190.34 1031.08,1192.06 1034.25,1193.76 1037.42,1195.45 1040.59,1197.12 1043.76,1198.77 1046.93,1200.4 1050.1,1202.03 1053.27,1203.63 1056.44,1205.22 1059.61,1206.79 1062.78,1208.35 1065.94,1209.89 1069.11,1211.41 1072.28,1212.92 1075.45,1214.42 1078.62,1215.9 1081.79,1217.37 1084.96,1218.82 1088.13,1220.26 1091.3,1221.68 1094.47,1223.09 1097.64,1224.48 1100.81,1225.86 1103.98,1227.23 1107.15,1228.58 1110.32,1229.92 1113.49,1231.25 1116.66,1232.56 1119.83,1233.86 1123,1235.15 1126.17,1236.43 1129.33,1237.69 1132.5,1238.94 1135.67,1240.17 1138.84,1241.4 1142.01,1242.61 1145.18,1243.81 1148.35,1245 1151.52,1246.18 1154.69,1247.34 1157.86,1248.49 1161.03,1249.64 1164.2,1250.77 1167.37,1251.89 1170.54,1252.99 1173.71,1254.09 1176.88,1255.18 1180.05,1256.25 1183.22,1257.32 1186.39,1258.37 1189.55,1259.42 1192.72,1260.45 1195.89,1261.47 1199.06,1262.48 1202.23,1263.49 1205.4,1264.48 1208.57,1265.46 1211.74,1266.44 1214.91,1267.4 1218.08,1268.35 1221.25,1269.3 1224.42,1270.23 1227.59,1271.16 1230.76,1272.07 1233.93,1272.98 1237.1,1273.88 1240.27,1274.77 1243.44,1275.65 1246.61,1276.52 1249.78,1277.38 1252.94,1278.24 1256.11,1279.08 1259.28,1279.92 1262.45,1280.75 1265.62,1281.57 1268.79,1282.38 1271.96,1283.19 1275.13,1283.98 1278.3,1284.77 1281.47,1285.55 1284.64,1286.33 1287.81,1287.09 1290.98,1287.85 1294.15,1288.6 1297.32,1289.34 1300.49,1290.08 1303.66,1290.81 1306.83,1291.53 1310,1292.24 1313.16,1292.95 1316.33,1293.65 1319.5,1294.34 1322.67,1295.03 1325.84,1295.7 1329.01,1296.38 1332.18,1297.04 1335.35,1297.7 1338.52,1298.35 1341.69,1299 1344.86,1299.64 1348.03,1300.27 1351.2,1300.9 1354.37,1301.52 1357.54,1302.13 1360.71,1302.74 1363.88,1303.34 1367.05,1303.94 1370.22,1304.53 1373.39,1305.11 1376.55,1305.69 1379.72,1306.26 1382.89,1306.83 1386.06,1307.39 1389.23,1307.95 1392.4,1308.5 1395.57,1309.04 1398.74,1309.58 1401.91,1310.12 1405.08,1310.65 1408.25,1311.17 1411.42,1311.69 1414.59,1312.2 1417.76,1312.71 1420.93,1313.21 1424.1,1313.71 1427.27,1314.2 1430.44,1314.69 1433.61,1315.17 1436.77,1315.65 1439.94,1316.12 1443.11,1316.59 1446.28,1317.06 1449.45,1317.52 1452.62,1317.97 1455.79,1318.42 1458.96,1318.87 1462.13,1319.31 1465.3,1319.75 1468.47,1320.18 1471.64,1320.61 1474.81,1321.03 1477.98,1321.45 1481.15,1321.87 1484.32,1322.28 1487.49,1322.69 1490.66,1323.09 1493.83,1323.49 1496.99,1323.89 1500.16,1324.28 1503.33,1324.67 1506.5,1325.05 1509.67,1325.43 1512.84,1325.81 1516.01,1326.18 1519.18,1326.55 1522.35,1326.91 1525.52,1327.28 1528.69,1327.63 1531.86,1327.99 1535.03,1328.34 1538.2,1328.69 1541.37,1329.03 1544.54,1329.37 1547.71,1329.71 1550.88,1330.04 1554.05,1330.37 1557.22,1330.7 1560.38,1331.02 1563.55,1331.34 1566.72,1331.66 1569.89,1331.98 1573.06,1332.29 1576.23,1332.59 1579.4,1332.9 1582.57,1333.2 1585.74,1333.5 1588.91,1333.8 1592.08,1334.09 1595.25,1334.38 1598.42,1334.67 1601.59,1334.95 1604.76,1335.23 1607.93,1335.51 1611.1,1335.79 1614.27,1336.06 1617.44,1336.33 1620.6,1336.6 1623.77,1336.86 1626.94,1337.13 1630.11,1337.39 1633.28,1337.64 1636.45,1337.9 1639.62,1338.15 1642.79,1338.4 1645.96,1338.65 1649.13,1338.89 1652.3,1339.14 1655.47,1339.38 1658.64,1339.61 1661.81,1339.85 1664.98,1340.08 1668.15,1340.31 1671.32,1340.54 1674.49,1340.77 1677.66,1340.99 1680.83,1341.21 1683.99,1341.43 1687.16,1341.65 1690.33,1341.86 1693.5,1342.08 1696.67,1342.29 1699.84,1342.49 1703.01,1342.7 1706.18,1342.91 1709.35,1343.11 1712.52,1343.31 1715.69,1343.51 1718.86,1343.7 1722.03,1343.9 1725.2,1344.09 1728.37,1344.28 1731.54,1344.47 1734.71,1344.66 1737.88,1344.84 1741.05,1345.02 1744.21,1345.21 1747.38,1345.39 1750.55,1345.56 1753.72,1345.74 1756.89,1345.91 1760.06,1346.09 1763.23,1346.26 1766.4,1346.43 1769.57,1346.59 1772.74,1346.76 1775.91,1346.92 1779.08,1347.09 1782.25,1347.25 1785.42,1347.41 1788.59,1347.56 1791.76,1347.72 1794.93,1347.87 1798.1,1348.03 1801.27,1348.18 1804.43,1348.33 1807.6,1348.48 1810.77,1348.62 1813.94,1348.77 1817.11,1348.91 1820.28,1349.06 1823.45,1349.2 1826.62,1349.34 1829.79,1349.48 1832.96,1349.61 1836.13,1349.75 1839.3,1349.88 1842.47,1350.02 1845.64,1350.15 1848.81,1350.28 1851.98,1350.41 1855.15,1350.53 1858.32,1350.66 1861.49,1350.79 1864.66,1350.91 1867.82,1351.03 1870.99,1351.15 1874.16,1351.27 1877.33,1351.39 1880.5,1351.51 1883.67,1351.63 1886.84,1351.74 1890.01,1351.86 1893.18,1351.97 1896.35,1352.08 1899.52,1352.2 1902.69,1352.31 1905.86,1352.41 1909.03,1352.52 1912.2,1352.63 1915.37,1352.73 1918.54,1352.84 1921.71,1352.94 1924.88,1353.05 1928.04,1353.15 1931.21,1353.25 1934.38,1353.35 1937.55,1353.45 1940.72,1353.54 1943.89,1353.64 1947.06,1353.74 1950.23,1353.83 1953.4,1353.92 1956.57,1354.02 1959.74,1354.11 1962.91,1354.2 1966.08,1354.29 1969.25,1354.38 1972.42,1354.47 1975.59,1354.55 1978.76,1354.64 1981.93,1354.73 1985.1,1354.81 1988.27,1354.9 1991.43,1354.98 1994.6,1355.06 1997.77,1355.14 2000.94,1355.22 2004.11,1355.3 2007.28,1355.38 2010.45,1355.46 2013.62,1355.54 2016.79,1355.61 2019.96,1355.69 2023.13,1355.77 2026.3,1355.84 2029.47,1355.91 2032.64,1355.99 2035.81,1356.06 2038.98,1356.13 2042.15,1356.2 2045.32,1356.27 2048.49,1356.34 2051.65,1356.41 2054.82,1356.48 2057.99,1356.54 2061.16,1356.61 2064.33,1356.68 2067.5,1356.74 2070.67,1356.81 2073.84,1356.87 2077.01,1356.94 2080.18,1357 2083.35,1357.06 2086.52,1357.12 2089.69,1357.18 2092.86,1357.24 2096.03,1357.3 2099.2,1357.36 2102.37,1357.42 2105.54,1357.48 2108.71,1357.54 2111.88,1357.59 2115.04,1357.65 2118.21,1357.71 2121.38,1357.76 2124.55,1357.81 2127.72,1357.87 2130.89,1357.92 2134.06,1357.98 2137.23,1358.03 2140.4,1358.08 2143.57,1358.13 2146.74,1358.18 2149.91,1358.23 2153.08,1358.28 2156.25,1358.33 2159.42,1358.38 2162.59,1358.43 2165.76,1358.48 2168.93,1358.52 2172.1,1358.57 2175.26,1358.62 2178.43,1358.66 2181.6,1358.71 2184.77,1358.76 2187.94,1358.8 2191.11,1358.84 2194.28,1358.89 2197.45,1358.93 2200.62,1358.97 2203.79,1359.02 2206.96,1359.06 2210.13,1359.1 2213.3,1359.14 2216.47,1359.18 2219.64,1359.22 2222.81,1359.26 2225.98,1359.3 2229.15,1359.34 2232.32,1359.38 2235.48,1359.42 2238.65,1359.46 2241.82,1359.5 2244.99,1359.53 2248.16,1359.57 2251.33,1359.61 2254.5,1359.64 2257.67,1359.68 2260.84,1359.71 2264.01,1359.75 2267.18,1359.78 2270.35,1359.82 2273.52,1359.85 2276.69,1359.89 2279.86,1359.92 2283.03,1359.95 2286.2,1359.99 2289.37,1360.02 2292.54,1360.05 2295.71,1360.08 "/>
<path clip-path="url(#clip550)" d="M1751.49 351.589 L2285.56 351.589 L2285.56 92.3886 L1751.49 92.3886  Z" fill="#ffffff" fill-rule="evenodd" fill-opacity="1"/>
<polyline clip-path="url(#clip550)" style="stroke:#000000; stroke-linecap:round; stroke-linejoin:round; stroke-width:4; stroke-opacity:1; fill:none" points="1751.49,351.589 2285.56,351.589 2285.56,92.3886 1751.49,92.3886 1751.49,351.589 "/>
<path clip-path="url(#clip550)" d="M1773.89 183.109 L1908.28 183.109 L1908.28 131.269 L1773.89 131.269 L1773.89 183.109  Z" fill="#ff7e00" fill-rule="evenodd" fill-opacity="0.3"/>
<polyline clip-path="url(#clip550)" style="stroke:#000000; stroke-linecap:round; stroke-linejoin:round; stroke-width:10; stroke-opacity:0; fill:none" points="1773.89,131.269 1908.28,131.269 "/>
<path clip-path="url(#clip550)" d="M1930.67 135.589 L1936.52 135.589 L1936.52 178.789 L1930.67 178.789 L1930.67 135.589 Z" fill="#000000" fill-rule="evenodd" fill-opacity="1" /><path clip-path="url(#clip550)" d="M1965.68 139.553 Q1959.32 139.553 1955.56 144.298 Q1951.82 149.043 1951.82 157.232 Q1951.82 165.392 1955.56 170.137 Q1959.32 174.882 1965.68 174.882 Q1972.05 174.882 1975.75 170.137 Q1979.49 165.392 1979.49 157.232 Q1979.49 149.043 1975.75 144.298 Q1972.05 139.553 1965.68 139.553 M1973.87 178.007 L1981.57 186.427 L1974.51 186.427 L1968.11 179.512 Q1967.16 179.57 1966.64 179.599 Q1966.15 179.628 1965.68 179.628 Q1956.57 179.628 1951.1 173.551 Q1945.66 167.446 1945.66 157.232 Q1945.66 146.989 1951.1 140.913 Q1956.57 134.807 1965.68 134.807 Q1974.77 134.807 1980.21 140.913 Q1985.65 146.989 1985.65 157.232 Q1985.65 164.755 1982.61 170.108 Q1979.6 175.461 1973.87 178.007 Z" fill="#000000" fill-rule="evenodd" fill-opacity="1" /><path clip-path="url(#clip550)" d="M2015.28 158.534 Q2017.16 159.171 2018.92 161.254 Q2020.72 163.337 2022.51 166.983 L2028.44 178.789 L2022.17 178.789 L2016.64 167.707 Q2014.5 163.366 2012.47 161.948 Q2010.48 160.531 2007 160.531 L2000.64 160.531 L2000.64 178.789 L1994.79 178.789 L1994.79 135.589 L2007.99 135.589 Q2015.39 135.589 2019.04 138.685 Q2022.69 141.781 2022.69 148.031 Q2022.69 152.111 2020.78 154.801 Q2018.9 157.492 2015.28 158.534 M2000.64 140.392 L2000.64 155.727 L2007.99 155.727 Q2012.21 155.727 2014.35 153.789 Q2016.52 151.821 2016.52 148.031 Q2016.52 144.24 2014.35 142.33 Q2012.21 140.392 2007.99 140.392 L2000.64 140.392 Z" fill="#000000" fill-rule="evenodd" fill-opacity="1" /><polyline clip-path="url(#clip550)" style="stroke:#1f78b4; stroke-linecap:round; stroke-linejoin:round; stroke-width:10; stroke-opacity:1; fill:none" points="1773.89,221.989 1908.28,221.989 "/>
<path clip-path="url(#clip550)" d="M1956.11 217.402 Q1958.1 213.814 1960.88 212.107 Q1963.66 210.4 1967.42 210.4 Q1972.48 210.4 1975.23 213.959 Q1977.98 217.489 1977.98 224.029 L1977.98 243.589 L1972.63 243.589 L1972.63 224.202 Q1972.63 219.544 1970.98 217.287 Q1969.33 215.03 1965.94 215.03 Q1961.81 215.03 1959.41 217.779 Q1957 220.527 1957 225.273 L1957 243.589 L1951.65 243.589 L1951.65 224.202 Q1951.65 219.515 1950 217.287 Q1948.35 215.03 1944.91 215.03 Q1940.83 215.03 1938.43 217.808 Q1936.03 220.556 1936.03 225.273 L1936.03 243.589 L1930.67 243.589 L1930.67 211.181 L1936.03 211.181 L1936.03 216.216 Q1937.85 213.236 1940.39 211.818 Q1942.94 210.4 1946.44 210.4 Q1949.97 210.4 1952.43 212.194 Q1954.92 213.988 1956.11 217.402 Z" fill="#000000" fill-rule="evenodd" fill-opacity="1" /><path clip-path="url(#clip550)" d="M2016.32 226.054 L2016.32 228.658 L1991.84 228.658 Q1992.19 234.156 1995.14 237.049 Q1998.12 239.914 2003.42 239.914 Q2006.48 239.914 2009.35 239.162 Q2012.24 238.409 2015.08 236.905 L2015.08 241.939 Q2012.21 243.155 2009.2 243.791 Q2006.19 244.428 2003.1 244.428 Q1995.34 244.428 1990.8 239.914 Q1986.29 235.4 1986.29 227.703 Q1986.29 219.746 1990.57 215.088 Q1994.88 210.4 2002.17 210.4 Q2008.71 210.4 2012.5 214.625 Q2016.32 218.82 2016.32 226.054 M2011 224.491 Q2010.94 220.122 2008.54 217.518 Q2006.16 214.914 2002.23 214.914 Q1997.77 214.914 1995.08 217.431 Q1992.42 219.949 1992.01 224.52 L2011 224.491 Z" fill="#000000" fill-rule="evenodd" fill-opacity="1" /><path clip-path="url(#clip550)" d="M2046.38 216.1 L2046.38 198.566 L2051.71 198.566 L2051.71 243.589 L2046.38 243.589 L2046.38 238.728 Q2044.71 241.621 2042.13 243.039 Q2039.58 244.428 2036 244.428 Q2030.12 244.428 2026.42 239.74 Q2022.74 235.053 2022.74 227.414 Q2022.74 219.775 2026.42 215.088 Q2030.12 210.4 2036 210.4 Q2039.58 210.4 2042.13 211.818 Q2044.71 213.207 2046.38 216.1 M2028.24 227.414 Q2028.24 233.288 2030.64 236.644 Q2033.07 239.972 2037.3 239.972 Q2041.52 239.972 2043.95 236.644 Q2046.38 233.288 2046.38 227.414 Q2046.38 221.54 2043.95 218.213 Q2041.52 214.856 2037.3 214.856 Q2033.07 214.856 2030.64 218.213 Q2028.24 221.54 2028.24 227.414 Z" fill="#000000" fill-rule="evenodd" fill-opacity="1" /><path clip-path="url(#clip550)" d="M2062.67 211.181 L2068 211.181 L2068 243.589 L2062.67 243.589 L2062.67 211.181 M2062.67 198.566 L2068 198.566 L2068 205.308 L2062.67 205.308 L2062.67 198.566 Z" fill="#000000" fill-rule="evenodd" fill-opacity="1" /><path clip-path="url(#clip550)" d="M2093.87 227.298 Q2087.41 227.298 2084.93 228.774 Q2082.44 230.25 2082.44 233.809 Q2082.44 236.644 2084.29 238.322 Q2086.17 239.972 2089.38 239.972 Q2093.81 239.972 2096.47 236.847 Q2099.16 233.693 2099.16 228.485 L2099.16 227.298 L2093.87 227.298 M2104.49 225.099 L2104.49 243.589 L2099.16 243.589 L2099.16 238.67 Q2097.34 241.621 2094.62 243.039 Q2091.9 244.428 2087.96 244.428 Q2082.99 244.428 2080.04 241.65 Q2077.11 238.843 2077.11 234.156 Q2077.11 228.687 2080.76 225.909 Q2084.43 223.132 2091.7 223.132 L2099.16 223.132 L2099.16 222.611 Q2099.16 218.936 2096.73 216.939 Q2094.33 214.914 2089.96 214.914 Q2087.18 214.914 2084.55 215.58 Q2081.92 216.245 2079.49 217.576 L2079.49 212.657 Q2082.41 211.529 2085.16 210.979 Q2087.91 210.4 2090.51 210.4 Q2097.54 210.4 2101.01 214.046 Q2104.49 217.692 2104.49 225.099 Z" fill="#000000" fill-rule="evenodd" fill-opacity="1" /><path clip-path="url(#clip550)" d="M2142.39 224.029 L2142.39 243.589 L2137.07 243.589 L2137.07 224.202 Q2137.07 219.601 2135.27 217.316 Q2133.48 215.03 2129.89 215.03 Q2125.58 215.03 2123.09 217.779 Q2120.6 220.527 2120.6 225.273 L2120.6 243.589 L2115.25 243.589 L2115.25 211.181 L2120.6 211.181 L2120.6 216.216 Q2122.51 213.294 2125.09 211.847 Q2127.69 210.4 2131.08 210.4 Q2136.66 210.4 2139.53 213.872 Q2142.39 217.316 2142.39 224.029 Z" fill="#000000" fill-rule="evenodd" fill-opacity="1" /><polyline clip-path="url(#clip550)" style="stroke:#1f78b4; stroke-linecap:round; stroke-linejoin:round; stroke-width:10; stroke-opacity:1; fill:none" stroke-dasharray="40, 25" points="1773.89,286.789 1908.28,286.789 "/>
<path clip-path="url(#clip550)" d="M1930.67 275.981 L1936.32 275.981 L1946.44 303.18 L1956.57 275.981 L1962.21 275.981 L1950.06 308.389 L1942.83 308.389 L1930.67 275.981 Z" fill="#000000" fill-rule="evenodd" fill-opacity="1" /><path clip-path="url(#clip550)" d="M1984.29 292.098 Q1977.84 292.098 1975.35 293.574 Q1972.86 295.05 1972.86 298.609 Q1972.86 301.444 1974.71 303.122 Q1976.59 304.772 1979.8 304.772 Q1984.23 304.772 1986.89 301.647 Q1989.58 298.493 1989.58 293.285 L1989.58 292.098 L1984.29 292.098 M1994.91 289.899 L1994.91 308.389 L1989.58 308.389 L1989.58 303.47 Q1987.76 306.421 1985.04 307.839 Q1982.32 309.228 1978.39 309.228 Q1973.41 309.228 1970.46 306.45 Q1967.54 303.643 1967.54 298.956 Q1967.54 293.487 1971.18 290.709 Q1974.86 287.932 1982.12 287.932 L1989.58 287.932 L1989.58 287.411 Q1989.58 283.736 1987.15 281.739 Q1984.75 279.714 1980.38 279.714 Q1977.61 279.714 1974.97 280.38 Q1972.34 281.045 1969.91 282.376 L1969.91 277.457 Q1972.83 276.329 1975.58 275.779 Q1978.33 275.2 1980.93 275.2 Q1987.96 275.2 1991.44 278.846 Q1994.91 282.492 1994.91 289.899 M1983.88 263.481 L1989.76 263.481 L1989.76 269.326 L1983.88 269.326 L1983.88 263.481 M1972.57 263.481 L1978.44 263.481 L1978.44 269.326 L1972.57 269.326 L1972.57 263.481 Z" fill="#000000" fill-rule="evenodd" fill-opacity="1" /><path clip-path="url(#clip550)" d="M2032.81 288.829 L2032.81 308.389 L2027.49 308.389 L2027.49 289.002 Q2027.49 284.401 2025.7 282.116 Q2023.9 279.83 2020.31 279.83 Q2016 279.83 2013.51 282.579 Q2011.03 285.327 2011.03 290.073 L2011.03 308.389 L2005.67 308.389 L2005.67 275.981 L2011.03 275.981 L2011.03 281.016 Q2012.93 278.094 2015.51 276.647 Q2018.11 275.2 2021.5 275.2 Q2027.08 275.2 2029.95 278.672 Q2032.81 282.116 2032.81 288.829 Z" fill="#000000" fill-rule="evenodd" fill-opacity="1" /><path clip-path="url(#clip550)" d="M2048.7 266.78 L2048.7 275.981 L2059.67 275.981 L2059.67 280.119 L2048.7 280.119 L2048.7 297.712 Q2048.7 301.676 2049.77 302.804 Q2050.87 303.933 2054.2 303.933 L2059.67 303.933 L2059.67 308.389 L2054.2 308.389 Q2048.03 308.389 2045.69 306.103 Q2043.35 303.788 2043.35 297.712 L2043.35 280.119 L2039.44 280.119 L2039.44 275.981 L2043.35 275.981 L2043.35 266.78 L2048.7 266.78 Z" fill="#000000" fill-rule="evenodd" fill-opacity="1" /><path clip-path="url(#clip550)" d="M2094.39 290.854 L2094.39 293.458 L2069.91 293.458 Q2070.26 298.956 2073.21 301.849 Q2076.19 304.714 2081.48 304.714 Q2084.55 304.714 2087.41 303.962 Q2090.31 303.209 2093.14 301.705 L2093.14 306.739 Q2090.28 307.955 2087.27 308.591 Q2084.26 309.228 2081.16 309.228 Q2073.41 309.228 2068.87 304.714 Q2064.35 300.2 2064.35 292.503 Q2064.35 284.546 2068.63 279.888 Q2072.95 275.2 2080.24 275.2 Q2086.78 275.2 2090.57 279.425 Q2094.39 283.62 2094.39 290.854 M2089.06 289.291 Q2089.01 284.922 2086.6 282.318 Q2084.23 279.714 2080.3 279.714 Q2075.84 279.714 2073.15 282.231 Q2070.49 284.749 2070.08 289.32 L2089.06 289.291 Z" fill="#000000" fill-rule="evenodd" fill-opacity="1" /><path clip-path="url(#clip550)" d="M2099.31 275.981 L2104.95 275.981 L2115.08 303.18 L2125.2 275.981 L2130.85 275.981 L2118.69 308.389 L2111.46 308.389 L2099.31 275.981 Z" fill="#000000" fill-rule="evenodd" fill-opacity="1" /><path clip-path="url(#clip550)" d="M2152.92 292.098 Q2146.47 292.098 2143.98 293.574 Q2141.49 295.05 2141.49 298.609 Q2141.49 301.444 2143.35 303.122 Q2145.23 304.772 2148.44 304.772 Q2152.86 304.772 2155.53 301.647 Q2158.22 298.493 2158.22 293.285 L2158.22 292.098 L2152.92 292.098 M2163.54 289.899 L2163.54 308.389 L2158.22 308.389 L2158.22 303.47 Q2156.39 306.421 2153.67 307.839 Q2150.96 309.228 2147.02 309.228 Q2142.04 309.228 2139.09 306.45 Q2136.17 303.643 2136.17 298.956 Q2136.17 293.487 2139.82 290.709 Q2143.49 287.932 2150.75 287.932 L2158.22 287.932 L2158.22 287.411 Q2158.22 283.736 2155.79 281.739 Q2153.39 279.714 2149.02 279.714 Q2146.24 279.714 2143.61 280.38 Q2140.97 281.045 2138.54 282.376 L2138.54 277.457 Q2141.46 276.329 2144.21 275.779 Q2146.96 275.2 2149.57 275.2 Q2156.6 275.2 2160.07 278.846 Q2163.54 282.492 2163.54 289.899 M2152.52 263.481 L2158.39 263.481 L2158.39 269.326 L2152.52 269.326 L2152.52 263.481 M2141.2 263.481 L2147.08 263.481 L2147.08 269.326 L2141.2 269.326 L2141.2 263.481 Z" fill="#000000" fill-rule="evenodd" fill-opacity="1" /><path clip-path="url(#clip550)" d="M2193.29 280.958 Q2192.39 280.437 2191.32 280.206 Q2190.28 279.945 2189 279.945 Q2184.49 279.945 2182.06 282.897 Q2179.66 285.819 2179.66 291.317 L2179.66 308.389 L2174.31 308.389 L2174.31 275.981 L2179.66 275.981 L2179.66 281.016 Q2181.34 278.065 2184.03 276.647 Q2186.72 275.2 2190.57 275.2 Q2191.12 275.2 2191.78 275.287 Q2192.45 275.345 2193.26 275.489 L2193.29 280.958 Z" fill="#000000" fill-rule="evenodd" fill-opacity="1" /><path clip-path="url(#clip550)" d="M2219.15 280.9 L2219.15 263.366 L2224.48 263.366 L2224.48 308.389 L2219.15 308.389 L2219.15 303.528 Q2217.48 306.421 2214.9 307.839 Q2212.36 309.228 2208.77 309.228 Q2202.89 309.228 2199.19 304.54 Q2195.52 299.853 2195.52 292.214 Q2195.52 284.575 2199.19 279.888 Q2202.89 275.2 2208.77 275.2 Q2212.36 275.2 2214.9 276.618 Q2217.48 278.007 2219.15 280.9 M2201.01 292.214 Q2201.01 298.088 2203.41 301.444 Q2205.84 304.772 2210.07 304.772 Q2214.29 304.772 2216.72 301.444 Q2219.15 298.088 2219.15 292.214 Q2219.15 286.34 2216.72 283.013 Q2214.29 279.656 2210.07 279.656 Q2205.84 279.656 2203.41 283.013 Q2201.01 286.34 2201.01 292.214 Z" fill="#000000" fill-rule="evenodd" fill-opacity="1" /><path clip-path="url(#clip550)" d="M2263.17 290.854 L2263.17 293.458 L2238.69 293.458 Q2239.03 298.956 2241.98 301.849 Q2244.96 304.714 2250.26 304.714 Q2253.33 304.714 2256.19 303.962 Q2259.09 303.209 2261.92 301.705 L2261.92 306.739 Q2259.06 307.955 2256.05 308.591 Q2253.04 309.228 2249.94 309.228 Q2242.19 309.228 2237.64 304.714 Q2233.13 300.2 2233.13 292.503 Q2233.13 284.546 2237.41 279.888 Q2241.72 275.2 2249.02 275.2 Q2255.56 275.2 2259.35 279.425 Q2263.17 283.62 2263.17 290.854 M2257.84 289.291 Q2257.78 284.922 2255.38 282.318 Q2253.01 279.714 2249.07 279.714 Q2244.62 279.714 2241.93 282.231 Q2239.26 284.749 2238.86 289.32 L2257.84 289.291 Z" fill="#000000" fill-rule="evenodd" fill-opacity="1" /></svg>
