<?xml version="1.0" encoding="utf-8"?>
<svg xmlns="http://www.w3.org/2000/svg" xmlns:xlink="http://www.w3.org/1999/xlink" width="600" height="400" viewBox="0 0 2400 1600">
<defs>
  <clipPath id="clip180">
    <rect x="0" y="0" width="2400" height="1600"/>
  </clipPath>
</defs>
<path clip-path="url(#clip180)" d="
M0 1600 L2400 1600 L2400 0 L0 0  Z
  " fill="#ffffff" fill-rule="evenodd" fill-opacity="1"/>
<defs>
  <clipPath id="clip181">
    <rect x="480" y="0" width="1681" height="1600"/>
  </clipPath>
</defs>
<defs>
  <clipPath id="clip182">
    <rect x="354" y="47" width="2000" height="1321"/>
  </clipPath>
</defs>
<path clip-path="url(#clip180)" d="
M354.243 1367.02 L2352.76 1367.02 L2352.76 47.2441 L354.243 47.2441  Z
  " fill="#ffffff" fill-rule="evenodd" fill-opacity="1"/>
<polyline clip-path="url(#clip180)" style="stroke:#000000; stroke-linecap:round; stroke-linejoin:round; stroke-width:4; stroke-opacity:1; fill:none" points="
  354.243,1367.02 2352.76,1367.02 
  "/>
<polyline clip-path="url(#clip180)" style="stroke:#000000; stroke-linecap:round; stroke-linejoin:round; stroke-width:4; stroke-opacity:1; fill:none" points="
  410.805,1367.02 410.805,1348.12 
  "/>
<polyline clip-path="url(#clip180)" style="stroke:#000000; stroke-linecap:round; stroke-linejoin:round; stroke-width:4; stroke-opacity:1; fill:none" points="
  725.037,1367.02 725.037,1348.12 
  "/>
<polyline clip-path="url(#clip180)" style="stroke:#000000; stroke-linecap:round; stroke-linejoin:round; stroke-width:4; stroke-opacity:1; fill:none" points="
  1039.27,1367.02 1039.27,1348.12 
  "/>
<polyline clip-path="url(#clip180)" style="stroke:#000000; stroke-linecap:round; stroke-linejoin:round; stroke-width:4; stroke-opacity:1; fill:none" points="
  1353.5,1367.02 1353.5,1348.12 
  "/>
<polyline clip-path="url(#clip180)" style="stroke:#000000; stroke-linecap:round; stroke-linejoin:round; stroke-width:4; stroke-opacity:1; fill:none" points="
  1667.73,1367.02 1667.73,1348.12 
  "/>
<polyline clip-path="url(#clip180)" style="stroke:#000000; stroke-linecap:round; stroke-linejoin:round; stroke-width:4; stroke-opacity:1; fill:none" points="
  1981.96,1367.02 1981.96,1348.12 
  "/>
<polyline clip-path="url(#clip180)" style="stroke:#000000; stroke-linecap:round; stroke-linejoin:round; stroke-width:4; stroke-opacity:1; fill:none" points="
  2296.19,1367.02 2296.19,1348.12 
  "/>
<path clip-path="url(#clip180)" d="M410.805 1406.73 Q404.486 1406.73 401.285 1412.97 Q398.126 1419.16 398.126 1431.64 Q398.126 1444.08 401.285 1450.32 Q404.486 1456.51 410.805 1456.51 Q417.165 1456.51 420.325 1450.32 Q423.525 1444.08 423.525 1431.64 Q423.525 1419.16 420.325 1412.97 Q417.165 1406.73 410.805 1406.73 M410.805 1400.25 Q420.973 1400.25 426.32 1408.31 Q431.708 1416.33 431.708 1431.64 Q431.708 1446.91 426.32 1454.97 Q420.973 1462.99 410.805 1462.99 Q400.637 1462.99 395.25 1454.97 Q389.902 1446.91 389.902 1431.64 Q389.902 1416.33 395.25 1408.31 Q400.637 1400.25 410.805 1400.25 Z" fill="#000000" fill-rule="evenodd" fill-opacity="1" /><path clip-path="url(#clip180)" d="M708.205 1454.93 L721.573 1454.93 L721.573 1408.79 L707.03 1411.71 L707.03 1404.26 L721.492 1401.34 L729.675 1401.34 L729.675 1454.93 L743.043 1454.93 L743.043 1461.82 L708.205 1461.82 L708.205 1454.93 Z" fill="#000000" fill-rule="evenodd" fill-opacity="1" /><path clip-path="url(#clip180)" d="M1029.91 1454.93 L1058.47 1454.93 L1058.47 1461.82 L1020.07 1461.82 L1020.07 1454.93 Q1024.73 1450.11 1032.75 1442.01 Q1040.81 1433.87 1042.87 1431.52 Q1046.8 1427.1 1048.34 1424.07 Q1049.92 1420.99 1049.92 1418.03 Q1049.92 1413.21 1046.52 1410.17 Q1043.16 1407.13 1037.73 1407.13 Q1033.88 1407.13 1029.59 1408.47 Q1025.33 1409.81 1020.47 1412.52 L1020.47 1404.26 Q1025.41 1402.27 1029.71 1401.26 Q1034 1400.25 1037.57 1400.25 Q1046.96 1400.25 1052.56 1404.95 Q1058.15 1409.64 1058.15 1417.5 Q1058.15 1421.23 1056.73 1424.59 Q1055.35 1427.91 1051.66 1432.45 Q1050.65 1433.63 1045.22 1439.26 Q1039.79 1444.85 1029.91 1454.93 Z" fill="#000000" fill-rule="evenodd" fill-opacity="1" /><path clip-path="url(#clip180)" d="M1360.93 1429.21 Q1366.81 1430.47 1370.09 1434.44 Q1373.41 1438.41 1373.41 1444.24 Q1373.41 1453.19 1367.25 1458.09 Q1361.1 1462.99 1349.75 1462.99 Q1345.94 1462.99 1341.89 1462.22 Q1337.88 1461.5 1333.59 1460 L1333.59 1452.1 Q1336.99 1454.08 1341.04 1455.1 Q1345.09 1456.11 1349.51 1456.11 Q1357.21 1456.11 1361.22 1453.07 Q1365.27 1450.03 1365.27 1444.24 Q1365.27 1438.89 1361.5 1435.89 Q1357.77 1432.86 1351.09 1432.86 L1344.04 1432.86 L1344.04 1426.13 L1351.41 1426.13 Q1357.45 1426.13 1360.65 1423.74 Q1363.85 1421.31 1363.85 1416.77 Q1363.85 1412.12 1360.53 1409.64 Q1357.25 1407.13 1351.09 1407.13 Q1347.73 1407.13 1343.88 1407.86 Q1340.03 1408.59 1335.41 1410.13 L1335.41 1402.84 Q1340.07 1401.54 1344.12 1400.89 Q1348.21 1400.25 1351.82 1400.25 Q1361.14 1400.25 1366.56 1404.5 Q1371.99 1408.71 1371.99 1415.92 Q1371.99 1420.95 1369.12 1424.43 Q1366.24 1427.87 1360.93 1429.21 Z" fill="#000000" fill-rule="evenodd" fill-opacity="1" /><path clip-path="url(#clip180)" d="M1673 1408.47 L1652.34 1440.76 L1673 1440.76 L1673 1408.47 M1670.85 1401.34 L1681.14 1401.34 L1681.14 1440.76 L1689.77 1440.76 L1689.77 1447.56 L1681.14 1447.56 L1681.14 1461.82 L1673 1461.82 L1673 1447.56 L1645.69 1447.56 L1645.69 1439.66 L1670.85 1401.34 Z" fill="#000000" fill-rule="evenodd" fill-opacity="1" /><path clip-path="url(#clip180)" d="M1964.95 1401.34 L1997.07 1401.34 L1997.07 1408.23 L1972.44 1408.23 L1972.44 1423.05 Q1974.23 1422.45 1976.01 1422.16 Q1977.79 1421.84 1979.57 1421.84 Q1989.7 1421.84 1995.61 1427.39 Q2001.53 1432.94 2001.53 1442.42 Q2001.53 1452.18 1995.45 1457.61 Q1989.38 1462.99 1978.32 1462.99 Q1974.51 1462.99 1970.54 1462.35 Q1966.61 1461.7 1962.4 1460.4 L1962.4 1452.18 Q1966.04 1454.16 1969.93 1455.14 Q1973.82 1456.11 1978.15 1456.11 Q1985.16 1456.11 1989.25 1452.42 Q1993.35 1448.74 1993.35 1442.42 Q1993.35 1436.1 1989.25 1432.41 Q1985.16 1428.72 1978.15 1428.72 Q1974.87 1428.72 1971.59 1429.45 Q1968.35 1430.18 1964.95 1431.72 L1964.95 1401.34 Z" fill="#000000" fill-rule="evenodd" fill-opacity="1" /><path clip-path="url(#clip180)" d="M2296.9 1428.32 Q2291.39 1428.32 2288.15 1432.09 Q2284.95 1435.85 2284.95 1442.42 Q2284.95 1448.94 2288.15 1452.75 Q2291.39 1456.51 2296.9 1456.51 Q2302.41 1456.51 2305.61 1452.75 Q2308.85 1448.94 2308.85 1442.42 Q2308.85 1435.85 2305.61 1432.09 Q2302.41 1428.32 2296.9 1428.32 M2313.15 1402.68 L2313.15 1410.13 Q2310.07 1408.67 2306.91 1407.9 Q2303.79 1407.13 2300.71 1407.13 Q2292.61 1407.13 2288.32 1412.6 Q2284.06 1418.07 2283.45 1429.13 Q2285.84 1425.6 2289.45 1423.74 Q2293.05 1421.84 2297.39 1421.84 Q2306.5 1421.84 2311.77 1427.39 Q2317.08 1432.9 2317.08 1442.42 Q2317.08 1451.73 2311.57 1457.36 Q2306.06 1462.99 2296.9 1462.99 Q2286.41 1462.99 2280.86 1454.97 Q2275.31 1446.91 2275.31 1431.64 Q2275.31 1417.3 2282.12 1408.79 Q2288.92 1400.25 2300.39 1400.25 Q2303.47 1400.25 2306.58 1400.85 Q2309.74 1401.46 2313.15 1402.68 Z" fill="#000000" fill-rule="evenodd" fill-opacity="1" /><path clip-path="url(#clip180)" d="M1376.7 1522.83 Q1376.7 1525.78 1374.85 1527.47 Q1373.01 1529.1 1370.9 1529.1 Q1368.9 1529.1 1367.84 1527.94 Q1366.79 1526.78 1366.79 1525.31 Q1366.79 1523.31 1368.26 1521.57 Q1369.74 1519.83 1371.95 1519.46 Q1369.79 1518.09 1366.58 1518.09 Q1364.47 1518.09 1362.62 1519.2 Q1360.83 1520.3 1359.73 1521.73 Q1358.67 1523.15 1357.72 1525.2 Q1356.83 1527.21 1356.46 1528.42 Q1356.14 1529.58 1355.88 1530.84 L1352.19 1545.6 Q1350.4 1552.61 1350.4 1555.08 Q1350.4 1558.14 1351.87 1560.2 Q1353.35 1562.2 1356.3 1562.2 Q1357.46 1562.2 1358.78 1561.88 Q1360.09 1561.51 1361.78 1560.57 Q1363.52 1559.56 1365.05 1558.09 Q1366.63 1556.56 1368.16 1553.98 Q1369.69 1551.4 1370.69 1548.08 Q1371 1546.92 1372.06 1546.92 Q1373.38 1546.92 1373.38 1547.97 Q1373.38 1548.87 1372.64 1550.76 Q1371.95 1552.61 1370.42 1555.03 Q1368.95 1557.4 1367 1559.56 Q1365.05 1561.67 1362.15 1563.15 Q1359.25 1564.62 1356.09 1564.62 Q1351.56 1564.62 1348.55 1562.2 Q1345.55 1559.78 1344.44 1556.4 Q1344.18 1556.88 1343.81 1557.51 Q1343.44 1558.14 1342.33 1559.56 Q1341.28 1560.93 1340.07 1561.99 Q1338.86 1562.99 1336.96 1563.78 Q1335.11 1564.62 1333.11 1564.62 Q1330.58 1564.62 1328.32 1563.89 Q1326.1 1563.15 1324.52 1561.46 Q1322.94 1559.78 1322.94 1557.46 Q1322.94 1554.87 1324.68 1553.08 Q1326.47 1551.24 1328.9 1551.24 Q1330.42 1551.24 1331.64 1552.13 Q1332.9 1553.03 1332.9 1554.98 Q1332.9 1557.14 1331.43 1558.77 Q1329.95 1560.41 1327.84 1560.83 Q1330 1562.2 1333.22 1562.2 Q1336.7 1562.2 1339.44 1559.14 Q1342.18 1556.09 1343.49 1550.97 Q1346.76 1538.69 1348.03 1533.21 Q1349.29 1527.68 1349.29 1525.31 Q1349.29 1523.1 1348.71 1521.57 Q1348.13 1520.04 1347.13 1519.35 Q1346.18 1518.62 1345.29 1518.35 Q1344.44 1518.09 1343.49 1518.09 Q1341.91 1518.09 1340.12 1518.72 Q1338.38 1519.35 1336.27 1520.83 Q1334.22 1522.25 1332.27 1525.2 Q1330.32 1528.15 1329 1532.21 Q1328.74 1533.42 1327.58 1533.42 Q1326.31 1533.37 1326.31 1532.32 Q1326.31 1531.42 1327 1529.58 Q1327.74 1527.68 1329.21 1525.31 Q1330.74 1522.94 1332.69 1520.83 Q1334.69 1518.67 1337.59 1517.19 Q1340.54 1515.72 1343.7 1515.72 Q1345.13 1515.72 1346.5 1516.03 Q1347.92 1516.3 1349.61 1517.09 Q1351.35 1517.88 1352.87 1519.62 Q1354.4 1521.36 1355.35 1523.89 Q1355.98 1522.67 1356.83 1521.51 Q1357.72 1520.36 1359.09 1518.93 Q1360.52 1517.46 1362.47 1516.61 Q1364.47 1515.72 1366.68 1515.72 Q1368.84 1515.72 1370.95 1516.3 Q1373.06 1516.82 1374.85 1518.56 Q1376.7 1520.25 1376.7 1522.83 Z" fill="#000000" fill-rule="evenodd" fill-opacity="1" /><polyline clip-path="url(#clip180)" style="stroke:#000000; stroke-linecap:round; stroke-linejoin:round; stroke-width:4; stroke-opacity:1; fill:none" points="
  354.243,1367.02 354.243,47.2441 
  "/>
<polyline clip-path="url(#clip180)" style="stroke:#000000; stroke-linecap:round; stroke-linejoin:round; stroke-width:4; stroke-opacity:1; fill:none" points="
  354.243,1329.67 373.141,1329.67 
  "/>
<polyline clip-path="url(#clip180)" style="stroke:#000000; stroke-linecap:round; stroke-linejoin:round; stroke-width:4; stroke-opacity:1; fill:none" points="
  354.243,1018.4 373.141,1018.4 
  "/>
<polyline clip-path="url(#clip180)" style="stroke:#000000; stroke-linecap:round; stroke-linejoin:round; stroke-width:4; stroke-opacity:1; fill:none" points="
  354.243,707.132 373.141,707.132 
  "/>
<polyline clip-path="url(#clip180)" style="stroke:#000000; stroke-linecap:round; stroke-linejoin:round; stroke-width:4; stroke-opacity:1; fill:none" points="
  354.243,395.864 373.141,395.864 
  "/>
<polyline clip-path="url(#clip180)" style="stroke:#000000; stroke-linecap:round; stroke-linejoin:round; stroke-width:4; stroke-opacity:1; fill:none" points="
  354.243,84.5962 373.141,84.5962 
  "/>
<path clip-path="url(#clip180)" d="M165.403 1304.82 Q159.083 1304.82 155.883 1311.05 Q152.723 1317.25 152.723 1329.73 Q152.723 1342.16 155.883 1348.4 Q159.083 1354.6 165.403 1354.6 Q171.763 1354.6 174.922 1348.4 Q178.123 1342.16 178.123 1329.73 Q178.123 1317.25 174.922 1311.05 Q171.763 1304.82 165.403 1304.82 M165.403 1298.33 Q175.571 1298.33 180.918 1306.4 Q186.305 1314.42 186.305 1329.73 Q186.305 1345 180.918 1353.06 Q175.571 1361.08 165.403 1361.08 Q155.235 1361.08 149.847 1353.06 Q144.5 1345 144.5 1329.73 Q144.5 1314.42 149.847 1306.4 Q155.235 1298.33 165.403 1298.33 Z" fill="#000000" fill-rule="evenodd" fill-opacity="1" /><path clip-path="url(#clip180)" d="M200.686 1349.62 L209.234 1349.62 L209.234 1359.91 L200.686 1359.91 L200.686 1349.62 Z" fill="#000000" fill-rule="evenodd" fill-opacity="1" /><path clip-path="url(#clip180)" d="M244.557 1304.82 Q238.238 1304.82 235.038 1311.05 Q231.878 1317.25 231.878 1329.73 Q231.878 1342.16 235.038 1348.4 Q238.238 1354.6 244.557 1354.6 Q250.917 1354.6 254.077 1348.4 Q257.277 1342.16 257.277 1329.73 Q257.277 1317.25 254.077 1311.05 Q250.917 1304.82 244.557 1304.82 M244.557 1298.33 Q254.725 1298.33 260.072 1306.4 Q265.46 1314.42 265.46 1329.73 Q265.46 1345 260.072 1353.06 Q254.725 1361.08 244.557 1361.08 Q234.39 1361.08 229.002 1353.06 Q223.655 1345 223.655 1329.73 Q223.655 1314.42 229.002 1306.4 Q234.39 1298.33 244.557 1298.33 Z" fill="#000000" fill-rule="evenodd" fill-opacity="1" /><path clip-path="url(#clip180)" d="M297.341 1304.82 Q291.021 1304.82 287.821 1311.05 Q284.661 1317.25 284.661 1329.73 Q284.661 1342.16 287.821 1348.4 Q291.021 1354.6 297.341 1354.6 Q303.701 1354.6 306.86 1348.4 Q310.061 1342.16 310.061 1329.73 Q310.061 1317.25 306.86 1311.05 Q303.701 1304.82 297.341 1304.82 M297.341 1298.33 Q307.509 1298.33 312.856 1306.4 Q318.243 1314.42 318.243 1329.73 Q318.243 1345 312.856 1353.06 Q307.509 1361.08 297.341 1361.08 Q287.173 1361.08 281.785 1353.06 Q276.438 1345 276.438 1329.73 Q276.438 1314.42 281.785 1306.4 Q287.173 1298.33 297.341 1298.33 Z" fill="#000000" fill-rule="evenodd" fill-opacity="1" /><path clip-path="url(#clip180)" d="M167.145 993.548 Q160.825 993.548 157.625 999.786 Q154.465 1005.98 154.465 1018.46 Q154.465 1030.9 157.625 1037.14 Q160.825 1043.33 167.145 1043.33 Q173.505 1043.33 176.664 1037.14 Q179.865 1030.9 179.865 1018.46 Q179.865 1005.98 176.664 999.786 Q173.505 993.548 167.145 993.548 M167.145 987.066 Q177.312 987.066 182.66 995.127 Q188.047 1003.15 188.047 1018.46 Q188.047 1033.73 182.66 1041.79 Q177.312 1049.81 167.145 1049.81 Q156.977 1049.81 151.589 1041.79 Q146.242 1033.73 146.242 1018.46 Q146.242 1003.15 151.589 995.127 Q156.977 987.066 167.145 987.066 Z" fill="#000000" fill-rule="evenodd" fill-opacity="1" /><path clip-path="url(#clip180)" d="M202.428 1038.35 L210.975 1038.35 L210.975 1048.64 L202.428 1048.64 L202.428 1038.35 Z" fill="#000000" fill-rule="evenodd" fill-opacity="1" /><path clip-path="url(#clip180)" d="M235.848 1041.75 L264.407 1041.75 L264.407 1048.64 L226.004 1048.64 L226.004 1041.75 Q230.663 1036.93 238.684 1028.83 Q246.745 1020.69 248.811 1018.34 Q252.74 1013.92 254.28 1010.89 Q255.86 1007.81 255.86 1004.85 Q255.86 1000.03 252.457 996.991 Q249.095 993.953 243.666 993.953 Q239.818 993.953 235.524 995.289 Q231.271 996.626 226.409 999.34 L226.409 991.076 Q231.352 989.092 235.646 988.079 Q239.939 987.066 243.504 987.066 Q252.902 987.066 258.493 991.765 Q264.083 996.464 264.083 1004.32 Q264.083 1008.05 262.665 1011.41 Q261.288 1014.73 257.601 1019.27 Q256.589 1020.45 251.16 1026.08 Q245.732 1031.67 235.848 1041.75 Z" fill="#000000" fill-rule="evenodd" fill-opacity="1" /><path clip-path="url(#clip180)" d="M281.664 988.16 L313.787 988.16 L313.787 995.046 L289.158 995.046 L289.158 1009.87 Q290.94 1009.27 292.723 1008.98 Q294.505 1008.66 296.288 1008.66 Q306.415 1008.66 312.329 1014.21 Q318.243 1019.76 318.243 1029.24 Q318.243 1039 312.167 1044.43 Q306.091 1049.81 295.032 1049.81 Q291.224 1049.81 287.254 1049.17 Q283.325 1048.52 279.112 1047.22 L279.112 1039 Q282.758 1040.98 286.646 1041.96 Q290.535 1042.93 294.87 1042.93 Q301.878 1042.93 305.969 1039.24 Q310.061 1035.56 310.061 1029.24 Q310.061 1022.92 305.969 1019.23 Q301.878 1015.54 294.87 1015.54 Q291.588 1015.54 288.307 1016.27 Q285.067 1017 281.664 1018.54 L281.664 988.16 Z" fill="#000000" fill-rule="evenodd" fill-opacity="1" /><path clip-path="url(#clip180)" d="M165.403 682.28 Q159.083 682.28 155.883 688.518 Q152.723 694.716 152.723 707.193 Q152.723 719.629 155.883 725.867 Q159.083 732.065 165.403 732.065 Q171.763 732.065 174.922 725.867 Q178.123 719.629 178.123 707.193 Q178.123 694.716 174.922 688.518 Q171.763 682.28 165.403 682.28 M165.403 675.798 Q175.571 675.798 180.918 683.86 Q186.305 691.88 186.305 707.193 Q186.305 722.465 180.918 730.526 Q175.571 738.547 165.403 738.547 Q155.235 738.547 149.847 730.526 Q144.5 722.465 144.5 707.193 Q144.5 691.88 149.847 683.86 Q155.235 675.798 165.403 675.798 Z" fill="#000000" fill-rule="evenodd" fill-opacity="1" /><path clip-path="url(#clip180)" d="M200.686 727.083 L209.234 727.083 L209.234 737.372 L200.686 737.372 L200.686 727.083 Z" fill="#000000" fill-rule="evenodd" fill-opacity="1" /><path clip-path="url(#clip180)" d="M227.139 676.892 L259.262 676.892 L259.262 683.779 L234.633 683.779 L234.633 698.605 Q236.415 697.997 238.198 697.714 Q239.98 697.39 241.762 697.39 Q251.89 697.39 257.804 702.939 Q263.718 708.489 263.718 717.968 Q263.718 727.731 257.642 733.159 Q251.566 738.547 240.507 738.547 Q236.699 738.547 232.729 737.899 Q228.799 737.25 224.587 735.954 L224.587 727.731 Q228.232 729.716 232.121 730.688 Q236.01 731.66 240.345 731.66 Q247.353 731.66 251.444 727.974 Q255.535 724.288 255.535 717.968 Q255.535 711.649 251.444 707.962 Q247.353 704.276 240.345 704.276 Q237.063 704.276 233.782 705.005 Q230.541 705.734 227.139 707.274 L227.139 676.892 Z" fill="#000000" fill-rule="evenodd" fill-opacity="1" /><path clip-path="url(#clip180)" d="M297.341 682.28 Q291.021 682.28 287.821 688.518 Q284.661 694.716 284.661 707.193 Q284.661 719.629 287.821 725.867 Q291.021 732.065 297.341 732.065 Q303.701 732.065 306.86 725.867 Q310.061 719.629 310.061 707.193 Q310.061 694.716 306.86 688.518 Q303.701 682.28 297.341 682.28 M297.341 675.798 Q307.509 675.798 312.856 683.86 Q318.243 691.88 318.243 707.193 Q318.243 722.465 312.856 730.526 Q307.509 738.547 297.341 738.547 Q287.173 738.547 281.785 730.526 Q276.438 722.465 276.438 707.193 Q276.438 691.88 281.785 683.86 Q287.173 675.798 297.341 675.798 Z" fill="#000000" fill-rule="evenodd" fill-opacity="1" /><path clip-path="url(#clip180)" d="M167.145 371.012 Q160.825 371.012 157.625 377.25 Q154.465 383.448 154.465 395.925 Q154.465 408.361 157.625 414.6 Q160.825 420.797 167.145 420.797 Q173.505 420.797 176.664 414.6 Q179.865 408.361 179.865 395.925 Q179.865 383.448 176.664 377.25 Q173.505 371.012 167.145 371.012 M167.145 364.53 Q177.312 364.53 182.66 372.592 Q188.047 380.612 188.047 395.925 Q188.047 411.197 182.66 419.258 Q177.312 427.279 167.145 427.279 Q156.977 427.279 151.589 419.258 Q146.242 411.197 146.242 395.925 Q146.242 380.612 151.589 372.592 Q156.977 364.53 167.145 364.53 Z" fill="#000000" fill-rule="evenodd" fill-opacity="1" /><path clip-path="url(#clip180)" d="M202.428 415.815 L210.975 415.815 L210.975 426.104 L202.428 426.104 L202.428 415.815 Z" fill="#000000" fill-rule="evenodd" fill-opacity="1" /><path clip-path="url(#clip180)" d="M226.734 365.624 L265.622 365.624 L265.622 369.108 L243.666 426.104 L235.119 426.104 L255.778 372.511 L226.734 372.511 L226.734 365.624 Z" fill="#000000" fill-rule="evenodd" fill-opacity="1" /><path clip-path="url(#clip180)" d="M281.664 365.624 L313.787 365.624 L313.787 372.511 L289.158 372.511 L289.158 387.337 Q290.94 386.729 292.723 386.446 Q294.505 386.122 296.288 386.122 Q306.415 386.122 312.329 391.671 Q318.243 397.221 318.243 406.7 Q318.243 416.463 312.167 421.891 Q306.091 427.279 295.032 427.279 Q291.224 427.279 287.254 426.631 Q283.325 425.983 279.112 424.686 L279.112 416.463 Q282.758 418.448 286.646 419.42 Q290.535 420.392 294.87 420.392 Q301.878 420.392 305.969 416.706 Q310.061 413.02 310.061 406.7 Q310.061 400.381 305.969 396.695 Q301.878 393.008 294.87 393.008 Q291.588 393.008 288.307 393.737 Q285.067 394.467 281.664 396.006 L281.664 365.624 Z" fill="#000000" fill-rule="evenodd" fill-opacity="1" /><path clip-path="url(#clip180)" d="M149.321 107.95 L162.689 107.95 L162.689 61.8099 L148.146 64.7266 L148.146 57.2729 L162.608 54.3562 L170.791 54.3562 L170.791 107.95 L184.159 107.95 L184.159 114.836 L149.321 114.836 L149.321 107.95 Z" fill="#000000" fill-rule="evenodd" fill-opacity="1" /><path clip-path="url(#clip180)" d="M200.686 104.547 L209.234 104.547 L209.234 114.836 L200.686 114.836 L200.686 104.547 Z" fill="#000000" fill-rule="evenodd" fill-opacity="1" /><path clip-path="url(#clip180)" d="M244.557 59.7439 Q238.238 59.7439 235.038 65.9823 Q231.878 72.1802 231.878 84.657 Q231.878 97.0933 235.038 103.332 Q238.238 109.53 244.557 109.53 Q250.917 109.53 254.077 103.332 Q257.277 97.0933 257.277 84.657 Q257.277 72.1802 254.077 65.9823 Q250.917 59.7439 244.557 59.7439 M244.557 53.2625 Q254.725 53.2625 260.072 61.3238 Q265.46 69.3446 265.46 84.657 Q265.46 99.9289 260.072 107.99 Q254.725 116.011 244.557 116.011 Q234.39 116.011 229.002 107.99 Q223.655 99.9289 223.655 84.657 Q223.655 69.3446 229.002 61.3238 Q234.39 53.2625 244.557 53.2625 Z" fill="#000000" fill-rule="evenodd" fill-opacity="1" /><path clip-path="url(#clip180)" d="M297.341 59.7439 Q291.021 59.7439 287.821 65.9823 Q284.661 72.1802 284.661 84.657 Q284.661 97.0933 287.821 103.332 Q291.021 109.53 297.341 109.53 Q303.701 109.53 306.86 103.332 Q310.061 97.0933 310.061 84.657 Q310.061 72.1802 306.86 65.9823 Q303.701 59.7439 297.341 59.7439 M297.341 53.2625 Q307.509 53.2625 312.856 61.3238 Q318.243 69.3446 318.243 84.657 Q318.243 99.9289 312.856 107.99 Q307.509 116.011 297.341 116.011 Q287.173 116.011 281.785 107.99 Q276.438 99.9289 276.438 84.657 Q276.438 69.3446 281.785 61.3238 Q287.173 53.2625 297.341 53.2625 Z" fill="#000000" fill-rule="evenodd" fill-opacity="1" /><path clip-path="url(#clip180)" d="M19.902 756.899 Q22.8005 756.899 24.5923 758.744 Q26.3841 760.536 26.3841 762.802 Q26.3841 764.435 25.3828 765.647 Q24.3815 766.807 22.6424 766.807 Q20.8506 766.807 18.9534 765.437 Q17.0561 764.066 16.7926 760.957 Q14.8427 763.012 14.8427 766.28 Q14.8427 767.914 15.8967 769.284 Q16.898 770.601 18.5318 771.339 Q20.2182 772.13 29.757 773.921 Q32.8663 774.501 35.8702 775.028 Q38.8741 775.555 42.0362 776.188 L42.0362 767.228 Q42.0362 766.069 42.0889 765.595 Q42.1416 765.12 42.4051 764.752 Q42.6686 764.33 43.2483 764.33 Q44.7239 764.33 45.0928 765.015 Q45.409 765.647 45.409 767.545 L45.409 776.82 L79.6116 783.302 Q80.6129 783.46 83.775 784.145 Q86.8843 784.778 91.9963 786.306 Q97.1609 787.834 100.218 789.363 Q101.957 790.206 103.59 791.313 Q105.277 792.367 106.963 793.895 Q108.65 795.423 109.651 797.426 Q110.705 799.429 110.705 801.537 Q110.705 805.12 108.702 807.913 Q106.7 810.706 103.274 810.706 Q100.376 810.706 98.5838 808.915 Q96.792 807.07 96.792 804.804 Q96.792 803.17 97.7933 802.011 Q98.7946 800.799 100.534 800.799 Q101.272 800.799 102.115 801.062 Q102.958 801.326 103.907 801.905 Q104.908 802.485 105.593 803.75 Q106.278 805.015 106.383 806.754 Q108.333 804.699 108.333 801.537 Q108.333 800.535 107.912 799.639 Q107.543 798.743 106.594 798.006 Q105.646 797.215 104.697 796.635 Q103.801 796.056 102.062 795.476 Q100.376 794.896 99.1108 794.527 Q97.846 794.158 95.5799 793.684 Q93.3138 793.157 91.9436 792.894 Q90.626 792.63 88.0437 792.156 L45.409 784.093 L45.409 791.207 Q45.409 792.472 45.3563 792.999 Q45.3036 793.473 45.0401 793.842 Q44.7239 794.211 44.0915 794.211 Q43.0902 794.211 42.6686 793.79 Q42.1943 793.315 42.1416 792.788 Q42.0362 792.261 42.0362 790.996 L42.0362 783.513 Q28.703 780.983 25.1193 779.982 Q21.3249 778.823 18.6899 777.031 Q16.0021 775.239 14.7373 773.236 Q13.4725 771.234 12.9982 769.6 Q12.4712 767.914 12.4712 766.28 Q12.4712 762.591 14.4738 759.745 Q16.4237 756.899 19.902 756.899 Z" fill="#000000" fill-rule="evenodd" fill-opacity="1" /><path clip-path="url(#clip180)" d="M61.5881 742.373 Q43.3537 742.373 28.6503 735.575 Q22.4843 732.676 17.3196 728.618 Q12.155 724.56 9.88887 721.873 Q7.62275 719.185 7.62275 718.447 Q7.62275 717.393 8.67676 717.34 Q9.20377 717.34 10.5213 718.763 Q28.2286 736.154 61.5881 736.102 Q95.0529 736.102 112.075 719.185 Q113.92 717.34 114.499 717.34 Q115.553 717.34 115.553 718.447 Q115.553 719.185 113.393 721.767 Q111.232 724.35 106.278 728.355 Q101.324 732.36 95.2637 735.259 Q80.5602 742.373 61.5881 742.373 Z" fill="#000000" fill-rule="evenodd" fill-opacity="1" /><path clip-path="url(#clip180)" d="M47.9913 655.386 Q50.9426 655.386 52.629 657.23 Q54.2627 659.075 54.2627 661.183 Q54.2627 663.185 53.1033 664.239 Q51.9439 665.293 50.4683 665.293 Q48.4656 665.293 46.7265 663.818 Q44.9874 662.342 44.6185 660.129 Q43.2483 662.289 43.2483 665.504 Q43.2483 667.612 44.355 669.457 Q45.4617 671.248 46.8846 672.355 Q48.3075 673.409 50.3629 674.358 Q52.3655 675.254 53.5776 675.623 Q54.737 675.939 56.0018 676.202 L70.758 679.891 Q77.7671 681.683 80.244 681.683 Q83.3007 681.683 85.356 680.208 Q87.3586 678.732 87.3586 675.781 Q87.3586 674.621 87.0424 673.304 Q86.6735 671.986 85.7249 670.3 Q84.7236 668.561 83.248 667.032 Q81.7197 665.451 79.1373 663.923 Q76.555 662.395 73.2349 661.394 Q72.0755 661.077 72.0755 660.023 Q72.0755 658.706 73.1295 658.706 Q74.0254 658.706 75.9226 659.444 Q77.7671 660.129 80.1913 661.657 Q82.5629 663.133 84.7236 665.083 Q86.8316 667.032 88.3072 669.931 Q89.7828 672.83 89.7828 675.992 Q89.7828 680.524 87.3586 683.528 Q84.9344 686.532 81.5616 687.638 Q82.0359 687.902 82.6683 688.271 Q83.3007 688.64 84.7236 689.746 Q86.0938 690.8 87.1478 692.012 Q88.1491 693.225 88.9396 695.122 Q89.7828 696.966 89.7828 698.969 Q89.7828 701.499 89.045 703.765 Q88.3072 705.978 86.6208 707.559 Q84.9344 709.14 82.6156 709.14 Q80.0332 709.14 78.2414 707.401 Q76.3969 705.609 76.3969 703.185 Q76.3969 701.657 77.2928 700.445 Q78.1887 699.18 80.1386 699.18 Q82.2994 699.18 83.9331 700.655 Q85.5668 702.131 85.9884 704.239 Q87.3586 702.078 87.3586 698.864 Q87.3586 695.385 84.302 692.645 Q81.2454 689.904 76.1334 688.587 Q63.8542 685.32 58.3733 684.055 Q52.8398 682.79 50.4683 682.79 Q48.2548 682.79 46.7265 683.37 Q45.1982 683.949 44.5131 684.951 Q43.7753 685.899 43.5118 686.795 Q43.2483 687.638 43.2483 688.587 Q43.2483 690.168 43.8807 691.96 Q44.5131 693.699 45.9887 695.807 Q47.4116 697.862 50.3629 699.812 Q53.3141 701.762 57.372 703.08 Q58.5841 703.343 58.5841 704.503 Q58.5314 705.767 57.4774 705.767 Q56.5815 705.767 54.737 705.082 Q52.8398 704.344 50.4683 702.869 Q48.0967 701.34 45.9887 699.391 Q43.828 697.388 42.3524 694.489 Q40.8768 691.538 40.8768 688.376 Q40.8768 686.953 41.193 685.583 Q41.4565 684.16 42.247 682.474 Q43.0375 680.735 44.7766 679.206 Q46.5157 677.678 49.0453 676.729 Q47.8332 676.097 46.6738 675.254 Q45.5144 674.358 44.0915 672.988 Q42.6159 671.565 41.7727 669.615 Q40.8768 667.612 40.8768 665.399 Q40.8768 663.238 41.4565 661.13 Q41.9835 659.022 43.7226 657.23 Q45.409 655.386 47.9913 655.386 Z" fill="#000000" fill-rule="evenodd" fill-opacity="1" /><path clip-path="url(#clip180)" d="M114.499 644.999 Q113.972 644.999 112.655 643.628 Q94.9475 626.237 61.5881 626.237 Q28.1232 626.237 11.2064 642.943 Q9.25647 644.999 8.67676 644.999 Q7.62275 644.999 7.62275 643.945 Q7.62275 643.207 9.78347 640.624 Q11.9442 637.989 16.898 634.037 Q21.8519 630.032 27.9124 627.08 Q42.6159 619.966 61.5881 619.966 Q79.8224 619.966 94.5259 626.764 Q100.692 629.663 105.856 633.721 Q111.021 637.779 113.287 640.466 Q115.553 643.154 115.553 643.945 Q115.553 644.999 114.499 644.999 Z" fill="#000000" fill-rule="evenodd" fill-opacity="1" /><path clip-path="url(#clip182)" d="
M410.805 84.5962 L413.947 96.9849 L417.09 109.25 L420.232 121.394 L423.374 133.416 L426.517 145.319 L429.659 157.104 L432.801 168.771 L435.944 180.322 L439.086 191.758 
  L442.228 203.08 L445.371 214.29 L448.513 225.388 L451.655 236.376 L454.798 247.255 L457.94 258.025 L461.082 268.688 L464.224 279.245 L467.367 289.697 L470.509 300.044 
  L473.651 310.289 L476.794 320.432 L479.936 330.474 L483.078 340.417 L486.221 350.26 L489.363 360.005 L492.505 369.653 L495.648 379.206 L498.79 388.663 L501.932 398.026 
  L505.075 407.296 L508.217 416.474 L511.359 425.56 L514.502 434.556 L517.644 443.463 L520.786 452.281 L523.928 461.011 L527.071 469.654 L530.213 478.211 L533.355 486.684 
  L536.498 495.071 L539.64 503.376 L542.782 511.597 L545.925 519.737 L549.067 527.796 L552.209 535.775 L555.352 543.674 L558.494 551.495 L561.636 559.238 L564.779 566.904 
  L567.921 574.494 L571.063 582.008 L574.206 589.447 L577.348 596.812 L580.49 604.104 L583.632 611.324 L586.775 618.472 L589.917 625.548 L593.059 632.554 L596.202 639.491 
  L599.344 646.358 L602.486 653.157 L605.629 659.888 L608.771 666.553 L611.913 673.151 L615.056 679.683 L618.198 686.151 L621.34 692.554 L624.483 698.893 L627.625 705.17 
  L630.767 711.384 L633.909 717.536 L637.052 723.626 L640.194 729.657 L643.336 735.627 L646.479 741.538 L649.621 747.39 L652.763 753.183 L655.906 758.919 L659.048 764.598 
  L662.19 770.221 L665.333 775.788 L668.475 781.299 L671.617 786.755 L674.76 792.157 L677.902 797.506 L681.044 802.801 L684.187 808.043 L687.329 813.233 L690.471 818.372 
  L693.613 823.459 L696.756 828.496 L699.898 833.483 L703.04 838.42 L706.183 843.308 L709.325 848.147 L712.467 852.939 L715.61 857.682 L718.752 862.379 L721.894 867.028 
  L725.037 871.632 L728.179 876.189 L731.321 880.701 L734.464 885.169 L737.606 889.591 L740.748 893.97 L743.891 898.305 L747.033 902.598 L750.175 906.847 L753.317 911.054 
  L756.46 915.219 L759.602 919.343 L762.744 923.426 L765.887 927.468 L769.029 931.47 L772.171 935.432 L775.314 939.355 L778.456 943.239 L781.598 947.084 L784.741 950.89 
  L787.883 954.659 L791.025 958.391 L794.168 962.085 L797.31 965.743 L800.452 969.364 L803.595 972.949 L806.737 976.498 L809.879 980.012 L813.021 983.491 L816.164 986.936 
  L819.306 990.346 L822.448 993.722 L825.591 997.065 L828.733 1000.37 L831.875 1003.65 L835.018 1006.9 L838.16 1010.11 L841.302 1013.29 L844.445 1016.43 L847.587 1019.55 
  L850.729 1022.64 L853.872 1025.69 L857.014 1028.72 L860.156 1031.71 L863.299 1034.68 L866.441 1037.61 L869.583 1040.52 L872.725 1043.39 L875.868 1046.24 L879.01 1049.06 
  L882.152 1051.85 L885.295 1054.62 L888.437 1057.36 L891.579 1060.07 L894.722 1062.75 L897.864 1065.4 L901.006 1068.03 L904.149 1070.64 L907.291 1073.21 L910.433 1075.77 
  L913.576 1078.29 L916.718 1080.79 L919.86 1083.27 L923.002 1085.72 L926.145 1088.15 L929.287 1090.55 L932.429 1092.93 L935.572 1095.29 L938.714 1097.62 L941.856 1099.93 
  L944.999 1102.21 L948.141 1104.48 L951.283 1106.72 L954.426 1108.94 L957.568 1111.13 L960.71 1113.31 L963.853 1115.46 L966.995 1117.59 L970.137 1119.7 L973.28 1121.79 
  L976.422 1123.86 L979.564 1125.91 L982.706 1127.93 L985.849 1129.94 L988.991 1131.93 L992.133 1133.9 L995.276 1135.84 L998.418 1137.77 L1001.56 1139.68 L1004.7 1141.57 
  L1007.85 1143.44 L1010.99 1145.3 L1014.13 1147.13 L1017.27 1148.95 L1020.41 1150.75 L1023.56 1152.53 L1026.7 1154.29 L1029.84 1156.03 L1032.98 1157.76 L1036.13 1159.47 
  L1039.27 1161.17 L1042.41 1162.84 L1045.55 1164.5 L1048.7 1166.15 L1051.84 1167.77 L1054.98 1169.38 L1058.12 1170.98 L1061.26 1172.56 L1064.41 1174.12 L1067.55 1175.67 
  L1070.69 1177.2 L1073.83 1178.72 L1076.98 1180.22 L1080.12 1181.71 L1083.26 1183.18 L1086.4 1184.64 L1089.55 1186.08 L1092.69 1187.51 L1095.83 1188.92 L1098.97 1190.32 
  L1102.11 1191.71 L1105.26 1193.08 L1108.4 1194.44 L1111.54 1195.79 L1114.68 1197.12 L1117.83 1198.44 L1120.97 1199.74 L1124.11 1201.04 L1127.25 1202.32 L1130.4 1203.58 
  L1133.54 1204.84 L1136.68 1206.08 L1139.82 1207.31 L1142.96 1208.53 L1146.11 1209.73 L1149.25 1210.93 L1152.39 1212.11 L1155.53 1213.28 L1158.68 1214.44 L1161.82 1215.58 
  L1164.96 1216.72 L1168.1 1217.84 L1171.25 1218.95 L1174.39 1220.06 L1177.53 1221.15 L1180.67 1222.23 L1183.81 1223.3 L1186.96 1224.35 L1190.1 1225.4 L1193.24 1226.44 
  L1196.38 1227.47 L1199.53 1228.48 L1202.67 1229.49 L1205.81 1230.49 L1208.95 1231.47 L1212.1 1232.45 L1215.24 1233.42 L1218.38 1234.38 L1221.52 1235.32 L1224.66 1236.26 
  L1227.81 1237.19 L1230.95 1238.11 L1234.09 1239.02 L1237.23 1239.92 L1240.38 1240.82 L1243.52 1241.7 L1246.66 1242.58 L1249.8 1243.44 L1252.95 1244.3 L1256.09 1245.15 
  L1259.23 1245.99 L1262.37 1246.82 L1265.51 1247.65 L1268.66 1248.47 L1271.8 1249.27 L1274.94 1250.07 L1278.08 1250.86 L1281.23 1251.65 L1284.37 1252.43 L1287.51 1253.19 
  L1290.65 1253.95 L1293.8 1254.71 L1296.94 1255.45 L1300.08 1256.19 L1303.22 1256.92 L1306.36 1257.65 L1309.51 1258.36 L1312.65 1259.07 L1315.79 1259.78 L1318.93 1260.47 
  L1322.08 1261.16 L1325.22 1261.84 L1328.36 1262.52 L1331.5 1263.18 L1334.65 1263.85 L1337.79 1264.5 L1340.93 1265.15 L1344.07 1265.79 L1347.22 1266.43 L1350.36 1267.06 
  L1353.5 1267.68 L1356.64 1268.3 L1359.78 1268.91 L1362.93 1269.51 L1366.07 1270.11 L1369.21 1270.7 L1372.35 1271.29 L1375.5 1271.87 L1378.64 1272.45 L1381.78 1273.01 
  L1384.92 1273.58 L1388.07 1274.14 L1391.21 1274.69 L1394.35 1275.24 L1397.49 1275.78 L1400.63 1276.31 L1403.78 1276.84 L1406.92 1277.37 L1410.06 1277.89 L1413.2 1278.41 
  L1416.35 1278.92 L1419.49 1279.42 L1422.63 1279.92 L1425.77 1280.42 L1428.92 1280.91 L1432.06 1281.39 L1435.2 1281.87 L1438.34 1282.35 L1441.48 1282.82 L1444.63 1283.28 
  L1447.77 1283.75 L1450.91 1284.2 L1454.05 1284.65 L1457.2 1285.1 L1460.34 1285.55 L1463.48 1285.99 L1466.62 1286.42 L1469.77 1286.85 L1472.91 1287.28 L1476.05 1287.7 
  L1479.19 1288.12 L1482.33 1288.53 L1485.48 1288.94 L1488.62 1289.34 L1491.76 1289.74 L1494.9 1290.14 L1498.05 1290.54 L1501.19 1290.92 L1504.33 1291.31 L1507.47 1291.69 
  L1510.62 1292.07 L1513.76 1292.44 L1516.9 1292.81 L1520.04 1293.18 L1523.18 1293.54 L1526.33 1293.9 L1529.47 1294.26 L1532.61 1294.61 L1535.75 1294.96 L1538.9 1295.31 
  L1542.04 1295.65 L1545.18 1295.99 L1548.32 1296.32 L1551.47 1296.65 L1554.61 1296.98 L1557.75 1297.31 L1560.89 1297.63 L1564.03 1297.95 L1567.18 1298.26 L1570.32 1298.58 
  L1573.46 1298.89 L1576.6 1299.19 L1579.75 1299.49 L1582.89 1299.79 L1586.03 1300.09 L1589.17 1300.39 L1592.32 1300.68 L1595.46 1300.97 L1598.6 1301.25 L1601.74 1301.53 
  L1604.88 1301.81 L1608.03 1302.09 L1611.17 1302.37 L1614.31 1302.64 L1617.45 1302.91 L1620.6 1303.17 L1623.74 1303.44 L1626.88 1303.7 L1630.02 1303.96 L1633.17 1304.21 
  L1636.31 1304.47 L1639.45 1304.72 L1642.59 1304.96 L1645.73 1305.21 L1648.88 1305.45 L1652.02 1305.69 L1655.16 1305.93 L1658.3 1306.17 L1661.45 1306.4 L1664.59 1306.63 
  L1667.73 1306.86 L1670.87 1307.09 L1674.02 1307.31 L1677.16 1307.54 L1680.3 1307.76 L1683.44 1307.98 L1686.59 1308.19 L1689.73 1308.41 L1692.87 1308.62 L1696.01 1308.83 
  L1699.15 1309.03 L1702.3 1309.24 L1705.44 1309.44 L1708.58 1309.64 L1711.72 1309.84 L1714.87 1310.04 L1718.01 1310.24 L1721.15 1310.43 L1724.29 1310.62 L1727.44 1310.81 
  L1730.58 1311 L1733.72 1311.18 L1736.86 1311.37 L1740 1311.55 L1743.15 1311.73 L1746.29 1311.91 L1749.43 1312.08 L1752.57 1312.26 L1755.72 1312.43 L1758.86 1312.6 
  L1762 1312.77 L1765.14 1312.94 L1768.29 1313.11 L1771.43 1313.27 L1774.57 1313.44 L1777.71 1313.6 L1780.85 1313.76 L1784 1313.92 L1787.14 1314.07 L1790.28 1314.23 
  L1793.42 1314.38 L1796.57 1314.53 L1799.71 1314.68 L1802.85 1314.83 L1805.99 1314.98 L1809.14 1315.13 L1812.28 1315.27 L1815.42 1315.41 L1818.56 1315.56 L1821.7 1315.7 
  L1824.85 1315.84 L1827.99 1315.97 L1831.13 1316.11 L1834.27 1316.24 L1837.42 1316.38 L1840.56 1316.51 L1843.7 1316.64 L1846.84 1316.77 L1849.99 1316.9 L1853.13 1317.03 
  L1856.27 1317.15 L1859.41 1317.28 L1862.55 1317.4 L1865.7 1317.52 L1868.84 1317.64 L1871.98 1317.76 L1875.12 1317.88 L1878.27 1318 L1881.41 1318.11 L1884.55 1318.23 
  L1887.69 1318.34 L1890.84 1318.46 L1893.98 1318.57 L1897.12 1318.68 L1900.26 1318.79 L1903.4 1318.9 L1906.55 1319 L1909.69 1319.11 L1912.83 1319.21 L1915.97 1319.32 
  L1919.12 1319.42 L1922.26 1319.52 L1925.4 1319.62 L1928.54 1319.72 L1931.69 1319.82 L1934.83 1319.92 L1937.97 1320.02 L1941.11 1320.11 L1944.25 1320.21 L1947.4 1320.3 
  L1950.54 1320.4 L1953.68 1320.49 L1956.82 1320.58 L1959.97 1320.67 L1963.11 1320.76 L1966.25 1320.85 L1969.39 1320.94 L1972.54 1321.02 L1975.68 1321.11 L1978.82 1321.19 
  L1981.96 1321.28 L1985.11 1321.36 L1988.25 1321.44 L1991.39 1321.53 L1994.53 1321.61 L1997.67 1321.69 L2000.82 1321.77 L2003.96 1321.85 L2007.1 1321.92 L2010.24 1322 
  L2013.39 1322.08 L2016.53 1322.15 L2019.67 1322.23 L2022.81 1322.3 L2025.96 1322.37 L2029.1 1322.45 L2032.24 1322.52 L2035.38 1322.59 L2038.52 1322.66 L2041.67 1322.73 
  L2044.81 1322.8 L2047.95 1322.87 L2051.09 1322.94 L2054.24 1323 L2057.38 1323.07 L2060.52 1323.13 L2063.66 1323.2 L2066.81 1323.26 L2069.95 1323.33 L2073.09 1323.39 
  L2076.23 1323.45 L2079.37 1323.51 L2082.52 1323.58 L2085.66 1323.64 L2088.8 1323.7 L2091.94 1323.76 L2095.09 1323.81 L2098.23 1323.87 L2101.37 1323.93 L2104.51 1323.99 
  L2107.66 1324.04 L2110.8 1324.1 L2113.94 1324.16 L2117.08 1324.21 L2120.22 1324.26 L2123.37 1324.32 L2126.51 1324.37 L2129.65 1324.42 L2132.79 1324.48 L2135.94 1324.53 
  L2139.08 1324.58 L2142.22 1324.63 L2145.36 1324.68 L2148.51 1324.73 L2151.65 1324.78 L2154.79 1324.83 L2157.93 1324.88 L2161.07 1324.92 L2164.22 1324.97 L2167.36 1325.02 
  L2170.5 1325.06 L2173.64 1325.11 L2176.79 1325.15 L2179.93 1325.2 L2183.07 1325.24 L2186.21 1325.29 L2189.36 1325.33 L2192.5 1325.37 L2195.64 1325.42 L2198.78 1325.46 
  L2201.92 1325.5 L2205.07 1325.54 L2208.21 1325.58 L2211.35 1325.62 L2214.49 1325.67 L2217.64 1325.7 L2220.78 1325.74 L2223.92 1325.78 L2227.06 1325.82 L2230.21 1325.86 
  L2233.35 1325.9 L2236.49 1325.94 L2239.63 1325.97 L2242.77 1326.01 L2245.92 1326.05 L2249.06 1326.08 L2252.2 1326.12 L2255.34 1326.15 L2258.49 1326.19 L2261.63 1326.22 
  L2264.77 1326.26 L2267.91 1326.29 L2271.06 1326.32 L2274.2 1326.36 L2277.34 1326.39 L2280.48 1326.42 L2283.62 1326.46 L2286.77 1326.49 L2289.91 1326.52 L2293.05 1326.55 
  L2296.19 1326.58 L2296.19 1329.67 L2293.05 1329.67 L2289.91 1329.67 L2286.77 1329.67 L2283.62 1329.67 L2280.48 1329.67 L2277.34 1329.67 L2274.2 1329.67 L2271.06 1329.67 
  L2267.91 1329.67 L2264.77 1329.67 L2261.63 1329.67 L2258.49 1329.67 L2255.34 1329.67 L2252.2 1329.67 L2249.06 1329.67 L2245.92 1329.67 L2242.77 1329.67 L2239.63 1329.67 
  L2236.49 1329.67 L2233.35 1329.67 L2230.21 1329.67 L2227.06 1329.67 L2223.92 1329.67 L2220.78 1329.67 L2217.64 1329.67 L2214.49 1329.67 L2211.35 1329.67 L2208.21 1329.67 
  L2205.07 1329.67 L2201.92 1329.67 L2198.78 1329.67 L2195.64 1329.67 L2192.5 1329.67 L2189.36 1329.67 L2186.21 1329.67 L2183.07 1329.67 L2179.93 1329.67 L2176.79 1329.67 
  L2173.64 1329.67 L2170.5 1329.67 L2167.36 1329.67 L2164.22 1329.67 L2161.07 1329.67 L2157.93 1329.67 L2154.79 1329.67 L2151.65 1329.67 L2148.51 1329.67 L2145.36 1329.67 
  L2142.22 1329.67 L2139.08 1329.67 L2135.94 1329.67 L2132.79 1329.67 L2129.65 1329.67 L2126.51 1329.67 L2123.37 1329.67 L2120.22 1329.67 L2117.08 1329.67 L2113.94 1329.67 
  L2110.8 1329.67 L2107.66 1329.67 L2104.51 1329.67 L2101.37 1329.67 L2098.23 1329.67 L2095.09 1329.67 L2091.94 1329.67 L2088.8 1329.67 L2085.66 1329.67 L2082.52 1329.67 
  L2079.37 1329.67 L2076.23 1329.67 L2073.09 1329.67 L2069.95 1329.67 L2066.81 1329.67 L2063.66 1329.67 L2060.52 1329.67 L2057.38 1329.67 L2054.24 1329.67 L2051.09 1329.67 
  L2047.95 1329.67 L2044.81 1329.67 L2041.67 1329.67 L2038.52 1329.67 L2035.38 1329.67 L2032.24 1329.67 L2029.1 1329.67 L2025.96 1329.67 L2022.81 1329.67 L2019.67 1329.67 
  L2016.53 1329.67 L2013.39 1329.67 L2010.24 1329.67 L2007.1 1329.67 L2003.96 1329.67 L2000.82 1329.67 L1997.67 1329.67 L1994.53 1329.67 L1991.39 1329.67 L1988.25 1329.67 
  L1985.11 1329.67 L1981.96 1329.67 L1978.82 1329.67 L1975.68 1329.67 L1972.54 1329.67 L1969.39 1329.67 L1966.25 1329.67 L1963.11 1329.67 L1959.97 1329.67 L1956.82 1329.67 
  L1953.68 1329.67 L1950.54 1329.67 L1947.4 1329.67 L1944.25 1329.67 L1941.11 1329.67 L1937.97 1329.67 L1934.83 1329.67 L1931.69 1329.67 L1928.54 1329.67 L1925.4 1329.67 
  L1922.26 1329.67 L1919.12 1329.67 L1915.97 1329.67 L1912.83 1329.67 L1909.69 1329.67 L1906.55 1329.67 L1903.4 1329.67 L1900.26 1329.67 L1897.12 1329.67 L1893.98 1329.67 
  L1890.84 1329.67 L1887.69 1329.67 L1884.55 1329.67 L1881.41 1329.67 L1878.27 1329.67 L1875.12 1329.67 L1871.98 1329.67 L1868.84 1329.67 L1865.7 1329.67 L1862.55 1329.67 
  L1859.41 1329.67 L1856.27 1329.67 L1853.13 1329.67 L1849.99 1329.67 L1846.84 1329.67 L1843.7 1329.67 L1840.56 1329.67 L1837.42 1329.67 L1834.27 1329.67 L1831.13 1329.67 
  L1827.99 1329.67 L1824.85 1329.67 L1821.7 1329.67 L1818.56 1329.67 L1815.42 1329.67 L1812.28 1329.67 L1809.14 1329.67 L1805.99 1329.67 L1802.85 1329.67 L1799.71 1329.67 
  L1796.57 1329.67 L1793.42 1329.67 L1790.28 1329.67 L1787.14 1329.67 L1784 1329.67 L1780.85 1329.67 L1777.71 1329.67 L1774.57 1329.67 L1771.43 1329.67 L1768.29 1329.67 
  L1765.14 1329.67 L1762 1329.67 L1758.86 1329.67 L1755.72 1329.67 L1752.57 1329.67 L1749.43 1329.67 L1746.29 1329.67 L1743.15 1329.67 L1740 1329.67 L1736.86 1329.67 
  L1733.72 1329.67 L1730.58 1329.67 L1727.44 1329.67 L1724.29 1329.67 L1721.15 1329.67 L1718.01 1329.67 L1714.87 1329.67 L1711.72 1329.67 L1708.58 1329.67 L1705.44 1329.67 
  L1702.3 1329.67 L1699.15 1329.67 L1696.01 1329.67 L1692.87 1329.67 L1689.73 1329.67 L1686.59 1329.67 L1683.44 1329.67 L1680.3 1329.67 L1677.16 1329.67 L1674.02 1329.67 
  L1670.87 1329.67 L1667.73 1329.67 L1664.59 1329.67 L1661.45 1329.67 L1658.3 1329.67 L1655.16 1329.67 L1652.02 1329.67 L1648.88 1329.67 L1645.73 1329.67 L1642.59 1329.67 
  L1639.45 1329.67 L1636.31 1329.67 L1633.17 1329.67 L1630.02 1329.67 L1626.88 1329.67 L1623.74 1329.67 L1620.6 1329.67 L1617.45 1329.67 L1614.31 1329.67 L1611.17 1329.67 
  L1608.03 1329.67 L1604.88 1329.67 L1601.74 1329.67 L1598.6 1329.67 L1595.46 1329.67 L1592.32 1329.67 L1589.17 1329.67 L1586.03 1329.67 L1582.89 1329.67 L1579.75 1329.67 
  L1576.6 1329.67 L1573.46 1329.67 L1570.32 1329.67 L1567.18 1329.67 L1564.03 1329.67 L1560.89 1329.67 L1557.75 1329.67 L1554.61 1329.67 L1551.47 1329.67 L1548.32 1329.67 
  L1545.18 1329.67 L1542.04 1329.67 L1538.9 1329.67 L1535.75 1329.67 L1532.61 1329.67 L1529.47 1329.67 L1526.33 1329.67 L1523.18 1329.67 L1520.04 1329.67 L1516.9 1329.67 
  L1513.76 1329.67 L1510.62 1329.67 L1507.47 1329.67 L1504.33 1329.67 L1501.19 1329.67 L1498.05 1329.67 L1494.9 1329.67 L1491.76 1329.67 L1488.62 1329.67 L1485.48 1329.67 
  L1482.33 1329.67 L1479.19 1329.67 L1476.05 1329.67 L1472.91 1329.67 L1469.77 1329.67 L1466.62 1329.67 L1463.48 1329.67 L1460.34 1329.67 L1457.2 1329.67 L1454.05 1329.67 
  L1450.91 1329.67 L1447.77 1329.67 L1444.63 1329.67 L1441.48 1329.67 L1438.34 1329.67 L1435.2 1329.67 L1432.06 1329.67 L1428.92 1329.67 L1425.77 1329.67 L1422.63 1329.67 
  L1419.49 1329.67 L1416.35 1329.67 L1413.2 1329.67 L1410.06 1329.67 L1406.92 1329.67 L1403.78 1329.67 L1400.63 1329.67 L1397.49 1329.67 L1394.35 1329.67 L1391.21 1329.67 
  L1388.07 1329.67 L1384.92 1329.67 L1381.78 1329.67 L1378.64 1329.67 L1375.5 1329.67 L1372.35 1329.67 L1369.21 1329.67 L1366.07 1329.67 L1362.93 1329.67 L1359.78 1329.67 
  L1356.64 1329.67 L1353.5 1329.67 L1350.36 1329.67 L1347.22 1329.67 L1344.07 1329.67 L1340.93 1329.67 L1337.79 1329.67 L1334.65 1329.67 L1331.5 1329.67 L1328.36 1329.67 
  L1325.22 1329.67 L1322.08 1329.67 L1318.93 1329.67 L1315.79 1329.67 L1312.65 1329.67 L1309.51 1329.67 L1306.36 1329.67 L1303.22 1329.67 L1300.08 1329.67 L1296.94 1329.67 
  L1293.8 1329.67 L1290.65 1329.67 L1287.51 1329.67 L1284.37 1329.67 L1281.23 1329.67 L1278.08 1329.67 L1274.94 1329.67 L1271.8 1329.67 L1268.66 1329.67 L1265.51 1329.67 
  L1262.37 1329.67 L1259.23 1329.67 L1256.09 1329.67 L1252.95 1329.67 L1249.8 1329.67 L1246.66 1329.67 L1243.52 1329.67 L1240.38 1329.67 L1237.23 1329.67 L1234.09 1329.67 
  L1230.95 1329.67 L1227.81 1329.67 L1224.66 1329.67 L1221.52 1329.67 L1218.38 1329.67 L1215.24 1329.67 L1212.1 1329.67 L1208.95 1329.67 L1205.81 1329.67 L1202.67 1329.67 
  L1199.53 1329.67 L1196.38 1329.67 L1193.24 1329.67 L1190.1 1329.67 L1186.96 1329.67 L1183.81 1329.67 L1180.67 1329.67 L1177.53 1329.67 L1174.39 1329.67 L1171.25 1329.67 
  L1168.1 1329.67 L1164.96 1329.67 L1161.82 1329.67 L1158.68 1329.67 L1155.53 1329.67 L1152.39 1329.67 L1149.25 1329.67 L1146.11 1329.67 L1142.96 1329.67 L1139.82 1329.67 
  L1136.68 1329.67 L1133.54 1329.67 L1130.4 1329.67 L1127.25 1329.67 L1124.11 1329.67 L1120.97 1329.67 L1117.83 1329.67 L1114.68 1329.67 L1111.54 1329.67 L1108.4 1329.67 
  L1105.26 1329.67 L1102.11 1329.67 L1098.97 1329.67 L1095.83 1329.67 L1092.69 1329.67 L1089.55 1329.67 L1086.4 1329.67 L1083.26 1329.67 L1080.12 1329.67 L1076.98 1329.67 
  L1073.83 1329.67 L1070.69 1329.67 L1067.55 1329.67 L1064.41 1329.67 L1061.26 1329.67 L1058.12 1329.67 L1054.98 1329.67 L1051.84 1329.67 L1048.7 1329.67 L1045.55 1329.67 
  L1042.41 1329.67 L1039.27 1329.67 L1036.13 1329.67 L1032.98 1329.67 L1029.84 1329.67 L1026.7 1329.67 L1023.56 1329.67 L1020.41 1329.67 L1017.27 1329.67 L1014.13 1329.67 
  L1010.99 1329.67 L1007.85 1329.67 L1004.7 1329.67 L1001.56 1329.67 L998.418 1329.67 L995.276 1329.67 L992.133 1329.67 L988.991 1329.67 L985.849 1329.67 L982.706 1329.67 
  L979.564 1329.67 L976.422 1329.67 L973.28 1329.67 L970.137 1329.67 L966.995 1329.67 L963.853 1329.67 L960.71 1329.67 L957.568 1329.67 L954.426 1329.67 L951.283 1329.67 
  L948.141 1329.67 L944.999 1329.67 L941.856 1329.67 L938.714 1329.67 L935.572 1329.67 L932.429 1329.67 L929.287 1329.67 L926.145 1329.67 L923.002 1329.67 L919.86 1329.67 
  L916.718 1329.67 L913.576 1329.67 L910.433 1329.67 L907.291 1329.67 L904.149 1329.67 L901.006 1329.67 L897.864 1329.67 L894.722 1329.67 L891.579 1329.67 L888.437 1329.67 
  L885.295 1329.67 L882.152 1329.67 L879.01 1329.67 L875.868 1329.67 L872.725 1329.67 L869.583 1329.67 L866.441 1329.67 L863.299 1329.67 L860.156 1329.67 L857.014 1329.67 
  L853.872 1329.67 L850.729 1329.67 L847.587 1329.67 L844.445 1329.67 L841.302 1329.67 L838.16 1329.67 L835.018 1329.67 L831.875 1329.67 L828.733 1329.67 L825.591 1329.67 
  L822.448 1329.67 L819.306 1329.67 L816.164 1329.67 L813.021 1329.67 L809.879 1329.67 L806.737 1329.67 L803.595 1329.67 L800.452 1329.67 L797.31 1329.67 L794.168 1329.67 
  L791.025 1329.67 L787.883 1329.67 L784.741 1329.67 L781.598 1329.67 L778.456 1329.67 L775.314 1329.67 L772.171 1329.67 L769.029 1329.67 L765.887 1329.67 L762.744 1329.67 
  L759.602 1329.67 L756.46 1329.67 L753.317 1329.67 L750.175 1329.67 L747.033 1329.67 L743.891 1329.67 L740.748 1329.67 L737.606 1329.67 L734.464 1329.67 L731.321 1329.67 
  L728.179 1329.67 L725.037 1329.67 L721.894 1329.67 L718.752 1329.67 L715.61 1329.67 L712.467 1329.67 L709.325 1329.67 L706.183 1329.67 L703.04 1329.67 L699.898 1329.67 
  L696.756 1329.67 L693.613 1329.67 L690.471 1329.67 L687.329 1329.67 L684.187 1329.67 L681.044 1329.67 L677.902 1329.67 L674.76 1329.67 L671.617 1329.67 L668.475 1329.67 
  L665.333 1329.67 L662.19 1329.67 L659.048 1329.67 L655.906 1329.67 L652.763 1329.67 L649.621 1329.67 L646.479 1329.67 L643.336 1329.67 L640.194 1329.67 L637.052 1329.67 
  L633.909 1329.67 L630.767 1329.67 L627.625 1329.67 L624.483 1329.67 L621.34 1329.67 L618.198 1329.67 L615.056 1329.67 L611.913 1329.67 L608.771 1329.67 L605.629 1329.67 
  L602.486 1329.67 L599.344 1329.67 L596.202 1329.67 L593.059 1329.67 L589.917 1329.67 L586.775 1329.67 L583.632 1329.67 L580.49 1329.67 L577.348 1329.67 L574.206 1329.67 
  L571.063 1329.67 L567.921 1329.67 L564.779 1329.67 L561.636 1329.67 L558.494 1329.67 L555.352 1329.67 L552.209 1329.67 L549.067 1329.67 L545.925 1329.67 L542.782 1329.67 
  L539.64 1329.67 L536.498 1329.67 L533.355 1329.67 L530.213 1329.67 L527.071 1329.67 L523.928 1329.67 L520.786 1329.67 L517.644 1329.67 L514.502 1329.67 L511.359 1329.67 
  L508.217 1329.67 L505.075 1329.67 L501.932 1329.67 L498.79 1329.67 L495.648 1329.67 L492.505 1329.67 L489.363 1329.67 L486.221 1329.67 L483.078 1329.67 L479.936 1329.67 
  L476.794 1329.67 L473.651 1329.67 L470.509 1329.67 L467.367 1329.67 L464.224 1329.67 L461.082 1329.67 L457.94 1329.67 L454.798 1329.67 L451.655 1329.67 L448.513 1329.67 
  L445.371 1329.67 L442.228 1329.67 L439.086 1329.67 L435.944 1329.67 L432.801 1329.67 L429.659 1329.67 L426.517 1329.67 L423.374 1329.67 L420.232 1329.67 L417.09 1329.67 
  L413.947 1329.67 L410.805 1329.67  Z
  " fill="#ff7e00" fill-rule="evenodd" fill-opacity="0.5"/>
<polyline clip-path="url(#clip182)" style="stroke:#ff7e00; stroke-linecap:round; stroke-linejoin:round; stroke-width:8; stroke-opacity:1; fill:none" points="
  410.805,84.5962 413.947,96.9849 417.09,109.25 420.232,121.394 423.374,133.416 426.517,145.319 429.659,157.104 432.801,168.771 435.944,180.322 439.086,191.758 
  442.228,203.08 445.371,214.29 448.513,225.388 451.655,236.376 454.798,247.255 457.94,258.025 461.082,268.688 464.224,279.245 467.367,289.697 470.509,300.044 
  473.651,310.289 476.794,320.432 479.936,330.474 483.078,340.417 486.221,350.26 489.363,360.005 492.505,369.653 495.648,379.206 498.79,388.663 501.932,398.026 
  505.075,407.296 508.217,416.474 511.359,425.56 514.502,434.556 517.644,443.463 520.786,452.281 523.928,461.011 527.071,469.654 530.213,478.211 533.355,486.684 
  536.498,495.071 539.64,503.376 542.782,511.597 545.925,519.737 549.067,527.796 552.209,535.775 555.352,543.674 558.494,551.495 561.636,559.238 564.779,566.904 
  567.921,574.494 571.063,582.008 574.206,589.447 577.348,596.812 580.49,604.104 583.632,611.324 586.775,618.472 589.917,625.548 593.059,632.554 596.202,639.491 
  599.344,646.358 602.486,653.157 605.629,659.888 608.771,666.553 611.913,673.151 615.056,679.683 618.198,686.151 621.34,692.554 624.483,698.893 627.625,705.17 
  630.767,711.384 633.909,717.536 637.052,723.626 640.194,729.657 643.336,735.627 646.479,741.538 649.621,747.39 652.763,753.183 655.906,758.919 659.048,764.598 
  662.19,770.221 665.333,775.788 668.475,781.299 671.617,786.755 674.76,792.157 677.902,797.506 681.044,802.801 684.187,808.043 687.329,813.233 690.471,818.372 
  693.613,823.459 696.756,828.496 699.898,833.483 703.04,838.42 706.183,843.308 709.325,848.147 712.467,852.939 715.61,857.682 718.752,862.379 721.894,867.028 
  725.037,871.632 728.179,876.189 731.321,880.701 734.464,885.169 737.606,889.591 740.748,893.97 743.891,898.305 747.033,902.598 750.175,906.847 753.317,911.054 
  756.46,915.219 759.602,919.343 762.744,923.426 765.887,927.468 769.029,931.47 772.171,935.432 775.314,939.355 778.456,943.239 781.598,947.084 784.741,950.89 
  787.883,954.659 791.025,958.391 794.168,962.085 797.31,965.743 800.452,969.364 803.595,972.949 806.737,976.498 809.879,980.012 813.021,983.491 816.164,986.936 
  819.306,990.346 822.448,993.722 825.591,997.065 828.733,1000.37 831.875,1003.65 835.018,1006.9 838.16,1010.11 841.302,1013.29 844.445,1016.43 847.587,1019.55 
  850.729,1022.64 853.872,1025.69 857.014,1028.72 860.156,1031.71 863.299,1034.68 866.441,1037.61 869.583,1040.52 872.725,1043.39 875.868,1046.24 879.01,1049.06 
  882.152,1051.85 885.295,1054.62 888.437,1057.36 891.579,1060.07 894.722,1062.75 897.864,1065.4 901.006,1068.03 904.149,1070.64 907.291,1073.21 910.433,1075.77 
  913.576,1078.29 916.718,1080.79 919.86,1083.27 923.002,1085.72 926.145,1088.15 929.287,1090.55 932.429,1092.93 935.572,1095.29 938.714,1097.62 941.856,1099.93 
  944.999,1102.21 948.141,1104.48 951.283,1106.72 954.426,1108.94 957.568,1111.13 960.71,1113.31 963.853,1115.46 966.995,1117.59 970.137,1119.7 973.28,1121.79 
  976.422,1123.86 979.564,1125.91 982.706,1127.93 985.849,1129.94 988.991,1131.93 992.133,1133.9 995.276,1135.84 998.418,1137.77 1001.56,1139.68 1004.7,1141.57 
  1007.85,1143.44 1010.99,1145.3 1014.13,1147.13 1017.27,1148.95 1020.41,1150.75 1023.56,1152.53 1026.7,1154.29 1029.84,1156.03 1032.98,1157.76 1036.13,1159.47 
  1039.27,1161.17 1042.41,1162.84 1045.55,1164.5 1048.7,1166.15 1051.84,1167.77 1054.98,1169.38 1058.12,1170.98 1061.26,1172.56 1064.41,1174.12 1067.55,1175.67 
  1070.69,1177.2 1073.83,1178.72 1076.98,1180.22 1080.12,1181.71 1083.26,1183.18 1086.4,1184.64 1089.55,1186.08 1092.69,1187.51 1095.83,1188.92 1098.97,1190.32 
  1102.11,1191.71 1105.26,1193.08 1108.4,1194.44 1111.54,1195.79 1114.68,1197.12 1117.83,1198.44 1120.97,1199.74 1124.11,1201.04 1127.25,1202.32 1130.4,1203.58 
  1133.54,1204.84 1136.68,1206.08 1139.82,1207.31 1142.96,1208.53 1146.11,1209.73 1149.25,1210.93 1152.39,1212.11 1155.53,1213.28 1158.68,1214.44 1161.82,1215.58 
  1164.96,1216.72 1168.1,1217.84 1171.25,1218.95 1174.39,1220.06 1177.53,1221.15 1180.67,1222.23 1183.81,1223.3 1186.96,1224.35 1190.1,1225.4 1193.24,1226.44 
  1196.38,1227.47 1199.53,1228.48 1202.67,1229.49 1205.81,1230.49 1208.95,1231.47 1212.1,1232.45 1215.24,1233.42 1218.38,1234.38 1221.52,1235.32 1224.66,1236.26 
  1227.81,1237.19 1230.95,1238.11 1234.09,1239.02 1237.23,1239.92 1240.38,1240.82 1243.52,1241.7 1246.66,1242.58 1249.8,1243.44 1252.95,1244.3 1256.09,1245.15 
  1259.23,1245.99 1262.37,1246.82 1265.51,1247.65 1268.66,1248.47 1271.8,1249.27 1274.94,1250.07 1278.08,1250.86 1281.23,1251.65 1284.37,1252.43 1287.51,1253.19 
  1290.65,1253.95 1293.8,1254.71 1296.94,1255.45 1300.08,1256.19 1303.22,1256.92 1306.36,1257.65 1309.51,1258.36 1312.65,1259.07 1315.79,1259.78 1318.93,1260.47 
  1322.08,1261.16 1325.22,1261.84 1328.36,1262.52 1331.5,1263.18 1334.65,1263.85 1337.79,1264.5 1340.93,1265.15 1344.07,1265.79 1347.22,1266.43 1350.36,1267.06 
  1353.5,1267.68 1356.64,1268.3 1359.78,1268.91 1362.93,1269.51 1366.07,1270.11 1369.21,1270.7 1372.35,1271.29 1375.5,1271.87 1378.64,1272.45 1381.78,1273.01 
  1384.92,1273.58 1388.07,1274.14 1391.21,1274.69 1394.35,1275.24 1397.49,1275.78 1400.63,1276.31 1403.78,1276.84 1406.92,1277.37 1410.06,1277.89 1413.2,1278.41 
  1416.35,1278.92 1419.49,1279.42 1422.63,1279.92 1425.77,1280.42 1428.92,1280.91 1432.06,1281.39 1435.2,1281.87 1438.34,1282.35 1441.48,1282.82 1444.63,1283.28 
  1447.77,1283.75 1450.91,1284.2 1454.05,1284.65 1457.2,1285.1 1460.34,1285.55 1463.48,1285.99 1466.62,1286.42 1469.77,1286.85 1472.91,1287.28 1476.05,1287.7 
  1479.19,1288.12 1482.33,1288.53 1485.48,1288.94 1488.62,1289.34 1491.76,1289.74 1494.9,1290.14 1498.05,1290.54 1501.19,1290.92 1504.33,1291.31 1507.47,1291.69 
  1510.62,1292.07 1513.76,1292.44 1516.9,1292.81 1520.04,1293.18 1523.18,1293.54 1526.33,1293.9 1529.47,1294.26 1532.61,1294.61 1535.75,1294.96 1538.9,1295.31 
  1542.04,1295.65 1545.18,1295.99 1548.32,1296.32 1551.47,1296.65 1554.61,1296.98 1557.75,1297.31 1560.89,1297.63 1564.03,1297.95 1567.18,1298.26 1570.32,1298.58 
  1573.46,1298.89 1576.6,1299.19 1579.75,1299.49 1582.89,1299.79 1586.03,1300.09 1589.17,1300.39 1592.32,1300.68 1595.46,1300.97 1598.6,1301.25 1601.74,1301.53 
  1604.88,1301.81 1608.03,1302.09 1611.17,1302.37 1614.31,1302.64 1617.45,1302.91 1620.6,1303.17 1623.74,1303.44 1626.88,1303.7 1630.02,1303.96 1633.17,1304.21 
  1636.31,1304.47 1639.45,1304.72 1642.59,1304.96 1645.73,1305.21 1648.88,1305.45 1652.02,1305.69 1655.16,1305.93 1658.3,1306.17 1661.45,1306.4 1664.59,1306.63 
  1667.73,1306.86 1670.87,1307.09 1674.02,1307.31 1677.16,1307.54 1680.3,1307.76 1683.44,1307.98 1686.59,1308.19 1689.73,1308.41 1692.87,1308.62 1696.01,1308.83 
  1699.15,1309.03 1702.3,1309.24 1705.44,1309.44 1708.58,1309.64 1711.72,1309.84 1714.87,1310.04 1718.01,1310.24 1721.15,1310.43 1724.29,1310.62 1727.44,1310.81 
  1730.58,1311 1733.72,1311.18 1736.86,1311.37 1740,1311.55 1743.15,1311.73 1746.29,1311.91 1749.43,1312.08 1752.57,1312.26 1755.72,1312.43 1758.86,1312.6 
  1762,1312.77 1765.14,1312.94 1768.29,1313.11 1771.43,1313.27 1774.57,1313.44 1777.71,1313.6 1780.85,1313.76 1784,1313.92 1787.14,1314.07 1790.28,1314.23 
  1793.42,1314.38 1796.57,1314.53 1799.71,1314.68 1802.85,1314.83 1805.99,1314.98 1809.14,1315.13 1812.28,1315.27 1815.42,1315.41 1818.56,1315.56 1821.7,1315.7 
  1824.85,1315.84 1827.99,1315.97 1831.13,1316.11 1834.27,1316.24 1837.42,1316.38 1840.56,1316.51 1843.7,1316.64 1846.84,1316.77 1849.99,1316.9 1853.13,1317.03 
  1856.27,1317.15 1859.41,1317.28 1862.55,1317.4 1865.7,1317.52 1868.84,1317.64 1871.98,1317.76 1875.12,1317.88 1878.27,1318 1881.41,1318.11 1884.55,1318.23 
  1887.69,1318.34 1890.84,1318.46 1893.98,1318.57 1897.12,1318.68 1900.26,1318.79 1903.4,1318.9 1906.55,1319 1909.69,1319.11 1912.83,1319.21 1915.97,1319.32 
  1919.12,1319.42 1922.26,1319.52 1925.4,1319.62 1928.54,1319.72 1931.69,1319.82 1934.83,1319.92 1937.97,1320.02 1941.11,1320.11 1944.25,1320.21 1947.4,1320.3 
  1950.54,1320.4 1953.68,1320.49 1956.82,1320.58 1959.97,1320.67 1963.11,1320.76 1966.25,1320.85 1969.39,1320.94 1972.54,1321.02 1975.68,1321.11 1978.82,1321.19 
  1981.96,1321.28 1985.11,1321.36 1988.25,1321.44 1991.39,1321.53 1994.53,1321.61 1997.67,1321.69 2000.82,1321.77 2003.96,1321.85 2007.1,1321.92 2010.24,1322 
  2013.39,1322.08 2016.53,1322.15 2019.67,1322.23 2022.81,1322.3 2025.96,1322.37 2029.1,1322.45 2032.24,1322.52 2035.38,1322.59 2038.52,1322.66 2041.67,1322.73 
  2044.81,1322.8 2047.95,1322.87 2051.09,1322.94 2054.24,1323 2057.38,1323.07 2060.52,1323.13 2063.66,1323.2 2066.81,1323.26 2069.95,1323.33 2073.09,1323.39 
  2076.23,1323.45 2079.37,1323.51 2082.52,1323.58 2085.66,1323.64 2088.8,1323.7 2091.94,1323.76 2095.09,1323.81 2098.23,1323.87 2101.37,1323.93 2104.51,1323.99 
  2107.66,1324.04 2110.8,1324.1 2113.94,1324.16 2117.08,1324.21 2120.22,1324.26 2123.37,1324.32 2126.51,1324.37 2129.65,1324.42 2132.79,1324.48 2135.94,1324.53 
  2139.08,1324.58 2142.22,1324.63 2145.36,1324.68 2148.51,1324.73 2151.65,1324.78 2154.79,1324.83 2157.93,1324.88 2161.07,1324.92 2164.22,1324.97 2167.36,1325.02 
  2170.5,1325.06 2173.64,1325.11 2176.79,1325.15 2179.93,1325.2 2183.07,1325.24 2186.21,1325.29 2189.36,1325.33 2192.5,1325.37 2195.64,1325.42 2198.78,1325.46 
  2201.92,1325.5 2205.07,1325.54 2208.21,1325.58 2211.35,1325.62 2214.49,1325.67 2217.64,1325.7 2220.78,1325.74 2223.92,1325.78 2227.06,1325.82 2230.21,1325.86 
  2233.35,1325.9 2236.49,1325.94 2239.63,1325.97 2242.77,1326.01 2245.92,1326.05 2249.06,1326.08 2252.2,1326.12 2255.34,1326.15 2258.49,1326.19 2261.63,1326.22 
  2264.77,1326.26 2267.91,1326.29 2271.06,1326.32 2274.2,1326.36 2277.34,1326.39 2280.48,1326.42 2283.62,1326.46 2286.77,1326.49 2289.91,1326.52 2293.05,1326.55 
  2296.19,1326.58 
  "/>
</svg>
