<?xml version="1.0" encoding="utf-8"?>
<svg xmlns="http://www.w3.org/2000/svg" xmlns:xlink="http://www.w3.org/1999/xlink" width="600" height="400" viewBox="0 0 2400 1600">
<defs>
  <clipPath id="clip830">
    <rect x="0" y="0" width="2400" height="1600"/>
  </clipPath>
</defs>
<path clip-path="url(#clip830)" d="
M0 1600 L2400 1600 L2400 0 L0 0  Z
  " fill="#ffffff" fill-rule="evenodd" fill-opacity="1"/>
<defs>
  <clipPath id="clip831">
    <rect x="480" y="0" width="1681" height="1600"/>
  </clipPath>
</defs>
<defs>
  <clipPath id="clip832">
    <rect x="208" y="166" width="2145" height="1295"/>
  </clipPath>
</defs>
<path clip-path="url(#clip830)" d="
M208.803 1460.53 L2352.76 1460.53 L2352.76 166.672 L208.803 166.672  Z
  " fill="#ffffff" fill-rule="evenodd" fill-opacity="1"/>
<polyline clip-path="url(#clip830)" style="stroke:#000000; stroke-linecap:round; stroke-linejoin:round; stroke-width:4; stroke-opacity:1; fill:none" points="
  208.803,1460.53 2352.76,1460.53 
  "/>
<polyline clip-path="url(#clip830)" style="stroke:#000000; stroke-linecap:round; stroke-linejoin:round; stroke-width:4; stroke-opacity:1; fill:none" points="
  1280.78,1460.53 1280.78,1441.63 
  "/>
<path clip-path="url(#clip830)" d="M1280.78 1500.24 Q1274.46 1500.24 1271.26 1506.47 Q1268.1 1512.67 1268.1 1525.15 Q1268.1 1537.58 1271.26 1543.82 Q1274.46 1550.02 1280.78 1550.02 Q1287.14 1550.02 1290.3 1543.82 Q1293.5 1537.58 1293.5 1525.15 Q1293.5 1512.67 1290.3 1506.47 Q1287.14 1500.24 1280.78 1500.24 M1280.78 1493.75 Q1290.95 1493.75 1296.29 1501.82 Q1301.68 1509.84 1301.68 1525.15 Q1301.68 1540.42 1296.29 1548.48 Q1290.95 1556.5 1280.78 1556.5 Q1270.61 1556.5 1265.22 1548.48 Q1259.88 1540.42 1259.88 1525.15 Q1259.88 1509.84 1265.22 1501.82 Q1270.61 1493.75 1280.78 1493.75 Z" fill="#000000" fill-rule="evenodd" fill-opacity="1" /><path clip-path="url(#clip830)" d="M1026.9 31.9759 Q1026.9 32.3975 1026.48 34.0839 L946.024 124.026 L970.618 124.026 Q977.855 124.026 983.336 122.761 Q988.817 121.426 992.612 119.178 Q996.406 116.929 999.357 113.064 Q1002.38 109.129 1004.35 104.843 Q1006.31 100.487 1008.35 94.0922 Q1009.12 91.6329 1009.48 91.0707 Q1009.83 90.5086 1010.74 90.5086 Q1011.65 90.5086 1012.15 91.0707 Q1012.64 91.5626 1012.64 92.1247 Q1012.64 92.4058 1012.5 92.8274 Q1012.43 93.1787 1012.29 93.6003 Q1012.15 94.0219 1012.08 94.2327 L1001.82 126.064 Q1001.18 128.102 1000.55 128.523 Q999.919 128.945 997.39 128.945 L934.781 128.945 Q932.603 128.945 931.901 128.804 Q931.198 128.593 931.198 127.68 L931.76 125.08 L1012.22 35.1379 L988.747 35.1379 Q982.142 35.1379 976.942 36.3325 Q971.812 37.4567 968.158 39.5648 Q964.505 41.6025 961.694 45.0456 Q958.883 48.4184 956.986 52.3534 Q955.089 56.2181 953.332 61.6287 L953.121 61.98 Q952.91 62.3314 952.77 62.5422 Q952.629 62.6827 952.278 62.8935 Q951.927 63.0341 951.505 63.0341 Q950.732 63.0341 950.24 62.6124 Q949.819 62.1908 949.819 61.7692 L949.748 61.4179 Q949.889 60.1531 950.17 59.4504 L958.11 33.5218 Q958.743 31.484 959.375 31.0624 Q960.007 30.6408 962.537 30.6408 L1023.32 30.6408 Q1025.57 30.6408 1026.2 30.8516 Q1026.9 31.0624 1026.9 31.9759 Z" fill="#000000" fill-rule="evenodd" fill-opacity="1" /><path clip-path="url(#clip830)" d="M1163.49 78.001 Q1163.07 91.0005 1159.2 98.238 Q1155.34 105.405 1146.41 108.356 Q1142.62 109.34 1139.95 109.34 Q1128.56 109.34 1113.46 95.7084 Q1110.44 93.0382 1108.47 91.4221 Q1106.5 89.8059 1103.55 87.9087 Q1100.67 85.9412 1097.93 85.0277 Q1095.19 84.044 1092.45 84.044 Q1089.71 84.044 1087.95 84.7467 Q1080.08 87.3466 1076.07 92.7571 Q1072.14 98.0975 1071.86 107.935 Q1071.86 108.638 1071.3 109.2 Q1070.73 109.692 1070.1 109.692 Q1069.4 109.692 1068.91 109.2 Q1068.42 108.708 1068.42 107.935 Q1068.84 94.9354 1072.7 87.7682 Q1076.64 80.5306 1085.63 77.5794 Q1089.21 76.5956 1092.03 76.5956 Q1103.34 76.5956 1118.45 90.2275 Q1121.47 92.8977 1123.43 94.5138 Q1125.4 96.13 1128.28 98.0975 Q1131.23 99.9947 1133.97 100.978 Q1136.72 101.892 1139.46 101.892 Q1142.06 101.892 1144.09 101.189 Q1151.82 98.5893 1155.76 93.249 Q1159.76 87.8384 1160.04 78.001 Q1160.04 77.2983 1160.61 76.8065 Q1161.17 76.2443 1161.8 76.2443 Q1162.5 76.2443 1163 76.7362 Q1163.49 77.2281 1163.49 78.001 Z" fill="#000000" fill-rule="evenodd" fill-opacity="1" /><path clip-path="url(#clip830)" d="M1218.51 128.945 L1218.51 124.518 Q1223.71 124.518 1227.01 123.534 Q1230.31 122.48 1231.51 120.583 Q1232.7 118.616 1232.98 117.351 Q1233.33 116.016 1233.33 113.837 L1233.33 38.7216 Q1233.33 36.6838 1232.77 36.1919 Q1232.28 35.7001 1229.82 35.419 Q1225.53 35.1379 1222.65 35.1379 L1218.51 35.1379 L1218.51 30.6408 L1242.96 30.6408 Q1245 30.6408 1245.56 30.9219 Q1246.12 31.203 1247.11 32.538 L1297.91 107.232 L1297.91 45.7483 Q1297.91 43.57 1297.63 42.3052 Q1297.35 41.0404 1296.08 39.0729 Q1294.89 37.1054 1291.59 36.1217 Q1288.28 35.1379 1283.08 35.1379 L1283.08 30.6408 Q1298.19 31.0624 1299.88 31.0624 Q1301.63 31.0624 1316.74 30.6408 L1316.74 35.1379 Q1311.54 35.1379 1308.24 36.1217 Q1304.94 37.1054 1303.74 39.0729 Q1302.55 41.0404 1302.2 42.3755 Q1301.92 43.6403 1301.92 45.7483 L1301.92 125.221 Q1301.92 127.539 1301.63 128.242 Q1301.35 128.945 1299.95 128.945 Q1298.96 128.945 1297.49 127.048 L1238.74 40.7593 Q1238.18 39.9161 1237.34 39.0026 L1237.34 113.837 Q1237.34 116.016 1237.62 117.351 Q1237.9 118.616 1239.1 120.583 Q1240.36 122.48 1243.66 123.534 Q1246.97 124.518 1252.17 124.518 L1252.17 128.945 Q1237.06 128.523 1235.3 128.523 Q1233.62 128.523 1218.51 128.945 Z" fill="#000000" fill-rule="evenodd" fill-opacity="1" /><path clip-path="url(#clip830)" d="M1325.41 92.9679 Q1325.41 68.6554 1334.47 49.0509 Q1338.34 40.8296 1343.75 33.9434 Q1349.16 27.0572 1352.74 24.0357 Q1356.32 21.0142 1357.31 21.0142 Q1358.71 21.0142 1358.78 22.4195 Q1358.78 23.1222 1356.89 24.8789 Q1333.7 48.4887 1333.77 92.9679 Q1333.77 137.588 1356.32 160.284 Q1358.78 162.743 1358.78 163.516 Q1358.78 164.922 1357.31 164.922 Q1356.32 164.922 1352.88 162.041 Q1349.44 159.16 1344.1 152.555 Q1338.76 145.95 1334.89 137.869 Q1325.41 118.264 1325.41 92.9679 Z" fill="#000000" fill-rule="evenodd" fill-opacity="1" /><path clip-path="url(#clip830)" d="M1372.6 82.9197 Q1372.6 61.7692 1377.94 50.2454 Q1385.39 33.1002 1402.96 33.1002 Q1406.68 33.1002 1410.55 34.1542 Q1414.48 35.1379 1419.4 39.0026 Q1424.39 42.8673 1427.41 49.1914 Q1433.17 61.4179 1433.17 82.9197 Q1433.17 103.93 1427.83 115.383 Q1420.03 132.107 1402.82 132.107 Q1396.35 132.107 1389.75 128.804 Q1383.21 125.502 1379.07 117.562 Q1372.6 105.686 1372.6 82.9197 M1384.55 81.163 Q1384.55 102.876 1386.09 111.519 Q1387.85 120.864 1392.63 124.94 Q1397.48 128.945 1402.82 128.945 Q1408.58 128.945 1413.36 124.659 Q1418.2 120.302 1419.68 110.956 Q1421.3 101.751 1421.23 81.163 Q1421.23 61.1368 1419.82 53.1264 Q1417.92 43.7808 1412.86 40.0566 Q1407.88 36.2622 1402.82 36.2622 Q1400.92 36.2622 1398.88 36.8243 Q1396.91 37.3865 1394.03 39.0026 Q1391.15 40.6188 1388.9 44.624 Q1386.72 48.6292 1385.67 54.6722 Q1384.55 62.4719 1384.55 81.163 Z" fill="#000000" fill-rule="evenodd" fill-opacity="1" /><path clip-path="url(#clip830)" d="M1445.9 126.626 Q1443.87 124.307 1443.87 121.286 Q1443.87 118.264 1445.83 116.016 Q1447.87 113.697 1451.53 113.697 Q1455.81 113.697 1458.27 117.843 Q1460.73 121.918 1460.73 128.804 Q1460.73 136.253 1457.71 143.139 Q1454.69 150.095 1451.74 153.398 Q1448.79 156.7 1447.59 156.7 Q1446.19 156.7 1446.19 155.155 Q1446.19 154.592 1447.17 153.538 Q1457.5 142.436 1457.57 128.804 Q1457.57 126.626 1457.29 126.626 L1456.94 126.907 Q1454.48 128.945 1451.53 128.945 Q1447.94 128.945 1445.9 126.626 Z" fill="#000000" fill-rule="evenodd" fill-opacity="1" /><path clip-path="url(#clip830)" d="M1506.14 46.8023 L1506.14 42.3052 Q1523.43 42.3052 1532.35 33.1002 Q1534.81 33.1002 1535.23 33.6623 Q1535.65 34.2244 1535.65 36.8243 L1535.65 117.562 Q1535.65 121.848 1537.76 123.183 Q1539.87 124.518 1549.07 124.518 L1553.64 124.518 L1553.64 128.945 Q1548.58 128.523 1530.31 128.523 Q1512.04 128.523 1507.05 128.945 L1507.05 124.518 L1511.62 124.518 Q1520.69 124.518 1522.86 123.253 Q1525.04 121.918 1525.04 117.562 L1525.04 43.0079 Q1517.52 46.8023 1506.14 46.8023 Z" fill="#000000" fill-rule="evenodd" fill-opacity="1" /><path clip-path="url(#clip830)" d="M1575.1 163.516 Q1575.1 162.814 1576.93 161.057 Q1600.12 137.447 1600.12 92.9679 Q1600.12 48.3482 1577.84 25.7924 Q1575.1 23.1925 1575.1 22.4195 Q1575.1 21.0142 1576.51 21.0142 Q1577.49 21.0142 1580.93 23.8951 Q1584.45 26.7761 1589.72 33.3812 Q1595.06 39.9864 1598.99 48.0671 Q1608.48 67.6717 1608.48 92.9679 Q1608.48 117.28 1599.41 136.885 Q1595.55 145.106 1590.14 151.992 Q1584.73 158.879 1581.15 161.9 Q1577.56 164.922 1576.51 164.922 Q1575.1 164.922 1575.1 163.516 Z" fill="#000000" fill-rule="evenodd" fill-opacity="1" /><path clip-path="url(#clip832)" d="
M269.481 1423.5 L272.009 1423.48 L274.537 1423.47 L277.065 1423.45 L279.594 1423.43 L282.122 1423.41 L284.65 1423.39 L287.178 1423.37 L289.707 1423.35 L292.235 1423.32 
  L294.763 1423.3 L297.291 1423.28 L299.82 1423.25 L302.348 1423.23 L304.876 1423.2 L307.404 1423.17 L309.933 1423.14 L312.461 1423.11 L314.989 1423.08 L317.517 1423.05 
  L320.046 1423.02 L322.574 1422.98 L325.102 1422.95 L327.63 1422.91 L330.159 1422.87 L332.687 1422.83 L335.215 1422.79 L337.743 1422.75 L340.272 1422.7 L342.8 1422.66 
  L345.328 1422.61 L347.856 1422.56 L350.385 1422.51 L352.913 1422.46 L355.441 1422.4 L357.969 1422.35 L360.498 1422.29 L363.026 1422.23 L365.554 1422.17 L368.082 1422.1 
  L370.611 1422.04 L373.139 1421.97 L375.667 1421.9 L378.195 1421.82 L380.724 1421.75 L383.252 1421.67 L385.78 1421.59 L388.308 1421.51 L390.837 1421.42 L393.365 1421.33 
  L395.893 1421.24 L398.421 1421.14 L400.95 1421.05 L403.478 1420.94 L406.006 1420.84 L408.534 1420.73 L411.063 1420.62 L413.591 1420.51 L416.119 1420.39 L418.647 1420.27 
  L421.176 1420.14 L423.704 1420.01 L426.232 1419.87 L428.76 1419.74 L431.289 1419.59 L433.817 1419.45 L436.345 1419.29 L438.873 1419.14 L441.402 1418.98 L443.93 1418.81 
  L446.458 1418.64 L448.986 1418.46 L451.514 1418.28 L454.043 1418.09 L456.571 1417.9 L459.099 1417.7 L461.627 1417.5 L464.156 1417.29 L466.684 1417.07 L469.212 1416.84 
  L471.74 1416.61 L474.269 1416.38 L476.797 1416.13 L479.325 1415.88 L481.853 1415.63 L484.382 1415.36 L486.91 1415.09 L489.438 1414.81 L491.966 1414.52 L494.495 1414.22 
  L497.023 1413.91 L499.551 1413.6 L502.079 1413.28 L504.608 1412.94 L507.136 1412.6 L509.664 1412.25 L512.192 1411.89 L514.721 1411.52 L517.249 1411.14 L519.777 1410.75 
  L522.305 1410.35 L524.834 1409.94 L527.362 1409.51 L529.89 1409.08 L532.418 1408.63 L534.947 1408.17 L537.475 1407.7 L540.003 1407.22 L542.531 1406.73 L545.06 1406.22 
  L547.588 1405.7 L550.116 1405.16 L552.644 1404.61 L555.173 1404.05 L557.701 1403.47 L560.229 1402.88 L562.757 1402.27 L565.286 1401.65 L567.814 1401.01 L570.342 1400.36 
  L572.87 1399.69 L575.399 1399 L577.927 1398.3 L580.455 1397.58 L582.983 1396.84 L585.512 1396.09 L588.04 1395.31 L590.568 1394.52 L593.096 1393.71 L595.625 1392.88 
  L598.153 1392.03 L600.681 1391.15 L603.209 1390.26 L605.738 1389.35 L608.266 1388.42 L610.794 1387.46 L613.322 1386.49 L615.851 1385.49 L618.379 1384.46 L620.907 1383.42 
  L623.435 1382.35 L625.963 1381.26 L628.492 1380.14 L631.02 1379 L633.548 1377.83 L636.076 1376.64 L638.605 1375.42 L641.133 1374.18 L643.661 1372.9 L646.189 1371.61 
  L648.718 1370.28 L651.246 1368.92 L653.774 1367.54 L656.302 1366.13 L658.831 1364.69 L661.359 1363.21 L663.887 1361.71 L666.415 1360.18 L668.944 1358.61 L671.472 1357.02 
  L674 1355.39 L676.528 1353.73 L679.057 1352.04 L681.585 1350.31 L684.113 1348.55 L686.641 1346.75 L689.17 1344.92 L691.698 1343.05 L694.226 1341.15 L696.754 1339.21 
  L699.283 1337.24 L701.811 1335.23 L704.339 1333.18 L706.867 1331.09 L709.396 1328.96 L711.924 1326.8 L714.452 1324.59 L716.98 1322.35 L719.509 1320.06 L722.037 1317.74 
  L724.565 1315.37 L727.093 1312.96 L729.622 1310.51 L732.15 1308.02 L734.678 1305.48 L737.206 1302.9 L739.735 1300.28 L742.263 1297.61 L744.791 1294.9 L747.319 1292.14 
  L749.848 1289.34 L752.376 1286.49 L754.904 1283.59 L757.432 1280.65 L759.961 1277.66 L762.489 1274.62 L765.017 1271.54 L767.545 1268.41 L770.074 1265.23 L772.602 1262 
  L775.13 1258.72 L777.658 1255.39 L780.187 1252.01 L782.715 1248.58 L785.243 1245.1 L787.771 1241.57 L790.3 1237.99 L792.828 1234.36 L795.356 1230.67 L797.884 1226.94 
  L800.413 1223.15 L802.941 1219.31 L805.469 1215.41 L807.997 1211.47 L810.525 1207.47 L813.054 1203.42 L815.582 1199.31 L818.11 1195.15 L820.638 1190.94 L823.167 1186.67 
  L825.695 1182.35 L828.223 1177.98 L830.751 1173.55 L833.28 1169.06 L835.808 1164.52 L838.336 1159.93 L840.864 1155.29 L843.393 1150.58 L845.921 1145.83 L848.449 1141.02 
  L850.977 1136.15 L853.506 1131.23 L856.034 1126.26 L858.562 1121.23 L861.09 1116.15 L863.619 1111.02 L866.147 1105.83 L868.675 1100.58 L871.203 1095.29 L873.732 1089.94 
  L876.26 1084.53 L878.788 1079.08 L881.316 1073.57 L883.845 1068 L886.373 1062.39 L888.901 1056.73 L891.429 1051.01 L893.958 1045.24 L896.486 1039.42 L899.014 1033.55 
  L901.542 1027.63 L904.071 1021.66 L906.599 1015.65 L909.127 1009.58 L911.655 1003.46 L914.184 997.302 L916.712 991.093 L919.24 984.837 L921.768 978.536 L924.297 972.189 
  L926.825 965.798 L929.353 959.362 L931.881 952.883 L934.41 946.362 L936.938 939.799 L939.466 933.195 L941.994 926.55 L944.523 919.866 L947.051 913.143 L949.579 906.382 
  L952.107 899.584 L954.636 892.749 L957.164 885.88 L959.692 878.976 L962.22 872.039 L964.749 865.069 L967.277 858.068 L969.805 851.037 L972.333 843.976 L974.862 836.887 
  L977.39 829.77 L979.918 822.628 L982.446 815.46 L984.975 808.269 L987.503 801.055 L990.031 793.819 L992.559 786.563 L995.087 779.288 L997.616 771.995 L1000.14 764.686 
  L1002.67 757.361 L1005.2 750.022 L1007.73 742.67 L1010.26 735.308 L1012.79 727.935 L1015.31 720.553 L1017.84 713.165 L1020.37 705.77 L1022.9 698.372 L1025.43 690.97 
  L1027.95 683.567 L1030.48 676.164 L1033.01 668.762 L1035.54 661.363 L1038.07 653.969 L1040.6 646.581 L1043.12 639.2 L1045.65 631.829 L1048.18 624.468 L1050.71 617.12 
  L1053.24 609.785 L1055.77 602.466 L1058.29 595.164 L1060.82 587.88 L1063.35 580.617 L1065.88 573.376 L1068.41 566.159 L1070.93 558.967 L1073.46 551.801 L1075.99 544.665 
  L1078.52 537.558 L1081.05 530.484 L1083.58 523.443 L1086.1 516.437 L1088.63 509.468 L1091.16 502.538 L1093.69 495.648 L1096.22 488.8 L1098.75 481.996 L1101.27 475.237 
  L1103.8 468.526 L1106.33 461.863 L1108.86 455.25 L1111.39 448.689 L1113.92 442.182 L1116.44 435.731 L1118.97 429.337 L1121.5 423.001 L1124.03 416.726 L1126.56 410.513 
  L1129.08 404.363 L1131.61 398.279 L1134.14 392.261 L1136.67 386.312 L1139.2 380.433 L1141.73 374.626 L1144.25 368.891 L1146.78 363.232 L1149.31 357.649 L1151.84 352.143 
  L1154.37 346.717 L1156.9 341.372 L1159.42 336.109 L1161.95 330.929 L1164.48 325.835 L1167.01 320.828 L1169.54 315.908 L1172.06 311.078 L1174.59 306.338 L1177.12 301.691 
  L1179.65 297.136 L1182.18 292.677 L1184.71 288.313 L1187.23 284.047 L1189.76 279.879 L1192.29 275.81 L1194.82 271.842 L1197.35 267.976 L1199.88 264.213 L1202.4 260.555 
  L1204.93 257.001 L1207.46 253.554 L1209.99 250.213 L1212.52 246.981 L1215.04 243.858 L1217.57 240.845 L1220.1 237.943 L1222.63 235.153 L1225.16 232.475 L1227.69 229.911 
  L1230.21 227.461 L1232.74 225.125 L1235.27 222.905 L1237.8 220.802 L1240.33 218.815 L1242.86 216.946 L1245.38 215.194 L1247.91 213.561 L1250.44 212.048 L1252.97 210.653 
  L1255.5 209.379 L1258.03 208.224 L1260.55 207.19 L1263.08 206.278 L1265.61 205.486 L1268.14 204.816 L1270.67 204.267 L1273.19 203.84 L1275.72 203.535 L1278.25 203.352 
  L1280.78 203.291 L1283.31 203.352 L1285.84 203.535 L1288.36 203.84 L1290.89 204.267 L1293.42 204.816 L1295.95 205.486 L1298.48 206.278 L1301.01 207.19 L1303.53 208.224 
  L1306.06 209.379 L1308.59 210.653 L1311.12 212.048 L1313.65 213.561 L1316.17 215.194 L1318.7 216.946 L1321.23 218.815 L1323.76 220.802 L1326.29 222.905 L1328.82 225.125 
  L1331.34 227.461 L1333.87 229.911 L1336.4 232.475 L1338.93 235.153 L1341.46 237.943 L1343.99 240.845 L1346.51 243.858 L1349.04 246.981 L1351.57 250.213 L1354.1 253.554 
  L1356.63 257.001 L1359.16 260.555 L1361.68 264.213 L1364.21 267.976 L1366.74 271.842 L1369.27 275.81 L1371.8 279.879 L1374.32 284.047 L1376.85 288.313 L1379.38 292.677 
  L1381.91 297.136 L1384.44 301.691 L1386.97 306.338 L1389.49 311.078 L1392.02 315.908 L1394.55 320.828 L1397.08 325.835 L1399.61 330.929 L1402.14 336.109 L1404.66 341.372 
  L1407.19 346.717 L1409.72 352.143 L1412.25 357.649 L1414.78 363.232 L1417.3 368.891 L1419.83 374.626 L1422.36 380.433 L1424.89 386.312 L1427.42 392.261 L1429.95 398.279 
  L1432.47 404.363 L1435 410.513 L1437.53 416.726 L1440.06 423.001 L1442.59 429.337 L1445.12 435.731 L1447.64 442.182 L1450.17 448.689 L1452.7 455.25 L1455.23 461.863 
  L1457.76 468.526 L1460.28 475.237 L1462.81 481.996 L1465.34 488.8 L1467.87 495.648 L1470.4 502.538 L1472.93 509.468 L1475.45 516.437 L1477.98 523.443 L1480.51 530.484 
  L1483.04 537.558 L1485.57 544.665 L1488.1 551.801 L1490.62 558.967 L1493.15 566.159 L1495.68 573.376 L1498.21 580.617 L1500.74 587.88 L1503.27 595.164 L1505.79 602.466 
  L1508.32 609.785 L1510.85 617.12 L1513.38 624.468 L1515.91 631.829 L1518.43 639.2 L1520.96 646.581 L1523.49 653.969 L1526.02 661.363 L1528.55 668.762 L1531.08 676.164 
  L1533.6 683.567 L1536.13 690.97 L1538.66 698.372 L1541.19 705.77 L1543.72 713.165 L1546.25 720.553 L1548.77 727.935 L1551.3 735.308 L1553.83 742.67 L1556.36 750.022 
  L1558.89 757.361 L1561.41 764.686 L1563.94 771.995 L1566.47 779.288 L1569 786.563 L1571.53 793.819 L1574.06 801.055 L1576.58 808.269 L1579.11 815.46 L1581.64 822.628 
  L1584.17 829.77 L1586.7 836.887 L1589.23 843.976 L1591.75 851.037 L1594.28 858.068 L1596.81 865.069 L1599.34 872.039 L1601.87 878.976 L1604.39 885.88 L1606.92 892.749 
  L1609.45 899.584 L1611.98 906.382 L1614.51 913.143 L1617.04 919.866 L1619.56 926.55 L1622.09 933.195 L1624.62 939.799 L1627.15 946.362 L1629.68 952.883 L1632.21 959.362 
  L1634.73 965.798 L1637.26 972.189 L1639.79 978.536 L1642.32 984.837 L1644.85 991.093 L1647.38 997.302 L1649.9 1003.46 L1652.43 1009.58 L1654.96 1015.65 L1657.49 1021.66 
  L1660.02 1027.63 L1660.02 1423.91 L1657.49 1423.91 L1654.96 1423.91 L1652.43 1423.91 L1649.9 1423.91 L1647.38 1423.91 L1644.85 1423.91 L1642.32 1423.91 L1639.79 1423.91 
  L1637.26 1423.91 L1634.73 1423.91 L1632.21 1423.91 L1629.68 1423.91 L1627.15 1423.91 L1624.62 1423.91 L1622.09 1423.91 L1619.56 1423.91 L1617.04 1423.91 L1614.51 1423.91 
  L1611.98 1423.91 L1609.45 1423.91 L1606.92 1423.91 L1604.39 1423.91 L1601.87 1423.91 L1599.34 1423.91 L1596.81 1423.91 L1594.28 1423.91 L1591.75 1423.91 L1589.23 1423.91 
  L1586.7 1423.91 L1584.17 1423.91 L1581.64 1423.91 L1579.11 1423.91 L1576.58 1423.91 L1574.06 1423.91 L1571.53 1423.91 L1569 1423.91 L1566.47 1423.91 L1563.94 1423.91 
  L1561.41 1423.91 L1558.89 1423.91 L1556.36 1423.91 L1553.83 1423.91 L1551.3 1423.91 L1548.77 1423.91 L1546.25 1423.91 L1543.72 1423.91 L1541.19 1423.91 L1538.66 1423.91 
  L1536.13 1423.91 L1533.6 1423.91 L1531.08 1423.91 L1528.55 1423.91 L1526.02 1423.91 L1523.49 1423.91 L1520.96 1423.91 L1518.43 1423.91 L1515.91 1423.91 L1513.38 1423.91 
  L1510.85 1423.91 L1508.32 1423.91 L1505.79 1423.91 L1503.27 1423.91 L1500.74 1423.91 L1498.21 1423.91 L1495.68 1423.91 L1493.15 1423.91 L1490.62 1423.91 L1488.1 1423.91 
  L1485.57 1423.91 L1483.04 1423.91 L1480.51 1423.91 L1477.98 1423.91 L1475.45 1423.91 L1472.93 1423.91 L1470.4 1423.91 L1467.87 1423.91 L1465.34 1423.91 L1462.81 1423.91 
  L1460.28 1423.91 L1457.76 1423.91 L1455.23 1423.91 L1452.7 1423.91 L1450.17 1423.91 L1447.64 1423.91 L1445.12 1423.91 L1442.59 1423.91 L1440.06 1423.91 L1437.53 1423.91 
  L1435 1423.91 L1432.47 1423.91 L1429.95 1423.91 L1427.42 1423.91 L1424.89 1423.91 L1422.36 1423.91 L1419.83 1423.91 L1417.3 1423.91 L1414.78 1423.91 L1412.25 1423.91 
  L1409.72 1423.91 L1407.19 1423.91 L1404.66 1423.91 L1402.14 1423.91 L1399.61 1423.91 L1397.08 1423.91 L1394.55 1423.91 L1392.02 1423.91 L1389.49 1423.91 L1386.97 1423.91 
  L1384.44 1423.91 L1381.91 1423.91 L1379.38 1423.91 L1376.85 1423.91 L1374.32 1423.91 L1371.8 1423.91 L1369.27 1423.91 L1366.74 1423.91 L1364.21 1423.91 L1361.68 1423.91 
  L1359.16 1423.91 L1356.63 1423.91 L1354.1 1423.91 L1351.57 1423.91 L1349.04 1423.91 L1346.51 1423.91 L1343.99 1423.91 L1341.46 1423.91 L1338.93 1423.91 L1336.4 1423.91 
  L1333.87 1423.91 L1331.34 1423.91 L1328.82 1423.91 L1326.29 1423.91 L1323.76 1423.91 L1321.23 1423.91 L1318.7 1423.91 L1316.17 1423.91 L1313.65 1423.91 L1311.12 1423.91 
  L1308.59 1423.91 L1306.06 1423.91 L1303.53 1423.91 L1301.01 1423.91 L1298.48 1423.91 L1295.95 1423.91 L1293.42 1423.91 L1290.89 1423.91 L1288.36 1423.91 L1285.84 1423.91 
  L1283.31 1423.91 L1280.78 1423.91 L1278.25 1423.91 L1275.72 1423.91 L1273.19 1423.91 L1270.67 1423.91 L1268.14 1423.91 L1265.61 1423.91 L1263.08 1423.91 L1260.55 1423.91 
  L1258.03 1423.91 L1255.5 1423.91 L1252.97 1423.91 L1250.44 1423.91 L1247.91 1423.91 L1245.38 1423.91 L1242.86 1423.91 L1240.33 1423.91 L1237.8 1423.91 L1235.27 1423.91 
  L1232.74 1423.91 L1230.21 1423.91 L1227.69 1423.91 L1225.16 1423.91 L1222.63 1423.91 L1220.1 1423.91 L1217.57 1423.91 L1215.04 1423.91 L1212.52 1423.91 L1209.99 1423.91 
  L1207.46 1423.91 L1204.93 1423.91 L1202.4 1423.91 L1199.88 1423.91 L1197.35 1423.91 L1194.82 1423.91 L1192.29 1423.91 L1189.76 1423.91 L1187.23 1423.91 L1184.71 1423.91 
  L1182.18 1423.91 L1179.65 1423.91 L1177.12 1423.91 L1174.59 1423.91 L1172.06 1423.91 L1169.54 1423.91 L1167.01 1423.91 L1164.48 1423.91 L1161.95 1423.91 L1159.42 1423.91 
  L1156.9 1423.91 L1154.37 1423.91 L1151.84 1423.91 L1149.31 1423.91 L1146.78 1423.91 L1144.25 1423.91 L1141.73 1423.91 L1139.2 1423.91 L1136.67 1423.91 L1134.14 1423.91 
  L1131.61 1423.91 L1129.08 1423.91 L1126.56 1423.91 L1124.03 1423.91 L1121.5 1423.91 L1118.97 1423.91 L1116.44 1423.91 L1113.92 1423.91 L1111.39 1423.91 L1108.86 1423.91 
  L1106.33 1423.91 L1103.8 1423.91 L1101.27 1423.91 L1098.75 1423.91 L1096.22 1423.91 L1093.69 1423.91 L1091.16 1423.91 L1088.63 1423.91 L1086.1 1423.91 L1083.58 1423.91 
  L1081.05 1423.91 L1078.52 1423.91 L1075.99 1423.91 L1073.46 1423.91 L1070.93 1423.91 L1068.41 1423.91 L1065.88 1423.91 L1063.35 1423.91 L1060.82 1423.91 L1058.29 1423.91 
  L1055.77 1423.91 L1053.24 1423.91 L1050.71 1423.91 L1048.18 1423.91 L1045.65 1423.91 L1043.12 1423.91 L1040.6 1423.91 L1038.07 1423.91 L1035.54 1423.91 L1033.01 1423.91 
  L1030.48 1423.91 L1027.95 1423.91 L1025.43 1423.91 L1022.9 1423.91 L1020.37 1423.91 L1017.84 1423.91 L1015.31 1423.91 L1012.79 1423.91 L1010.26 1423.91 L1007.73 1423.91 
  L1005.2 1423.91 L1002.67 1423.91 L1000.14 1423.91 L997.616 1423.91 L995.087 1423.91 L992.559 1423.91 L990.031 1423.91 L987.503 1423.91 L984.975 1423.91 L982.446 1423.91 
  L979.918 1423.91 L977.39 1423.91 L974.862 1423.91 L972.333 1423.91 L969.805 1423.91 L967.277 1423.91 L964.749 1423.91 L962.22 1423.91 L959.692 1423.91 L957.164 1423.91 
  L954.636 1423.91 L952.107 1423.91 L949.579 1423.91 L947.051 1423.91 L944.523 1423.91 L941.994 1423.91 L939.466 1423.91 L936.938 1423.91 L934.41 1423.91 L931.881 1423.91 
  L929.353 1423.91 L926.825 1423.91 L924.297 1423.91 L921.768 1423.91 L919.24 1423.91 L916.712 1423.91 L914.184 1423.91 L911.655 1423.91 L909.127 1423.91 L906.599 1423.91 
  L904.071 1423.91 L901.542 1423.91 L899.014 1423.91 L896.486 1423.91 L893.958 1423.91 L891.429 1423.91 L888.901 1423.91 L886.373 1423.91 L883.845 1423.91 L881.316 1423.91 
  L878.788 1423.91 L876.26 1423.91 L873.732 1423.91 L871.203 1423.91 L868.675 1423.91 L866.147 1423.91 L863.619 1423.91 L861.09 1423.91 L858.562 1423.91 L856.034 1423.91 
  L853.506 1423.91 L850.977 1423.91 L848.449 1423.91 L845.921 1423.91 L843.393 1423.91 L840.864 1423.91 L838.336 1423.91 L835.808 1423.91 L833.28 1423.91 L830.751 1423.91 
  L828.223 1423.91 L825.695 1423.91 L823.167 1423.91 L820.638 1423.91 L818.11 1423.91 L815.582 1423.91 L813.054 1423.91 L810.525 1423.91 L807.997 1423.91 L805.469 1423.91 
  L802.941 1423.91 L800.413 1423.91 L797.884 1423.91 L795.356 1423.91 L792.828 1423.91 L790.3 1423.91 L787.771 1423.91 L785.243 1423.91 L782.715 1423.91 L780.187 1423.91 
  L777.658 1423.91 L775.13 1423.91 L772.602 1423.91 L770.074 1423.91 L767.545 1423.91 L765.017 1423.91 L762.489 1423.91 L759.961 1423.91 L757.432 1423.91 L754.904 1423.91 
  L752.376 1423.91 L749.848 1423.91 L747.319 1423.91 L744.791 1423.91 L742.263 1423.91 L739.735 1423.91 L737.206 1423.91 L734.678 1423.91 L732.15 1423.91 L729.622 1423.91 
  L727.093 1423.91 L724.565 1423.91 L722.037 1423.91 L719.509 1423.91 L716.98 1423.91 L714.452 1423.91 L711.924 1423.91 L709.396 1423.91 L706.867 1423.91 L704.339 1423.91 
  L701.811 1423.91 L699.283 1423.91 L696.754 1423.91 L694.226 1423.91 L691.698 1423.91 L689.17 1423.91 L686.641 1423.91 L684.113 1423.91 L681.585 1423.91 L679.057 1423.91 
  L676.528 1423.91 L674 1423.91 L671.472 1423.91 L668.944 1423.91 L666.415 1423.91 L663.887 1423.91 L661.359 1423.91 L658.831 1423.91 L656.302 1423.91 L653.774 1423.91 
  L651.246 1423.91 L648.718 1423.91 L646.189 1423.91 L643.661 1423.91 L641.133 1423.91 L638.605 1423.91 L636.076 1423.91 L633.548 1423.91 L631.02 1423.91 L628.492 1423.91 
  L625.963 1423.91 L623.435 1423.91 L620.907 1423.91 L618.379 1423.91 L615.851 1423.91 L613.322 1423.91 L610.794 1423.91 L608.266 1423.91 L605.738 1423.91 L603.209 1423.91 
  L600.681 1423.91 L598.153 1423.91 L595.625 1423.91 L593.096 1423.91 L590.568 1423.91 L588.04 1423.91 L585.512 1423.91 L582.983 1423.91 L580.455 1423.91 L577.927 1423.91 
  L575.399 1423.91 L572.87 1423.91 L570.342 1423.91 L567.814 1423.91 L565.286 1423.91 L562.757 1423.91 L560.229 1423.91 L557.701 1423.91 L555.173 1423.91 L552.644 1423.91 
  L550.116 1423.91 L547.588 1423.91 L545.06 1423.91 L542.531 1423.91 L540.003 1423.91 L537.475 1423.91 L534.947 1423.91 L532.418 1423.91 L529.89 1423.91 L527.362 1423.91 
  L524.834 1423.91 L522.305 1423.91 L519.777 1423.91 L517.249 1423.91 L514.721 1423.91 L512.192 1423.91 L509.664 1423.91 L507.136 1423.91 L504.608 1423.91 L502.079 1423.91 
  L499.551 1423.91 L497.023 1423.91 L494.495 1423.91 L491.966 1423.91 L489.438 1423.91 L486.91 1423.91 L484.382 1423.91 L481.853 1423.91 L479.325 1423.91 L476.797 1423.91 
  L474.269 1423.91 L471.74 1423.91 L469.212 1423.91 L466.684 1423.91 L464.156 1423.91 L461.627 1423.91 L459.099 1423.91 L456.571 1423.91 L454.043 1423.91 L451.514 1423.91 
  L448.986 1423.91 L446.458 1423.91 L443.93 1423.91 L441.402 1423.91 L438.873 1423.91 L436.345 1423.91 L433.817 1423.91 L431.289 1423.91 L428.76 1423.91 L426.232 1423.91 
  L423.704 1423.91 L421.176 1423.91 L418.647 1423.91 L416.119 1423.91 L413.591 1423.91 L411.063 1423.91 L408.534 1423.91 L406.006 1423.91 L403.478 1423.91 L400.95 1423.91 
  L398.421 1423.91 L395.893 1423.91 L393.365 1423.91 L390.837 1423.91 L388.308 1423.91 L385.78 1423.91 L383.252 1423.91 L380.724 1423.91 L378.195 1423.91 L375.667 1423.91 
  L373.139 1423.91 L370.611 1423.91 L368.082 1423.91 L365.554 1423.91 L363.026 1423.91 L360.498 1423.91 L357.969 1423.91 L355.441 1423.91 L352.913 1423.91 L350.385 1423.91 
  L347.856 1423.91 L345.328 1423.91 L342.8 1423.91 L340.272 1423.91 L337.743 1423.91 L335.215 1423.91 L332.687 1423.91 L330.159 1423.91 L327.63 1423.91 L325.102 1423.91 
  L322.574 1423.91 L320.046 1423.91 L317.517 1423.91 L314.989 1423.91 L312.461 1423.91 L309.933 1423.91 L307.404 1423.91 L304.876 1423.91 L302.348 1423.91 L299.82 1423.91 
  L297.291 1423.91 L294.763 1423.91 L292.235 1423.91 L289.707 1423.91 L287.178 1423.91 L284.65 1423.91 L282.122 1423.91 L279.594 1423.91 L277.065 1423.91 L274.537 1423.91 
  L272.009 1423.91 L269.481 1423.91  Z
  " fill="#1f78b4" fill-rule="evenodd" fill-opacity="0.5"/>
<polyline clip-path="url(#clip832)" style="stroke:#1f78b4; stroke-linecap:round; stroke-linejoin:round; stroke-width:16; stroke-opacity:1; fill:none" points="
  269.481,1423.5 272.009,1423.48 274.537,1423.47 277.065,1423.45 279.594,1423.43 282.122,1423.41 284.65,1423.39 287.178,1423.37 289.707,1423.35 292.235,1423.32 
  294.763,1423.3 297.291,1423.28 299.82,1423.25 302.348,1423.23 304.876,1423.2 307.404,1423.17 309.933,1423.14 312.461,1423.11 314.989,1423.08 317.517,1423.05 
  320.046,1423.02 322.574,1422.98 325.102,1422.95 327.63,1422.91 330.159,1422.87 332.687,1422.83 335.215,1422.79 337.743,1422.75 340.272,1422.7 342.8,1422.66 
  345.328,1422.61 347.856,1422.56 350.385,1422.51 352.913,1422.46 355.441,1422.4 357.969,1422.35 360.498,1422.29 363.026,1422.23 365.554,1422.17 368.082,1422.1 
  370.611,1422.04 373.139,1421.97 375.667,1421.9 378.195,1421.82 380.724,1421.75 383.252,1421.67 385.78,1421.59 388.308,1421.51 390.837,1421.42 393.365,1421.33 
  395.893,1421.24 398.421,1421.14 400.95,1421.05 403.478,1420.94 406.006,1420.84 408.534,1420.73 411.063,1420.62 413.591,1420.51 416.119,1420.39 418.647,1420.27 
  421.176,1420.14 423.704,1420.01 426.232,1419.87 428.76,1419.74 431.289,1419.59 433.817,1419.45 436.345,1419.29 438.873,1419.14 441.402,1418.98 443.93,1418.81 
  446.458,1418.64 448.986,1418.46 451.514,1418.28 454.043,1418.09 456.571,1417.9 459.099,1417.7 461.627,1417.5 464.156,1417.29 466.684,1417.07 469.212,1416.84 
  471.74,1416.61 474.269,1416.38 476.797,1416.13 479.325,1415.88 481.853,1415.63 484.382,1415.36 486.91,1415.09 489.438,1414.81 491.966,1414.52 494.495,1414.22 
  497.023,1413.91 499.551,1413.6 502.079,1413.28 504.608,1412.94 507.136,1412.6 509.664,1412.25 512.192,1411.89 514.721,1411.52 517.249,1411.14 519.777,1410.75 
  522.305,1410.35 524.834,1409.94 527.362,1409.51 529.89,1409.08 532.418,1408.63 534.947,1408.17 537.475,1407.7 540.003,1407.22 542.531,1406.73 545.06,1406.22 
  547.588,1405.7 550.116,1405.16 552.644,1404.61 555.173,1404.05 557.701,1403.47 560.229,1402.88 562.757,1402.27 565.286,1401.65 567.814,1401.01 570.342,1400.36 
  572.87,1399.69 575.399,1399 577.927,1398.3 580.455,1397.58 582.983,1396.84 585.512,1396.09 588.04,1395.31 590.568,1394.52 593.096,1393.71 595.625,1392.88 
  598.153,1392.03 600.681,1391.15 603.209,1390.26 605.738,1389.35 608.266,1388.42 610.794,1387.46 613.322,1386.49 615.851,1385.49 618.379,1384.46 620.907,1383.42 
  623.435,1382.35 625.963,1381.26 628.492,1380.14 631.02,1379 633.548,1377.83 636.076,1376.64 638.605,1375.42 641.133,1374.18 643.661,1372.9 646.189,1371.61 
  648.718,1370.28 651.246,1368.92 653.774,1367.54 656.302,1366.13 658.831,1364.69 661.359,1363.21 663.887,1361.71 666.415,1360.18 668.944,1358.61 671.472,1357.02 
  674,1355.39 676.528,1353.73 679.057,1352.04 681.585,1350.31 684.113,1348.55 686.641,1346.75 689.17,1344.92 691.698,1343.05 694.226,1341.15 696.754,1339.21 
  699.283,1337.24 701.811,1335.23 704.339,1333.18 706.867,1331.09 709.396,1328.96 711.924,1326.8 714.452,1324.59 716.98,1322.35 719.509,1320.06 722.037,1317.74 
  724.565,1315.37 727.093,1312.96 729.622,1310.51 732.15,1308.02 734.678,1305.48 737.206,1302.9 739.735,1300.28 742.263,1297.61 744.791,1294.9 747.319,1292.14 
  749.848,1289.34 752.376,1286.49 754.904,1283.59 757.432,1280.65 759.961,1277.66 762.489,1274.62 765.017,1271.54 767.545,1268.41 770.074,1265.23 772.602,1262 
  775.13,1258.72 777.658,1255.39 780.187,1252.01 782.715,1248.58 785.243,1245.1 787.771,1241.57 790.3,1237.99 792.828,1234.36 795.356,1230.67 797.884,1226.94 
  800.413,1223.15 802.941,1219.31 805.469,1215.41 807.997,1211.47 810.525,1207.47 813.054,1203.42 815.582,1199.31 818.11,1195.15 820.638,1190.94 823.167,1186.67 
  825.695,1182.35 828.223,1177.98 830.751,1173.55 833.28,1169.06 835.808,1164.52 838.336,1159.93 840.864,1155.29 843.393,1150.58 845.921,1145.83 848.449,1141.02 
  850.977,1136.15 853.506,1131.23 856.034,1126.26 858.562,1121.23 861.09,1116.15 863.619,1111.02 866.147,1105.83 868.675,1100.58 871.203,1095.29 873.732,1089.94 
  876.26,1084.53 878.788,1079.08 881.316,1073.57 883.845,1068 886.373,1062.39 888.901,1056.73 891.429,1051.01 893.958,1045.24 896.486,1039.42 899.014,1033.55 
  901.542,1027.63 904.071,1021.66 906.599,1015.65 909.127,1009.58 911.655,1003.46 914.184,997.302 916.712,991.093 919.24,984.837 921.768,978.536 924.297,972.189 
  926.825,965.798 929.353,959.362 931.881,952.883 934.41,946.362 936.938,939.799 939.466,933.195 941.994,926.55 944.523,919.866 947.051,913.143 949.579,906.382 
  952.107,899.584 954.636,892.749 957.164,885.88 959.692,878.976 962.22,872.039 964.749,865.069 967.277,858.068 969.805,851.037 972.333,843.976 974.862,836.887 
  977.39,829.77 979.918,822.628 982.446,815.46 984.975,808.269 987.503,801.055 990.031,793.819 992.559,786.563 995.087,779.288 997.616,771.995 1000.14,764.686 
  1002.67,757.361 1005.2,750.022 1007.73,742.67 1010.26,735.308 1012.79,727.935 1015.31,720.553 1017.84,713.165 1020.37,705.77 1022.9,698.372 1025.43,690.97 
  1027.95,683.567 1030.48,676.164 1033.01,668.762 1035.54,661.363 1038.07,653.969 1040.6,646.581 1043.12,639.2 1045.65,631.829 1048.18,624.468 1050.71,617.12 
  1053.24,609.785 1055.77,602.466 1058.29,595.164 1060.82,587.88 1063.35,580.617 1065.88,573.376 1068.41,566.159 1070.93,558.967 1073.46,551.801 1075.99,544.665 
  1078.52,537.558 1081.05,530.484 1083.58,523.443 1086.1,516.437 1088.63,509.468 1091.16,502.538 1093.69,495.648 1096.22,488.8 1098.75,481.996 1101.27,475.237 
  1103.8,468.526 1106.33,461.863 1108.86,455.25 1111.39,448.689 1113.92,442.182 1116.44,435.731 1118.97,429.337 1121.5,423.001 1124.03,416.726 1126.56,410.513 
  1129.08,404.363 1131.61,398.279 1134.14,392.261 1136.67,386.312 1139.2,380.433 1141.73,374.626 1144.25,368.891 1146.78,363.232 1149.31,357.649 1151.84,352.143 
  1154.37,346.717 1156.9,341.372 1159.42,336.109 1161.95,330.929 1164.48,325.835 1167.01,320.828 1169.54,315.908 1172.06,311.078 1174.59,306.338 1177.12,301.691 
  1179.65,297.136 1182.18,292.677 1184.71,288.313 1187.23,284.047 1189.76,279.879 1192.29,275.81 1194.82,271.842 1197.35,267.976 1199.88,264.213 1202.4,260.555 
  1204.93,257.001 1207.46,253.554 1209.99,250.213 1212.52,246.981 1215.04,243.858 1217.57,240.845 1220.1,237.943 1222.63,235.153 1225.16,232.475 1227.69,229.911 
  1230.21,227.461 1232.74,225.125 1235.27,222.905 1237.8,220.802 1240.33,218.815 1242.86,216.946 1245.38,215.194 1247.91,213.561 1250.44,212.048 1252.97,210.653 
  1255.5,209.379 1258.03,208.224 1260.55,207.19 1263.08,206.278 1265.61,205.486 1268.14,204.816 1270.67,204.267 1273.19,203.84 1275.72,203.535 1278.25,203.352 
  1280.78,203.291 1283.31,203.352 1285.84,203.535 1288.36,203.84 1290.89,204.267 1293.42,204.816 1295.95,205.486 1298.48,206.278 1301.01,207.19 1303.53,208.224 
  1306.06,209.379 1308.59,210.653 1311.12,212.048 1313.65,213.561 1316.17,215.194 1318.7,216.946 1321.23,218.815 1323.76,220.802 1326.29,222.905 1328.82,225.125 
  1331.34,227.461 1333.87,229.911 1336.4,232.475 1338.93,235.153 1341.46,237.943 1343.99,240.845 1346.51,243.858 1349.04,246.981 1351.57,250.213 1354.1,253.554 
  1356.63,257.001 1359.16,260.555 1361.68,264.213 1364.21,267.976 1366.74,271.842 1369.27,275.81 1371.8,279.879 1374.32,284.047 1376.85,288.313 1379.38,292.677 
  1381.91,297.136 1384.44,301.691 1386.97,306.338 1389.49,311.078 1392.02,315.908 1394.55,320.828 1397.08,325.835 1399.61,330.929 1402.14,336.109 1404.66,341.372 
  1407.19,346.717 1409.72,352.143 1412.25,357.649 1414.78,363.232 1417.3,368.891 1419.83,374.626 1422.36,380.433 1424.89,386.312 1427.42,392.261 1429.95,398.279 
  1432.47,404.363 1435,410.513 1437.53,416.726 1440.06,423.001 1442.59,429.337 1445.12,435.731 1447.64,442.182 1450.17,448.689 1452.7,455.25 1455.23,461.863 
  1457.76,468.526 1460.28,475.237 1462.81,481.996 1465.34,488.8 1467.87,495.648 1470.4,502.538 1472.93,509.468 1475.45,516.437 1477.98,523.443 1480.51,530.484 
  1483.04,537.558 1485.57,544.665 1488.1,551.801 1490.62,558.967 1493.15,566.159 1495.68,573.376 1498.21,580.617 1500.74,587.88 1503.27,595.164 1505.79,602.466 
  1508.32,609.785 1510.85,617.12 1513.38,624.468 1515.91,631.829 1518.43,639.2 1520.96,646.581 1523.49,653.969 1526.02,661.363 1528.55,668.762 1531.08,676.164 
  1533.6,683.567 1536.13,690.97 1538.66,698.372 1541.19,705.77 1543.72,713.165 1546.25,720.553 1548.77,727.935 1551.3,735.308 1553.83,742.67 1556.36,750.022 
  1558.89,757.361 1561.41,764.686 1563.94,771.995 1566.47,779.288 1569,786.563 1571.53,793.819 1574.06,801.055 1576.58,808.269 1579.11,815.46 1581.64,822.628 
  1584.17,829.77 1586.7,836.887 1589.23,843.976 1591.75,851.037 1594.28,858.068 1596.81,865.069 1599.34,872.039 1601.87,878.976 1604.39,885.88 1606.92,892.749 
  1609.45,899.584 1611.98,906.382 1614.51,913.143 1617.04,919.866 1619.56,926.55 1622.09,933.195 1624.62,939.799 1627.15,946.362 1629.68,952.883 1632.21,959.362 
  1634.73,965.798 1637.26,972.189 1639.79,978.536 1642.32,984.837 1644.85,991.093 1647.38,997.302 1649.9,1003.46 1652.43,1009.58 1654.96,1015.65 1657.49,1021.66 
  1660.02,1027.63 
  "/>
<polyline clip-path="url(#clip832)" style="stroke:#1f78b4; stroke-linecap:round; stroke-linejoin:round; stroke-width:16; stroke-opacity:1; fill:none" points="
  269.481,1423.5 272.009,1423.48 274.537,1423.47 277.065,1423.45 279.594,1423.43 282.122,1423.41 284.65,1423.39 287.178,1423.37 289.707,1423.35 292.235,1423.32 
  294.763,1423.3 297.291,1423.28 299.82,1423.25 302.348,1423.23 304.876,1423.2 307.404,1423.17 309.933,1423.14 312.461,1423.11 314.989,1423.08 317.517,1423.05 
  320.046,1423.02 322.574,1422.98 325.102,1422.95 327.63,1422.91 330.159,1422.87 332.687,1422.83 335.215,1422.79 337.743,1422.75 340.272,1422.7 342.8,1422.66 
  345.328,1422.61 347.856,1422.56 350.385,1422.51 352.913,1422.46 355.441,1422.4 357.969,1422.35 360.498,1422.29 363.026,1422.23 365.554,1422.17 368.082,1422.1 
  370.611,1422.04 373.139,1421.97 375.667,1421.9 378.195,1421.82 380.724,1421.75 383.252,1421.67 385.78,1421.59 388.308,1421.51 390.837,1421.42 393.365,1421.33 
  395.893,1421.24 398.421,1421.14 400.95,1421.05 403.478,1420.94 406.006,1420.84 408.534,1420.73 411.063,1420.62 413.591,1420.51 416.119,1420.39 418.647,1420.27 
  421.176,1420.14 423.704,1420.01 426.232,1419.87 428.76,1419.74 431.289,1419.59 433.817,1419.45 436.345,1419.29 438.873,1419.14 441.402,1418.98 443.93,1418.81 
  446.458,1418.64 448.986,1418.46 451.514,1418.28 454.043,1418.09 456.571,1417.9 459.099,1417.7 461.627,1417.5 464.156,1417.29 466.684,1417.07 469.212,1416.84 
  471.74,1416.61 474.269,1416.38 476.797,1416.13 479.325,1415.88 481.853,1415.63 484.382,1415.36 486.91,1415.09 489.438,1414.81 491.966,1414.52 494.495,1414.22 
  497.023,1413.91 499.551,1413.6 502.079,1413.28 504.608,1412.94 507.136,1412.6 509.664,1412.25 512.192,1411.89 514.721,1411.52 517.249,1411.14 519.777,1410.75 
  522.305,1410.35 524.834,1409.94 527.362,1409.51 529.89,1409.08 532.418,1408.63 534.947,1408.17 537.475,1407.7 540.003,1407.22 542.531,1406.73 545.06,1406.22 
  547.588,1405.7 550.116,1405.16 552.644,1404.61 555.173,1404.05 557.701,1403.47 560.229,1402.88 562.757,1402.27 565.286,1401.65 567.814,1401.01 570.342,1400.36 
  572.87,1399.69 575.399,1399 577.927,1398.3 580.455,1397.58 582.983,1396.84 585.512,1396.09 588.04,1395.31 590.568,1394.52 593.096,1393.71 595.625,1392.88 
  598.153,1392.03 600.681,1391.15 603.209,1390.26 605.738,1389.35 608.266,1388.42 610.794,1387.46 613.322,1386.49 615.851,1385.49 618.379,1384.46 620.907,1383.42 
  623.435,1382.35 625.963,1381.26 628.492,1380.14 631.02,1379 633.548,1377.83 636.076,1376.64 638.605,1375.42 641.133,1374.18 643.661,1372.9 646.189,1371.61 
  648.718,1370.28 651.246,1368.92 653.774,1367.54 656.302,1366.13 658.831,1364.69 661.359,1363.21 663.887,1361.71 666.415,1360.18 668.944,1358.61 671.472,1357.02 
  674,1355.39 676.528,1353.73 679.057,1352.04 681.585,1350.31 684.113,1348.55 686.641,1346.75 689.17,1344.92 691.698,1343.05 694.226,1341.15 696.754,1339.21 
  699.283,1337.24 701.811,1335.23 704.339,1333.18 706.867,1331.09 709.396,1328.96 711.924,1326.8 714.452,1324.59 716.98,1322.35 719.509,1320.06 722.037,1317.74 
  724.565,1315.37 727.093,1312.96 729.622,1310.51 732.15,1308.02 734.678,1305.48 737.206,1302.9 739.735,1300.28 742.263,1297.61 744.791,1294.9 747.319,1292.14 
  749.848,1289.34 752.376,1286.49 754.904,1283.59 757.432,1280.65 759.961,1277.66 762.489,1274.62 765.017,1271.54 767.545,1268.41 770.074,1265.23 772.602,1262 
  775.13,1258.72 777.658,1255.39 780.187,1252.01 782.715,1248.58 785.243,1245.1 787.771,1241.57 790.3,1237.99 792.828,1234.36 795.356,1230.67 797.884,1226.94 
  800.413,1223.15 802.941,1219.31 805.469,1215.41 807.997,1211.47 810.525,1207.47 813.054,1203.42 815.582,1199.31 818.11,1195.15 820.638,1190.94 823.167,1186.67 
  825.695,1182.35 828.223,1177.98 830.751,1173.55 833.28,1169.06 835.808,1164.52 838.336,1159.93 840.864,1155.29 843.393,1150.58 845.921,1145.83 848.449,1141.02 
  850.977,1136.15 853.506,1131.23 856.034,1126.26 858.562,1121.23 861.09,1116.15 863.619,1111.02 866.147,1105.83 868.675,1100.58 871.203,1095.29 873.732,1089.94 
  876.26,1084.53 878.788,1079.08 881.316,1073.57 883.845,1068 886.373,1062.39 888.901,1056.73 891.429,1051.01 893.958,1045.24 896.486,1039.42 899.014,1033.55 
  901.542,1027.63 904.071,1021.66 906.599,1015.65 909.127,1009.58 911.655,1003.46 914.184,997.302 916.712,991.093 919.24,984.837 921.768,978.536 924.297,972.189 
  926.825,965.798 929.353,959.362 931.881,952.883 934.41,946.362 936.938,939.799 939.466,933.195 941.994,926.55 944.523,919.866 947.051,913.143 949.579,906.382 
  952.107,899.584 954.636,892.749 957.164,885.88 959.692,878.976 962.22,872.039 964.749,865.069 967.277,858.068 969.805,851.037 972.333,843.976 974.862,836.887 
  977.39,829.77 979.918,822.628 982.446,815.46 984.975,808.269 987.503,801.055 990.031,793.819 992.559,786.563 995.087,779.288 997.616,771.995 1000.14,764.686 
  1002.67,757.361 1005.2,750.022 1007.73,742.67 1010.26,735.308 1012.79,727.935 1015.31,720.553 1017.84,713.165 1020.37,705.77 1022.9,698.372 1025.43,690.97 
  1027.95,683.567 1030.48,676.164 1033.01,668.762 1035.54,661.363 1038.07,653.969 1040.6,646.581 1043.12,639.2 1045.65,631.829 1048.18,624.468 1050.71,617.12 
  1053.24,609.785 1055.77,602.466 1058.29,595.164 1060.82,587.88 1063.35,580.617 1065.88,573.376 1068.41,566.159 1070.93,558.967 1073.46,551.801 1075.99,544.665 
  1078.52,537.558 1081.05,530.484 1083.58,523.443 1086.1,516.437 1088.63,509.468 1091.16,502.538 1093.69,495.648 1096.22,488.8 1098.75,481.996 1101.27,475.237 
  1103.8,468.526 1106.33,461.863 1108.86,455.25 1111.39,448.689 1113.92,442.182 1116.44,435.731 1118.97,429.337 1121.5,423.001 1124.03,416.726 1126.56,410.513 
  1129.08,404.363 1131.61,398.279 1134.14,392.261 1136.67,386.312 1139.2,380.433 1141.73,374.626 1144.25,368.891 1146.78,363.232 1149.31,357.649 1151.84,352.143 
  1154.37,346.717 1156.9,341.372 1159.42,336.109 1161.95,330.929 1164.48,325.835 1167.01,320.828 1169.54,315.908 1172.06,311.078 1174.59,306.338 1177.12,301.691 
  1179.65,297.136 1182.18,292.677 1184.71,288.313 1187.23,284.047 1189.76,279.879 1192.29,275.81 1194.82,271.842 1197.35,267.976 1199.88,264.213 1202.4,260.555 
  1204.93,257.001 1207.46,253.554 1209.99,250.213 1212.52,246.981 1215.04,243.858 1217.57,240.845 1220.1,237.943 1222.63,235.153 1225.16,232.475 1227.69,229.911 
  1230.21,227.461 1232.74,225.125 1235.27,222.905 1237.8,220.802 1240.33,218.815 1242.86,216.946 1245.38,215.194 1247.91,213.561 1250.44,212.048 1252.97,210.653 
  1255.5,209.379 1258.03,208.224 1260.55,207.19 1263.08,206.278 1265.61,205.486 1268.14,204.816 1270.67,204.267 1273.19,203.84 1275.72,203.535 1278.25,203.352 
  1280.78,203.291 1283.31,203.352 1285.84,203.535 1288.36,203.84 1290.89,204.267 1293.42,204.816 1295.95,205.486 1298.48,206.278 1301.01,207.19 1303.53,208.224 
  1306.06,209.379 1308.59,210.653 1311.12,212.048 1313.65,213.561 1316.17,215.194 1318.7,216.946 1321.23,218.815 1323.76,220.802 1326.29,222.905 1328.82,225.125 
  1331.34,227.461 1333.87,229.911 1336.4,232.475 1338.93,235.153 1341.46,237.943 1343.99,240.845 1346.51,243.858 1349.04,246.981 1351.57,250.213 1354.1,253.554 
  1356.63,257.001 1359.16,260.555 1361.68,264.213 1364.21,267.976 1366.74,271.842 1369.27,275.81 1371.8,279.879 1374.32,284.047 1376.85,288.313 1379.38,292.677 
  1381.91,297.136 1384.44,301.691 1386.97,306.338 1389.49,311.078 1392.02,315.908 1394.55,320.828 1397.08,325.835 1399.61,330.929 1402.14,336.109 1404.66,341.372 
  1407.19,346.717 1409.72,352.143 1412.25,357.649 1414.78,363.232 1417.3,368.891 1419.83,374.626 1422.36,380.433 1424.89,386.312 1427.42,392.261 1429.95,398.279 
  1432.47,404.363 1435,410.513 1437.53,416.726 1440.06,423.001 1442.59,429.337 1445.12,435.731 1447.64,442.182 1450.17,448.689 1452.7,455.25 1455.23,461.863 
  1457.76,468.526 1460.28,475.237 1462.81,481.996 1465.34,488.8 1467.87,495.648 1470.4,502.538 1472.93,509.468 1475.45,516.437 1477.98,523.443 1480.51,530.484 
  1483.04,537.558 1485.57,544.665 1488.1,551.801 1490.62,558.967 1493.15,566.159 1495.68,573.376 1498.21,580.617 1500.74,587.88 1503.27,595.164 1505.79,602.466 
  1508.32,609.785 1510.85,617.12 1513.38,624.468 1515.91,631.829 1518.43,639.2 1520.96,646.581 1523.49,653.969 1526.02,661.363 1528.55,668.762 1531.08,676.164 
  1533.6,683.567 1536.13,690.97 1538.66,698.372 1541.19,705.77 1543.72,713.165 1546.25,720.553 1548.77,727.935 1551.3,735.308 1553.83,742.67 1556.36,750.022 
  1558.89,757.361 1561.41,764.686 1563.94,771.995 1566.47,779.288 1569,786.563 1571.53,793.819 1574.06,801.055 1576.58,808.269 1579.11,815.46 1581.64,822.628 
  1584.17,829.77 1586.7,836.887 1589.23,843.976 1591.75,851.037 1594.28,858.068 1596.81,865.069 1599.34,872.039 1601.87,878.976 1604.39,885.88 1606.92,892.749 
  1609.45,899.584 1611.98,906.382 1614.51,913.143 1617.04,919.866 1619.56,926.55 1622.09,933.195 1624.62,939.799 1627.15,946.362 1629.68,952.883 1632.21,959.362 
  1634.73,965.798 1637.26,972.189 1639.79,978.536 1642.32,984.837 1644.85,991.093 1647.38,997.302 1649.9,1003.46 1652.43,1009.58 1654.96,1015.65 1657.49,1021.66 
  1660.02,1027.63 1662.54,1033.55 1665.07,1039.42 1667.6,1045.24 1670.13,1051.01 1672.66,1056.73 1675.19,1062.39 1677.71,1068 1680.24,1073.57 1682.77,1079.08 
  1685.3,1084.53 1687.83,1089.94 1690.36,1095.29 1692.88,1100.58 1695.41,1105.83 1697.94,1111.02 1700.47,1116.15 1703,1121.23 1705.52,1126.26 1708.05,1131.23 
  1710.58,1136.15 1713.11,1141.02 1715.64,1145.83 1718.17,1150.58 1720.69,1155.29 1723.22,1159.93 1725.75,1164.52 1728.28,1169.06 1730.81,1173.55 1733.34,1177.98 
  1735.86,1182.35 1738.39,1186.67 1740.92,1190.94 1743.45,1195.15 1745.98,1199.31 1748.5,1203.42 1751.03,1207.47 1753.56,1211.47 1756.09,1215.41 1758.62,1219.31 
  1761.15,1223.15 1763.67,1226.94 1766.2,1230.67 1768.73,1234.36 1771.26,1237.99 1773.79,1241.57 1776.32,1245.1 1778.84,1248.58 1781.37,1252.01 1783.9,1255.39 
  1786.43,1258.72 1788.96,1262 1791.49,1265.23 1794.01,1268.41 1796.54,1271.54 1799.07,1274.62 1801.6,1277.66 1804.13,1280.65 1806.65,1283.59 1809.18,1286.49 
  1811.71,1289.34 1814.24,1292.14 1816.77,1294.9 1819.3,1297.61 1821.82,1300.28 1824.35,1302.9 1826.88,1305.48 1829.41,1308.02 1831.94,1310.51 1834.47,1312.96 
  1836.99,1315.37 1839.52,1317.74 1842.05,1320.06 1844.58,1322.35 1847.11,1324.59 1849.63,1326.8 1852.16,1328.96 1854.69,1331.09 1857.22,1333.18 1859.75,1335.23 
  1862.28,1337.24 1864.8,1339.21 1867.33,1341.15 1869.86,1343.05 1872.39,1344.92 1874.92,1346.75 1877.45,1348.55 1879.97,1350.31 1882.5,1352.04 1885.03,1353.73 
  1887.56,1355.39 1890.09,1357.02 1892.62,1358.61 1895.14,1360.18 1897.67,1361.71 1900.2,1363.21 1902.73,1364.69 1905.26,1366.13 1907.78,1367.54 1910.31,1368.92 
  1912.84,1370.28 1915.37,1371.61 1917.9,1372.9 1920.43,1374.18 1922.95,1375.42 1925.48,1376.64 1928.01,1377.83 1930.54,1379 1933.07,1380.14 1935.6,1381.26 
  1938.12,1382.35 1940.65,1383.42 1943.18,1384.46 1945.71,1385.49 1948.24,1386.49 1950.76,1387.46 1953.29,1388.42 1955.82,1389.35 1958.35,1390.26 1960.88,1391.15 
  1963.41,1392.03 1965.93,1392.88 1968.46,1393.71 1970.99,1394.52 1973.52,1395.31 1976.05,1396.09 1978.58,1396.84 1981.1,1397.58 1983.63,1398.3 1986.16,1399 
  1988.69,1399.69 1991.22,1400.36 1993.74,1401.01 1996.27,1401.65 1998.8,1402.27 2001.33,1402.88 2003.86,1403.47 2006.39,1404.05 2008.91,1404.61 2011.44,1405.16 
  2013.97,1405.7 2016.5,1406.22 2019.03,1406.73 2021.56,1407.22 2024.08,1407.7 2026.61,1408.17 2029.14,1408.63 2031.67,1409.08 2034.2,1409.51 2036.73,1409.94 
  2039.25,1410.35 2041.78,1410.75 2044.31,1411.14 2046.84,1411.52 2049.37,1411.89 2051.89,1412.25 2054.42,1412.6 2056.95,1412.94 2059.48,1413.28 2062.01,1413.6 
  2064.54,1413.91 2067.06,1414.22 2069.59,1414.52 2072.12,1414.81 2074.65,1415.09 2077.18,1415.36 2079.71,1415.63 2082.23,1415.88 2084.76,1416.13 2087.29,1416.38 
  2089.82,1416.61 2092.35,1416.84 2094.87,1417.07 2097.4,1417.29 2099.93,1417.5 2102.46,1417.7 2104.99,1417.9 2107.52,1418.09 2110.04,1418.28 2112.57,1418.46 
  2115.1,1418.64 2117.63,1418.81 2120.16,1418.98 2122.69,1419.14 2125.21,1419.29 2127.74,1419.45 2130.27,1419.59 2132.8,1419.74 2135.33,1419.87 2137.85,1420.01 
  2140.38,1420.14 2142.91,1420.27 2145.44,1420.39 2147.97,1420.51 2150.5,1420.62 2153.02,1420.73 2155.55,1420.84 2158.08,1420.94 2160.61,1421.05 2163.14,1421.14 
  2165.67,1421.24 2168.19,1421.33 2170.72,1421.42 2173.25,1421.51 2175.78,1421.59 2178.31,1421.67 2180.84,1421.75 2183.36,1421.82 2185.89,1421.9 2188.42,1421.97 
  2190.95,1422.04 2193.48,1422.1 2196,1422.17 2198.53,1422.23 2201.06,1422.29 2203.59,1422.35 2206.12,1422.4 2208.65,1422.46 2211.17,1422.51 2213.7,1422.56 
  2216.23,1422.61 2218.76,1422.66 2221.29,1422.7 2223.82,1422.75 2226.34,1422.79 2228.87,1422.83 2231.4,1422.87 2233.93,1422.91 2236.46,1422.95 2238.98,1422.98 
  2241.51,1423.02 2244.04,1423.05 2246.57,1423.08 2249.1,1423.11 2251.63,1423.14 2254.15,1423.17 2256.68,1423.2 2259.21,1423.23 2261.74,1423.25 2264.27,1423.28 
  2266.8,1423.3 2269.32,1423.32 2271.85,1423.35 2274.38,1423.37 2276.91,1423.39 2279.44,1423.41 2281.97,1423.43 2284.49,1423.45 2287.02,1423.47 2289.55,1423.48 
  2292.08,1423.5 
  "/>
<polyline clip-path="url(#clip832)" style="stroke:#000000; stroke-linecap:round; stroke-linejoin:round; stroke-width:8; stroke-opacity:1; fill:none" points="
  787.771,827.28 1280.78,1117.95 
  "/>
<polyline clip-path="url(#clip832)" style="stroke:#000000; stroke-linecap:round; stroke-linejoin:round; stroke-width:8; stroke-opacity:1; fill:none" points="
  1258.91,1084.16 1280.78,1117.95 1240.63,1115.17 
  "/>
<polyline clip-path="url(#clip832)" style="stroke:#000000; stroke-linecap:round; stroke-linejoin:round; stroke-width:8; stroke-opacity:1; fill:none" points="
  1280.78,1117.95 787.771,827.28 
  "/>
<path clip-path="url(#clip830)" d="M1680.91 1498.63 Q1680.91 1499.04 1679.92 1500.8 Q1678.98 1502.5 1675.52 1506.77 Q1672.07 1511.05 1666.92 1516.02 Q1664.98 1517.96 1662.06 1520.65 Q1659.13 1523.34 1657.14 1525.1 L1655.15 1526.86 Q1647.53 1533.3 1640.86 1540.5 Q1641.33 1540.33 1642.15 1540.27 Q1642.97 1540.15 1643.55 1540.15 L1644.14 1540.15 Q1647.18 1540.15 1652.51 1542.2 Q1657.2 1543.72 1659.6 1543.72 Q1661.94 1543.72 1664.52 1542.9 Q1667.09 1542.08 1669.9 1539.68 Q1672.71 1537.28 1674 1533.65 Q1674.24 1533.06 1674.35 1532.89 Q1674.47 1532.65 1674.82 1532.42 Q1675.17 1532.13 1675.64 1532.13 Q1676.28 1532.13 1676.69 1532.48 Q1677.1 1532.83 1677.1 1533.3 Q1677.1 1534.35 1676.28 1536.46 Q1675.52 1538.57 1673.83 1541.2 Q1672.19 1543.84 1670.02 1546.24 Q1667.91 1548.58 1664.75 1550.22 Q1661.59 1551.8 1658.25 1551.8 Q1655.85 1551.8 1654.09 1550.63 Q1652.34 1549.52 1650.58 1547.35 Q1648.18 1544.6 1646.89 1543.72 Q1645.6 1542.78 1643.61 1542.78 Q1638.28 1542.78 1633.42 1550.22 Q1632.89 1551.28 1632.54 1551.51 Q1632.25 1551.8 1631.55 1551.8 Q1630.08 1551.74 1630.08 1550.57 Q1630.08 1550.1 1631.37 1548.05 Q1632.72 1545.95 1635.71 1542.26 Q1638.75 1538.57 1642.44 1534.88 L1653.21 1524.81 Q1665.16 1514.74 1669.9 1509.06 Q1667.91 1509.06 1667.03 1509 Q1666.21 1508.94 1664.57 1508.59 Q1662.93 1508.18 1660.65 1507.3 Q1655.32 1505.48 1653.1 1505.48 Q1652.51 1505.48 1651.87 1505.54 Q1651.22 1505.6 1649.76 1505.89 Q1648.35 1506.19 1647.18 1506.77 Q1646.01 1507.3 1644.78 1508.47 Q1643.55 1509.58 1642.91 1511.11 Q1642.73 1511.57 1642.62 1511.81 Q1642.5 1512.04 1642.15 1512.28 Q1641.85 1512.45 1641.39 1512.45 Q1640.68 1512.45 1640.27 1512.04 Q1639.92 1511.63 1639.92 1511.11 Q1639.92 1510.05 1640.98 1507.89 Q1642.03 1505.72 1643.79 1503.38 Q1645.54 1500.98 1648.41 1499.22 Q1651.28 1497.46 1654.44 1497.46 Q1656.32 1497.46 1657.9 1498.28 Q1659.54 1499.1 1660.36 1499.98 Q1661.24 1500.8 1662.7 1502.62 Q1663.93 1504.02 1664.52 1504.61 Q1665.1 1505.19 1666.27 1505.84 Q1667.5 1506.42 1668.85 1506.42 Q1671.07 1506.42 1673.12 1504.72 Q1675.17 1502.97 1677.81 1498.75 Q1678.51 1497.46 1679.62 1497.46 Q1680.91 1497.46 1680.91 1498.63 Z" fill="#000000" fill-rule="evenodd" fill-opacity="1" /><path clip-path="url(#clip830)" d="M452.852 784.679 Q452.852 789.925 448.964 794.75 Q445.123 799.575 438.845 802.527 Q432.615 805.431 425.916 805.431 L409.614 805.431 L403.665 829.416 Q403.618 829.556 403.478 830.165 Q403.337 830.727 403.337 831.055 Q403.337 832.226 404.789 832.507 Q406.288 832.788 409.614 832.788 Q411.769 832.788 412.097 833.163 Q412.284 833.397 412.284 833.819 Q412.284 834.475 412.097 834.943 Q411.91 835.365 411.535 835.505 Q411.207 835.646 410.973 835.693 Q410.739 835.74 410.364 835.74 Q409.38 835.74 407.272 835.646 Q405.211 835.552 404.133 835.552 L397.997 835.459 L385.817 835.74 Q384.365 835.74 384.365 834.569 Q384.365 833.679 384.74 833.304 Q385.114 832.882 385.536 832.835 Q385.958 832.788 387.035 832.788 Q389.377 832.788 390.783 832.648 Q392.188 832.507 393.078 832.32 Q394.015 832.086 394.483 831.43 Q394.999 830.774 395.233 830.212 Q395.467 829.603 395.795 828.245 L408.63 776.715 Q409.005 775.169 409.005 774.935 Q409.005 774.139 408.537 773.858 Q408.115 773.53 406.897 773.389 Q404.555 773.202 402.775 773.202 Q401.604 773.202 401.135 773.155 Q400.714 773.108 400.339 772.874 Q400.011 772.593 400.011 772.031 Q400.011 771.141 400.386 770.766 Q400.807 770.344 401.276 770.297 Q401.744 770.204 402.869 770.204 L433.974 770.204 Q442.921 770.204 447.887 774.467 Q452.852 778.729 452.852 784.679 M443.952 782.383 Q443.952 773.202 430.882 773.202 L421.7 773.202 Q418.655 773.202 417.906 773.764 Q417.156 774.279 416.5 776.856 L409.989 802.948 L423.527 802.948 Q432.615 802.948 438.283 797.842 Q440.86 795.5 442.406 790.628 Q443.952 785.756 443.952 782.383 Z" fill="#000000" fill-rule="evenodd" fill-opacity="1" /><path clip-path="url(#clip830)" d="M463.375 811.755 Q463.375 795.547 469.418 782.477 Q471.994 776.996 475.602 772.405 Q479.209 767.815 481.598 765.8 Q483.987 763.786 484.643 763.786 Q485.579 763.786 485.626 764.723 Q485.626 765.191 484.362 766.362 Q468.903 782.102 468.95 811.755 Q468.95 841.502 483.987 856.633 Q485.626 858.272 485.626 858.787 Q485.626 859.724 484.643 859.724 Q483.987 859.724 481.691 857.804 Q479.396 855.883 475.836 851.48 Q472.276 847.076 469.699 841.689 Q463.375 828.619 463.375 811.755 Z" fill="#000000" fill-rule="evenodd" fill-opacity="1" /><path clip-path="url(#clip830)" d="M560.175 771.094 Q560.175 771.375 559.894 772.499 L506.256 832.461 L522.652 832.461 Q527.477 832.461 531.131 831.617 Q534.785 830.727 537.315 829.228 Q539.844 827.729 541.812 825.153 Q543.826 822.529 545.138 819.672 Q546.449 816.768 547.808 812.505 Q548.323 810.865 548.557 810.49 Q548.792 810.116 549.401 810.116 Q550.01 810.116 550.337 810.49 Q550.665 810.818 550.665 811.193 Q550.665 811.38 550.572 811.661 Q550.525 811.896 550.431 812.177 Q550.337 812.458 550.291 812.598 L543.451 833.819 Q543.03 835.178 542.608 835.459 Q542.186 835.74 540.5 835.74 L498.761 835.74 Q497.309 835.74 496.841 835.646 Q496.372 835.505 496.372 834.896 L496.747 833.163 L550.384 773.202 L534.738 773.202 Q530.335 773.202 526.868 773.998 Q523.448 774.748 521.013 776.153 Q518.577 777.511 516.703 779.807 Q514.829 782.055 513.564 784.679 Q512.299 787.255 511.128 790.862 L510.988 791.097 Q510.847 791.331 510.754 791.471 Q510.66 791.565 510.426 791.705 Q510.191 791.799 509.91 791.799 Q509.395 791.799 509.067 791.518 Q508.786 791.237 508.786 790.956 L508.739 790.722 Q508.833 789.879 509.02 789.41 L514.314 772.124 Q514.735 770.766 515.157 770.485 Q515.579 770.204 517.265 770.204 L557.786 770.204 Q559.285 770.204 559.706 770.344 Q560.175 770.485 560.175 771.094 Z" fill="#000000" fill-rule="evenodd" fill-opacity="1" /><path clip-path="url(#clip830)" d="M646.823 828.526 Q647.901 829.041 647.947 830.118 Q647.994 831.196 647.104 831.852 Q646.214 832.507 645.09 831.992 L589.344 805.618 Q588.126 805.056 588.126 803.698 Q588.126 802.339 589.344 801.777 L645.09 775.403 Q646.214 774.888 647.104 775.544 Q647.994 776.2 647.947 777.277 Q647.901 778.355 646.823 778.87 L594.263 803.698 L646.823 828.526 M647.338 843.891 Q647.901 844.453 647.901 845.249 Q647.901 846.046 647.338 846.608 Q646.776 847.17 645.98 847.17 L589.766 847.17 Q588.97 847.17 588.408 846.608 Q587.845 846.046 587.845 845.249 Q587.845 844.453 588.408 843.891 Q588.97 843.329 589.766 843.329 L645.98 843.329 Q646.776 843.329 647.338 843.891 Z" fill="#000000" fill-rule="evenodd" fill-opacity="1" /><path clip-path="url(#clip830)" d="M729.027 794.282 Q729.027 794.61 728.231 796.015 Q727.481 797.374 724.717 800.793 Q721.953 804.213 717.831 808.195 Q716.285 809.741 713.943 811.896 Q711.601 814.051 710.008 815.456 L708.415 816.861 Q702.325 822.014 696.985 827.776 Q697.36 827.636 698.016 827.589 Q698.671 827.495 699.14 827.495 L699.608 827.495 Q702.044 827.495 706.307 829.135 Q710.055 830.353 711.975 830.353 Q713.849 830.353 715.91 829.697 Q717.971 829.041 720.22 827.12 Q722.469 825.2 723.499 822.295 Q723.687 821.827 723.78 821.686 Q723.874 821.499 724.155 821.311 Q724.436 821.077 724.811 821.077 Q725.326 821.077 725.654 821.358 Q725.982 821.639 725.982 822.014 Q725.982 822.857 725.326 824.544 Q724.717 826.23 723.359 828.338 Q722.047 830.446 720.314 832.367 Q718.627 834.241 716.098 835.552 Q713.568 836.817 710.898 836.817 Q708.977 836.817 707.572 835.88 Q706.167 834.99 704.761 833.257 Q702.841 831.055 701.81 830.353 Q700.779 829.603 699.187 829.603 Q694.924 829.603 691.036 835.552 Q690.614 836.396 690.333 836.583 Q690.099 836.817 689.537 836.817 Q688.366 836.77 688.366 835.833 Q688.366 835.459 689.396 833.819 Q690.474 832.133 692.863 829.181 Q695.299 826.23 698.25 823.279 L706.869 815.222 Q716.426 807.164 720.22 802.62 Q718.627 802.62 717.925 802.574 Q717.269 802.527 715.957 802.246 Q714.645 801.918 712.819 801.215 Q708.556 799.763 706.776 799.763 Q706.307 799.763 705.792 799.81 Q705.277 799.857 704.105 800.091 Q702.981 800.325 702.044 800.793 Q701.107 801.215 700.124 802.152 Q699.14 803.042 698.625 804.26 Q698.484 804.635 698.39 804.822 Q698.297 805.009 698.016 805.197 Q697.781 805.337 697.407 805.337 Q696.844 805.337 696.517 805.009 Q696.235 804.682 696.235 804.26 Q696.235 803.417 697.079 801.683 Q697.922 799.95 699.327 798.076 Q700.733 796.156 703.028 794.75 Q705.323 793.345 707.853 793.345 Q709.352 793.345 710.617 794.001 Q711.928 794.657 712.584 795.359 Q713.287 796.015 714.458 797.467 Q715.442 798.592 715.91 799.06 Q716.379 799.529 717.316 800.044 Q718.299 800.512 719.377 800.512 Q721.157 800.512 722.797 799.154 Q724.436 797.748 726.544 794.376 Q727.106 793.345 727.996 793.345 Q729.027 793.345 729.027 794.282 Z" fill="#000000" fill-rule="evenodd" fill-opacity="1" /><path clip-path="url(#clip830)" d="M738.293 858.787 Q738.293 858.319 739.511 857.148 Q754.97 841.408 754.97 811.755 Q754.97 782.009 740.12 766.971 Q738.293 765.238 738.293 764.723 Q738.293 763.786 739.23 763.786 Q739.886 763.786 742.181 765.707 Q744.523 767.627 748.037 772.031 Q751.597 776.434 754.22 781.821 Q760.544 794.891 760.544 811.755 Q760.544 827.963 754.501 841.033 Q751.925 846.514 748.318 851.105 Q744.711 855.696 742.322 857.71 Q739.933 859.724 739.23 859.724 Q738.293 859.724 738.293 858.787 Z" fill="#000000" fill-rule="evenodd" fill-opacity="1" /></svg>
