<?xml version="1.0" encoding="utf-8"?>
<svg xmlns="http://www.w3.org/2000/svg" xmlns:xlink="http://www.w3.org/1999/xlink" width="600" height="400" viewBox="0 0 2400 1600">
<defs>
  <clipPath id="clip060">
    <rect x="0" y="0" width="2400" height="1600"/>
  </clipPath>
</defs>
<path clip-path="url(#clip060)" d="M0 1600 L2400 1600 L2400 0 L0 0  Z" fill="#ffffff" fill-rule="evenodd" fill-opacity="1"/>
<defs>
  <clipPath id="clip061">
    <rect x="480" y="0" width="1681" height="1600"/>
  </clipPath>
</defs>
<defs>
  <clipPath id="clip062">
    <rect x="270" y="229" width="2020" height="1143"/>
  </clipPath>
</defs>
<path clip-path="url(#clip060)" d="M270.944 1371.62 L2289.76 1371.62 L2289.76 229.664 L270.944 229.664  Z" fill="#ffffff" fill-rule="evenodd" fill-opacity="1"/>
<polyline clip-path="url(#clip060)" style="stroke:#000000; stroke-linecap:round; stroke-linejoin:round; stroke-width:4; stroke-opacity:1; fill:none" points="270.944,1371.62 2289.76,1371.62 "/>
<polyline clip-path="url(#clip060)" style="stroke:#000000; stroke-linecap:round; stroke-linejoin:round; stroke-width:4; stroke-opacity:1; fill:none" points="1280.35,1371.62 1280.35,1352.72 "/>
<polyline clip-path="url(#clip060)" style="stroke:#000000; stroke-linecap:round; stroke-linejoin:round; stroke-width:4; stroke-opacity:1; fill:none" points="1756.49,1371.62 1756.49,1352.72 "/>
<path clip-path="url(#clip060)" d="M1280.35 1420.11 Q1271.33 1420.11 1266.75 1429.02 Q1262.24 1437.88 1262.24 1455.7 Q1262.24 1473.47 1266.75 1482.38 Q1271.33 1491.23 1280.35 1491.23 Q1289.44 1491.23 1293.95 1482.38 Q1298.53 1473.47 1298.53 1455.7 Q1298.53 1437.88 1293.95 1429.02 Q1289.44 1420.11 1280.35 1420.11 M1280.35 1410.85 Q1294.88 1410.85 1302.52 1422.37 Q1310.21 1433.83 1310.21 1455.7 Q1310.21 1477.52 1302.52 1489.04 Q1294.88 1500.49 1280.35 1500.49 Q1265.83 1500.49 1258.13 1489.04 Q1250.49 1477.52 1250.49 1455.7 Q1250.49 1433.83 1258.13 1422.37 Q1265.83 1410.85 1280.35 1410.85 Z" fill="#000000" fill-rule="evenodd" fill-opacity="1" /><path clip-path="url(#clip060)" d="M1667.25 1424.25 Q1667.25 1425.89 1666.49 1426.3 Q1665.73 1426.65 1663.62 1426.65 L1652.38 1426.65 L1643.48 1462.02 Q1642.78 1465.12 1642.78 1467.75 Q1642.78 1470.68 1643.66 1471.97 Q1644.59 1473.26 1646.53 1473.26 Q1650.33 1473.26 1654.43 1469.8 Q1658.59 1466.35 1662.1 1457.92 Q1662.57 1456.8 1662.8 1456.57 Q1663.1 1456.28 1663.86 1456.28 Q1665.32 1456.28 1665.32 1457.45 Q1665.32 1457.86 1664.5 1459.73 Q1663.74 1461.61 1662.04 1464.36 Q1660.4 1467.11 1658.24 1469.69 Q1656.13 1472.26 1652.91 1474.14 Q1649.69 1475.95 1646.23 1475.95 Q1641.37 1475.95 1638.27 1472.85 Q1635.22 1469.74 1635.22 1464.88 Q1635.22 1463.3 1636.45 1458.27 Q1637.68 1453.17 1644.36 1426.65 L1633.76 1426.65 Q1632.3 1426.65 1631.71 1426.59 Q1631.18 1426.53 1630.77 1426.24 Q1630.42 1425.89 1630.42 1425.18 Q1630.42 1424.07 1630.89 1423.6 Q1631.36 1423.08 1631.95 1423.02 Q1632.59 1422.9 1634.05 1422.9 L1645.3 1422.9 L1649.98 1403.87 Q1650.45 1402 1651.62 1400.94 Q1652.85 1399.83 1653.55 1399.71 Q1654.26 1399.54 1654.78 1399.54 Q1656.36 1399.54 1657.3 1400.41 Q1658.24 1401.23 1658.24 1402.76 Q1658.24 1403.58 1653.32 1422.9 L1663.86 1422.9 Q1665.21 1422.9 1665.73 1422.96 Q1666.32 1423.02 1666.79 1423.31 Q1667.25 1423.6 1667.25 1424.25 Z" fill="#000000" fill-rule="evenodd" fill-opacity="1" /><path clip-path="url(#clip060)" d="M1679.69 1482.31 Q1679.69 1469.97 1682.81 1463.25 Q1687.15 1453.25 1697.4 1453.25 Q1699.57 1453.25 1701.83 1453.86 Q1704.12 1454.44 1706.99 1456.69 Q1709.9 1458.95 1711.66 1462.64 Q1715.02 1469.77 1715.02 1482.31 Q1715.02 1494.57 1711.91 1501.25 Q1707.36 1511 1697.32 1511 Q1693.55 1511 1689.69 1509.08 Q1685.88 1507.15 1683.46 1502.52 Q1679.69 1495.59 1679.69 1482.31 M1686.66 1481.29 Q1686.66 1493.95 1687.56 1498.99 Q1688.59 1504.45 1691.37 1506.82 Q1694.2 1509.16 1697.32 1509.16 Q1700.68 1509.16 1703.47 1506.66 Q1706.29 1504.12 1707.15 1498.67 Q1708.1 1493.3 1708.06 1481.29 Q1708.06 1469.6 1707.24 1464.93 Q1706.13 1459.48 1703.18 1457.31 Q1700.27 1455.09 1697.32 1455.09 Q1696.21 1455.09 1695.02 1455.42 Q1693.87 1455.75 1692.19 1456.69 Q1690.51 1457.64 1689.2 1459.97 Q1687.93 1462.31 1687.32 1465.83 Q1686.66 1470.38 1686.66 1481.29 Z" fill="#000000" fill-rule="evenodd" fill-opacity="1" /><path clip-path="url(#clip060)" d="M1722.54 1507.81 Q1721.27 1506.45 1721.27 1504.69 Q1721.27 1502.93 1722.54 1501.66 Q1723.81 1500.35 1725.73 1500.35 Q1727.58 1500.35 1728.81 1501.58 Q1730.08 1502.76 1730.08 1504.73 Q1730.08 1506.66 1728.73 1507.93 Q1727.41 1509.16 1725.73 1509.16 Q1723.81 1509.16 1722.54 1507.81 Z" fill="#000000" fill-rule="evenodd" fill-opacity="1" /><path clip-path="url(#clip060)" d="M1744.37 1482.31 Q1744.37 1469.97 1747.48 1463.25 Q1751.83 1453.25 1762.07 1453.25 Q1764.25 1453.25 1766.5 1453.86 Q1768.8 1454.44 1771.66 1456.69 Q1774.58 1458.95 1776.34 1462.64 Q1779.7 1469.77 1779.7 1482.31 Q1779.7 1494.57 1776.58 1501.25 Q1772.03 1511 1761.99 1511 Q1758.22 1511 1754.37 1509.08 Q1750.56 1507.15 1748.14 1502.52 Q1744.37 1495.59 1744.37 1482.31 M1751.33 1481.29 Q1751.33 1493.95 1752.24 1498.99 Q1753.26 1504.45 1756.05 1506.82 Q1758.88 1509.16 1761.99 1509.16 Q1765.35 1509.16 1768.14 1506.66 Q1770.97 1504.12 1771.83 1498.67 Q1772.77 1493.3 1772.73 1481.29 Q1772.73 1469.6 1771.91 1464.93 Q1770.8 1459.48 1767.85 1457.31 Q1764.94 1455.09 1761.99 1455.09 Q1760.88 1455.09 1759.7 1455.42 Q1758.55 1455.75 1756.87 1456.69 Q1755.19 1457.64 1753.88 1459.97 Q1752.6 1462.31 1751.99 1465.83 Q1751.33 1470.38 1751.33 1481.29 Z" fill="#000000" fill-rule="evenodd" fill-opacity="1" /><path clip-path="url(#clip060)" d="M1786.28 1509.16 Q1786.28 1507.64 1786.4 1507.19 Q1786.56 1506.74 1787.22 1506.04 L1803.33 1488.09 Q1812.14 1478.17 1812.14 1469.52 Q1812.14 1463.91 1809.19 1459.89 Q1806.28 1455.87 1800.91 1455.87 Q1797.22 1455.87 1794.1 1458.13 Q1790.99 1460.38 1789.55 1464.4 Q1789.8 1464.32 1790.66 1464.32 Q1792.75 1464.32 1793.9 1465.63 Q1795.09 1466.94 1795.09 1468.7 Q1795.09 1470.96 1793.61 1472.06 Q1792.18 1473.13 1790.74 1473.13 Q1790.17 1473.13 1789.39 1473.01 Q1788.65 1472.88 1787.46 1471.74 Q1786.28 1470.55 1786.28 1468.46 Q1786.28 1462.6 1790.7 1457.92 Q1795.17 1453.25 1801.97 1453.25 Q1809.68 1453.25 1814.72 1457.84 Q1819.8 1462.39 1819.8 1469.52 Q1819.8 1472.02 1819.03 1474.32 Q1818.29 1476.57 1817.26 1478.34 Q1816.28 1480.1 1813.57 1482.93 Q1810.87 1485.75 1808.7 1487.76 Q1806.52 1489.77 1801.65 1494.03 L1792.75 1502.68 L1807.88 1502.68 Q1815.25 1502.68 1815.83 1502.03 Q1816.65 1500.84 1817.67 1494.57 L1819.8 1494.57 L1817.43 1509.16 L1786.28 1509.16 Z" fill="#000000" fill-rule="evenodd" fill-opacity="1" /><path clip-path="url(#clip060)" d="M1828.18 1495.63 Q1828.18 1493.13 1829.54 1492.19 Q1830.89 1491.21 1832.32 1491.21 Q1834.25 1491.21 1835.36 1492.44 Q1836.51 1493.62 1836.51 1495.3 Q1836.51 1496.99 1835.36 1498.22 Q1834.25 1499.4 1832.32 1499.4 Q1831.38 1499.4 1830.89 1499.24 Q1832 1503.09 1835.36 1505.88 Q1838.76 1508.67 1843.23 1508.67 Q1848.84 1508.67 1852.2 1503.22 Q1854.21 1499.69 1854.21 1491.7 Q1854.21 1484.65 1852.7 1481.12 Q1850.36 1475.75 1845.56 1475.75 Q1838.76 1475.75 1834.74 1481.61 Q1834.25 1482.35 1833.68 1482.39 Q1832.86 1482.39 1832.65 1481.94 Q1832.49 1481.45 1832.49 1480.18 L1832.49 1455.34 Q1832.49 1453.33 1833.31 1453.33 Q1833.64 1453.33 1834.33 1453.58 Q1839.62 1455.91 1845.48 1455.96 Q1851.51 1455.96 1856.92 1453.5 Q1857.33 1453.25 1857.57 1453.25 Q1858.39 1453.25 1858.44 1454.19 Q1858.44 1454.52 1857.74 1455.5 Q1857.08 1456.45 1855.65 1457.72 Q1854.21 1458.95 1852.37 1460.14 Q1850.52 1461.32 1847.82 1462.14 Q1845.15 1462.92 1842.2 1462.92 Q1838.68 1462.92 1835.07 1461.82 L1835.07 1478.17 Q1839.42 1473.91 1845.73 1473.91 Q1852.45 1473.91 1857.08 1479.32 Q1861.71 1484.73 1861.71 1492.27 Q1861.71 1500.18 1856.22 1505.59 Q1850.77 1511 1843.39 1511 Q1836.67 1511 1832.41 1506.21 Q1828.18 1501.41 1828.18 1495.63 Z" fill="#000000" fill-rule="evenodd" fill-opacity="1" /><path clip-path="url(#clip060)" d="M958.029 20.736 L1045.74 20.736 L1045.74 32.5415 L1008.93 32.5415 L1008.93 124.416 L994.835 124.416 L994.835 32.5415 L958.029 32.5415 L958.029 20.736 Z" fill="#000000" fill-rule="evenodd" fill-opacity="1" /><path clip-path="url(#clip060)" d="M1049.56 46.6386 L1063.1 46.6386 L1087.4 111.916 L1111.71 46.6386 L1125.25 46.6386 L1096.08 124.416 L1078.72 124.416 L1049.56 46.6386 Z" fill="#000000" fill-rule="evenodd" fill-opacity="1" /><path clip-path="url(#clip060)" d="M1178.24 85.319 Q1162.75 85.319 1156.78 88.8606 Q1150.81 92.4023 1150.81 100.944 Q1150.81 107.749 1155.25 111.777 Q1159.76 115.735 1167.47 115.735 Q1178.1 115.735 1184.49 108.236 Q1190.94 100.666 1190.94 88.1662 L1190.94 85.319 L1178.24 85.319 M1203.72 80.0412 L1203.72 124.416 L1190.94 124.416 L1190.94 112.611 Q1186.57 119.694 1180.04 123.097 Q1173.51 126.43 1164.07 126.43 Q1152.13 126.43 1145.04 119.763 Q1138.03 113.027 1138.03 101.777 Q1138.03 88.6523 1146.78 81.9857 Q1155.6 75.319 1173.03 75.319 L1190.94 75.319 L1190.94 74.069 Q1190.94 65.2497 1185.11 60.458 Q1179.35 55.5969 1168.86 55.5969 Q1162.19 55.5969 1155.88 57.1941 Q1149.56 58.7914 1143.72 61.9858 L1143.72 50.1803 Q1150.74 47.472 1157.33 46.1525 Q1163.93 44.7636 1170.18 44.7636 Q1187.06 44.7636 1195.39 53.5136 Q1203.72 62.2636 1203.72 80.0412 M1181.29 18.5832 Q1181.29 14.2083 1178.24 11.1527 Q1175.18 8.09718 1170.74 8.09718 Q1166.22 8.09718 1163.17 11.1527 Q1160.18 14.1388 1160.18 18.5832 Q1160.18 23.0971 1163.17 26.1526 Q1166.22 29.1387 1170.74 29.1387 Q1175.18 29.1387 1178.24 26.0832 Q1181.29 23.0277 1181.29 18.5832 M1189.76 18.5832 Q1189.76 26.5693 1184.21 32.1248 Q1178.72 37.6804 1170.74 37.6804 Q1162.75 37.6804 1157.19 32.1248 Q1151.71 26.5693 1151.71 18.5832 Q1151.71 10.5972 1157.19 5.11108 Q1162.75 -0.444442 1170.74 -0.444442 Q1178.72 -0.444442 1184.21 5.11108 Q1189.76 10.5972 1189.76 18.5832 Z" fill="#000000" fill-rule="evenodd" fill-opacity="1" /><path clip-path="url(#clip060)" d="M1279.62 48.9303 L1279.62 61.0136 Q1274.21 58.2358 1268.37 56.8469 Q1262.54 55.458 1256.29 55.458 Q1246.78 55.458 1241.99 58.3747 Q1237.26 61.2913 1237.26 67.1246 Q1237.26 71.5691 1240.67 74.1385 Q1244.07 76.6385 1254.35 78.9301 L1258.72 79.9023 Q1272.33 82.819 1278.03 88.1662 Q1283.79 93.4439 1283.79 102.958 Q1283.79 113.791 1275.18 120.11 Q1266.64 126.43 1251.64 126.43 Q1245.39 126.43 1238.58 125.18 Q1231.85 123.999 1224.35 121.569 L1224.35 108.374 Q1231.43 112.055 1238.31 113.93 Q1245.18 115.735 1251.92 115.735 Q1260.94 115.735 1265.81 112.68 Q1270.67 109.555 1270.67 103.93 Q1270.67 98.7217 1267.12 95.9439 Q1263.65 93.1662 1251.78 90.5967 L1247.33 89.5551 Q1235.46 87.0551 1230.18 81.9162 Q1224.9 76.7079 1224.9 67.6802 Q1224.9 56.708 1232.68 50.7358 Q1240.46 44.7636 1254.76 44.7636 Q1261.85 44.7636 1268.1 45.8053 Q1274.35 46.847 1279.62 48.9303 Z" fill="#000000" fill-rule="evenodd" fill-opacity="1" /><path clip-path="url(#clip060)" d="M1304.14 46.6386 L1316.92 46.6386 L1316.92 124.416 L1304.14 124.416 L1304.14 46.6386 M1304.14 16.361 L1316.92 16.361 L1316.92 32.5415 L1304.14 32.5415 L1304.14 16.361 Z" fill="#000000" fill-rule="evenodd" fill-opacity="1" /><path clip-path="url(#clip060)" d="M1394.83 58.4441 L1394.83 16.361 L1407.61 16.361 L1407.61 124.416 L1394.83 124.416 L1394.83 112.749 Q1390.8 119.694 1384.62 123.097 Q1378.51 126.43 1369.9 126.43 Q1355.81 126.43 1346.92 115.18 Q1338.1 103.93 1338.1 85.5968 Q1338.1 67.2635 1346.92 56.0136 Q1355.81 44.7636 1369.9 44.7636 Q1378.51 44.7636 1384.62 48.1664 Q1390.8 51.4997 1394.83 58.4441 M1351.29 85.5968 Q1351.29 99.6939 1357.05 107.749 Q1362.89 115.735 1373.03 115.735 Q1383.17 115.735 1389 107.749 Q1394.83 99.6939 1394.83 85.5968 Q1394.83 71.4996 1389 63.5135 Q1383.17 55.458 1373.03 55.458 Q1362.89 55.458 1357.05 63.5135 Q1351.29 71.4996 1351.29 85.5968 Z" fill="#000000" fill-rule="evenodd" fill-opacity="1" /><path clip-path="url(#clip060)" d="M1433.93 46.6386 L1446.71 46.6386 L1446.71 124.416 L1433.93 124.416 L1433.93 46.6386 M1433.93 16.361 L1446.71 16.361 L1446.71 32.5415 L1433.93 32.5415 L1433.93 16.361 Z" fill="#000000" fill-rule="evenodd" fill-opacity="1" /><path clip-path="url(#clip060)" d="M1524.62 84.6245 Q1524.62 70.7357 1518.86 63.0969 Q1513.17 55.458 1502.82 55.458 Q1492.54 55.458 1486.78 63.0969 Q1481.08 70.7357 1481.08 84.6245 Q1481.08 98.4439 1486.78 106.083 Q1492.54 113.722 1502.82 113.722 Q1513.17 113.722 1518.86 106.083 Q1524.62 98.4439 1524.62 84.6245 M1537.4 114.763 Q1537.4 134.624 1528.58 144.277 Q1519.76 153.999 1501.57 153.999 Q1494.83 153.999 1488.86 152.958 Q1482.89 151.985 1477.26 149.902 L1477.26 137.471 Q1482.89 140.527 1488.37 141.985 Q1493.86 143.444 1499.55 143.444 Q1512.12 143.444 1518.37 136.846 Q1524.62 130.319 1524.62 117.055 L1524.62 110.736 Q1520.67 117.61 1514.48 121.013 Q1508.3 124.416 1499.69 124.416 Q1485.39 124.416 1476.64 113.513 Q1467.89 102.611 1467.89 84.6245 Q1467.89 66.5691 1476.64 55.6664 Q1485.39 44.7636 1499.69 44.7636 Q1508.3 44.7636 1514.48 48.1664 Q1520.67 51.5692 1524.62 58.4441 L1524.62 46.6386 L1537.4 46.6386 L1537.4 114.763 Z" fill="#000000" fill-rule="evenodd" fill-opacity="1" /><path clip-path="url(#clip060)" d="M1576.36 24.5554 L1576.36 46.6386 L1602.68 46.6386 L1602.68 56.5691 L1576.36 56.5691 L1576.36 98.7911 Q1576.36 108.305 1578.93 111.013 Q1581.57 113.722 1589.55 113.722 L1602.68 113.722 L1602.68 124.416 L1589.55 124.416 Q1574.76 124.416 1569.14 118.93 Q1563.51 113.374 1563.51 98.7911 L1563.51 56.5691 L1554.14 56.5691 L1554.14 46.6386 L1563.51 46.6386 L1563.51 24.5554 L1576.36 24.5554 Z" fill="#000000" fill-rule="evenodd" fill-opacity="1" /><path clip-path="url(#clip062)" d="M1756.49 1148.85 L1758.87 1151.22 L1761.25 1153.55 L1763.63 1155.86 L1766.01 1158.14 L1768.39 1160.39 L1770.77 1162.61 L1773.16 1164.81 L1775.54 1166.97 L1777.92 1169.11 L1780.3 1171.22 L1782.68 1173.31 L1785.06 1175.37 L1787.44 1177.4 L1789.82 1179.41 L1792.2 1181.39 L1794.58 1183.34 L1796.96 1185.27 L1799.34 1187.18 L1801.72 1189.06 L1804.1 1190.92 L1806.49 1192.76 L1808.87 1194.57 L1811.25 1196.35 L1813.63 1198.12 L1816.01 1199.86 L1818.39 1201.58 L1820.77 1203.28 L1823.15 1204.95 L1825.53 1206.61 L1827.91 1208.24 L1830.29 1209.85 L1832.67 1211.44 L1835.05 1213.02 L1837.43 1214.57 L1839.81 1216.1 L1842.2 1217.61 L1844.58 1219.1 L1846.96 1220.57 L1849.34 1222.02 L1851.72 1223.45 L1854.1 1224.87 L1856.48 1226.27 L1858.86 1227.64 L1861.24 1229.01 L1863.62 1230.35 L1866 1231.67 L1868.38 1232.98 L1870.76 1234.27 L1873.14 1235.55 L1875.52 1236.81 L1877.91 1238.05 L1880.29 1239.27 L1882.67 1240.48 L1885.05 1241.68 L1887.43 1242.86 L1889.81 1244.02 L1892.19 1245.17 L1894.57 1246.3 L1896.95 1247.42 L1899.33 1248.52 L1901.71 1249.61 L1904.09 1250.69 L1906.47 1251.75 L1908.85 1252.8 L1911.24 1253.83 L1913.62 1254.85 L1916 1255.86 L1918.38 1256.85 L1920.76 1257.83 L1923.14 1258.8 L1925.52 1259.76 L1927.9 1260.7 L1930.28 1261.64 L1932.66 1262.55 L1935.04 1263.46 L1937.42 1264.36 L1939.8 1265.24 L1942.18 1266.12 L1944.56 1266.98 L1946.95 1267.83 L1949.33 1268.67 L1951.71 1269.5 L1954.09 1270.31 L1956.47 1271.12 L1958.85 1271.92 L1961.23 1272.71 L1963.61 1273.48 L1965.99 1274.25 L1968.37 1275.01 L1970.75 1275.75 L1973.13 1276.49 L1975.51 1277.22 L1977.89 1277.94 L1980.27 1278.65 L1982.66 1279.35 L1985.04 1280.04 L1987.42 1280.72 L1989.8 1281.4 L1992.18 1282.06 L1994.56 1282.72 L1996.94 1283.37 L1999.32 1284.01 L2001.7 1284.64 L2004.08 1285.27 L2006.46 1285.88 L2008.84 1286.49 L2011.22 1287.09 L2013.6 1287.68 L2015.99 1288.27 L2018.37 1288.85 L2020.75 1289.42 L2023.13 1289.98 L2025.51 1290.54 L2027.89 1291.09 L2030.27 1291.63 L2032.65 1292.17 L2035.03 1292.7 L2037.41 1293.22 L2039.79 1293.73 L2042.17 1294.24 L2044.55 1294.75 L2046.93 1295.24 L2049.31 1295.73 L2051.7 1296.22 L2054.08 1296.7 L2056.46 1297.17 L2058.84 1297.64 L2061.22 1298.1 L2063.6 1298.55 L2065.98 1299 L2068.36 1299.44 L2070.74 1299.88 L2073.12 1300.32 L2075.5 1300.74 L2077.88 1301.17 L2080.26 1301.58 L2082.64 1301.99 L2085.03 1302.4 L2087.41 1302.8 L2089.79 1303.2 L2092.17 1303.59 L2094.55 1303.98 L2096.93 1304.36 L2099.31 1304.74 L2101.69 1305.11 L2104.07 1305.48 L2106.45 1305.84 L2108.83 1306.2 L2111.21 1306.56 L2113.59 1306.91 L2115.97 1307.26 L2118.35 1307.6 L2120.74 1307.94 L2123.12 1308.27 L2125.5 1308.6 L2127.88 1308.93 L2130.26 1309.25 L2132.64 1309.57 L2135.02 1309.88 L2137.4 1310.19 L2139.78 1310.5 L2142.16 1310.8 L2144.54 1311.1 L2146.92 1311.4 L2149.3 1311.69 L2151.68 1311.98 L2154.06 1312.27 L2156.45 1312.55 L2158.83 1312.83 L2161.21 1313.1 L2163.59 1313.38 L2165.97 1313.65 L2168.35 1313.91 L2170.73 1314.17 L2173.11 1314.43 L2175.49 1314.69 L2177.87 1314.94 L2180.25 1315.19 L2182.63 1315.44 L2185.01 1315.69 L2187.39 1315.93 L2189.78 1316.17 L2192.16 1316.4 L2194.54 1316.64 L2196.92 1316.87 L2199.3 1317.1 L2201.68 1317.32 L2204.06 1317.54 L2206.44 1317.76 L2208.82 1317.98 L2211.2 1318.2 L2213.58 1318.41 L2215.96 1318.62 L2218.34 1318.83 L2220.72 1319.03 L2223.1 1319.24 L2225.49 1319.44 L2227.87 1319.63 L2230.25 1319.83 L2232.63 1320.02 L2232.63 1339.3 L2230.25 1339.3 L2227.87 1339.3 L2225.49 1339.3 L2223.1 1339.3 L2220.72 1339.3 L2218.34 1339.3 L2215.96 1339.3 L2213.58 1339.3 L2211.2 1339.3 L2208.82 1339.3 L2206.44 1339.3 L2204.06 1339.3 L2201.68 1339.3 L2199.3 1339.3 L2196.92 1339.3 L2194.54 1339.3 L2192.16 1339.3 L2189.78 1339.3 L2187.39 1339.3 L2185.01 1339.3 L2182.63 1339.3 L2180.25 1339.3 L2177.87 1339.3 L2175.49 1339.3 L2173.11 1339.3 L2170.73 1339.3 L2168.35 1339.3 L2165.97 1339.3 L2163.59 1339.3 L2161.21 1339.3 L2158.83 1339.3 L2156.45 1339.3 L2154.06 1339.3 L2151.68 1339.3 L2149.3 1339.3 L2146.92 1339.3 L2144.54 1339.3 L2142.16 1339.3 L2139.78 1339.3 L2137.4 1339.3 L2135.02 1339.3 L2132.64 1339.3 L2130.26 1339.3 L2127.88 1339.3 L2125.5 1339.3 L2123.12 1339.3 L2120.74 1339.3 L2118.35 1339.3 L2115.97 1339.3 L2113.59 1339.3 L2111.21 1339.3 L2108.83 1339.3 L2106.45 1339.3 L2104.07 1339.3 L2101.69 1339.3 L2099.31 1339.3 L2096.93 1339.3 L2094.55 1339.3 L2092.17 1339.3 L2089.79 1339.3 L2087.41 1339.3 L2085.03 1339.3 L2082.64 1339.3 L2080.26 1339.3 L2077.88 1339.3 L2075.5 1339.3 L2073.12 1339.3 L2070.74 1339.3 L2068.36 1339.3 L2065.98 1339.3 L2063.6 1339.3 L2061.22 1339.3 L2058.84 1339.3 L2056.46 1339.3 L2054.08 1339.3 L2051.7 1339.3 L2049.31 1339.3 L2046.93 1339.3 L2044.55 1339.3 L2042.17 1339.3 L2039.79 1339.3 L2037.41 1339.3 L2035.03 1339.3 L2032.65 1339.3 L2030.27 1339.3 L2027.89 1339.3 L2025.51 1339.3 L2023.13 1339.3 L2020.75 1339.3 L2018.37 1339.3 L2015.99 1339.3 L2013.6 1339.3 L2011.22 1339.3 L2008.84 1339.3 L2006.46 1339.3 L2004.08 1339.3 L2001.7 1339.3 L1999.32 1339.3 L1996.94 1339.3 L1994.56 1339.3 L1992.18 1339.3 L1989.8 1339.3 L1987.42 1339.3 L1985.04 1339.3 L1982.66 1339.3 L1980.27 1339.3 L1977.89 1339.3 L1975.51 1339.3 L1973.13 1339.3 L1970.75 1339.3 L1968.37 1339.3 L1965.99 1339.3 L1963.61 1339.3 L1961.23 1339.3 L1958.85 1339.3 L1956.47 1339.3 L1954.09 1339.3 L1951.71 1339.3 L1949.33 1339.3 L1946.95 1339.3 L1944.56 1339.3 L1942.18 1339.3 L1939.8 1339.3 L1937.42 1339.3 L1935.04 1339.3 L1932.66 1339.3 L1930.28 1339.3 L1927.9 1339.3 L1925.52 1339.3 L1923.14 1339.3 L1920.76 1339.3 L1918.38 1339.3 L1916 1339.3 L1913.62 1339.3 L1911.24 1339.3 L1908.85 1339.3 L1906.47 1339.3 L1904.09 1339.3 L1901.71 1339.3 L1899.33 1339.3 L1896.95 1339.3 L1894.57 1339.3 L1892.19 1339.3 L1889.81 1339.3 L1887.43 1339.3 L1885.05 1339.3 L1882.67 1339.3 L1880.29 1339.3 L1877.91 1339.3 L1875.52 1339.3 L1873.14 1339.3 L1870.76 1339.3 L1868.38 1339.3 L1866 1339.3 L1863.62 1339.3 L1861.24 1339.3 L1858.86 1339.3 L1856.48 1339.3 L1854.1 1339.3 L1851.72 1339.3 L1849.34 1339.3 L1846.96 1339.3 L1844.58 1339.3 L1842.2 1339.3 L1839.81 1339.3 L1837.43 1339.3 L1835.05 1339.3 L1832.67 1339.3 L1830.29 1339.3 L1827.91 1339.3 L1825.53 1339.3 L1823.15 1339.3 L1820.77 1339.3 L1818.39 1339.3 L1816.01 1339.3 L1813.63 1339.3 L1811.25 1339.3 L1808.87 1339.3 L1806.49 1339.3 L1804.1 1339.3 L1801.72 1339.3 L1799.34 1339.3 L1796.96 1339.3 L1794.58 1339.3 L1792.2 1339.3 L1789.82 1339.3 L1787.44 1339.3 L1785.06 1339.3 L1782.68 1339.3 L1780.3 1339.3 L1777.92 1339.3 L1775.54 1339.3 L1773.16 1339.3 L1770.77 1339.3 L1768.39 1339.3 L1766.01 1339.3 L1763.63 1339.3 L1761.25 1339.3 L1758.87 1339.3 L1756.49 1339.3  Z" fill="#1f78b4" fill-rule="evenodd" fill-opacity="0.5"/>
<polyline clip-path="url(#clip062)" style="stroke:#1f78b4; stroke-linecap:round; stroke-linejoin:round; stroke-width:16; stroke-opacity:1; fill:none" points="1756.49,1148.85 1758.87,1151.22 1761.25,1153.55 1763.63,1155.86 1766.01,1158.14 1768.39,1160.39 1770.77,1162.61 1773.16,1164.81 1775.54,1166.97 1777.92,1169.11 1780.3,1171.22 1782.68,1173.31 1785.06,1175.37 1787.44,1177.4 1789.82,1179.41 1792.2,1181.39 1794.58,1183.34 1796.96,1185.27 1799.34,1187.18 1801.72,1189.06 1804.1,1190.92 1806.49,1192.76 1808.87,1194.57 1811.25,1196.35 1813.63,1198.12 1816.01,1199.86 1818.39,1201.58 1820.77,1203.28 1823.15,1204.95 1825.53,1206.61 1827.91,1208.24 1830.29,1209.85 1832.67,1211.44 1835.05,1213.02 1837.43,1214.57 1839.81,1216.1 1842.2,1217.61 1844.58,1219.1 1846.96,1220.57 1849.34,1222.02 1851.72,1223.45 1854.1,1224.87 1856.48,1226.27 1858.86,1227.64 1861.24,1229.01 1863.62,1230.35 1866,1231.67 1868.38,1232.98 1870.76,1234.27 1873.14,1235.55 1875.52,1236.81 1877.91,1238.05 1880.29,1239.27 1882.67,1240.48 1885.05,1241.68 1887.43,1242.86 1889.81,1244.02 1892.19,1245.17 1894.57,1246.3 1896.95,1247.42 1899.33,1248.52 1901.71,1249.61 1904.09,1250.69 1906.47,1251.75 1908.85,1252.8 1911.24,1253.83 1913.62,1254.85 1916,1255.86 1918.38,1256.85 1920.76,1257.83 1923.14,1258.8 1925.52,1259.76 1927.9,1260.7 1930.28,1261.64 1932.66,1262.55 1935.04,1263.46 1937.42,1264.36 1939.8,1265.24 1942.18,1266.12 1944.56,1266.98 1946.95,1267.83 1949.33,1268.67 1951.71,1269.5 1954.09,1270.31 1956.47,1271.12 1958.85,1271.92 1961.23,1272.71 1963.61,1273.48 1965.99,1274.25 1968.37,1275.01 1970.75,1275.75 1973.13,1276.49 1975.51,1277.22 1977.89,1277.94 1980.27,1278.65 1982.66,1279.35 1985.04,1280.04 1987.42,1280.72 1989.8,1281.4 1992.18,1282.06 1994.56,1282.72 1996.94,1283.37 1999.32,1284.01 2001.7,1284.64 2004.08,1285.27 2006.46,1285.88 2008.84,1286.49 2011.22,1287.09 2013.6,1287.68 2015.99,1288.27 2018.37,1288.85 2020.75,1289.42 2023.13,1289.98 2025.51,1290.54 2027.89,1291.09 2030.27,1291.63 2032.65,1292.17 2035.03,1292.7 2037.41,1293.22 2039.79,1293.73 2042.17,1294.24 2044.55,1294.75 2046.93,1295.24 2049.31,1295.73 2051.7,1296.22 2054.08,1296.7 2056.46,1297.17 2058.84,1297.64 2061.22,1298.1 2063.6,1298.55 2065.98,1299 2068.36,1299.44 2070.74,1299.88 2073.12,1300.32 2075.5,1300.74 2077.88,1301.17 2080.26,1301.58 2082.64,1301.99 2085.03,1302.4 2087.41,1302.8 2089.79,1303.2 2092.17,1303.59 2094.55,1303.98 2096.93,1304.36 2099.31,1304.74 2101.69,1305.11 2104.07,1305.48 2106.45,1305.84 2108.83,1306.2 2111.21,1306.56 2113.59,1306.91 2115.97,1307.26 2118.35,1307.6 2120.74,1307.94 2123.12,1308.27 2125.5,1308.6 2127.88,1308.93 2130.26,1309.25 2132.64,1309.57 2135.02,1309.88 2137.4,1310.19 2139.78,1310.5 2142.16,1310.8 2144.54,1311.1 2146.92,1311.4 2149.3,1311.69 2151.68,1311.98 2154.06,1312.27 2156.45,1312.55 2158.83,1312.83 2161.21,1313.1 2163.59,1313.38 2165.97,1313.65 2168.35,1313.91 2170.73,1314.17 2173.11,1314.43 2175.49,1314.69 2177.87,1314.94 2180.25,1315.19 2182.63,1315.44 2185.01,1315.69 2187.39,1315.93 2189.78,1316.17 2192.16,1316.4 2194.54,1316.64 2196.92,1316.87 2199.3,1317.1 2201.68,1317.32 2204.06,1317.54 2206.44,1317.76 2208.82,1317.98 2211.2,1318.2 2213.58,1318.41 2215.96,1318.62 2218.34,1318.83 2220.72,1319.03 2223.1,1319.24 2225.49,1319.44 2227.87,1319.63 2230.25,1319.83 2232.63,1320.02 "/>
<polyline clip-path="url(#clip062)" style="stroke:#1f78b4; stroke-linecap:round; stroke-linejoin:round; stroke-width:16; stroke-opacity:1; fill:none" points="328.081,1320.02 330.461,1319.83 332.842,1319.63 335.223,1319.44 337.603,1319.24 339.984,1319.03 342.365,1318.83 344.745,1318.62 347.126,1318.41 349.507,1318.2 351.887,1317.98 354.268,1317.76 356.649,1317.54 359.03,1317.32 361.41,1317.1 363.791,1316.87 366.172,1316.64 368.552,1316.4 370.933,1316.17 373.314,1315.93 375.694,1315.69 378.075,1315.44 380.456,1315.19 382.836,1314.94 385.217,1314.69 387.598,1314.43 389.978,1314.17 392.359,1313.91 394.74,1313.65 397.12,1313.38 399.501,1313.1 401.882,1312.83 404.263,1312.55 406.643,1312.27 409.024,1311.98 411.405,1311.69 413.785,1311.4 416.166,1311.1 418.547,1310.8 420.927,1310.5 423.308,1310.19 425.689,1309.88 428.069,1309.57 430.45,1309.25 432.831,1308.93 435.211,1308.6 437.592,1308.27 439.973,1307.94 442.353,1307.6 444.734,1307.26 447.115,1306.91 449.496,1306.56 451.876,1306.2 454.257,1305.84 456.638,1305.48 459.018,1305.11 461.399,1304.74 463.78,1304.36 466.16,1303.98 468.541,1303.59 470.922,1303.2 473.302,1302.8 475.683,1302.4 478.064,1301.99 480.444,1301.58 482.825,1301.17 485.206,1300.74 487.586,1300.32 489.967,1299.88 492.348,1299.44 494.728,1299 497.109,1298.55 499.49,1298.1 501.871,1297.64 504.251,1297.17 506.632,1296.7 509.013,1296.22 511.393,1295.73 513.774,1295.24 516.155,1294.75 518.535,1294.24 520.916,1293.73 523.297,1293.22 525.677,1292.7 528.058,1292.17 530.439,1291.63 532.819,1291.09 535.2,1290.54 537.581,1289.98 539.961,1289.42 542.342,1288.85 544.723,1288.27 547.104,1287.68 549.484,1287.09 551.865,1286.49 554.246,1285.88 556.626,1285.27 559.007,1284.64 561.388,1284.01 563.768,1283.37 566.149,1282.72 568.53,1282.06 570.91,1281.4 573.291,1280.72 575.672,1280.04 578.052,1279.35 580.433,1278.65 582.814,1277.94 585.194,1277.22 587.575,1276.49 589.956,1275.75 592.337,1275.01 594.717,1274.25 597.098,1273.48 599.479,1272.71 601.859,1271.92 604.24,1271.12 606.621,1270.31 609.001,1269.5 611.382,1268.67 613.763,1267.83 616.143,1266.98 618.524,1266.12 620.905,1265.24 623.285,1264.36 625.666,1263.46 628.047,1262.55 630.427,1261.64 632.808,1260.7 635.189,1259.76 637.569,1258.8 639.95,1257.83 642.331,1256.85 644.712,1255.86 647.092,1254.85 649.473,1253.83 651.854,1252.8 654.234,1251.75 656.615,1250.69 658.996,1249.61 661.376,1248.52 663.757,1247.42 666.138,1246.3 668.518,1245.17 670.899,1244.02 673.28,1242.86 675.66,1241.68 678.041,1240.48 680.422,1239.27 682.802,1238.05 685.183,1236.81 687.564,1235.55 689.945,1234.27 692.325,1232.98 694.706,1231.67 697.087,1230.35 699.467,1229.01 701.848,1227.64 704.229,1226.27 706.609,1224.87 708.99,1223.45 711.371,1222.02 713.751,1220.57 716.132,1219.1 718.513,1217.61 720.893,1216.1 723.274,1214.57 725.655,1213.02 728.035,1211.44 730.416,1209.85 732.797,1208.24 735.178,1206.61 737.558,1204.95 739.939,1203.28 742.32,1201.58 744.7,1199.86 747.081,1198.12 749.462,1196.35 751.842,1194.57 754.223,1192.76 756.604,1190.92 758.984,1189.06 761.365,1187.18 763.746,1185.27 766.126,1183.34 768.507,1181.39 770.888,1179.41 773.268,1177.4 775.649,1175.37 778.03,1173.31 780.411,1171.22 782.791,1169.11 785.172,1166.97 787.553,1164.81 789.933,1162.61 792.314,1160.39 794.695,1158.14 797.075,1155.86 799.456,1153.55 801.837,1151.22 804.217,1148.85 806.598,1146.46 808.979,1144.03 811.359,1141.58 813.74,1139.09 816.121,1136.57 818.501,1134.02 820.882,1131.44 823.263,1128.83 825.643,1126.18 828.024,1123.51 830.405,1120.8 832.786,1118.05 835.166,1115.28 837.547,1112.47 839.928,1109.62 842.308,1106.74 844.689,1103.83 847.07,1100.88 849.45,1097.89 851.831,1094.87 854.212,1091.82 856.592,1088.72 858.973,1085.59 861.354,1082.43 863.734,1079.22 866.115,1075.98 868.496,1072.7 870.876,1069.39 873.257,1066.03 875.638,1062.64 878.019,1059.21 880.399,1055.73 882.78,1052.22 885.161,1048.67 887.541,1045.08 889.922,1041.45 892.303,1037.78 894.683,1034.07 897.064,1030.31 899.445,1026.52 901.825,1022.69 904.206,1018.81 906.587,1014.89 908.967,1010.93 911.348,1006.93 913.729,1002.89 916.109,998.798 918.49,994.669 920.871,990.497 923.252,986.283 925.632,982.025 928.013,977.724 930.394,973.38 932.774,968.993 935.155,964.563 937.536,960.089 939.916,955.572 942.297,951.012 944.678,946.408 947.058,941.761 949.439,937.07 951.82,932.336 954.2,927.558 956.581,922.738 958.962,917.874 961.342,912.966 963.723,908.016 966.104,903.024 968.484,897.988 970.865,892.91 973.246,887.789 975.627,882.627 978.007,877.422 980.388,872.176 982.769,866.889 985.149,861.561 987.53,856.191 989.911,850.782 992.291,845.333 994.672,839.843 997.053,834.315 999.433,828.748 1001.81,823.143 1004.19,817.501 1006.58,811.82 1008.96,806.104 1011.34,800.351 1013.72,794.563 1016.1,788.74 1018.48,782.883 1020.86,776.993 1023.24,771.07 1025.62,765.115 1028,759.128 1030.38,753.112 1032.76,747.066 1035.14,740.992 1037.52,734.89 1039.9,728.761 1042.29,722.607 1044.67,716.428 1047.05,710.225 1049.43,704 1051.81,697.753 1054.19,691.486 1056.57,685.2 1058.95,678.896 1061.33,672.576 1063.71,666.24 1066.09,659.891 1068.47,653.529 1070.85,647.155 1073.23,640.772 1075.62,634.38 1078,627.982 1080.38,621.578 1082.76,615.17 1085.14,608.76 1087.52,602.35 1089.9,595.94 1092.28,589.534 1094.66,583.132 1097.04,576.736 1099.42,570.348 1101.8,563.97 1104.18,557.604 1106.56,551.251 1108.94,544.913 1111.33,538.593 1113.71,532.292 1116.09,526.012 1118.47,519.756 1120.85,513.524 1123.23,507.32 1125.61,501.146 1127.99,495.002 1130.37,488.892 1132.75,482.818 1135.13,476.782 1137.51,470.785 1139.89,464.83 1142.27,458.92 1144.66,453.056 1147.04,447.24 1149.42,441.476 1151.8,435.764 1154.18,430.108 1156.56,424.509 1158.94,418.969 1161.32,413.492 1163.7,408.078 1166.08,402.731 1168.46,397.452 1170.84,392.244 1173.22,387.109 1175.6,382.049 1177.98,377.066 1180.37,372.163 1182.75,367.341 1185.13,362.603 1187.51,357.95 1189.89,353.386 1192.27,348.911 1194.65,344.528 1197.03,340.24 1199.41,336.047 1201.79,331.952 1204.17,327.957 1206.55,324.064 1208.93,320.275 1211.31,316.59 1213.69,313.013 1216.08,309.545 1218.46,306.187 1220.84,302.942 1223.22,299.81 1225.6,296.794 1227.98,293.895 1230.36,291.114 1232.74,288.452 1235.12,285.912 1237.5,283.494 1239.88,281.199 1242.26,279.029 1244.64,276.985 1247.02,275.068 1249.41,273.279 1251.79,271.619 1254.17,270.088 1256.55,268.687 1258.93,267.418 1261.31,266.281 1263.69,265.276 1266.07,264.404 1268.45,263.665 1270.83,263.06 1273.21,262.589 1275.59,262.253 1277.97,262.051 1280.35,261.984 1282.73,262.051 1285.12,262.253 1287.5,262.589 1289.88,263.06 1292.26,263.665 1294.64,264.404 1297.02,265.276 1299.4,266.281 1301.78,267.418 1304.16,268.687 1306.54,270.088 1308.92,271.619 1311.3,273.279 1313.68,275.068 1316.06,276.985 1318.44,279.029 1320.83,281.199 1323.21,283.494 1325.59,285.912 1327.97,288.452 1330.35,291.114 1332.73,293.895 1335.11,296.794 1337.49,299.81 1339.87,302.942 1342.25,306.187 1344.63,309.545 1347.01,313.013 1349.39,316.59 1351.77,320.275 1354.16,324.064 1356.54,327.957 1358.92,331.952 1361.3,336.047 1363.68,340.24 1366.06,344.528 1368.44,348.911 1370.82,353.386 1373.2,357.95 1375.58,362.603 1377.96,367.341 1380.34,372.163 1382.72,377.066 1385.1,382.049 1387.48,387.109 1389.87,392.244 1392.25,397.452 1394.63,402.731 1397.01,408.078 1399.39,413.492 1401.77,418.969 1404.15,424.509 1406.53,430.108 1408.91,435.764 1411.29,441.476 1413.67,447.24 1416.05,453.056 1418.43,458.92 1420.81,464.83 1423.2,470.785 1425.58,476.782 1427.96,482.818 1430.34,488.892 1432.72,495.002 1435.1,501.146 1437.48,507.32 1439.86,513.524 1442.24,519.756 1444.62,526.012 1447,532.292 1449.38,538.593 1451.76,544.913 1454.14,551.251 1456.52,557.604 1458.91,563.97 1461.29,570.348 1463.67,576.736 1466.05,583.132 1468.43,589.534 1470.81,595.94 1473.19,602.35 1475.57,608.76 1477.95,615.17 1480.33,621.578 1482.71,627.982 1485.09,634.38 1487.47,640.772 1489.85,647.155 1492.23,653.529 1494.62,659.891 1497,666.24 1499.38,672.576 1501.76,678.896 1504.14,685.2 1506.52,691.486 1508.9,697.753 1511.28,704 1513.66,710.225 1516.04,716.428 1518.42,722.607 1520.8,728.761 1523.18,734.89 1525.56,740.992 1527.95,747.066 1530.33,753.112 1532.71,759.128 1535.09,765.115 1537.47,771.07 1539.85,776.993 1542.23,782.883 1544.61,788.74 1546.99,794.563 1549.37,800.351 1551.75,806.104 1554.13,811.82 1556.51,817.501 1558.89,823.143 1561.27,828.748 1563.66,834.315 1566.04,839.843 1568.42,845.333 1570.8,850.782 1573.18,856.191 1575.56,861.561 1577.94,866.889 1580.32,872.176 1582.7,877.422 1585.08,882.627 1587.46,887.789 1589.84,892.91 1592.22,897.988 1594.6,903.024 1596.98,908.016 1599.37,912.966 1601.75,917.874 1604.13,922.738 1606.51,927.558 1608.89,932.336 1611.27,937.07 1613.65,941.761 1616.03,946.408 1618.41,951.012 1620.79,955.572 1623.17,960.089 1625.55,964.563 1627.93,968.993 1630.31,973.38 1632.7,977.724 1635.08,982.025 1637.46,986.283 1639.84,990.497 1642.22,994.669 1644.6,998.798 1646.98,1002.89 1649.36,1006.93 1651.74,1010.93 1654.12,1014.89 1656.5,1018.81 1658.88,1022.69 1661.26,1026.52 1663.64,1030.31 1666.02,1034.07 1668.41,1037.78 1670.79,1041.45 1673.17,1045.08 1675.55,1048.67 1677.93,1052.22 1680.31,1055.73 1682.69,1059.21 1685.07,1062.64 1687.45,1066.03 1689.83,1069.39 1692.21,1072.7 1694.59,1075.98 1696.97,1079.22 1699.35,1082.43 1701.73,1085.59 1704.12,1088.72 1706.5,1091.82 1708.88,1094.87 1711.26,1097.89 1713.64,1100.88 1716.02,1103.83 1718.4,1106.74 1720.78,1109.62 1723.16,1112.47 1725.54,1115.28 1727.92,1118.05 1730.3,1120.8 1732.68,1123.51 1735.06,1126.18 1737.45,1128.83 1739.83,1131.44 1742.21,1134.02 1744.59,1136.57 1746.97,1139.09 1749.35,1141.58 1751.73,1144.03 1754.11,1146.46 1756.49,1148.85 1758.87,1151.22 1761.25,1153.55 1763.63,1155.86 1766.01,1158.14 1768.39,1160.39 1770.77,1162.61 1773.16,1164.81 1775.54,1166.97 1777.92,1169.11 1780.3,1171.22 1782.68,1173.31 1785.06,1175.37 1787.44,1177.4 1789.82,1179.41 1792.2,1181.39 1794.58,1183.34 1796.96,1185.27 1799.34,1187.18 1801.72,1189.06 1804.1,1190.92 1806.49,1192.76 1808.87,1194.57 1811.25,1196.35 1813.63,1198.12 1816.01,1199.86 1818.39,1201.58 1820.77,1203.28 1823.15,1204.95 1825.53,1206.61 1827.91,1208.24 1830.29,1209.85 1832.67,1211.44 1835.05,1213.02 1837.43,1214.57 1839.81,1216.1 1842.2,1217.61 1844.58,1219.1 1846.96,1220.57 1849.34,1222.02 1851.72,1223.45 1854.1,1224.87 1856.48,1226.27 1858.86,1227.64 1861.24,1229.01 1863.62,1230.35 1866,1231.67 1868.38,1232.98 1870.76,1234.27 1873.14,1235.55 1875.52,1236.81 1877.91,1238.05 1880.29,1239.27 1882.67,1240.48 1885.05,1241.68 1887.43,1242.86 1889.81,1244.02 1892.19,1245.17 1894.57,1246.3 1896.95,1247.42 1899.33,1248.52 1901.71,1249.61 1904.09,1250.69 1906.47,1251.75 1908.85,1252.8 1911.24,1253.83 1913.62,1254.85 1916,1255.86 1918.38,1256.85 1920.76,1257.83 1923.14,1258.8 1925.52,1259.76 1927.9,1260.7 1930.28,1261.64 1932.66,1262.55 1935.04,1263.46 1937.42,1264.36 1939.8,1265.24 1942.18,1266.12 1944.56,1266.98 1946.95,1267.83 1949.33,1268.67 1951.71,1269.5 1954.09,1270.31 1956.47,1271.12 1958.85,1271.92 1961.23,1272.71 1963.61,1273.48 1965.99,1274.25 1968.37,1275.01 1970.75,1275.75 1973.13,1276.49 1975.51,1277.22 1977.89,1277.94 1980.27,1278.65 1982.66,1279.35 1985.04,1280.04 1987.42,1280.72 1989.8,1281.4 1992.18,1282.06 1994.56,1282.72 1996.94,1283.37 1999.32,1284.01 2001.7,1284.64 2004.08,1285.27 2006.46,1285.88 2008.84,1286.49 2011.22,1287.09 2013.6,1287.68 2015.99,1288.27 2018.37,1288.85 2020.75,1289.42 2023.13,1289.98 2025.51,1290.54 2027.89,1291.09 2030.27,1291.63 2032.65,1292.17 2035.03,1292.7 2037.41,1293.22 2039.79,1293.73 2042.17,1294.24 2044.55,1294.75 2046.93,1295.24 2049.31,1295.73 2051.7,1296.22 2054.08,1296.7 2056.46,1297.17 2058.84,1297.64 2061.22,1298.1 2063.6,1298.55 2065.98,1299 2068.36,1299.44 2070.74,1299.88 2073.12,1300.32 2075.5,1300.74 2077.88,1301.17 2080.26,1301.58 2082.64,1301.99 2085.03,1302.4 2087.41,1302.8 2089.79,1303.2 2092.17,1303.59 2094.55,1303.98 2096.93,1304.36 2099.31,1304.74 2101.69,1305.11 2104.07,1305.48 2106.45,1305.84 2108.83,1306.2 2111.21,1306.56 2113.59,1306.91 2115.97,1307.26 2118.35,1307.6 2120.74,1307.94 2123.12,1308.27 2125.5,1308.6 2127.88,1308.93 2130.26,1309.25 2132.64,1309.57 2135.02,1309.88 2137.4,1310.19 2139.78,1310.5 2142.16,1310.8 2144.54,1311.1 2146.92,1311.4 2149.3,1311.69 2151.68,1311.98 2154.06,1312.27 2156.45,1312.55 2158.83,1312.83 2161.21,1313.1 2163.59,1313.38 2165.97,1313.65 2168.35,1313.91 2170.73,1314.17 2173.11,1314.43 2175.49,1314.69 2177.87,1314.94 2180.25,1315.19 2182.63,1315.44 2185.01,1315.69 2187.39,1315.93 2189.78,1316.17 2192.16,1316.4 2194.54,1316.64 2196.92,1316.87 2199.3,1317.1 2201.68,1317.32 2204.06,1317.54 2206.44,1317.76 2208.82,1317.98 2211.2,1318.2 2213.58,1318.41 2215.96,1318.62 2218.34,1318.83 2220.72,1319.03 2223.1,1319.24 2225.49,1319.44 2227.87,1319.63 2230.25,1319.83 2232.63,1320.02 "/>
<path clip-path="url(#clip062)" d="M328.081 1320.02 L330.461 1319.83 L332.842 1319.63 L335.223 1319.44 L337.603 1319.24 L339.984 1319.03 L342.365 1318.83 L344.745 1318.62 L347.126 1318.41 L349.507 1318.2 L351.887 1317.98 L354.268 1317.76 L356.649 1317.54 L359.03 1317.32 L361.41 1317.1 L363.791 1316.87 L366.172 1316.64 L368.552 1316.4 L370.933 1316.17 L373.314 1315.93 L375.694 1315.69 L378.075 1315.44 L380.456 1315.19 L382.836 1314.94 L385.217 1314.69 L387.598 1314.43 L389.978 1314.17 L392.359 1313.91 L394.74 1313.65 L397.12 1313.38 L399.501 1313.1 L401.882 1312.83 L404.263 1312.55 L406.643 1312.27 L409.024 1311.98 L411.405 1311.69 L413.785 1311.4 L416.166 1311.1 L418.547 1310.8 L420.927 1310.5 L423.308 1310.19 L425.689 1309.88 L428.069 1309.57 L430.45 1309.25 L432.831 1308.93 L435.211 1308.6 L437.592 1308.27 L439.973 1307.94 L442.353 1307.6 L444.734 1307.26 L447.115 1306.91 L449.496 1306.56 L451.876 1306.2 L454.257 1305.84 L456.638 1305.48 L459.018 1305.11 L461.399 1304.74 L463.78 1304.36 L466.16 1303.98 L468.541 1303.59 L470.922 1303.2 L473.302 1302.8 L475.683 1302.4 L478.064 1301.99 L480.444 1301.58 L482.825 1301.17 L485.206 1300.74 L487.586 1300.32 L489.967 1299.88 L492.348 1299.44 L494.728 1299 L497.109 1298.55 L499.49 1298.1 L501.871 1297.64 L504.251 1297.17 L506.632 1296.7 L509.013 1296.22 L511.393 1295.73 L513.774 1295.24 L516.155 1294.75 L518.535 1294.24 L520.916 1293.73 L523.297 1293.22 L525.677 1292.7 L528.058 1292.17 L530.439 1291.63 L532.819 1291.09 L535.2 1290.54 L537.581 1289.98 L539.961 1289.42 L542.342 1288.85 L544.723 1288.27 L547.104 1287.68 L549.484 1287.09 L551.865 1286.49 L554.246 1285.88 L556.626 1285.27 L559.007 1284.64 L561.388 1284.01 L563.768 1283.37 L566.149 1282.72 L568.53 1282.06 L570.91 1281.4 L573.291 1280.72 L575.672 1280.04 L578.052 1279.35 L580.433 1278.65 L582.814 1277.94 L585.194 1277.22 L587.575 1276.49 L589.956 1275.75 L592.337 1275.01 L594.717 1274.25 L597.098 1273.48 L599.479 1272.71 L601.859 1271.92 L604.24 1271.12 L606.621 1270.31 L609.001 1269.5 L611.382 1268.67 L613.763 1267.83 L616.143 1266.98 L618.524 1266.12 L620.905 1265.24 L623.285 1264.36 L625.666 1263.46 L628.047 1262.55 L630.427 1261.64 L632.808 1260.7 L635.189 1259.76 L637.569 1258.8 L639.95 1257.83 L642.331 1256.85 L644.712 1255.86 L647.092 1254.85 L649.473 1253.83 L651.854 1252.8 L654.234 1251.75 L656.615 1250.69 L658.996 1249.61 L661.376 1248.52 L663.757 1247.42 L666.138 1246.3 L668.518 1245.17 L670.899 1244.02 L673.28 1242.86 L675.66 1241.68 L678.041 1240.48 L680.422 1239.27 L682.802 1238.05 L685.183 1236.81 L687.564 1235.55 L689.945 1234.27 L692.325 1232.98 L694.706 1231.67 L697.087 1230.35 L699.467 1229.01 L701.848 1227.64 L704.229 1226.27 L706.609 1224.87 L708.99 1223.45 L711.371 1222.02 L713.751 1220.57 L716.132 1219.1 L718.513 1217.61 L720.893 1216.1 L723.274 1214.57 L725.655 1213.02 L728.035 1211.44 L730.416 1209.85 L732.797 1208.24 L735.178 1206.61 L737.558 1204.95 L739.939 1203.28 L742.32 1201.58 L744.7 1199.86 L747.081 1198.12 L749.462 1196.35 L751.842 1194.57 L754.223 1192.76 L756.604 1190.92 L758.984 1189.06 L761.365 1187.18 L763.746 1185.27 L766.126 1183.34 L768.507 1181.39 L770.888 1179.41 L773.268 1177.4 L775.649 1175.37 L778.03 1173.31 L780.411 1171.22 L782.791 1169.11 L785.172 1166.97 L787.553 1164.81 L789.933 1162.61 L792.314 1160.39 L794.695 1158.14 L797.075 1155.86 L799.456 1153.55 L801.837 1151.22 L804.217 1148.85 L806.598 1146.46 L808.979 1144.03 L811.359 1141.58 L813.74 1139.09 L816.121 1136.57 L818.501 1134.02 L820.882 1131.44 L823.263 1128.83 L825.643 1126.18 L828.024 1123.51 L830.405 1120.8 L832.786 1118.05 L835.166 1115.28 L837.547 1112.47 L839.928 1109.62 L842.308 1106.74 L844.689 1103.83 L847.07 1100.88 L849.45 1097.89 L851.831 1094.87 L854.212 1091.82 L856.592 1088.72 L858.973 1085.59 L861.354 1082.43 L863.734 1079.22 L866.115 1075.98 L868.496 1072.7 L870.876 1069.39 L873.257 1066.03 L875.638 1062.64 L878.019 1059.21 L880.399 1055.73 L882.78 1052.22 L885.161 1048.67 L887.541 1045.08 L889.922 1041.45 L892.303 1037.78 L894.683 1034.07 L897.064 1030.31 L899.445 1026.52 L901.825 1022.69 L904.206 1018.81 L906.587 1014.89 L908.967 1010.93 L911.348 1006.93 L913.729 1002.89 L916.109 998.798 L918.49 994.669 L920.871 990.497 L923.252 986.283 L925.632 982.025 L928.013 977.724 L930.394 973.38 L932.774 968.993 L935.155 964.563 L937.536 960.089 L939.916 955.572 L942.297 951.012 L944.678 946.408 L947.058 941.761 L949.439 937.07 L951.82 932.336 L954.2 927.558 L956.581 922.738 L958.962 917.874 L961.342 912.966 L963.723 908.016 L966.104 903.024 L968.484 897.988 L970.865 892.91 L973.246 887.789 L975.627 882.627 L978.007 877.422 L980.388 872.176 L982.769 866.889 L985.149 861.561 L987.53 856.191 L989.911 850.782 L992.291 845.333 L994.672 839.843 L997.053 834.315 L999.433 828.748 L1001.81 823.143 L1004.19 817.501 L1006.58 811.82 L1008.96 806.104 L1011.34 800.351 L1013.72 794.563 L1016.1 788.74 L1018.48 782.883 L1020.86 776.993 L1023.24 771.07 L1025.62 765.115 L1028 759.128 L1030.38 753.112 L1032.76 747.066 L1035.14 740.992 L1037.52 734.89 L1039.9 728.761 L1042.29 722.607 L1044.67 716.428 L1047.05 710.225 L1049.43 704 L1051.81 697.753 L1054.19 691.486 L1056.57 685.2 L1058.95 678.896 L1061.33 672.576 L1063.71 666.24 L1066.09 659.891 L1068.47 653.529 L1070.85 647.155 L1073.23 640.772 L1075.62 634.38 L1078 627.982 L1080.38 621.578 L1082.76 615.17 L1085.14 608.76 L1087.52 602.35 L1089.9 595.94 L1092.28 589.534 L1094.66 583.132 L1097.04 576.736 L1099.42 570.348 L1101.8 563.97 L1104.18 557.604 L1106.56 551.251 L1108.94 544.913 L1111.33 538.593 L1113.71 532.292 L1116.09 526.012 L1118.47 519.756 L1120.85 513.524 L1123.23 507.32 L1125.61 501.146 L1127.99 495.002 L1130.37 488.892 L1132.75 482.818 L1135.13 476.782 L1137.51 470.785 L1139.89 464.83 L1142.27 458.92 L1144.66 453.056 L1147.04 447.24 L1149.42 441.476 L1151.8 435.764 L1154.18 430.108 L1156.56 424.509 L1158.94 418.969 L1161.32 413.492 L1163.7 408.078 L1166.08 402.731 L1168.46 397.452 L1170.84 392.244 L1173.22 387.109 L1175.6 382.049 L1177.98 377.066 L1180.37 372.163 L1182.75 367.341 L1185.13 362.603 L1187.51 357.95 L1189.89 353.386 L1192.27 348.911 L1194.65 344.528 L1197.03 340.24 L1199.41 336.047 L1201.79 331.952 L1204.17 327.957 L1206.55 324.064 L1208.93 320.275 L1211.31 316.59 L1213.69 313.013 L1216.08 309.545 L1218.46 306.187 L1220.84 302.942 L1223.22 299.81 L1225.6 296.794 L1227.98 293.895 L1230.36 291.114 L1232.74 288.452 L1235.12 285.912 L1237.5 283.494 L1239.88 281.199 L1242.26 279.029 L1244.64 276.985 L1247.02 275.068 L1249.41 273.279 L1251.79 271.619 L1254.17 270.088 L1256.55 268.687 L1258.93 267.418 L1261.31 266.281 L1263.69 265.276 L1266.07 264.404 L1268.45 263.665 L1270.83 263.06 L1273.21 262.589 L1275.59 262.253 L1277.97 262.051 L1280.35 261.984 L1282.73 262.051 L1285.12 262.253 L1287.5 262.589 L1289.88 263.06 L1292.26 263.665 L1294.64 264.404 L1297.02 265.276 L1299.4 266.281 L1301.78 267.418 L1304.16 268.687 L1306.54 270.088 L1308.92 271.619 L1311.3 273.279 L1313.68 275.068 L1316.06 276.985 L1318.44 279.029 L1320.83 281.199 L1323.21 283.494 L1325.59 285.912 L1327.97 288.452 L1330.35 291.114 L1332.73 293.895 L1335.11 296.794 L1337.49 299.81 L1339.87 302.942 L1342.25 306.187 L1344.63 309.545 L1347.01 313.013 L1349.39 316.59 L1351.77 320.275 L1354.16 324.064 L1356.54 327.957 L1358.92 331.952 L1361.3 336.047 L1363.68 340.24 L1366.06 344.528 L1368.44 348.911 L1370.82 353.386 L1373.2 357.95 L1375.58 362.603 L1377.96 367.341 L1380.34 372.163 L1382.72 377.066 L1385.1 382.049 L1387.48 387.109 L1389.87 392.244 L1392.25 397.452 L1394.63 402.731 L1397.01 408.078 L1399.39 413.492 L1401.77 418.969 L1404.15 424.509 L1406.53 430.108 L1408.91 435.764 L1411.29 441.476 L1413.67 447.24 L1416.05 453.056 L1418.43 458.92 L1420.81 464.83 L1423.2 470.785 L1425.58 476.782 L1427.96 482.818 L1430.34 488.892 L1432.72 495.002 L1435.1 501.146 L1437.48 507.32 L1439.86 513.524 L1442.24 519.756 L1444.62 526.012 L1447 532.292 L1449.38 538.593 L1451.76 544.913 L1454.14 551.251 L1456.52 557.604 L1458.91 563.97 L1461.29 570.348 L1463.67 576.736 L1466.05 583.132 L1468.43 589.534 L1470.81 595.94 L1473.19 602.35 L1475.57 608.76 L1477.95 615.17 L1480.33 621.578 L1482.71 627.982 L1485.09 634.38 L1487.47 640.772 L1489.85 647.155 L1492.23 653.529 L1494.62 659.891 L1497 666.24 L1499.38 672.576 L1501.76 678.896 L1504.14 685.2 L1506.52 691.486 L1508.9 697.753 L1511.28 704 L1513.66 710.225 L1516.04 716.428 L1518.42 722.607 L1520.8 728.761 L1523.18 734.89 L1525.56 740.992 L1527.95 747.066 L1530.33 753.112 L1532.71 759.128 L1535.09 765.115 L1537.47 771.07 L1539.85 776.993 L1542.23 782.883 L1544.61 788.74 L1546.99 794.563 L1549.37 800.351 L1551.75 806.104 L1554.13 811.82 L1556.51 817.501 L1558.89 823.143 L1561.27 828.748 L1563.66 834.315 L1566.04 839.843 L1568.42 845.333 L1570.8 850.782 L1573.18 856.191 L1575.56 861.561 L1577.94 866.889 L1580.32 872.176 L1582.7 877.422 L1585.08 882.627 L1587.46 887.789 L1589.84 892.91 L1592.22 897.988 L1594.6 903.024 L1596.98 908.016 L1599.37 912.966 L1601.75 917.874 L1604.13 922.738 L1606.51 927.558 L1608.89 932.336 L1611.27 937.07 L1613.65 941.761 L1616.03 946.408 L1618.41 951.012 L1620.79 955.572 L1623.17 960.089 L1625.55 964.563 L1627.93 968.993 L1630.31 973.38 L1632.7 977.724 L1635.08 982.025 L1637.46 986.283 L1639.84 990.497 L1642.22 994.669 L1644.6 998.798 L1646.98 1002.89 L1649.36 1006.93 L1651.74 1010.93 L1654.12 1014.89 L1656.5 1018.81 L1658.88 1022.69 L1661.26 1026.52 L1663.64 1030.31 L1666.02 1034.07 L1668.41 1037.78 L1670.79 1041.45 L1673.17 1045.08 L1675.55 1048.67 L1677.93 1052.22 L1680.31 1055.73 L1682.69 1059.21 L1685.07 1062.64 L1687.45 1066.03 L1689.83 1069.39 L1692.21 1072.7 L1694.59 1075.98 L1696.97 1079.22 L1699.35 1082.43 L1701.73 1085.59 L1704.12 1088.72 L1706.5 1091.82 L1708.88 1094.87 L1711.26 1097.89 L1713.64 1100.88 L1716.02 1103.83 L1718.4 1106.74 L1720.78 1109.62 L1723.16 1112.47 L1725.54 1115.28 L1727.92 1118.05 L1730.3 1120.8 L1732.68 1123.51 L1735.06 1126.18 L1737.45 1128.83 L1739.83 1131.44 L1742.21 1134.02 L1744.59 1136.57 L1746.97 1139.09 L1749.35 1141.58 L1751.73 1144.03 L1754.11 1146.46 L1756.49 1148.85 L1756.49 1339.3 L1754.11 1339.3 L1751.73 1339.3 L1749.35 1339.3 L1746.97 1339.3 L1744.59 1339.3 L1742.21 1339.3 L1739.83 1339.3 L1737.45 1339.3 L1735.06 1339.3 L1732.68 1339.3 L1730.3 1339.3 L1727.92 1339.3 L1725.54 1339.3 L1723.16 1339.3 L1720.78 1339.3 L1718.4 1339.3 L1716.02 1339.3 L1713.64 1339.3 L1711.26 1339.3 L1708.88 1339.3 L1706.5 1339.3 L1704.12 1339.3 L1701.73 1339.3 L1699.35 1339.3 L1696.97 1339.3 L1694.59 1339.3 L1692.21 1339.3 L1689.83 1339.3 L1687.45 1339.3 L1685.07 1339.3 L1682.69 1339.3 L1680.31 1339.3 L1677.93 1339.3 L1675.55 1339.3 L1673.17 1339.3 L1670.79 1339.3 L1668.41 1339.3 L1666.02 1339.3 L1663.64 1339.3 L1661.26 1339.3 L1658.88 1339.3 L1656.5 1339.3 L1654.12 1339.3 L1651.74 1339.3 L1649.36 1339.3 L1646.98 1339.3 L1644.6 1339.3 L1642.22 1339.3 L1639.84 1339.3 L1637.46 1339.3 L1635.08 1339.3 L1632.7 1339.3 L1630.31 1339.3 L1627.93 1339.3 L1625.55 1339.3 L1623.17 1339.3 L1620.79 1339.3 L1618.41 1339.3 L1616.03 1339.3 L1613.65 1339.3 L1611.27 1339.3 L1608.89 1339.3 L1606.51 1339.3 L1604.13 1339.3 L1601.75 1339.3 L1599.37 1339.3 L1596.98 1339.3 L1594.6 1339.3 L1592.22 1339.3 L1589.84 1339.3 L1587.46 1339.3 L1585.08 1339.3 L1582.7 1339.3 L1580.32 1339.3 L1577.94 1339.3 L1575.56 1339.3 L1573.18 1339.3 L1570.8 1339.3 L1568.42 1339.3 L1566.04 1339.3 L1563.66 1339.3 L1561.27 1339.3 L1558.89 1339.3 L1556.51 1339.3 L1554.13 1339.3 L1551.75 1339.3 L1549.37 1339.3 L1546.99 1339.3 L1544.61 1339.3 L1542.23 1339.3 L1539.85 1339.3 L1537.47 1339.3 L1535.09 1339.3 L1532.71 1339.3 L1530.33 1339.3 L1527.95 1339.3 L1525.56 1339.3 L1523.18 1339.3 L1520.8 1339.3 L1518.42 1339.3 L1516.04 1339.3 L1513.66 1339.3 L1511.28 1339.3 L1508.9 1339.3 L1506.52 1339.3 L1504.14 1339.3 L1501.76 1339.3 L1499.38 1339.3 L1497 1339.3 L1494.62 1339.3 L1492.23 1339.3 L1489.85 1339.3 L1487.47 1339.3 L1485.09 1339.3 L1482.71 1339.3 L1480.33 1339.3 L1477.95 1339.3 L1475.57 1339.3 L1473.19 1339.3 L1470.81 1339.3 L1468.43 1339.3 L1466.05 1339.3 L1463.67 1339.3 L1461.29 1339.3 L1458.91 1339.3 L1456.52 1339.3 L1454.14 1339.3 L1451.76 1339.3 L1449.38 1339.3 L1447 1339.3 L1444.62 1339.3 L1442.24 1339.3 L1439.86 1339.3 L1437.48 1339.3 L1435.1 1339.3 L1432.72 1339.3 L1430.34 1339.3 L1427.96 1339.3 L1425.58 1339.3 L1423.2 1339.3 L1420.81 1339.3 L1418.43 1339.3 L1416.05 1339.3 L1413.67 1339.3 L1411.29 1339.3 L1408.91 1339.3 L1406.53 1339.3 L1404.15 1339.3 L1401.77 1339.3 L1399.39 1339.3 L1397.01 1339.3 L1394.63 1339.3 L1392.25 1339.3 L1389.87 1339.3 L1387.48 1339.3 L1385.1 1339.3 L1382.72 1339.3 L1380.34 1339.3 L1377.96 1339.3 L1375.58 1339.3 L1373.2 1339.3 L1370.82 1339.3 L1368.44 1339.3 L1366.06 1339.3 L1363.68 1339.3 L1361.3 1339.3 L1358.92 1339.3 L1356.54 1339.3 L1354.16 1339.3 L1351.77 1339.3 L1349.39 1339.3 L1347.01 1339.3 L1344.63 1339.3 L1342.25 1339.3 L1339.87 1339.3 L1337.49 1339.3 L1335.11 1339.3 L1332.73 1339.3 L1330.35 1339.3 L1327.97 1339.3 L1325.59 1339.3 L1323.21 1339.3 L1320.83 1339.3 L1318.44 1339.3 L1316.06 1339.3 L1313.68 1339.3 L1311.3 1339.3 L1308.92 1339.3 L1306.54 1339.3 L1304.16 1339.3 L1301.78 1339.3 L1299.4 1339.3 L1297.02 1339.3 L1294.64 1339.3 L1292.26 1339.3 L1289.88 1339.3 L1287.5 1339.3 L1285.12 1339.3 L1282.73 1339.3 L1280.35 1339.3 L1277.97 1339.3 L1275.59 1339.3 L1273.21 1339.3 L1270.83 1339.3 L1268.45 1339.3 L1266.07 1339.3 L1263.69 1339.3 L1261.31 1339.3 L1258.93 1339.3 L1256.55 1339.3 L1254.17 1339.3 L1251.79 1339.3 L1249.41 1339.3 L1247.02 1339.3 L1244.64 1339.3 L1242.26 1339.3 L1239.88 1339.3 L1237.5 1339.3 L1235.12 1339.3 L1232.74 1339.3 L1230.36 1339.3 L1227.98 1339.3 L1225.6 1339.3 L1223.22 1339.3 L1220.84 1339.3 L1218.46 1339.3 L1216.08 1339.3 L1213.69 1339.3 L1211.31 1339.3 L1208.93 1339.3 L1206.55 1339.3 L1204.17 1339.3 L1201.79 1339.3 L1199.41 1339.3 L1197.03 1339.3 L1194.65 1339.3 L1192.27 1339.3 L1189.89 1339.3 L1187.51 1339.3 L1185.13 1339.3 L1182.75 1339.3 L1180.37 1339.3 L1177.98 1339.3 L1175.6 1339.3 L1173.22 1339.3 L1170.84 1339.3 L1168.46 1339.3 L1166.08 1339.3 L1163.7 1339.3 L1161.32 1339.3 L1158.94 1339.3 L1156.56 1339.3 L1154.18 1339.3 L1151.8 1339.3 L1149.42 1339.3 L1147.04 1339.3 L1144.66 1339.3 L1142.27 1339.3 L1139.89 1339.3 L1137.51 1339.3 L1135.13 1339.3 L1132.75 1339.3 L1130.37 1339.3 L1127.99 1339.3 L1125.61 1339.3 L1123.23 1339.3 L1120.85 1339.3 L1118.47 1339.3 L1116.09 1339.3 L1113.71 1339.3 L1111.33 1339.3 L1108.94 1339.3 L1106.56 1339.3 L1104.18 1339.3 L1101.8 1339.3 L1099.42 1339.3 L1097.04 1339.3 L1094.66 1339.3 L1092.28 1339.3 L1089.9 1339.3 L1087.52 1339.3 L1085.14 1339.3 L1082.76 1339.3 L1080.38 1339.3 L1078 1339.3 L1075.62 1339.3 L1073.23 1339.3 L1070.85 1339.3 L1068.47 1339.3 L1066.09 1339.3 L1063.71 1339.3 L1061.33 1339.3 L1058.95 1339.3 L1056.57 1339.3 L1054.19 1339.3 L1051.81 1339.3 L1049.43 1339.3 L1047.05 1339.3 L1044.67 1339.3 L1042.29 1339.3 L1039.9 1339.3 L1037.52 1339.3 L1035.14 1339.3 L1032.76 1339.3 L1030.38 1339.3 L1028 1339.3 L1025.62 1339.3 L1023.24 1339.3 L1020.86 1339.3 L1018.48 1339.3 L1016.1 1339.3 L1013.72 1339.3 L1011.34 1339.3 L1008.96 1339.3 L1006.58 1339.3 L1004.19 1339.3 L1001.81 1339.3 L999.433 1339.3 L997.053 1339.3 L994.672 1339.3 L992.291 1339.3 L989.911 1339.3 L987.53 1339.3 L985.149 1339.3 L982.769 1339.3 L980.388 1339.3 L978.007 1339.3 L975.627 1339.3 L973.246 1339.3 L970.865 1339.3 L968.484 1339.3 L966.104 1339.3 L963.723 1339.3 L961.342 1339.3 L958.962 1339.3 L956.581 1339.3 L954.2 1339.3 L951.82 1339.3 L949.439 1339.3 L947.058 1339.3 L944.678 1339.3 L942.297 1339.3 L939.916 1339.3 L937.536 1339.3 L935.155 1339.3 L932.774 1339.3 L930.394 1339.3 L928.013 1339.3 L925.632 1339.3 L923.252 1339.3 L920.871 1339.3 L918.49 1339.3 L916.109 1339.3 L913.729 1339.3 L911.348 1339.3 L908.967 1339.3 L906.587 1339.3 L904.206 1339.3 L901.825 1339.3 L899.445 1339.3 L897.064 1339.3 L894.683 1339.3 L892.303 1339.3 L889.922 1339.3 L887.541 1339.3 L885.161 1339.3 L882.78 1339.3 L880.399 1339.3 L878.019 1339.3 L875.638 1339.3 L873.257 1339.3 L870.876 1339.3 L868.496 1339.3 L866.115 1339.3 L863.734 1339.3 L861.354 1339.3 L858.973 1339.3 L856.592 1339.3 L854.212 1339.3 L851.831 1339.3 L849.45 1339.3 L847.07 1339.3 L844.689 1339.3 L842.308 1339.3 L839.928 1339.3 L837.547 1339.3 L835.166 1339.3 L832.786 1339.3 L830.405 1339.3 L828.024 1339.3 L825.643 1339.3 L823.263 1339.3 L820.882 1339.3 L818.501 1339.3 L816.121 1339.3 L813.74 1339.3 L811.359 1339.3 L808.979 1339.3 L806.598 1339.3 L804.217 1339.3 L801.837 1339.3 L799.456 1339.3 L797.075 1339.3 L794.695 1339.3 L792.314 1339.3 L789.933 1339.3 L787.553 1339.3 L785.172 1339.3 L782.791 1339.3 L780.411 1339.3 L778.03 1339.3 L775.649 1339.3 L773.268 1339.3 L770.888 1339.3 L768.507 1339.3 L766.126 1339.3 L763.746 1339.3 L761.365 1339.3 L758.984 1339.3 L756.604 1339.3 L754.223 1339.3 L751.842 1339.3 L749.462 1339.3 L747.081 1339.3 L744.7 1339.3 L742.32 1339.3 L739.939 1339.3 L737.558 1339.3 L735.178 1339.3 L732.797 1339.3 L730.416 1339.3 L728.035 1339.3 L725.655 1339.3 L723.274 1339.3 L720.893 1339.3 L718.513 1339.3 L716.132 1339.3 L713.751 1339.3 L711.371 1339.3 L708.99 1339.3 L706.609 1339.3 L704.229 1339.3 L701.848 1339.3 L699.467 1339.3 L697.087 1339.3 L694.706 1339.3 L692.325 1339.3 L689.945 1339.3 L687.564 1339.3 L685.183 1339.3 L682.802 1339.3 L680.422 1339.3 L678.041 1339.3 L675.66 1339.3 L673.28 1339.3 L670.899 1339.3 L668.518 1339.3 L666.138 1339.3 L663.757 1339.3 L661.376 1339.3 L658.996 1339.3 L656.615 1339.3 L654.234 1339.3 L651.854 1339.3 L649.473 1339.3 L647.092 1339.3 L644.712 1339.3 L642.331 1339.3 L639.95 1339.3 L637.569 1339.3 L635.189 1339.3 L632.808 1339.3 L630.427 1339.3 L628.047 1339.3 L625.666 1339.3 L623.285 1339.3 L620.905 1339.3 L618.524 1339.3 L616.143 1339.3 L613.763 1339.3 L611.382 1339.3 L609.001 1339.3 L606.621 1339.3 L604.24 1339.3 L601.859 1339.3 L599.479 1339.3 L597.098 1339.3 L594.717 1339.3 L592.337 1339.3 L589.956 1339.3 L587.575 1339.3 L585.194 1339.3 L582.814 1339.3 L580.433 1339.3 L578.052 1339.3 L575.672 1339.3 L573.291 1339.3 L570.91 1339.3 L568.53 1339.3 L566.149 1339.3 L563.768 1339.3 L561.388 1339.3 L559.007 1339.3 L556.626 1339.3 L554.246 1339.3 L551.865 1339.3 L549.484 1339.3 L547.104 1339.3 L544.723 1339.3 L542.342 1339.3 L539.961 1339.3 L537.581 1339.3 L535.2 1339.3 L532.819 1339.3 L530.439 1339.3 L528.058 1339.3 L525.677 1339.3 L523.297 1339.3 L520.916 1339.3 L518.535 1339.3 L516.155 1339.3 L513.774 1339.3 L511.393 1339.3 L509.013 1339.3 L506.632 1339.3 L504.251 1339.3 L501.871 1339.3 L499.49 1339.3 L497.109 1339.3 L494.728 1339.3 L492.348 1339.3 L489.967 1339.3 L487.586 1339.3 L485.206 1339.3 L482.825 1339.3 L480.444 1339.3 L478.064 1339.3 L475.683 1339.3 L473.302 1339.3 L470.922 1339.3 L468.541 1339.3 L466.16 1339.3 L463.78 1339.3 L461.399 1339.3 L459.018 1339.3 L456.638 1339.3 L454.257 1339.3 L451.876 1339.3 L449.496 1339.3 L447.115 1339.3 L444.734 1339.3 L442.353 1339.3 L439.973 1339.3 L437.592 1339.3 L435.211 1339.3 L432.831 1339.3 L430.45 1339.3 L428.069 1339.3 L425.689 1339.3 L423.308 1339.3 L420.927 1339.3 L418.547 1339.3 L416.166 1339.3 L413.785 1339.3 L411.405 1339.3 L409.024 1339.3 L406.643 1339.3 L404.263 1339.3 L401.882 1339.3 L399.501 1339.3 L397.12 1339.3 L394.74 1339.3 L392.359 1339.3 L389.978 1339.3 L387.598 1339.3 L385.217 1339.3 L382.836 1339.3 L380.456 1339.3 L378.075 1339.3 L375.694 1339.3 L373.314 1339.3 L370.933 1339.3 L368.552 1339.3 L366.172 1339.3 L363.791 1339.3 L361.41 1339.3 L359.03 1339.3 L356.649 1339.3 L354.268 1339.3 L351.887 1339.3 L349.507 1339.3 L347.126 1339.3 L344.745 1339.3 L342.365 1339.3 L339.984 1339.3 L337.603 1339.3 L335.223 1339.3 L332.842 1339.3 L330.461 1339.3 L328.081 1339.3  Z" fill="#1f78b4" fill-rule="evenodd" fill-opacity="0.1"/>
<polyline clip-path="url(#clip062)" style="stroke:#a6cee2; stroke-linecap:round; stroke-linejoin:round; stroke-width:16; stroke-opacity:1; fill:none" points="328.081,1320.02 330.461,1319.83 332.842,1319.63 335.223,1319.44 337.603,1319.24 339.984,1319.03 342.365,1318.83 344.745,1318.62 347.126,1318.41 349.507,1318.2 351.887,1317.98 354.268,1317.76 356.649,1317.54 359.03,1317.32 361.41,1317.1 363.791,1316.87 366.172,1316.64 368.552,1316.4 370.933,1316.17 373.314,1315.93 375.694,1315.69 378.075,1315.44 380.456,1315.19 382.836,1314.94 385.217,1314.69 387.598,1314.43 389.978,1314.17 392.359,1313.91 394.74,1313.65 397.12,1313.38 399.501,1313.1 401.882,1312.83 404.263,1312.55 406.643,1312.27 409.024,1311.98 411.405,1311.69 413.785,1311.4 416.166,1311.1 418.547,1310.8 420.927,1310.5 423.308,1310.19 425.689,1309.88 428.069,1309.57 430.45,1309.25 432.831,1308.93 435.211,1308.6 437.592,1308.27 439.973,1307.94 442.353,1307.6 444.734,1307.26 447.115,1306.91 449.496,1306.56 451.876,1306.2 454.257,1305.84 456.638,1305.48 459.018,1305.11 461.399,1304.74 463.78,1304.36 466.16,1303.98 468.541,1303.59 470.922,1303.2 473.302,1302.8 475.683,1302.4 478.064,1301.99 480.444,1301.58 482.825,1301.17 485.206,1300.74 487.586,1300.32 489.967,1299.88 492.348,1299.44 494.728,1299 497.109,1298.55 499.49,1298.1 501.871,1297.64 504.251,1297.17 506.632,1296.7 509.013,1296.22 511.393,1295.73 513.774,1295.24 516.155,1294.75 518.535,1294.24 520.916,1293.73 523.297,1293.22 525.677,1292.7 528.058,1292.17 530.439,1291.63 532.819,1291.09 535.2,1290.54 537.581,1289.98 539.961,1289.42 542.342,1288.85 544.723,1288.27 547.104,1287.68 549.484,1287.09 551.865,1286.49 554.246,1285.88 556.626,1285.27 559.007,1284.64 561.388,1284.01 563.768,1283.37 566.149,1282.72 568.53,1282.06 570.91,1281.4 573.291,1280.72 575.672,1280.04 578.052,1279.35 580.433,1278.65 582.814,1277.94 585.194,1277.22 587.575,1276.49 589.956,1275.75 592.337,1275.01 594.717,1274.25 597.098,1273.48 599.479,1272.71 601.859,1271.92 604.24,1271.12 606.621,1270.31 609.001,1269.5 611.382,1268.67 613.763,1267.83 616.143,1266.98 618.524,1266.12 620.905,1265.24 623.285,1264.36 625.666,1263.46 628.047,1262.55 630.427,1261.64 632.808,1260.7 635.189,1259.76 637.569,1258.8 639.95,1257.83 642.331,1256.85 644.712,1255.86 647.092,1254.85 649.473,1253.83 651.854,1252.8 654.234,1251.75 656.615,1250.69 658.996,1249.61 661.376,1248.52 663.757,1247.42 666.138,1246.3 668.518,1245.17 670.899,1244.02 673.28,1242.86 675.66,1241.68 678.041,1240.48 680.422,1239.27 682.802,1238.05 685.183,1236.81 687.564,1235.55 689.945,1234.27 692.325,1232.98 694.706,1231.67 697.087,1230.35 699.467,1229.01 701.848,1227.64 704.229,1226.27 706.609,1224.87 708.99,1223.45 711.371,1222.02 713.751,1220.57 716.132,1219.1 718.513,1217.61 720.893,1216.1 723.274,1214.57 725.655,1213.02 728.035,1211.44 730.416,1209.85 732.797,1208.24 735.178,1206.61 737.558,1204.95 739.939,1203.28 742.32,1201.58 744.7,1199.86 747.081,1198.12 749.462,1196.35 751.842,1194.57 754.223,1192.76 756.604,1190.92 758.984,1189.06 761.365,1187.18 763.746,1185.27 766.126,1183.34 768.507,1181.39 770.888,1179.41 773.268,1177.4 775.649,1175.37 778.03,1173.31 780.411,1171.22 782.791,1169.11 785.172,1166.97 787.553,1164.81 789.933,1162.61 792.314,1160.39 794.695,1158.14 797.075,1155.86 799.456,1153.55 801.837,1151.22 804.217,1148.85 806.598,1146.46 808.979,1144.03 811.359,1141.58 813.74,1139.09 816.121,1136.57 818.501,1134.02 820.882,1131.44 823.263,1128.83 825.643,1126.18 828.024,1123.51 830.405,1120.8 832.786,1118.05 835.166,1115.28 837.547,1112.47 839.928,1109.62 842.308,1106.74 844.689,1103.83 847.07,1100.88 849.45,1097.89 851.831,1094.87 854.212,1091.82 856.592,1088.72 858.973,1085.59 861.354,1082.43 863.734,1079.22 866.115,1075.98 868.496,1072.7 870.876,1069.39 873.257,1066.03 875.638,1062.64 878.019,1059.21 880.399,1055.73 882.78,1052.22 885.161,1048.67 887.541,1045.08 889.922,1041.45 892.303,1037.78 894.683,1034.07 897.064,1030.31 899.445,1026.52 901.825,1022.69 904.206,1018.81 906.587,1014.89 908.967,1010.93 911.348,1006.93 913.729,1002.89 916.109,998.798 918.49,994.669 920.871,990.497 923.252,986.283 925.632,982.025 928.013,977.724 930.394,973.38 932.774,968.993 935.155,964.563 937.536,960.089 939.916,955.572 942.297,951.012 944.678,946.408 947.058,941.761 949.439,937.07 951.82,932.336 954.2,927.558 956.581,922.738 958.962,917.874 961.342,912.966 963.723,908.016 966.104,903.024 968.484,897.988 970.865,892.91 973.246,887.789 975.627,882.627 978.007,877.422 980.388,872.176 982.769,866.889 985.149,861.561 987.53,856.191 989.911,850.782 992.291,845.333 994.672,839.843 997.053,834.315 999.433,828.748 1001.81,823.143 1004.19,817.501 1006.58,811.82 1008.96,806.104 1011.34,800.351 1013.72,794.563 1016.1,788.74 1018.48,782.883 1020.86,776.993 1023.24,771.07 1025.62,765.115 1028,759.128 1030.38,753.112 1032.76,747.066 1035.14,740.992 1037.52,734.89 1039.9,728.761 1042.29,722.607 1044.67,716.428 1047.05,710.225 1049.43,704 1051.81,697.753 1054.19,691.486 1056.57,685.2 1058.95,678.896 1061.33,672.576 1063.71,666.24 1066.09,659.891 1068.47,653.529 1070.85,647.155 1073.23,640.772 1075.62,634.38 1078,627.982 1080.38,621.578 1082.76,615.17 1085.14,608.76 1087.52,602.35 1089.9,595.94 1092.28,589.534 1094.66,583.132 1097.04,576.736 1099.42,570.348 1101.8,563.97 1104.18,557.604 1106.56,551.251 1108.94,544.913 1111.33,538.593 1113.71,532.292 1116.09,526.012 1118.47,519.756 1120.85,513.524 1123.23,507.32 1125.61,501.146 1127.99,495.002 1130.37,488.892 1132.75,482.818 1135.13,476.782 1137.51,470.785 1139.89,464.83 1142.27,458.92 1144.66,453.056 1147.04,447.24 1149.42,441.476 1151.8,435.764 1154.18,430.108 1156.56,424.509 1158.94,418.969 1161.32,413.492 1163.7,408.078 1166.08,402.731 1168.46,397.452 1170.84,392.244 1173.22,387.109 1175.6,382.049 1177.98,377.066 1180.37,372.163 1182.75,367.341 1185.13,362.603 1187.51,357.95 1189.89,353.386 1192.27,348.911 1194.65,344.528 1197.03,340.24 1199.41,336.047 1201.79,331.952 1204.17,327.957 1206.55,324.064 1208.93,320.275 1211.31,316.59 1213.69,313.013 1216.08,309.545 1218.46,306.187 1220.84,302.942 1223.22,299.81 1225.6,296.794 1227.98,293.895 1230.36,291.114 1232.74,288.452 1235.12,285.912 1237.5,283.494 1239.88,281.199 1242.26,279.029 1244.64,276.985 1247.02,275.068 1249.41,273.279 1251.79,271.619 1254.17,270.088 1256.55,268.687 1258.93,267.418 1261.31,266.281 1263.69,265.276 1266.07,264.404 1268.45,263.665 1270.83,263.06 1273.21,262.589 1275.59,262.253 1277.97,262.051 1280.35,261.984 1282.73,262.051 1285.12,262.253 1287.5,262.589 1289.88,263.06 1292.26,263.665 1294.64,264.404 1297.02,265.276 1299.4,266.281 1301.78,267.418 1304.16,268.687 1306.54,270.088 1308.92,271.619 1311.3,273.279 1313.68,275.068 1316.06,276.985 1318.44,279.029 1320.83,281.199 1323.21,283.494 1325.59,285.912 1327.97,288.452 1330.35,291.114 1332.73,293.895 1335.11,296.794 1337.49,299.81 1339.87,302.942 1342.25,306.187 1344.63,309.545 1347.01,313.013 1349.39,316.59 1351.77,320.275 1354.16,324.064 1356.54,327.957 1358.92,331.952 1361.3,336.047 1363.68,340.24 1366.06,344.528 1368.44,348.911 1370.82,353.386 1373.2,357.95 1375.58,362.603 1377.96,367.341 1380.34,372.163 1382.72,377.066 1385.1,382.049 1387.48,387.109 1389.87,392.244 1392.25,397.452 1394.63,402.731 1397.01,408.078 1399.39,413.492 1401.77,418.969 1404.15,424.509 1406.53,430.108 1408.91,435.764 1411.29,441.476 1413.67,447.24 1416.05,453.056 1418.43,458.92 1420.81,464.83 1423.2,470.785 1425.58,476.782 1427.96,482.818 1430.34,488.892 1432.72,495.002 1435.1,501.146 1437.48,507.32 1439.86,513.524 1442.24,519.756 1444.62,526.012 1447,532.292 1449.38,538.593 1451.76,544.913 1454.14,551.251 1456.52,557.604 1458.91,563.97 1461.29,570.348 1463.67,576.736 1466.05,583.132 1468.43,589.534 1470.81,595.94 1473.19,602.35 1475.57,608.76 1477.95,615.17 1480.33,621.578 1482.71,627.982 1485.09,634.38 1487.47,640.772 1489.85,647.155 1492.23,653.529 1494.62,659.891 1497,666.24 1499.38,672.576 1501.76,678.896 1504.14,685.2 1506.52,691.486 1508.9,697.753 1511.28,704 1513.66,710.225 1516.04,716.428 1518.42,722.607 1520.8,728.761 1523.18,734.89 1525.56,740.992 1527.95,747.066 1530.33,753.112 1532.71,759.128 1535.09,765.115 1537.47,771.07 1539.85,776.993 1542.23,782.883 1544.61,788.74 1546.99,794.563 1549.37,800.351 1551.75,806.104 1554.13,811.82 1556.51,817.501 1558.89,823.143 1561.27,828.748 1563.66,834.315 1566.04,839.843 1568.42,845.333 1570.8,850.782 1573.18,856.191 1575.56,861.561 1577.94,866.889 1580.32,872.176 1582.7,877.422 1585.08,882.627 1587.46,887.789 1589.84,892.91 1592.22,897.988 1594.6,903.024 1596.98,908.016 1599.37,912.966 1601.75,917.874 1604.13,922.738 1606.51,927.558 1608.89,932.336 1611.27,937.07 1613.65,941.761 1616.03,946.408 1618.41,951.012 1620.79,955.572 1623.17,960.089 1625.55,964.563 1627.93,968.993 1630.31,973.38 1632.7,977.724 1635.08,982.025 1637.46,986.283 1639.84,990.497 1642.22,994.669 1644.6,998.798 1646.98,1002.89 1649.36,1006.93 1651.74,1010.93 1654.12,1014.89 1656.5,1018.81 1658.88,1022.69 1661.26,1026.52 1663.64,1030.31 1666.02,1034.07 1668.41,1037.78 1670.79,1041.45 1673.17,1045.08 1675.55,1048.67 1677.93,1052.22 1680.31,1055.73 1682.69,1059.21 1685.07,1062.64 1687.45,1066.03 1689.83,1069.39 1692.21,1072.7 1694.59,1075.98 1696.97,1079.22 1699.35,1082.43 1701.73,1085.59 1704.12,1088.72 1706.5,1091.82 1708.88,1094.87 1711.26,1097.89 1713.64,1100.88 1716.02,1103.83 1718.4,1106.74 1720.78,1109.62 1723.16,1112.47 1725.54,1115.28 1727.92,1118.05 1730.3,1120.8 1732.68,1123.51 1735.06,1126.18 1737.45,1128.83 1739.83,1131.44 1742.21,1134.02 1744.59,1136.57 1746.97,1139.09 1749.35,1141.58 1751.73,1144.03 1754.11,1146.46 1756.49,1148.85 "/>
<polyline clip-path="url(#clip062)" style="stroke:#1f78b4; stroke-linecap:round; stroke-linejoin:round; stroke-width:16; stroke-opacity:1; fill:none" points="328.081,1320.02 330.461,1319.83 332.842,1319.63 335.223,1319.44 337.603,1319.24 339.984,1319.03 342.365,1318.83 344.745,1318.62 347.126,1318.41 349.507,1318.2 351.887,1317.98 354.268,1317.76 356.649,1317.54 359.03,1317.32 361.41,1317.1 363.791,1316.87 366.172,1316.64 368.552,1316.4 370.933,1316.17 373.314,1315.93 375.694,1315.69 378.075,1315.44 380.456,1315.19 382.836,1314.94 385.217,1314.69 387.598,1314.43 389.978,1314.17 392.359,1313.91 394.74,1313.65 397.12,1313.38 399.501,1313.1 401.882,1312.83 404.263,1312.55 406.643,1312.27 409.024,1311.98 411.405,1311.69 413.785,1311.4 416.166,1311.1 418.547,1310.8 420.927,1310.5 423.308,1310.19 425.689,1309.88 428.069,1309.57 430.45,1309.25 432.831,1308.93 435.211,1308.6 437.592,1308.27 439.973,1307.94 442.353,1307.6 444.734,1307.26 447.115,1306.91 449.496,1306.56 451.876,1306.2 454.257,1305.84 456.638,1305.48 459.018,1305.11 461.399,1304.74 463.78,1304.36 466.16,1303.98 468.541,1303.59 470.922,1303.2 473.302,1302.8 475.683,1302.4 478.064,1301.99 480.444,1301.58 482.825,1301.17 485.206,1300.74 487.586,1300.32 489.967,1299.88 492.348,1299.44 494.728,1299 497.109,1298.55 499.49,1298.1 501.871,1297.64 504.251,1297.17 506.632,1296.7 509.013,1296.22 511.393,1295.73 513.774,1295.24 516.155,1294.75 518.535,1294.24 520.916,1293.73 523.297,1293.22 525.677,1292.7 528.058,1292.17 530.439,1291.63 532.819,1291.09 535.2,1290.54 537.581,1289.98 539.961,1289.42 542.342,1288.85 544.723,1288.27 547.104,1287.68 549.484,1287.09 551.865,1286.49 554.246,1285.88 556.626,1285.27 559.007,1284.64 561.388,1284.01 563.768,1283.37 566.149,1282.72 568.53,1282.06 570.91,1281.4 573.291,1280.72 575.672,1280.04 578.052,1279.35 580.433,1278.65 582.814,1277.94 585.194,1277.22 587.575,1276.49 589.956,1275.75 592.337,1275.01 594.717,1274.25 597.098,1273.48 599.479,1272.71 601.859,1271.92 604.24,1271.12 606.621,1270.31 609.001,1269.5 611.382,1268.67 613.763,1267.83 616.143,1266.98 618.524,1266.12 620.905,1265.24 623.285,1264.36 625.666,1263.46 628.047,1262.55 630.427,1261.64 632.808,1260.7 635.189,1259.76 637.569,1258.8 639.95,1257.83 642.331,1256.85 644.712,1255.86 647.092,1254.85 649.473,1253.83 651.854,1252.8 654.234,1251.75 656.615,1250.69 658.996,1249.61 661.376,1248.52 663.757,1247.42 666.138,1246.3 668.518,1245.17 670.899,1244.02 673.28,1242.86 675.66,1241.68 678.041,1240.48 680.422,1239.27 682.802,1238.05 685.183,1236.81 687.564,1235.55 689.945,1234.27 692.325,1232.98 694.706,1231.67 697.087,1230.35 699.467,1229.01 701.848,1227.64 704.229,1226.27 706.609,1224.87 708.99,1223.45 711.371,1222.02 713.751,1220.57 716.132,1219.1 718.513,1217.61 720.893,1216.1 723.274,1214.57 725.655,1213.02 728.035,1211.44 730.416,1209.85 732.797,1208.24 735.178,1206.61 737.558,1204.95 739.939,1203.28 742.32,1201.58 744.7,1199.86 747.081,1198.12 749.462,1196.35 751.842,1194.57 754.223,1192.76 756.604,1190.92 758.984,1189.06 761.365,1187.18 763.746,1185.27 766.126,1183.34 768.507,1181.39 770.888,1179.41 773.268,1177.4 775.649,1175.37 778.03,1173.31 780.411,1171.22 782.791,1169.11 785.172,1166.97 787.553,1164.81 789.933,1162.61 792.314,1160.39 794.695,1158.14 797.075,1155.86 799.456,1153.55 801.837,1151.22 804.217,1148.85 806.598,1146.46 808.979,1144.03 811.359,1141.58 813.74,1139.09 816.121,1136.57 818.501,1134.02 820.882,1131.44 823.263,1128.83 825.643,1126.18 828.024,1123.51 830.405,1120.8 832.786,1118.05 835.166,1115.28 837.547,1112.47 839.928,1109.62 842.308,1106.74 844.689,1103.83 847.07,1100.88 849.45,1097.89 851.831,1094.87 854.212,1091.82 856.592,1088.72 858.973,1085.59 861.354,1082.43 863.734,1079.22 866.115,1075.98 868.496,1072.7 870.876,1069.39 873.257,1066.03 875.638,1062.64 878.019,1059.21 880.399,1055.73 882.78,1052.22 885.161,1048.67 887.541,1045.08 889.922,1041.45 892.303,1037.78 894.683,1034.07 897.064,1030.31 899.445,1026.52 901.825,1022.69 904.206,1018.81 906.587,1014.89 908.967,1010.93 911.348,1006.93 913.729,1002.89 916.109,998.798 918.49,994.669 920.871,990.497 923.252,986.283 925.632,982.025 928.013,977.724 930.394,973.38 932.774,968.993 935.155,964.563 937.536,960.089 939.916,955.572 942.297,951.012 944.678,946.408 947.058,941.761 949.439,937.07 951.82,932.336 954.2,927.558 956.581,922.738 958.962,917.874 961.342,912.966 963.723,908.016 966.104,903.024 968.484,897.988 970.865,892.91 973.246,887.789 975.627,882.627 978.007,877.422 980.388,872.176 982.769,866.889 985.149,861.561 987.53,856.191 989.911,850.782 992.291,845.333 994.672,839.843 997.053,834.315 999.433,828.748 1001.81,823.143 1004.19,817.501 1006.58,811.82 1008.96,806.104 1011.34,800.351 1013.72,794.563 1016.1,788.74 1018.48,782.883 1020.86,776.993 1023.24,771.07 1025.62,765.115 1028,759.128 1030.38,753.112 1032.76,747.066 1035.14,740.992 1037.52,734.89 1039.9,728.761 1042.29,722.607 1044.67,716.428 1047.05,710.225 1049.43,704 1051.81,697.753 1054.19,691.486 1056.57,685.2 1058.95,678.896 1061.33,672.576 1063.71,666.24 1066.09,659.891 1068.47,653.529 1070.85,647.155 1073.23,640.772 1075.62,634.38 1078,627.982 1080.38,621.578 1082.76,615.17 1085.14,608.76 1087.52,602.35 1089.9,595.94 1092.28,589.534 1094.66,583.132 1097.04,576.736 1099.42,570.348 1101.8,563.97 1104.18,557.604 1106.56,551.251 1108.94,544.913 1111.33,538.593 1113.71,532.292 1116.09,526.012 1118.47,519.756 1120.85,513.524 1123.23,507.32 1125.61,501.146 1127.99,495.002 1130.37,488.892 1132.75,482.818 1135.13,476.782 1137.51,470.785 1139.89,464.83 1142.27,458.92 1144.66,453.056 1147.04,447.24 1149.42,441.476 1151.8,435.764 1154.18,430.108 1156.56,424.509 1158.94,418.969 1161.32,413.492 1163.7,408.078 1166.08,402.731 1168.46,397.452 1170.84,392.244 1173.22,387.109 1175.6,382.049 1177.98,377.066 1180.37,372.163 1182.75,367.341 1185.13,362.603 1187.51,357.95 1189.89,353.386 1192.27,348.911 1194.65,344.528 1197.03,340.24 1199.41,336.047 1201.79,331.952 1204.17,327.957 1206.55,324.064 1208.93,320.275 1211.31,316.59 1213.69,313.013 1216.08,309.545 1218.46,306.187 1220.84,302.942 1223.22,299.81 1225.6,296.794 1227.98,293.895 1230.36,291.114 1232.74,288.452 1235.12,285.912 1237.5,283.494 1239.88,281.199 1242.26,279.029 1244.64,276.985 1247.02,275.068 1249.41,273.279 1251.79,271.619 1254.17,270.088 1256.55,268.687 1258.93,267.418 1261.31,266.281 1263.69,265.276 1266.07,264.404 1268.45,263.665 1270.83,263.06 1273.21,262.589 1275.59,262.253 1277.97,262.051 1280.35,261.984 1282.73,262.051 1285.12,262.253 1287.5,262.589 1289.88,263.06 1292.26,263.665 1294.64,264.404 1297.02,265.276 1299.4,266.281 1301.78,267.418 1304.16,268.687 1306.54,270.088 1308.92,271.619 1311.3,273.279 1313.68,275.068 1316.06,276.985 1318.44,279.029 1320.83,281.199 1323.21,283.494 1325.59,285.912 1327.97,288.452 1330.35,291.114 1332.73,293.895 1335.11,296.794 1337.49,299.81 1339.87,302.942 1342.25,306.187 1344.63,309.545 1347.01,313.013 1349.39,316.59 1351.77,320.275 1354.16,324.064 1356.54,327.957 1358.92,331.952 1361.3,336.047 1363.68,340.24 1366.06,344.528 1368.44,348.911 1370.82,353.386 1373.2,357.95 1375.58,362.603 1377.96,367.341 1380.34,372.163 1382.72,377.066 1385.1,382.049 1387.48,387.109 1389.87,392.244 1392.25,397.452 1394.63,402.731 1397.01,408.078 1399.39,413.492 1401.77,418.969 1404.15,424.509 1406.53,430.108 1408.91,435.764 1411.29,441.476 1413.67,447.24 1416.05,453.056 1418.43,458.92 1420.81,464.83 1423.2,470.785 1425.58,476.782 1427.96,482.818 1430.34,488.892 1432.72,495.002 1435.1,501.146 1437.48,507.32 1439.86,513.524 1442.24,519.756 1444.62,526.012 1447,532.292 1449.38,538.593 1451.76,544.913 1454.14,551.251 1456.52,557.604 1458.91,563.97 1461.29,570.348 1463.67,576.736 1466.05,583.132 1468.43,589.534 1470.81,595.94 1473.19,602.35 1475.57,608.76 1477.95,615.17 1480.33,621.578 1482.71,627.982 1485.09,634.38 1487.47,640.772 1489.85,647.155 1492.23,653.529 1494.62,659.891 1497,666.24 1499.38,672.576 1501.76,678.896 1504.14,685.2 1506.52,691.486 1508.9,697.753 1511.28,704 1513.66,710.225 1516.04,716.428 1518.42,722.607 1520.8,728.761 1523.18,734.89 1525.56,740.992 1527.95,747.066 1530.33,753.112 1532.71,759.128 1535.09,765.115 1537.47,771.07 1539.85,776.993 1542.23,782.883 1544.61,788.74 1546.99,794.563 1549.37,800.351 1551.75,806.104 1554.13,811.82 1556.51,817.501 1558.89,823.143 1561.27,828.748 1563.66,834.315 1566.04,839.843 1568.42,845.333 1570.8,850.782 1573.18,856.191 1575.56,861.561 1577.94,866.889 1580.32,872.176 1582.7,877.422 1585.08,882.627 1587.46,887.789 1589.84,892.91 1592.22,897.988 1594.6,903.024 1596.98,908.016 1599.37,912.966 1601.75,917.874 1604.13,922.738 1606.51,927.558 1608.89,932.336 1611.27,937.07 1613.65,941.761 1616.03,946.408 1618.41,951.012 1620.79,955.572 1623.17,960.089 1625.55,964.563 1627.93,968.993 1630.31,973.38 1632.7,977.724 1635.08,982.025 1637.46,986.283 1639.84,990.497 1642.22,994.669 1644.6,998.798 1646.98,1002.89 1649.36,1006.93 1651.74,1010.93 1654.12,1014.89 1656.5,1018.81 1658.88,1022.69 1661.26,1026.52 1663.64,1030.31 1666.02,1034.07 1668.41,1037.78 1670.79,1041.45 1673.17,1045.08 1675.55,1048.67 1677.93,1052.22 1680.31,1055.73 1682.69,1059.21 1685.07,1062.64 1687.45,1066.03 1689.83,1069.39 1692.21,1072.7 1694.59,1075.98 1696.97,1079.22 1699.35,1082.43 1701.73,1085.59 1704.12,1088.72 1706.5,1091.82 1708.88,1094.87 1711.26,1097.89 1713.64,1100.88 1716.02,1103.83 1718.4,1106.74 1720.78,1109.62 1723.16,1112.47 1725.54,1115.28 1727.92,1118.05 1730.3,1120.8 1732.68,1123.51 1735.06,1126.18 1737.45,1128.83 1739.83,1131.44 1742.21,1134.02 1744.59,1136.57 1746.97,1139.09 1749.35,1141.58 1751.73,1144.03 1754.11,1146.46 1756.49,1148.85 1758.87,1151.22 1761.25,1153.55 1763.63,1155.86 1766.01,1158.14 1768.39,1160.39 1770.77,1162.61 1773.16,1164.81 1775.54,1166.97 1777.92,1169.11 1780.3,1171.22 1782.68,1173.31 1785.06,1175.37 1787.44,1177.4 1789.82,1179.41 1792.2,1181.39 1794.58,1183.34 1796.96,1185.27 1799.34,1187.18 1801.72,1189.06 1804.1,1190.92 1806.49,1192.76 1808.87,1194.57 1811.25,1196.35 1813.63,1198.12 1816.01,1199.86 1818.39,1201.58 1820.77,1203.28 1823.15,1204.95 1825.53,1206.61 1827.91,1208.24 1830.29,1209.85 1832.67,1211.44 1835.05,1213.02 1837.43,1214.57 1839.81,1216.1 1842.2,1217.61 1844.58,1219.1 1846.96,1220.57 1849.34,1222.02 1851.72,1223.45 1854.1,1224.87 1856.48,1226.27 1858.86,1227.64 1861.24,1229.01 1863.62,1230.35 1866,1231.67 1868.38,1232.98 1870.76,1234.27 1873.14,1235.55 1875.52,1236.81 1877.91,1238.05 1880.29,1239.27 1882.67,1240.48 1885.05,1241.68 1887.43,1242.86 1889.81,1244.02 1892.19,1245.17 1894.57,1246.3 1896.95,1247.42 1899.33,1248.52 1901.71,1249.61 1904.09,1250.69 1906.47,1251.75 1908.85,1252.8 1911.24,1253.83 1913.62,1254.85 1916,1255.86 1918.38,1256.85 1920.76,1257.83 1923.14,1258.8 1925.52,1259.76 1927.9,1260.7 1930.28,1261.64 1932.66,1262.55 1935.04,1263.46 1937.42,1264.36 1939.8,1265.24 1942.18,1266.12 1944.56,1266.98 1946.95,1267.83 1949.33,1268.67 1951.71,1269.5 1954.09,1270.31 1956.47,1271.12 1958.85,1271.92 1961.23,1272.71 1963.61,1273.48 1965.99,1274.25 1968.37,1275.01 1970.75,1275.75 1973.13,1276.49 1975.51,1277.22 1977.89,1277.94 1980.27,1278.65 1982.66,1279.35 1985.04,1280.04 1987.42,1280.72 1989.8,1281.4 1992.18,1282.06 1994.56,1282.72 1996.94,1283.37 1999.32,1284.01 2001.7,1284.64 2004.08,1285.27 2006.46,1285.88 2008.84,1286.49 2011.22,1287.09 2013.6,1287.68 2015.99,1288.27 2018.37,1288.85 2020.75,1289.42 2023.13,1289.98 2025.51,1290.54 2027.89,1291.09 2030.27,1291.63 2032.65,1292.17 2035.03,1292.7 2037.41,1293.22 2039.79,1293.73 2042.17,1294.24 2044.55,1294.75 2046.93,1295.24 2049.31,1295.73 2051.7,1296.22 2054.08,1296.7 2056.46,1297.17 2058.84,1297.64 2061.22,1298.1 2063.6,1298.55 2065.98,1299 2068.36,1299.44 2070.74,1299.88 2073.12,1300.32 2075.5,1300.74 2077.88,1301.17 2080.26,1301.58 2082.64,1301.99 2085.03,1302.4 2087.41,1302.8 2089.79,1303.2 2092.17,1303.59 2094.55,1303.98 2096.93,1304.36 2099.31,1304.74 2101.69,1305.11 2104.07,1305.48 2106.45,1305.84 2108.83,1306.2 2111.21,1306.56 2113.59,1306.91 2115.97,1307.26 2118.35,1307.6 2120.74,1307.94 2123.12,1308.27 2125.5,1308.6 2127.88,1308.93 2130.26,1309.25 2132.64,1309.57 2135.02,1309.88 2137.4,1310.19 2139.78,1310.5 2142.16,1310.8 2144.54,1311.1 2146.92,1311.4 2149.3,1311.69 2151.68,1311.98 2154.06,1312.27 2156.45,1312.55 2158.83,1312.83 2161.21,1313.1 2163.59,1313.38 2165.97,1313.65 2168.35,1313.91 2170.73,1314.17 2173.11,1314.43 2175.49,1314.69 2177.87,1314.94 2180.25,1315.19 2182.63,1315.44 2185.01,1315.69 2187.39,1315.93 2189.78,1316.17 2192.16,1316.4 2194.54,1316.64 2196.92,1316.87 2199.3,1317.1 2201.68,1317.32 2204.06,1317.54 2206.44,1317.76 2208.82,1317.98 2211.2,1318.2 2213.58,1318.41 2215.96,1318.62 2218.34,1318.83 2220.72,1319.03 2223.1,1319.24 2225.49,1319.44 2227.87,1319.63 2230.25,1319.83 2232.63,1320.02 "/>
<polyline clip-path="url(#clip062)" style="stroke:#000000; stroke-linecap:round; stroke-linejoin:round; stroke-width:8; stroke-opacity:1; fill:none" points="2018.37,1181.29 1875.52,1296.2 "/>
<polyline clip-path="url(#clip062)" style="stroke:#000000; stroke-linecap:round; stroke-linejoin:round; stroke-width:8; stroke-opacity:1; fill:none" points="1914.86,1287.66 1875.52,1296.2 1892.29,1259.61 "/>
<polyline clip-path="url(#clip062)" style="stroke:#000000; stroke-linecap:round; stroke-linejoin:round; stroke-width:8; stroke-opacity:1; fill:none" points="1875.52,1296.2 2018.37,1181.29 "/>
<polyline clip-path="url(#clip062)" style="stroke:#000000; stroke-linecap:round; stroke-linejoin:round; stroke-width:8; stroke-opacity:1; fill:none" points="732.797,750.365 1280.35,1052.01 "/>
<polyline clip-path="url(#clip062)" style="stroke:#000000; stroke-linecap:round; stroke-linejoin:round; stroke-width:8; stroke-opacity:1; fill:none" points="1257.51,1018.88 1280.35,1052.01 1240.14,1050.41 "/>
<polyline clip-path="url(#clip062)" style="stroke:#000000; stroke-linecap:round; stroke-linejoin:round; stroke-width:8; stroke-opacity:1; fill:none" points="1280.35,1052.01 732.797,750.365 "/>
<path clip-path="url(#clip060)" d="M1855.86 1080.61 Q1855.86 1057.69 1861.65 1045.21 Q1869.72 1026.64 1888.75 1026.64 Q1892.78 1026.64 1896.97 1027.78 Q1901.23 1028.84 1906.56 1033.03 Q1911.96 1037.22 1915.24 1044.07 Q1921.48 1057.31 1921.48 1080.61 Q1921.48 1103.37 1915.69 1115.78 Q1907.24 1133.89 1888.59 1133.89 Q1881.59 1133.89 1874.44 1130.32 Q1867.36 1126.74 1862.86 1118.14 Q1855.86 1105.27 1855.86 1080.61 M1868.8 1078.7 Q1868.8 1102.23 1870.48 1111.59 Q1872.38 1121.71 1877.56 1126.13 Q1882.81 1130.47 1888.59 1130.47 Q1894.84 1130.47 1900.01 1125.82 Q1905.26 1121.1 1906.86 1110.98 Q1908.61 1101.01 1908.54 1078.7 Q1908.54 1057.01 1907.02 1048.33 Q1904.96 1038.21 1899.48 1034.17 Q1894.07 1030.06 1888.59 1030.06 Q1886.54 1030.06 1884.33 1030.67 Q1882.2 1031.28 1879.08 1033.03 Q1875.96 1034.78 1873.52 1039.12 Q1871.16 1043.46 1870.02 1050.01 Q1868.8 1058.46 1868.8 1078.7 Z" fill="#000000" fill-rule="evenodd" fill-opacity="1" /><path clip-path="url(#clip060)" d="M1935.42 1127.96 Q1933.06 1125.44 1933.06 1122.17 Q1933.06 1118.9 1935.42 1116.54 Q1937.78 1114.1 1941.36 1114.1 Q1944.79 1114.1 1947.07 1116.39 Q1949.43 1118.59 1949.43 1122.25 Q1949.43 1125.82 1946.92 1128.18 Q1944.48 1130.47 1941.36 1130.47 Q1937.78 1130.47 1935.42 1127.96 Z" fill="#000000" fill-rule="evenodd" fill-opacity="1" /><path clip-path="url(#clip060)" d="M1975.96 1080.61 Q1975.96 1057.69 1981.75 1045.21 Q1989.82 1026.64 2008.85 1026.64 Q2012.88 1026.64 2017.07 1027.78 Q2021.33 1028.84 2026.66 1033.03 Q2032.07 1037.22 2035.34 1044.07 Q2041.58 1057.31 2041.58 1080.61 Q2041.58 1103.37 2035.8 1115.78 Q2027.35 1133.89 2008.7 1133.89 Q2001.69 1133.89 1994.54 1130.32 Q1987.46 1126.74 1982.97 1118.14 Q1975.96 1105.27 1975.96 1080.61 M1988.9 1078.7 Q1988.9 1102.23 1990.58 1111.59 Q1992.48 1121.71 1997.66 1126.13 Q2002.91 1130.47 2008.7 1130.47 Q2014.94 1130.47 2020.11 1125.82 Q2025.37 1121.1 2026.97 1110.98 Q2028.72 1101.01 2028.64 1078.7 Q2028.64 1057.01 2027.12 1048.33 Q2025.06 1038.21 2019.58 1034.17 Q2014.18 1030.06 2008.7 1030.06 Q2006.64 1030.06 2004.43 1030.67 Q2002.3 1031.28 1999.18 1033.03 Q1996.06 1034.78 1993.62 1039.12 Q1991.26 1043.46 1990.12 1050.01 Q1988.9 1058.46 1988.9 1078.7 Z" fill="#000000" fill-rule="evenodd" fill-opacity="1" /><path clip-path="url(#clip060)" d="M2053.79 1130.47 Q2053.79 1127.65 2054.02 1126.81 Q2054.32 1125.98 2055.54 1124.68 L2085.46 1091.34 Q2101.82 1072.92 2101.82 1056.86 Q2101.82 1046.43 2096.34 1038.97 Q2090.94 1031.51 2080.97 1031.51 Q2074.12 1031.51 2068.33 1035.69 Q2062.54 1039.88 2059.88 1047.34 Q2060.34 1047.19 2061.94 1047.19 Q2065.82 1047.19 2067.95 1049.63 Q2070.16 1052.06 2070.16 1055.33 Q2070.16 1059.52 2067.42 1061.58 Q2064.75 1063.56 2062.09 1063.56 Q2061.02 1063.56 2059.58 1063.33 Q2058.21 1063.1 2056 1060.97 Q2053.79 1058.76 2053.79 1054.88 Q2053.79 1043.99 2062.01 1035.31 Q2070.31 1026.64 2082.95 1026.64 Q2097.26 1026.64 2106.62 1035.16 Q2116.06 1043.61 2116.06 1056.86 Q2116.06 1061.5 2114.61 1065.76 Q2113.24 1069.95 2111.34 1073.22 Q2109.51 1076.5 2104.49 1081.75 Q2099.46 1087 2095.43 1090.73 Q2091.4 1094.46 2082.34 1102.38 L2065.82 1118.44 L2093.91 1118.44 Q2107.61 1118.44 2108.67 1117.22 Q2110.2 1115.01 2112.1 1103.37 L2116.06 1103.37 L2111.64 1130.47 L2053.79 1130.47 Z" fill="#000000" fill-rule="evenodd" fill-opacity="1" /><path clip-path="url(#clip060)" d="M2131.62 1105.35 Q2131.62 1100.7 2134.13 1098.95 Q2136.64 1097.13 2139.31 1097.13 Q2142.88 1097.13 2144.94 1099.41 Q2147.07 1101.62 2147.07 1104.74 Q2147.07 1107.86 2144.94 1110.14 Q2142.88 1112.35 2139.31 1112.35 Q2137.56 1112.35 2136.64 1112.05 Q2138.7 1119.2 2144.94 1124.38 Q2151.26 1129.55 2159.55 1129.55 Q2169.98 1129.55 2176.23 1119.43 Q2179.96 1112.88 2179.96 1098.04 Q2179.96 1084.95 2177.14 1078.4 Q2172.8 1068.43 2163.89 1068.43 Q2151.26 1068.43 2143.8 1079.31 Q2142.88 1080.68 2141.82 1080.76 Q2140.3 1080.76 2139.91 1079.92 Q2139.61 1079.01 2139.61 1076.65 L2139.61 1030.52 Q2139.61 1026.79 2141.13 1026.79 Q2141.74 1026.79 2143.04 1027.25 Q2152.86 1031.58 2163.74 1031.66 Q2174.93 1031.66 2184.98 1027.09 Q2185.74 1026.64 2186.2 1026.64 Q2187.72 1026.64 2187.8 1028.39 Q2187.8 1029 2186.5 1030.82 Q2185.28 1032.57 2182.62 1034.93 Q2179.96 1037.22 2176.53 1039.42 Q2173.1 1041.63 2168.08 1043.15 Q2163.13 1044.6 2157.65 1044.6 Q2151.1 1044.6 2144.41 1042.55 L2144.41 1072.92 Q2152.48 1065 2164.2 1065 Q2176.68 1065 2185.28 1075.05 Q2193.89 1085.1 2193.89 1099.11 Q2193.89 1113.8 2183.69 1123.85 Q2173.56 1133.89 2159.86 1133.89 Q2147.37 1133.89 2139.46 1124.99 Q2131.62 1116.08 2131.62 1105.35 Z" fill="#000000" fill-rule="evenodd" fill-opacity="1" /><path clip-path="url(#clip060)" d="M518.123 679.161 Q518.123 656.248 523.908 643.763 Q531.977 625.189 551.008 625.189 Q555.042 625.189 559.229 626.331 Q563.492 627.397 568.82 631.584 Q574.225 635.771 577.498 642.622 Q583.74 655.867 583.74 679.161 Q583.74 701.921 577.955 714.329 Q569.505 732.447 550.855 732.447 Q543.852 732.447 536.696 728.869 Q529.617 725.291 525.126 716.689 Q518.123 703.824 518.123 679.161 M531.063 677.258 Q531.063 700.78 532.738 710.143 Q534.641 720.267 539.818 724.682 Q545.07 729.021 550.855 729.021 Q557.097 729.021 562.274 724.378 Q567.526 719.658 569.125 709.534 Q570.876 699.562 570.8 677.258 Q570.8 655.562 569.277 646.884 Q567.222 636.76 561.741 632.726 Q556.336 628.615 550.855 628.615 Q548.8 628.615 546.592 629.224 Q544.461 629.833 541.34 631.584 Q538.219 633.335 535.783 637.674 Q533.423 642.013 532.281 648.559 Q531.063 657.009 531.063 677.258 Z" fill="#000000" fill-rule="evenodd" fill-opacity="1" /><path clip-path="url(#clip060)" d="M597.685 726.509 Q595.326 723.997 595.326 720.724 Q595.326 717.45 597.685 715.091 Q600.045 712.655 603.623 712.655 Q607.049 712.655 609.332 714.938 Q611.692 717.146 611.692 720.8 Q611.692 724.378 609.18 726.737 Q606.744 729.021 603.623 729.021 Q600.045 729.021 597.685 726.509 Z" fill="#000000" fill-rule="evenodd" fill-opacity="1" /><path clip-path="url(#clip060)" d="M638.225 660.282 Q638.225 651.985 640.661 646.352 Q643.096 640.642 648.197 635.009 Q657.56 625.189 671.11 625.189 Q676.895 625.189 681.995 627.625 Q687.172 630.061 692.044 635.618 Q696.992 641.099 699.96 651.985 Q702.929 662.794 702.929 677.714 Q702.929 701.845 691.206 717.146 Q679.559 732.447 663.802 732.447 Q653.83 732.447 647.968 727.955 Q642.107 723.388 642.107 715.623 Q642.107 711.589 644.391 709.914 Q646.674 708.163 649.262 708.163 Q652.079 708.163 654.287 710.067 Q656.494 711.893 656.494 715.319 Q656.494 718.136 654.667 720.343 Q652.916 722.475 648.349 722.475 Q652.84 728.108 663.65 728.108 Q667.532 728.108 671.414 726.357 Q675.297 724.53 679.483 720.191 Q683.746 715.776 686.334 706.565 Q688.923 697.354 688.923 684.413 L688.923 679.465 Q682.68 695.07 669.435 695.07 Q656.342 695.07 647.283 685.022 Q638.225 674.974 638.225 660.282 M652.231 660.434 Q652.231 675.887 655.048 681.597 Q659.844 691.416 669.587 691.416 Q679.103 691.416 683.822 682.967 Q688.618 674.441 688.618 663.403 Q688.618 648.102 686.106 641.404 Q681.462 629.072 671.11 629.072 Q660.833 629.072 655.505 638.892 Q652.231 644.677 652.231 660.434 Z" fill="#000000" fill-rule="evenodd" fill-opacity="1" /><path clip-path="url(#clip060)" d="M710.422 655.715 L715.522 623.667 L719.404 623.667 Q719.861 625.57 720.622 626.407 Q721.46 627.245 725.875 627.93 Q730.366 628.615 739.425 628.615 L777.258 628.615 Q777.258 632.193 775.887 634.096 L754.801 663.708 Q748.103 673.071 745.134 690.351 Q743.383 701.921 743.459 715.928 L743.459 723.845 Q743.459 732.447 736.227 732.447 Q729.072 732.447 729.072 723.845 Q729.072 694.081 748.255 665.23 Q750.31 662.261 757.846 651.68 Q765.459 641.099 765.763 640.642 L733.487 640.642 Q719.328 640.642 718.186 641.556 Q716.664 642.926 714.304 655.715 L710.422 655.715 Z" fill="#000000" fill-rule="evenodd" fill-opacity="1" /><path clip-path="url(#clip060)" d="M774.628 703.901 Q774.628 699.257 777.14 697.506 Q779.652 695.679 782.316 695.679 Q785.894 695.679 787.949 697.963 Q790.081 700.171 790.081 703.292 Q790.081 706.413 787.949 708.696 Q785.894 710.904 782.316 710.904 Q780.565 710.904 779.652 710.599 Q781.707 717.755 787.949 722.931 Q794.268 728.108 802.565 728.108 Q812.994 728.108 819.236 717.983 Q822.966 711.437 822.966 696.593 Q822.966 683.5 820.149 676.953 Q815.81 666.981 806.904 666.981 Q794.268 666.981 786.808 677.867 Q785.894 679.237 784.828 679.313 Q783.306 679.313 782.925 678.475 Q782.621 677.562 782.621 675.202 L782.621 629.072 Q782.621 625.342 784.143 625.342 Q784.752 625.342 786.046 625.798 Q795.866 630.137 806.752 630.214 Q817.942 630.214 827.99 625.646 Q828.751 625.189 829.208 625.189 Q830.73 625.189 830.807 626.94 Q830.807 627.549 829.513 629.376 Q828.295 631.127 825.63 633.487 Q822.966 635.771 819.54 637.978 Q816.115 640.186 811.091 641.708 Q806.143 643.154 800.662 643.154 Q794.115 643.154 787.417 641.099 L787.417 671.472 Q795.486 663.555 807.208 663.555 Q819.693 663.555 828.295 673.604 Q836.896 683.652 836.896 697.658 Q836.896 712.35 826.696 722.398 Q816.572 732.447 802.869 732.447 Q790.385 732.447 782.469 723.54 Q774.628 714.634 774.628 703.901 Z" fill="#000000" fill-rule="evenodd" fill-opacity="1" /></svg>
