<?xml version="1.0" encoding="utf-8"?>
<svg xmlns="http://www.w3.org/2000/svg" xmlns:xlink="http://www.w3.org/1999/xlink" width="600" height="400" viewBox="0 0 2400 1600">
<defs>
  <clipPath id="clip980">
    <rect x="0" y="0" width="2400" height="1600"/>
  </clipPath>
</defs>
<path clip-path="url(#clip980)" d="
M0 1600 L2400 1600 L2400 0 L0 0  Z
  " fill="#ffffff" fill-rule="evenodd" fill-opacity="1"/>
<defs>
  <clipPath id="clip981">
    <rect x="480" y="0" width="1681" height="1600"/>
  </clipPath>
</defs>
<defs>
  <clipPath id="clip982">
    <rect x="401" y="47" width="1952" height="1321"/>
  </clipPath>
</defs>
<path clip-path="url(#clip980)" d="
M401.312 1367.02 L2352.76 1367.02 L2352.76 47.2441 L401.312 47.2441  Z
  " fill="#ffffff" fill-rule="evenodd" fill-opacity="1"/>
<polyline clip-path="url(#clip980)" style="stroke:#000000; stroke-linecap:round; stroke-linejoin:round; stroke-width:4; stroke-opacity:1; fill:none" points="
  401.312,1367.02 2352.76,1367.02 
  "/>
<polyline clip-path="url(#clip980)" style="stroke:#000000; stroke-linecap:round; stroke-linejoin:round; stroke-width:4; stroke-opacity:1; fill:none" points="
  916.788,1367.02 916.788,1348.12 
  "/>
<polyline clip-path="url(#clip980)" style="stroke:#000000; stroke-linecap:round; stroke-linejoin:round; stroke-width:4; stroke-opacity:1; fill:none" points="
  1837.28,1367.02 1837.28,1348.12 
  "/>
<path clip-path="url(#clip980)" d="M921.082 1439.01 Q912.048 1439.01 908.564 1441.08 Q905.081 1443.15 905.081 1448.13 Q905.081 1452.1 907.673 1454.45 Q910.306 1456.76 914.803 1456.76 Q921.001 1456.76 924.728 1452.38 Q928.495 1447.97 928.495 1440.67 L928.495 1439.01 L921.082 1439.01 M935.949 1435.93 L935.949 1461.82 L928.495 1461.82 L928.495 1454.93 Q925.943 1459.07 922.135 1461.05 Q918.327 1462.99 912.818 1462.99 Q905.85 1462.99 901.718 1459.11 Q897.627 1455.18 897.627 1448.61 Q897.627 1440.96 902.731 1437.07 Q907.876 1433.18 918.044 1433.18 L928.495 1433.18 L928.495 1432.45 Q928.495 1427.31 925.092 1424.51 Q921.73 1421.68 915.613 1421.68 Q911.724 1421.68 908.038 1422.61 Q904.351 1423.54 900.949 1425.4 L900.949 1418.52 Q905.04 1416.94 908.889 1416.17 Q912.737 1415.36 916.383 1415.36 Q926.226 1415.36 931.087 1420.46 Q935.949 1425.56 935.949 1435.93 Z" fill="#000000" fill-rule="evenodd" fill-opacity="1" /><path clip-path="url(#clip980)" d="M1849.84 1439.18 Q1849.84 1430.95 1846.44 1426.29 Q1843.07 1421.59 1837.16 1421.59 Q1831.24 1421.59 1827.84 1426.29 Q1824.48 1430.95 1824.48 1439.18 Q1824.48 1447.4 1827.84 1452.1 Q1831.24 1456.76 1837.16 1456.76 Q1843.07 1456.76 1846.44 1452.1 Q1849.84 1447.4 1849.84 1439.18 M1824.48 1423.34 Q1826.83 1419.29 1830.39 1417.34 Q1834 1415.36 1838.98 1415.36 Q1847.25 1415.36 1852.39 1421.92 Q1857.58 1428.48 1857.58 1439.18 Q1857.58 1449.87 1852.39 1456.43 Q1847.25 1462.99 1838.98 1462.99 Q1834 1462.99 1830.39 1461.05 Q1826.83 1459.07 1824.48 1455.01 L1824.48 1461.82 L1816.99 1461.82 L1816.99 1398.79 L1824.48 1398.79 L1824.48 1423.34 Z" fill="#000000" fill-rule="evenodd" fill-opacity="1" /><path clip-path="url(#clip980)" d="M1400.23 1522.83 Q1400.23 1525.78 1398.39 1527.47 Q1396.54 1529.1 1394.43 1529.1 Q1392.43 1529.1 1391.38 1527.94 Q1390.32 1526.78 1390.32 1525.31 Q1390.32 1523.31 1391.8 1521.57 Q1393.27 1519.83 1395.49 1519.46 Q1393.33 1518.09 1390.11 1518.09 Q1388 1518.09 1386.16 1519.2 Q1384.37 1520.3 1383.26 1521.73 Q1382.21 1523.15 1381.26 1525.2 Q1380.36 1527.21 1379.99 1528.42 Q1379.68 1529.58 1379.41 1530.84 L1375.72 1545.6 Q1373.93 1552.61 1373.93 1555.08 Q1373.93 1558.14 1375.41 1560.2 Q1376.88 1562.2 1379.83 1562.2 Q1380.99 1562.2 1382.31 1561.88 Q1383.63 1561.51 1385.32 1560.57 Q1387.05 1559.56 1388.58 1558.09 Q1390.16 1556.56 1391.69 1553.98 Q1393.22 1551.4 1394.22 1548.08 Q1394.54 1546.92 1395.59 1546.92 Q1396.91 1546.92 1396.91 1547.97 Q1396.91 1548.87 1396.17 1550.76 Q1395.49 1552.61 1393.96 1555.03 Q1392.48 1557.4 1390.53 1559.56 Q1388.58 1561.67 1385.68 1563.15 Q1382.79 1564.62 1379.62 1564.62 Q1375.09 1564.62 1372.09 1562.2 Q1369.08 1559.78 1367.98 1556.4 Q1367.71 1556.88 1367.34 1557.51 Q1366.98 1558.14 1365.87 1559.56 Q1364.81 1560.93 1363.6 1561.99 Q1362.39 1562.99 1360.49 1563.78 Q1358.65 1564.62 1356.65 1564.62 Q1354.12 1564.62 1351.85 1563.89 Q1349.64 1563.15 1348.06 1561.46 Q1346.48 1559.78 1346.48 1557.46 Q1346.48 1554.87 1348.21 1553.08 Q1350.01 1551.24 1352.43 1551.24 Q1353.96 1551.24 1355.17 1552.13 Q1356.44 1553.03 1356.44 1554.98 Q1356.44 1557.14 1354.96 1558.77 Q1353.48 1560.41 1351.38 1560.83 Q1353.54 1562.2 1356.75 1562.2 Q1360.23 1562.2 1362.97 1559.14 Q1365.71 1556.09 1367.03 1550.97 Q1370.3 1538.69 1371.56 1533.21 Q1372.83 1527.68 1372.83 1525.31 Q1372.83 1523.1 1372.25 1521.57 Q1371.67 1520.04 1370.66 1519.35 Q1369.72 1518.62 1368.82 1518.35 Q1367.98 1518.09 1367.03 1518.09 Q1365.45 1518.09 1363.66 1518.72 Q1361.92 1519.35 1359.81 1520.83 Q1357.75 1522.25 1355.8 1525.2 Q1353.85 1528.15 1352.54 1532.21 Q1352.27 1533.42 1351.11 1533.42 Q1349.85 1533.37 1349.85 1532.32 Q1349.85 1531.42 1350.53 1529.58 Q1351.27 1527.68 1352.75 1525.31 Q1354.27 1522.94 1356.22 1520.83 Q1358.23 1518.67 1361.13 1517.19 Q1364.08 1515.72 1367.24 1515.72 Q1368.66 1515.72 1370.03 1516.03 Q1371.46 1516.3 1373.14 1517.09 Q1374.88 1517.88 1376.41 1519.62 Q1377.94 1521.36 1378.89 1523.89 Q1379.52 1522.67 1380.36 1521.51 Q1381.26 1520.36 1382.63 1518.93 Q1384.05 1517.46 1386 1516.61 Q1388 1515.72 1390.22 1515.72 Q1392.38 1515.72 1394.49 1516.3 Q1396.59 1516.82 1398.39 1518.56 Q1400.23 1520.25 1400.23 1522.83 Z" fill="#000000" fill-rule="evenodd" fill-opacity="1" /><polyline clip-path="url(#clip980)" style="stroke:#000000; stroke-linecap:round; stroke-linejoin:round; stroke-width:4; stroke-opacity:1; fill:none" points="
  401.312,1367.02 401.312,47.2441 
  "/>
<polyline clip-path="url(#clip980)" style="stroke:#000000; stroke-linecap:round; stroke-linejoin:round; stroke-width:4; stroke-opacity:1; fill:none" points="
  401.312,1329.67 420.21,1329.67 
  "/>
<polyline clip-path="url(#clip980)" style="stroke:#000000; stroke-linecap:round; stroke-linejoin:round; stroke-width:4; stroke-opacity:1; fill:none" points="
  401.312,84.5962 420.21,84.5962 
  "/>
<path clip-path="url(#clip980)" d="M323.742 1329.59 Q323.742 1317.26 326.857 1310.53 Q331.202 1300.53 341.449 1300.53 Q343.622 1300.53 345.876 1301.15 Q348.171 1301.72 351.041 1303.97 Q353.951 1306.23 355.713 1309.92 Q359.074 1317.05 359.074 1329.59 Q359.074 1341.85 355.959 1348.53 Q351.409 1358.29 341.367 1358.29 Q337.596 1358.29 333.743 1356.36 Q329.931 1354.43 327.513 1349.8 Q323.742 1342.87 323.742 1329.59 M330.71 1328.57 Q330.71 1341.23 331.612 1346.28 Q332.636 1351.73 335.424 1354.1 Q338.252 1356.44 341.367 1356.44 Q344.728 1356.44 347.515 1353.94 Q350.344 1351.4 351.205 1345.95 Q352.147 1340.58 352.106 1328.57 Q352.106 1316.89 351.287 1312.21 Q350.18 1306.76 347.229 1304.59 Q344.318 1302.38 341.367 1302.38 Q340.26 1302.38 339.072 1302.7 Q337.924 1303.03 336.243 1303.97 Q334.563 1304.92 333.251 1307.25 Q331.981 1309.59 331.366 1313.12 Q330.71 1317.67 330.71 1328.57 Z" fill="#000000" fill-rule="evenodd" fill-opacity="1" /><path clip-path="url(#clip980)" d="M241.42 14.8948 L241.42 12.2715 Q251.504 12.2715 256.709 6.90186 Q258.144 6.90186 258.39 7.22978 Q258.636 7.55769 258.636 9.07429 L258.636 56.171 Q258.636 58.6713 259.865 59.4501 Q261.095 60.2289 266.465 60.2289 L269.129 60.2289 L269.129 62.8112 Q266.178 62.5653 255.52 62.5653 Q244.863 62.5653 241.953 62.8112 L241.953 60.2289 L244.617 60.2289 Q249.905 60.2289 251.176 59.4911 Q252.446 58.7123 252.446 56.171 L252.446 12.6814 Q248.06 14.8948 241.42 14.8948 Z" fill="#000000" fill-rule="evenodd" fill-opacity="1" /><path clip-path="url(#clip980)" d="
M162.42 85.2112 L356.352 85.2112 L356.352 80.7312 L162.42 80.7312  Z
  " fill="#000000" fill-rule="evenodd" fill-opacity="1"/>
<path clip-path="url(#clip980)" d="M193.326 137.127 Q193.326 143.029 190.334 148.809 Q187.383 154.547 182.628 158.154 Q177.914 161.761 173.077 161.761 Q168.364 161.761 165.371 158.154 Q162.42 154.506 162.42 148.563 Q162.42 146.472 162.666 144.997 Q162.912 143.521 163.773 140.078 L170.659 112.697 Q171.848 107.574 171.848 107.533 Q171.848 107.041 171.643 106.795 Q171.479 106.508 170.495 106.303 Q169.511 106.098 167.626 106.098 Q166.847 106.098 166.478 106.057 Q166.15 106.016 165.863 105.811 Q165.617 105.565 165.617 105.073 Q165.617 104.377 165.904 104.008 Q166.232 103.598 166.478 103.516 Q166.724 103.434 167.216 103.393 Q167.913 103.352 170.249 103.147 Q172.585 102.901 174.594 102.737 Q176.602 102.573 177.463 102.573 Q177.955 102.573 178.201 102.819 Q178.488 103.024 178.488 103.27 L178.529 103.475 L172.34 128.765 Q177.217 123.723 182.177 123.723 Q187.137 123.723 190.211 127.535 Q193.326 131.347 193.326 137.127 M187.26 133.438 Q187.26 129.544 185.784 127.576 Q184.349 125.568 181.972 125.568 Q179.964 125.568 177.34 127.085 Q174.717 128.601 171.93 132.29 Q171.397 132.987 171.192 133.397 Q171.028 133.807 170.659 135.2 L168.814 142.947 Q167.462 148.235 167.462 151.432 Q167.462 155.777 169.06 157.827 Q170.659 159.876 173.077 159.876 Q175.619 159.876 178.283 157.622 Q180.947 155.367 182.997 151.268 Q184.267 148.563 185.743 142.742 Q187.26 136.881 187.26 133.438 Z" fill="#000000" fill-rule="evenodd" fill-opacity="1" /><path clip-path="url(#clip980)" d="M276.771 138.644 Q277.263 139.135 277.263 139.832 Q277.263 140.529 276.771 141.021 Q276.28 141.513 275.583 141.513 L223.035 141.513 Q222.338 141.513 221.846 141.021 Q221.354 140.529 221.354 139.832 Q221.354 139.135 221.846 138.644 Q222.338 138.152 223.035 138.152 L275.583 138.152 Q276.28 138.152 276.771 138.644 Z" fill="#000000" fill-rule="evenodd" fill-opacity="1" /><path clip-path="url(#clip980)" d="M347.762 148.809 Q346.655 154.096 345.221 157.13 Q342.925 161.761 339.031 161.761 Q336.08 161.761 333.989 159.958 Q331.899 158.154 331.407 155.449 Q326.038 161.761 320.463 161.761 Q315.544 161.761 312.429 158.031 Q309.314 154.26 309.314 148.317 Q309.314 142.333 312.265 136.594 Q315.257 130.856 319.971 127.29 Q324.685 123.723 329.522 123.723 Q334.645 123.723 337.269 129.093 Q337.474 127.617 338.416 126.511 Q339.359 125.404 340.794 125.404 Q341.9 125.404 342.556 126.019 Q343.212 126.593 343.212 127.658 Q343.212 128.191 342.638 130.528 L339.605 142.251 L337.76 149.834 Q337.064 152.621 336.859 153.646 Q336.695 154.67 336.695 156.023 Q336.695 159.876 339.195 159.876 Q340.425 159.876 341.409 159.097 Q342.392 158.318 343.171 156.679 Q343.95 155.039 344.442 153.523 Q344.934 151.965 345.589 149.506 Q345.794 148.522 345.958 148.276 Q346.163 147.989 346.737 147.989 Q347.762 147.989 347.762 148.809 M336.244 132.946 Q336.244 132.577 335.957 131.552 Q335.67 130.528 335.014 129.093 Q334.358 127.658 332.924 126.634 Q331.53 125.568 329.645 125.568 Q327.103 125.568 324.439 127.74 Q321.816 129.913 319.889 133.602 Q318.414 136.553 316.815 142.742 Q315.257 148.932 315.257 152.006 Q315.257 153.892 315.667 155.572 Q316.118 157.212 317.389 158.564 Q318.659 159.876 320.627 159.876 Q325.423 159.876 330.136 153.933 Q331.038 152.908 331.243 152.498 Q331.489 152.047 331.817 150.817 L335.998 134.381 Q336.244 133.151 336.244 132.946 Z" fill="#000000" fill-rule="evenodd" fill-opacity="1" /><path clip-path="url(#clip980)" d="M19.902 756.899 Q22.8005 756.899 24.5923 758.744 Q26.3841 760.536 26.3841 762.802 Q26.3841 764.435 25.3828 765.647 Q24.3815 766.807 22.6424 766.807 Q20.8506 766.807 18.9534 765.437 Q17.0561 764.066 16.7926 760.957 Q14.8427 763.012 14.8427 766.28 Q14.8427 767.914 15.8967 769.284 Q16.898 770.601 18.5318 771.339 Q20.2182 772.13 29.757 773.921 Q32.8663 774.501 35.8702 775.028 Q38.8741 775.555 42.0362 776.188 L42.0362 767.228 Q42.0362 766.069 42.0889 765.595 Q42.1416 765.12 42.4051 764.752 Q42.6686 764.33 43.2483 764.33 Q44.7239 764.33 45.0928 765.015 Q45.409 765.647 45.409 767.545 L45.409 776.82 L79.6116 783.302 Q80.6129 783.46 83.775 784.145 Q86.8843 784.778 91.9963 786.306 Q97.1609 787.834 100.218 789.363 Q101.957 790.206 103.59 791.313 Q105.277 792.367 106.963 793.895 Q108.65 795.423 109.651 797.426 Q110.705 799.429 110.705 801.537 Q110.705 805.12 108.702 807.913 Q106.7 810.706 103.274 810.706 Q100.376 810.706 98.5838 808.915 Q96.792 807.07 96.792 804.804 Q96.792 803.17 97.7933 802.011 Q98.7946 800.799 100.534 800.799 Q101.272 800.799 102.115 801.062 Q102.958 801.326 103.907 801.905 Q104.908 802.485 105.593 803.75 Q106.278 805.015 106.383 806.754 Q108.333 804.699 108.333 801.537 Q108.333 800.535 107.912 799.639 Q107.543 798.743 106.594 798.006 Q105.646 797.215 104.697 796.635 Q103.801 796.056 102.062 795.476 Q100.376 794.896 99.1108 794.527 Q97.846 794.158 95.5799 793.684 Q93.3138 793.157 91.9436 792.894 Q90.626 792.63 88.0437 792.156 L45.409 784.093 L45.409 791.207 Q45.409 792.472 45.3563 792.999 Q45.3036 793.473 45.0401 793.842 Q44.7239 794.211 44.0915 794.211 Q43.0902 794.211 42.6686 793.79 Q42.1943 793.315 42.1416 792.788 Q42.0362 792.261 42.0362 790.996 L42.0362 783.513 Q28.703 780.983 25.1193 779.982 Q21.3249 778.823 18.6899 777.031 Q16.0021 775.239 14.7373 773.236 Q13.4725 771.234 12.9982 769.6 Q12.4712 767.914 12.4712 766.28 Q12.4712 762.591 14.4738 759.745 Q16.4237 756.899 19.902 756.899 Z" fill="#000000" fill-rule="evenodd" fill-opacity="1" /><path clip-path="url(#clip980)" d="M61.5881 742.373 Q43.3537 742.373 28.6503 735.575 Q22.4843 732.676 17.3196 728.618 Q12.155 724.56 9.88887 721.873 Q7.62275 719.185 7.62275 718.447 Q7.62275 717.393 8.67676 717.34 Q9.20377 717.34 10.5213 718.763 Q28.2286 736.154 61.5881 736.102 Q95.0529 736.102 112.075 719.185 Q113.92 717.34 114.499 717.34 Q115.553 717.34 115.553 718.447 Q115.553 719.185 113.393 721.767 Q111.232 724.35 106.278 728.355 Q101.324 732.36 95.2637 735.259 Q80.5602 742.373 61.5881 742.373 Z" fill="#000000" fill-rule="evenodd" fill-opacity="1" /><path clip-path="url(#clip980)" d="M47.9913 655.386 Q50.9426 655.386 52.629 657.23 Q54.2627 659.075 54.2627 661.183 Q54.2627 663.185 53.1033 664.239 Q51.9439 665.293 50.4683 665.293 Q48.4656 665.293 46.7265 663.818 Q44.9874 662.342 44.6185 660.129 Q43.2483 662.289 43.2483 665.504 Q43.2483 667.612 44.355 669.457 Q45.4617 671.248 46.8846 672.355 Q48.3075 673.409 50.3629 674.358 Q52.3655 675.254 53.5776 675.623 Q54.737 675.939 56.0018 676.202 L70.758 679.891 Q77.7671 681.683 80.244 681.683 Q83.3007 681.683 85.356 680.208 Q87.3586 678.732 87.3586 675.781 Q87.3586 674.621 87.0424 673.304 Q86.6735 671.986 85.7249 670.3 Q84.7236 668.561 83.248 667.032 Q81.7197 665.451 79.1373 663.923 Q76.555 662.395 73.2349 661.394 Q72.0755 661.077 72.0755 660.023 Q72.0755 658.706 73.1295 658.706 Q74.0254 658.706 75.9226 659.444 Q77.7671 660.129 80.1913 661.657 Q82.5629 663.133 84.7236 665.083 Q86.8316 667.032 88.3072 669.931 Q89.7828 672.83 89.7828 675.992 Q89.7828 680.524 87.3586 683.528 Q84.9344 686.532 81.5616 687.638 Q82.0359 687.902 82.6683 688.271 Q83.3007 688.64 84.7236 689.746 Q86.0938 690.8 87.1478 692.012 Q88.1491 693.225 88.9396 695.122 Q89.7828 696.966 89.7828 698.969 Q89.7828 701.499 89.045 703.765 Q88.3072 705.978 86.6208 707.559 Q84.9344 709.14 82.6156 709.14 Q80.0332 709.14 78.2414 707.401 Q76.3969 705.609 76.3969 703.185 Q76.3969 701.657 77.2928 700.445 Q78.1887 699.18 80.1386 699.18 Q82.2994 699.18 83.9331 700.655 Q85.5668 702.131 85.9884 704.239 Q87.3586 702.078 87.3586 698.864 Q87.3586 695.385 84.302 692.645 Q81.2454 689.904 76.1334 688.587 Q63.8542 685.32 58.3733 684.055 Q52.8398 682.79 50.4683 682.79 Q48.2548 682.79 46.7265 683.37 Q45.1982 683.949 44.5131 684.951 Q43.7753 685.899 43.5118 686.795 Q43.2483 687.638 43.2483 688.587 Q43.2483 690.168 43.8807 691.96 Q44.5131 693.699 45.9887 695.807 Q47.4116 697.862 50.3629 699.812 Q53.3141 701.762 57.372 703.08 Q58.5841 703.343 58.5841 704.503 Q58.5314 705.767 57.4774 705.767 Q56.5815 705.767 54.737 705.082 Q52.8398 704.344 50.4683 702.869 Q48.0967 701.34 45.9887 699.391 Q43.828 697.388 42.3524 694.489 Q40.8768 691.538 40.8768 688.376 Q40.8768 686.953 41.193 685.583 Q41.4565 684.16 42.247 682.474 Q43.0375 680.735 44.7766 679.206 Q46.5157 677.678 49.0453 676.729 Q47.8332 676.097 46.6738 675.254 Q45.5144 674.358 44.0915 672.988 Q42.6159 671.565 41.7727 669.615 Q40.8768 667.612 40.8768 665.399 Q40.8768 663.238 41.4565 661.13 Q41.9835 659.022 43.7226 657.23 Q45.409 655.386 47.9913 655.386 Z" fill="#000000" fill-rule="evenodd" fill-opacity="1" /><path clip-path="url(#clip980)" d="M114.499 644.999 Q113.972 644.999 112.655 643.628 Q94.9475 626.237 61.5881 626.237 Q28.1232 626.237 11.2064 642.943 Q9.25647 644.999 8.67676 644.999 Q7.62275 644.999 7.62275 643.945 Q7.62275 643.207 9.78347 640.624 Q11.9442 637.989 16.898 634.037 Q21.8519 630.032 27.9124 627.08 Q42.6159 619.966 61.5881 619.966 Q79.8224 619.966 94.5259 626.764 Q100.692 629.663 105.856 633.721 Q111.021 637.779 113.287 640.466 Q115.553 643.154 115.553 643.945 Q115.553 644.999 114.499 644.999 Z" fill="#000000" fill-rule="evenodd" fill-opacity="1" /><path clip-path="url(#clip982)" d="
M916.788 84.5962 L921.39 84.5962 L925.993 84.5962 L930.595 84.5962 L935.198 84.5962 L939.8 84.5962 L944.403 84.5962 L949.005 84.5962 L953.607 84.5962 L958.21 84.5962 
  L962.812 84.5962 L967.415 84.5962 L972.017 84.5962 L976.62 84.5962 L981.222 84.5962 L985.825 84.5962 L990.427 84.5962 L995.03 84.5962 L999.632 84.5962 L1004.23 84.5962 
  L1008.84 84.5962 L1013.44 84.5962 L1018.04 84.5962 L1022.64 84.5962 L1027.25 84.5962 L1031.85 84.5962 L1036.45 84.5962 L1041.05 84.5962 L1045.66 84.5962 L1050.26 84.5962 
  L1054.86 84.5962 L1059.46 84.5962 L1064.07 84.5962 L1068.67 84.5962 L1073.27 84.5962 L1077.87 84.5962 L1082.48 84.5962 L1087.08 84.5962 L1091.68 84.5962 L1096.28 84.5962 
  L1100.89 84.5962 L1105.49 84.5962 L1110.09 84.5962 L1114.69 84.5962 L1119.3 84.5962 L1123.9 84.5962 L1128.5 84.5962 L1133.1 84.5962 L1137.71 84.5962 L1142.31 84.5962 
  L1146.91 84.5962 L1151.51 84.5962 L1156.12 84.5962 L1160.72 84.5962 L1165.32 84.5962 L1169.92 84.5962 L1174.53 84.5962 L1179.13 84.5962 L1183.73 84.5962 L1188.33 84.5962 
  L1192.94 84.5962 L1197.54 84.5962 L1202.14 84.5962 L1206.74 84.5962 L1211.35 84.5962 L1215.95 84.5962 L1220.55 84.5962 L1225.15 84.5962 L1229.76 84.5962 L1234.36 84.5962 
  L1238.96 84.5962 L1243.56 84.5962 L1248.17 84.5962 L1252.77 84.5962 L1257.37 84.5962 L1261.97 84.5962 L1266.57 84.5962 L1271.18 84.5962 L1275.78 84.5962 L1280.38 84.5962 
  L1284.98 84.5962 L1289.59 84.5962 L1294.19 84.5962 L1298.79 84.5962 L1303.39 84.5962 L1308 84.5962 L1312.6 84.5962 L1317.2 84.5962 L1321.8 84.5962 L1326.41 84.5962 
  L1331.01 84.5962 L1335.61 84.5962 L1340.21 84.5962 L1344.82 84.5962 L1349.42 84.5962 L1354.02 84.5962 L1358.62 84.5962 L1363.23 84.5962 L1367.83 84.5962 L1372.43 84.5962 
  L1377.03 84.5962 L1381.64 84.5962 L1386.24 84.5962 L1390.84 84.5962 L1395.44 84.5962 L1400.05 84.5962 L1404.65 84.5962 L1409.25 84.5962 L1413.85 84.5962 L1418.46 84.5962 
  L1423.06 84.5962 L1427.66 84.5962 L1432.26 84.5962 L1436.87 84.5962 L1441.47 84.5962 L1446.07 84.5962 L1450.67 84.5962 L1455.28 84.5962 L1459.88 84.5962 L1464.48 84.5962 
  L1469.08 84.5962 L1473.69 84.5962 L1478.29 84.5962 L1482.89 84.5962 L1487.49 84.5962 L1492.1 84.5962 L1496.7 84.5962 L1501.3 84.5962 L1505.9 84.5962 L1510.51 84.5962 
  L1515.11 84.5962 L1519.71 84.5962 L1524.31 84.5962 L1528.92 84.5962 L1533.52 84.5962 L1538.12 84.5962 L1542.72 84.5962 L1547.33 84.5962 L1551.93 84.5962 L1556.53 84.5962 
  L1561.13 84.5962 L1565.73 84.5962 L1570.34 84.5962 L1574.94 84.5962 L1579.54 84.5962 L1584.14 84.5962 L1588.75 84.5962 L1593.35 84.5962 L1597.95 84.5962 L1602.55 84.5962 
  L1607.16 84.5962 L1611.76 84.5962 L1616.36 84.5962 L1620.96 84.5962 L1625.57 84.5962 L1630.17 84.5962 L1634.77 84.5962 L1639.37 84.5962 L1643.98 84.5962 L1648.58 84.5962 
  L1653.18 84.5962 L1657.78 84.5962 L1662.39 84.5962 L1666.99 84.5962 L1671.59 84.5962 L1676.19 84.5962 L1680.8 84.5962 L1685.4 84.5962 L1690 84.5962 L1694.6 84.5962 
  L1699.21 84.5962 L1703.81 84.5962 L1708.41 84.5962 L1713.01 84.5962 L1717.62 84.5962 L1722.22 84.5962 L1726.82 84.5962 L1731.42 84.5962 L1736.03 84.5962 L1740.63 84.5962 
  L1745.23 84.5962 L1749.83 84.5962 L1754.44 84.5962 L1759.04 84.5962 L1763.64 84.5962 L1768.24 84.5962 L1772.85 84.5962 L1777.45 84.5962 L1782.05 84.5962 L1786.65 84.5962 
  L1791.26 84.5962 L1795.86 84.5962 L1800.46 84.5962 L1805.06 84.5962 L1809.67 84.5962 L1814.27 84.5962 L1818.87 84.5962 L1823.47 84.5962 L1828.08 84.5962 L1832.68 84.5962 
  L1837.28 84.5962 L1837.28 1329.67 L1832.68 1329.67 L1828.08 1329.67 L1823.47 1329.67 L1818.87 1329.67 L1814.27 1329.67 L1809.67 1329.67 L1805.06 1329.67 L1800.46 1329.67 
  L1795.86 1329.67 L1791.26 1329.67 L1786.65 1329.67 L1782.05 1329.67 L1777.45 1329.67 L1772.85 1329.67 L1768.24 1329.67 L1763.64 1329.67 L1759.04 1329.67 L1754.44 1329.67 
  L1749.83 1329.67 L1745.23 1329.67 L1740.63 1329.67 L1736.03 1329.67 L1731.42 1329.67 L1726.82 1329.67 L1722.22 1329.67 L1717.62 1329.67 L1713.01 1329.67 L1708.41 1329.67 
  L1703.81 1329.67 L1699.21 1329.67 L1694.6 1329.67 L1690 1329.67 L1685.4 1329.67 L1680.8 1329.67 L1676.19 1329.67 L1671.59 1329.67 L1666.99 1329.67 L1662.39 1329.67 
  L1657.78 1329.67 L1653.18 1329.67 L1648.58 1329.67 L1643.98 1329.67 L1639.37 1329.67 L1634.77 1329.67 L1630.17 1329.67 L1625.57 1329.67 L1620.96 1329.67 L1616.36 1329.67 
  L1611.76 1329.67 L1607.16 1329.67 L1602.55 1329.67 L1597.95 1329.67 L1593.35 1329.67 L1588.75 1329.67 L1584.14 1329.67 L1579.54 1329.67 L1574.94 1329.67 L1570.34 1329.67 
  L1565.73 1329.67 L1561.13 1329.67 L1556.53 1329.67 L1551.93 1329.67 L1547.33 1329.67 L1542.72 1329.67 L1538.12 1329.67 L1533.52 1329.67 L1528.92 1329.67 L1524.31 1329.67 
  L1519.71 1329.67 L1515.11 1329.67 L1510.51 1329.67 L1505.9 1329.67 L1501.3 1329.67 L1496.7 1329.67 L1492.1 1329.67 L1487.49 1329.67 L1482.89 1329.67 L1478.29 1329.67 
  L1473.69 1329.67 L1469.08 1329.67 L1464.48 1329.67 L1459.88 1329.67 L1455.28 1329.67 L1450.67 1329.67 L1446.07 1329.67 L1441.47 1329.67 L1436.87 1329.67 L1432.26 1329.67 
  L1427.66 1329.67 L1423.06 1329.67 L1418.46 1329.67 L1413.85 1329.67 L1409.25 1329.67 L1404.65 1329.67 L1400.05 1329.67 L1395.44 1329.67 L1390.84 1329.67 L1386.24 1329.67 
  L1381.64 1329.67 L1377.03 1329.67 L1372.43 1329.67 L1367.83 1329.67 L1363.23 1329.67 L1358.62 1329.67 L1354.02 1329.67 L1349.42 1329.67 L1344.82 1329.67 L1340.21 1329.67 
  L1335.61 1329.67 L1331.01 1329.67 L1326.41 1329.67 L1321.8 1329.67 L1317.2 1329.67 L1312.6 1329.67 L1308 1329.67 L1303.39 1329.67 L1298.79 1329.67 L1294.19 1329.67 
  L1289.59 1329.67 L1284.98 1329.67 L1280.38 1329.67 L1275.78 1329.67 L1271.18 1329.67 L1266.57 1329.67 L1261.97 1329.67 L1257.37 1329.67 L1252.77 1329.67 L1248.17 1329.67 
  L1243.56 1329.67 L1238.96 1329.67 L1234.36 1329.67 L1229.76 1329.67 L1225.15 1329.67 L1220.55 1329.67 L1215.95 1329.67 L1211.35 1329.67 L1206.74 1329.67 L1202.14 1329.67 
  L1197.54 1329.67 L1192.94 1329.67 L1188.33 1329.67 L1183.73 1329.67 L1179.13 1329.67 L1174.53 1329.67 L1169.92 1329.67 L1165.32 1329.67 L1160.72 1329.67 L1156.12 1329.67 
  L1151.51 1329.67 L1146.91 1329.67 L1142.31 1329.67 L1137.71 1329.67 L1133.1 1329.67 L1128.5 1329.67 L1123.9 1329.67 L1119.3 1329.67 L1114.69 1329.67 L1110.09 1329.67 
  L1105.49 1329.67 L1100.89 1329.67 L1096.28 1329.67 L1091.68 1329.67 L1087.08 1329.67 L1082.48 1329.67 L1077.87 1329.67 L1073.27 1329.67 L1068.67 1329.67 L1064.07 1329.67 
  L1059.46 1329.67 L1054.86 1329.67 L1050.26 1329.67 L1045.66 1329.67 L1041.05 1329.67 L1036.45 1329.67 L1031.85 1329.67 L1027.25 1329.67 L1022.64 1329.67 L1018.04 1329.67 
  L1013.44 1329.67 L1008.84 1329.67 L1004.23 1329.67 L999.632 1329.67 L995.03 1329.67 L990.427 1329.67 L985.825 1329.67 L981.222 1329.67 L976.62 1329.67 L972.017 1329.67 
  L967.415 1329.67 L962.812 1329.67 L958.21 1329.67 L953.607 1329.67 L949.005 1329.67 L944.403 1329.67 L939.8 1329.67 L935.198 1329.67 L930.595 1329.67 L925.993 1329.67 
  L921.39 1329.67 L916.788 1329.67  Z
  " fill="#1f78b4" fill-rule="evenodd" fill-opacity="0.5"/>
<polyline clip-path="url(#clip982)" style="stroke:#1f78b4; stroke-linecap:round; stroke-linejoin:round; stroke-width:8; stroke-opacity:1; fill:none" points="
  916.788,84.5962 921.39,84.5962 925.993,84.5962 930.595,84.5962 935.198,84.5962 939.8,84.5962 944.403,84.5962 949.005,84.5962 953.607,84.5962 958.21,84.5962 
  962.812,84.5962 967.415,84.5962 972.017,84.5962 976.62,84.5962 981.222,84.5962 985.825,84.5962 990.427,84.5962 995.03,84.5962 999.632,84.5962 1004.23,84.5962 
  1008.84,84.5962 1013.44,84.5962 1018.04,84.5962 1022.64,84.5962 1027.25,84.5962 1031.85,84.5962 1036.45,84.5962 1041.05,84.5962 1045.66,84.5962 1050.26,84.5962 
  1054.86,84.5962 1059.46,84.5962 1064.07,84.5962 1068.67,84.5962 1073.27,84.5962 1077.87,84.5962 1082.48,84.5962 1087.08,84.5962 1091.68,84.5962 1096.28,84.5962 
  1100.89,84.5962 1105.49,84.5962 1110.09,84.5962 1114.69,84.5962 1119.3,84.5962 1123.9,84.5962 1128.5,84.5962 1133.1,84.5962 1137.71,84.5962 1142.31,84.5962 
  1146.91,84.5962 1151.51,84.5962 1156.12,84.5962 1160.72,84.5962 1165.32,84.5962 1169.92,84.5962 1174.53,84.5962 1179.13,84.5962 1183.73,84.5962 1188.33,84.5962 
  1192.94,84.5962 1197.54,84.5962 1202.14,84.5962 1206.74,84.5962 1211.35,84.5962 1215.95,84.5962 1220.55,84.5962 1225.15,84.5962 1229.76,84.5962 1234.36,84.5962 
  1238.96,84.5962 1243.56,84.5962 1248.17,84.5962 1252.77,84.5962 1257.37,84.5962 1261.97,84.5962 1266.57,84.5962 1271.18,84.5962 1275.78,84.5962 1280.38,84.5962 
  1284.98,84.5962 1289.59,84.5962 1294.19,84.5962 1298.79,84.5962 1303.39,84.5962 1308,84.5962 1312.6,84.5962 1317.2,84.5962 1321.8,84.5962 1326.41,84.5962 
  1331.01,84.5962 1335.61,84.5962 1340.21,84.5962 1344.82,84.5962 1349.42,84.5962 1354.02,84.5962 1358.62,84.5962 1363.23,84.5962 1367.83,84.5962 1372.43,84.5962 
  1377.03,84.5962 1381.64,84.5962 1386.24,84.5962 1390.84,84.5962 1395.44,84.5962 1400.05,84.5962 1404.65,84.5962 1409.25,84.5962 1413.85,84.5962 1418.46,84.5962 
  1423.06,84.5962 1427.66,84.5962 1432.26,84.5962 1436.87,84.5962 1441.47,84.5962 1446.07,84.5962 1450.67,84.5962 1455.28,84.5962 1459.88,84.5962 1464.48,84.5962 
  1469.08,84.5962 1473.69,84.5962 1478.29,84.5962 1482.89,84.5962 1487.49,84.5962 1492.1,84.5962 1496.7,84.5962 1501.3,84.5962 1505.9,84.5962 1510.51,84.5962 
  1515.11,84.5962 1519.71,84.5962 1524.31,84.5962 1528.92,84.5962 1533.52,84.5962 1538.12,84.5962 1542.72,84.5962 1547.33,84.5962 1551.93,84.5962 1556.53,84.5962 
  1561.13,84.5962 1565.73,84.5962 1570.34,84.5962 1574.94,84.5962 1579.54,84.5962 1584.14,84.5962 1588.75,84.5962 1593.35,84.5962 1597.95,84.5962 1602.55,84.5962 
  1607.16,84.5962 1611.76,84.5962 1616.36,84.5962 1620.96,84.5962 1625.57,84.5962 1630.17,84.5962 1634.77,84.5962 1639.37,84.5962 1643.98,84.5962 1648.58,84.5962 
  1653.18,84.5962 1657.78,84.5962 1662.39,84.5962 1666.99,84.5962 1671.59,84.5962 1676.19,84.5962 1680.8,84.5962 1685.4,84.5962 1690,84.5962 1694.6,84.5962 
  1699.21,84.5962 1703.81,84.5962 1708.41,84.5962 1713.01,84.5962 1717.62,84.5962 1722.22,84.5962 1726.82,84.5962 1731.42,84.5962 1736.03,84.5962 1740.63,84.5962 
  1745.23,84.5962 1749.83,84.5962 1754.44,84.5962 1759.04,84.5962 1763.64,84.5962 1768.24,84.5962 1772.85,84.5962 1777.45,84.5962 1782.05,84.5962 1786.65,84.5962 
  1791.26,84.5962 1795.86,84.5962 1800.46,84.5962 1805.06,84.5962 1809.67,84.5962 1814.27,84.5962 1818.87,84.5962 1823.47,84.5962 1828.08,84.5962 1832.68,84.5962 
  1837.28,84.5962 
  "/>
<polyline clip-path="url(#clip982)" style="stroke:#1f78b4; stroke-linecap:round; stroke-linejoin:round; stroke-width:8; stroke-opacity:1; fill:none" points="
  456.542,1329.67 461.144,1329.67 465.746,1329.67 470.349,1329.67 474.951,1329.67 479.554,1329.67 484.156,1329.67 488.759,1329.67 493.361,1329.67 497.964,1329.67 
  502.566,1329.67 507.169,1329.67 511.771,1329.67 516.374,1329.67 520.976,1329.67 525.579,1329.67 530.181,1329.67 534.783,1329.67 539.386,1329.67 543.988,1329.67 
  548.591,1329.67 553.193,1329.67 557.796,1329.67 562.398,1329.67 567.001,1329.67 571.603,1329.67 576.206,1329.67 580.808,1329.67 585.411,1329.67 590.013,1329.67 
  594.615,1329.67 599.218,1329.67 603.82,1329.67 608.423,1329.67 613.025,1329.67 617.628,1329.67 622.23,1329.67 626.833,1329.67 631.435,1329.67 636.038,1329.67 
  640.64,1329.67 645.243,1329.67 649.845,1329.67 654.447,1329.67 659.05,1329.67 663.652,1329.67 668.255,1329.67 672.857,1329.67 677.46,1329.67 682.062,1329.67 
  686.665,1329.67 691.267,1329.67 695.87,1329.67 700.472,1329.67 705.075,1329.67 709.677,1329.67 714.279,1329.67 718.882,1329.67 723.484,1329.67 728.087,1329.67 
  732.689,1329.67 737.292,1329.67 741.894,1329.67 746.497,1329.67 751.099,1329.67 755.702,1329.67 760.304,1329.67 764.907,1329.67 769.509,1329.67 774.111,1329.67 
  778.714,1329.67 783.316,1329.67 787.919,1329.67 792.521,1329.67 797.124,1329.67 801.726,1329.67 806.329,1329.67 810.931,1329.67 815.534,1329.67 820.136,1329.67 
  824.739,1329.67 829.341,1329.67 833.943,1329.67 838.546,1329.67 843.148,1329.67 847.751,1329.67 852.353,1329.67 856.956,1329.67 861.558,1329.67 866.161,1329.67 
  870.763,1329.67 875.366,1329.67 879.968,1329.67 884.571,1329.67 889.173,1329.67 893.775,1329.67 898.378,1329.67 902.98,1329.67 907.583,1329.67 912.185,1329.67 
  916.788,84.5962 921.39,84.5962 925.993,84.5962 930.595,84.5962 935.198,84.5962 939.8,84.5962 944.403,84.5962 949.005,84.5962 953.607,84.5962 958.21,84.5962 
  962.812,84.5962 967.415,84.5962 972.017,84.5962 976.62,84.5962 981.222,84.5962 985.825,84.5962 990.427,84.5962 995.03,84.5962 999.632,84.5962 1004.23,84.5962 
  1008.84,84.5962 1013.44,84.5962 1018.04,84.5962 1022.64,84.5962 1027.25,84.5962 1031.85,84.5962 1036.45,84.5962 1041.05,84.5962 1045.66,84.5962 1050.26,84.5962 
  1054.86,84.5962 1059.46,84.5962 1064.07,84.5962 1068.67,84.5962 1073.27,84.5962 1077.87,84.5962 1082.48,84.5962 1087.08,84.5962 1091.68,84.5962 1096.28,84.5962 
  1100.89,84.5962 1105.49,84.5962 1110.09,84.5962 1114.69,84.5962 1119.3,84.5962 1123.9,84.5962 1128.5,84.5962 1133.1,84.5962 1137.71,84.5962 1142.31,84.5962 
  1146.91,84.5962 1151.51,84.5962 1156.12,84.5962 1160.72,84.5962 1165.32,84.5962 1169.92,84.5962 1174.53,84.5962 1179.13,84.5962 1183.73,84.5962 1188.33,84.5962 
  1192.94,84.5962 1197.54,84.5962 1202.14,84.5962 1206.74,84.5962 1211.35,84.5962 1215.95,84.5962 1220.55,84.5962 1225.15,84.5962 1229.76,84.5962 1234.36,84.5962 
  1238.96,84.5962 1243.56,84.5962 1248.17,84.5962 1252.77,84.5962 1257.37,84.5962 1261.97,84.5962 1266.57,84.5962 1271.18,84.5962 1275.78,84.5962 1280.38,84.5962 
  1284.98,84.5962 1289.59,84.5962 1294.19,84.5962 1298.79,84.5962 1303.39,84.5962 1308,84.5962 1312.6,84.5962 1317.2,84.5962 1321.8,84.5962 1326.41,84.5962 
  1331.01,84.5962 1335.61,84.5962 1340.21,84.5962 1344.82,84.5962 1349.42,84.5962 1354.02,84.5962 1358.62,84.5962 1363.23,84.5962 1367.83,84.5962 1372.43,84.5962 
  1377.03,84.5962 1381.64,84.5962 1386.24,84.5962 1390.84,84.5962 1395.44,84.5962 1400.05,84.5962 1404.65,84.5962 1409.25,84.5962 1413.85,84.5962 1418.46,84.5962 
  1423.06,84.5962 1427.66,84.5962 1432.26,84.5962 1436.87,84.5962 1441.47,84.5962 1446.07,84.5962 1450.67,84.5962 1455.28,84.5962 1459.88,84.5962 1464.48,84.5962 
  1469.08,84.5962 1473.69,84.5962 1478.29,84.5962 1482.89,84.5962 1487.49,84.5962 1492.1,84.5962 1496.7,84.5962 1501.3,84.5962 1505.9,84.5962 1510.51,84.5962 
  1515.11,84.5962 1519.71,84.5962 1524.31,84.5962 1528.92,84.5962 1533.52,84.5962 1538.12,84.5962 1542.72,84.5962 1547.33,84.5962 1551.93,84.5962 1556.53,84.5962 
  1561.13,84.5962 1565.73,84.5962 1570.34,84.5962 1574.94,84.5962 1579.54,84.5962 1584.14,84.5962 1588.75,84.5962 1593.35,84.5962 1597.95,84.5962 1602.55,84.5962 
  1607.16,84.5962 1611.76,84.5962 1616.36,84.5962 1620.96,84.5962 1625.57,84.5962 1630.17,84.5962 1634.77,84.5962 1639.37,84.5962 1643.98,84.5962 1648.58,84.5962 
  1653.18,84.5962 1657.78,84.5962 1662.39,84.5962 1666.99,84.5962 1671.59,84.5962 1676.19,84.5962 1680.8,84.5962 1685.4,84.5962 1690,84.5962 1694.6,84.5962 
  1699.21,84.5962 1703.81,84.5962 1708.41,84.5962 1713.01,84.5962 1717.62,84.5962 1722.22,84.5962 1726.82,84.5962 1731.42,84.5962 1736.03,84.5962 1740.63,84.5962 
  1745.23,84.5962 1749.83,84.5962 1754.44,84.5962 1759.04,84.5962 1763.64,84.5962 1768.24,84.5962 1772.85,84.5962 1777.45,84.5962 1782.05,84.5962 1786.65,84.5962 
  1791.26,84.5962 1795.86,84.5962 1800.46,84.5962 1805.06,84.5962 1809.67,84.5962 1814.27,84.5962 1818.87,84.5962 1823.47,84.5962 1828.08,84.5962 1832.68,84.5962 
  1837.28,84.5962 1841.88,1329.67 1846.49,1329.67 1851.09,1329.67 1855.69,1329.67 1860.29,1329.67 1864.89,1329.67 1869.5,1329.67 1874.1,1329.67 1878.7,1329.67 
  1883.3,1329.67 1887.91,1329.67 1892.51,1329.67 1897.11,1329.67 1901.71,1329.67 1906.32,1329.67 1910.92,1329.67 1915.52,1329.67 1920.12,1329.67 1924.73,1329.67 
  1929.33,1329.67 1933.93,1329.67 1938.53,1329.67 1943.14,1329.67 1947.74,1329.67 1952.34,1329.67 1956.94,1329.67 1961.55,1329.67 1966.15,1329.67 1970.75,1329.67 
  1975.35,1329.67 1979.96,1329.67 1984.56,1329.67 1989.16,1329.67 1993.76,1329.67 1998.37,1329.67 2002.97,1329.67 2007.57,1329.67 2012.17,1329.67 2016.78,1329.67 
  2021.38,1329.67 2025.98,1329.67 2030.58,1329.67 2035.19,1329.67 2039.79,1329.67 2044.39,1329.67 2048.99,1329.67 2053.6,1329.67 2058.2,1329.67 2062.8,1329.67 
  2067.4,1329.67 2072.01,1329.67 2076.61,1329.67 2081.21,1329.67 2085.81,1329.67 2090.42,1329.67 2095.02,1329.67 2099.62,1329.67 2104.22,1329.67 2108.83,1329.67 
  2113.43,1329.67 2118.03,1329.67 2122.63,1329.67 2127.24,1329.67 2131.84,1329.67 2136.44,1329.67 2141.04,1329.67 2145.65,1329.67 2150.25,1329.67 2154.85,1329.67 
  2159.45,1329.67 2164.05,1329.67 2168.66,1329.67 2173.26,1329.67 2177.86,1329.67 2182.46,1329.67 2187.07,1329.67 2191.67,1329.67 2196.27,1329.67 2200.87,1329.67 
  2205.48,1329.67 2210.08,1329.67 2214.68,1329.67 2219.28,1329.67 2223.89,1329.67 2228.49,1329.67 2233.09,1329.67 2237.69,1329.67 2242.3,1329.67 2246.9,1329.67 
  2251.5,1329.67 2256.1,1329.67 2260.71,1329.67 2265.31,1329.67 2269.91,1329.67 2274.51,1329.67 2279.12,1329.67 2283.72,1329.67 2288.32,1329.67 2292.92,1329.67 
  2297.53,1329.67 
  "/>
</svg>
