<?xml version="1.0" encoding="utf-8"?>
<svg xmlns="http://www.w3.org/2000/svg" xmlns:xlink="http://www.w3.org/1999/xlink" width="600" height="400" viewBox="0 0 2400 1600">
<defs>
  <clipPath id="clip790">
    <rect x="0" y="0" width="2400" height="1600"/>
  </clipPath>
</defs>
<path clip-path="url(#clip790)" d="M0 1600 L2400 1600 L2400 0 L0 0  Z" fill="#ffffff" fill-rule="evenodd" fill-opacity="1"/>
<defs>
  <clipPath id="clip791">
    <rect x="480" y="0" width="1681" height="1600"/>
  </clipPath>
</defs>
<path clip-path="url(#clip790)" d="M270.944 1371.62 L2289.76 1371.62 L2289.76 229.664 L270.944 229.664  Z" fill="#ffffff" fill-rule="evenodd" fill-opacity="1"/>
<defs>
  <clipPath id="clip792">
    <rect x="270" y="229" width="2020" height="1143"/>
  </clipPath>
</defs>
<polyline clip-path="url(#clip790)" style="stroke:#000000; stroke-linecap:round; stroke-linejoin:round; stroke-width:4; stroke-opacity:1; fill:none" points="270.944,1371.62 2289.76,1371.62 "/>
<polyline clip-path="url(#clip790)" style="stroke:#000000; stroke-linecap:round; stroke-linejoin:round; stroke-width:4; stroke-opacity:1; fill:none" points="1280.35,1371.62 1280.35,1352.72 "/>
<path clip-path="url(#clip790)" d="M1280.35 1420.11 Q1271.33 1420.11 1266.75 1429.02 Q1262.24 1437.88 1262.24 1455.7 Q1262.24 1473.47 1266.75 1482.38 Q1271.33 1491.23 1280.35 1491.23 Q1289.44 1491.23 1293.95 1482.38 Q1298.53 1473.47 1298.53 1455.7 Q1298.53 1437.88 1293.95 1429.02 Q1289.44 1420.11 1280.35 1420.11 M1280.35 1410.85 Q1294.88 1410.85 1302.52 1422.37 Q1310.21 1433.83 1310.21 1455.7 Q1310.21 1477.52 1302.52 1489.04 Q1294.88 1500.49 1280.35 1500.49 Q1265.83 1500.49 1258.13 1489.04 Q1250.49 1477.52 1250.49 1455.7 Q1250.49 1433.83 1258.13 1422.37 Q1265.83 1410.85 1280.35 1410.85 Z" fill="#000000" fill-rule="evenodd" fill-opacity="1" /><path clip-path="url(#clip790)" d="M958.029 20.736 L1045.74 20.736 L1045.74 32.5415 L1008.93 32.5415 L1008.93 124.416 L994.835 124.416 L994.835 32.5415 L958.029 32.5415 L958.029 20.736 Z" fill="#000000" fill-rule="evenodd" fill-opacity="1" /><path clip-path="url(#clip790)" d="M1049.56 46.6386 L1063.1 46.6386 L1087.4 111.916 L1111.71 46.6386 L1125.25 46.6386 L1096.08 124.416 L1078.72 124.416 L1049.56 46.6386 Z" fill="#000000" fill-rule="evenodd" fill-opacity="1" /><path clip-path="url(#clip790)" d="M1178.24 85.319 Q1162.75 85.319 1156.78 88.8606 Q1150.81 92.4023 1150.81 100.944 Q1150.81 107.749 1155.25 111.777 Q1159.76 115.735 1167.47 115.735 Q1178.1 115.735 1184.49 108.236 Q1190.94 100.666 1190.94 88.1662 L1190.94 85.319 L1178.24 85.319 M1203.72 80.0412 L1203.72 124.416 L1190.94 124.416 L1190.94 112.611 Q1186.57 119.694 1180.04 123.097 Q1173.51 126.43 1164.07 126.43 Q1152.13 126.43 1145.04 119.763 Q1138.03 113.027 1138.03 101.777 Q1138.03 88.6523 1146.78 81.9857 Q1155.6 75.319 1173.03 75.319 L1190.94 75.319 L1190.94 74.069 Q1190.94 65.2497 1185.11 60.458 Q1179.35 55.5969 1168.86 55.5969 Q1162.19 55.5969 1155.88 57.1941 Q1149.56 58.7914 1143.72 61.9858 L1143.72 50.1803 Q1150.74 47.472 1157.33 46.1525 Q1163.93 44.7636 1170.18 44.7636 Q1187.06 44.7636 1195.39 53.5136 Q1203.72 62.2636 1203.72 80.0412 M1181.29 18.5832 Q1181.29 14.2083 1178.24 11.1527 Q1175.18 8.09718 1170.74 8.09718 Q1166.22 8.09718 1163.17 11.1527 Q1160.18 14.1388 1160.18 18.5832 Q1160.18 23.0971 1163.17 26.1526 Q1166.22 29.1387 1170.74 29.1387 Q1175.18 29.1387 1178.24 26.0832 Q1181.29 23.0277 1181.29 18.5832 M1189.76 18.5832 Q1189.76 26.5693 1184.21 32.1248 Q1178.72 37.6804 1170.74 37.6804 Q1162.75 37.6804 1157.19 32.1248 Q1151.71 26.5693 1151.71 18.5832 Q1151.71 10.5972 1157.19 5.11108 Q1162.75 -0.444442 1170.74 -0.444442 Q1178.72 -0.444442 1184.21 5.11108 Q1189.76 10.5972 1189.76 18.5832 Z" fill="#000000" fill-rule="evenodd" fill-opacity="1" /><path clip-path="url(#clip790)" d="M1279.62 48.9303 L1279.62 61.0136 Q1274.21 58.2358 1268.37 56.8469 Q1262.54 55.458 1256.29 55.458 Q1246.78 55.458 1241.99 58.3747 Q1237.26 61.2913 1237.26 67.1246 Q1237.26 71.5691 1240.67 74.1385 Q1244.07 76.6385 1254.35 78.9301 L1258.72 79.9023 Q1272.33 82.819 1278.03 88.1662 Q1283.79 93.4439 1283.79 102.958 Q1283.79 113.791 1275.18 120.11 Q1266.64 126.43 1251.64 126.43 Q1245.39 126.43 1238.58 125.18 Q1231.85 123.999 1224.35 121.569 L1224.35 108.374 Q1231.43 112.055 1238.31 113.93 Q1245.18 115.735 1251.92 115.735 Q1260.94 115.735 1265.81 112.68 Q1270.67 109.555 1270.67 103.93 Q1270.67 98.7217 1267.12 95.9439 Q1263.65 93.1662 1251.78 90.5967 L1247.33 89.5551 Q1235.46 87.0551 1230.18 81.9162 Q1224.9 76.7079 1224.9 67.6802 Q1224.9 56.708 1232.68 50.7358 Q1240.46 44.7636 1254.76 44.7636 Q1261.85 44.7636 1268.1 45.8053 Q1274.35 46.847 1279.62 48.9303 Z" fill="#000000" fill-rule="evenodd" fill-opacity="1" /><path clip-path="url(#clip790)" d="M1304.14 46.6386 L1316.92 46.6386 L1316.92 124.416 L1304.14 124.416 L1304.14 46.6386 M1304.14 16.361 L1316.92 16.361 L1316.92 32.5415 L1304.14 32.5415 L1304.14 16.361 Z" fill="#000000" fill-rule="evenodd" fill-opacity="1" /><path clip-path="url(#clip790)" d="M1394.83 58.4441 L1394.83 16.361 L1407.61 16.361 L1407.61 124.416 L1394.83 124.416 L1394.83 112.749 Q1390.8 119.694 1384.62 123.097 Q1378.51 126.43 1369.9 126.43 Q1355.81 126.43 1346.92 115.18 Q1338.1 103.93 1338.1 85.5968 Q1338.1 67.2635 1346.92 56.0136 Q1355.81 44.7636 1369.9 44.7636 Q1378.51 44.7636 1384.62 48.1664 Q1390.8 51.4997 1394.83 58.4441 M1351.29 85.5968 Q1351.29 99.6939 1357.05 107.749 Q1362.89 115.735 1373.03 115.735 Q1383.17 115.735 1389 107.749 Q1394.83 99.6939 1394.83 85.5968 Q1394.83 71.4996 1389 63.5135 Q1383.17 55.458 1373.03 55.458 Q1362.89 55.458 1357.05 63.5135 Q1351.29 71.4996 1351.29 85.5968 Z" fill="#000000" fill-rule="evenodd" fill-opacity="1" /><path clip-path="url(#clip790)" d="M1433.93 46.6386 L1446.71 46.6386 L1446.71 124.416 L1433.93 124.416 L1433.93 46.6386 M1433.93 16.361 L1446.71 16.361 L1446.71 32.5415 L1433.93 32.5415 L1433.93 16.361 Z" fill="#000000" fill-rule="evenodd" fill-opacity="1" /><path clip-path="url(#clip790)" d="M1524.62 84.6245 Q1524.62 70.7357 1518.86 63.0969 Q1513.17 55.458 1502.82 55.458 Q1492.54 55.458 1486.78 63.0969 Q1481.08 70.7357 1481.08 84.6245 Q1481.08 98.4439 1486.78 106.083 Q1492.54 113.722 1502.82 113.722 Q1513.17 113.722 1518.86 106.083 Q1524.62 98.4439 1524.62 84.6245 M1537.4 114.763 Q1537.4 134.624 1528.58 144.277 Q1519.76 153.999 1501.57 153.999 Q1494.83 153.999 1488.86 152.958 Q1482.89 151.985 1477.26 149.902 L1477.26 137.471 Q1482.89 140.527 1488.37 141.985 Q1493.86 143.444 1499.55 143.444 Q1512.12 143.444 1518.37 136.846 Q1524.62 130.319 1524.62 117.055 L1524.62 110.736 Q1520.67 117.61 1514.48 121.013 Q1508.3 124.416 1499.69 124.416 Q1485.39 124.416 1476.64 113.513 Q1467.89 102.611 1467.89 84.6245 Q1467.89 66.5691 1476.64 55.6664 Q1485.39 44.7636 1499.69 44.7636 Q1508.3 44.7636 1514.48 48.1664 Q1520.67 51.5692 1524.62 58.4441 L1524.62 46.6386 L1537.4 46.6386 L1537.4 114.763 Z" fill="#000000" fill-rule="evenodd" fill-opacity="1" /><path clip-path="url(#clip790)" d="M1576.36 24.5554 L1576.36 46.6386 L1602.68 46.6386 L1602.68 56.5691 L1576.36 56.5691 L1576.36 98.7911 Q1576.36 108.305 1578.93 111.013 Q1581.57 113.722 1589.55 113.722 L1602.68 113.722 L1602.68 124.416 L1589.55 124.416 Q1574.76 124.416 1569.14 118.93 Q1563.51 113.374 1563.51 98.7911 L1563.51 56.5691 L1554.14 56.5691 L1554.14 46.6386 L1563.51 46.6386 L1563.51 24.5554 L1576.36 24.5554 Z" fill="#000000" fill-rule="evenodd" fill-opacity="1" /><path clip-path="url(#clip792)" d="M1756.49 1148.85 L1758.87 1151.22 L1761.25 1153.55 L1763.63 1155.86 L1766.01 1158.14 L1768.39 1160.39 L1770.77 1162.61 L1773.16 1164.81 L1775.54 1166.97 L1777.92 1169.11 L1780.3 1171.22 L1782.68 1173.31 L1785.06 1175.37 L1787.44 1177.4 L1789.82 1179.41 L1792.2 1181.39 L1794.58 1183.34 L1796.96 1185.27 L1799.34 1187.18 L1801.72 1189.06 L1804.1 1190.92 L1806.49 1192.76 L1808.87 1194.57 L1811.25 1196.35 L1813.63 1198.12 L1816.01 1199.86 L1818.39 1201.58 L1820.77 1203.28 L1823.15 1204.95 L1825.53 1206.61 L1827.91 1208.24 L1830.29 1209.85 L1832.67 1211.44 L1835.05 1213.02 L1837.43 1214.57 L1839.81 1216.1 L1842.2 1217.61 L1844.58 1219.1 L1846.96 1220.57 L1849.34 1222.02 L1851.72 1223.45 L1854.1 1224.87 L1856.48 1226.27 L1858.86 1227.64 L1861.24 1229.01 L1863.62 1230.35 L1866 1231.67 L1868.38 1232.98 L1870.76 1234.27 L1873.14 1235.55 L1875.52 1236.81 L1877.91 1238.05 L1880.29 1239.27 L1882.67 1240.48 L1885.05 1241.68 L1887.43 1242.86 L1889.81 1244.02 L1892.19 1245.17 L1894.57 1246.3 L1896.95 1247.42 L1899.33 1248.52 L1901.71 1249.61 L1904.09 1250.69 L1906.47 1251.75 L1908.85 1252.8 L1911.24 1253.83 L1913.62 1254.85 L1916 1255.86 L1918.38 1256.85 L1920.76 1257.83 L1923.14 1258.8 L1925.52 1259.76 L1927.9 1260.7 L1930.28 1261.64 L1932.66 1262.55 L1935.04 1263.46 L1937.42 1264.36 L1939.8 1265.24 L1942.18 1266.12 L1944.56 1266.98 L1946.95 1267.83 L1949.33 1268.67 L1951.71 1269.5 L1954.09 1270.31 L1956.47 1271.12 L1958.85 1271.92 L1961.23 1272.71 L1963.61 1273.48 L1965.99 1274.25 L1968.37 1275.01 L1970.75 1275.75 L1973.13 1276.49 L1975.51 1277.22 L1977.89 1277.94 L1980.27 1278.65 L1982.66 1279.35 L1985.04 1280.04 L1987.42 1280.72 L1989.8 1281.4 L1992.18 1282.06 L1994.56 1282.72 L1996.94 1283.37 L1999.32 1284.01 L2001.7 1284.64 L2004.08 1285.27 L2006.46 1285.88 L2008.84 1286.49 L2011.22 1287.09 L2013.6 1287.68 L2015.99 1288.27 L2018.37 1288.85 L2020.75 1289.42 L2023.13 1289.98 L2025.51 1290.54 L2027.89 1291.09 L2030.27 1291.63 L2032.65 1292.17 L2035.03 1292.7 L2037.41 1293.22 L2039.79 1293.73 L2042.17 1294.24 L2044.55 1294.75 L2046.93 1295.24 L2049.31 1295.73 L2051.7 1296.22 L2054.08 1296.7 L2056.46 1297.17 L2058.84 1297.64 L2061.22 1298.1 L2063.6 1298.55 L2065.98 1299 L2068.36 1299.44 L2070.74 1299.88 L2073.12 1300.32 L2075.5 1300.74 L2077.88 1301.17 L2080.26 1301.58 L2082.64 1301.99 L2085.03 1302.4 L2087.41 1302.8 L2089.79 1303.2 L2092.17 1303.59 L2094.55 1303.98 L2096.93 1304.36 L2099.31 1304.74 L2101.69 1305.11 L2104.07 1305.48 L2106.45 1305.84 L2108.83 1306.2 L2111.21 1306.56 L2113.59 1306.91 L2115.97 1307.26 L2118.35 1307.6 L2120.74 1307.94 L2123.12 1308.27 L2125.5 1308.6 L2127.88 1308.93 L2130.26 1309.25 L2132.64 1309.57 L2135.02 1309.88 L2137.4 1310.19 L2139.78 1310.5 L2142.16 1310.8 L2144.54 1311.1 L2146.92 1311.4 L2149.3 1311.69 L2151.68 1311.98 L2154.06 1312.27 L2156.45 1312.55 L2158.83 1312.83 L2161.21 1313.1 L2163.59 1313.38 L2165.97 1313.65 L2168.35 1313.91 L2170.73 1314.17 L2173.11 1314.43 L2175.49 1314.69 L2177.87 1314.94 L2180.25 1315.19 L2182.63 1315.44 L2185.01 1315.69 L2187.39 1315.93 L2189.78 1316.17 L2192.16 1316.4 L2194.54 1316.64 L2196.92 1316.87 L2199.3 1317.1 L2201.68 1317.32 L2204.06 1317.54 L2206.44 1317.76 L2208.82 1317.98 L2211.2 1318.2 L2213.58 1318.41 L2215.96 1318.62 L2218.34 1318.83 L2220.72 1319.03 L2223.1 1319.24 L2225.49 1319.44 L2227.87 1319.63 L2230.25 1319.83 L2232.63 1320.02 L2232.63 1339.3 L2230.25 1339.3 L2227.87 1339.3 L2225.49 1339.3 L2223.1 1339.3 L2220.72 1339.3 L2218.34 1339.3 L2215.96 1339.3 L2213.58 1339.3 L2211.2 1339.3 L2208.82 1339.3 L2206.44 1339.3 L2204.06 1339.3 L2201.68 1339.3 L2199.3 1339.3 L2196.92 1339.3 L2194.54 1339.3 L2192.16 1339.3 L2189.78 1339.3 L2187.39 1339.3 L2185.01 1339.3 L2182.63 1339.3 L2180.25 1339.3 L2177.87 1339.3 L2175.49 1339.3 L2173.11 1339.3 L2170.73 1339.3 L2168.35 1339.3 L2165.97 1339.3 L2163.59 1339.3 L2161.21 1339.3 L2158.83 1339.3 L2156.45 1339.3 L2154.06 1339.3 L2151.68 1339.3 L2149.3 1339.3 L2146.92 1339.3 L2144.54 1339.3 L2142.16 1339.3 L2139.78 1339.3 L2137.4 1339.3 L2135.02 1339.3 L2132.64 1339.3 L2130.26 1339.3 L2127.88 1339.3 L2125.5 1339.3 L2123.12 1339.3 L2120.74 1339.3 L2118.35 1339.3 L2115.97 1339.3 L2113.59 1339.3 L2111.21 1339.3 L2108.83 1339.3 L2106.45 1339.3 L2104.07 1339.3 L2101.69 1339.3 L2099.31 1339.3 L2096.93 1339.3 L2094.55 1339.3 L2092.17 1339.3 L2089.79 1339.3 L2087.41 1339.3 L2085.03 1339.3 L2082.64 1339.3 L2080.26 1339.3 L2077.88 1339.3 L2075.5 1339.3 L2073.12 1339.3 L2070.74 1339.3 L2068.36 1339.3 L2065.98 1339.3 L2063.6 1339.3 L2061.22 1339.3 L2058.84 1339.3 L2056.46 1339.3 L2054.08 1339.3 L2051.7 1339.3 L2049.31 1339.3 L2046.93 1339.3 L2044.55 1339.3 L2042.17 1339.3 L2039.79 1339.3 L2037.41 1339.3 L2035.03 1339.3 L2032.65 1339.3 L2030.27 1339.3 L2027.89 1339.3 L2025.51 1339.3 L2023.13 1339.3 L2020.75 1339.3 L2018.37 1339.3 L2015.99 1339.3 L2013.6 1339.3 L2011.22 1339.3 L2008.84 1339.3 L2006.46 1339.3 L2004.08 1339.3 L2001.7 1339.3 L1999.32 1339.3 L1996.94 1339.3 L1994.56 1339.3 L1992.18 1339.3 L1989.8 1339.3 L1987.42 1339.3 L1985.04 1339.3 L1982.66 1339.3 L1980.27 1339.3 L1977.89 1339.3 L1975.51 1339.3 L1973.13 1339.3 L1970.75 1339.3 L1968.37 1339.3 L1965.99 1339.3 L1963.61 1339.3 L1961.23 1339.3 L1958.85 1339.3 L1956.47 1339.3 L1954.09 1339.3 L1951.71 1339.3 L1949.33 1339.3 L1946.95 1339.3 L1944.56 1339.3 L1942.18 1339.3 L1939.8 1339.3 L1937.42 1339.3 L1935.04 1339.3 L1932.66 1339.3 L1930.28 1339.3 L1927.9 1339.3 L1925.52 1339.3 L1923.14 1339.3 L1920.76 1339.3 L1918.38 1339.3 L1916 1339.3 L1913.62 1339.3 L1911.24 1339.3 L1908.85 1339.3 L1906.47 1339.3 L1904.09 1339.3 L1901.71 1339.3 L1899.33 1339.3 L1896.95 1339.3 L1894.57 1339.3 L1892.19 1339.3 L1889.81 1339.3 L1887.43 1339.3 L1885.05 1339.3 L1882.67 1339.3 L1880.29 1339.3 L1877.91 1339.3 L1875.52 1339.3 L1873.14 1339.3 L1870.76 1339.3 L1868.38 1339.3 L1866 1339.3 L1863.62 1339.3 L1861.24 1339.3 L1858.86 1339.3 L1856.48 1339.3 L1854.1 1339.3 L1851.72 1339.3 L1849.34 1339.3 L1846.96 1339.3 L1844.58 1339.3 L1842.2 1339.3 L1839.81 1339.3 L1837.43 1339.3 L1835.05 1339.3 L1832.67 1339.3 L1830.29 1339.3 L1827.91 1339.3 L1825.53 1339.3 L1823.15 1339.3 L1820.77 1339.3 L1818.39 1339.3 L1816.01 1339.3 L1813.63 1339.3 L1811.25 1339.3 L1808.87 1339.3 L1806.49 1339.3 L1804.1 1339.3 L1801.72 1339.3 L1799.34 1339.3 L1796.96 1339.3 L1794.58 1339.3 L1792.2 1339.3 L1789.82 1339.3 L1787.44 1339.3 L1785.06 1339.3 L1782.68 1339.3 L1780.3 1339.3 L1777.92 1339.3 L1775.54 1339.3 L1773.16 1339.3 L1770.77 1339.3 L1768.39 1339.3 L1766.01 1339.3 L1763.63 1339.3 L1761.25 1339.3 L1758.87 1339.3 L1756.49 1339.3  Z" fill="#1f78b4" fill-rule="evenodd" fill-opacity="0.5"/>
<polyline clip-path="url(#clip792)" style="stroke:#1f78b4; stroke-linecap:round; stroke-linejoin:round; stroke-width:16; stroke-opacity:1; fill:none" points="1756.49,1148.85 1758.87,1151.22 1761.25,1153.55 1763.63,1155.86 1766.01,1158.14 1768.39,1160.39 1770.77,1162.61 1773.16,1164.81 1775.54,1166.97 1777.92,1169.11 1780.3,1171.22 1782.68,1173.31 1785.06,1175.37 1787.44,1177.4 1789.82,1179.41 1792.2,1181.39 1794.58,1183.34 1796.96,1185.27 1799.34,1187.18 1801.72,1189.06 1804.1,1190.92 1806.49,1192.76 1808.87,1194.57 1811.25,1196.35 1813.63,1198.12 1816.01,1199.86 1818.39,1201.58 1820.77,1203.28 1823.15,1204.95 1825.53,1206.61 1827.91,1208.24 1830.29,1209.85 1832.67,1211.44 1835.05,1213.02 1837.43,1214.57 1839.81,1216.1 1842.2,1217.61 1844.58,1219.1 1846.96,1220.57 1849.34,1222.02 1851.72,1223.45 1854.1,1224.87 1856.48,1226.27 1858.86,1227.64 1861.24,1229.01 1863.62,1230.35 1866,1231.67 1868.38,1232.98 1870.76,1234.27 1873.14,1235.55 1875.52,1236.81 1877.91,1238.05 1880.29,1239.27 1882.67,1240.48 1885.05,1241.68 1887.43,1242.86 1889.81,1244.02 1892.19,1245.17 1894.57,1246.3 1896.95,1247.42 1899.33,1248.52 1901.71,1249.61 1904.09,1250.69 1906.47,1251.75 1908.85,1252.8 1911.24,1253.83 1913.62,1254.85 1916,1255.86 1918.38,1256.85 1920.76,1257.83 1923.14,1258.8 1925.52,1259.76 1927.9,1260.7 1930.28,1261.64 1932.66,1262.55 1935.04,1263.46 1937.42,1264.36 1939.8,1265.24 1942.18,1266.12 1944.56,1266.98 1946.95,1267.83 1949.33,1268.67 1951.71,1269.5 1954.09,1270.31 1956.47,1271.12 1958.85,1271.92 1961.23,1272.71 1963.61,1273.48 1965.99,1274.25 1968.37,1275.01 1970.75,1275.75 1973.13,1276.49 1975.51,1277.22 1977.89,1277.94 1980.27,1278.65 1982.66,1279.35 1985.04,1280.04 1987.42,1280.72 1989.8,1281.4 1992.18,1282.06 1994.56,1282.72 1996.94,1283.37 1999.32,1284.01 2001.7,1284.64 2004.08,1285.27 2006.46,1285.88 2008.84,1286.49 2011.22,1287.09 2013.6,1287.68 2015.99,1288.27 2018.37,1288.85 2020.75,1289.42 2023.13,1289.98 2025.51,1290.54 2027.89,1291.09 2030.27,1291.63 2032.65,1292.17 2035.03,1292.7 2037.41,1293.22 2039.79,1293.73 2042.17,1294.24 2044.55,1294.75 2046.93,1295.24 2049.31,1295.73 2051.7,1296.22 2054.08,1296.7 2056.46,1297.17 2058.84,1297.64 2061.22,1298.1 2063.6,1298.55 2065.98,1299 2068.36,1299.44 2070.74,1299.88 2073.12,1300.32 2075.5,1300.74 2077.88,1301.17 2080.26,1301.58 2082.64,1301.99 2085.03,1302.4 2087.41,1302.8 2089.79,1303.2 2092.17,1303.59 2094.55,1303.98 2096.93,1304.36 2099.31,1304.74 2101.69,1305.11 2104.07,1305.48 2106.45,1305.84 2108.83,1306.2 2111.21,1306.56 2113.59,1306.91 2115.97,1307.26 2118.35,1307.6 2120.74,1307.94 2123.12,1308.27 2125.5,1308.6 2127.88,1308.93 2130.26,1309.25 2132.64,1309.57 2135.02,1309.88 2137.4,1310.19 2139.78,1310.5 2142.16,1310.8 2144.54,1311.1 2146.92,1311.4 2149.3,1311.69 2151.68,1311.98 2154.06,1312.27 2156.45,1312.55 2158.83,1312.83 2161.21,1313.1 2163.59,1313.38 2165.97,1313.65 2168.35,1313.91 2170.73,1314.17 2173.11,1314.43 2175.49,1314.69 2177.87,1314.94 2180.25,1315.19 2182.63,1315.44 2185.01,1315.69 2187.39,1315.93 2189.78,1316.17 2192.16,1316.4 2194.54,1316.64 2196.92,1316.87 2199.3,1317.1 2201.68,1317.32 2204.06,1317.54 2206.44,1317.76 2208.82,1317.98 2211.2,1318.2 2213.58,1318.41 2215.96,1318.62 2218.34,1318.83 2220.72,1319.03 2223.1,1319.24 2225.49,1319.44 2227.87,1319.63 2230.25,1319.83 2232.63,1320.02 "/>
<polyline clip-path="url(#clip792)" style="stroke:#1f78b4; stroke-linecap:round; stroke-linejoin:round; stroke-width:16; stroke-opacity:1; fill:none" points="328.081,1320.02 330.461,1319.83 332.842,1319.63 335.223,1319.44 337.603,1319.24 339.984,1319.03 342.365,1318.83 344.745,1318.62 347.126,1318.41 349.507,1318.2 351.887,1317.98 354.268,1317.76 356.649,1317.54 359.03,1317.32 361.41,1317.1 363.791,1316.87 366.172,1316.64 368.552,1316.4 370.933,1316.17 373.314,1315.93 375.694,1315.69 378.075,1315.44 380.456,1315.19 382.836,1314.94 385.217,1314.69 387.598,1314.43 389.978,1314.17 392.359,1313.91 394.74,1313.65 397.12,1313.38 399.501,1313.1 401.882,1312.83 404.263,1312.55 406.643,1312.27 409.024,1311.98 411.405,1311.69 413.785,1311.4 416.166,1311.1 418.547,1310.8 420.927,1310.5 423.308,1310.19 425.689,1309.88 428.069,1309.57 430.45,1309.25 432.831,1308.93 435.211,1308.6 437.592,1308.27 439.973,1307.94 442.353,1307.6 444.734,1307.26 447.115,1306.91 449.496,1306.56 451.876,1306.2 454.257,1305.84 456.638,1305.48 459.018,1305.11 461.399,1304.74 463.78,1304.36 466.16,1303.98 468.541,1303.59 470.922,1303.2 473.302,1302.8 475.683,1302.4 478.064,1301.99 480.444,1301.58 482.825,1301.17 485.206,1300.74 487.586,1300.32 489.967,1299.88 492.348,1299.44 494.728,1299 497.109,1298.55 499.49,1298.1 501.871,1297.64 504.251,1297.17 506.632,1296.7 509.013,1296.22 511.393,1295.73 513.774,1295.24 516.155,1294.75 518.535,1294.24 520.916,1293.73 523.297,1293.22 525.677,1292.7 528.058,1292.17 530.439,1291.63 532.819,1291.09 535.2,1290.54 537.581,1289.98 539.961,1289.42 542.342,1288.85 544.723,1288.27 547.104,1287.68 549.484,1287.09 551.865,1286.49 554.246,1285.88 556.626,1285.27 559.007,1284.64 561.388,1284.01 563.768,1283.37 566.149,1282.72 568.53,1282.06 570.91,1281.4 573.291,1280.72 575.672,1280.04 578.052,1279.35 580.433,1278.65 582.814,1277.94 585.194,1277.22 587.575,1276.49 589.956,1275.75 592.337,1275.01 594.717,1274.25 597.098,1273.48 599.479,1272.71 601.859,1271.92 604.24,1271.12 606.621,1270.31 609.001,1269.5 611.382,1268.67 613.763,1267.83 616.143,1266.98 618.524,1266.12 620.905,1265.24 623.285,1264.36 625.666,1263.46 628.047,1262.55 630.427,1261.64 632.808,1260.7 635.189,1259.76 637.569,1258.8 639.95,1257.83 642.331,1256.85 644.712,1255.86 647.092,1254.85 649.473,1253.83 651.854,1252.8 654.234,1251.75 656.615,1250.69 658.996,1249.61 661.376,1248.52 663.757,1247.42 666.138,1246.3 668.518,1245.17 670.899,1244.02 673.28,1242.86 675.66,1241.68 678.041,1240.48 680.422,1239.27 682.802,1238.05 685.183,1236.81 687.564,1235.55 689.945,1234.27 692.325,1232.98 694.706,1231.67 697.087,1230.35 699.467,1229.01 701.848,1227.64 704.229,1226.27 706.609,1224.87 708.99,1223.45 711.371,1222.02 713.751,1220.57 716.132,1219.1 718.513,1217.61 720.893,1216.1 723.274,1214.57 725.655,1213.02 728.035,1211.44 730.416,1209.85 732.797,1208.24 735.178,1206.61 737.558,1204.95 739.939,1203.28 742.32,1201.58 744.7,1199.86 747.081,1198.12 749.462,1196.35 751.842,1194.57 754.223,1192.76 756.604,1190.92 758.984,1189.06 761.365,1187.18 763.746,1185.27 766.126,1183.34 768.507,1181.39 770.888,1179.41 773.268,1177.4 775.649,1175.37 778.03,1173.31 780.411,1171.22 782.791,1169.11 785.172,1166.97 787.553,1164.81 789.933,1162.61 792.314,1160.39 794.695,1158.14 797.075,1155.86 799.456,1153.55 801.837,1151.22 804.217,1148.85 806.598,1146.46 808.979,1144.03 811.359,1141.58 813.74,1139.09 816.121,1136.57 818.501,1134.02 820.882,1131.44 823.263,1128.83 825.643,1126.18 828.024,1123.51 830.405,1120.8 832.786,1118.05 835.166,1115.28 837.547,1112.47 839.928,1109.62 842.308,1106.74 844.689,1103.83 847.07,1100.88 849.45,1097.89 851.831,1094.87 854.212,1091.82 856.592,1088.72 858.973,1085.59 861.354,1082.43 863.734,1079.22 866.115,1075.98 868.496,1072.7 870.876,1069.39 873.257,1066.03 875.638,1062.64 878.019,1059.21 880.399,1055.73 882.78,1052.22 885.161,1048.67 887.541,1045.08 889.922,1041.45 892.303,1037.78 894.683,1034.07 897.064,1030.31 899.445,1026.52 901.825,1022.69 904.206,1018.81 906.587,1014.89 908.967,1010.93 911.348,1006.93 913.729,1002.89 916.109,998.798 918.49,994.669 920.871,990.497 923.252,986.283 925.632,982.025 928.013,977.724 930.394,973.38 932.774,968.993 935.155,964.563 937.536,960.089 939.916,955.572 942.297,951.012 944.678,946.408 947.058,941.761 949.439,937.07 951.82,932.336 954.2,927.558 956.581,922.738 958.962,917.874 961.342,912.966 963.723,908.016 966.104,903.024 968.484,897.988 970.865,892.91 973.246,887.789 975.627,882.627 978.007,877.422 980.388,872.176 982.769,866.889 985.149,861.561 987.53,856.191 989.911,850.782 992.291,845.333 994.672,839.843 997.053,834.315 999.433,828.748 1001.81,823.143 1004.19,817.501 1006.58,811.82 1008.96,806.104 1011.34,800.351 1013.72,794.563 1016.1,788.74 1018.48,782.883 1020.86,776.993 1023.24,771.07 1025.62,765.115 1028,759.128 1030.38,753.112 1032.76,747.066 1035.14,740.992 1037.52,734.89 1039.9,728.761 1042.29,722.607 1044.67,716.428 1047.05,710.225 1049.43,704 1051.81,697.753 1054.19,691.486 1056.57,685.2 1058.95,678.896 1061.33,672.576 1063.71,666.24 1066.09,659.891 1068.47,653.529 1070.85,647.155 1073.23,640.772 1075.62,634.38 1078,627.982 1080.38,621.578 1082.76,615.17 1085.14,608.76 1087.52,602.35 1089.9,595.94 1092.28,589.534 1094.66,583.132 1097.04,576.736 1099.42,570.348 1101.8,563.97 1104.18,557.604 1106.56,551.251 1108.94,544.913 1111.33,538.593 1113.71,532.292 1116.09,526.012 1118.47,519.756 1120.85,513.524 1123.23,507.32 1125.61,501.146 1127.99,495.002 1130.37,488.892 1132.75,482.818 1135.13,476.782 1137.51,470.785 1139.89,464.83 1142.27,458.92 1144.66,453.056 1147.04,447.24 1149.42,441.476 1151.8,435.764 1154.18,430.108 1156.56,424.509 1158.94,418.969 1161.32,413.492 1163.7,408.078 1166.08,402.731 1168.46,397.452 1170.84,392.244 1173.22,387.109 1175.6,382.049 1177.98,377.066 1180.37,372.163 1182.75,367.341 1185.13,362.603 1187.51,357.95 1189.89,353.386 1192.27,348.911 1194.65,344.528 1197.03,340.24 1199.41,336.047 1201.79,331.952 1204.17,327.957 1206.55,324.064 1208.93,320.275 1211.31,316.59 1213.69,313.013 1216.08,309.545 1218.46,306.187 1220.84,302.942 1223.22,299.81 1225.6,296.794 1227.98,293.895 1230.36,291.114 1232.74,288.452 1235.12,285.912 1237.5,283.494 1239.88,281.199 1242.26,279.029 1244.64,276.985 1247.02,275.068 1249.41,273.279 1251.79,271.619 1254.17,270.088 1256.55,268.687 1258.93,267.418 1261.31,266.281 1263.69,265.276 1266.07,264.404 1268.45,263.665 1270.83,263.06 1273.21,262.589 1275.59,262.253 1277.97,262.051 1280.35,261.984 1282.73,262.051 1285.12,262.253 1287.5,262.589 1289.88,263.06 1292.26,263.665 1294.64,264.404 1297.02,265.276 1299.4,266.281 1301.78,267.418 1304.16,268.687 1306.54,270.088 1308.92,271.619 1311.3,273.279 1313.68,275.068 1316.06,276.985 1318.44,279.029 1320.83,281.199 1323.21,283.494 1325.59,285.912 1327.97,288.452 1330.35,291.114 1332.73,293.895 1335.11,296.794 1337.49,299.81 1339.87,302.942 1342.25,306.187 1344.63,309.545 1347.01,313.013 1349.39,316.59 1351.77,320.275 1354.16,324.064 1356.54,327.957 1358.92,331.952 1361.3,336.047 1363.68,340.24 1366.06,344.528 1368.44,348.911 1370.82,353.386 1373.2,357.95 1375.58,362.603 1377.96,367.341 1380.34,372.163 1382.72,377.066 1385.1,382.049 1387.48,387.109 1389.87,392.244 1392.25,397.452 1394.63,402.731 1397.01,408.078 1399.39,413.492 1401.77,418.969 1404.15,424.509 1406.53,430.108 1408.91,435.764 1411.29,441.476 1413.67,447.24 1416.05,453.056 1418.43,458.92 1420.81,464.83 1423.2,470.785 1425.58,476.782 1427.96,482.818 1430.34,488.892 1432.72,495.002 1435.1,501.146 1437.48,507.32 1439.86,513.524 1442.24,519.756 1444.62,526.012 1447,532.292 1449.38,538.593 1451.76,544.913 1454.14,551.251 1456.52,557.604 1458.91,563.97 1461.29,570.348 1463.67,576.736 1466.05,583.132 1468.43,589.534 1470.81,595.94 1473.19,602.35 1475.57,608.76 1477.95,615.17 1480.33,621.578 1482.71,627.982 1485.09,634.38 1487.47,640.772 1489.85,647.155 1492.23,653.529 1494.62,659.891 1497,666.24 1499.38,672.576 1501.76,678.896 1504.14,685.2 1506.52,691.486 1508.9,697.753 1511.28,704 1513.66,710.225 1516.04,716.428 1518.42,722.607 1520.8,728.761 1523.18,734.89 1525.56,740.992 1527.95,747.066 1530.33,753.112 1532.71,759.128 1535.09,765.115 1537.47,771.07 1539.85,776.993 1542.23,782.883 1544.61,788.74 1546.99,794.563 1549.37,800.351 1551.75,806.104 1554.13,811.82 1556.51,817.501 1558.89,823.143 1561.27,828.748 1563.66,834.315 1566.04,839.843 1568.42,845.333 1570.8,850.782 1573.18,856.191 1575.56,861.561 1577.94,866.889 1580.32,872.176 1582.7,877.422 1585.08,882.627 1587.46,887.789 1589.84,892.91 1592.22,897.988 1594.6,903.024 1596.98,908.016 1599.37,912.966 1601.75,917.874 1604.13,922.738 1606.51,927.558 1608.89,932.336 1611.27,937.07 1613.65,941.761 1616.03,946.408 1618.41,951.012 1620.79,955.572 1623.17,960.089 1625.55,964.563 1627.93,968.993 1630.31,973.38 1632.7,977.724 1635.08,982.025 1637.46,986.283 1639.84,990.497 1642.22,994.669 1644.6,998.798 1646.98,1002.89 1649.36,1006.93 1651.74,1010.93 1654.12,1014.89 1656.5,1018.81 1658.88,1022.69 1661.26,1026.52 1663.64,1030.31 1666.02,1034.07 1668.41,1037.78 1670.79,1041.45 1673.17,1045.08 1675.55,1048.67 1677.93,1052.22 1680.31,1055.73 1682.69,1059.21 1685.07,1062.64 1687.45,1066.03 1689.83,1069.39 1692.21,1072.7 1694.59,1075.98 1696.97,1079.22 1699.35,1082.43 1701.73,1085.59 1704.12,1088.72 1706.5,1091.82 1708.88,1094.87 1711.26,1097.89 1713.64,1100.88 1716.02,1103.83 1718.4,1106.74 1720.78,1109.62 1723.16,1112.47 1725.54,1115.28 1727.92,1118.05 1730.3,1120.8 1732.68,1123.51 1735.06,1126.18 1737.45,1128.83 1739.83,1131.44 1742.21,1134.02 1744.59,1136.57 1746.97,1139.09 1749.35,1141.58 1751.73,1144.03 1754.11,1146.46 1756.49,1148.85 1758.87,1151.22 1761.25,1153.55 1763.63,1155.86 1766.01,1158.14 1768.39,1160.39 1770.77,1162.61 1773.16,1164.81 1775.54,1166.97 1777.92,1169.11 1780.3,1171.22 1782.68,1173.31 1785.06,1175.37 1787.44,1177.4 1789.82,1179.41 1792.2,1181.39 1794.58,1183.34 1796.96,1185.27 1799.34,1187.18 1801.72,1189.06 1804.1,1190.92 1806.49,1192.76 1808.87,1194.57 1811.25,1196.35 1813.63,1198.12 1816.01,1199.86 1818.39,1201.58 1820.77,1203.28 1823.15,1204.95 1825.53,1206.61 1827.91,1208.24 1830.29,1209.85 1832.67,1211.44 1835.05,1213.02 1837.43,1214.57 1839.81,1216.1 1842.2,1217.61 1844.58,1219.1 1846.96,1220.57 1849.34,1222.02 1851.72,1223.45 1854.1,1224.87 1856.48,1226.27 1858.86,1227.64 1861.24,1229.01 1863.62,1230.35 1866,1231.67 1868.38,1232.98 1870.76,1234.27 1873.14,1235.55 1875.52,1236.81 1877.91,1238.05 1880.29,1239.27 1882.67,1240.48 1885.05,1241.68 1887.43,1242.86 1889.81,1244.02 1892.19,1245.17 1894.57,1246.3 1896.95,1247.42 1899.33,1248.52 1901.71,1249.61 1904.09,1250.69 1906.47,1251.75 1908.85,1252.8 1911.24,1253.83 1913.62,1254.85 1916,1255.86 1918.38,1256.85 1920.76,1257.83 1923.14,1258.8 1925.52,1259.76 1927.9,1260.7 1930.28,1261.64 1932.66,1262.55 1935.04,1263.46 1937.42,1264.36 1939.8,1265.24 1942.18,1266.12 1944.56,1266.98 1946.95,1267.83 1949.33,1268.67 1951.71,1269.5 1954.09,1270.31 1956.47,1271.12 1958.85,1271.92 1961.23,1272.71 1963.61,1273.48 1965.99,1274.25 1968.37,1275.01 1970.75,1275.75 1973.13,1276.49 1975.51,1277.22 1977.89,1277.94 1980.27,1278.65 1982.66,1279.35 1985.04,1280.04 1987.42,1280.72 1989.8,1281.4 1992.18,1282.06 1994.56,1282.72 1996.94,1283.37 1999.32,1284.01 2001.7,1284.64 2004.08,1285.27 2006.46,1285.88 2008.84,1286.49 2011.22,1287.09 2013.6,1287.68 2015.99,1288.27 2018.37,1288.85 2020.75,1289.42 2023.13,1289.98 2025.51,1290.54 2027.89,1291.09 2030.27,1291.63 2032.65,1292.17 2035.03,1292.7 2037.41,1293.22 2039.79,1293.73 2042.17,1294.24 2044.55,1294.75 2046.93,1295.24 2049.31,1295.73 2051.7,1296.22 2054.08,1296.7 2056.46,1297.17 2058.84,1297.64 2061.22,1298.1 2063.6,1298.55 2065.98,1299 2068.36,1299.44 2070.74,1299.88 2073.12,1300.32 2075.5,1300.74 2077.88,1301.17 2080.26,1301.58 2082.64,1301.99 2085.03,1302.4 2087.41,1302.8 2089.79,1303.2 2092.17,1303.59 2094.55,1303.98 2096.93,1304.36 2099.31,1304.74 2101.69,1305.11 2104.07,1305.48 2106.45,1305.84 2108.83,1306.2 2111.21,1306.56 2113.59,1306.91 2115.97,1307.26 2118.35,1307.6 2120.74,1307.94 2123.12,1308.27 2125.5,1308.6 2127.88,1308.93 2130.26,1309.25 2132.64,1309.57 2135.02,1309.88 2137.4,1310.19 2139.78,1310.5 2142.16,1310.8 2144.54,1311.1 2146.92,1311.4 2149.3,1311.69 2151.68,1311.98 2154.06,1312.27 2156.45,1312.55 2158.83,1312.83 2161.21,1313.1 2163.59,1313.38 2165.97,1313.65 2168.35,1313.91 2170.73,1314.17 2173.11,1314.43 2175.49,1314.69 2177.87,1314.94 2180.25,1315.19 2182.63,1315.44 2185.01,1315.69 2187.39,1315.93 2189.78,1316.17 2192.16,1316.4 2194.54,1316.64 2196.92,1316.87 2199.3,1317.1 2201.68,1317.32 2204.06,1317.54 2206.44,1317.76 2208.82,1317.98 2211.2,1318.2 2213.58,1318.41 2215.96,1318.62 2218.34,1318.83 2220.72,1319.03 2223.1,1319.24 2225.49,1319.44 2227.87,1319.63 2230.25,1319.83 2232.63,1320.02 "/>
<path clip-path="url(#clip792)" d="M328.081 1320.02 L330.461 1319.83 L332.842 1319.63 L335.223 1319.44 L337.603 1319.24 L339.984 1319.03 L342.365 1318.83 L344.745 1318.62 L347.126 1318.41 L349.507 1318.2 L351.887 1317.98 L354.268 1317.76 L356.649 1317.54 L359.03 1317.32 L361.41 1317.1 L363.791 1316.87 L366.172 1316.64 L368.552 1316.4 L370.933 1316.17 L373.314 1315.93 L375.694 1315.69 L378.075 1315.44 L380.456 1315.19 L382.836 1314.94 L385.217 1314.69 L387.598 1314.43 L389.978 1314.17 L392.359 1313.91 L394.74 1313.65 L397.12 1313.38 L399.501 1313.1 L401.882 1312.83 L404.263 1312.55 L406.643 1312.27 L409.024 1311.98 L411.405 1311.69 L413.785 1311.4 L416.166 1311.1 L418.547 1310.8 L420.927 1310.5 L423.308 1310.19 L425.689 1309.88 L428.069 1309.57 L430.45 1309.25 L432.831 1308.93 L435.211 1308.6 L437.592 1308.27 L439.973 1307.94 L442.353 1307.6 L444.734 1307.26 L447.115 1306.91 L449.496 1306.56 L451.876 1306.2 L454.257 1305.84 L456.638 1305.48 L459.018 1305.11 L461.399 1304.74 L463.78 1304.36 L466.16 1303.98 L468.541 1303.59 L470.922 1303.2 L473.302 1302.8 L475.683 1302.4 L478.064 1301.99 L480.444 1301.58 L482.825 1301.17 L485.206 1300.74 L487.586 1300.32 L489.967 1299.88 L492.348 1299.44 L494.728 1299 L497.109 1298.55 L499.49 1298.1 L501.871 1297.64 L504.251 1297.17 L506.632 1296.7 L509.013 1296.22 L511.393 1295.73 L513.774 1295.24 L516.155 1294.75 L518.535 1294.24 L520.916 1293.73 L523.297 1293.22 L525.677 1292.7 L528.058 1292.17 L530.439 1291.63 L532.819 1291.09 L535.2 1290.54 L537.581 1289.98 L539.961 1289.42 L542.342 1288.85 L544.723 1288.27 L547.104 1287.68 L549.484 1287.09 L551.865 1286.49 L554.246 1285.88 L556.626 1285.27 L559.007 1284.64 L561.388 1284.01 L563.768 1283.37 L566.149 1282.72 L568.53 1282.06 L570.91 1281.4 L573.291 1280.72 L575.672 1280.04 L578.052 1279.35 L580.433 1278.65 L582.814 1277.94 L585.194 1277.22 L587.575 1276.49 L589.956 1275.75 L592.337 1275.01 L594.717 1274.25 L597.098 1273.48 L599.479 1272.71 L601.859 1271.92 L604.24 1271.12 L606.621 1270.31 L609.001 1269.5 L611.382 1268.67 L613.763 1267.83 L616.143 1266.98 L618.524 1266.12 L620.905 1265.24 L623.285 1264.36 L625.666 1263.46 L628.047 1262.55 L630.427 1261.64 L632.808 1260.7 L635.189 1259.76 L637.569 1258.8 L639.95 1257.83 L642.331 1256.85 L644.712 1255.86 L647.092 1254.85 L649.473 1253.83 L651.854 1252.8 L654.234 1251.75 L656.615 1250.69 L658.996 1249.61 L661.376 1248.52 L663.757 1247.42 L666.138 1246.3 L668.518 1245.17 L670.899 1244.02 L673.28 1242.86 L675.66 1241.68 L678.041 1240.48 L680.422 1239.27 L682.802 1238.05 L685.183 1236.81 L687.564 1235.55 L689.945 1234.27 L692.325 1232.98 L694.706 1231.67 L697.087 1230.35 L699.467 1229.01 L701.848 1227.64 L704.229 1226.27 L706.609 1224.87 L708.99 1223.45 L711.371 1222.02 L713.751 1220.57 L716.132 1219.1 L718.513 1217.61 L720.893 1216.1 L723.274 1214.57 L725.655 1213.02 L728.035 1211.44 L730.416 1209.85 L732.797 1208.24 L735.178 1206.61 L737.558 1204.95 L739.939 1203.28 L742.32 1201.58 L744.7 1199.86 L747.081 1198.12 L749.462 1196.35 L751.842 1194.57 L754.223 1192.76 L756.604 1190.92 L758.984 1189.06 L761.365 1187.18 L763.746 1185.27 L766.126 1183.34 L768.507 1181.39 L770.888 1179.41 L773.268 1177.4 L775.649 1175.37 L778.03 1173.31 L780.411 1171.22 L782.791 1169.11 L785.172 1166.97 L787.553 1164.81 L789.933 1162.61 L792.314 1160.39 L794.695 1158.14 L797.075 1155.86 L799.456 1153.55 L801.837 1151.22 L804.217 1148.85 L804.217 1339.3 L801.837 1339.3 L799.456 1339.3 L797.075 1339.3 L794.695 1339.3 L792.314 1339.3 L789.933 1339.3 L787.553 1339.3 L785.172 1339.3 L782.791 1339.3 L780.411 1339.3 L778.03 1339.3 L775.649 1339.3 L773.268 1339.3 L770.888 1339.3 L768.507 1339.3 L766.126 1339.3 L763.746 1339.3 L761.365 1339.3 L758.984 1339.3 L756.604 1339.3 L754.223 1339.3 L751.842 1339.3 L749.462 1339.3 L747.081 1339.3 L744.7 1339.3 L742.32 1339.3 L739.939 1339.3 L737.558 1339.3 L735.178 1339.3 L732.797 1339.3 L730.416 1339.3 L728.035 1339.3 L725.655 1339.3 L723.274 1339.3 L720.893 1339.3 L718.513 1339.3 L716.132 1339.3 L713.751 1339.3 L711.371 1339.3 L708.99 1339.3 L706.609 1339.3 L704.229 1339.3 L701.848 1339.3 L699.467 1339.3 L697.087 1339.3 L694.706 1339.3 L692.325 1339.3 L689.945 1339.3 L687.564 1339.3 L685.183 1339.3 L682.802 1339.3 L680.422 1339.3 L678.041 1339.3 L675.66 1339.3 L673.28 1339.3 L670.899 1339.3 L668.518 1339.3 L666.138 1339.3 L663.757 1339.3 L661.376 1339.3 L658.996 1339.3 L656.615 1339.3 L654.234 1339.3 L651.854 1339.3 L649.473 1339.3 L647.092 1339.3 L644.712 1339.3 L642.331 1339.3 L639.95 1339.3 L637.569 1339.3 L635.189 1339.3 L632.808 1339.3 L630.427 1339.3 L628.047 1339.3 L625.666 1339.3 L623.285 1339.3 L620.905 1339.3 L618.524 1339.3 L616.143 1339.3 L613.763 1339.3 L611.382 1339.3 L609.001 1339.3 L606.621 1339.3 L604.24 1339.3 L601.859 1339.3 L599.479 1339.3 L597.098 1339.3 L594.717 1339.3 L592.337 1339.3 L589.956 1339.3 L587.575 1339.3 L585.194 1339.3 L582.814 1339.3 L580.433 1339.3 L578.052 1339.3 L575.672 1339.3 L573.291 1339.3 L570.91 1339.3 L568.53 1339.3 L566.149 1339.3 L563.768 1339.3 L561.388 1339.3 L559.007 1339.3 L556.626 1339.3 L554.246 1339.3 L551.865 1339.3 L549.484 1339.3 L547.104 1339.3 L544.723 1339.3 L542.342 1339.3 L539.961 1339.3 L537.581 1339.3 L535.2 1339.3 L532.819 1339.3 L530.439 1339.3 L528.058 1339.3 L525.677 1339.3 L523.297 1339.3 L520.916 1339.3 L518.535 1339.3 L516.155 1339.3 L513.774 1339.3 L511.393 1339.3 L509.013 1339.3 L506.632 1339.3 L504.251 1339.3 L501.871 1339.3 L499.49 1339.3 L497.109 1339.3 L494.728 1339.3 L492.348 1339.3 L489.967 1339.3 L487.586 1339.3 L485.206 1339.3 L482.825 1339.3 L480.444 1339.3 L478.064 1339.3 L475.683 1339.3 L473.302 1339.3 L470.922 1339.3 L468.541 1339.3 L466.16 1339.3 L463.78 1339.3 L461.399 1339.3 L459.018 1339.3 L456.638 1339.3 L454.257 1339.3 L451.876 1339.3 L449.496 1339.3 L447.115 1339.3 L444.734 1339.3 L442.353 1339.3 L439.973 1339.3 L437.592 1339.3 L435.211 1339.3 L432.831 1339.3 L430.45 1339.3 L428.069 1339.3 L425.689 1339.3 L423.308 1339.3 L420.927 1339.3 L418.547 1339.3 L416.166 1339.3 L413.785 1339.3 L411.405 1339.3 L409.024 1339.3 L406.643 1339.3 L404.263 1339.3 L401.882 1339.3 L399.501 1339.3 L397.12 1339.3 L394.74 1339.3 L392.359 1339.3 L389.978 1339.3 L387.598 1339.3 L385.217 1339.3 L382.836 1339.3 L380.456 1339.3 L378.075 1339.3 L375.694 1339.3 L373.314 1339.3 L370.933 1339.3 L368.552 1339.3 L366.172 1339.3 L363.791 1339.3 L361.41 1339.3 L359.03 1339.3 L356.649 1339.3 L354.268 1339.3 L351.887 1339.3 L349.507 1339.3 L347.126 1339.3 L344.745 1339.3 L342.365 1339.3 L339.984 1339.3 L337.603 1339.3 L335.223 1339.3 L332.842 1339.3 L330.461 1339.3 L328.081 1339.3  Z" fill="#1f78b4" fill-rule="evenodd" fill-opacity="0.5"/>
<polyline clip-path="url(#clip792)" style="stroke:#1f78b4; stroke-linecap:round; stroke-linejoin:round; stroke-width:16; stroke-opacity:1; fill:none" points="328.081,1320.02 330.461,1319.83 332.842,1319.63 335.223,1319.44 337.603,1319.24 339.984,1319.03 342.365,1318.83 344.745,1318.62 347.126,1318.41 349.507,1318.2 351.887,1317.98 354.268,1317.76 356.649,1317.54 359.03,1317.32 361.41,1317.1 363.791,1316.87 366.172,1316.64 368.552,1316.4 370.933,1316.17 373.314,1315.93 375.694,1315.69 378.075,1315.44 380.456,1315.19 382.836,1314.94 385.217,1314.69 387.598,1314.43 389.978,1314.17 392.359,1313.91 394.74,1313.65 397.12,1313.38 399.501,1313.1 401.882,1312.83 404.263,1312.55 406.643,1312.27 409.024,1311.98 411.405,1311.69 413.785,1311.4 416.166,1311.1 418.547,1310.8 420.927,1310.5 423.308,1310.19 425.689,1309.88 428.069,1309.57 430.45,1309.25 432.831,1308.93 435.211,1308.6 437.592,1308.27 439.973,1307.94 442.353,1307.6 444.734,1307.26 447.115,1306.91 449.496,1306.56 451.876,1306.2 454.257,1305.84 456.638,1305.48 459.018,1305.11 461.399,1304.74 463.78,1304.36 466.16,1303.98 468.541,1303.59 470.922,1303.2 473.302,1302.8 475.683,1302.4 478.064,1301.99 480.444,1301.58 482.825,1301.17 485.206,1300.74 487.586,1300.32 489.967,1299.88 492.348,1299.44 494.728,1299 497.109,1298.55 499.49,1298.1 501.871,1297.64 504.251,1297.17 506.632,1296.7 509.013,1296.22 511.393,1295.73 513.774,1295.24 516.155,1294.75 518.535,1294.24 520.916,1293.73 523.297,1293.22 525.677,1292.7 528.058,1292.17 530.439,1291.63 532.819,1291.09 535.2,1290.54 537.581,1289.98 539.961,1289.42 542.342,1288.85 544.723,1288.27 547.104,1287.68 549.484,1287.09 551.865,1286.49 554.246,1285.88 556.626,1285.27 559.007,1284.64 561.388,1284.01 563.768,1283.37 566.149,1282.72 568.53,1282.06 570.91,1281.4 573.291,1280.72 575.672,1280.04 578.052,1279.35 580.433,1278.65 582.814,1277.94 585.194,1277.22 587.575,1276.49 589.956,1275.75 592.337,1275.01 594.717,1274.25 597.098,1273.48 599.479,1272.71 601.859,1271.92 604.24,1271.12 606.621,1270.31 609.001,1269.5 611.382,1268.67 613.763,1267.83 616.143,1266.98 618.524,1266.12 620.905,1265.24 623.285,1264.36 625.666,1263.46 628.047,1262.55 630.427,1261.64 632.808,1260.7 635.189,1259.76 637.569,1258.8 639.95,1257.83 642.331,1256.85 644.712,1255.86 647.092,1254.85 649.473,1253.83 651.854,1252.8 654.234,1251.75 656.615,1250.69 658.996,1249.61 661.376,1248.52 663.757,1247.42 666.138,1246.3 668.518,1245.17 670.899,1244.02 673.28,1242.86 675.66,1241.68 678.041,1240.48 680.422,1239.27 682.802,1238.05 685.183,1236.81 687.564,1235.55 689.945,1234.27 692.325,1232.98 694.706,1231.67 697.087,1230.35 699.467,1229.01 701.848,1227.64 704.229,1226.27 706.609,1224.87 708.99,1223.45 711.371,1222.02 713.751,1220.57 716.132,1219.1 718.513,1217.61 720.893,1216.1 723.274,1214.57 725.655,1213.02 728.035,1211.44 730.416,1209.85 732.797,1208.24 735.178,1206.61 737.558,1204.95 739.939,1203.28 742.32,1201.58 744.7,1199.86 747.081,1198.12 749.462,1196.35 751.842,1194.57 754.223,1192.76 756.604,1190.92 758.984,1189.06 761.365,1187.18 763.746,1185.27 766.126,1183.34 768.507,1181.39 770.888,1179.41 773.268,1177.4 775.649,1175.37 778.03,1173.31 780.411,1171.22 782.791,1169.11 785.172,1166.97 787.553,1164.81 789.933,1162.61 792.314,1160.39 794.695,1158.14 797.075,1155.86 799.456,1153.55 801.837,1151.22 804.217,1148.85 "/>
<polyline clip-path="url(#clip792)" style="stroke:#1f78b4; stroke-linecap:round; stroke-linejoin:round; stroke-width:16; stroke-opacity:1; fill:none" points="328.081,1320.02 330.461,1319.83 332.842,1319.63 335.223,1319.44 337.603,1319.24 339.984,1319.03 342.365,1318.83 344.745,1318.62 347.126,1318.41 349.507,1318.2 351.887,1317.98 354.268,1317.76 356.649,1317.54 359.03,1317.32 361.41,1317.1 363.791,1316.87 366.172,1316.64 368.552,1316.4 370.933,1316.17 373.314,1315.93 375.694,1315.69 378.075,1315.44 380.456,1315.19 382.836,1314.94 385.217,1314.69 387.598,1314.43 389.978,1314.17 392.359,1313.91 394.74,1313.65 397.12,1313.38 399.501,1313.1 401.882,1312.83 404.263,1312.55 406.643,1312.27 409.024,1311.98 411.405,1311.69 413.785,1311.4 416.166,1311.1 418.547,1310.8 420.927,1310.5 423.308,1310.19 425.689,1309.88 428.069,1309.57 430.45,1309.25 432.831,1308.93 435.211,1308.6 437.592,1308.27 439.973,1307.94 442.353,1307.6 444.734,1307.26 447.115,1306.91 449.496,1306.56 451.876,1306.2 454.257,1305.84 456.638,1305.48 459.018,1305.11 461.399,1304.74 463.78,1304.36 466.16,1303.98 468.541,1303.59 470.922,1303.2 473.302,1302.8 475.683,1302.4 478.064,1301.99 480.444,1301.58 482.825,1301.17 485.206,1300.74 487.586,1300.32 489.967,1299.88 492.348,1299.44 494.728,1299 497.109,1298.55 499.49,1298.1 501.871,1297.64 504.251,1297.17 506.632,1296.7 509.013,1296.22 511.393,1295.73 513.774,1295.24 516.155,1294.75 518.535,1294.24 520.916,1293.73 523.297,1293.22 525.677,1292.7 528.058,1292.17 530.439,1291.63 532.819,1291.09 535.2,1290.54 537.581,1289.98 539.961,1289.42 542.342,1288.85 544.723,1288.27 547.104,1287.68 549.484,1287.09 551.865,1286.49 554.246,1285.88 556.626,1285.27 559.007,1284.64 561.388,1284.01 563.768,1283.37 566.149,1282.72 568.53,1282.06 570.91,1281.4 573.291,1280.72 575.672,1280.04 578.052,1279.35 580.433,1278.65 582.814,1277.94 585.194,1277.22 587.575,1276.49 589.956,1275.75 592.337,1275.01 594.717,1274.25 597.098,1273.48 599.479,1272.71 601.859,1271.92 604.24,1271.12 606.621,1270.31 609.001,1269.5 611.382,1268.67 613.763,1267.83 616.143,1266.98 618.524,1266.12 620.905,1265.24 623.285,1264.36 625.666,1263.46 628.047,1262.55 630.427,1261.64 632.808,1260.7 635.189,1259.76 637.569,1258.8 639.95,1257.83 642.331,1256.85 644.712,1255.86 647.092,1254.85 649.473,1253.83 651.854,1252.8 654.234,1251.75 656.615,1250.69 658.996,1249.61 661.376,1248.52 663.757,1247.42 666.138,1246.3 668.518,1245.17 670.899,1244.02 673.28,1242.86 675.66,1241.68 678.041,1240.48 680.422,1239.27 682.802,1238.05 685.183,1236.81 687.564,1235.55 689.945,1234.27 692.325,1232.98 694.706,1231.67 697.087,1230.35 699.467,1229.01 701.848,1227.64 704.229,1226.27 706.609,1224.87 708.99,1223.45 711.371,1222.02 713.751,1220.57 716.132,1219.1 718.513,1217.61 720.893,1216.1 723.274,1214.57 725.655,1213.02 728.035,1211.44 730.416,1209.85 732.797,1208.24 735.178,1206.61 737.558,1204.95 739.939,1203.28 742.32,1201.58 744.7,1199.86 747.081,1198.12 749.462,1196.35 751.842,1194.57 754.223,1192.76 756.604,1190.92 758.984,1189.06 761.365,1187.18 763.746,1185.27 766.126,1183.34 768.507,1181.39 770.888,1179.41 773.268,1177.4 775.649,1175.37 778.03,1173.31 780.411,1171.22 782.791,1169.11 785.172,1166.97 787.553,1164.81 789.933,1162.61 792.314,1160.39 794.695,1158.14 797.075,1155.86 799.456,1153.55 801.837,1151.22 804.217,1148.85 806.598,1146.46 808.979,1144.03 811.359,1141.58 813.74,1139.09 816.121,1136.57 818.501,1134.02 820.882,1131.44 823.263,1128.83 825.643,1126.18 828.024,1123.51 830.405,1120.8 832.786,1118.05 835.166,1115.28 837.547,1112.47 839.928,1109.62 842.308,1106.74 844.689,1103.83 847.07,1100.88 849.45,1097.89 851.831,1094.87 854.212,1091.82 856.592,1088.72 858.973,1085.59 861.354,1082.43 863.734,1079.22 866.115,1075.98 868.496,1072.7 870.876,1069.39 873.257,1066.03 875.638,1062.64 878.019,1059.21 880.399,1055.73 882.78,1052.22 885.161,1048.67 887.541,1045.08 889.922,1041.45 892.303,1037.78 894.683,1034.07 897.064,1030.31 899.445,1026.52 901.825,1022.69 904.206,1018.81 906.587,1014.89 908.967,1010.93 911.348,1006.93 913.729,1002.89 916.109,998.798 918.49,994.669 920.871,990.497 923.252,986.283 925.632,982.025 928.013,977.724 930.394,973.38 932.774,968.993 935.155,964.563 937.536,960.089 939.916,955.572 942.297,951.012 944.678,946.408 947.058,941.761 949.439,937.07 951.82,932.336 954.2,927.558 956.581,922.738 958.962,917.874 961.342,912.966 963.723,908.016 966.104,903.024 968.484,897.988 970.865,892.91 973.246,887.789 975.627,882.627 978.007,877.422 980.388,872.176 982.769,866.889 985.149,861.561 987.53,856.191 989.911,850.782 992.291,845.333 994.672,839.843 997.053,834.315 999.433,828.748 1001.81,823.143 1004.19,817.501 1006.58,811.82 1008.96,806.104 1011.34,800.351 1013.72,794.563 1016.1,788.74 1018.48,782.883 1020.86,776.993 1023.24,771.07 1025.62,765.115 1028,759.128 1030.38,753.112 1032.76,747.066 1035.14,740.992 1037.52,734.89 1039.9,728.761 1042.29,722.607 1044.67,716.428 1047.05,710.225 1049.43,704 1051.81,697.753 1054.19,691.486 1056.57,685.2 1058.95,678.896 1061.33,672.576 1063.71,666.24 1066.09,659.891 1068.47,653.529 1070.85,647.155 1073.23,640.772 1075.62,634.38 1078,627.982 1080.38,621.578 1082.76,615.17 1085.14,608.76 1087.52,602.35 1089.9,595.94 1092.28,589.534 1094.66,583.132 1097.04,576.736 1099.42,570.348 1101.8,563.97 1104.18,557.604 1106.56,551.251 1108.94,544.913 1111.33,538.593 1113.71,532.292 1116.09,526.012 1118.47,519.756 1120.85,513.524 1123.23,507.32 1125.61,501.146 1127.99,495.002 1130.37,488.892 1132.75,482.818 1135.13,476.782 1137.51,470.785 1139.89,464.83 1142.27,458.92 1144.66,453.056 1147.04,447.24 1149.42,441.476 1151.8,435.764 1154.18,430.108 1156.56,424.509 1158.94,418.969 1161.32,413.492 1163.7,408.078 1166.08,402.731 1168.46,397.452 1170.84,392.244 1173.22,387.109 1175.6,382.049 1177.98,377.066 1180.37,372.163 1182.75,367.341 1185.13,362.603 1187.51,357.95 1189.89,353.386 1192.27,348.911 1194.65,344.528 1197.03,340.24 1199.41,336.047 1201.79,331.952 1204.17,327.957 1206.55,324.064 1208.93,320.275 1211.31,316.59 1213.69,313.013 1216.08,309.545 1218.46,306.187 1220.84,302.942 1223.22,299.81 1225.6,296.794 1227.98,293.895 1230.36,291.114 1232.74,288.452 1235.12,285.912 1237.5,283.494 1239.88,281.199 1242.26,279.029 1244.64,276.985 1247.02,275.068 1249.41,273.279 1251.79,271.619 1254.17,270.088 1256.55,268.687 1258.93,267.418 1261.31,266.281 1263.69,265.276 1266.07,264.404 1268.45,263.665 1270.83,263.06 1273.21,262.589 1275.59,262.253 1277.97,262.051 1280.35,261.984 1282.73,262.051 1285.12,262.253 1287.5,262.589 1289.88,263.06 1292.26,263.665 1294.64,264.404 1297.02,265.276 1299.4,266.281 1301.78,267.418 1304.16,268.687 1306.54,270.088 1308.92,271.619 1311.3,273.279 1313.68,275.068 1316.06,276.985 1318.44,279.029 1320.83,281.199 1323.21,283.494 1325.59,285.912 1327.97,288.452 1330.35,291.114 1332.73,293.895 1335.11,296.794 1337.49,299.81 1339.87,302.942 1342.25,306.187 1344.63,309.545 1347.01,313.013 1349.39,316.59 1351.77,320.275 1354.16,324.064 1356.54,327.957 1358.92,331.952 1361.3,336.047 1363.68,340.24 1366.06,344.528 1368.44,348.911 1370.82,353.386 1373.2,357.95 1375.58,362.603 1377.96,367.341 1380.34,372.163 1382.72,377.066 1385.1,382.049 1387.48,387.109 1389.87,392.244 1392.25,397.452 1394.63,402.731 1397.01,408.078 1399.39,413.492 1401.77,418.969 1404.15,424.509 1406.53,430.108 1408.91,435.764 1411.29,441.476 1413.67,447.24 1416.05,453.056 1418.43,458.92 1420.81,464.83 1423.2,470.785 1425.58,476.782 1427.96,482.818 1430.34,488.892 1432.72,495.002 1435.1,501.146 1437.48,507.32 1439.86,513.524 1442.24,519.756 1444.62,526.012 1447,532.292 1449.38,538.593 1451.76,544.913 1454.14,551.251 1456.52,557.604 1458.91,563.97 1461.29,570.348 1463.67,576.736 1466.05,583.132 1468.43,589.534 1470.81,595.94 1473.19,602.35 1475.57,608.76 1477.95,615.17 1480.33,621.578 1482.71,627.982 1485.09,634.38 1487.47,640.772 1489.85,647.155 1492.23,653.529 1494.62,659.891 1497,666.24 1499.38,672.576 1501.76,678.896 1504.14,685.2 1506.52,691.486 1508.9,697.753 1511.28,704 1513.66,710.225 1516.04,716.428 1518.42,722.607 1520.8,728.761 1523.18,734.89 1525.56,740.992 1527.95,747.066 1530.33,753.112 1532.71,759.128 1535.09,765.115 1537.47,771.07 1539.85,776.993 1542.23,782.883 1544.61,788.74 1546.99,794.563 1549.37,800.351 1551.75,806.104 1554.13,811.82 1556.51,817.501 1558.89,823.143 1561.27,828.748 1563.66,834.315 1566.04,839.843 1568.42,845.333 1570.8,850.782 1573.18,856.191 1575.56,861.561 1577.94,866.889 1580.32,872.176 1582.7,877.422 1585.08,882.627 1587.46,887.789 1589.84,892.91 1592.22,897.988 1594.6,903.024 1596.98,908.016 1599.37,912.966 1601.75,917.874 1604.13,922.738 1606.51,927.558 1608.89,932.336 1611.27,937.07 1613.65,941.761 1616.03,946.408 1618.41,951.012 1620.79,955.572 1623.17,960.089 1625.55,964.563 1627.93,968.993 1630.31,973.38 1632.7,977.724 1635.08,982.025 1637.46,986.283 1639.84,990.497 1642.22,994.669 1644.6,998.798 1646.98,1002.89 1649.36,1006.93 1651.74,1010.93 1654.12,1014.89 1656.5,1018.81 1658.88,1022.69 1661.26,1026.52 1663.64,1030.31 1666.02,1034.07 1668.41,1037.78 1670.79,1041.45 1673.17,1045.08 1675.55,1048.67 1677.93,1052.22 1680.31,1055.73 1682.69,1059.21 1685.07,1062.64 1687.45,1066.03 1689.83,1069.39 1692.21,1072.7 1694.59,1075.98 1696.97,1079.22 1699.35,1082.43 1701.73,1085.59 1704.12,1088.72 1706.5,1091.82 1708.88,1094.87 1711.26,1097.89 1713.64,1100.88 1716.02,1103.83 1718.4,1106.74 1720.78,1109.62 1723.16,1112.47 1725.54,1115.28 1727.92,1118.05 1730.3,1120.8 1732.68,1123.51 1735.06,1126.18 1737.45,1128.83 1739.83,1131.44 1742.21,1134.02 1744.59,1136.57 1746.97,1139.09 1749.35,1141.58 1751.73,1144.03 1754.11,1146.46 1756.49,1148.85 1758.87,1151.22 1761.25,1153.55 1763.63,1155.86 1766.01,1158.14 1768.39,1160.39 1770.77,1162.61 1773.16,1164.81 1775.54,1166.97 1777.92,1169.11 1780.3,1171.22 1782.68,1173.31 1785.06,1175.37 1787.44,1177.4 1789.82,1179.41 1792.2,1181.39 1794.58,1183.34 1796.96,1185.27 1799.34,1187.18 1801.72,1189.06 1804.1,1190.92 1806.49,1192.76 1808.87,1194.57 1811.25,1196.35 1813.63,1198.12 1816.01,1199.86 1818.39,1201.58 1820.77,1203.28 1823.15,1204.95 1825.53,1206.61 1827.91,1208.24 1830.29,1209.85 1832.67,1211.44 1835.05,1213.02 1837.43,1214.57 1839.81,1216.1 1842.2,1217.61 1844.58,1219.1 1846.96,1220.57 1849.34,1222.02 1851.72,1223.45 1854.1,1224.87 1856.48,1226.27 1858.86,1227.64 1861.24,1229.01 1863.62,1230.35 1866,1231.67 1868.38,1232.98 1870.76,1234.27 1873.14,1235.55 1875.52,1236.81 1877.91,1238.05 1880.29,1239.27 1882.67,1240.48 1885.05,1241.68 1887.43,1242.86 1889.81,1244.02 1892.19,1245.17 1894.57,1246.3 1896.95,1247.42 1899.33,1248.52 1901.71,1249.61 1904.09,1250.69 1906.47,1251.75 1908.85,1252.8 1911.24,1253.83 1913.62,1254.85 1916,1255.86 1918.38,1256.85 1920.76,1257.83 1923.14,1258.8 1925.52,1259.76 1927.9,1260.7 1930.28,1261.64 1932.66,1262.55 1935.04,1263.46 1937.42,1264.36 1939.8,1265.24 1942.18,1266.12 1944.56,1266.98 1946.95,1267.83 1949.33,1268.67 1951.71,1269.5 1954.09,1270.31 1956.47,1271.12 1958.85,1271.92 1961.23,1272.71 1963.61,1273.48 1965.99,1274.25 1968.37,1275.01 1970.75,1275.75 1973.13,1276.49 1975.51,1277.22 1977.89,1277.94 1980.27,1278.65 1982.66,1279.35 1985.04,1280.04 1987.42,1280.72 1989.8,1281.4 1992.18,1282.06 1994.56,1282.72 1996.94,1283.37 1999.32,1284.01 2001.7,1284.64 2004.08,1285.27 2006.46,1285.88 2008.84,1286.49 2011.22,1287.09 2013.6,1287.68 2015.99,1288.27 2018.37,1288.85 2020.75,1289.42 2023.13,1289.98 2025.51,1290.54 2027.89,1291.09 2030.27,1291.63 2032.65,1292.17 2035.03,1292.7 2037.41,1293.22 2039.79,1293.73 2042.17,1294.24 2044.55,1294.75 2046.93,1295.24 2049.31,1295.73 2051.7,1296.22 2054.08,1296.7 2056.46,1297.17 2058.84,1297.64 2061.22,1298.1 2063.6,1298.55 2065.98,1299 2068.36,1299.44 2070.74,1299.88 2073.12,1300.32 2075.5,1300.74 2077.88,1301.17 2080.26,1301.58 2082.64,1301.99 2085.03,1302.4 2087.41,1302.8 2089.79,1303.2 2092.17,1303.59 2094.55,1303.98 2096.93,1304.36 2099.31,1304.74 2101.69,1305.11 2104.07,1305.48 2106.45,1305.84 2108.83,1306.2 2111.21,1306.56 2113.59,1306.91 2115.97,1307.26 2118.35,1307.6 2120.74,1307.94 2123.12,1308.27 2125.5,1308.6 2127.88,1308.93 2130.26,1309.25 2132.64,1309.57 2135.02,1309.88 2137.4,1310.19 2139.78,1310.5 2142.16,1310.8 2144.54,1311.1 2146.92,1311.4 2149.3,1311.69 2151.68,1311.98 2154.06,1312.27 2156.45,1312.55 2158.83,1312.83 2161.21,1313.1 2163.59,1313.38 2165.97,1313.65 2168.35,1313.91 2170.73,1314.17 2173.11,1314.43 2175.49,1314.69 2177.87,1314.94 2180.25,1315.19 2182.63,1315.44 2185.01,1315.69 2187.39,1315.93 2189.78,1316.17 2192.16,1316.4 2194.54,1316.64 2196.92,1316.87 2199.3,1317.1 2201.68,1317.32 2204.06,1317.54 2206.44,1317.76 2208.82,1317.98 2211.2,1318.2 2213.58,1318.41 2215.96,1318.62 2218.34,1318.83 2220.72,1319.03 2223.1,1319.24 2225.49,1319.44 2227.87,1319.63 2230.25,1319.83 2232.63,1320.02 "/>
<polyline clip-path="url(#clip792)" style="stroke:#000000; stroke-linecap:round; stroke-linejoin:round; stroke-width:8; stroke-opacity:1; fill:none" points="542.342,1181.29 685.183,1296.2 "/>
<polyline clip-path="url(#clip792)" style="stroke:#000000; stroke-linecap:round; stroke-linejoin:round; stroke-width:8; stroke-opacity:1; fill:none" points="668.416,1259.61 685.183,1296.2 645.851,1287.66 "/>
<polyline clip-path="url(#clip792)" style="stroke:#000000; stroke-linecap:round; stroke-linejoin:round; stroke-width:8; stroke-opacity:1; fill:none" points="685.183,1296.2 542.342,1181.29 "/>
<polyline clip-path="url(#clip792)" style="stroke:#000000; stroke-linecap:round; stroke-linejoin:round; stroke-width:8; stroke-opacity:1; fill:none" points="2018.37,1181.29 1875.52,1296.2 "/>
<polyline clip-path="url(#clip792)" style="stroke:#000000; stroke-linecap:round; stroke-linejoin:round; stroke-width:8; stroke-opacity:1; fill:none" points="1914.86,1287.66 1875.52,1296.2 1892.29,1259.61 "/>
<polyline clip-path="url(#clip792)" style="stroke:#000000; stroke-linecap:round; stroke-linejoin:round; stroke-width:8; stroke-opacity:1; fill:none" points="1875.52,1296.2 2018.37,1181.29 "/>
<path clip-path="url(#clip790)" d="M698.386 1449.14 Q699.369 1450.12 699.369 1451.51 Q699.369 1452.91 698.386 1453.89 Q697.402 1454.88 696.008 1454.88 L590.912 1454.88 Q589.518 1454.88 588.534 1453.89 Q587.551 1452.91 587.551 1451.51 Q587.551 1450.12 588.534 1449.14 Q589.518 1448.15 590.912 1448.15 L696.008 1448.15 Q697.402 1448.15 698.386 1449.14 Z" fill="#000000" fill-rule="evenodd" fill-opacity="1" /><path clip-path="url(#clip790)" d="M768.466 1422.99 Q768.466 1425.28 767.4 1425.86 Q766.335 1426.35 763.383 1426.35 L747.644 1426.35 L735.183 1475.86 Q734.199 1480.21 734.199 1483.9 Q734.199 1488 735.429 1489.8 Q736.74 1491.6 739.446 1491.6 Q744.774 1491.6 750.513 1486.77 Q756.333 1481.93 761.252 1470.12 Q761.908 1468.57 762.236 1468.24 Q762.646 1467.83 763.711 1467.83 Q765.761 1467.83 765.761 1469.47 Q765.761 1470.04 764.613 1472.67 Q763.547 1475.29 761.17 1479.14 Q758.875 1482.99 755.841 1486.6 Q752.89 1490.21 748.381 1492.83 Q743.873 1495.37 739.036 1495.37 Q732.232 1495.37 727.887 1491.03 Q723.624 1486.68 723.624 1479.88 Q723.624 1477.67 725.345 1470.62 Q727.067 1463.48 736.413 1426.35 L721.574 1426.35 Q719.525 1426.35 718.705 1426.27 Q717.967 1426.18 717.393 1425.77 Q716.902 1425.28 716.902 1424.3 Q716.902 1422.74 717.557 1422.08 Q718.213 1421.35 719.033 1421.26 Q719.935 1421.1 721.984 1421.1 L737.724 1421.1 L744.282 1394.46 Q744.938 1391.83 746.578 1390.36 Q748.299 1388.8 749.283 1388.64 Q750.267 1388.39 751.005 1388.39 Q753.218 1388.39 754.53 1389.62 Q755.841 1390.77 755.841 1392.9 Q755.841 1394.05 748.955 1421.1 L763.711 1421.1 Q765.597 1421.1 766.335 1421.18 Q767.154 1421.26 767.81 1421.67 Q768.466 1422.08 768.466 1422.99 Z" fill="#000000" fill-rule="evenodd" fill-opacity="1" /><path clip-path="url(#clip790)" d="M851.819 1502.62 Q851.705 1503.19 851.475 1504.22 Q851.246 1505.2 850.213 1508.3 Q849.18 1511.4 847.803 1514.55 Q846.483 1517.65 843.9 1522.01 Q841.375 1526.32 838.277 1530.22 Q837.416 1531.25 837.244 1531.88 Q837.129 1532.46 837.129 1534.35 Q837.129 1546.29 840.744 1546.29 Q840.916 1546.29 841.203 1546.29 Q841.548 1546.23 842.408 1545.94 Q843.326 1545.6 844.13 1545.08 Q844.933 1544.51 845.851 1543.36 Q846.77 1542.16 847.343 1540.55 Q847.86 1539.4 848.893 1539.4 Q850.27 1539.4 850.27 1540.55 Q850.27 1542.61 847.401 1545.77 Q844.532 1548.93 840.4 1548.93 Q836.44 1548.93 833.628 1546.34 Q830.874 1543.7 829.726 1539 Q817.331 1548.93 804.936 1548.93 Q796.213 1548.93 791.049 1543.25 Q785.884 1537.51 785.884 1529.01 Q785.884 1520.87 790.36 1513.12 Q794.894 1505.37 802.239 1500.55 Q809.642 1495.67 817.503 1495.67 Q820.258 1495.67 822.897 1496.42 Q825.537 1497.11 828.177 1498.89 Q830.817 1500.67 832.768 1503.36 Q834.719 1506.06 835.924 1510.31 Q837.129 1514.55 837.129 1519.89 L837.129 1527.18 Q844.704 1517.59 848.663 1503.88 Q849.237 1501.81 849.581 1501.58 Q849.811 1501.41 850.385 1501.41 Q850.959 1501.41 851.303 1501.76 Q851.705 1502.04 851.762 1502.33 L851.819 1502.62 M829.267 1535.96 Q829.038 1533.95 829.038 1522.82 Q829.038 1520.69 829.038 1519.55 Q829.038 1518.34 828.923 1516.05 Q828.808 1513.75 828.579 1512.32 Q828.406 1510.88 828.005 1508.81 Q827.603 1506.75 827.029 1505.43 Q826.455 1504.11 825.537 1502.62 Q824.676 1501.13 823.529 1500.26 Q822.438 1499.4 820.832 1498.83 Q819.282 1498.26 817.388 1498.26 Q815.036 1498.26 812.568 1499.12 Q810.158 1499.92 807.059 1502.5 Q803.96 1505.03 801.378 1509.04 Q798.681 1513.29 796.615 1521.1 Q794.607 1528.84 794.607 1533.49 Q794.607 1539.34 797.304 1542.84 Q800.001 1546.29 805.165 1546.29 Q817.503 1546.29 829.267 1535.96 Z" fill="#000000" fill-rule="evenodd" fill-opacity="1" /><path clip-path="url(#clip790)" d="M860.344 1575.32 Q860.344 1574.75 860.803 1573.49 L902.293 1462.62 Q902.293 1462.51 902.58 1461.87 Q902.866 1461.24 903.039 1460.84 Q903.211 1460.38 903.555 1460.04 Q903.957 1459.69 904.416 1459.69 Q905.564 1459.69 905.564 1461.13 Q905.564 1461.24 905.219 1462.62 L863.615 1573.6 Q862.927 1575.61 862.467 1576.18 Q862.066 1576.76 861.377 1576.76 Q860.344 1576.76 860.344 1575.32 Z" fill="#000000" fill-rule="evenodd" fill-opacity="1" /><path clip-path="url(#clip790)" d="M918.548 1547.61 Q918.548 1545.48 918.72 1544.85 Q918.95 1544.22 919.868 1543.25 L942.42 1518.11 Q954.758 1504.22 954.758 1492.12 Q954.758 1484.25 950.626 1478.63 Q946.552 1473.01 939.035 1473.01 Q933.87 1473.01 929.509 1476.16 Q925.147 1479.32 923.139 1484.94 Q923.483 1484.83 924.688 1484.83 Q927.615 1484.83 929.222 1486.66 Q930.886 1488.5 930.886 1490.97 Q930.886 1494.12 928.82 1495.67 Q926.812 1497.17 924.803 1497.17 Q924 1497.17 922.909 1496.99 Q921.876 1496.82 920.212 1495.21 Q918.548 1493.55 918.548 1490.62 Q918.548 1482.42 924.746 1475.88 Q931.001 1469.33 940.527 1469.33 Q951.315 1469.33 958.373 1475.76 Q965.489 1482.13 965.489 1492.12 Q965.489 1495.62 964.399 1498.83 Q963.366 1501.99 961.931 1504.45 Q960.554 1506.92 956.767 1510.88 Q952.979 1514.84 949.938 1517.65 Q946.896 1520.46 940.067 1526.43 L927.615 1538.54 L948.79 1538.54 Q959.119 1538.54 959.923 1537.62 Q961.07 1535.96 962.505 1527.18 L965.489 1527.18 L962.161 1547.61 L918.548 1547.61 Z" fill="#000000" fill-rule="evenodd" fill-opacity="1" /><path clip-path="url(#clip790)" d="M448.056 1059.66 Q447.904 1060.42 447.599 1061.79 Q447.295 1063.09 445.925 1067.2 Q444.554 1071.31 442.727 1075.5 Q440.977 1079.61 437.551 1085.39 Q434.202 1091.1 430.091 1096.28 Q428.949 1097.65 428.721 1098.49 Q428.568 1099.25 428.568 1101.76 Q428.568 1117.59 433.364 1117.59 Q433.593 1117.59 433.973 1117.59 Q434.43 1117.52 435.572 1117.14 Q436.79 1116.68 437.855 1115.99 Q438.921 1115.23 440.139 1113.71 Q441.357 1112.11 442.118 1109.98 Q442.803 1108.46 444.174 1108.46 Q446.001 1108.46 446.001 1109.98 Q446.001 1112.72 442.194 1116.91 Q438.388 1121.09 432.907 1121.09 Q427.655 1121.09 423.925 1117.67 Q420.271 1114.17 418.749 1107.92 Q402.306 1121.09 385.864 1121.09 Q374.293 1121.09 367.442 1113.56 Q360.591 1105.95 360.591 1094.68 Q360.591 1083.87 366.528 1073.59 Q372.542 1063.32 382.286 1056.92 Q392.106 1050.45 402.534 1050.45 Q406.188 1050.45 409.69 1051.44 Q413.192 1052.35 416.693 1054.71 Q420.195 1057.07 422.783 1060.65 Q425.371 1064.23 426.97 1069.86 Q428.568 1075.5 428.568 1082.58 L428.568 1092.24 Q438.617 1079.53 443.869 1061.34 Q444.63 1058.6 445.087 1058.29 Q445.392 1058.06 446.153 1058.06 Q446.914 1058.06 447.371 1058.52 Q447.904 1058.9 447.98 1059.28 L448.056 1059.66 M418.14 1103.89 Q417.835 1101.23 417.835 1086.46 Q417.835 1083.64 417.835 1082.12 Q417.835 1080.52 417.683 1077.48 Q417.531 1074.43 417.226 1072.53 Q416.998 1070.62 416.465 1067.88 Q415.932 1065.14 415.171 1063.39 Q414.41 1061.64 413.192 1059.66 Q412.05 1057.68 410.527 1056.54 Q409.081 1055.4 406.95 1054.64 Q404.894 1053.88 402.382 1053.88 Q399.261 1053.88 395.988 1055.02 Q392.791 1056.08 388.68 1059.51 Q384.569 1062.86 381.144 1068.19 Q377.566 1073.82 374.826 1084.17 Q372.161 1094.45 372.161 1100.62 Q372.161 1108.38 375.739 1113.02 Q379.317 1117.59 386.168 1117.59 Q402.534 1117.59 418.14 1103.89 Z" fill="#000000" fill-rule="evenodd" fill-opacity="1" /><path clip-path="url(#clip790)" d="M459.356 1156.11 Q459.356 1155.35 459.965 1153.67 L515.002 1006.6 Q515.002 1006.45 515.383 1005.62 Q515.764 1004.78 515.992 1004.24 Q516.22 1003.64 516.677 1003.18 Q517.21 1002.72 517.819 1002.72 Q519.341 1002.72 519.341 1004.63 Q519.341 1004.78 518.885 1006.6 L463.695 1153.83 Q462.782 1156.49 462.173 1157.25 Q461.64 1158.01 460.727 1158.01 Q459.356 1158.01 459.356 1156.11 Z" fill="#000000" fill-rule="evenodd" fill-opacity="1" /><path clip-path="url(#clip790)" d="M536.56 1119.34 Q536.56 1116.53 536.788 1115.69 Q537.092 1114.85 538.31 1113.56 L568.227 1080.22 Q584.593 1061.79 584.593 1045.73 Q584.593 1035.3 579.112 1027.84 Q573.708 1020.38 563.735 1020.38 Q556.884 1020.38 551.099 1024.57 Q545.314 1028.76 542.649 1036.22 Q543.106 1036.06 544.705 1036.06 Q548.587 1036.06 550.718 1038.5 Q552.926 1040.94 552.926 1044.21 Q552.926 1048.4 550.186 1050.45 Q547.521 1052.43 544.857 1052.43 Q543.791 1052.43 542.345 1052.2 Q540.975 1051.97 538.767 1049.84 Q536.56 1047.64 536.56 1043.75 Q536.56 1032.87 544.781 1024.19 Q553.078 1015.51 565.715 1015.51 Q580.026 1015.51 589.389 1024.04 Q598.828 1032.49 598.828 1045.73 Q598.828 1050.38 597.382 1054.64 Q596.012 1058.83 594.108 1062.1 Q592.282 1065.37 587.257 1070.62 Q582.233 1075.88 578.199 1079.61 Q574.164 1083.34 565.106 1091.25 L548.587 1107.32 L576.676 1107.32 Q590.378 1107.32 591.444 1106.1 Q592.967 1103.89 594.87 1092.24 L598.828 1092.24 L594.413 1119.34 L536.56 1119.34 Z" fill="#000000" fill-rule="evenodd" fill-opacity="1" /><path clip-path="url(#clip790)" d="M1720.74 1422.99 Q1720.74 1425.28 1719.67 1425.86 Q1718.61 1426.35 1715.66 1426.35 L1699.92 1426.35 L1687.46 1475.86 Q1686.47 1480.21 1686.47 1483.9 Q1686.47 1488 1687.7 1489.8 Q1689.01 1491.6 1691.72 1491.6 Q1697.05 1491.6 1702.79 1486.77 Q1708.61 1481.93 1713.53 1470.12 Q1714.18 1468.57 1714.51 1468.24 Q1714.92 1467.83 1715.98 1467.83 Q1718.03 1467.83 1718.03 1469.47 Q1718.03 1470.04 1716.89 1472.67 Q1715.82 1475.29 1713.44 1479.14 Q1711.15 1482.99 1708.11 1486.6 Q1705.16 1490.21 1700.65 1492.83 Q1696.15 1495.37 1691.31 1495.37 Q1684.5 1495.37 1680.16 1491.03 Q1675.9 1486.68 1675.9 1479.88 Q1675.9 1477.67 1677.62 1470.62 Q1679.34 1463.48 1688.69 1426.35 L1673.85 1426.35 Q1671.8 1426.35 1670.98 1426.27 Q1670.24 1426.18 1669.67 1425.77 Q1669.17 1425.28 1669.17 1424.3 Q1669.17 1422.74 1669.83 1422.08 Q1670.49 1421.35 1671.31 1421.26 Q1672.21 1421.1 1674.26 1421.1 L1690 1421.1 L1696.56 1394.46 Q1697.21 1391.83 1698.85 1390.36 Q1700.57 1388.8 1701.56 1388.64 Q1702.54 1388.39 1703.28 1388.39 Q1705.49 1388.39 1706.8 1389.62 Q1708.11 1390.77 1708.11 1392.9 Q1708.11 1394.05 1701.23 1421.1 L1715.98 1421.1 Q1717.87 1421.1 1718.61 1421.18 Q1719.43 1421.26 1720.08 1421.67 Q1720.74 1422.08 1720.74 1422.99 Z" fill="#000000" fill-rule="evenodd" fill-opacity="1" /><path clip-path="url(#clip790)" d="M1804.09 1502.62 Q1803.98 1503.19 1803.75 1504.22 Q1803.52 1505.2 1802.49 1508.3 Q1801.45 1511.4 1800.08 1514.55 Q1798.76 1517.65 1796.17 1522.01 Q1793.65 1526.32 1790.55 1530.22 Q1789.69 1531.25 1789.52 1531.88 Q1789.4 1532.46 1789.4 1534.35 Q1789.4 1546.29 1793.02 1546.29 Q1793.19 1546.29 1793.48 1546.29 Q1793.82 1546.23 1794.68 1545.94 Q1795.6 1545.6 1796.4 1545.08 Q1797.21 1544.51 1798.12 1543.36 Q1799.04 1542.16 1799.62 1540.55 Q1800.13 1539.4 1801.17 1539.4 Q1802.54 1539.4 1802.54 1540.55 Q1802.54 1542.61 1799.67 1545.77 Q1796.8 1548.93 1792.67 1548.93 Q1788.71 1548.93 1785.9 1546.34 Q1783.15 1543.7 1782 1539 Q1769.6 1548.93 1757.21 1548.93 Q1748.49 1548.93 1743.32 1543.25 Q1738.16 1537.51 1738.16 1529.01 Q1738.16 1520.87 1742.63 1513.12 Q1747.17 1505.37 1754.51 1500.55 Q1761.91 1495.67 1769.78 1495.67 Q1772.53 1495.67 1775.17 1496.42 Q1777.81 1497.11 1780.45 1498.89 Q1783.09 1500.67 1785.04 1503.36 Q1786.99 1506.06 1788.2 1510.31 Q1789.4 1514.55 1789.4 1519.89 L1789.4 1527.18 Q1796.98 1517.59 1800.94 1503.88 Q1801.51 1501.81 1801.85 1501.58 Q1802.08 1501.41 1802.66 1501.41 Q1803.23 1501.41 1803.58 1501.76 Q1803.98 1502.04 1804.04 1502.33 L1804.09 1502.62 M1781.54 1535.96 Q1781.31 1533.95 1781.31 1522.82 Q1781.31 1520.69 1781.31 1519.55 Q1781.31 1518.34 1781.2 1516.05 Q1781.08 1513.75 1780.85 1512.32 Q1780.68 1510.88 1780.28 1508.81 Q1779.88 1506.75 1779.3 1505.43 Q1778.73 1504.11 1777.81 1502.62 Q1776.95 1501.13 1775.8 1500.26 Q1774.71 1499.4 1773.1 1498.83 Q1771.56 1498.26 1769.66 1498.26 Q1767.31 1498.26 1764.84 1499.12 Q1762.43 1499.92 1759.33 1502.5 Q1756.23 1505.03 1753.65 1509.04 Q1750.95 1513.29 1748.89 1521.1 Q1746.88 1528.84 1746.88 1533.49 Q1746.88 1539.34 1749.58 1542.84 Q1752.27 1546.29 1757.44 1546.29 Q1769.78 1546.29 1781.54 1535.96 Z" fill="#000000" fill-rule="evenodd" fill-opacity="1" /><path clip-path="url(#clip790)" d="M1812.62 1575.32 Q1812.62 1574.75 1813.08 1573.49 L1854.57 1462.62 Q1854.57 1462.51 1854.85 1461.87 Q1855.14 1461.24 1855.31 1460.84 Q1855.48 1460.38 1855.83 1460.04 Q1856.23 1459.69 1856.69 1459.69 Q1857.84 1459.69 1857.84 1461.13 Q1857.84 1461.24 1857.49 1462.62 L1815.89 1573.6 Q1815.2 1575.61 1814.74 1576.18 Q1814.34 1576.76 1813.65 1576.76 Q1812.62 1576.76 1812.62 1575.32 Z" fill="#000000" fill-rule="evenodd" fill-opacity="1" /><path clip-path="url(#clip790)" d="M1870.82 1547.61 Q1870.82 1545.48 1870.99 1544.85 Q1871.22 1544.22 1872.14 1543.25 L1894.69 1518.11 Q1907.03 1504.22 1907.03 1492.12 Q1907.03 1484.25 1902.9 1478.63 Q1898.83 1473.01 1891.31 1473.01 Q1886.14 1473.01 1881.78 1476.16 Q1877.42 1479.32 1875.41 1484.94 Q1875.76 1484.83 1876.96 1484.83 Q1879.89 1484.83 1881.5 1486.66 Q1883.16 1488.5 1883.16 1490.97 Q1883.16 1494.12 1881.09 1495.67 Q1879.08 1497.17 1877.08 1497.17 Q1876.27 1497.17 1875.18 1496.99 Q1874.15 1496.82 1872.49 1495.21 Q1870.82 1493.55 1870.82 1490.62 Q1870.82 1482.42 1877.02 1475.88 Q1883.27 1469.33 1892.8 1469.33 Q1903.59 1469.33 1910.65 1475.76 Q1917.76 1482.13 1917.76 1492.12 Q1917.76 1495.62 1916.67 1498.83 Q1915.64 1501.99 1914.2 1504.45 Q1912.83 1506.92 1909.04 1510.88 Q1905.25 1514.84 1902.21 1517.65 Q1899.17 1520.46 1892.34 1526.43 L1879.89 1538.54 L1901.06 1538.54 Q1911.39 1538.54 1912.2 1537.62 Q1913.34 1535.96 1914.78 1527.18 L1917.76 1527.18 L1914.43 1547.61 L1870.82 1547.61 Z" fill="#000000" fill-rule="evenodd" fill-opacity="1" /><path clip-path="url(#clip790)" d="M2043.11 1059.66 Q2042.96 1060.42 2042.66 1061.79 Q2042.35 1063.09 2040.98 1067.2 Q2039.61 1071.31 2037.79 1075.5 Q2036.03 1079.61 2032.61 1085.39 Q2029.26 1091.1 2025.15 1096.28 Q2024.01 1097.65 2023.78 1098.49 Q2023.63 1099.25 2023.63 1101.76 Q2023.63 1117.59 2028.42 1117.59 Q2028.65 1117.59 2029.03 1117.59 Q2029.49 1117.52 2030.63 1117.14 Q2031.85 1116.68 2032.91 1115.99 Q2033.98 1115.23 2035.2 1113.71 Q2036.42 1112.11 2037.18 1109.98 Q2037.86 1108.46 2039.23 1108.46 Q2041.06 1108.46 2041.06 1109.98 Q2041.06 1112.72 2037.25 1116.91 Q2033.45 1121.09 2027.97 1121.09 Q2022.71 1121.09 2018.98 1117.67 Q2015.33 1114.17 2013.81 1107.92 Q1997.36 1121.09 1980.92 1121.09 Q1969.35 1121.09 1962.5 1113.56 Q1955.65 1105.95 1955.65 1094.68 Q1955.65 1083.87 1961.59 1073.59 Q1967.6 1063.32 1977.34 1056.92 Q1987.16 1050.45 1997.59 1050.45 Q2001.25 1050.45 2004.75 1051.44 Q2008.25 1052.35 2011.75 1054.71 Q2015.25 1057.07 2017.84 1060.65 Q2020.43 1064.23 2022.03 1069.86 Q2023.63 1075.5 2023.63 1082.58 L2023.63 1092.24 Q2033.67 1079.53 2038.93 1061.34 Q2039.69 1058.6 2040.15 1058.29 Q2040.45 1058.06 2041.21 1058.06 Q2041.97 1058.06 2042.43 1058.52 Q2042.96 1058.9 2043.04 1059.28 L2043.11 1059.66 M2013.2 1103.89 Q2012.89 1101.23 2012.89 1086.46 Q2012.89 1083.64 2012.89 1082.12 Q2012.89 1080.52 2012.74 1077.48 Q2012.59 1074.43 2012.28 1072.53 Q2012.06 1070.62 2011.52 1067.88 Q2010.99 1065.14 2010.23 1063.39 Q2009.47 1061.64 2008.25 1059.66 Q2007.11 1057.68 2005.59 1056.54 Q2004.14 1055.4 2002.01 1054.64 Q1999.95 1053.88 1997.44 1053.88 Q1994.32 1053.88 1991.05 1055.02 Q1987.85 1056.08 1983.74 1059.51 Q1979.63 1062.86 1976.2 1068.19 Q1972.62 1073.82 1969.88 1084.17 Q1967.22 1094.45 1967.22 1100.62 Q1967.22 1108.38 1970.8 1113.02 Q1974.37 1117.59 1981.23 1117.59 Q1997.59 1117.59 2013.2 1103.89 Z" fill="#000000" fill-rule="evenodd" fill-opacity="1" /><path clip-path="url(#clip790)" d="M2054.41 1156.11 Q2054.41 1155.35 2055.02 1153.67 L2110.06 1006.6 Q2110.06 1006.45 2110.44 1005.62 Q2110.82 1004.78 2111.05 1004.24 Q2111.28 1003.64 2111.73 1003.18 Q2112.27 1002.72 2112.88 1002.72 Q2114.4 1002.72 2114.4 1004.63 Q2114.4 1004.78 2113.94 1006.6 L2058.75 1153.83 Q2057.84 1156.49 2057.23 1157.25 Q2056.7 1158.01 2055.78 1158.01 Q2054.41 1158.01 2054.41 1156.11 Z" fill="#000000" fill-rule="evenodd" fill-opacity="1" /><path clip-path="url(#clip790)" d="M2131.62 1119.34 Q2131.62 1116.53 2131.85 1115.69 Q2132.15 1114.85 2133.37 1113.56 L2163.28 1080.22 Q2179.65 1061.79 2179.65 1045.73 Q2179.65 1035.3 2174.17 1027.84 Q2168.77 1020.38 2158.79 1020.38 Q2151.94 1020.38 2146.16 1024.57 Q2140.37 1028.76 2137.71 1036.22 Q2138.16 1036.06 2139.76 1036.06 Q2143.64 1036.06 2145.78 1038.5 Q2147.98 1040.94 2147.98 1044.21 Q2147.98 1048.4 2145.24 1050.45 Q2142.58 1052.43 2139.91 1052.43 Q2138.85 1052.43 2137.4 1052.2 Q2136.03 1051.97 2133.82 1049.84 Q2131.62 1047.64 2131.62 1043.75 Q2131.62 1032.87 2139.84 1024.19 Q2148.14 1015.51 2160.77 1015.51 Q2175.08 1015.51 2184.45 1024.04 Q2193.89 1032.49 2193.89 1045.73 Q2193.89 1050.38 2192.44 1054.64 Q2191.07 1058.83 2189.17 1062.1 Q2187.34 1065.37 2182.32 1070.62 Q2177.29 1075.88 2173.26 1079.61 Q2169.22 1083.34 2160.16 1091.25 L2143.64 1107.32 L2171.73 1107.32 Q2185.44 1107.32 2186.5 1106.1 Q2188.02 1103.89 2189.93 1092.24 L2193.89 1092.24 L2189.47 1119.34 L2131.62 1119.34 Z" fill="#000000" fill-rule="evenodd" fill-opacity="1" /></svg>
