<?xml version="1.0" encoding="utf-8"?>
<svg xmlns="http://www.w3.org/2000/svg" xmlns:xlink="http://www.w3.org/1999/xlink" width="600" height="400" viewBox="0 0 2400 1600">
<defs>
  <clipPath id="clip350">
    <rect x="0" y="0" width="2400" height="1600"/>
  </clipPath>
</defs>
<path clip-path="url(#clip350)" d="M0 1600 L2400 1600 L2400 0 L0 0  Z" fill="#ffffff" fill-rule="evenodd" fill-opacity="1"/>
<defs>
  <clipPath id="clip351">
    <rect x="480" y="0" width="1681" height="1600"/>
  </clipPath>
</defs>
<path clip-path="url(#clip350)" d="M270.944 1371.62 L2289.76 1371.62 L2289.76 229.664 L270.944 229.664  Z" fill="#ffffff" fill-rule="evenodd" fill-opacity="1"/>
<defs>
  <clipPath id="clip352">
    <rect x="270" y="229" width="2020" height="1143"/>
  </clipPath>
</defs>
<polyline clip-path="url(#clip350)" style="stroke:#000000; stroke-linecap:round; stroke-linejoin:round; stroke-width:4; stroke-opacity:1; fill:none" points="270.944,1371.62 2289.76,1371.62 "/>
<polyline clip-path="url(#clip350)" style="stroke:#000000; stroke-linecap:round; stroke-linejoin:round; stroke-width:4; stroke-opacity:1; fill:none" points="1280.35,1371.62 1280.35,1352.72 "/>
<path clip-path="url(#clip350)" d="M1280.35 1420.11 Q1271.33 1420.11 1266.75 1429.02 Q1262.24 1437.88 1262.24 1455.7 Q1262.24 1473.47 1266.75 1482.38 Q1271.33 1491.23 1280.35 1491.23 Q1289.44 1491.23 1293.95 1482.38 Q1298.53 1473.47 1298.53 1455.7 Q1298.53 1437.88 1293.95 1429.02 Q1289.44 1420.11 1280.35 1420.11 M1280.35 1410.85 Q1294.88 1410.85 1302.52 1422.37 Q1310.21 1433.83 1310.21 1455.7 Q1310.21 1477.52 1302.52 1489.04 Q1294.88 1500.49 1280.35 1500.49 Q1265.83 1500.49 1258.13 1489.04 Q1250.49 1477.52 1250.49 1455.7 Q1250.49 1433.83 1258.13 1422.37 Q1265.83 1410.85 1280.35 1410.85 Z" fill="#000000" fill-rule="evenodd" fill-opacity="1" /><path clip-path="url(#clip350)" d="M1004.31 20.736 L1069.87 20.736 L1069.87 32.5415 L1018.34 32.5415 L1018.34 63.2358 L1067.72 63.2358 L1067.72 75.0413 L1018.34 75.0413 L1018.34 112.611 L1071.12 112.611 L1071.12 124.416 L1004.31 124.416 L1004.31 20.736 Z" fill="#000000" fill-rule="evenodd" fill-opacity="1" /><path clip-path="url(#clip350)" d="M1158.27 77.4718 L1158.27 124.416 L1145.49 124.416 L1145.49 77.8885 Q1145.49 66.8469 1141.19 61.3608 Q1136.88 55.8747 1128.27 55.8747 Q1117.92 55.8747 1111.95 62.4719 Q1105.98 69.0691 1105.98 80.4579 L1105.98 124.416 L1093.13 124.416 L1093.13 46.6386 L1105.98 46.6386 L1105.98 58.7219 Q1110.56 51.7081 1116.74 48.2359 Q1122.99 44.7636 1131.12 44.7636 Q1144.52 44.7636 1151.4 53.0969 Q1158.27 61.3608 1158.27 77.4718 Z" fill="#000000" fill-rule="evenodd" fill-opacity="1" /><path clip-path="url(#clip350)" d="M1233.34 48.9303 L1233.34 61.0136 Q1227.92 58.2358 1222.09 56.8469 Q1216.26 55.458 1210.01 55.458 Q1200.49 55.458 1195.7 58.3747 Q1190.98 61.2913 1190.98 67.1246 Q1190.98 71.5691 1194.38 74.1385 Q1197.79 76.6385 1208.06 78.9301 L1212.44 79.9023 Q1226.05 82.819 1231.74 88.1662 Q1237.51 93.4439 1237.51 102.958 Q1237.51 113.791 1228.9 120.11 Q1220.35 126.43 1205.35 126.43 Q1199.1 126.43 1192.3 125.18 Q1185.56 123.999 1178.06 121.569 L1178.06 108.374 Q1185.15 112.055 1192.02 113.93 Q1198.9 115.735 1205.63 115.735 Q1214.66 115.735 1219.52 112.68 Q1224.38 109.555 1224.38 103.93 Q1224.38 98.7217 1220.84 95.9439 Q1217.37 93.1662 1205.49 90.5967 L1201.05 89.5551 Q1189.17 87.0551 1183.9 81.9162 Q1178.62 76.7079 1178.62 67.6802 Q1178.62 56.708 1186.4 50.7358 Q1194.17 44.7636 1208.48 44.7636 Q1215.56 44.7636 1221.81 45.8053 Q1228.06 46.847 1233.34 48.9303 Z" fill="#000000" fill-rule="evenodd" fill-opacity="1" /><path clip-path="url(#clip350)" d="M1257.85 46.6386 L1270.63 46.6386 L1270.63 124.416 L1257.85 124.416 L1257.85 46.6386 M1257.85 16.361 L1270.63 16.361 L1270.63 32.5415 L1257.85 32.5415 L1257.85 16.361 Z" fill="#000000" fill-rule="evenodd" fill-opacity="1" /><path clip-path="url(#clip350)" d="M1348.55 58.4441 L1348.55 16.361 L1361.33 16.361 L1361.33 124.416 L1348.55 124.416 L1348.55 112.749 Q1344.52 119.694 1338.34 123.097 Q1332.23 126.43 1323.62 126.43 Q1309.52 126.43 1300.63 115.18 Q1291.81 103.93 1291.81 85.5968 Q1291.81 67.2635 1300.63 56.0136 Q1309.52 44.7636 1323.62 44.7636 Q1332.23 44.7636 1338.34 48.1664 Q1344.52 51.4997 1348.55 58.4441 M1305.01 85.5968 Q1305.01 99.6939 1310.77 107.749 Q1316.6 115.735 1326.74 115.735 Q1336.88 115.735 1342.71 107.749 Q1348.55 99.6939 1348.55 85.5968 Q1348.55 71.4996 1342.71 63.5135 Q1336.88 55.458 1326.74 55.458 Q1316.6 55.458 1310.77 63.5135 Q1305.01 71.4996 1305.01 85.5968 Z" fill="#000000" fill-rule="evenodd" fill-opacity="1" /><path clip-path="url(#clip350)" d="M1387.65 46.6386 L1400.42 46.6386 L1400.42 124.416 L1387.65 124.416 L1387.65 46.6386 M1387.65 16.361 L1400.42 16.361 L1400.42 32.5415 L1387.65 32.5415 L1387.65 16.361 Z" fill="#000000" fill-rule="evenodd" fill-opacity="1" /><path clip-path="url(#clip350)" d="M1478.34 84.6245 Q1478.34 70.7357 1472.58 63.0969 Q1466.88 55.458 1456.53 55.458 Q1446.26 55.458 1440.49 63.0969 Q1434.8 70.7357 1434.8 84.6245 Q1434.8 98.4439 1440.49 106.083 Q1446.26 113.722 1456.53 113.722 Q1466.88 113.722 1472.58 106.083 Q1478.34 98.4439 1478.34 84.6245 M1491.12 114.763 Q1491.12 134.624 1482.3 144.277 Q1473.48 153.999 1455.28 153.999 Q1448.55 153.999 1442.58 152.958 Q1436.6 151.985 1430.98 149.902 L1430.98 137.471 Q1436.6 140.527 1442.09 141.985 Q1447.58 143.444 1453.27 143.444 Q1465.84 143.444 1472.09 136.846 Q1478.34 130.319 1478.34 117.055 L1478.34 110.736 Q1474.38 117.61 1468.2 121.013 Q1462.02 124.416 1453.41 124.416 Q1439.1 124.416 1430.35 113.513 Q1421.6 102.611 1421.6 84.6245 Q1421.6 66.5691 1430.35 55.6664 Q1439.1 44.7636 1453.41 44.7636 Q1462.02 44.7636 1468.2 48.1664 Q1474.38 51.5692 1478.34 58.4441 L1478.34 46.6386 L1491.12 46.6386 L1491.12 114.763 Z" fill="#000000" fill-rule="evenodd" fill-opacity="1" /><path clip-path="url(#clip350)" d="M1530.07 24.5554 L1530.07 46.6386 L1556.39 46.6386 L1556.39 56.5691 L1530.07 56.5691 L1530.07 98.7911 Q1530.07 108.305 1532.64 111.013 Q1535.28 113.722 1543.27 113.722 L1556.39 113.722 L1556.39 124.416 L1543.27 124.416 Q1528.48 124.416 1522.85 118.93 Q1517.23 113.374 1517.23 98.7911 L1517.23 56.5691 L1507.85 56.5691 L1507.85 46.6386 L1517.23 46.6386 L1517.23 24.5554 L1530.07 24.5554 Z" fill="#000000" fill-rule="evenodd" fill-opacity="1" /><path clip-path="url(#clip352)" d="M1756.49 1148.85 L1758.87 1151.22 L1761.25 1153.55 L1763.63 1155.86 L1766.01 1158.14 L1768.39 1160.39 L1770.77 1162.61 L1773.16 1164.81 L1775.54 1166.97 L1777.92 1169.11 L1780.3 1171.22 L1782.68 1173.31 L1785.06 1175.37 L1787.44 1177.4 L1789.82 1179.41 L1792.2 1181.39 L1794.58 1183.34 L1796.96 1185.27 L1799.34 1187.18 L1801.72 1189.06 L1804.1 1190.92 L1806.49 1192.76 L1808.87 1194.57 L1811.25 1196.35 L1813.63 1198.12 L1816.01 1199.86 L1818.39 1201.58 L1820.77 1203.28 L1823.15 1204.95 L1825.53 1206.61 L1827.91 1208.24 L1830.29 1209.85 L1832.67 1211.44 L1835.05 1213.02 L1837.43 1214.57 L1839.81 1216.1 L1842.2 1217.61 L1844.58 1219.1 L1846.96 1220.57 L1849.34 1222.02 L1851.72 1223.45 L1854.1 1224.87 L1856.48 1226.27 L1858.86 1227.64 L1861.24 1229.01 L1863.62 1230.35 L1866 1231.67 L1868.38 1232.98 L1870.76 1234.27 L1873.14 1235.55 L1875.52 1236.81 L1877.91 1238.05 L1880.29 1239.27 L1882.67 1240.48 L1885.05 1241.68 L1887.43 1242.86 L1889.81 1244.02 L1892.19 1245.17 L1894.57 1246.3 L1896.95 1247.42 L1899.33 1248.52 L1901.71 1249.61 L1904.09 1250.69 L1906.47 1251.75 L1908.85 1252.8 L1911.24 1253.83 L1913.62 1254.85 L1916 1255.86 L1918.38 1256.85 L1920.76 1257.83 L1923.14 1258.8 L1925.52 1259.76 L1927.9 1260.7 L1930.28 1261.64 L1932.66 1262.55 L1935.04 1263.46 L1937.42 1264.36 L1939.8 1265.24 L1942.18 1266.12 L1944.56 1266.98 L1946.95 1267.83 L1949.33 1268.67 L1951.71 1269.5 L1954.09 1270.31 L1956.47 1271.12 L1958.85 1271.92 L1961.23 1272.71 L1963.61 1273.48 L1965.99 1274.25 L1968.37 1275.01 L1970.75 1275.75 L1973.13 1276.49 L1975.51 1277.22 L1977.89 1277.94 L1980.27 1278.65 L1982.66 1279.35 L1985.04 1280.04 L1987.42 1280.72 L1989.8 1281.4 L1992.18 1282.06 L1994.56 1282.72 L1996.94 1283.37 L1999.32 1284.01 L2001.7 1284.64 L2004.08 1285.27 L2006.46 1285.88 L2008.84 1286.49 L2011.22 1287.09 L2013.6 1287.68 L2015.99 1288.27 L2018.37 1288.85 L2020.75 1289.42 L2023.13 1289.98 L2025.51 1290.54 L2027.89 1291.09 L2030.27 1291.63 L2032.65 1292.17 L2035.03 1292.7 L2037.41 1293.22 L2039.79 1293.73 L2042.17 1294.24 L2044.55 1294.75 L2046.93 1295.24 L2049.31 1295.73 L2051.7 1296.22 L2054.08 1296.7 L2056.46 1297.17 L2058.84 1297.64 L2061.22 1298.1 L2063.6 1298.55 L2065.98 1299 L2068.36 1299.44 L2070.74 1299.88 L2073.12 1300.32 L2075.5 1300.74 L2077.88 1301.17 L2080.26 1301.58 L2082.64 1301.99 L2085.03 1302.4 L2087.41 1302.8 L2089.79 1303.2 L2092.17 1303.59 L2094.55 1303.98 L2096.93 1304.36 L2099.31 1304.74 L2101.69 1305.11 L2104.07 1305.48 L2106.45 1305.84 L2108.83 1306.2 L2111.21 1306.56 L2113.59 1306.91 L2115.97 1307.26 L2118.35 1307.6 L2120.74 1307.94 L2123.12 1308.27 L2125.5 1308.6 L2127.88 1308.93 L2130.26 1309.25 L2132.64 1309.57 L2135.02 1309.88 L2137.4 1310.19 L2139.78 1310.5 L2142.16 1310.8 L2144.54 1311.1 L2146.92 1311.4 L2149.3 1311.69 L2151.68 1311.98 L2154.06 1312.27 L2156.45 1312.55 L2158.83 1312.83 L2161.21 1313.1 L2163.59 1313.38 L2165.97 1313.65 L2168.35 1313.91 L2170.73 1314.17 L2173.11 1314.43 L2175.49 1314.69 L2177.87 1314.94 L2180.25 1315.19 L2182.63 1315.44 L2185.01 1315.69 L2187.39 1315.93 L2189.78 1316.17 L2192.16 1316.4 L2194.54 1316.64 L2196.92 1316.87 L2199.3 1317.1 L2201.68 1317.32 L2204.06 1317.54 L2206.44 1317.76 L2208.82 1317.98 L2211.2 1318.2 L2213.58 1318.41 L2215.96 1318.62 L2218.34 1318.83 L2220.72 1319.03 L2223.1 1319.24 L2225.49 1319.44 L2227.87 1319.63 L2230.25 1319.83 L2232.63 1320.02 L2232.63 1339.3 L2230.25 1339.3 L2227.87 1339.3 L2225.49 1339.3 L2223.1 1339.3 L2220.72 1339.3 L2218.34 1339.3 L2215.96 1339.3 L2213.58 1339.3 L2211.2 1339.3 L2208.82 1339.3 L2206.44 1339.3 L2204.06 1339.3 L2201.68 1339.3 L2199.3 1339.3 L2196.92 1339.3 L2194.54 1339.3 L2192.16 1339.3 L2189.78 1339.3 L2187.39 1339.3 L2185.01 1339.3 L2182.63 1339.3 L2180.25 1339.3 L2177.87 1339.3 L2175.49 1339.3 L2173.11 1339.3 L2170.73 1339.3 L2168.35 1339.3 L2165.97 1339.3 L2163.59 1339.3 L2161.21 1339.3 L2158.83 1339.3 L2156.45 1339.3 L2154.06 1339.3 L2151.68 1339.3 L2149.3 1339.3 L2146.92 1339.3 L2144.54 1339.3 L2142.16 1339.3 L2139.78 1339.3 L2137.4 1339.3 L2135.02 1339.3 L2132.64 1339.3 L2130.26 1339.3 L2127.88 1339.3 L2125.5 1339.3 L2123.12 1339.3 L2120.74 1339.3 L2118.35 1339.3 L2115.97 1339.3 L2113.59 1339.3 L2111.21 1339.3 L2108.83 1339.3 L2106.45 1339.3 L2104.07 1339.3 L2101.69 1339.3 L2099.31 1339.3 L2096.93 1339.3 L2094.55 1339.3 L2092.17 1339.3 L2089.79 1339.3 L2087.41 1339.3 L2085.03 1339.3 L2082.64 1339.3 L2080.26 1339.3 L2077.88 1339.3 L2075.5 1339.3 L2073.12 1339.3 L2070.74 1339.3 L2068.36 1339.3 L2065.98 1339.3 L2063.6 1339.3 L2061.22 1339.3 L2058.84 1339.3 L2056.46 1339.3 L2054.08 1339.3 L2051.7 1339.3 L2049.31 1339.3 L2046.93 1339.3 L2044.55 1339.3 L2042.17 1339.3 L2039.79 1339.3 L2037.41 1339.3 L2035.03 1339.3 L2032.65 1339.3 L2030.27 1339.3 L2027.89 1339.3 L2025.51 1339.3 L2023.13 1339.3 L2020.75 1339.3 L2018.37 1339.3 L2015.99 1339.3 L2013.6 1339.3 L2011.22 1339.3 L2008.84 1339.3 L2006.46 1339.3 L2004.08 1339.3 L2001.7 1339.3 L1999.32 1339.3 L1996.94 1339.3 L1994.56 1339.3 L1992.18 1339.3 L1989.8 1339.3 L1987.42 1339.3 L1985.04 1339.3 L1982.66 1339.3 L1980.27 1339.3 L1977.89 1339.3 L1975.51 1339.3 L1973.13 1339.3 L1970.75 1339.3 L1968.37 1339.3 L1965.99 1339.3 L1963.61 1339.3 L1961.23 1339.3 L1958.85 1339.3 L1956.47 1339.3 L1954.09 1339.3 L1951.71 1339.3 L1949.33 1339.3 L1946.95 1339.3 L1944.56 1339.3 L1942.18 1339.3 L1939.8 1339.3 L1937.42 1339.3 L1935.04 1339.3 L1932.66 1339.3 L1930.28 1339.3 L1927.9 1339.3 L1925.52 1339.3 L1923.14 1339.3 L1920.76 1339.3 L1918.38 1339.3 L1916 1339.3 L1913.62 1339.3 L1911.24 1339.3 L1908.85 1339.3 L1906.47 1339.3 L1904.09 1339.3 L1901.71 1339.3 L1899.33 1339.3 L1896.95 1339.3 L1894.57 1339.3 L1892.19 1339.3 L1889.81 1339.3 L1887.43 1339.3 L1885.05 1339.3 L1882.67 1339.3 L1880.29 1339.3 L1877.91 1339.3 L1875.52 1339.3 L1873.14 1339.3 L1870.76 1339.3 L1868.38 1339.3 L1866 1339.3 L1863.62 1339.3 L1861.24 1339.3 L1858.86 1339.3 L1856.48 1339.3 L1854.1 1339.3 L1851.72 1339.3 L1849.34 1339.3 L1846.96 1339.3 L1844.58 1339.3 L1842.2 1339.3 L1839.81 1339.3 L1837.43 1339.3 L1835.05 1339.3 L1832.67 1339.3 L1830.29 1339.3 L1827.91 1339.3 L1825.53 1339.3 L1823.15 1339.3 L1820.77 1339.3 L1818.39 1339.3 L1816.01 1339.3 L1813.63 1339.3 L1811.25 1339.3 L1808.87 1339.3 L1806.49 1339.3 L1804.1 1339.3 L1801.72 1339.3 L1799.34 1339.3 L1796.96 1339.3 L1794.58 1339.3 L1792.2 1339.3 L1789.82 1339.3 L1787.44 1339.3 L1785.06 1339.3 L1782.68 1339.3 L1780.3 1339.3 L1777.92 1339.3 L1775.54 1339.3 L1773.16 1339.3 L1770.77 1339.3 L1768.39 1339.3 L1766.01 1339.3 L1763.63 1339.3 L1761.25 1339.3 L1758.87 1339.3 L1756.49 1339.3  Z" fill="#1f78b4" fill-rule="evenodd" fill-opacity="0.5"/>
<polyline clip-path="url(#clip352)" style="stroke:#1f78b4; stroke-linecap:round; stroke-linejoin:round; stroke-width:16; stroke-opacity:1; fill:none" points="1756.49,1148.85 1758.87,1151.22 1761.25,1153.55 1763.63,1155.86 1766.01,1158.14 1768.39,1160.39 1770.77,1162.61 1773.16,1164.81 1775.54,1166.97 1777.92,1169.11 1780.3,1171.22 1782.68,1173.31 1785.06,1175.37 1787.44,1177.4 1789.82,1179.41 1792.2,1181.39 1794.58,1183.34 1796.96,1185.27 1799.34,1187.18 1801.72,1189.06 1804.1,1190.92 1806.49,1192.76 1808.87,1194.57 1811.25,1196.35 1813.63,1198.12 1816.01,1199.86 1818.39,1201.58 1820.77,1203.28 1823.15,1204.95 1825.53,1206.61 1827.91,1208.24 1830.29,1209.85 1832.67,1211.44 1835.05,1213.02 1837.43,1214.57 1839.81,1216.1 1842.2,1217.61 1844.58,1219.1 1846.96,1220.57 1849.34,1222.02 1851.72,1223.45 1854.1,1224.87 1856.48,1226.27 1858.86,1227.64 1861.24,1229.01 1863.62,1230.35 1866,1231.67 1868.38,1232.98 1870.76,1234.27 1873.14,1235.55 1875.52,1236.81 1877.91,1238.05 1880.29,1239.27 1882.67,1240.48 1885.05,1241.68 1887.43,1242.86 1889.81,1244.02 1892.19,1245.17 1894.57,1246.3 1896.95,1247.42 1899.33,1248.52 1901.71,1249.61 1904.09,1250.69 1906.47,1251.75 1908.85,1252.8 1911.24,1253.83 1913.62,1254.85 1916,1255.86 1918.38,1256.85 1920.76,1257.83 1923.14,1258.8 1925.52,1259.76 1927.9,1260.7 1930.28,1261.64 1932.66,1262.55 1935.04,1263.46 1937.42,1264.36 1939.8,1265.24 1942.18,1266.12 1944.56,1266.98 1946.95,1267.83 1949.33,1268.67 1951.71,1269.5 1954.09,1270.31 1956.47,1271.12 1958.85,1271.92 1961.23,1272.71 1963.61,1273.48 1965.99,1274.25 1968.37,1275.01 1970.75,1275.75 1973.13,1276.49 1975.51,1277.22 1977.89,1277.94 1980.27,1278.65 1982.66,1279.35 1985.04,1280.04 1987.42,1280.72 1989.8,1281.4 1992.18,1282.06 1994.56,1282.72 1996.94,1283.37 1999.32,1284.01 2001.7,1284.64 2004.08,1285.27 2006.46,1285.88 2008.84,1286.49 2011.22,1287.09 2013.6,1287.68 2015.99,1288.27 2018.37,1288.85 2020.75,1289.42 2023.13,1289.98 2025.51,1290.54 2027.89,1291.09 2030.27,1291.63 2032.65,1292.17 2035.03,1292.7 2037.41,1293.22 2039.79,1293.73 2042.17,1294.24 2044.55,1294.75 2046.93,1295.24 2049.31,1295.73 2051.7,1296.22 2054.08,1296.7 2056.46,1297.17 2058.84,1297.64 2061.22,1298.1 2063.6,1298.55 2065.98,1299 2068.36,1299.44 2070.74,1299.88 2073.12,1300.32 2075.5,1300.74 2077.88,1301.17 2080.26,1301.58 2082.64,1301.99 2085.03,1302.4 2087.41,1302.8 2089.79,1303.2 2092.17,1303.59 2094.55,1303.98 2096.93,1304.36 2099.31,1304.74 2101.69,1305.11 2104.07,1305.48 2106.45,1305.84 2108.83,1306.2 2111.21,1306.56 2113.59,1306.91 2115.97,1307.26 2118.35,1307.6 2120.74,1307.94 2123.12,1308.27 2125.5,1308.6 2127.88,1308.93 2130.26,1309.25 2132.64,1309.57 2135.02,1309.88 2137.4,1310.19 2139.78,1310.5 2142.16,1310.8 2144.54,1311.1 2146.92,1311.4 2149.3,1311.69 2151.68,1311.98 2154.06,1312.27 2156.45,1312.55 2158.83,1312.83 2161.21,1313.1 2163.59,1313.38 2165.97,1313.65 2168.35,1313.91 2170.73,1314.17 2173.11,1314.43 2175.49,1314.69 2177.87,1314.94 2180.25,1315.19 2182.63,1315.44 2185.01,1315.69 2187.39,1315.93 2189.78,1316.17 2192.16,1316.4 2194.54,1316.64 2196.92,1316.87 2199.3,1317.1 2201.68,1317.32 2204.06,1317.54 2206.44,1317.76 2208.82,1317.98 2211.2,1318.2 2213.58,1318.41 2215.96,1318.62 2218.34,1318.83 2220.72,1319.03 2223.1,1319.24 2225.49,1319.44 2227.87,1319.63 2230.25,1319.83 2232.63,1320.02 "/>
<polyline clip-path="url(#clip352)" style="stroke:#1f78b4; stroke-linecap:round; stroke-linejoin:round; stroke-width:16; stroke-opacity:1; fill:none" points="328.081,1320.02 330.461,1319.83 332.842,1319.63 335.223,1319.44 337.603,1319.24 339.984,1319.03 342.365,1318.83 344.745,1318.62 347.126,1318.41 349.507,1318.2 351.887,1317.98 354.268,1317.76 356.649,1317.54 359.03,1317.32 361.41,1317.1 363.791,1316.87 366.172,1316.64 368.552,1316.4 370.933,1316.17 373.314,1315.93 375.694,1315.69 378.075,1315.44 380.456,1315.19 382.836,1314.94 385.217,1314.69 387.598,1314.43 389.978,1314.17 392.359,1313.91 394.74,1313.65 397.12,1313.38 399.501,1313.1 401.882,1312.83 404.263,1312.55 406.643,1312.27 409.024,1311.98 411.405,1311.69 413.785,1311.4 416.166,1311.1 418.547,1310.8 420.927,1310.5 423.308,1310.19 425.689,1309.88 428.069,1309.57 430.45,1309.25 432.831,1308.93 435.211,1308.6 437.592,1308.27 439.973,1307.94 442.353,1307.6 444.734,1307.26 447.115,1306.91 449.496,1306.56 451.876,1306.2 454.257,1305.84 456.638,1305.48 459.018,1305.11 461.399,1304.74 463.78,1304.36 466.16,1303.98 468.541,1303.59 470.922,1303.2 473.302,1302.8 475.683,1302.4 478.064,1301.99 480.444,1301.58 482.825,1301.17 485.206,1300.74 487.586,1300.32 489.967,1299.88 492.348,1299.44 494.728,1299 497.109,1298.55 499.49,1298.1 501.871,1297.64 504.251,1297.17 506.632,1296.7 509.013,1296.22 511.393,1295.73 513.774,1295.24 516.155,1294.75 518.535,1294.24 520.916,1293.73 523.297,1293.22 525.677,1292.7 528.058,1292.17 530.439,1291.63 532.819,1291.09 535.2,1290.54 537.581,1289.98 539.961,1289.42 542.342,1288.85 544.723,1288.27 547.104,1287.68 549.484,1287.09 551.865,1286.49 554.246,1285.88 556.626,1285.27 559.007,1284.64 561.388,1284.01 563.768,1283.37 566.149,1282.72 568.53,1282.06 570.91,1281.4 573.291,1280.72 575.672,1280.04 578.052,1279.35 580.433,1278.65 582.814,1277.94 585.194,1277.22 587.575,1276.49 589.956,1275.75 592.337,1275.01 594.717,1274.25 597.098,1273.48 599.479,1272.71 601.859,1271.92 604.24,1271.12 606.621,1270.31 609.001,1269.5 611.382,1268.67 613.763,1267.83 616.143,1266.98 618.524,1266.12 620.905,1265.24 623.285,1264.36 625.666,1263.46 628.047,1262.55 630.427,1261.64 632.808,1260.7 635.189,1259.76 637.569,1258.8 639.95,1257.83 642.331,1256.85 644.712,1255.86 647.092,1254.85 649.473,1253.83 651.854,1252.8 654.234,1251.75 656.615,1250.69 658.996,1249.61 661.376,1248.52 663.757,1247.42 666.138,1246.3 668.518,1245.17 670.899,1244.02 673.28,1242.86 675.66,1241.68 678.041,1240.48 680.422,1239.27 682.802,1238.05 685.183,1236.81 687.564,1235.55 689.945,1234.27 692.325,1232.98 694.706,1231.67 697.087,1230.35 699.467,1229.01 701.848,1227.64 704.229,1226.27 706.609,1224.87 708.99,1223.45 711.371,1222.02 713.751,1220.57 716.132,1219.1 718.513,1217.61 720.893,1216.1 723.274,1214.57 725.655,1213.02 728.035,1211.44 730.416,1209.85 732.797,1208.24 735.178,1206.61 737.558,1204.95 739.939,1203.28 742.32,1201.58 744.7,1199.86 747.081,1198.12 749.462,1196.35 751.842,1194.57 754.223,1192.76 756.604,1190.92 758.984,1189.06 761.365,1187.18 763.746,1185.27 766.126,1183.34 768.507,1181.39 770.888,1179.41 773.268,1177.4 775.649,1175.37 778.03,1173.31 780.411,1171.22 782.791,1169.11 785.172,1166.97 787.553,1164.81 789.933,1162.61 792.314,1160.39 794.695,1158.14 797.075,1155.86 799.456,1153.55 801.837,1151.22 804.217,1148.85 806.598,1146.46 808.979,1144.03 811.359,1141.58 813.74,1139.09 816.121,1136.57 818.501,1134.02 820.882,1131.44 823.263,1128.83 825.643,1126.18 828.024,1123.51 830.405,1120.8 832.786,1118.05 835.166,1115.28 837.547,1112.47 839.928,1109.62 842.308,1106.74 844.689,1103.83 847.07,1100.88 849.45,1097.89 851.831,1094.87 854.212,1091.82 856.592,1088.72 858.973,1085.59 861.354,1082.43 863.734,1079.22 866.115,1075.98 868.496,1072.7 870.876,1069.39 873.257,1066.03 875.638,1062.64 878.019,1059.21 880.399,1055.73 882.78,1052.22 885.161,1048.67 887.541,1045.08 889.922,1041.45 892.303,1037.78 894.683,1034.07 897.064,1030.31 899.445,1026.52 901.825,1022.69 904.206,1018.81 906.587,1014.89 908.967,1010.93 911.348,1006.93 913.729,1002.89 916.109,998.798 918.49,994.669 920.871,990.497 923.252,986.283 925.632,982.025 928.013,977.724 930.394,973.38 932.774,968.993 935.155,964.563 937.536,960.089 939.916,955.572 942.297,951.012 944.678,946.408 947.058,941.761 949.439,937.07 951.82,932.336 954.2,927.558 956.581,922.738 958.962,917.874 961.342,912.966 963.723,908.016 966.104,903.024 968.484,897.988 970.865,892.91 973.246,887.789 975.627,882.627 978.007,877.422 980.388,872.176 982.769,866.889 985.149,861.561 987.53,856.191 989.911,850.782 992.291,845.333 994.672,839.843 997.053,834.315 999.433,828.748 1001.81,823.143 1004.19,817.501 1006.58,811.82 1008.96,806.104 1011.34,800.351 1013.72,794.563 1016.1,788.74 1018.48,782.883 1020.86,776.993 1023.24,771.07 1025.62,765.115 1028,759.128 1030.38,753.112 1032.76,747.066 1035.14,740.992 1037.52,734.89 1039.9,728.761 1042.29,722.607 1044.67,716.428 1047.05,710.225 1049.43,704 1051.81,697.753 1054.19,691.486 1056.57,685.2 1058.95,678.896 1061.33,672.576 1063.71,666.24 1066.09,659.891 1068.47,653.529 1070.85,647.155 1073.23,640.772 1075.62,634.38 1078,627.982 1080.38,621.578 1082.76,615.17 1085.14,608.76 1087.52,602.35 1089.9,595.94 1092.28,589.534 1094.66,583.132 1097.04,576.736 1099.42,570.348 1101.8,563.97 1104.18,557.604 1106.56,551.251 1108.94,544.913 1111.33,538.593 1113.71,532.292 1116.09,526.012 1118.47,519.756 1120.85,513.524 1123.23,507.32 1125.61,501.146 1127.99,495.002 1130.37,488.892 1132.75,482.818 1135.13,476.782 1137.51,470.785 1139.89,464.83 1142.27,458.92 1144.66,453.056 1147.04,447.24 1149.42,441.476 1151.8,435.764 1154.18,430.108 1156.56,424.509 1158.94,418.969 1161.32,413.492 1163.7,408.078 1166.08,402.731 1168.46,397.452 1170.84,392.244 1173.22,387.109 1175.6,382.049 1177.98,377.066 1180.37,372.163 1182.75,367.341 1185.13,362.603 1187.51,357.95 1189.89,353.386 1192.27,348.911 1194.65,344.528 1197.03,340.24 1199.41,336.047 1201.79,331.952 1204.17,327.957 1206.55,324.064 1208.93,320.275 1211.31,316.59 1213.69,313.013 1216.08,309.545 1218.46,306.187 1220.84,302.942 1223.22,299.81 1225.6,296.794 1227.98,293.895 1230.36,291.114 1232.74,288.452 1235.12,285.912 1237.5,283.494 1239.88,281.199 1242.26,279.029 1244.64,276.985 1247.02,275.068 1249.41,273.279 1251.79,271.619 1254.17,270.088 1256.55,268.687 1258.93,267.418 1261.31,266.281 1263.69,265.276 1266.07,264.404 1268.45,263.665 1270.83,263.06 1273.21,262.589 1275.59,262.253 1277.97,262.051 1280.35,261.984 1282.73,262.051 1285.12,262.253 1287.5,262.589 1289.88,263.06 1292.26,263.665 1294.64,264.404 1297.02,265.276 1299.4,266.281 1301.78,267.418 1304.16,268.687 1306.54,270.088 1308.92,271.619 1311.3,273.279 1313.68,275.068 1316.06,276.985 1318.44,279.029 1320.83,281.199 1323.21,283.494 1325.59,285.912 1327.97,288.452 1330.35,291.114 1332.73,293.895 1335.11,296.794 1337.49,299.81 1339.87,302.942 1342.25,306.187 1344.63,309.545 1347.01,313.013 1349.39,316.59 1351.77,320.275 1354.16,324.064 1356.54,327.957 1358.92,331.952 1361.3,336.047 1363.68,340.24 1366.06,344.528 1368.44,348.911 1370.82,353.386 1373.2,357.95 1375.58,362.603 1377.96,367.341 1380.34,372.163 1382.72,377.066 1385.1,382.049 1387.48,387.109 1389.87,392.244 1392.25,397.452 1394.63,402.731 1397.01,408.078 1399.39,413.492 1401.77,418.969 1404.15,424.509 1406.53,430.108 1408.91,435.764 1411.29,441.476 1413.67,447.24 1416.05,453.056 1418.43,458.92 1420.81,464.83 1423.2,470.785 1425.58,476.782 1427.96,482.818 1430.34,488.892 1432.72,495.002 1435.1,501.146 1437.48,507.32 1439.86,513.524 1442.24,519.756 1444.62,526.012 1447,532.292 1449.38,538.593 1451.76,544.913 1454.14,551.251 1456.52,557.604 1458.91,563.97 1461.29,570.348 1463.67,576.736 1466.05,583.132 1468.43,589.534 1470.81,595.94 1473.19,602.35 1475.57,608.76 1477.95,615.17 1480.33,621.578 1482.71,627.982 1485.09,634.38 1487.47,640.772 1489.85,647.155 1492.23,653.529 1494.62,659.891 1497,666.24 1499.38,672.576 1501.76,678.896 1504.14,685.2 1506.52,691.486 1508.9,697.753 1511.28,704 1513.66,710.225 1516.04,716.428 1518.42,722.607 1520.8,728.761 1523.18,734.89 1525.56,740.992 1527.95,747.066 1530.33,753.112 1532.71,759.128 1535.09,765.115 1537.47,771.07 1539.85,776.993 1542.23,782.883 1544.61,788.74 1546.99,794.563 1549.37,800.351 1551.75,806.104 1554.13,811.82 1556.51,817.501 1558.89,823.143 1561.27,828.748 1563.66,834.315 1566.04,839.843 1568.42,845.333 1570.8,850.782 1573.18,856.191 1575.56,861.561 1577.94,866.889 1580.32,872.176 1582.7,877.422 1585.08,882.627 1587.46,887.789 1589.84,892.91 1592.22,897.988 1594.6,903.024 1596.98,908.016 1599.37,912.966 1601.75,917.874 1604.13,922.738 1606.51,927.558 1608.89,932.336 1611.27,937.07 1613.65,941.761 1616.03,946.408 1618.41,951.012 1620.79,955.572 1623.17,960.089 1625.55,964.563 1627.93,968.993 1630.31,973.38 1632.7,977.724 1635.08,982.025 1637.46,986.283 1639.84,990.497 1642.22,994.669 1644.6,998.798 1646.98,1002.89 1649.36,1006.93 1651.74,1010.93 1654.12,1014.89 1656.5,1018.81 1658.88,1022.69 1661.26,1026.52 1663.64,1030.31 1666.02,1034.07 1668.41,1037.78 1670.79,1041.45 1673.17,1045.08 1675.55,1048.67 1677.93,1052.22 1680.31,1055.73 1682.69,1059.21 1685.07,1062.64 1687.45,1066.03 1689.83,1069.39 1692.21,1072.7 1694.59,1075.98 1696.97,1079.22 1699.35,1082.43 1701.73,1085.59 1704.12,1088.72 1706.5,1091.82 1708.88,1094.87 1711.26,1097.89 1713.64,1100.88 1716.02,1103.83 1718.4,1106.74 1720.78,1109.62 1723.16,1112.47 1725.54,1115.28 1727.92,1118.05 1730.3,1120.8 1732.68,1123.51 1735.06,1126.18 1737.45,1128.83 1739.83,1131.44 1742.21,1134.02 1744.59,1136.57 1746.97,1139.09 1749.35,1141.58 1751.73,1144.03 1754.11,1146.46 1756.49,1148.85 1758.87,1151.22 1761.25,1153.55 1763.63,1155.86 1766.01,1158.14 1768.39,1160.39 1770.77,1162.61 1773.16,1164.81 1775.54,1166.97 1777.92,1169.11 1780.3,1171.22 1782.68,1173.31 1785.06,1175.37 1787.44,1177.4 1789.82,1179.41 1792.2,1181.39 1794.58,1183.34 1796.96,1185.27 1799.34,1187.18 1801.72,1189.06 1804.1,1190.92 1806.49,1192.76 1808.87,1194.57 1811.25,1196.35 1813.63,1198.12 1816.01,1199.86 1818.39,1201.58 1820.77,1203.28 1823.15,1204.95 1825.53,1206.61 1827.91,1208.24 1830.29,1209.85 1832.67,1211.44 1835.05,1213.02 1837.43,1214.57 1839.81,1216.1 1842.2,1217.61 1844.58,1219.1 1846.96,1220.57 1849.34,1222.02 1851.72,1223.45 1854.1,1224.87 1856.48,1226.27 1858.86,1227.64 1861.24,1229.01 1863.62,1230.35 1866,1231.67 1868.38,1232.98 1870.76,1234.27 1873.14,1235.55 1875.52,1236.81 1877.91,1238.05 1880.29,1239.27 1882.67,1240.48 1885.05,1241.68 1887.43,1242.86 1889.81,1244.02 1892.19,1245.17 1894.57,1246.3 1896.95,1247.42 1899.33,1248.52 1901.71,1249.61 1904.09,1250.69 1906.47,1251.75 1908.85,1252.8 1911.24,1253.83 1913.62,1254.85 1916,1255.86 1918.38,1256.85 1920.76,1257.83 1923.14,1258.8 1925.52,1259.76 1927.9,1260.7 1930.28,1261.64 1932.66,1262.55 1935.04,1263.46 1937.42,1264.36 1939.8,1265.24 1942.18,1266.12 1944.56,1266.98 1946.95,1267.83 1949.33,1268.67 1951.71,1269.5 1954.09,1270.31 1956.47,1271.12 1958.85,1271.92 1961.23,1272.71 1963.61,1273.48 1965.99,1274.25 1968.37,1275.01 1970.75,1275.75 1973.13,1276.49 1975.51,1277.22 1977.89,1277.94 1980.27,1278.65 1982.66,1279.35 1985.04,1280.04 1987.42,1280.72 1989.8,1281.4 1992.18,1282.06 1994.56,1282.72 1996.94,1283.37 1999.32,1284.01 2001.7,1284.64 2004.08,1285.27 2006.46,1285.88 2008.84,1286.49 2011.22,1287.09 2013.6,1287.68 2015.99,1288.27 2018.37,1288.85 2020.75,1289.42 2023.13,1289.98 2025.51,1290.54 2027.89,1291.09 2030.27,1291.63 2032.65,1292.17 2035.03,1292.7 2037.41,1293.22 2039.79,1293.73 2042.17,1294.24 2044.55,1294.75 2046.93,1295.24 2049.31,1295.73 2051.7,1296.22 2054.08,1296.7 2056.46,1297.17 2058.84,1297.64 2061.22,1298.1 2063.6,1298.55 2065.98,1299 2068.36,1299.44 2070.74,1299.88 2073.12,1300.32 2075.5,1300.74 2077.88,1301.17 2080.26,1301.58 2082.64,1301.99 2085.03,1302.4 2087.41,1302.8 2089.79,1303.2 2092.17,1303.59 2094.55,1303.98 2096.93,1304.36 2099.31,1304.74 2101.69,1305.11 2104.07,1305.48 2106.45,1305.84 2108.83,1306.2 2111.21,1306.56 2113.59,1306.91 2115.97,1307.26 2118.35,1307.6 2120.74,1307.94 2123.12,1308.27 2125.5,1308.6 2127.88,1308.93 2130.26,1309.25 2132.64,1309.57 2135.02,1309.88 2137.4,1310.19 2139.78,1310.5 2142.16,1310.8 2144.54,1311.1 2146.92,1311.4 2149.3,1311.69 2151.68,1311.98 2154.06,1312.27 2156.45,1312.55 2158.83,1312.83 2161.21,1313.1 2163.59,1313.38 2165.97,1313.65 2168.35,1313.91 2170.73,1314.17 2173.11,1314.43 2175.49,1314.69 2177.87,1314.94 2180.25,1315.19 2182.63,1315.44 2185.01,1315.69 2187.39,1315.93 2189.78,1316.17 2192.16,1316.4 2194.54,1316.64 2196.92,1316.87 2199.3,1317.1 2201.68,1317.32 2204.06,1317.54 2206.44,1317.76 2208.82,1317.98 2211.2,1318.2 2213.58,1318.41 2215.96,1318.62 2218.34,1318.83 2220.72,1319.03 2223.1,1319.24 2225.49,1319.44 2227.87,1319.63 2230.25,1319.83 2232.63,1320.02 "/>
<polyline clip-path="url(#clip352)" style="stroke:#000000; stroke-linecap:round; stroke-linejoin:round; stroke-width:8; stroke-opacity:1; fill:none" points="2042.17,1166.93 1875.52,1296.2 "/>
<polyline clip-path="url(#clip352)" style="stroke:#000000; stroke-linecap:round; stroke-linejoin:round; stroke-width:8; stroke-opacity:1; fill:none" points="1915,1288.36 1875.52,1296.2 1892.94,1259.92 "/>
<polyline clip-path="url(#clip352)" style="stroke:#000000; stroke-linecap:round; stroke-linejoin:round; stroke-width:8; stroke-opacity:1; fill:none" points="1875.52,1296.2 2042.17,1166.93 "/>
<path clip-path="url(#clip350)" d="M1774.88 1447.46 Q1774.88 1449.75 1773.81 1450.33 Q1772.75 1450.82 1769.8 1450.82 L1754.06 1450.82 L1741.6 1500.33 Q1740.61 1504.68 1740.61 1508.37 Q1740.61 1512.47 1741.84 1514.27 Q1743.15 1516.07 1745.86 1516.07 Q1751.19 1516.07 1756.93 1511.24 Q1762.75 1506.4 1767.66 1494.6 Q1768.32 1493.04 1768.65 1492.71 Q1769.06 1492.3 1770.12 1492.3 Q1772.17 1492.3 1772.17 1493.94 Q1772.17 1494.51 1771.03 1497.14 Q1769.96 1499.76 1767.58 1503.61 Q1765.29 1507.47 1762.25 1511.07 Q1759.3 1514.68 1754.79 1517.3 Q1750.29 1519.84 1745.45 1519.84 Q1738.64 1519.84 1734.3 1515.5 Q1730.04 1511.16 1730.04 1504.35 Q1730.04 1502.14 1731.76 1495.09 Q1733.48 1487.96 1742.83 1450.82 L1727.99 1450.82 Q1725.94 1450.82 1725.12 1450.74 Q1724.38 1450.66 1723.81 1450.25 Q1723.31 1449.75 1723.31 1448.77 Q1723.31 1447.21 1723.97 1446.56 Q1724.63 1445.82 1725.45 1445.74 Q1726.35 1445.57 1728.4 1445.57 L1744.14 1445.57 L1750.7 1418.93 Q1751.35 1416.31 1752.99 1414.83 Q1754.71 1413.27 1755.7 1413.11 Q1756.68 1412.86 1757.42 1412.86 Q1759.63 1412.86 1760.94 1414.09 Q1762.25 1415.24 1762.25 1417.37 Q1762.25 1418.52 1755.37 1445.57 L1770.12 1445.57 Q1772.01 1445.57 1772.75 1445.65 Q1773.57 1445.74 1774.22 1446.15 Q1774.88 1446.56 1774.88 1447.46 Z" fill="#000000" fill-rule="evenodd" fill-opacity="1" /><path clip-path="url(#clip350)" d="M1858.23 1505.71 Q1858.12 1506.28 1857.89 1507.31 Q1857.66 1508.29 1856.63 1511.39 Q1855.59 1514.49 1854.22 1517.64 Q1852.9 1520.74 1850.31 1525.1 Q1847.79 1529.41 1844.69 1533.31 Q1843.83 1534.34 1843.66 1534.97 Q1843.54 1535.55 1843.54 1537.44 Q1843.54 1549.38 1847.16 1549.38 Q1847.33 1549.38 1847.62 1549.38 Q1847.96 1549.32 1848.82 1549.03 Q1849.74 1548.69 1850.54 1548.17 Q1851.35 1547.6 1852.26 1546.45 Q1853.18 1545.25 1853.76 1543.64 Q1854.27 1542.49 1855.31 1542.49 Q1856.68 1542.49 1856.68 1543.64 Q1856.68 1545.71 1853.81 1548.86 Q1850.94 1552.02 1846.81 1552.02 Q1842.85 1552.02 1840.04 1549.44 Q1837.29 1546.8 1836.14 1542.09 Q1823.74 1552.02 1811.35 1552.02 Q1802.63 1552.02 1797.46 1546.34 Q1792.3 1540.6 1792.3 1532.11 Q1792.3 1523.96 1796.77 1516.21 Q1801.31 1508.46 1808.65 1503.64 Q1816.05 1498.76 1823.92 1498.76 Q1826.67 1498.76 1829.31 1499.51 Q1831.95 1500.2 1834.59 1501.98 Q1837.23 1503.76 1839.18 1506.45 Q1841.13 1509.15 1842.34 1513.4 Q1843.54 1517.64 1843.54 1522.98 L1843.54 1530.27 Q1851.12 1520.69 1855.08 1506.97 Q1855.65 1504.9 1855.99 1504.68 Q1856.22 1504.5 1856.8 1504.5 Q1857.37 1504.5 1857.72 1504.85 Q1858.12 1505.13 1858.18 1505.42 L1858.23 1505.71 M1835.68 1539.05 Q1835.45 1537.04 1835.45 1525.91 Q1835.45 1523.78 1835.45 1522.64 Q1835.45 1521.43 1835.34 1519.14 Q1835.22 1516.84 1834.99 1515.41 Q1834.82 1513.97 1834.42 1511.91 Q1834.02 1509.84 1833.44 1508.52 Q1832.87 1507.2 1831.95 1505.71 Q1831.09 1504.22 1829.94 1503.36 Q1828.85 1502.49 1827.24 1501.92 Q1825.7 1501.35 1823.8 1501.35 Q1821.45 1501.35 1818.98 1502.21 Q1816.57 1503.01 1813.47 1505.59 Q1810.37 1508.12 1807.79 1512.14 Q1805.09 1516.38 1803.03 1524.19 Q1801.02 1531.93 1801.02 1536.58 Q1801.02 1542.43 1803.72 1545.93 Q1806.41 1549.38 1811.58 1549.38 Q1823.92 1549.38 1835.68 1539.05 Z" fill="#000000" fill-rule="evenodd" fill-opacity="1" /><path clip-path="url(#clip350)" d="M2126.1 1083.04 Q2125.95 1083.8 2125.64 1085.17 Q2125.34 1086.46 2123.97 1090.58 Q2122.6 1094.69 2120.77 1098.87 Q2119.02 1102.98 2115.59 1108.77 Q2112.25 1114.48 2108.13 1119.65 Q2106.99 1121.02 2106.76 1121.86 Q2106.61 1122.62 2106.61 1125.14 Q2106.61 1140.97 2111.41 1140.97 Q2111.64 1140.97 2112.02 1140.97 Q2112.47 1140.89 2113.62 1140.51 Q2114.83 1140.06 2115.9 1139.37 Q2116.96 1138.61 2118.18 1137.09 Q2119.4 1135.49 2120.16 1133.36 Q2120.85 1131.83 2122.22 1131.83 Q2124.04 1131.83 2124.04 1133.36 Q2124.04 1136.1 2120.24 1140.28 Q2116.43 1144.47 2110.95 1144.47 Q2105.7 1144.47 2101.97 1141.04 Q2098.31 1137.54 2096.79 1131.3 Q2080.35 1144.47 2063.91 1144.47 Q2052.34 1144.47 2045.49 1136.93 Q2038.63 1129.32 2038.63 1118.06 Q2038.63 1107.25 2044.57 1096.97 Q2050.59 1086.69 2060.33 1080.3 Q2070.15 1073.83 2080.58 1073.83 Q2084.23 1073.83 2087.73 1074.82 Q2091.24 1075.73 2094.74 1078.09 Q2098.24 1080.45 2100.83 1084.03 Q2103.41 1087.61 2105.01 1093.24 Q2106.61 1098.87 2106.61 1105.95 L2106.61 1115.62 Q2116.66 1102.91 2121.91 1084.71 Q2122.67 1081.97 2123.13 1081.67 Q2123.44 1081.44 2124.2 1081.44 Q2124.96 1081.44 2125.41 1081.9 Q2125.95 1082.28 2126.02 1082.66 L2126.1 1083.04 M2096.18 1127.27 Q2095.88 1124.6 2095.88 1109.83 Q2095.88 1107.02 2095.88 1105.5 Q2095.88 1103.9 2095.73 1100.85 Q2095.57 1097.81 2095.27 1095.9 Q2095.04 1094 2094.51 1091.26 Q2093.98 1088.52 2093.21 1086.77 Q2092.45 1085.02 2091.24 1083.04 Q2090.09 1081.06 2088.57 1079.92 Q2087.12 1078.78 2084.99 1078.02 Q2082.94 1077.25 2080.43 1077.25 Q2077.3 1077.25 2074.03 1078.4 Q2070.83 1079.46 2066.72 1082.89 Q2062.61 1086.24 2059.19 1091.57 Q2055.61 1097.2 2052.87 1107.55 Q2050.21 1117.83 2050.21 1123.99 Q2050.21 1131.76 2053.78 1136.4 Q2057.36 1140.97 2064.21 1140.97 Q2080.58 1140.97 2096.18 1127.27 Z" fill="#000000" fill-rule="evenodd" fill-opacity="1" /></svg>
