<?xml version="1.0" encoding="utf-8"?>
<svg xmlns="http://www.w3.org/2000/svg" xmlns:xlink="http://www.w3.org/1999/xlink" width="600" height="400" viewBox="0 0 2400 1600">
<defs>
  <clipPath id="clip690">
    <rect x="0" y="0" width="2400" height="1600"/>
  </clipPath>
</defs>
<path clip-path="url(#clip690)" d="
M0 1600 L2400 1600 L2400 0 L0 0  Z
  " fill="#ffffff" fill-rule="evenodd" fill-opacity="1"/>
<defs>
  <clipPath id="clip691">
    <rect x="480" y="0" width="1681" height="1600"/>
  </clipPath>
</defs>
<path clip-path="url(#clip690)" d="
M208.803 1425.97 L2352.76 1425.97 L2352.76 47.2441 L208.803 47.2441  Z
  " fill="#ffffff" fill-rule="evenodd" fill-opacity="1"/>
<defs>
  <clipPath id="clip692">
    <rect x="208" y="47" width="2145" height="1380"/>
  </clipPath>
</defs>
<polyline clip-path="url(#clip690)" style="stroke:#000000; stroke-linecap:round; stroke-linejoin:round; stroke-width:4; stroke-opacity:1; fill:none" points="
  208.803,1425.97 2352.76,1425.97 
  "/>
<polyline clip-path="url(#clip690)" style="stroke:#000000; stroke-linecap:round; stroke-linejoin:round; stroke-width:4; stroke-opacity:1; fill:none" points="
  1280.78,1425.97 1280.78,1407.07 
  "/>
<path clip-path="url(#clip690)" d="M1280.78 1477.39 Q1270.85 1477.39 1265.82 1487.2 Q1260.85 1496.94 1260.85 1516.54 Q1260.85 1536.09 1265.82 1545.89 Q1270.85 1555.63 1280.78 1555.63 Q1290.77 1555.63 1295.74 1545.89 Q1300.77 1536.09 1300.77 1516.54 Q1300.77 1496.94 1295.74 1487.2 Q1290.77 1477.39 1280.78 1477.39 M1280.78 1467.21 Q1296.76 1467.21 1305.16 1479.88 Q1313.63 1492.48 1313.63 1516.54 Q1313.63 1540.54 1305.16 1553.21 Q1296.76 1565.81 1280.78 1565.81 Q1264.8 1565.81 1256.34 1553.21 Q1247.93 1540.54 1247.93 1516.54 Q1247.93 1492.48 1256.34 1479.88 Q1264.8 1467.21 1280.78 1467.21 Z" fill="#000000" fill-rule="evenodd" fill-opacity="1" /><path clip-path="url(#clip692)" d="
M269.481 1386.51 L272.009 1386.49 L274.537 1386.47 L277.065 1386.46 L279.594 1386.44 L282.122 1386.42 L284.65 1386.39 L287.178 1386.37 L289.707 1386.35 L292.235 1386.32 
  L294.763 1386.3 L297.291 1386.27 L299.82 1386.25 L302.348 1386.22 L304.876 1386.19 L307.404 1386.16 L309.933 1386.13 L312.461 1386.1 L314.989 1386.07 L317.517 1386.03 
  L320.046 1386 L322.574 1385.96 L325.102 1385.92 L327.63 1385.88 L330.159 1385.84 L332.687 1385.8 L335.215 1385.75 L337.743 1385.71 L340.272 1385.66 L342.8 1385.61 
  L345.328 1385.56 L347.856 1385.51 L350.385 1385.46 L352.913 1385.4 L355.441 1385.34 L357.969 1385.28 L360.498 1385.22 L363.026 1385.16 L365.554 1385.09 L368.082 1385.02 
  L370.611 1384.95 L373.139 1384.88 L375.667 1384.8 L378.195 1384.73 L380.724 1384.65 L383.252 1384.56 L385.78 1384.48 L388.308 1384.39 L390.837 1384.3 L393.365 1384.2 
  L395.893 1384.1 L398.421 1384 L400.95 1383.9 L403.478 1383.79 L406.006 1383.68 L408.534 1383.56 L411.063 1383.44 L413.591 1383.32 L416.119 1383.19 L418.647 1383.06 
  L421.176 1382.93 L423.704 1382.79 L426.232 1382.65 L428.76 1382.5 L431.289 1382.35 L433.817 1382.19 L436.345 1382.03 L438.873 1381.86 L441.402 1381.69 L443.93 1381.51 
  L446.458 1381.33 L448.986 1381.14 L451.514 1380.95 L454.043 1380.75 L456.571 1380.54 L459.099 1380.33 L461.627 1380.11 L464.156 1379.89 L466.684 1379.66 L469.212 1379.42 
  L471.74 1379.17 L474.269 1378.92 L476.797 1378.66 L479.325 1378.4 L481.853 1378.12 L484.382 1377.84 L486.91 1377.55 L489.438 1377.25 L491.966 1376.94 L494.495 1376.62 
  L497.023 1376.3 L499.551 1375.96 L502.079 1375.62 L504.608 1375.26 L507.136 1374.9 L509.664 1374.53 L512.192 1374.14 L514.721 1373.75 L517.249 1373.34 L519.777 1372.93 
  L522.305 1372.5 L524.834 1372.06 L527.362 1371.61 L529.89 1371.14 L532.418 1370.67 L534.947 1370.18 L537.475 1369.68 L540.003 1369.17 L542.531 1368.64 L545.06 1368.1 
  L547.588 1367.54 L550.116 1366.97 L552.644 1366.39 L555.173 1365.79 L557.701 1365.17 L560.229 1364.54 L562.757 1363.89 L565.286 1363.23 L567.814 1362.55 L570.342 1361.85 
  L572.87 1361.14 L575.399 1360.41 L577.927 1359.66 L580.455 1358.89 L582.983 1358.11 L585.512 1357.3 L588.04 1356.47 L590.568 1355.63 L593.096 1354.76 L595.625 1353.88 
  L598.153 1352.97 L600.681 1352.04 L603.209 1351.09 L605.738 1350.12 L608.266 1349.13 L610.794 1348.11 L613.322 1347.07 L615.851 1346 L618.379 1344.91 L620.907 1343.8 
  L623.435 1342.66 L625.963 1341.5 L628.492 1340.31 L631.02 1339.09 L633.548 1337.85 L636.076 1336.58 L638.605 1335.28 L641.133 1333.95 L643.661 1332.6 L646.189 1331.21 
  L648.718 1329.8 L651.246 1328.36 L653.774 1326.88 L656.302 1325.38 L658.831 1323.84 L661.359 1322.27 L663.887 1320.67 L666.415 1319.04 L668.944 1317.37 L671.472 1315.67 
  L674 1313.93 L676.528 1312.16 L679.057 1310.36 L681.585 1308.52 L684.113 1306.64 L686.641 1304.73 L689.17 1302.78 L691.698 1300.79 L694.226 1298.76 L696.754 1296.7 
  L699.283 1294.59 L701.811 1292.45 L704.339 1290.26 L706.867 1288.04 L709.396 1285.77 L711.924 1283.47 L714.452 1281.12 L716.98 1278.72 L719.509 1276.29 L722.037 1273.81 
  L724.565 1271.29 L727.093 1268.72 L729.622 1266.11 L732.15 1263.45 L734.678 1260.75 L737.206 1258 L739.735 1255.21 L742.263 1252.36 L744.791 1249.47 L747.319 1246.53 
  L749.848 1243.55 L752.376 1240.51 L754.904 1237.43 L757.432 1234.29 L759.961 1231.11 L762.489 1227.87 L765.017 1224.58 L767.545 1221.24 L770.074 1217.86 L772.602 1214.41 
  L775.13 1210.92 L777.658 1207.37 L780.187 1203.77 L782.715 1200.12 L785.243 1196.41 L787.771 1192.65 L790.3 1188.83 L792.828 1184.96 L795.356 1181.04 L797.884 1177.06 
  L800.413 1173.02 L802.941 1168.93 L805.469 1164.78 L807.997 1160.57 L810.525 1156.31 L813.054 1151.99 L815.582 1147.62 L818.11 1143.18 L820.638 1138.7 L823.167 1134.15 
  L825.695 1129.54 L828.223 1124.88 L830.751 1120.16 L833.28 1115.38 L835.808 1110.55 L838.336 1105.66 L840.864 1100.7 L843.393 1095.69 L845.921 1090.63 L848.449 1085.5 
  L850.977 1080.32 L853.506 1075.07 L856.034 1069.78 L858.562 1064.42 L861.09 1059 L863.619 1053.53 L866.147 1048 L868.675 1042.41 L871.203 1036.77 L873.732 1031.07 
  L876.26 1025.31 L878.788 1019.49 L881.316 1013.62 L883.845 1007.7 L886.373 1001.72 L888.901 995.679 L891.429 989.587 L893.958 983.44 L896.486 977.239 L899.014 970.985 
  L901.542 964.678 L904.071 958.317 L906.599 951.904 L909.127 945.44 L911.655 938.924 L914.184 932.358 L916.712 925.741 L919.24 919.075 L921.768 912.361 L924.297 905.597 
  L926.825 898.787 L929.353 891.929 L931.881 885.025 L934.41 878.076 L936.938 871.083 L939.466 864.045 L941.994 856.965 L944.523 849.842 L947.051 842.678 L949.579 835.473 
  L952.107 828.23 L954.636 820.947 L957.164 813.627 L959.692 806.27 L962.22 798.878 L964.749 791.451 L967.277 783.991 L969.805 776.498 L972.333 768.974 L974.862 761.42 
  L977.39 753.837 L979.918 746.226 L982.446 738.588 L984.975 730.925 L987.503 723.238 L990.031 715.528 L992.559 707.796 L995.087 700.043 L997.616 692.272 L1000.14 684.483 
  L1002.67 676.678 L1005.2 668.858 L1007.73 661.024 L1010.26 653.178 L1012.79 645.322 L1015.31 637.456 L1017.84 629.583 L1020.37 621.703 L1022.9 613.819 L1025.43 605.932 
  L1027.95 598.043 L1030.48 590.155 L1033.01 582.267 L1035.54 574.383 L1038.07 566.504 L1040.6 558.631 L1043.12 550.767 L1045.65 542.912 L1048.18 535.068 L1050.71 527.238 
  L1053.24 519.422 L1055.77 511.623 L1058.29 503.842 L1060.82 496.081 L1063.35 488.341 L1065.88 480.625 L1068.41 472.935 L1070.93 465.271 L1073.46 457.635 L1075.99 450.03 
  L1078.52 442.458 L1081.05 434.919 L1083.58 427.416 L1086.1 419.951 L1088.63 412.525 L1091.16 405.14 L1093.69 397.799 L1096.22 390.502 L1098.75 383.251 L1101.27 376.049 
  L1103.8 368.897 L1106.33 361.797 L1108.86 354.751 L1111.39 347.76 L1113.92 340.826 L1116.44 333.951 L1118.97 327.138 L1121.5 320.386 L1124.03 313.7 L1126.56 307.079 
  L1129.08 300.526 L1131.61 294.042 L1134.14 287.63 L1136.67 281.291 L1139.2 275.026 L1141.73 268.838 L1144.25 262.727 L1146.78 256.697 L1149.31 250.747 L1151.84 244.881 
  L1154.37 239.099 L1156.9 233.403 L1159.42 227.795 L1161.95 222.276 L1164.48 216.847 L1167.01 211.511 L1169.54 206.269 L1172.06 201.122 L1174.59 196.071 L1177.12 191.119 
  L1179.65 186.266 L1182.18 181.514 L1184.71 176.864 L1187.23 172.318 L1189.76 167.876 L1192.29 163.541 L1194.82 159.313 L1197.35 155.193 L1199.88 151.183 L1202.4 147.285 
  L1204.93 143.498 L1207.46 139.824 L1209.99 136.265 L1212.52 132.821 L1215.04 129.493 L1217.57 126.282 L1220.1 123.19 L1222.63 120.217 L1225.16 117.363 L1227.69 114.631 
  L1230.21 112.02 L1232.74 109.531 L1235.27 107.166 L1237.8 104.924 L1240.33 102.807 L1242.86 100.815 L1245.38 98.949 L1247.91 97.209 L1250.44 95.5959 L1252.97 94.11 
  L1255.5 92.7518 L1258.03 91.5217 L1260.55 90.4201 L1263.08 89.4474 L1265.61 88.6037 L1268.14 87.8894 L1270.67 87.3047 L1273.19 86.8498 L1275.72 86.5247 L1278.25 86.3296 
  L1280.78 86.2646 L1283.31 86.3296 L1285.84 86.5247 L1288.36 86.8498 L1290.89 87.3047 L1293.42 87.8894 L1295.95 88.6037 L1298.48 89.4474 L1301.01 90.4201 L1303.53 91.5217 
  L1306.06 92.7518 L1308.59 94.11 L1311.12 95.5959 L1313.65 97.209 L1316.17 98.949 L1318.7 100.815 L1321.23 102.807 L1323.76 104.924 L1326.29 107.166 L1328.82 109.531 
  L1331.34 112.02 L1333.87 114.631 L1336.4 117.363 L1338.93 120.217 L1341.46 123.19 L1343.99 126.282 L1346.51 129.493 L1349.04 132.821 L1351.57 136.265 L1354.1 139.824 
  L1356.63 143.498 L1359.16 147.285 L1361.68 151.183 L1364.21 155.193 L1366.74 159.313 L1369.27 163.541 L1371.8 167.876 L1374.32 172.318 L1376.85 176.864 L1379.38 181.514 
  L1381.91 186.266 L1384.44 191.119 L1386.97 196.071 L1389.49 201.122 L1392.02 206.269 L1394.55 211.511 L1397.08 216.847 L1399.61 222.276 L1402.14 227.795 L1404.66 233.403 
  L1407.19 239.099 L1409.72 244.881 L1412.25 250.747 L1414.78 256.697 L1417.3 262.727 L1419.83 268.838 L1422.36 275.026 L1424.89 281.291 L1427.42 287.63 L1429.95 294.042 
  L1432.47 300.526 L1435 307.079 L1437.53 313.7 L1440.06 320.386 L1442.59 327.138 L1445.12 333.951 L1447.64 340.826 L1450.17 347.76 L1452.7 354.751 L1455.23 361.797 
  L1457.76 368.897 L1460.28 376.049 L1462.81 383.251 L1465.34 390.502 L1467.87 397.799 L1470.4 405.14 L1472.93 412.525 L1475.45 419.951 L1477.98 427.416 L1480.51 434.919 
  L1483.04 442.458 L1485.57 450.03 L1488.1 457.635 L1490.62 465.271 L1493.15 472.935 L1495.68 480.625 L1498.21 488.341 L1500.74 496.081 L1503.27 503.842 L1505.79 511.623 
  L1508.32 519.422 L1510.85 527.238 L1513.38 535.068 L1515.91 542.912 L1518.43 550.767 L1520.96 558.631 L1523.49 566.504 L1526.02 574.383 L1528.55 582.267 L1531.08 590.155 
  L1533.6 598.043 L1536.13 605.932 L1538.66 613.819 L1541.19 621.703 L1543.72 629.583 L1546.25 637.456 L1548.77 645.322 L1551.3 653.178 L1553.83 661.024 L1556.36 668.858 
  L1558.89 676.678 L1561.41 684.483 L1563.94 692.272 L1566.47 700.043 L1569 707.796 L1571.53 715.528 L1574.06 723.238 L1576.58 730.925 L1579.11 738.588 L1581.64 746.226 
  L1584.17 753.837 L1586.7 761.42 L1589.23 768.974 L1591.75 776.498 L1594.28 783.991 L1596.81 791.451 L1599.34 798.878 L1601.87 806.27 L1604.39 813.627 L1606.92 820.947 
  L1609.45 828.23 L1611.98 835.473 L1614.51 842.678 L1617.04 849.842 L1619.56 856.965 L1622.09 864.045 L1624.62 871.083 L1627.15 878.076 L1629.68 885.025 L1632.21 891.929 
  L1634.73 898.787 L1637.26 905.597 L1639.79 912.361 L1642.32 919.075 L1644.85 925.741 L1647.38 932.358 L1649.9 938.924 L1652.43 945.44 L1654.96 951.904 L1657.49 958.317 
  L1660.02 964.678 L1662.54 970.985 L1665.07 977.239 L1667.6 983.44 L1670.13 989.587 L1672.66 995.679 L1675.19 1001.72 L1677.71 1007.7 L1680.24 1013.62 L1682.77 1019.49 
  L1685.3 1025.31 L1685.3 1386.95 L1682.77 1386.95 L1680.24 1386.95 L1677.71 1386.95 L1675.19 1386.95 L1672.66 1386.95 L1670.13 1386.95 L1667.6 1386.95 L1665.07 1386.95 
  L1662.54 1386.95 L1660.02 1386.95 L1657.49 1386.95 L1654.96 1386.95 L1652.43 1386.95 L1649.9 1386.95 L1647.38 1386.95 L1644.85 1386.95 L1642.32 1386.95 L1639.79 1386.95 
  L1637.26 1386.95 L1634.73 1386.95 L1632.21 1386.95 L1629.68 1386.95 L1627.15 1386.95 L1624.62 1386.95 L1622.09 1386.95 L1619.56 1386.95 L1617.04 1386.95 L1614.51 1386.95 
  L1611.98 1386.95 L1609.45 1386.95 L1606.92 1386.95 L1604.39 1386.95 L1601.87 1386.95 L1599.34 1386.95 L1596.81 1386.95 L1594.28 1386.95 L1591.75 1386.95 L1589.23 1386.95 
  L1586.7 1386.95 L1584.17 1386.95 L1581.64 1386.95 L1579.11 1386.95 L1576.58 1386.95 L1574.06 1386.95 L1571.53 1386.95 L1569 1386.95 L1566.47 1386.95 L1563.94 1386.95 
  L1561.41 1386.95 L1558.89 1386.95 L1556.36 1386.95 L1553.83 1386.95 L1551.3 1386.95 L1548.77 1386.95 L1546.25 1386.95 L1543.72 1386.95 L1541.19 1386.95 L1538.66 1386.95 
  L1536.13 1386.95 L1533.6 1386.95 L1531.08 1386.95 L1528.55 1386.95 L1526.02 1386.95 L1523.49 1386.95 L1520.96 1386.95 L1518.43 1386.95 L1515.91 1386.95 L1513.38 1386.95 
  L1510.85 1386.95 L1508.32 1386.95 L1505.79 1386.95 L1503.27 1386.95 L1500.74 1386.95 L1498.21 1386.95 L1495.68 1386.95 L1493.15 1386.95 L1490.62 1386.95 L1488.1 1386.95 
  L1485.57 1386.95 L1483.04 1386.95 L1480.51 1386.95 L1477.98 1386.95 L1475.45 1386.95 L1472.93 1386.95 L1470.4 1386.95 L1467.87 1386.95 L1465.34 1386.95 L1462.81 1386.95 
  L1460.28 1386.95 L1457.76 1386.95 L1455.23 1386.95 L1452.7 1386.95 L1450.17 1386.95 L1447.64 1386.95 L1445.12 1386.95 L1442.59 1386.95 L1440.06 1386.95 L1437.53 1386.95 
  L1435 1386.95 L1432.47 1386.95 L1429.95 1386.95 L1427.42 1386.95 L1424.89 1386.95 L1422.36 1386.95 L1419.83 1386.95 L1417.3 1386.95 L1414.78 1386.95 L1412.25 1386.95 
  L1409.72 1386.95 L1407.19 1386.95 L1404.66 1386.95 L1402.14 1386.95 L1399.61 1386.95 L1397.08 1386.95 L1394.55 1386.95 L1392.02 1386.95 L1389.49 1386.95 L1386.97 1386.95 
  L1384.44 1386.95 L1381.91 1386.95 L1379.38 1386.95 L1376.85 1386.95 L1374.32 1386.95 L1371.8 1386.95 L1369.27 1386.95 L1366.74 1386.95 L1364.21 1386.95 L1361.68 1386.95 
  L1359.16 1386.95 L1356.63 1386.95 L1354.1 1386.95 L1351.57 1386.95 L1349.04 1386.95 L1346.51 1386.95 L1343.99 1386.95 L1341.46 1386.95 L1338.93 1386.95 L1336.4 1386.95 
  L1333.87 1386.95 L1331.34 1386.95 L1328.82 1386.95 L1326.29 1386.95 L1323.76 1386.95 L1321.23 1386.95 L1318.7 1386.95 L1316.17 1386.95 L1313.65 1386.95 L1311.12 1386.95 
  L1308.59 1386.95 L1306.06 1386.95 L1303.53 1386.95 L1301.01 1386.95 L1298.48 1386.95 L1295.95 1386.95 L1293.42 1386.95 L1290.89 1386.95 L1288.36 1386.95 L1285.84 1386.95 
  L1283.31 1386.95 L1280.78 1386.95 L1278.25 1386.95 L1275.72 1386.95 L1273.19 1386.95 L1270.67 1386.95 L1268.14 1386.95 L1265.61 1386.95 L1263.08 1386.95 L1260.55 1386.95 
  L1258.03 1386.95 L1255.5 1386.95 L1252.97 1386.95 L1250.44 1386.95 L1247.91 1386.95 L1245.38 1386.95 L1242.86 1386.95 L1240.33 1386.95 L1237.8 1386.95 L1235.27 1386.95 
  L1232.74 1386.95 L1230.21 1386.95 L1227.69 1386.95 L1225.16 1386.95 L1222.63 1386.95 L1220.1 1386.95 L1217.57 1386.95 L1215.04 1386.95 L1212.52 1386.95 L1209.99 1386.95 
  L1207.46 1386.95 L1204.93 1386.95 L1202.4 1386.95 L1199.88 1386.95 L1197.35 1386.95 L1194.82 1386.95 L1192.29 1386.95 L1189.76 1386.95 L1187.23 1386.95 L1184.71 1386.95 
  L1182.18 1386.95 L1179.65 1386.95 L1177.12 1386.95 L1174.59 1386.95 L1172.06 1386.95 L1169.54 1386.95 L1167.01 1386.95 L1164.48 1386.95 L1161.95 1386.95 L1159.42 1386.95 
  L1156.9 1386.95 L1154.37 1386.95 L1151.84 1386.95 L1149.31 1386.95 L1146.78 1386.95 L1144.25 1386.95 L1141.73 1386.95 L1139.2 1386.95 L1136.67 1386.95 L1134.14 1386.95 
  L1131.61 1386.95 L1129.08 1386.95 L1126.56 1386.95 L1124.03 1386.95 L1121.5 1386.95 L1118.97 1386.95 L1116.44 1386.95 L1113.92 1386.95 L1111.39 1386.95 L1108.86 1386.95 
  L1106.33 1386.95 L1103.8 1386.95 L1101.27 1386.95 L1098.75 1386.95 L1096.22 1386.95 L1093.69 1386.95 L1091.16 1386.95 L1088.63 1386.95 L1086.1 1386.95 L1083.58 1386.95 
  L1081.05 1386.95 L1078.52 1386.95 L1075.99 1386.95 L1073.46 1386.95 L1070.93 1386.95 L1068.41 1386.95 L1065.88 1386.95 L1063.35 1386.95 L1060.82 1386.95 L1058.29 1386.95 
  L1055.77 1386.95 L1053.24 1386.95 L1050.71 1386.95 L1048.18 1386.95 L1045.65 1386.95 L1043.12 1386.95 L1040.6 1386.95 L1038.07 1386.95 L1035.54 1386.95 L1033.01 1386.95 
  L1030.48 1386.95 L1027.95 1386.95 L1025.43 1386.95 L1022.9 1386.95 L1020.37 1386.95 L1017.84 1386.95 L1015.31 1386.95 L1012.79 1386.95 L1010.26 1386.95 L1007.73 1386.95 
  L1005.2 1386.95 L1002.67 1386.95 L1000.14 1386.95 L997.616 1386.95 L995.087 1386.95 L992.559 1386.95 L990.031 1386.95 L987.503 1386.95 L984.975 1386.95 L982.446 1386.95 
  L979.918 1386.95 L977.39 1386.95 L974.862 1386.95 L972.333 1386.95 L969.805 1386.95 L967.277 1386.95 L964.749 1386.95 L962.22 1386.95 L959.692 1386.95 L957.164 1386.95 
  L954.636 1386.95 L952.107 1386.95 L949.579 1386.95 L947.051 1386.95 L944.523 1386.95 L941.994 1386.95 L939.466 1386.95 L936.938 1386.95 L934.41 1386.95 L931.881 1386.95 
  L929.353 1386.95 L926.825 1386.95 L924.297 1386.95 L921.768 1386.95 L919.24 1386.95 L916.712 1386.95 L914.184 1386.95 L911.655 1386.95 L909.127 1386.95 L906.599 1386.95 
  L904.071 1386.95 L901.542 1386.95 L899.014 1386.95 L896.486 1386.95 L893.958 1386.95 L891.429 1386.95 L888.901 1386.95 L886.373 1386.95 L883.845 1386.95 L881.316 1386.95 
  L878.788 1386.95 L876.26 1386.95 L873.732 1386.95 L871.203 1386.95 L868.675 1386.95 L866.147 1386.95 L863.619 1386.95 L861.09 1386.95 L858.562 1386.95 L856.034 1386.95 
  L853.506 1386.95 L850.977 1386.95 L848.449 1386.95 L845.921 1386.95 L843.393 1386.95 L840.864 1386.95 L838.336 1386.95 L835.808 1386.95 L833.28 1386.95 L830.751 1386.95 
  L828.223 1386.95 L825.695 1386.95 L823.167 1386.95 L820.638 1386.95 L818.11 1386.95 L815.582 1386.95 L813.054 1386.95 L810.525 1386.95 L807.997 1386.95 L805.469 1386.95 
  L802.941 1386.95 L800.413 1386.95 L797.884 1386.95 L795.356 1386.95 L792.828 1386.95 L790.3 1386.95 L787.771 1386.95 L785.243 1386.95 L782.715 1386.95 L780.187 1386.95 
  L777.658 1386.95 L775.13 1386.95 L772.602 1386.95 L770.074 1386.95 L767.545 1386.95 L765.017 1386.95 L762.489 1386.95 L759.961 1386.95 L757.432 1386.95 L754.904 1386.95 
  L752.376 1386.95 L749.848 1386.95 L747.319 1386.95 L744.791 1386.95 L742.263 1386.95 L739.735 1386.95 L737.206 1386.95 L734.678 1386.95 L732.15 1386.95 L729.622 1386.95 
  L727.093 1386.95 L724.565 1386.95 L722.037 1386.95 L719.509 1386.95 L716.98 1386.95 L714.452 1386.95 L711.924 1386.95 L709.396 1386.95 L706.867 1386.95 L704.339 1386.95 
  L701.811 1386.95 L699.283 1386.95 L696.754 1386.95 L694.226 1386.95 L691.698 1386.95 L689.17 1386.95 L686.641 1386.95 L684.113 1386.95 L681.585 1386.95 L679.057 1386.95 
  L676.528 1386.95 L674 1386.95 L671.472 1386.95 L668.944 1386.95 L666.415 1386.95 L663.887 1386.95 L661.359 1386.95 L658.831 1386.95 L656.302 1386.95 L653.774 1386.95 
  L651.246 1386.95 L648.718 1386.95 L646.189 1386.95 L643.661 1386.95 L641.133 1386.95 L638.605 1386.95 L636.076 1386.95 L633.548 1386.95 L631.02 1386.95 L628.492 1386.95 
  L625.963 1386.95 L623.435 1386.95 L620.907 1386.95 L618.379 1386.95 L615.851 1386.95 L613.322 1386.95 L610.794 1386.95 L608.266 1386.95 L605.738 1386.95 L603.209 1386.95 
  L600.681 1386.95 L598.153 1386.95 L595.625 1386.95 L593.096 1386.95 L590.568 1386.95 L588.04 1386.95 L585.512 1386.95 L582.983 1386.95 L580.455 1386.95 L577.927 1386.95 
  L575.399 1386.95 L572.87 1386.95 L570.342 1386.95 L567.814 1386.95 L565.286 1386.95 L562.757 1386.95 L560.229 1386.95 L557.701 1386.95 L555.173 1386.95 L552.644 1386.95 
  L550.116 1386.95 L547.588 1386.95 L545.06 1386.95 L542.531 1386.95 L540.003 1386.95 L537.475 1386.95 L534.947 1386.95 L532.418 1386.95 L529.89 1386.95 L527.362 1386.95 
  L524.834 1386.95 L522.305 1386.95 L519.777 1386.95 L517.249 1386.95 L514.721 1386.95 L512.192 1386.95 L509.664 1386.95 L507.136 1386.95 L504.608 1386.95 L502.079 1386.95 
  L499.551 1386.95 L497.023 1386.95 L494.495 1386.95 L491.966 1386.95 L489.438 1386.95 L486.91 1386.95 L484.382 1386.95 L481.853 1386.95 L479.325 1386.95 L476.797 1386.95 
  L474.269 1386.95 L471.74 1386.95 L469.212 1386.95 L466.684 1386.95 L464.156 1386.95 L461.627 1386.95 L459.099 1386.95 L456.571 1386.95 L454.043 1386.95 L451.514 1386.95 
  L448.986 1386.95 L446.458 1386.95 L443.93 1386.95 L441.402 1386.95 L438.873 1386.95 L436.345 1386.95 L433.817 1386.95 L431.289 1386.95 L428.76 1386.95 L426.232 1386.95 
  L423.704 1386.95 L421.176 1386.95 L418.647 1386.95 L416.119 1386.95 L413.591 1386.95 L411.063 1386.95 L408.534 1386.95 L406.006 1386.95 L403.478 1386.95 L400.95 1386.95 
  L398.421 1386.95 L395.893 1386.95 L393.365 1386.95 L390.837 1386.95 L388.308 1386.95 L385.78 1386.95 L383.252 1386.95 L380.724 1386.95 L378.195 1386.95 L375.667 1386.95 
  L373.139 1386.95 L370.611 1386.95 L368.082 1386.95 L365.554 1386.95 L363.026 1386.95 L360.498 1386.95 L357.969 1386.95 L355.441 1386.95 L352.913 1386.95 L350.385 1386.95 
  L347.856 1386.95 L345.328 1386.95 L342.8 1386.95 L340.272 1386.95 L337.743 1386.95 L335.215 1386.95 L332.687 1386.95 L330.159 1386.95 L327.63 1386.95 L325.102 1386.95 
  L322.574 1386.95 L320.046 1386.95 L317.517 1386.95 L314.989 1386.95 L312.461 1386.95 L309.933 1386.95 L307.404 1386.95 L304.876 1386.95 L302.348 1386.95 L299.82 1386.95 
  L297.291 1386.95 L294.763 1386.95 L292.235 1386.95 L289.707 1386.95 L287.178 1386.95 L284.65 1386.95 L282.122 1386.95 L279.594 1386.95 L277.065 1386.95 L274.537 1386.95 
  L272.009 1386.95 L269.481 1386.95  Z
  " fill="#339f2c" fill-rule="evenodd" fill-opacity="0.5"/>
<polyline clip-path="url(#clip692)" style="stroke:#339f2c; stroke-linecap:round; stroke-linejoin:round; stroke-width:16; stroke-opacity:1; fill:none" points="
  269.481,1386.51 272.009,1386.49 274.537,1386.47 277.065,1386.46 279.594,1386.44 282.122,1386.42 284.65,1386.39 287.178,1386.37 289.707,1386.35 292.235,1386.32 
  294.763,1386.3 297.291,1386.27 299.82,1386.25 302.348,1386.22 304.876,1386.19 307.404,1386.16 309.933,1386.13 312.461,1386.1 314.989,1386.07 317.517,1386.03 
  320.046,1386 322.574,1385.96 325.102,1385.92 327.63,1385.88 330.159,1385.84 332.687,1385.8 335.215,1385.75 337.743,1385.71 340.272,1385.66 342.8,1385.61 
  345.328,1385.56 347.856,1385.51 350.385,1385.46 352.913,1385.4 355.441,1385.34 357.969,1385.28 360.498,1385.22 363.026,1385.16 365.554,1385.09 368.082,1385.02 
  370.611,1384.95 373.139,1384.88 375.667,1384.8 378.195,1384.73 380.724,1384.65 383.252,1384.56 385.78,1384.48 388.308,1384.39 390.837,1384.3 393.365,1384.2 
  395.893,1384.1 398.421,1384 400.95,1383.9 403.478,1383.79 406.006,1383.68 408.534,1383.56 411.063,1383.44 413.591,1383.32 416.119,1383.19 418.647,1383.06 
  421.176,1382.93 423.704,1382.79 426.232,1382.65 428.76,1382.5 431.289,1382.35 433.817,1382.19 436.345,1382.03 438.873,1381.86 441.402,1381.69 443.93,1381.51 
  446.458,1381.33 448.986,1381.14 451.514,1380.95 454.043,1380.75 456.571,1380.54 459.099,1380.33 461.627,1380.11 464.156,1379.89 466.684,1379.66 469.212,1379.42 
  471.74,1379.17 474.269,1378.92 476.797,1378.66 479.325,1378.4 481.853,1378.12 484.382,1377.84 486.91,1377.55 489.438,1377.25 491.966,1376.94 494.495,1376.62 
  497.023,1376.3 499.551,1375.96 502.079,1375.62 504.608,1375.26 507.136,1374.9 509.664,1374.53 512.192,1374.14 514.721,1373.75 517.249,1373.34 519.777,1372.93 
  522.305,1372.5 524.834,1372.06 527.362,1371.61 529.89,1371.14 532.418,1370.67 534.947,1370.18 537.475,1369.68 540.003,1369.17 542.531,1368.64 545.06,1368.1 
  547.588,1367.54 550.116,1366.97 552.644,1366.39 555.173,1365.79 557.701,1365.17 560.229,1364.54 562.757,1363.89 565.286,1363.23 567.814,1362.55 570.342,1361.85 
  572.87,1361.14 575.399,1360.41 577.927,1359.66 580.455,1358.89 582.983,1358.11 585.512,1357.3 588.04,1356.47 590.568,1355.63 593.096,1354.76 595.625,1353.88 
  598.153,1352.97 600.681,1352.04 603.209,1351.09 605.738,1350.12 608.266,1349.13 610.794,1348.11 613.322,1347.07 615.851,1346 618.379,1344.91 620.907,1343.8 
  623.435,1342.66 625.963,1341.5 628.492,1340.31 631.02,1339.09 633.548,1337.85 636.076,1336.58 638.605,1335.28 641.133,1333.95 643.661,1332.6 646.189,1331.21 
  648.718,1329.8 651.246,1328.36 653.774,1326.88 656.302,1325.38 658.831,1323.84 661.359,1322.27 663.887,1320.67 666.415,1319.04 668.944,1317.37 671.472,1315.67 
  674,1313.93 676.528,1312.16 679.057,1310.36 681.585,1308.52 684.113,1306.64 686.641,1304.73 689.17,1302.78 691.698,1300.79 694.226,1298.76 696.754,1296.7 
  699.283,1294.59 701.811,1292.45 704.339,1290.26 706.867,1288.04 709.396,1285.77 711.924,1283.47 714.452,1281.12 716.98,1278.72 719.509,1276.29 722.037,1273.81 
  724.565,1271.29 727.093,1268.72 729.622,1266.11 732.15,1263.45 734.678,1260.75 737.206,1258 739.735,1255.21 742.263,1252.36 744.791,1249.47 747.319,1246.53 
  749.848,1243.55 752.376,1240.51 754.904,1237.43 757.432,1234.29 759.961,1231.11 762.489,1227.87 765.017,1224.58 767.545,1221.24 770.074,1217.86 772.602,1214.41 
  775.13,1210.92 777.658,1207.37 780.187,1203.77 782.715,1200.12 785.243,1196.41 787.771,1192.65 790.3,1188.83 792.828,1184.96 795.356,1181.04 797.884,1177.06 
  800.413,1173.02 802.941,1168.93 805.469,1164.78 807.997,1160.57 810.525,1156.31 813.054,1151.99 815.582,1147.62 818.11,1143.18 820.638,1138.7 823.167,1134.15 
  825.695,1129.54 828.223,1124.88 830.751,1120.16 833.28,1115.38 835.808,1110.55 838.336,1105.66 840.864,1100.7 843.393,1095.69 845.921,1090.63 848.449,1085.5 
  850.977,1080.32 853.506,1075.07 856.034,1069.78 858.562,1064.42 861.09,1059 863.619,1053.53 866.147,1048 868.675,1042.41 871.203,1036.77 873.732,1031.07 
  876.26,1025.31 878.788,1019.49 881.316,1013.62 883.845,1007.7 886.373,1001.72 888.901,995.679 891.429,989.587 893.958,983.44 896.486,977.239 899.014,970.985 
  901.542,964.678 904.071,958.317 906.599,951.904 909.127,945.44 911.655,938.924 914.184,932.358 916.712,925.741 919.24,919.075 921.768,912.361 924.297,905.597 
  926.825,898.787 929.353,891.929 931.881,885.025 934.41,878.076 936.938,871.083 939.466,864.045 941.994,856.965 944.523,849.842 947.051,842.678 949.579,835.473 
  952.107,828.23 954.636,820.947 957.164,813.627 959.692,806.27 962.22,798.878 964.749,791.451 967.277,783.991 969.805,776.498 972.333,768.974 974.862,761.42 
  977.39,753.837 979.918,746.226 982.446,738.588 984.975,730.925 987.503,723.238 990.031,715.528 992.559,707.796 995.087,700.043 997.616,692.272 1000.14,684.483 
  1002.67,676.678 1005.2,668.858 1007.73,661.024 1010.26,653.178 1012.79,645.322 1015.31,637.456 1017.84,629.583 1020.37,621.703 1022.9,613.819 1025.43,605.932 
  1027.95,598.043 1030.48,590.155 1033.01,582.267 1035.54,574.383 1038.07,566.504 1040.6,558.631 1043.12,550.767 1045.65,542.912 1048.18,535.068 1050.71,527.238 
  1053.24,519.422 1055.77,511.623 1058.29,503.842 1060.82,496.081 1063.35,488.341 1065.88,480.625 1068.41,472.935 1070.93,465.271 1073.46,457.635 1075.99,450.03 
  1078.52,442.458 1081.05,434.919 1083.58,427.416 1086.1,419.951 1088.63,412.525 1091.16,405.14 1093.69,397.799 1096.22,390.502 1098.75,383.251 1101.27,376.049 
  1103.8,368.897 1106.33,361.797 1108.86,354.751 1111.39,347.76 1113.92,340.826 1116.44,333.951 1118.97,327.138 1121.5,320.386 1124.03,313.7 1126.56,307.079 
  1129.08,300.526 1131.61,294.042 1134.14,287.63 1136.67,281.291 1139.2,275.026 1141.73,268.838 1144.25,262.727 1146.78,256.697 1149.31,250.747 1151.84,244.881 
  1154.37,239.099 1156.9,233.403 1159.42,227.795 1161.95,222.276 1164.48,216.847 1167.01,211.511 1169.54,206.269 1172.06,201.122 1174.59,196.071 1177.12,191.119 
  1179.65,186.266 1182.18,181.514 1184.71,176.864 1187.23,172.318 1189.76,167.876 1192.29,163.541 1194.82,159.313 1197.35,155.193 1199.88,151.183 1202.4,147.285 
  1204.93,143.498 1207.46,139.824 1209.99,136.265 1212.52,132.821 1215.04,129.493 1217.57,126.282 1220.1,123.19 1222.63,120.217 1225.16,117.363 1227.69,114.631 
  1230.21,112.02 1232.74,109.531 1235.27,107.166 1237.8,104.924 1240.33,102.807 1242.86,100.815 1245.38,98.949 1247.91,97.209 1250.44,95.5959 1252.97,94.11 
  1255.5,92.7518 1258.03,91.5217 1260.55,90.4201 1263.08,89.4474 1265.61,88.6037 1268.14,87.8894 1270.67,87.3047 1273.19,86.8498 1275.72,86.5247 1278.25,86.3296 
  1280.78,86.2646 1283.31,86.3296 1285.84,86.5247 1288.36,86.8498 1290.89,87.3047 1293.42,87.8894 1295.95,88.6037 1298.48,89.4474 1301.01,90.4201 1303.53,91.5217 
  1306.06,92.7518 1308.59,94.11 1311.12,95.5959 1313.65,97.209 1316.17,98.949 1318.7,100.815 1321.23,102.807 1323.76,104.924 1326.29,107.166 1328.82,109.531 
  1331.34,112.02 1333.87,114.631 1336.4,117.363 1338.93,120.217 1341.46,123.19 1343.99,126.282 1346.51,129.493 1349.04,132.821 1351.57,136.265 1354.1,139.824 
  1356.63,143.498 1359.16,147.285 1361.68,151.183 1364.21,155.193 1366.74,159.313 1369.27,163.541 1371.8,167.876 1374.32,172.318 1376.85,176.864 1379.38,181.514 
  1381.91,186.266 1384.44,191.119 1386.97,196.071 1389.49,201.122 1392.02,206.269 1394.55,211.511 1397.08,216.847 1399.61,222.276 1402.14,227.795 1404.66,233.403 
  1407.19,239.099 1409.72,244.881 1412.25,250.747 1414.78,256.697 1417.3,262.727 1419.83,268.838 1422.36,275.026 1424.89,281.291 1427.42,287.63 1429.95,294.042 
  1432.47,300.526 1435,307.079 1437.53,313.7 1440.06,320.386 1442.59,327.138 1445.12,333.951 1447.64,340.826 1450.17,347.76 1452.7,354.751 1455.23,361.797 
  1457.76,368.897 1460.28,376.049 1462.81,383.251 1465.34,390.502 1467.87,397.799 1470.4,405.14 1472.93,412.525 1475.45,419.951 1477.98,427.416 1480.51,434.919 
  1483.04,442.458 1485.57,450.03 1488.1,457.635 1490.62,465.271 1493.15,472.935 1495.68,480.625 1498.21,488.341 1500.74,496.081 1503.27,503.842 1505.79,511.623 
  1508.32,519.422 1510.85,527.238 1513.38,535.068 1515.91,542.912 1518.43,550.767 1520.96,558.631 1523.49,566.504 1526.02,574.383 1528.55,582.267 1531.08,590.155 
  1533.6,598.043 1536.13,605.932 1538.66,613.819 1541.19,621.703 1543.72,629.583 1546.25,637.456 1548.77,645.322 1551.3,653.178 1553.83,661.024 1556.36,668.858 
  1558.89,676.678 1561.41,684.483 1563.94,692.272 1566.47,700.043 1569,707.796 1571.53,715.528 1574.06,723.238 1576.58,730.925 1579.11,738.588 1581.64,746.226 
  1584.17,753.837 1586.7,761.42 1589.23,768.974 1591.75,776.498 1594.28,783.991 1596.81,791.451 1599.34,798.878 1601.87,806.27 1604.39,813.627 1606.92,820.947 
  1609.45,828.23 1611.98,835.473 1614.51,842.678 1617.04,849.842 1619.56,856.965 1622.09,864.045 1624.62,871.083 1627.15,878.076 1629.68,885.025 1632.21,891.929 
  1634.73,898.787 1637.26,905.597 1639.79,912.361 1642.32,919.075 1644.85,925.741 1647.38,932.358 1649.9,938.924 1652.43,945.44 1654.96,951.904 1657.49,958.317 
  1660.02,964.678 1662.54,970.985 1665.07,977.239 1667.6,983.44 1670.13,989.587 1672.66,995.679 1675.19,1001.72 1677.71,1007.7 1680.24,1013.62 1682.77,1019.49 
  1685.3,1025.31 
  "/>
<polyline clip-path="url(#clip692)" style="stroke:#339f2c; stroke-linecap:round; stroke-linejoin:round; stroke-width:16; stroke-opacity:1; fill:none" points="
  269.481,1386.51 272.009,1386.49 274.537,1386.47 277.065,1386.46 279.594,1386.44 282.122,1386.42 284.65,1386.39 287.178,1386.37 289.707,1386.35 292.235,1386.32 
  294.763,1386.3 297.291,1386.27 299.82,1386.25 302.348,1386.22 304.876,1386.19 307.404,1386.16 309.933,1386.13 312.461,1386.1 314.989,1386.07 317.517,1386.03 
  320.046,1386 322.574,1385.96 325.102,1385.92 327.63,1385.88 330.159,1385.84 332.687,1385.8 335.215,1385.75 337.743,1385.71 340.272,1385.66 342.8,1385.61 
  345.328,1385.56 347.856,1385.51 350.385,1385.46 352.913,1385.4 355.441,1385.34 357.969,1385.28 360.498,1385.22 363.026,1385.16 365.554,1385.09 368.082,1385.02 
  370.611,1384.95 373.139,1384.88 375.667,1384.8 378.195,1384.73 380.724,1384.65 383.252,1384.56 385.78,1384.48 388.308,1384.39 390.837,1384.3 393.365,1384.2 
  395.893,1384.1 398.421,1384 400.95,1383.9 403.478,1383.79 406.006,1383.68 408.534,1383.56 411.063,1383.44 413.591,1383.32 416.119,1383.19 418.647,1383.06 
  421.176,1382.93 423.704,1382.79 426.232,1382.65 428.76,1382.5 431.289,1382.35 433.817,1382.19 436.345,1382.03 438.873,1381.86 441.402,1381.69 443.93,1381.51 
  446.458,1381.33 448.986,1381.14 451.514,1380.95 454.043,1380.75 456.571,1380.54 459.099,1380.33 461.627,1380.11 464.156,1379.89 466.684,1379.66 469.212,1379.42 
  471.74,1379.17 474.269,1378.92 476.797,1378.66 479.325,1378.4 481.853,1378.12 484.382,1377.84 486.91,1377.55 489.438,1377.25 491.966,1376.94 494.495,1376.62 
  497.023,1376.3 499.551,1375.96 502.079,1375.62 504.608,1375.26 507.136,1374.9 509.664,1374.53 512.192,1374.14 514.721,1373.75 517.249,1373.34 519.777,1372.93 
  522.305,1372.5 524.834,1372.06 527.362,1371.61 529.89,1371.14 532.418,1370.67 534.947,1370.18 537.475,1369.68 540.003,1369.17 542.531,1368.64 545.06,1368.1 
  547.588,1367.54 550.116,1366.97 552.644,1366.39 555.173,1365.79 557.701,1365.17 560.229,1364.54 562.757,1363.89 565.286,1363.23 567.814,1362.55 570.342,1361.85 
  572.87,1361.14 575.399,1360.41 577.927,1359.66 580.455,1358.89 582.983,1358.11 585.512,1357.3 588.04,1356.47 590.568,1355.63 593.096,1354.76 595.625,1353.88 
  598.153,1352.97 600.681,1352.04 603.209,1351.09 605.738,1350.12 608.266,1349.13 610.794,1348.11 613.322,1347.07 615.851,1346 618.379,1344.91 620.907,1343.8 
  623.435,1342.66 625.963,1341.5 628.492,1340.31 631.02,1339.09 633.548,1337.85 636.076,1336.58 638.605,1335.28 641.133,1333.95 643.661,1332.6 646.189,1331.21 
  648.718,1329.8 651.246,1328.36 653.774,1326.88 656.302,1325.38 658.831,1323.84 661.359,1322.27 663.887,1320.67 666.415,1319.04 668.944,1317.37 671.472,1315.67 
  674,1313.93 676.528,1312.16 679.057,1310.36 681.585,1308.52 684.113,1306.64 686.641,1304.73 689.17,1302.78 691.698,1300.79 694.226,1298.76 696.754,1296.7 
  699.283,1294.59 701.811,1292.45 704.339,1290.26 706.867,1288.04 709.396,1285.77 711.924,1283.47 714.452,1281.12 716.98,1278.72 719.509,1276.29 722.037,1273.81 
  724.565,1271.29 727.093,1268.72 729.622,1266.11 732.15,1263.45 734.678,1260.75 737.206,1258 739.735,1255.21 742.263,1252.36 744.791,1249.47 747.319,1246.53 
  749.848,1243.55 752.376,1240.51 754.904,1237.43 757.432,1234.29 759.961,1231.11 762.489,1227.87 765.017,1224.58 767.545,1221.24 770.074,1217.86 772.602,1214.41 
  775.13,1210.92 777.658,1207.37 780.187,1203.77 782.715,1200.12 785.243,1196.41 787.771,1192.65 790.3,1188.83 792.828,1184.96 795.356,1181.04 797.884,1177.06 
  800.413,1173.02 802.941,1168.93 805.469,1164.78 807.997,1160.57 810.525,1156.31 813.054,1151.99 815.582,1147.62 818.11,1143.18 820.638,1138.7 823.167,1134.15 
  825.695,1129.54 828.223,1124.88 830.751,1120.16 833.28,1115.38 835.808,1110.55 838.336,1105.66 840.864,1100.7 843.393,1095.69 845.921,1090.63 848.449,1085.5 
  850.977,1080.32 853.506,1075.07 856.034,1069.78 858.562,1064.42 861.09,1059 863.619,1053.53 866.147,1048 868.675,1042.41 871.203,1036.77 873.732,1031.07 
  876.26,1025.31 878.788,1019.49 881.316,1013.62 883.845,1007.7 886.373,1001.72 888.901,995.679 891.429,989.587 893.958,983.44 896.486,977.239 899.014,970.985 
  901.542,964.678 904.071,958.317 906.599,951.904 909.127,945.44 911.655,938.924 914.184,932.358 916.712,925.741 919.24,919.075 921.768,912.361 924.297,905.597 
  926.825,898.787 929.353,891.929 931.881,885.025 934.41,878.076 936.938,871.083 939.466,864.045 941.994,856.965 944.523,849.842 947.051,842.678 949.579,835.473 
  952.107,828.23 954.636,820.947 957.164,813.627 959.692,806.27 962.22,798.878 964.749,791.451 967.277,783.991 969.805,776.498 972.333,768.974 974.862,761.42 
  977.39,753.837 979.918,746.226 982.446,738.588 984.975,730.925 987.503,723.238 990.031,715.528 992.559,707.796 995.087,700.043 997.616,692.272 1000.14,684.483 
  1002.67,676.678 1005.2,668.858 1007.73,661.024 1010.26,653.178 1012.79,645.322 1015.31,637.456 1017.84,629.583 1020.37,621.703 1022.9,613.819 1025.43,605.932 
  1027.95,598.043 1030.48,590.155 1033.01,582.267 1035.54,574.383 1038.07,566.504 1040.6,558.631 1043.12,550.767 1045.65,542.912 1048.18,535.068 1050.71,527.238 
  1053.24,519.422 1055.77,511.623 1058.29,503.842 1060.82,496.081 1063.35,488.341 1065.88,480.625 1068.41,472.935 1070.93,465.271 1073.46,457.635 1075.99,450.03 
  1078.52,442.458 1081.05,434.919 1083.58,427.416 1086.1,419.951 1088.63,412.525 1091.16,405.14 1093.69,397.799 1096.22,390.502 1098.75,383.251 1101.27,376.049 
  1103.8,368.897 1106.33,361.797 1108.86,354.751 1111.39,347.76 1113.92,340.826 1116.44,333.951 1118.97,327.138 1121.5,320.386 1124.03,313.7 1126.56,307.079 
  1129.08,300.526 1131.61,294.042 1134.14,287.63 1136.67,281.291 1139.2,275.026 1141.73,268.838 1144.25,262.727 1146.78,256.697 1149.31,250.747 1151.84,244.881 
  1154.37,239.099 1156.9,233.403 1159.42,227.795 1161.95,222.276 1164.48,216.847 1167.01,211.511 1169.54,206.269 1172.06,201.122 1174.59,196.071 1177.12,191.119 
  1179.65,186.266 1182.18,181.514 1184.71,176.864 1187.23,172.318 1189.76,167.876 1192.29,163.541 1194.82,159.313 1197.35,155.193 1199.88,151.183 1202.4,147.285 
  1204.93,143.498 1207.46,139.824 1209.99,136.265 1212.52,132.821 1215.04,129.493 1217.57,126.282 1220.1,123.19 1222.63,120.217 1225.16,117.363 1227.69,114.631 
  1230.21,112.02 1232.74,109.531 1235.27,107.166 1237.8,104.924 1240.33,102.807 1242.86,100.815 1245.38,98.949 1247.91,97.209 1250.44,95.5959 1252.97,94.11 
  1255.5,92.7518 1258.03,91.5217 1260.55,90.4201 1263.08,89.4474 1265.61,88.6037 1268.14,87.8894 1270.67,87.3047 1273.19,86.8498 1275.72,86.5247 1278.25,86.3296 
  1280.78,86.2646 1283.31,86.3296 1285.84,86.5247 1288.36,86.8498 1290.89,87.3047 1293.42,87.8894 1295.95,88.6037 1298.48,89.4474 1301.01,90.4201 1303.53,91.5217 
  1306.06,92.7518 1308.59,94.11 1311.12,95.5959 1313.65,97.209 1316.17,98.949 1318.7,100.815 1321.23,102.807 1323.76,104.924 1326.29,107.166 1328.82,109.531 
  1331.34,112.02 1333.87,114.631 1336.4,117.363 1338.93,120.217 1341.46,123.19 1343.99,126.282 1346.51,129.493 1349.04,132.821 1351.57,136.265 1354.1,139.824 
  1356.63,143.498 1359.16,147.285 1361.68,151.183 1364.21,155.193 1366.74,159.313 1369.27,163.541 1371.8,167.876 1374.32,172.318 1376.85,176.864 1379.38,181.514 
  1381.91,186.266 1384.44,191.119 1386.97,196.071 1389.49,201.122 1392.02,206.269 1394.55,211.511 1397.08,216.847 1399.61,222.276 1402.14,227.795 1404.66,233.403 
  1407.19,239.099 1409.72,244.881 1412.25,250.747 1414.78,256.697 1417.3,262.727 1419.83,268.838 1422.36,275.026 1424.89,281.291 1427.42,287.63 1429.95,294.042 
  1432.47,300.526 1435,307.079 1437.53,313.7 1440.06,320.386 1442.59,327.138 1445.12,333.951 1447.64,340.826 1450.17,347.76 1452.7,354.751 1455.23,361.797 
  1457.76,368.897 1460.28,376.049 1462.81,383.251 1465.34,390.502 1467.87,397.799 1470.4,405.14 1472.93,412.525 1475.45,419.951 1477.98,427.416 1480.51,434.919 
  1483.04,442.458 1485.57,450.03 1488.1,457.635 1490.62,465.271 1493.15,472.935 1495.68,480.625 1498.21,488.341 1500.74,496.081 1503.27,503.842 1505.79,511.623 
  1508.32,519.422 1510.85,527.238 1513.38,535.068 1515.91,542.912 1518.43,550.767 1520.96,558.631 1523.49,566.504 1526.02,574.383 1528.55,582.267 1531.08,590.155 
  1533.6,598.043 1536.13,605.932 1538.66,613.819 1541.19,621.703 1543.72,629.583 1546.25,637.456 1548.77,645.322 1551.3,653.178 1553.83,661.024 1556.36,668.858 
  1558.89,676.678 1561.41,684.483 1563.94,692.272 1566.47,700.043 1569,707.796 1571.53,715.528 1574.06,723.238 1576.58,730.925 1579.11,738.588 1581.64,746.226 
  1584.17,753.837 1586.7,761.42 1589.23,768.974 1591.75,776.498 1594.28,783.991 1596.81,791.451 1599.34,798.878 1601.87,806.27 1604.39,813.627 1606.92,820.947 
  1609.45,828.23 1611.98,835.473 1614.51,842.678 1617.04,849.842 1619.56,856.965 1622.09,864.045 1624.62,871.083 1627.15,878.076 1629.68,885.025 1632.21,891.929 
  1634.73,898.787 1637.26,905.597 1639.79,912.361 1642.32,919.075 1644.85,925.741 1647.38,932.358 1649.9,938.924 1652.43,945.44 1654.96,951.904 1657.49,958.317 
  1660.02,964.678 1662.54,970.985 1665.07,977.239 1667.6,983.44 1670.13,989.587 1672.66,995.679 1675.19,1001.72 1677.71,1007.7 1680.24,1013.62 1682.77,1019.49 
  1685.3,1025.31 1687.83,1031.07 1690.36,1036.77 1692.88,1042.41 1695.41,1048 1697.94,1053.53 1700.47,1059 1703,1064.42 1705.52,1069.78 1708.05,1075.07 
  1710.58,1080.32 1713.11,1085.5 1715.64,1090.63 1718.17,1095.69 1720.69,1100.7 1723.22,1105.66 1725.75,1110.55 1728.28,1115.38 1730.81,1120.16 1733.34,1124.88 
  1735.86,1129.54 1738.39,1134.15 1740.92,1138.7 1743.45,1143.18 1745.98,1147.62 1748.5,1151.99 1751.03,1156.31 1753.56,1160.57 1756.09,1164.78 1758.62,1168.93 
  1761.15,1173.02 1763.67,1177.06 1766.2,1181.04 1768.73,1184.96 1771.26,1188.83 1773.79,1192.65 1776.32,1196.41 1778.84,1200.12 1781.37,1203.77 1783.9,1207.37 
  1786.43,1210.92 1788.96,1214.41 1791.49,1217.86 1794.01,1221.24 1796.54,1224.58 1799.07,1227.87 1801.6,1231.11 1804.13,1234.29 1806.65,1237.43 1809.18,1240.51 
  1811.71,1243.55 1814.24,1246.53 1816.77,1249.47 1819.3,1252.36 1821.82,1255.21 1824.35,1258 1826.88,1260.75 1829.41,1263.45 1831.94,1266.11 1834.47,1268.72 
  1836.99,1271.29 1839.52,1273.81 1842.05,1276.29 1844.58,1278.72 1847.11,1281.12 1849.63,1283.47 1852.16,1285.77 1854.69,1288.04 1857.22,1290.26 1859.75,1292.45 
  1862.28,1294.59 1864.8,1296.7 1867.33,1298.76 1869.86,1300.79 1872.39,1302.78 1874.92,1304.73 1877.45,1306.64 1879.97,1308.52 1882.5,1310.36 1885.03,1312.16 
  1887.56,1313.93 1890.09,1315.67 1892.62,1317.37 1895.14,1319.04 1897.67,1320.67 1900.2,1322.27 1902.73,1323.84 1905.26,1325.38 1907.78,1326.88 1910.31,1328.36 
  1912.84,1329.8 1915.37,1331.21 1917.9,1332.6 1920.43,1333.95 1922.95,1335.28 1925.48,1336.58 1928.01,1337.85 1930.54,1339.09 1933.07,1340.31 1935.6,1341.5 
  1938.12,1342.66 1940.65,1343.8 1943.18,1344.91 1945.71,1346 1948.24,1347.07 1950.76,1348.11 1953.29,1349.13 1955.82,1350.12 1958.35,1351.09 1960.88,1352.04 
  1963.41,1352.97 1965.93,1353.88 1968.46,1354.76 1970.99,1355.63 1973.52,1356.47 1976.05,1357.3 1978.58,1358.11 1981.1,1358.89 1983.63,1359.66 1986.16,1360.41 
  1988.69,1361.14 1991.22,1361.85 1993.74,1362.55 1996.27,1363.23 1998.8,1363.89 2001.33,1364.54 2003.86,1365.17 2006.39,1365.79 2008.91,1366.39 2011.44,1366.97 
  2013.97,1367.54 2016.5,1368.1 2019.03,1368.64 2021.56,1369.17 2024.08,1369.68 2026.61,1370.18 2029.14,1370.67 2031.67,1371.14 2034.2,1371.61 2036.73,1372.06 
  2039.25,1372.5 2041.78,1372.93 2044.31,1373.34 2046.84,1373.75 2049.37,1374.14 2051.89,1374.53 2054.42,1374.9 2056.95,1375.26 2059.48,1375.62 2062.01,1375.96 
  2064.54,1376.3 2067.06,1376.62 2069.59,1376.94 2072.12,1377.25 2074.65,1377.55 2077.18,1377.84 2079.71,1378.12 2082.23,1378.4 2084.76,1378.66 2087.29,1378.92 
  2089.82,1379.17 2092.35,1379.42 2094.87,1379.66 2097.4,1379.89 2099.93,1380.11 2102.46,1380.33 2104.99,1380.54 2107.52,1380.75 2110.04,1380.95 2112.57,1381.14 
  2115.1,1381.33 2117.63,1381.51 2120.16,1381.69 2122.69,1381.86 2125.21,1382.03 2127.74,1382.19 2130.27,1382.35 2132.8,1382.5 2135.33,1382.65 2137.85,1382.79 
  2140.38,1382.93 2142.91,1383.06 2145.44,1383.19 2147.97,1383.32 2150.5,1383.44 2153.02,1383.56 2155.55,1383.68 2158.08,1383.79 2160.61,1383.9 2163.14,1384 
  2165.67,1384.1 2168.19,1384.2 2170.72,1384.3 2173.25,1384.39 2175.78,1384.48 2178.31,1384.56 2180.84,1384.65 2183.36,1384.73 2185.89,1384.8 2188.42,1384.88 
  2190.95,1384.95 2193.48,1385.02 2196,1385.09 2198.53,1385.16 2201.06,1385.22 2203.59,1385.28 2206.12,1385.34 2208.65,1385.4 2211.17,1385.46 2213.7,1385.51 
  2216.23,1385.56 2218.76,1385.61 2221.29,1385.66 2223.82,1385.71 2226.34,1385.75 2228.87,1385.8 2231.4,1385.84 2233.93,1385.88 2236.46,1385.92 2238.98,1385.96 
  2241.51,1386 2244.04,1386.03 2246.57,1386.07 2249.1,1386.1 2251.63,1386.13 2254.15,1386.16 2256.68,1386.19 2259.21,1386.22 2261.74,1386.25 2264.27,1386.27 
  2266.8,1386.3 2269.32,1386.32 2271.85,1386.35 2274.38,1386.37 2276.91,1386.39 2279.44,1386.42 2281.97,1386.44 2284.49,1386.46 2287.02,1386.47 2289.55,1386.49 
  2292.08,1386.51 
  "/>
<path clip-path="url(#clip690)" d="M1725.44 1463.59 Q1725.44 1464.33 1723.65 1467.49 Q1721.96 1470.55 1715.74 1478.24 Q1709.53 1485.94 1700.25 1494.9 Q1696.77 1498.37 1691.5 1503.22 Q1686.23 1508.07 1682.65 1511.23 L1679.06 1514.39 Q1665.36 1525.99 1653.35 1538.95 Q1654.19 1538.64 1655.67 1538.53 Q1657.14 1538.32 1658.2 1538.32 L1659.25 1538.32 Q1664.73 1538.32 1674.32 1542.01 Q1682.75 1544.75 1687.08 1544.75 Q1691.29 1544.75 1695.93 1543.27 Q1700.57 1541.8 1705.63 1537.48 Q1710.69 1533.16 1713 1526.62 Q1713.43 1525.57 1713.64 1525.25 Q1713.85 1524.83 1714.48 1524.41 Q1715.11 1523.88 1715.96 1523.88 Q1717.11 1523.88 1717.85 1524.51 Q1718.59 1525.15 1718.59 1525.99 Q1718.59 1527.89 1717.11 1531.68 Q1715.74 1535.47 1712.69 1540.22 Q1709.74 1544.96 1705.84 1549.28 Q1702.04 1553.5 1696.35 1556.45 Q1690.66 1559.3 1684.65 1559.3 Q1680.33 1559.3 1677.17 1557.19 Q1674.01 1555.18 1670.84 1551.28 Q1666.52 1546.33 1664.2 1544.75 Q1661.88 1543.06 1658.3 1543.06 Q1648.71 1543.06 1639.96 1556.45 Q1639.01 1558.35 1638.38 1558.77 Q1637.85 1559.3 1636.59 1559.3 Q1633.95 1559.19 1633.95 1557.08 Q1633.95 1556.24 1636.27 1552.55 Q1638.7 1548.76 1644.07 1542.11 Q1649.55 1535.47 1656.19 1528.83 L1675.59 1510.71 Q1697.09 1492.58 1705.63 1482.35 Q1702.04 1482.35 1700.46 1482.25 Q1698.99 1482.14 1696.03 1481.51 Q1693.08 1480.77 1688.97 1479.19 Q1679.38 1475.92 1675.38 1475.92 Q1674.32 1475.92 1673.16 1476.03 Q1672 1476.13 1669.37 1476.66 Q1666.84 1477.19 1664.73 1478.24 Q1662.62 1479.19 1660.41 1481.3 Q1658.2 1483.3 1657.04 1486.04 Q1656.72 1486.88 1656.51 1487.31 Q1656.3 1487.73 1655.67 1488.15 Q1655.14 1488.47 1654.3 1488.47 Q1653.03 1488.47 1652.29 1487.73 Q1651.66 1486.99 1651.66 1486.04 Q1651.66 1484.14 1653.56 1480.24 Q1655.46 1476.34 1658.62 1472.13 Q1661.78 1467.81 1666.94 1464.65 Q1672.11 1461.48 1677.8 1461.48 Q1681.17 1461.48 1684.02 1462.96 Q1686.97 1464.43 1688.45 1466.02 Q1690.03 1467.49 1692.66 1470.76 Q1694.88 1473.29 1695.93 1474.34 Q1696.98 1475.4 1699.09 1476.56 Q1701.3 1477.61 1703.73 1477.61 Q1707.73 1477.61 1711.42 1474.55 Q1715.11 1471.39 1719.86 1463.8 Q1721.12 1461.48 1723.12 1461.48 Q1725.44 1461.48 1725.44 1463.59 Z" fill="#000000" fill-rule="evenodd" fill-opacity="1" /></svg>
