<svg height="496pt" viewBox="0 -12 496 496" width="496pt" xmlns="http://www.w3.org/2000/svg"><path d="m472 0h-448c-13.253906 0-24 10.746094-24 24v296c0 13.253906 10.746094 24 24 24h150.519531c-5.480469 28-27.503906 112-94.519531 112-4.417969 0-8 3.582031-8 8s3.582031 8 8 8h336c4.417969 0 8-3.582031 8-8s-3.582031-8-8-8c-66.886719 0-89-84-94.511719-112h150.511719c13.253906 0 24-10.746094 24-24v-296c0-13.253906-10.746094-24-24-24zm-456 24c0-4.417969 3.582031-8 8-8h448c4.417969 0 8 3.582031 8 8v248h-464zm307.761719 379.390625c8.945312 20.839844 23.183593 38.976563 41.300781 52.609375h-234.125c18.117188-13.632812 32.355469-31.769531 41.300781-52.609375 8.667969-18.9375 14.910157-38.890625 18.585938-59.390625h114.351562c3.675781 20.5 9.917969 40.453125 18.585938 59.390625zm156.238281-83.390625c0 4.417969-3.582031 8-8 8h-448c-4.417969 0-8-3.582031-8-8v-32h464zm0 0"/><path d="m248 112c8.222656 0 16 4.800781 16 9.847656 0 4.417969 3.582031 8 8 8s8-3.582031 8-8c-1.128906-12.925781-11.128906-23.308594-24-24.925781v-8.921875c0-4.417969-3.582031-8-8-8s-8 3.582031-8 8v9.039062c-12.484375 2.238282-21.792969 12.761719-22.496094 25.425782 0 16.535156 15 23.199218 27.054688 28.558594 11.203125 4.96875 17.9375 8.417968 17.9375 14.511718 0 5.664063-6.640625 10.464844-14.496094 10.464844-8.222656 0-16-4.800781-16-9.847656 0-4.417969-3.582031-8-8-8s-8 3.582031-8 8c1.128906 12.925781 11.128906 23.308594 24 24.925781v8.921875c0 4.417969 3.582031 8 8 8s8-3.582031 8-8v-9.039062c12.484375-2.238282 21.792969-12.761719 22.496094-25.425782 0-16.933594-15.199219-23.695312-27.441406-29.128906-10.917969-4.855469-17.550782-8.214844-17.550782-13.941406 0-5.730469 6.640625-10.464844 14.496094-10.464844zm0 0"/><path d="m248 48c-53.019531 0-96 42.980469-96 96s42.980469 96 96 96 96-42.980469 96-96c-.058594-52.996094-43.003906-95.941406-96-96zm0 176c-44.183594 0-80-35.816406-80-80s35.816406-80 80-80 80 35.816406 80 80c-.046875 44.164062-35.835938 79.953125-80 80zm0 0"/></svg>