<svg height="512" viewBox="0 0 32 32" width="512" xmlns="http://www.w3.org/2000/svg"><g id="computer"><g><g><path d="m13 23h6v6h-6z" fill="#455a64"/><path d="m4 23c-1.1030273 0-2-.8974609-2-2v-16c0-1.1025391.8969727-2 2-2h24c1.1030273 0 2 .8974609 2 2v16c0 1.1025391-.8969727 2-2 2z" fill="#e0e0e0"/><path d="m4 23c-1.1030273 0-2-.8974609-2-2v-2h28v2c0 1.1025391-.8969727 2-2 2z" fill="#607d8b"/></g><g><path d="m28 2h-24c-1.6542969 0-3 1.3457031-3 3v16c0 1.6542969 1.3457031 3 3 3h8v4h-1c-.5522461 0-1 .4472656-1 1s.4477539 1 1 1h10c.5522461 0 1-.4472656 1-1s-.4477539-1-1-1h-1v-4h8c1.6542969 0 3-1.3457031 3-3v-16c0-1.6542969-1.3457031-3-3-3zm-24 2h24c.5512695 0 1 .4482422 1 1v13h-26v-13c0-.5517578.4487305-1 1-1zm14 24h-4v-4h4zm10-6h-24c-.5512695 0-1-.4482422-1-1v-1h26v1c0 .5517578-.4487305 1-1 1z"/><path d="m16 14h-2c-.5522461 0-1 .4472656-1 1s.4477539 1 1 1h1c0 .5527344.4477539 1 1 1s1-.4472656 1-1v-.1845703c1.1616211-.4140625 2-1.5136719 2-2.8154297 0-1.6542969-1.3457031-3-3-3-.5512695 0-1-.4482422-1-1s.4487305-1 1-1h2c.5522461 0 1-.4472656 1-1s-.4477539-1-1-1h-1c0-.5527344-.4477539-1-1-1s-1 .4472656-1 1v.1845703c-1.1616211.4140625-2 1.5136719-2 2.8154297 0 1.6542969 1.3457031 3 3 3 .5512695 0 1 .4482422 1 1s-.4487305 1-1 1z"/></g></g></g></svg>