<svg id="Drama" height="512" viewBox="0 0 64 64" width="512" xmlns="http://www.w3.org/2000/svg"><g><path d="m41.29 24.54c-2.91-.9-5.66-2.26-8.16-4.02-1.42-.99-3.38-.52-4.18 1.02-2.27 4.35-5.94 13.26-4.46 23.19.05.34.11.68.17 1.01-3.06-.26-13.36-1.97-19.35-13-5.02-9.26-4.58-19.36-3.9-24.47.2401-1.8 2-2.97 3.76-2.5 2.64.72 5.36 1.08 8.08 1.08 1.59 0 3.19-.12 4.77-.37l2.81-.43c4.28-.67 8.38-2.22 12.03-4.57.51-.33 1.07-.48 1.62-.48 1.12 0 2.2.62 2.72 1.72 2 4.25 5.07 12.54 4.09 21.82z" fill="#97b2ff"/><path d="m24.49 44.73c.05.34.11.68.17 1.01-3.06-.26-13.36-1.97-19.35-13-5.02-9.26-4.58-19.36-3.9-24.47.2-1.52 1.5-2.59 2.95-2.6-.65 5.22-.94 15.04 3.95 24.07 4.5 8.29 11.44 11.32 15.91 12.42.05.84.14 1.7.27 2.57z" fill="#80a1ff"/><path d="m58.1544 51.3476c-7.2502 12.1704-19.7732 11.6491-19.7732 11.6491s-11.7872-4.2613-13.887-18.271c-1.4875-9.9246 2.1864-18.8339 4.4554-23.1857.8004-1.5352 2.7636-2.0139 4.1803-1.0186 3.3816 2.376 7.2242 4.0158 11.2794 4.8136l2.6592.5231c4.0551.7978 8.2326.7357 12.2622-.1823 1.6881-.3845 3.3236.8022 3.4829 2.5261.4515 4.8871.4769 14.5241-4.6592 23.1456z" fill="#f4646f"/><path d="m50.33 59.45c-6.05 3.8-11.95 3.55-11.95 3.55s-11.79-4.26-13.89-18.27c-1.48-9.93 2.19-18.84 4.46-23.19.7-1.35 2.3-1.88 3.64-1.31-2.27 4.56-5.51 13.07-4.1 22.5 2.1 14.01 13.89 18.27 13.89 18.27s3.54.15 7.95-1.55z" fill="#ea535e"/><path d="m24.94 32.67c-.35 1.65-.6 3.4-.71 5.23-5 .73-9.7-2.39-11.05-7.15 2.97 1.91 6.62 2.78 10.38 2.2.47-.07.93-.17 1.38-.28z" fill="#f99c21"/><path d="m24.41 35.99c-.08.62-.14 1.26-.18 1.91-5 .73-9.7-2.39-11.05-7.15.65.42 1.34.79 2.06 1.11 1.71 2.47 4.99 4.14 8.76 4.14.14 0 .28 0 .41-.01z" fill="#ed9015"/><path d="m33.0631 52.2386c1.1413-3.4778 4.7212-5.6365 8.401-4.9125s6.1752 4.0778 5.9142 7.7287c-1.5727-2.0631-3.8821-3.5817-6.6239-4.1211s-5.4544-.0088-7.6913 1.3049z" fill="#ffe9e6"/><g fill="#f9d2cf"><path d="m37.7 50.77c-1.66.13-3.25.64-4.64 1.47.49-1.5 1.44-2.76 2.65-3.65.55.82 1.22 1.55 1.99 2.18z"/><path d="m47.38 55.05c-.61-.8-1.33-1.52-2.15-2.13.65-.07 1.27-.22 1.87-.42.2401.81.34 1.67.28 2.55z"/></g></g><g fill="#381f32"><path d="m25.0586 17.5239c.3081 0 .6123-.1421.8081-.4097 1.2041-1.6445 3.3628-2.2573 5.2505-1.4888l1.4712.5986c.5117.208 1.0952-.0381 1.3032-.5493.208-.5117-.0376-1.0952-.5493-1.3032l-1.4712-.5986c-2.7368-1.1143-5.8721-.2266-7.6187 2.1606-.3262.4458-.229 1.0713.2168 1.3975.1777.1304.3848.1929.5894.1929z"/><path d="m16.564 18.5566c.4473.3271 1.0718.228 1.3975-.2168.3262-.4458.229-1.0718-.2168-1.3975-2.3887-1.7466-5.6436-1.6445-7.915.2485l-1.2207 1.0161c-.4248.3535-.4824.9839-.1289 1.4082.1978.2378.4824.3604.769.3604.2256 0 .4526-.0757.6392-.2314l1.2207-1.0161c1.5659-1.3047 3.8101-1.3745 5.4551-.1714z"/><path d="m63.8091 28.1104c-.1021-1.1089-.6768-2.1191-1.5767-2.772s-2.0391-.8843-3.124-.6377c-3.918.8936-7.9043.9521-11.8472.1758l-2.6592-.5225c-.762-.15-1.5102-.3384-2.2508-.547.7455-9.2284-2.3103-17.3984-4.2468-21.514-.6689-1.4146-2.0576-2.293-3.6245-2.293-.7676 0-1.5156.2212-2.1616.6392-3.54 2.2793-7.4575 3.7676-11.6396 4.4224l-2.8149.4307c-4.0444.6396-8.3872.417-12.4355-.6885-1.1182-.2993-2.3086-.1035-3.2681.5366-.9546.6372-1.5894 1.6567-1.7412 2.7979-.7056 5.3003-1.1226 15.6069 4.0122 25.0791 5.8185 10.7142 15.5688 12.9698 19.4081 13.442 2.8268 13.0127 13.7193 17.1033 14.2022 17.2777.0957.0347.1963.0547.2983.0586.0405.002.1514.0054.3247.0054 2.106 0 13.4473-.5562 20.3486-12.1416 5.2651-8.8384 5.2651-18.6738 4.7959-23.749zm-57.6201 4.1533c-4.8648-8.9741-4.461-18.8018-3.7876-23.8618.0771-.5791.3857-1.0757.8691-1.3984.4883-.3242 1.0708-.4194 1.6362-.2686 4.3125 1.1763 8.9565 1.4175 13.2646.7334l2.8135-.4307c4.4629-.6982 8.6401-2.2856 12.418-4.7178.9941-.6445 2.3936-.228 2.8926.8262 1.8179 3.863 4.672 11.4603 4.0991 20.0403-2.3645-.8545-4.6037-2.0176-6.6894-3.4832-.9106-.6396-2.0522-.855-3.1318-.5933-1.0806.2632-1.9956.9805-2.5103 1.9678-1.2684 2.4331-2.9277 6.2014-3.9573 10.7424-.232.049-.4587.1061-.698.1418-3.3755.5225-6.8184-.208-9.6865-2.0527-.3486-.2246-.8013-.2104-1.1362.0376-.3345.2476-.4805.6758-.3667 1.0762 1.3501 4.7627 5.7378 7.9814 10.5742 7.9814.1259 0 .2529-.0093.3794-.0137-.0554 1.8114.0306 3.6843.2994 5.5977-3.8608-.5892-12.187-2.9425-17.2823-12.3247zm17.1056 4.7029c-3.2309.1802-6.2778-1.3807-8.0133-4.0061 2.6435 1.0701 5.5421 1.4186 8.3979.982-.1668.9792-.2938 1.9908-.3846 3.0241zm34.0009 13.8694c-6.4966 10.9062-17.2061 11.1763-18.7183 11.165-1.3784-.5469-11.2119-4.8662-13.0942-17.4238-.6269-4.1839-.3076-8.1856.4368-11.7271.0023-.0125.0051-.024.007-.0366.9674-4.5801 2.6456-8.3863 3.9097-10.811.252-.4839.6816-.8208 1.2095-.9492.5293-.1279 1.0645-.0264 1.5093.2866 3.5186 2.4717 7.4419 4.146 11.6611 4.9766l2.6592.5225c4.2188.8306 8.4849.7676 12.6768-.188.5327-.1206 1.0669-.0117 1.5059.3066.4399.3188.7095.7935.7598 1.3364.4468 4.834.4531 14.1895-4.5225 22.542z"/><path d="m41.6572 46.3452c-4.1274-.8135-8.2334 1.5869-9.5444 5.5815-.1299.3955-.001.8296.3228 1.0903.3228.2617.7749.2935 1.1338.084 2.1064-1.2373 4.5884-1.6587 6.9922-1.1865 2.4019.4731 4.5405 1.8032 6.0215 3.7466.1924.2524.4888.3936.7954.3936.0952 0 .1914-.0137.2861-.042.3984-.1187.6816-.4717.7114-.8867.2993-4.1938-2.5889-7.9688-6.7188-8.7808zm-.71 3.6069c-.7705-.1514-1.5479-.2261-2.3218-.2261-1.0747 0-2.1431.1445-3.1763.4282 1.4565-1.5225 3.6328-2.2783 5.8223-1.8467 2.1875.4297 3.9165 1.9526 4.688 3.9146-1.46-1.1255-3.1714-1.9077-5.0122-2.27z"/><path d="m33.2412 33.9429c1.1699 1.0566 2.6509 1.5957 4.1411 1.5957 1.1943 0 2.3945-.3462 3.4434-1.0503.4585-.3081.5811-.9292.2734-1.3877-.3081-.459-.9297-.5815-1.3877-.2734-1.5952 1.0703-3.7046.9199-5.1294-.3687l-1.1235-1.0146c-.4111-.3716-1.0439-.3374-1.4126.0718-.3701.4102-.3379 1.0425.0718 1.4126z"/><path d="m54.8892 35.6602-1.4238.5132c-1.8037.6538-3.8159-.0063-4.8867-1.6011-.3081-.459-.9297-.583-1.3872-.2729-.459.3076-.5811.9287-.2729 1.3872 1.1738 1.7495 3.1123 2.7368 5.1255 2.7368.7007 0 1.4102-.1196 2.1001-.3687l1.4238-.5137c.5195-.187.7886-.7603.6011-1.2798-.188-.52-.7637-.7881-1.2798-.6011z"/></g></svg>