<?xml version="1.0" encoding="UTF-8" standalone="no"?>
<!-- Created with Inkscape (http://www.inkscape.org/) -->

<svg
   version="1.1"
   id="svg8769"
   xml:space="preserve"
   width="682.66669"
   height="682.66669"
   viewBox="0 0 682.66669 682.66669"
   xmlns="http://www.w3.org/2000/svg"
   xmlns:svg="http://www.w3.org/2000/svg"><defs
     id="defs8773"><clipPath
       clipPathUnits="userSpaceOnUse"
       id="clipPath8785"><path
         d="M 0,512 H 512 V 0 H 0 Z"
         id="path8783" /></clipPath></defs><g
     id="g8775"
     transform="matrix(1.3333333,0,0,-1.3333333,0,682.66667)"><path
       d="M 329.554,16.569 H 182.446 v 95.248 h 147.108 z"
       style="fill:#ffbc86;fill-opacity:1;fill-rule:nonzero;stroke:none"
       id="path8777" /><g
       id="g8779"><g
         id="g8781"
         clip-path="url(#clipPath8785)"><g
           id="g8787"
           transform="translate(329.5537,111.8174)"><path
             d="m 0,0 v -51.092 c -11.803,-6.789 -24.465,-11.904 -37.659,-15.208 -9.393,-8.838 -22.01,-14.269 -35.895,-14.269 -13.884,0 -26.513,5.431 -35.894,14.269 -13.195,3.304 -25.857,8.419 -37.66,15.208 V 0 Z"
             style="fill:#f7a86c;fill-opacity:1;fill-rule:nonzero;stroke:none"
             id="path8789" /></g><g
           id="g8791"
           transform="translate(182.4458,16.5693)"><path
             d="M 0,0 V 95.248 H 147.108 V 0"
             style="fill:none;stroke:#000000;stroke-width:15;stroke-linecap:round;stroke-linejoin:round;stroke-miterlimit:10;stroke-dasharray:none;stroke-opacity:1"
             id="path8793" /></g><g
           id="g8795"
           transform="translate(436.0645,363.9883)"><path
             d="M 0,0 H 30.414 C 39.128,0 44.62,9.468 40.215,16.985 4.363,78.172 -67.07,93.994 -67.07,93.994 l 15.157,12.702 c 6.95,5.825 4.579,17.096 -4.149,19.557 -60.845,17.155 -107.027,-12.591 -124.002,-26.104 -16.976,13.513 -63.158,43.259 -124.003,26.104 -8.727,-2.461 -11.099,-13.732 -4.149,-19.557 l 15.158,-12.702 c 0,0 -71.434,-15.822 -107.286,-77.009 C -404.749,9.468 -399.257,0 -390.543,0 h 30.414 c 0,0 -65.207,-36.496 -68.429,-131.356 -0.308,-9.093 9.65,-14.852 17.347,-10.001 l 35.938,22.649 c 0,0 -37.946,-43.815 -32.923,-108.902 0.674,-8.738 10.526,-13.489 17.732,-8.5 l 15.191,10.513 4.628,-49.132 c 0.477,-5.056 4.256,-9.176 9.254,-10.076 28.109,-5.055 119.966,-14.235 181.327,65.546 61.36,-79.781 153.217,-70.601 181.326,-65.546 4.998,0.9 8.777,5.02 9.254,10.076 l 4.629,49.132 15.19,-10.513 c 7.207,-4.989 17.059,-0.238 17.732,8.5 5.023,65.087 -32.922,108.902 -32.922,108.902 l 35.937,-22.649 c 7.697,-4.851 17.655,0.908 17.347,10.001 C 65.207,-36.496 0,0 0,0"
             style="fill:#eaf6ff;fill-opacity:1;fill-rule:nonzero;stroke:none"
             id="path8797" /></g><g
           id="g8799"
           transform="translate(504.4883,232.627)"><path
             d="M 0,0 C 0.316,-9.087 -9.642,-14.847 -17.336,-9.992 L -42.141,5.636 c -5.534,90.675 -68.156,125.72 -68.156,125.72 h 30.417 c 8.713,0 14.202,9.472 9.8,16.986 -35.85,61.196 -107.287,77.016 -107.287,77.016 l 15.163,12.697 c 6.948,5.828 4.572,17.098 -4.152,19.554 -5.421,1.528 -10.728,2.682 -15.9,3.508 17.054,2.761 36.517,2.489 57.769,-3.508 8.724,-2.456 11.1,-13.726 4.152,-19.554 l -15.163,-12.697 c 0,0 71.437,-15.82 107.287,-77.016 4.402,-7.514 -1.086,-16.986 -9.8,-16.986 H -68.428 C -68.428,131.356 -3.214,94.862 0,0"
             style="fill:#d8ecfe;fill-opacity:1;fill-rule:nonzero;stroke:none"
             id="path8801" /></g><g
           id="g8803"
           transform="translate(484.1309,136.373)"><path
             d="m 0,0 c -0.668,-8.735 -10.524,-13.488 -17.732,-8.498 l -15.187,10.513 -4.628,-49.134 c -0.475,-5.047 -4.255,-9.167 -9.257,-10.071 -11.145,-2.003 -32.318,-4.664 -57.632,-2.163 6.382,0.624 11.735,1.438 15.763,2.163 5.002,0.904 8.781,5.024 9.257,10.071 l 4.628,49.134 15.186,-10.513 c 7.208,-4.99 17.065,-0.237 17.733,8.498 4.944,64.139 -31.821,107.615 -32.896,108.883 l 35.917,-22.621 c 6.676,-4.209 15.062,-0.43 16.952,6.586 C -11.135,74.517 3.214,41.609 0,0"
             style="fill:#d8ecfe;fill-opacity:1;fill-rule:nonzero;stroke:none"
             id="path8805" /></g><g
           id="g8807"
           transform="translate(72.2505,422.6631)"><path
             d="m 0,0 c -13.408,-10.715 -26.392,-24.388 -36.53,-41.688 -4.405,-7.52 1.087,-16.987 9.801,-16.987 H 3.685 c 0,0 -65.207,-36.496 -68.429,-131.356 -0.308,-9.093 9.65,-14.852 17.347,-10.001 l 35.938,22.649 c 0,0 -37.946,-43.815 -32.923,-108.901 0.674,-8.738 10.526,-13.489 17.732,-8.501 l 15.191,10.514 4.628,-49.133 c 0.477,-5.056 4.256,-9.176 9.254,-10.075 28.109,-5.057 119.966,-14.236 181.327,65.545 36.631,-47.628 84.128,-63.547 122.447,-67.571"
             style="fill:none;stroke:#000000;stroke-width:15;stroke-linecap:round;stroke-linejoin:round;stroke-miterlimit:10;stroke-dasharray:none;stroke-opacity:1"
             id="path8809" /></g><g
           id="g8811"
           transform="translate(412.416,76.3369)"><path
             d="m 0,0 c 10.486,0.572 19.075,1.798 24.91,2.847 4.998,0.899 8.778,5.019 9.254,10.075 l 4.629,49.133 15.191,-10.514 c 7.206,-4.988 17.057,-0.237 17.732,8.501 5.022,65.086 -32.923,108.901 -32.923,108.901 L 74.73,146.294 c 7.698,-4.851 17.656,0.908 17.347,10.001 -3.222,94.86 -68.429,131.356 -68.429,131.356 h 30.415 c 8.713,0 14.206,9.467 9.8,16.987 -35.851,61.185 -107.285,77.008 -107.285,77.008 l 15.157,12.702 c 6.951,5.824 4.579,17.095 -4.149,19.556 -60.845,17.156 -107.026,-12.591 -124.002,-26.102 -16.975,13.511 -63.157,43.258 -124.002,26.102 -8.728,-2.461 -11.1,-13.732 -4.149,-19.556 l 15.157,-12.702 c 0,0 -19.056,-4.222 -42.423,-16.734"
             style="fill:none;stroke:#000000;stroke-width:15;stroke-linecap:round;stroke-linejoin:round;stroke-miterlimit:10;stroke-dasharray:none;stroke-opacity:1"
             id="path8813" /></g><g
           id="g8815"
           transform="translate(256,63.7178)"><path
             d="m 0,0 v 0 c -64.093,0 -117.775,48.529 -124.222,112.297 l -7.829,77.452 C -139.955,267.931 -78.58,335.822 0,335.822 c 78.58,0 139.955,-67.891 132.052,-146.073 l -7.83,-77.452 C 117.775,48.529 64.093,0 0,0"
             style="fill:#fed1a4;fill-opacity:1;fill-rule:nonzero;stroke:none"
             id="path8817" /></g><g
           id="g8819"
           transform="translate(388.7363,267.0391)"><path
             d="m 0,0 c 0,-4.481 -0.226,-9.008 -0.69,-13.568 l -7.819,-77.458 c -6.45,-63.766 -60.134,-112.3 -124.227,-112.3 -5.036,0 -10.004,0.295 -14.892,0.883 57.338,6.846 103.383,52.665 109.313,111.417 l 7.83,77.458 c 0.464,4.56 0.69,9.087 0.69,13.568 0,67.376 -51.013,124.238 -117.833,131.673 4.888,0.543 9.856,0.826 14.892,0.826 C -58.741,132.499 0,72.31 0,0"
             style="fill:#ffbc86;fill-opacity:1;fill-rule:nonzero;stroke:none"
             id="path8821" /></g><g
           id="g8823"
           transform="translate(344.7764,365.4844)"><path
             d="m 0,0 c -23.418,21.104 -54.456,34.057 -88.776,34.057 -78.58,0 -139.955,-67.893 -132.052,-146.075 l 7.83,-77.452 c 6.446,-63.767 60.129,-112.298 124.222,-112.298 64.092,0 117.775,48.531 124.221,112.298 l 7.83,77.452 c 3.203,31.685 -4.974,61.678 -21.062,86.148"
             style="fill:none;stroke:#000000;stroke-width:15;stroke-linecap:round;stroke-linejoin:round;stroke-miterlimit:10;stroke-dasharray:none;stroke-opacity:1"
             id="path8825" /></g><g
           id="g8827"
           transform="translate(256,53.8779)"><path
             d="M 0,0 V 0 C -16.458,0 -29.799,13.342 -29.799,29.799 V 88.02 H 29.799 V 29.799 C 29.799,13.342 16.457,0 0,0"
             style="fill:#fd8087;fill-opacity:1;fill-rule:nonzero;stroke:none"
             id="path8829" /></g><path
           d="M 285.799,141.897 H 226.201 V 118.23 h 59.598 z"
           style="fill:#fd636f;fill-opacity:1;fill-rule:nonzero;stroke:none"
           id="path8831" /><g
           id="g8833"
           transform="translate(256,53.8779)"><path
             d="M 0,0 V 0 C -16.458,0 -29.799,13.342 -29.799,29.799 V 88.02 H 29.799 V 29.799 C 29.799,13.342 16.457,0 0,0 Z"
             style="fill:none;stroke:#000000;stroke-width:15;stroke-linecap:round;stroke-linejoin:round;stroke-miterlimit:10;stroke-dasharray:none;stroke-opacity:1"
             id="path8835" /></g><g
           id="g8837"
           transform="translate(320.8789,138.8818)"><path
             d="m 0,0 h -129.757 c -3.125,0 -5.659,2.533 -5.659,5.658 V 16.22 c 0,38.956 31.581,70.536 70.537,70.536 38.956,0 70.536,-31.58 70.536,-70.536 V 5.658 C 5.657,2.533 3.124,0 0,0"
             style="fill:#eaf6ff;fill-opacity:1;fill-rule:nonzero;stroke:none"
             id="path8839" /></g><g
           id="g8841"
           transform="translate(321.4629,181.4111)"><path
             d="m 0,0 c -3.135,-0.498 -6.359,-0.758 -9.641,-0.758 -2.365,0 -4.685,0.147 -6.982,0.406 -2.274,-5.487 -5.466,-10.625 -9.517,-15.128 -10.014,-11.135 -24.34,-17.529 -39.323,-17.529 -14.982,0 -29.308,6.394 -39.323,17.529 -4.051,4.503 -7.242,9.641 -9.517,15.128 -2.297,-0.259 -4.617,-0.406 -6.982,-0.406 -3.281,0 -6.507,0.26 -9.641,0.758 10.422,25.925 35.804,44.223 65.463,44.223 19.486,0 37.116,-7.899 49.881,-20.652 C -8.917,16.906 -3.575,8.894 0,0"
             style="fill:#d8ecfe;fill-opacity:1;fill-rule:nonzero;stroke:none"
             id="path8843" /></g><g
           id="g8845"
           transform="translate(256,225.6377)"><path
             d="m 0,0 c 38.956,0 70.536,-31.58 70.536,-70.536 v -10.562 c 0,-3.125 -2.533,-5.658 -5.657,-5.658 H -64.878 c -3.125,0 -5.659,2.533 -5.659,5.658 v 10.562 C -70.537,-31.58 -38.956,0 0,0"
             style="fill:none;stroke:#000000;stroke-width:15;stroke-linecap:round;stroke-linejoin:round;stroke-miterlimit:10;stroke-dasharray:none;stroke-opacity:1"
             id="path8847" /></g><g
           id="g8849"
           transform="translate(307.7705,349.5518)"><path
             d="m 0,0 c -6.858,6.18 -15.926,9.954 -25.885,9.954 -2.766,0 -5.465,-0.291 -8.065,-0.844 -11.776,-2.505 -23.865,-2.505 -35.641,0 -2.601,0.553 -5.299,0.844 -8.065,0.844 -9.959,0 -19.027,-3.774 -25.885,-9.954"
             style="fill:none;stroke:#000000;stroke-width:15;stroke-linecap:round;stroke-linejoin:round;stroke-miterlimit:10;stroke-dasharray:none;stroke-opacity:1"
             id="path8851" /></g><g
           id="g8853"
           transform="translate(297.8691,322.541)"><path
             d="m 0,0 c -5.547,4.998 -12.88,8.051 -20.935,8.051 -2.237,0 -4.419,-0.236 -6.522,-0.683 -9.523,-2.025 -19.301,-2.025 -28.824,0 -2.104,0.447 -4.285,0.683 -6.523,0.683 -8.054,0 -15.387,-3.053 -20.934,-8.051"
             style="fill:none;stroke:#000000;stroke-width:15;stroke-linecap:round;stroke-linejoin:round;stroke-miterlimit:10;stroke-dasharray:none;stroke-opacity:1"
             id="path8855" /></g><g
           id="g8857"
           transform="translate(256,171.0381)"><path
             d="m 0,0 v 0 c -17.977,0 -31.987,15.582 -30.083,33.457 l 5.476,51.413 H 24.607 L 30.083,33.457 C 31.987,15.582 17.977,0 0,0"
             style="fill:#fd8087;fill-opacity:1;fill-rule:nonzero;stroke:none"
             id="path8859" /></g><g
           id="g8861"
           transform="translate(280.6074,255.9082)"><path
             d="M 0,0 5.476,-51.413 C 7.38,-69.288 -6.631,-84.87 -24.607,-84.87 c -17.977,0 -31.987,15.582 -30.083,33.457 L -49.215,0"
             style="fill:none;stroke:#000000;stroke-width:15;stroke-linecap:round;stroke-linejoin:round;stroke-miterlimit:10;stroke-dasharray:none;stroke-opacity:1"
             id="path8863" /></g><g
           id="g8865"
           transform="translate(351.0547,242.5176)"><path
             d="m 0,0 c 0,-21.666 -17.563,-39.229 -39.229,-39.229 -21.666,0 -39.229,17.563 -39.229,39.229 0,21.665 17.563,39.229 39.229,39.229 C -17.563,39.229 0,21.665 0,0"
             style="fill:#8bc9fe;fill-opacity:1;fill-rule:nonzero;stroke:none"
             id="path8867" /></g><g
           id="g8869"
           transform="translate(351.0547,242.5176)"><path
             d="m 0,0 c 0,-21.67 -17.562,-39.232 -39.232,-39.232 -4.55,0 -8.929,0.78 -12.992,2.206 15.277,5.364 26.231,19.916 26.231,37.026 0,17.109 -10.954,31.662 -26.231,37.025 4.063,1.426 8.442,2.207 12.992,2.207 C -17.562,39.232 0,21.67 0,0"
             style="fill:#60b8ff;fill-opacity:1;fill-rule:nonzero;stroke:none"
             id="path8871" /></g><g
           id="g8873"
           transform="translate(351.0547,242.5176)"><path
             d="m 0,0 c 0,-21.666 -17.563,-39.229 -39.229,-39.229 -21.666,0 -39.229,17.563 -39.229,39.229 0,21.665 17.563,39.229 39.229,39.229 C -17.563,39.229 0,21.665 0,0 Z"
             style="fill:none;stroke:#000000;stroke-width:15;stroke-linecap:round;stroke-linejoin:round;stroke-miterlimit:10;stroke-dasharray:none;stroke-opacity:1"
             id="path8875" /></g><g
           id="g8877"
           transform="translate(239.4033,242.5176)"><path
             d="m 0,0 c 0,-21.666 -17.563,-39.229 -39.229,-39.229 -21.666,0 -39.229,17.563 -39.229,39.229 0,21.665 17.563,39.229 39.229,39.229 C -17.563,39.229 0,21.665 0,0"
             style="fill:#8bc9fe;fill-opacity:1;fill-rule:nonzero;stroke:none"
             id="path8879" /></g><g
           id="g8881"
           transform="translate(239.3994,242.5176)"><path
             d="m 0,0 c 0,-21.67 -17.562,-39.232 -39.221,-39.232 -4.55,0 -8.928,0.78 -12.991,2.206 15.265,5.364 26.219,19.916 26.219,37.026 0,17.109 -10.954,31.662 -26.219,37.025 4.063,1.426 8.441,2.207 12.991,2.207 C -17.562,39.232 0,21.67 0,0"
             style="fill:#60b8ff;fill-opacity:1;fill-rule:nonzero;stroke:none"
             id="path8883" /></g><g
           id="g8885"
           transform="translate(239.4033,242.5176)"><path
             d="m 0,0 c 0,-21.666 -17.563,-39.229 -39.229,-39.229 -21.666,0 -39.229,17.563 -39.229,39.229 0,21.665 17.563,39.229 39.229,39.229 C -17.563,39.229 0,21.665 0,0 Z"
             style="fill:none;stroke:#000000;stroke-width:15;stroke-linecap:round;stroke-linejoin:round;stroke-miterlimit:10;stroke-dasharray:none;stroke-opacity:1"
             id="path8887" /></g><g
           id="g8889"
           transform="translate(351.0547,252.7021)"><path
             d="M 0,0 36.776,8.581"
             style="fill:none;stroke:#000000;stroke-width:15;stroke-linecap:round;stroke-linejoin:round;stroke-miterlimit:10;stroke-dasharray:none;stroke-opacity:1"
             id="path8891" /></g><g
           id="g8893"
           transform="translate(160.9458,252.7021)"><path
             d="M 0,0 -36.777,8.581"
             style="fill:none;stroke:#000000;stroke-width:15;stroke-linecap:round;stroke-linejoin:round;stroke-miterlimit:10;stroke-dasharray:none;stroke-opacity:1"
             id="path8895" /></g><g
           id="g8897"
           transform="translate(256,138.8818)"><path
             d="M 0,0 V -23.67"
             style="fill:none;stroke:#000000;stroke-width:15;stroke-linecap:round;stroke-linejoin:round;stroke-miterlimit:10;stroke-dasharray:none;stroke-opacity:1"
             id="path8899" /></g><g
           id="g8901"
           transform="translate(256,464.1377)"><path
             d="M 0,0 V -29.814"
             style="fill:none;stroke:#000000;stroke-width:15;stroke-linecap:round;stroke-linejoin:round;stroke-miterlimit:10;stroke-dasharray:none;stroke-opacity:1"
             id="path8903" /></g></g></g></g></svg>
