<?xml version="1.0" encoding="UTF-8" standalone="no"?>
<!-- Created with Inkscape (http://www.inkscape.org/) -->

<svg
   version="1.1"
   id="svg6684"
   xml:space="preserve"
   width="682.66669"
   height="682.66669"
   viewBox="0 0 682.66669 682.66669"
   xmlns="http://www.w3.org/2000/svg"
   xmlns:svg="http://www.w3.org/2000/svg"><defs
     id="defs6688"><clipPath
       clipPathUnits="userSpaceOnUse"
       id="clipPath6698"><path
         d="M 0,512 H 512 V 0 H 0 Z"
         id="path6696" /></clipPath></defs><g
     id="g6690"
     transform="matrix(1.3333333,0,0,-1.3333333,0,682.66667)"><g
       id="g6692"><g
         id="g6694"
         clip-path="url(#clipPath6698)"><g
           id="g6700"
           transform="translate(210.8701,421.5625)"><path
             d="m 0,0 v -8.656 c 0,-23.921 10.313,-30.634 24.528,-41.145 6.905,-5.104 11.288,-7.264 15.602,-8.07 4.312,0.806 13.213,1.38 20.117,6.485 C 73.994,-41.222 85.895,2.261 79.071,7.673 72.247,13.085 0,0 0,0"
             style="fill:#ffc5ae;fill-opacity:1;fill-rule:nonzero;stroke:none"
             id="path6702" /></g><g
           id="g6704"
           transform="translate(210.8701,449.0645)"><path
             d="m 0,0 v -27.502 h 70.256 c -0.034,-22.735 -0.778,-39.637 -14.526,-49.801 -6.904,-5.104 -11.288,-7.264 -15.6,-8.07 1.632,-0.305 3.255,-0.422 5,-0.422 6.354,0 11.083,1.455 20.601,8.492 14.216,10.511 24.529,17.224 24.529,41.145 L 90.26,0 Z"
             style="fill:#eaab8a;fill-opacity:1;fill-rule:nonzero;stroke:none"
             id="path6706" /></g><g
           id="g6708"
           transform="translate(290.1768,449)"><path
             d="M 0,0 C 0,27.182 -5.416,45.412 -21.785,51.558 -28.386,48.229 -34.177,44 -34.177,44 c 0,0 -15.74,11.5 -24.9,11.5 -9.159,0 -20.23,-18.358 -20.23,-55.436 z"
             style="fill:#877f87;fill-opacity:1;fill-rule:nonzero;stroke:none"
             id="path6710" /></g><g
           id="g6712"
           transform="translate(281.1279,449.0645)"><path
             d="m 0,0 h 20.002 c 0,37.077 -11.07,55.436 -20.23,55.436 -3.604,0 -8.226,-1.783 -12.508,-3.943 C -5.951,44.291 0,27.183 0,0"
             style="fill:#777078;fill-opacity:1;fill-rule:nonzero;stroke:none"
             id="path6714" /></g><g
           id="g6716"
           transform="translate(388,241.3525)"><path
             d="m 0,0 -59.728,-13.279 v -3.178 c 0,-20.296 8.75,-25.991 20.812,-34.909 5.455,-4.033 9.055,-5.902 12.479,-6.692 3.424,0.79 10.953,1.221 16.378,5.293 C 12.5,-35.833 0,0 0,0"
             style="fill:#ffc5ae;fill-opacity:1;fill-rule:nonzero;stroke:none"
             id="path6718" /></g><g
           id="g6720"
           transform="translate(328.2725,255.5752)"><path
             d="m 0,0 v -27.502 h 56.58 v -3.178 c 0,-20.296 1.251,-25.991 -10.809,-34.909 -5.457,-4.033 -9.056,-5.901 -12.481,-6.691 1.646,-0.38 3.251,-0.515 5.001,-0.515 5.392,0 9.403,1.234 17.48,7.206 12.062,8.918 20.811,14.613 20.811,34.909 V 0 Z"
             style="fill:#eaab8a;fill-opacity:1;fill-rule:nonzero;stroke:none"
             id="path6722" /></g><g
           id="g6724"
           transform="translate(375.001,298.1709)"><path
             d="m 0,0 c -4.685,-2.577 -8.438,-5.318 -8.438,-5.318 0,0 -13.355,9.757 -21.126,9.757 -7.772,0 -17.165,-15.577 -17.165,-47.035 l 67.316,-0.633 C 21.822,-13.054 9.889,-4.054 0,0"
             style="fill:#a59da7;fill-opacity:1;fill-rule:nonzero;stroke:none"
             id="path6726" /></g><g
           id="g6728"
           transform="translate(387.6904,302.6104)"><path
             d="m 0,0 c -3.651,0 -8.536,-2.155 -12.689,-4.439 5.348,-6.657 9.851,-20.818 9.851,-42.596 H 17.164 C 17.164,-15.577 7.771,0 0,0"
             style="fill:#877f87;fill-opacity:1;fill-rule:nonzero;stroke:none"
             id="path6730" /></g><g
           id="g6732"
           transform="translate(166.873,241.3525)"><path
             d="m 0,0 -59.728,-13.279 v -3.178 c 0,-20.296 8.75,-25.991 20.812,-34.909 5.455,-4.033 9.055,-5.902 12.479,-6.692 3.424,0.79 10.952,1.221 16.378,5.293 C 12.499,-35.833 0,0 0,0"
             style="fill:#ffc5ae;fill-opacity:1;fill-rule:nonzero;stroke:none"
             id="path6734" /></g><g
           id="g6736"
           transform="translate(107.1455,255.5752)"><path
             d="m 0,0 v -27.502 h 56.58 v -3.178 c 0,-20.296 1.251,-25.991 -10.81,-34.909 -5.456,-4.033 -9.055,-5.901 -12.48,-6.691 1.646,-0.38 3.251,-0.515 5.001,-0.515 5.392,0 9.403,1.234 17.48,7.206 12.061,8.918 20.811,14.613 20.811,34.909 V 0 Z"
             style="fill:#eaab8a;fill-opacity:1;fill-rule:nonzero;stroke:none"
             id="path6738" /></g><g
           id="g6740"
           transform="translate(153.874,298.1709)"><path
             d="m 0,0 c -4.685,-2.577 -8.438,-5.318 -8.438,-5.318 0,0 -13.355,9.757 -21.126,9.757 -7.772,0 -17.165,-15.577 -17.165,-47.035 l 67.316,-0.633 C 21.822,-13.054 9.889,-4.054 0,0"
             style="fill:#a59da7;fill-opacity:1;fill-rule:nonzero;stroke:none"
             id="path6742" /></g><g
           id="g6744"
           transform="translate(166.5635,302.6104)"><path
             d="m 0,0 c -3.652,0 -8.537,-2.155 -12.689,-4.439 5.348,-6.657 9.851,-20.818 9.851,-42.596 H 17.164 C 17.164,-15.577 7.771,0 0,0"
             style="fill:#877f87;fill-opacity:1;fill-rule:nonzero;stroke:none"
             id="path6746" /></g><g
           id="g6748"
           transform="translate(424.1533,42.1484)"><path
             d="m 0,0 v -1.585 c 0,-15.934 6.87,-20.405 16.339,-27.406 4.035,-2.984 6.777,-4.457 9.329,-5.138 2.418,0.632 22.179,10.223 22.179,26.157 0,0 -5.216,17.008 -8.824,20.362 C 35.416,15.742 0,0 0,0"
             style="fill:#ffc5ae;fill-opacity:1;fill-rule:nonzero;stroke:none"
             id="path6750" /></g><g
           id="g6752"
           transform="translate(424.1533,64.6494)"><path
             d="m 0,0 v 0 -22.501 h 40.121 v -1.585 c 0,-15.934 -0.058,-21.127 -6.337,-27.406 -3.107,-3.108 -5.698,-4.506 -8.116,-5.138 1.458,-0.388 2.854,-0.519 4.394,-0.519 4.233,0 7.382,0.968 13.722,5.657 9.47,7.001 16.339,11.472 16.339,27.406 l 0,24.086 z"
             style="fill:#eaab8a;fill-opacity:1;fill-rule:nonzero;stroke:none"
             id="path6754" /></g><g
           id="g6756"
           transform="translate(437.6289,101.5752)"><path
             d="m 0,0 c -6.102,0 -13.476,-12.229 -13.476,-36.926 l 50.67,0.234 c 0,15.351 -6.352,27.705 -17.02,31.423 C 18.038,-6.6 16.586,-7.66 16.586,-7.66 16.586,-7.66 6.102,0 0,0"
             style="fill:#a59da7;fill-opacity:1;fill-rule:nonzero;stroke:none"
             id="path6758" /></g><g
           id="g6760"
           transform="translate(484.2764,64.6494)"><path
             d="m 0,0 c 0,24.697 -7.374,36.926 -13.476,36.926 -3.831,0 -9.391,-3.022 -12.998,-5.269 3.622,-5.774 6.472,-16.304 6.472,-31.657 z"
             style="fill:#877f87;fill-opacity:1;fill-rule:nonzero;stroke:none"
             id="path6762" /></g><g
           id="g6764"
           transform="translate(301.8008,42.1484)"><path
             d="m 0,0 v -1.585 c 0,-15.934 6.869,-20.405 16.338,-27.406 4.035,-2.984 6.777,-4.457 9.329,-5.138 2.418,0.632 22.179,10.223 22.179,26.157 0,0 -5.216,17.008 -8.824,20.362 C 35.415,15.742 0,0 0,0"
             style="fill:#ffc5ae;fill-opacity:1;fill-rule:nonzero;stroke:none"
             id="path6766" /></g><g
           id="g6768"
           transform="translate(301.8008,64.6494)"><path
             d="m 0,0 v 0 -22.501 h 40.121 v -1.585 c 0,-15.934 -0.058,-21.127 -6.338,-27.406 -3.107,-3.108 -5.698,-4.506 -8.116,-5.138 1.459,-0.388 2.855,-0.519 4.395,-0.519 4.232,0 7.381,0.968 13.722,5.657 9.469,7.001 16.339,11.472 16.339,27.406 V 0 Z"
             style="fill:#eaab8a;fill-opacity:1;fill-rule:nonzero;stroke:none"
             id="path6770" /></g><g
           id="g6772"
           transform="translate(315.2754,101.5752)"><path
             d="m 0,0 c -6.101,0 -13.475,-12.229 -13.475,-36.926 l 50.67,0.234 c 0,15.351 -6.353,27.705 -17.021,31.423 C 18.038,-6.6 16.587,-7.66 16.587,-7.66 16.587,-7.66 6.102,0 0,0"
             style="fill:#a59da7;fill-opacity:1;fill-rule:nonzero;stroke:none"
             id="path6774" /></g><g
           id="g6776"
           transform="translate(361.9238,64.6494)"><path
             d="m 0,0 c 0,24.697 -7.374,36.926 -13.476,36.926 -3.832,0 -9.391,-3.022 -12.999,-5.269 3.622,-5.774 6.473,-16.304 6.473,-31.657 z"
             style="fill:#877f87;fill-opacity:1;fill-rule:nonzero;stroke:none"
             id="path6778" /></g><g
           id="g6780"
           transform="translate(150.0762,42.1484)"><path
             d="m 0,0 v -1.585 c 0,-15.934 6.869,-20.405 16.339,-27.406 4.035,-2.984 6.776,-4.457 9.329,-5.138 2.418,0.632 22.179,10.223 22.179,26.157 0,0 -5.217,17.008 -8.825,20.362 C 35.415,15.742 0,0 0,0"
             style="fill:#ffc5ae;fill-opacity:1;fill-rule:nonzero;stroke:none"
             id="path6782" /></g><g
           id="g6784"
           transform="translate(150.0762,64.6494)"><path
             d="m 0,0 v 0 -22.501 h 40.121 v -1.585 c 0,-15.934 -0.058,-21.127 -6.338,-27.406 -3.106,-3.108 -5.697,-4.506 -8.115,-5.138 1.458,-0.388 2.854,-0.519 4.394,-0.519 4.232,0 7.382,0.968 13.722,5.657 9.47,7.001 16.339,11.472 16.339,27.406 V 0 Z"
             style="fill:#eaab8a;fill-opacity:1;fill-rule:nonzero;stroke:none"
             id="path6786" /></g><g
           id="g6788"
           transform="translate(163.5518,101.5752)"><path
             d="m 0,0 c -6.102,0 -13.476,-12.229 -13.476,-36.926 l 50.67,0.234 c 0,15.351 -6.352,27.705 -17.02,31.423 C 18.037,-6.6 16.586,-7.66 16.586,-7.66 16.586,-7.66 6.101,0 0,0"
             style="fill:#a59da7;fill-opacity:1;fill-rule:nonzero;stroke:none"
             id="path6790" /></g><g
           id="g6792"
           transform="translate(210.1992,64.6494)"><path
             d="m 0,0 c 0,24.697 -7.374,36.926 -13.476,36.926 -3.832,0 -9.391,-3.022 -12.998,-5.269 3.621,-5.774 6.472,-16.304 6.472,-31.657 z"
             style="fill:#877f87;fill-opacity:1;fill-rule:nonzero;stroke:none"
             id="path6794" /></g><g
           id="g6796"
           transform="translate(27.7227,42.1484)"><path
             d="m 0,0 v -1.585 c 0,-15.934 6.87,-20.405 16.339,-27.406 4.035,-2.984 6.777,-4.457 9.329,-5.138 2.418,0.632 22.179,10.223 22.179,26.157 0,0 -5.216,17.008 -8.824,20.362 C 35.416,15.742 0,0 0,0"
             style="fill:#ffc5ae;fill-opacity:1;fill-rule:nonzero;stroke:none"
             id="path6798" /></g><g
           id="g6800"
           transform="translate(27.7227,64.6494)"><path
             d="m 0,0 v 0 -22.501 h 40.121 v -1.585 c 0,-15.934 -0.058,-21.127 -6.337,-27.406 -3.107,-3.108 -5.698,-4.506 -8.116,-5.138 1.458,-0.388 2.854,-0.519 4.394,-0.519 4.233,0 7.382,0.968 13.723,5.657 9.469,7.001 16.338,11.472 16.338,27.406 l 0,24.086 z"
             style="fill:#eaab8a;fill-opacity:1;fill-rule:nonzero;stroke:none"
             id="path6802" /></g><g
           id="g6804"
           transform="translate(41.1982,101.5752)"><path
             d="m 0,0 c -6.102,0 -13.476,-12.229 -13.476,-36.926 l 50.671,0.234 c 0,15.351 -6.353,27.705 -17.021,31.423 C 18.038,-6.6 16.586,-7.66 16.586,-7.66 16.586,-7.66 6.102,0 0,0"
             style="fill:#a59da7;fill-opacity:1;fill-rule:nonzero;stroke:none"
             id="path6806" /></g><g
           id="g6808"
           transform="translate(87.8457,64.6494)"><path
             d="m 0,0 c 0,24.697 -7.374,36.926 -13.475,36.926 -3.832,0 -9.392,-3.022 -12.999,-5.269 3.622,-5.774 6.472,-16.304 6.472,-31.657 z"
             style="fill:#877f87;fill-opacity:1;fill-rule:nonzero;stroke:none"
             id="path6810" /></g><g
           id="g6812"
           transform="translate(166.5635,302.6104)"><path
             d="M 0,0 68.835,69.151"
             style="fill:none;stroke:#000000;stroke-width:15;stroke-linecap:round;stroke-linejoin:round;stroke-miterlimit:10;stroke-dasharray:none;stroke-opacity:1"
             id="path6814" /></g><g
           id="g6816"
           transform="translate(345.4365,302.6104)"><path
             d="M 0,0 -68.835,69.151"
             style="fill:none;stroke:#000000;stroke-width:15;stroke-linecap:round;stroke-linejoin:round;stroke-miterlimit:10;stroke-dasharray:none;stroke-opacity:1"
             id="path6818" /></g><g
           id="g6820"
           transform="translate(74.3711,101.5752)"><path
             d="M 0,0 71.065,81.205"
             style="fill:none;stroke:#000000;stroke-width:15;stroke-linecap:round;stroke-linejoin:round;stroke-miterlimit:10;stroke-dasharray:none;stroke-opacity:1"
             id="path6822" /></g><g
           id="g6824"
           transform="translate(163.5518,101.5752)"><path
             d="M 0,0 -18.115,81.205"
             style="fill:none;stroke:#000000;stroke-width:15;stroke-linecap:round;stroke-linejoin:round;stroke-miterlimit:10;stroke-dasharray:none;stroke-opacity:1"
             id="path6826" /></g><g
           id="g6828"
           transform="translate(437.6289,101.5752)"><path
             d="M 0,0 -71.065,81.205"
             style="fill:none;stroke:#000000;stroke-width:15;stroke-linecap:round;stroke-linejoin:round;stroke-miterlimit:10;stroke-dasharray:none;stroke-opacity:1"
             id="path6830" /></g><g
           id="g6832"
           transform="translate(348.4482,101.5752)"><path
             d="M 0,0 18.115,81.205"
             style="fill:none;stroke:#000000;stroke-width:15;stroke-linecap:round;stroke-linejoin:round;stroke-miterlimit:10;stroke-dasharray:none;stroke-opacity:1"
             id="path6834" /></g><g
           id="g6836"
           transform="translate(188.6406,449.0645)"><path
             d="M 0,0 H 134.719"
             style="fill:none;stroke:#000000;stroke-width:15;stroke-linecap:round;stroke-linejoin:round;stroke-miterlimit:10;stroke-dasharray:none;stroke-opacity:1"
             id="path6838" /></g><g
           id="g6840"
           transform="translate(280.9004,504.5)"><path
             d="m 0,0 c -9.16,0 -24.9,-11.5 -24.9,-11.5 0,0 -15.741,11.5 -24.901,11.5 -9.159,0 -20.229,-18.358 -20.229,-55.436 v -36.158 c 0,-23.921 10.312,-30.634 24.528,-41.144 9.519,-7.037 14.247,-8.492 20.602,-8.492 6.354,0 11.083,1.455 20.601,8.492 14.216,10.51 24.528,17.223 24.528,41.144 v 36.158 C 20.229,-18.358 9.159,0 0,0 Z"
             style="fill:none;stroke:#000000;stroke-width:15;stroke-linecap:round;stroke-linejoin:round;stroke-miterlimit:10;stroke-dasharray:none;stroke-opacity:1"
             id="path6842" /></g><g
           id="g6844"
           transform="translate(88.2852,255.5752)"><path
             d="M 0,0 H 114.303"
             style="fill:none;stroke:#000000;stroke-width:15;stroke-linecap:round;stroke-linejoin:round;stroke-miterlimit:10;stroke-dasharray:none;stroke-opacity:1"
             id="path6846" /></g><g
           id="g6848"
           transform="translate(166.5635,302.6104)"><path
             d="m 0,0 c -7.771,0 -21.127,-9.758 -21.127,-9.758 0,0 -13.355,9.758 -21.127,9.758 -7.771,0 -17.164,-15.577 -17.164,-47.035 v -30.68 c 0,-20.296 8.75,-25.991 20.812,-34.909 8.076,-5.972 12.087,-7.206 17.479,-7.206 5.392,0 9.403,1.234 17.48,7.206 12.061,8.918 20.811,14.613 20.811,34.909 v 30.68 C 17.164,-15.577 7.771,0 0,0 Z"
             style="fill:none;stroke:#000000;stroke-width:15;stroke-linecap:round;stroke-linejoin:round;stroke-miterlimit:10;stroke-dasharray:none;stroke-opacity:1"
             id="path6850" /></g><g
           id="g6852"
           transform="translate(394.5898,255.5752)"><path
             d="M 0,0 H 29.125"
             style="fill:none;stroke:#000000;stroke-width:15;stroke-linecap:round;stroke-linejoin:round;stroke-miterlimit:10;stroke-dasharray:none;stroke-opacity:1"
             id="path6854" /></g><g
           id="g6856"
           transform="translate(309.4121,255.5752)"><path
             d="M 0,0 H 54.175"
             style="fill:none;stroke:#000000;stroke-width:15;stroke-linecap:round;stroke-linejoin:round;stroke-miterlimit:10;stroke-dasharray:none;stroke-opacity:1"
             id="path6858" /></g><g
           id="g6860"
           transform="translate(387.6904,302.6104)"><path
             d="m 0,0 c -7.771,0 -21.127,-9.758 -21.127,-9.758 0,0 -13.355,9.758 -21.127,9.758 -7.771,0 -17.164,-15.577 -17.164,-47.035 v -30.68 c 0,-20.296 8.75,-25.991 20.812,-34.909 8.076,-5.972 12.087,-7.206 17.479,-7.206 5.392,0 9.403,1.234 17.48,7.206 12.061,8.918 20.811,14.613 20.811,34.909 v 30.68 C 17.164,-15.577 7.771,0 0,0 Z"
             style="fill:none;stroke:#000000;stroke-width:15;stroke-linecap:round;stroke-linejoin:round;stroke-miterlimit:10;stroke-dasharray:none;stroke-opacity:1"
             id="path6862" /></g><g
           id="g6864"
           transform="translate(198.707,64.6494)"><path
             d="M 0,0 H 26.299"
             style="fill:none;stroke:#000000;stroke-width:15;stroke-linecap:round;stroke-linejoin:round;stroke-miterlimit:10;stroke-dasharray:none;stroke-opacity:1"
             id="path6866" /></g><g
           id="g6868"
           transform="translate(135.2695,64.6494)"><path
             d="M 0,0 H 33.435"
             style="fill:none;stroke:#000000;stroke-width:15;stroke-linecap:round;stroke-linejoin:round;stroke-miterlimit:10;stroke-dasharray:none;stroke-opacity:1"
             id="path6870" /></g><g
           id="g6872"
           transform="translate(196.7236,101.5752)"><path
             d="m 0,0 c -6.101,0 -16.586,-7.66 -16.586,-7.66 0,0 -10.485,7.66 -16.586,7.66 -6.101,0 -13.475,-12.229 -13.475,-36.926 v -24.086 c 0,-15.933 6.869,-20.405 16.338,-27.406 6.34,-4.688 9.49,-5.657 13.723,-5.657 4.233,0 7.383,0.969 13.723,5.657 9.469,7.001 16.339,11.473 16.339,27.406 v 24.086 C 13.476,-12.229 6.102,0 0,0 Z"
             style="fill:none;stroke:#000000;stroke-width:15;stroke-linecap:round;stroke-linejoin:round;stroke-miterlimit:10;stroke-dasharray:none;stroke-opacity:1"
             id="path6874" /></g><g
           id="g6876"
           transform="translate(12.916,64.6494)"><path
             d="M 0,0 H 89.737"
             style="fill:none;stroke:#000000;stroke-width:15;stroke-linecap:round;stroke-linejoin:round;stroke-miterlimit:10;stroke-dasharray:none;stroke-opacity:1"
             id="path6878" /></g><g
           id="g6880"
           transform="translate(74.3711,101.5752)"><path
             d="m 0,0 c -6.102,0 -16.586,-7.66 -16.586,-7.66 0,0 -10.485,7.66 -16.587,7.66 -6.1,0 -13.474,-12.229 -13.474,-36.926 v -24.086 c 0,-15.933 6.869,-20.405 16.337,-27.406 6.341,-4.688 9.491,-5.657 13.724,-5.657 4.232,0 7.382,0.969 13.723,5.657 9.469,7.001 16.339,11.473 16.339,27.406 v 24.086 C 13.476,-12.229 6.102,0 0,0 Z"
             style="fill:none;stroke:#000000;stroke-width:15;stroke-linecap:round;stroke-linejoin:round;stroke-miterlimit:10;stroke-dasharray:none;stroke-opacity:1"
             id="path6882" /></g><g
           id="g6884"
           transform="translate(409.3467,64.6494)"><path
             d="M 0,0 H 89.737"
             style="fill:none;stroke:#000000;stroke-width:15;stroke-linecap:round;stroke-linejoin:round;stroke-miterlimit:10;stroke-dasharray:none;stroke-opacity:1"
             id="path6886" /></g><g
           id="g6888"
           transform="translate(470.8018,101.5752)"><path
             d="m 0,0 c -6.102,0 -16.587,-7.66 -16.587,-7.66 0,0 -10.484,7.66 -16.586,7.66 -6.101,0 -13.475,-12.229 -13.475,-36.926 v -24.086 c 0,-15.933 6.869,-20.405 16.338,-27.406 6.341,-4.688 9.491,-5.657 13.723,-5.657 4.233,0 7.383,0.969 13.724,5.657 9.468,7.001 16.338,11.473 16.338,27.406 v 24.086 C 13.475,-12.229 6.101,0 0,0 Z"
             style="fill:none;stroke:#000000;stroke-width:15;stroke-linecap:round;stroke-linejoin:round;stroke-miterlimit:10;stroke-dasharray:none;stroke-opacity:1"
             id="path6890" /></g><g
           id="g6892"
           transform="translate(286.9932,64.6494)"><path
             d="M 0,0 H 89.737"
             style="fill:none;stroke:#000000;stroke-width:15;stroke-linecap:round;stroke-linejoin:round;stroke-miterlimit:10;stroke-dasharray:none;stroke-opacity:1"
             id="path6894" /></g><g
           id="g6896"
           transform="translate(348.4482,101.5752)"><path
             d="m 0,0 c -6.102,0 -16.587,-7.66 -16.587,-7.66 0,0 -10.484,7.66 -16.586,7.66 -6.1,0 -13.475,-12.229 -13.475,-36.926 v -24.086 c 0,-15.933 6.87,-20.405 16.338,-27.406 6.341,-4.688 9.491,-5.657 13.723,-5.657 4.233,0 7.383,0.969 13.724,5.657 9.468,7.001 16.338,11.473 16.338,27.406 v 24.086 C 13.475,-12.229 6.101,0 0,0 Z"
             style="fill:none;stroke:#000000;stroke-width:15;stroke-linecap:round;stroke-linejoin:round;stroke-miterlimit:10;stroke-dasharray:none;stroke-opacity:1"
             id="path6898" /></g></g></g></g></svg>
