<?xml version="1.0" encoding="iso-8859-1"?>
<!-- Generator: Adobe Illustrator 19.0.0, SVG Export Plug-In . SVG Version: 6.00 Build 0)  -->
<svg version="1.1" id="Capa_1" xmlns="http://www.w3.org/2000/svg" xmlns:xlink="http://www.w3.org/1999/xlink" x="0px" y="0px"
	 viewBox="0 0 496 496" style="enable-background:new 0 0 496 496;" xml:space="preserve">
<polygon style="fill:#D3A06C;" points="322.96,408 173.04,408 160,440 336,440 "/>
<path style="fill:#ECECEC;" d="M488,296H8V24c0-8.84,7.16-16,16-16h448c8.84,0,16,7.16,16,16V296z"/>
<polygon style="fill:#B27946;" points="303.136,440 336,440 322.96,408 292.472,408 "/>
<polygon style="fill:#D3A06C;" points="336,344 384,488 336,488 288,344 "/>
<polygon style="fill:#B27946;" points="192.864,440 160,440 173.04,408 203.528,408 "/>
<path style="fill:#D3A06C;" d="M344,296v-16c0-8.84,7.16-16,16-16h64c8.84,0,16,7.16,16,16v16H344z"/>
<rect x="8" y="280" style="fill:#B6C1CE;" width="480" height="24"/>
<rect x="344" y="280" style="fill:#B27946;" width="96" height="16"/>
<path style="fill:#8C95A4;" d="M8,296h480v32c0,8.84-7.16,16-16,16H24c-8.84,0-16-7.16-16-16V296z"/>
<polygon style="fill:#D3A06C;" points="160,344 112,488 160,488 208,344 "/>
<g>
	<polygon style="fill:#B27946;" points="154.664,360 202.664,360 208,344 160,344 	"/>
	<polygon style="fill:#B27946;" points="341.336,360 293.336,360 288,344 336,344 	"/>
</g>
<path d="M472,0H24C10.768,0,0,10.768,0,24v304c0,13.232,10.768,24,24,24h124.896l-48,144h64.864l16-48h132.464l16,48h64.864l-48-144
	H472c13.232,0,24-10.768,24-24V24C496,10.768,485.232,0,472,0z M154.232,480h-31.136l42.672-128h31.136L154.232,480z M282.232,352
	l16,48H197.768l16-48H282.232z M187.096,432l5.336-16h111.136l5.336,16H187.096z M372.904,480h-31.136l-42.664-128h31.136
	L372.904,480z M472,336H24c-4.408,0-8-3.584-8-8v-24h32v-16H16V24c0-4.416,3.592-8,8-8h448c4.408,0,8,3.584,8,8v264h-32v-8
	c0-13.232-10.768-24-24-24h-64c-13.232,0-24,10.768-24,24v8H64v16h416v24C480,332.416,476.408,336,472,336z M432,288h-80v-8
	c0-4.416,3.592-8,8-8h64c4.408,0,8,3.584,8,8V288z"/>
<polygon points="104,168 64,168 64,136 104,136 104,120 64,120 64,88 104,88 104,72 48,72 48,184 104,184 "/>
<rect x="136" y="104" width="64" height="16"/>
<rect x="136" y="136" width="64" height="16"/>
<path d="M240,128v8v24h16v-24v-8c0-4.416,3.592-8,8-8s8,3.584,8,8v32h16v-32c0-4.416,3.592-8,8-8s8,3.584,8,8v32h16v-32
	c0-13.232-10.768-24-24-24c-6.168,0-11.744,2.408-16,6.24c-4.256-3.84-9.832-6.24-16-6.24s-11.744,2.408-16,6.24
	c-4.256-3.84-9.832-6.24-16-6.24v16C236.408,120,240,123.584,240,128z"/>
<path d="M368,168h8v-16h-8c-8.824,0-16-7.176-16-16s7.176-16,16-16h8v-16h-8c-17.648,0-32,14.352-32,32S350.352,168,368,168z"/>
<path d="M448,104h-26.664L438.4,91.2c6.008-4.504,9.6-11.68,9.6-19.2c0-13.232-10.768-24-24-24s-24,10.768-24,24h16
	c0-4.416,3.592-8,8-8s8,3.584,8,8c0,2.504-1.192,4.896-3.2,6.4L400,100v20h48V104z"/>
<g>
</g>
<g>
</g>
<g>
</g>
<g>
</g>
<g>
</g>
<g>
</g>
<g>
</g>
<g>
</g>
<g>
</g>
<g>
</g>
<g>
</g>
<g>
</g>
<g>
</g>
<g>
</g>
<g>
</g>
</svg>
