<?xml version="1.0" encoding="iso-8859-1"?>
<!-- Generator: Adobe Illustrator 19.0.0, SVG Export Plug-In . SVG Version: 6.00 Build 0)  -->
<svg version="1.1" id="Capa_1" xmlns="http://www.w3.org/2000/svg" xmlns:xlink="http://www.w3.org/1999/xlink" x="0px" y="0px"
	 viewBox="0 0 512 512" style="enable-background:new 0 0 512 512;" xml:space="preserve">
<polyline style="fill:#605B58;" points="166.792,402.804 166.792,502.969 120.087,502.969 86.408,502.969 86.408,343.076 "/>
<path style="fill:#F7CB92;" d="M225.903,289.916c0,8.043-6.52,14.563-14.563,14.563h-3.832v19.929l-13.838,57.957v3.434
	c0,3.587-1.114,6.919-3.015,9.668c-3.076,4.435-8.196,7.338-13.991,7.338H46.566V144.243h160.942v131.12h3.832
	c4.016,0,7.665,1.625,10.302,4.262C224.267,282.262,225.903,285.9,225.903,289.916z"/>
<path style="fill:#E2B27F;" d="M190.655,395.467c-3.076,4.435-8.196,7.338-13.991,7.338H46.566v-66.255L82.274,196.64l65.407,5.11
	c0,0,0,100.154,0,128.77C147.681,353.371,154.2,384.041,190.655,395.467z"/>
<path style="fill:#FFF2E9;" d="M475.818,388.505c16.597,11.201,27.512,30.179,27.512,51.702c0,34.42-27.91,62.321-62.331,62.321
	s-62.32-27.9-62.32-62.321c0-18.651,8.196-35.391,21.175-46.807"/>
<path style="fill:#E2B27F;" d="M398.607,390.723l6.355,13.668c6.095,13.108,19.239,21.492,33.695,21.492l0,0
	c23.095,0,40.595-20.845,36.597-43.592l-8.685-49.402L427.4,293.721l-54.853,27.925"/>
<path style="fill:#F7CB92;" d="M428.837,179.086l-2.085,166.343c-5.631,33.756-34.829,58.488-69.035,58.488h-17.864
	c-12.427,0-22.494-10.067-22.494-22.484l1.537-64.386h-26.06V163.757L428.837,179.086z"/>
<path style="fill:#E2B27F;" d="M292.838,163.757v5.184l90.013,10.145l-2.085,166.343c-4.606,27.612-24.984,49.177-50.97,56.115
	c3.027,1.516,6.441,2.373,10.058,2.373h17.864c34.206,0,63.404-24.732,69.035-58.488l2.085-166.343L292.838,163.757z"/>
<path style="fill:#BA7052;" d="M297.943,206.678h97.598v95.564c0,16.927,13.722,30.649,30.649,30.649h40.378
	c19.473,0,35.258-15.786,35.258-35.258v-5.11c0-19.473-15.786-35.258-35.258-35.258l0,0V154.247
	c0-52.011-42.163-94.175-94.174-94.175h-2.436c-54.095,0-97.562,43.471-97.562,97.09c0,8.679,0,16.859,0,23.975
	C272.396,195.247,283.834,206.678,297.943,206.678z"/>
<path style="fill:#A35D45;" d="M466.568,257.264L466.568,257.264V154.247c0-52.011-42.163-94.174-94.174-94.174h-2.436
	c-5.048,0-10.003,0.379-14.839,1.109c45.133,6.969,79.686,45.981,79.686,93.065v103.017l0,0c19.473,0,35.258,15.786,35.258,35.258
	v5.11c0,19.473-15.786,35.258-35.258,35.258h31.763c19.473,0,35.258-15.786,35.258-35.258v-5.11
	C501.826,273.049,486.041,257.264,466.568,257.264z"/>
<path style="fill:#DB5B3E;" d="M495.155,147.636c-6.132,6.132-14.185,9.198-22.218,9.198c-8.053,0-16.086-3.066-22.228-9.198
	l-82.382-82.382l-0.051-0.051c-12.213-12.274-12.192-32.141,0.051-44.395c6.132-6.132,14.185-9.198,22.218-9.198
	c8.033,0,16.045,3.046,22.177,9.147l60.082,60.093l22.351,22.341C507.418,115.464,507.418,135.362,495.155,147.636z"/>
<path style="fill:#EF6E4B;" d="M472.803,125.285c-6.132,6.132-14.175,9.208-22.218,9.208s-16.076-3.076-22.218-9.208l-60.041-60.031
	l-0.051-0.051c-12.213-12.274-12.192-32.141,0.051-44.395c6.132-6.132,14.185-9.198,22.218-9.198s16.045,3.046,22.177,9.147
	l60.082,60.093C485.078,93.123,485.078,113.021,472.803,125.285z"/>
<path style="fill:#75706B;" d="M120.087,502.965V228.05h3.618c46.283,0,83.803-37.52,83.803-83.803l0,0l0,0
	c0-46.848-37.977-84.825-84.825-84.825l0,0c-63.522,0-115.018,51.495-115.018,115.017v328.526h112.422V502.965z"/>
<path style="fill:#605B58;" d="M138.924,60.994c-5.259-1.02-10.685-1.571-16.242-1.571l0,0C59.16,59.423,7.665,110.918,7.665,174.44
	v328.526h35.241V174.44C42.907,117.391,84.444,70.052,138.924,60.994z"/>
<path style="fill:#EF6E4B;" d="M240.68,98.53c0,0,72.561-70.517,39.857-86.869C256.249-0.483,240.68,33.123,240.68,33.123
	s-15.569-33.606-39.857-21.462C168.119,28.013,240.68,98.53,240.68,98.53z"/>
<path d="M326.561,317.047c0-4.233-3.431-7.665-7.665-7.665h-18.395v-82.777c0-4.233-3.431-7.665-7.665-7.665
	c-4.234,0-7.665,3.432-7.665,7.665v90.441c0,4.233,3.431,7.665,7.665,7.665h26.06C323.13,324.712,326.561,321.28,326.561,317.047z"
	/>
<path d="M434.314,346.685l1.02-6.132h31.236c23.668,0,42.923-19.255,42.923-42.923v-5.11c0-21.052-15.236-38.613-35.258-42.238
	v-72.039c0-4.233-3.431-7.665-7.665-7.665c-4.234,0-7.665,3.432-7.665,7.665l-0.001,109.677c0,4.233,3.431,7.665,7.665,7.665
	c4.234,0,7.665-3.432,7.665-7.665v-21.903c11.497,3.331,19.93,13.947,19.93,26.502v5.11c0,15.215-12.378,27.594-27.594,27.594
	h-40.379c-12.674,0-22.984-10.311-22.984-22.984v-95.566c0-4.233-3.431-7.665-7.665-7.665h-97.599
	c-9.861,0-17.885-8.018-17.885-17.874v-23.976c0-19.698,6.282-38.367,18.169-53.987c11.525-15.148,27.913-26.436,46.144-31.784
	c4.062-1.192,6.388-5.45,5.197-9.513c-1.191-4.061-5.441-6.388-9.513-5.197c-21.348,6.263-40.535,19.478-54.028,37.21
	c-13.934,18.312-21.299,40.19-21.299,63.271v23.976c0,18.309,14.899,33.204,33.214,33.204h89.934v87.901
	c0,18.977,13.871,34.767,32.004,37.786l-0.689,4.142c-5.035,30.179-30.888,52.084-61.474,52.084h-17.864
	c-8.177,0-14.829-6.648-14.829-14.819c0-4.233-3.431-7.665-7.665-7.665c-4.234,0-7.665,3.432-7.665,7.665
	c0,16.624,13.529,30.148,30.159,30.148h17.864C395.827,411.581,428.041,384.29,434.314,346.685z"/>
<path d="M369.847,258.365c2.994-2.993,2.994-7.846,0.001-10.839s-7.847-2.994-10.839,0c-4.164,4.163-9.699,6.455-15.585,6.455
	c-5.888,0-11.422-2.292-15.584-6.455c-2.994-2.993-7.848-2.994-10.839,0c-2.994,2.993-2.994,7.846-0.001,10.839
	c7.058,7.059,16.443,10.945,26.424,10.945C353.405,269.31,362.788,265.423,369.847,258.365z"/>
<path d="M188.909,242.626c-2.992-2.994-7.846-2.993-10.839,0c-4.163,4.163-9.697,6.455-15.584,6.455
	c-5.887,0-11.422-2.292-15.585-6.455c-2.992-2.994-7.846-2.993-10.839,0c-2.993,2.993-2.993,7.847,0.001,10.839
	c0.67,0.67,1.368,1.303,2.08,1.916l-2.897,2.897c-2.993,2.993-2.993,7.847,0.001,10.839c1.496,1.497,3.458,2.245,5.42,2.245
	c1.961,0,3.923-0.748,5.421-2.245l6.138-6.138c0.706,0.2,1.421,0.38,2.14,0.539v3.707c0,4.233,3.431,7.665,7.665,7.665
	c4.234,0,7.665-3.432,7.665-7.665v-3.508c0.56-0.108,1.115-0.232,1.668-0.367l5.768,5.768c1.497,1.497,3.458,2.245,5.421,2.245
	c1.961,0,3.923-0.748,5.42-2.245c2.994-2.993,2.994-7.846,0.001-10.839l-2.095-2.095c1.052-0.847,2.068-1.751,3.037-2.719
	C191.903,250.473,191.903,245.619,188.909,242.626z"/>
<path d="M326.561,349.237c0-10.143-8.251-18.396-18.395-18.396h-3.066c-4.234,0-7.665,3.432-7.665,7.665
	c0,4.233,3.431,7.665,7.665,7.665h3.066c1.689,0,3.065,1.376,3.065,3.066s-1.376,3.066-3.065,3.066h-3.066
	c-4.234,0-7.665,3.432-7.665,7.665c0,4.233,3.431,7.665,7.665,7.665h3.066C318.31,367.633,326.561,359.38,326.561,349.237z"/>
<path d="M205.923,352.004h3.065c4.234,0,7.665-3.432,7.665-7.665c0-4.233-3.431-7.665-7.665-7.665h-3.065
	c-10.143,0-18.396,8.253-18.396,18.396s8.253,18.396,18.396,18.396h3.065c4.234,0,7.665-3.432,7.665-7.665
	c0-4.233-3.431-7.665-7.665-7.665h-3.065c-1.69,0-3.066-1.376-3.066-3.066S204.233,352.004,205.923,352.004z"/>
<path d="M445.289,153.051c7.62,7.621,17.63,11.431,27.641,11.431c10.01,0,20.02-3.811,27.641-11.431
	c15.24-15.241,15.24-40.04,0-55.281l-22.344-22.344c-2.994-2.993-7.847-2.993-10.84,0c-2.993,2.993-2.993,7.846,0,10.839
	l22.344,22.344c9.263,9.263,9.263,24.337,0,33.601c-9.264,9.264-24.337,9.263-33.601,0l-82.378-82.378
	c-4.488-4.488-6.96-10.454-6.96-16.8s2.472-12.313,6.961-16.8c4.488-4.488,10.454-6.959,16.799-6.959
	c6.345,0,12.313,2.471,16.799,6.959l40.105,40.105c2.994,2.993,7.847,2.993,10.84,0s2.993-7.847,0-10.839l-40.105-40.105
	c-7.384-7.383-17.199-11.449-27.641-11.449c-10.442,0-20.257,4.066-27.64,11.449c-7.384,7.383-11.45,17.199-11.45,27.641
	s4.066,20.258,11.449,27.641L445.289,153.051z"/>
<path d="M483.257,384.414c-0.112-1.151-0.252-2.302-0.454-3.45l-5.072-28.85c-0.733-4.169-4.702-6.954-8.877-6.222
	c-4.169,0.733-6.955,4.707-6.222,8.877l5.072,28.85c1.513,8.605-0.842,17.379-6.46,24.071c-5.618,6.691-13.851,10.529-22.589,10.529
	c-9.563,0-18.566-4.66-24.083-12.466c-2.444-3.456-7.223-4.28-10.684-1.835c-3.456,2.444-4.279,7.226-1.835,10.683
	c8.386,11.865,22.07,18.949,36.602,18.949c13.279,0,25.791-5.832,34.329-16.002c3.635-4.329,6.361-9.235,8.128-14.448
	c9.253,9.999,14.552,23.184,14.552,37.11c0,30.137-24.522,54.656-54.665,54.656c-30.137,0-54.656-24.518-54.656-54.656
	c0-5.821,0.91-11.547,2.702-17.021c1.317-4.024-0.876-8.352-4.899-9.669c-4.025-1.317-8.353,0.876-9.67,4.898
	c-2.297,7.016-3.462,14.348-3.462,21.792c0,38.59,31.395,69.985,69.985,69.985c38.595,0,69.995-31.395,69.995-69.985
	C510.994,418.204,500.693,397.629,483.257,384.414z"/>
<path d="M215.171,268.024v-60.113c0-4.233-3.431-7.665-7.665-7.665c-4.234,0-7.665,3.432-7.665,7.665v67.448
	c0,4.233,3.431,7.665,7.665,7.665h3.832c3.804,0,6.897,3.095,6.897,6.897c0,3.804-3.094,6.898-6.897,6.898h-3.832
	c-4.234,0-7.665,3.432-7.665,7.665v19.928c0,4.233,3.431,7.665,7.665,7.665c4.234,0,7.665-3.432,7.665-7.665v-12.594
	c10.435-1.821,18.395-10.947,18.395-21.897C233.566,278.972,225.607,269.846,215.171,268.024z"/>
<path d="M215.171,144.248c0-50.999-41.49-92.489-92.489-92.489C55.035,51.758,0,106.793,0,174.44v101.189
	c0,4.233,3.431,7.665,7.665,7.665s7.665-3.432,7.665-7.665v-93.578c109.839-1.479,163.029-34.541,183.249-51.618
	c0.815,4.487,1.263,9.099,1.263,13.816c0,41.983-34.156,76.138-76.138,76.138h-3.617H89.428c-4.234,0-7.665,3.432-7.665,7.665
	c0,4.233,3.431,7.665,7.665,7.665h22.995v259.585H15.33V301.179c0-4.233-3.431-7.665-7.665-7.665S0,296.946,0,301.179v201.785
	c0,4.233,3.431,7.665,7.665,7.665h112.422c4.234,0,7.665-3.432,7.665-7.665V235.627C176.314,233.5,215.171,193.326,215.171,144.248z
	 M156.52,138.806c-45.232,21.672-100.204,27.291-140.91,27.909c3.972-55.602,50.476-99.627,107.072-99.627
	c31.856,0,59.262,19.406,71.025,47.017C188.757,118.974,177.132,128.93,156.52,138.806z"/>
<path d="M166.791,415.581c-4.234,0-7.665,3.432-7.665,7.665v72.059h-18.598c-4.234,0-7.665,3.432-7.665,7.665
	c0,4.233,3.431,7.665,7.665,7.665h26.263c4.234,0,7.665-3.432,7.665-7.665v-79.724C174.455,419.013,171.025,415.581,166.791,415.581
	z"/>
<path d="M193.67,374.705c-4.234,0-7.665,3.432-7.665,7.665v3.429c0,5.153-4.193,9.346-9.346,9.346h-33.066
	c-4.234,0-7.665,3.432-7.665,7.665c0,4.233,3.431,7.665,7.665,7.665h33.066c13.606,0,24.676-11.069,24.676-24.676v-3.429
	C201.335,378.137,197.903,374.705,193.67,374.705z"/>
<path d="M296.368,21.353c-1.137-7.337-5.427-13.059-12.403-16.548c-7.719-3.86-15.843-4.484-23.491-1.808
	c-8.648,3.026-15.284,9.637-19.794,15.571c-4.51-5.935-11.146-12.545-19.794-15.571c-7.65-2.678-15.773-2.052-23.491,1.808
	c-6.976,3.488-11.264,9.21-12.403,16.548c-2.001,12.914,5.897,30.402,24.143,53.463c12.685,16.032,25.656,28.68,26.204,29.21
	c1.487,1.445,3.414,2.169,5.342,2.169c1.927,0,3.854-0.723,5.342-2.169c0.547-0.53,13.519-13.179,26.204-29.21
	C290.472,51.755,298.369,34.267,296.368,21.353z M240.678,87.673c-19.588-20.241-42.64-50.398-40.537-63.972
	c0.261-1.677,0.952-3.605,4.109-5.183c2.442-1.22,4.79-1.828,7.094-1.828c1.495,0,2.971,0.255,4.442,0.766
	c8.893,3.087,15.971,14.695,17.94,18.89c1.255,2.709,3.968,4.443,6.955,4.443s5.7-1.734,6.955-4.443
	c0.069-0.15,7.271-15.157,17.904-18.878c3.749-1.312,7.535-0.969,11.571,1.05c3.158,1.579,3.85,3.505,4.109,5.182
	C283.321,37.252,260.267,67.418,240.678,87.673z"/>
<g>
</g>
<g>
</g>
<g>
</g>
<g>
</g>
<g>
</g>
<g>
</g>
<g>
</g>
<g>
</g>
<g>
</g>
<g>
</g>
<g>
</g>
<g>
</g>
<g>
</g>
<g>
</g>
<g>
</g>
</svg>
